<svg width="30" height="30" viewBox="0 0 30 30" fill="none" xmlns="http://www.w3.org/2000/svg">
<path fill-rule="evenodd" clip-rule="evenodd" d="M1.18975 12.8102L12.8102 1.18975C14.0196 -0.0196303 15.9804 -0.0196307 17.1897 1.18975L28.8102 12.8102C30.0195 14.0196 30.0195 15.9804 28.8102 17.1897L17.1897 28.8102C15.9804 30.0195 14.0196 30.0195 12.8102 28.8102L1.18975 17.1897C-0.0196305 15.9804 -0.0196305 14.0196 1.18975 12.8102ZM24.199 14.9994C24.199 20.0602 20.0964 24.1628 15.0356 24.1628C9.97473 24.1628 5.8721 20.0602 5.8721 14.9994C5.8721 9.93852 9.97473 5.83589 15.0356 5.83589C20.0964 5.83589 24.199 9.93852 24.199 14.9994Z" fill="#6F6F6F"/>
<path fill-rule="evenodd" clip-rule="evenodd" d="M12.4046 9.27344H17.7466C19.4569 9.27344 20.8434 10.6599 20.8434 12.3703V17.7123C20.8434 19.4226 19.4569 20.8091 17.7466 20.8091H12.4046C10.6942 20.8091 9.30774 19.4226 9.30774 17.7123V12.3703C9.30774 10.6599 10.6942 9.27344 12.4046 9.27344ZM19.0121 14.985C19.0121 17.1902 17.2245 18.9778 15.0193 18.9778C12.8141 18.9778 11.0265 17.1902 11.0265 14.985C11.0265 12.7798 12.8141 10.9922 15.0193 10.9922C17.2245 10.9922 19.0121 12.7798 19.0121 14.985Z" fill="#6F6F6F"/>
<path d="M14.4191 13.9L14.049 14.2701C13.6459 14.6732 13.6459 15.3268 14.049 15.7299L14.4191 16.1C14.8222 16.5031 15.4758 16.5031 15.8789 16.1L16.249 15.7299C16.6521 15.3268 16.6521 14.6732 16.249 14.2701L15.8789 13.9C15.4758 13.4969 14.8222 13.4969 14.4191 13.9Z" fill="#6F6F6F"/>
</svg>
