<svg width="207" height="237" fill="none" xmlns="http://www.w3.org/2000/svg"><path d="M7.164 228.832h1.313a4.19 4.19 0 0 1-.54 1.689 3.156 3.156 0 0 1-1.238 1.182c-.533.287-1.198.431-1.996.431a3.782 3.782 0 0 1-1.593-.328 3.544 3.544 0 0 1-1.223-.93 4.355 4.355 0 0 1-.793-1.456 6.215 6.215 0 0 1-.274-1.9v-.992c0-.697.091-1.328.274-1.893.187-.57.453-1.057.8-1.463.35-.406.772-.718 1.264-.937a4.06 4.06 0 0 1 1.661-.328c.752 0 1.388.142 1.908.424.52.283.922.675 1.21 1.176.291.497.471 1.073.54 1.729H7.164a3.665 3.665 0 0 0-.355-1.196 1.847 1.847 0 0 0-.739-.779c-.319-.182-.736-.274-1.25-.274-.443 0-.832.085-1.17.253a2.357 2.357 0 0 0-.84.718 3.34 3.34 0 0 0-.506 1.114 5.67 5.67 0 0 0-.171 1.443v1.005c0 .487.05.945.15 1.374.105.428.262.804.472 1.128.21.323.476.578.8.765.323.183.706.274 1.148.274.56 0 1.007-.089 1.34-.267.333-.178.583-.433.752-.766a3.88 3.88 0 0 0 .37-1.196Zm5.988 3.302c-.515 0-.982-.087-1.401-.26a3.181 3.181 0 0 1-1.073-.745 3.31 3.31 0 0 1-.684-1.135 4.159 4.159 0 0 1-.24-1.435v-.287c0-.602.09-1.137.268-1.607.177-.474.419-.875.724-1.203a3.11 3.11 0 0 1 1.04-.745 2.978 2.978 0 0 1 1.202-.253c.529 0 .985.091 1.367.273.388.183.705.438.95.766.247.324.429.706.547 1.148.119.438.178.917.178 1.436v.567h-5.523v-1.032h4.259v-.096a3.154 3.154 0 0 0-.206-.957 1.72 1.72 0 0 0-.546-.765c-.251-.201-.593-.301-1.026-.301a1.722 1.722 0 0 0-1.415.718 2.683 2.683 0 0 0-.403.868 4.403 4.403 0 0 0-.144 1.183v.287c0 .351.048.681.144.991.1.305.244.574.43.807.192.232.422.414.691.546a2.1 2.1 0 0 0 .93.199c.446 0 .825-.091 1.134-.274.31-.182.582-.426.814-.731l.766.608c-.16.242-.363.472-.609.691a2.921 2.921 0 0 1-.909.533c-.355.137-.777.205-1.265.205Zm9.297-7.533v1.046h-3.575v-1.046h3.575Zm1.114 0v7.396H22.3v-7.396h1.265Zm-4.997 0h1.272l-.192 3.568a13.242 13.242 0 0 1-.157 1.463 4.997 4.997 0 0 1-.287 1.08 2.244 2.244 0 0 1-.451.738 1.65 1.65 0 0 1-.643.417c-.25.087-.54.13-.868.13h-.396v-1.114l.273-.021a1.17 1.17 0 0 0 .5-.136.986.986 0 0 0 .355-.342c.095-.155.173-.353.232-.595a5.43 5.43 0 0 0 .144-.861c.036-.333.064-.72.082-1.162l.136-3.165Zm6.7 3.78v-.157c0-.533.077-1.028.232-1.484a3.52 3.52 0 0 1 .67-1.196 2.988 2.988 0 0 1 1.06-.793c.414-.191.88-.287 1.394-.287.52 0 .987.096 1.401.287.42.187.775.451 1.067.793.296.337.522.736.677 1.196.155.456.232.951.232 1.484v.157c0 .533-.077 1.028-.232 1.483a3.55 3.55 0 0 1-.677 1.197 3.11 3.11 0 0 1-1.06.793 3.34 3.34 0 0 1-1.394.28c-.52 0-.987-.094-1.402-.28a3.182 3.182 0 0 1-1.066-.793 3.617 3.617 0 0 1-.67-1.197 4.577 4.577 0 0 1-.232-1.483Zm1.264-.157v.157c0 .369.044.718.13 1.046.087.323.217.611.39.861.177.251.399.449.663.595.264.141.572.212.923.212.346 0 .65-.071.909-.212.264-.146.483-.344.656-.595.173-.25.303-.538.39-.861a3.89 3.89 0 0 0 .136-1.046v-.157a3.79 3.79 0 0 0-.136-1.032 2.656 2.656 0 0 0-.397-.869 1.886 1.886 0 0 0-.656-.601 1.84 1.84 0 0 0-.916-.219c-.346 0-.652.073-.916.219a1.96 1.96 0 0 0-.656.601c-.173.251-.303.54-.39.869a3.97 3.97 0 0 0-.13 1.032Zm17.22-1.901v1.074h-5.387v-1.074h5.387Zm-5.182-4.279v9.953H37.25v-9.953h1.32Zm6.33 0v9.953h-1.312v-9.953h1.312Zm1.819 6.337v-.157c0-.533.077-1.028.232-1.484.155-.46.379-.859.67-1.196a2.989 2.989 0 0 1 1.06-.793c.414-.191.88-.287 1.394-.287.52 0 .987.096 1.402.287.419.187.774.451 1.066.793.296.337.522.736.677 1.196.155.456.232.951.232 1.484v.157c0 .533-.077 1.028-.232 1.483a3.54 3.54 0 0 1-.677 1.197 3.11 3.11 0 0 1-1.06.793 3.34 3.34 0 0 1-1.394.28 3.39 3.39 0 0 1-1.402-.28 3.183 3.183 0 0 1-1.066-.793 3.618 3.618 0 0 1-.67-1.197 4.577 4.577 0 0 1-.232-1.483Zm1.264-.157v.157c0 .369.044.718.13 1.046.087.323.217.611.39.861.178.251.399.449.663.595.264.141.572.212.923.212.346 0 .65-.071.91-.212.263-.146.482-.344.655-.595a2.75 2.75 0 0 0 .39-.861c.091-.328.137-.677.137-1.046v-.157a3.79 3.79 0 0 0-.137-1.032 2.658 2.658 0 0 0-.397-.869 1.886 1.886 0 0 0-.656-.601 1.84 1.84 0 0 0-.916-.219c-.346 0-.651.073-.916.219a1.97 1.97 0 0 0-.656.601c-.173.251-.303.54-.39.869a3.97 3.97 0 0 0-.13 1.032Zm10.528.519h-2.427l-.014-1.011h1.983c.392 0 .718-.039.977-.117.265-.077.463-.193.595-.348a.855.855 0 0 0 .198-.574.902.902 0 0 0-.116-.465.84.84 0 0 0-.335-.335 1.655 1.655 0 0 0-.56-.199 3.874 3.874 0 0 0-.773-.068h-1.62v6.371h-1.265v-7.396h2.885c.47 0 .891.041 1.265.123.378.082.7.207.964.376.269.164.474.373.615.629.141.255.212.556.212.902a1.523 1.523 0 0 1-.54 1.169 2.2 2.2 0 0 1-.656.383c-.26.095-.559.157-.896.184l-.492.376Zm0 3.254h-2.885l.629-1.025h2.256c.35 0 .642-.043.875-.13.232-.091.405-.219.52-.383a1.02 1.02 0 0 0 .177-.601.988.988 0 0 0-.178-.595 1.041 1.041 0 0 0-.52-.383c-.232-.091-.523-.137-.874-.137h-1.921l.014-1.011H59l.458.382c.406.032.75.133 1.032.301.283.169.497.383.643.643.146.255.218.533.218.834 0 .346-.066.651-.198.916a1.749 1.749 0 0 1-.56.663 2.738 2.738 0 0 1-.896.396 4.95 4.95 0 0 1-1.19.13Zm5.906-2.003 3.411-5.393h1.272v7.396h-1.272v-5.393l-3.411 5.393h-1.258v-7.396h1.258v5.393Zm8.087-5.393v7.396h-1.265v-7.396h1.265Zm4.854 0-3.507 4.238h-1.77l-.192-1.107h1.449l2.481-3.131h1.539Zm-1.36 7.396-2.722-3.349.814-.916 3.514 4.265h-1.607Zm2.22-3.616v-.157c0-.533.078-1.028.233-1.484.155-.46.379-.859.67-1.196a2.989 2.989 0 0 1 1.06-.793c.414-.191.88-.287 1.394-.287.52 0 .987.096 1.402.287.419.187.774.451 1.066.793.296.337.522.736.677 1.196.155.456.232.951.232 1.484v.157c0 .533-.077 1.028-.232 1.483a3.54 3.54 0 0 1-.677 1.197 3.11 3.11 0 0 1-1.06.793 3.34 3.34 0 0 1-1.394.28 3.39 3.39 0 0 1-1.401-.28 3.183 3.183 0 0 1-1.067-.793 3.618 3.618 0 0 1-.67-1.197 4.577 4.577 0 0 1-.232-1.483Zm1.265-.157v.157c0 .369.044.718.13 1.046.087.323.217.611.39.861.178.251.399.449.663.595.264.141.572.212.923.212.346 0 .65-.071.91-.212.263-.146.482-.344.655-.595a2.75 2.75 0 0 0 .39-.861c.091-.328.137-.677.137-1.046v-.157a3.79 3.79 0 0 0-.137-1.032 2.658 2.658 0 0 0-.397-.869 1.886 1.886 0 0 0-.656-.601 1.84 1.84 0 0 0-.916-.219c-.346 0-.651.073-.916.219a1.97 1.97 0 0 0-.656.601c-.173.251-.303.54-.39.869a3.97 3.97 0 0 0-.13 1.032Zm10.528.519h-2.427l-.014-1.011h1.983c.392 0 .718-.039.977-.117.265-.077.463-.193.595-.348a.855.855 0 0 0 .198-.574.902.902 0 0 0-.116-.465.84.84 0 0 0-.335-.335 1.655 1.655 0 0 0-.56-.199 3.874 3.874 0 0 0-.773-.068h-1.62v6.371h-1.265v-7.396h2.885c.47 0 .891.041 1.265.123.378.082.7.207.964.376.268.164.474.373.615.629.141.255.212.556.212.902a1.523 1.523 0 0 1-.54 1.169 2.2 2.2 0 0 1-.656.383c-.26.095-.559.157-.896.184l-.492.376Zm0 3.254h-2.885l.629-1.025h2.256c.35 0 .642-.043.875-.13.232-.091.405-.219.52-.383a1.02 1.02 0 0 0 .177-.601.988.988 0 0 0-.178-.595 1.041 1.041 0 0 0-.52-.383c-.232-.091-.523-.137-.874-.137h-1.921l.014-1.011H90.5l.458.382c.406.032.75.133 1.032.301.283.169.497.383.643.643.146.255.219.533.219.834 0 .346-.066.651-.199.916a1.749 1.749 0 0 1-.56.663 2.738 2.738 0 0 1-.896.396 4.95 4.95 0 0 1-1.19.13Zm4.204-3.616v-.157c0-.533.077-1.028.232-1.484.155-.46.379-.859.67-1.196a2.989 2.989 0 0 1 1.06-.793c.415-.191.88-.287 1.394-.287.52 0 .987.096 1.402.287.419.187.774.451 1.066.793.296.337.522.736.677 1.196.155.456.232.951.232 1.484v.157c0 .533-.077 1.028-.232 1.483a3.557 3.557 0 0 1-.677 1.197 3.11 3.11 0 0 1-1.06.793c-.41.186-.874.28-1.394.28a3.39 3.39 0 0 1-1.401-.28 3.183 3.183 0 0 1-1.067-.793 3.618 3.618 0 0 1-.67-1.197 4.577 4.577 0 0 1-.232-1.483Zm1.265-.157v.157c0 .369.043.718.13 1.046.086.323.216.611.39.861.177.251.398.449.662.595.264.141.572.212.923.212.346 0 .65-.071.91-.212.264-.146.482-.344.655-.595a2.75 2.75 0 0 0 .39-.861c.091-.328.137-.677.137-1.046v-.157a3.79 3.79 0 0 0-.137-1.032 2.658 2.658 0 0 0-.396-.869 1.886 1.886 0 0 0-.657-.601 1.84 1.84 0 0 0-.916-.219c-.346 0-.651.073-.916.219a1.97 1.97 0 0 0-.656.601c-.173.251-.303.54-.39.869a3.97 3.97 0 0 0-.13 1.032Zm.092-222.61v9.954h-1.319V5.614h1.32Zm2.284 4.56v1.039h-2.366v-1.039h2.365Zm7.143.103v.628c0 .748-.093 1.418-.28 2.01a4.32 4.32 0 0 1-.807 1.51 3.5 3.5 0 0 1-1.264.951 3.97 3.97 0 0 1-1.641.328c-.588 0-1.128-.11-1.62-.328a3.642 3.642 0 0 1-1.272-.95 4.427 4.427 0 0 1-.827-1.51c-.196-.593-.294-1.263-.294-2.01v-.63c0-.747.096-1.415.287-2.002a4.428 4.428 0 0 1 .827-1.511c.356-.42.778-.738 1.265-.957a3.943 3.943 0 0 1 1.62-.328c.606 0 1.153.109 1.641.328.492.219.914.538 1.264.957.356.415.627.918.814 1.51.191.588.287 1.256.287 2.004Zm-1.306.628v-.642c0-.593-.061-1.117-.184-1.572-.119-.456-.294-.839-.527-1.149a2.268 2.268 0 0 0-.854-.704 2.595 2.595 0 0 0-1.135-.24c-.41 0-.781.08-1.114.24-.328.16-.61.394-.848.704a3.46 3.46 0 0 0-.54 1.149 5.87 5.87 0 0 0-.191 1.572v.642c0 .597.064 1.126.191 1.586.128.456.31.841.547 1.156.242.31.526.544.855.704.332.16.704.239 1.114.239a2.6 2.6 0 0 0 1.141-.24 2.22 2.22 0 0 0 .841-.703c.233-.315.408-.7.527-1.156.118-.46.177-.989.177-1.586Zm5.038 1.443-2.802-4.177h1.524l1.914 3.063h1.477l-.185 1.114h-1.928Zm.691-.13-2.147 3.35h-1.599l2.946-4.266.8.916Zm2.071-4.047v7.397h-1.264V8.17h1.264Zm4.314 0-2.803 4.177h-1.928l-.198-1.115h1.483l1.914-3.062h1.532Zm-1.354 7.397-2.153-3.35.813-.916 2.94 4.266h-1.6Zm7.786-4.19v1.024h-3.91v-1.025h3.91Zm-3.643-3.207v7.397h-1.265V8.17h1.265Zm4.669 0v7.397h-1.272V8.17h1.272Zm1.702 3.78v-.157c0-.533.077-1.028.232-1.483.155-.46.379-.86.67-1.197a2.99 2.99 0 0 1 1.06-.793 3.284 3.284 0 0 1 1.394-.287c.52 0 .987.096 1.402.287.419.187.774.452 1.066.793.296.338.522.736.677 1.197.155.455.232.95.232 1.483v.157a4.58 4.58 0 0 1-.232 1.484 3.555 3.555 0 0 1-.677 1.196 3.104 3.104 0 0 1-1.06.793c-.41.187-.875.28-1.394.28a3.37 3.37 0 0 1-1.401-.28 3.17 3.17 0 0 1-1.067-.793 3.627 3.627 0 0 1-.67-1.196 4.579 4.579 0 0 1-.232-1.484Zm1.264-.157v.157c0 .37.044.718.13 1.046.087.324.217.61.39.861.178.251.399.45.663.595.264.142.572.212.923.212.346 0 .649-.07.909-.212.264-.146.483-.344.656-.595.174-.25.303-.537.39-.86.091-.329.137-.678.137-1.047v-.157c0-.364-.046-.709-.137-1.032a2.68 2.68 0 0 0-.396-.868 1.888 1.888 0 0 0-.657-.602 1.839 1.839 0 0 0-.916-.219c-.346 0-.651.073-.916.22a1.976 1.976 0 0 0-.656.6c-.173.251-.303.54-.39.869-.086.323-.13.668-.13 1.032Zm9.687-.978v1.04h-3.336v-1.04h3.336Zm7.438 1.586h1.312a4.175 4.175 0 0 1-.54 1.689 3.16 3.16 0 0 1-1.237 1.183c-.534.287-1.199.43-1.996.43-.584 0-1.115-.11-1.593-.328a3.542 3.542 0 0 1-1.224-.93 4.35 4.35 0 0 1-.793-1.456 6.224 6.224 0 0 1-.273-1.9v-.991c0-.698.091-1.329.273-1.894.187-.57.454-1.057.8-1.463a3.563 3.563 0 0 1 1.265-.936c.492-.219 1.046-.328 1.661-.328.752 0 1.387.14 1.907.423s.923.675 1.21 1.176c.292.497.472 1.074.54 1.73h-1.312a3.667 3.667 0 0 0-.356-1.197 1.846 1.846 0 0 0-.738-.779c-.319-.182-.736-.273-1.251-.273a2.58 2.58 0 0 0-1.169.253 2.353 2.353 0 0 0-.841.717c-.223.31-.392.682-.506 1.115a5.663 5.663 0 0 0-.171 1.442v1.005c0 .488.05.946.151 1.374.104.428.262.804.471 1.128.21.323.477.579.8.765.324.183.707.274 1.149.274.56 0 1.007-.089 1.339-.267a1.74 1.74 0 0 0 .752-.765 3.87 3.87 0 0 0 .37-1.197Zm7.28 1.9v-3.807c0-.291-.059-.544-.178-.759a1.164 1.164 0 0 0-.519-.505c-.233-.119-.52-.178-.862-.178-.319 0-.599.055-.841.164-.237.11-.423.253-.56.43a.944.944 0 0 0-.198.575h-1.265c0-.265.068-.527.205-.786.137-.26.333-.495.588-.704.26-.215.57-.383.93-.506a3.66 3.66 0 0 1 1.216-.192c.538 0 1.012.091 1.422.274.415.182.739.458.971.827.237.364.355.822.355 1.374v3.445c0 .246.021.508.062.786.046.278.112.518.198.718v.11h-1.319a2.375 2.375 0 0 1-.151-.582 4.745 4.745 0 0 1-.054-.683Zm.219-3.219.013.889h-1.278c-.36 0-.681.03-.964.089a2.18 2.18 0 0 0-.711.253 1.135 1.135 0 0 0-.588 1.025c0 .232.053.444.157.636.105.191.262.344.472.458.214.11.476.164.786.164.388 0 .729-.082 1.026-.246.296-.164.531-.365.704-.602.177-.237.273-.467.287-.69l.54.608a1.846 1.846 0 0 1-.26.636 3.079 3.079 0 0 1-1.401 1.196 2.715 2.715 0 0 1-1.08.205c-.502 0-.941-.098-1.32-.294a2.263 2.263 0 0 1-.875-.786 2.08 2.08 0 0 1-.307-1.114c0-.397.077-.745.232-1.046.155-.305.378-.558.67-.759.292-.205.643-.36 1.053-.465.41-.104.868-.157 1.374-.157h1.47Zm3.889-2.912 1.62 2.693 1.641-2.693h1.483l-2.42 3.65 2.496 3.747h-1.463l-1.709-2.776-1.709 2.776h-1.47l2.488-3.747-2.413-3.65h1.456Zm10.452 6.132v-3.808c0-.291-.059-.544-.177-.759a1.167 1.167 0 0 0-.52-.505c-.232-.119-.519-.178-.861-.178-.319 0-.6.055-.841.164a1.48 1.48 0 0 0-.561.43.944.944 0 0 0-.198.575h-1.265c0-.265.069-.527.206-.786.136-.26.332-.495.587-.704.26-.215.57-.383.93-.506.365-.128.77-.192 1.217-.192.538 0 1.012.091 1.422.274.415.182.738.458.971.827.236.364.355.822.355 1.374v3.445c0 .246.02.508.062.786.045.278.111.518.198.718v.11h-1.32a2.38 2.38 0 0 1-.15-.582 4.754 4.754 0 0 1-.055-.683Zm.219-3.22.014.889h-1.279c-.36 0-.681.03-.963.089a2.18 2.18 0 0 0-.711.253 1.197 1.197 0 0 0-.438.43c-.1.169-.15.367-.15.595 0 .232.052.444.157.636.105.191.262.344.472.458.214.11.476.164.786.164a2.08 2.08 0 0 0 1.025-.246c.296-.164.531-.365.704-.602.178-.237.274-.467.287-.69l.54.608a1.822 1.822 0 0 1-.259.636 3.064 3.064 0 0 1-1.402 1.196 2.715 2.715 0 0 1-1.08.205c-.501 0-.941-.098-1.319-.294a2.256 2.256 0 0 1-.875-.786 2.082 2.082 0 0 1-.308-1.114c0-.397.078-.745.233-1.046.155-.305.378-.558.67-.759a3.18 3.18 0 0 1 1.052-.465c.41-.104.869-.157 1.374-.157h1.47Zm7.978-2.912v1.046h-3.576V8.17h3.576Zm1.114 0v7.397h-1.265V8.17h1.265Zm-4.997 0h1.271l-.191 3.568a13.23 13.23 0 0 1-.157 1.463 5.03 5.03 0 0 1-.287 1.08 2.259 2.259 0 0 1-.452.739 1.649 1.649 0 0 1-.642.417c-.251.086-.54.13-.868.13h-.397v-1.115l.274-.02a1.18 1.18 0 0 0 .499-.137.982.982 0 0 0 .355-.342c.096-.155.173-.353.233-.595.063-.241.111-.528.143-.86.037-.334.064-.72.082-1.163l.137-3.165Zm8.401 5.394 3.411-5.394h1.272v7.397h-1.272v-5.394l-3.411 5.394h-1.258V8.17h1.258v5.394Zm11.731-2.188v1.025h-3.911v-1.025h3.911Zm-3.644-3.206v7.397h-1.265V8.17h1.265Zm4.669 0v7.397h-1.271V8.17h1.271Zm4.997 6.494c.301 0 .579-.061.834-.184a1.72 1.72 0 0 0 .629-.506 1.41 1.41 0 0 0 .28-.745h1.203c-.022.437-.17.845-.444 1.223a3.032 3.032 0 0 1-1.06.91 3.072 3.072 0 0 1-1.442.341c-.556 0-1.041-.098-1.456-.294a2.883 2.883 0 0 1-1.025-.806 3.608 3.608 0 0 1-.609-1.176 4.968 4.968 0 0 1-.198-1.415v-.287c0-.497.066-.966.198-1.409.137-.446.34-.84.609-1.182.273-.342.615-.61 1.025-.807.415-.196.9-.294 1.456-.294.579 0 1.085.119 1.518.356a2.6 2.6 0 0 1 1.018.957c.251.4.388.857.41 1.367h-1.203a1.829 1.829 0 0 0-.259-.827 1.624 1.624 0 0 0-.602-.588 1.683 1.683 0 0 0-.882-.226c-.387 0-.713.078-.977.233-.26.15-.468.355-.623.615a2.9 2.9 0 0 0-.328.854 4.76 4.76 0 0 0-.095.95v.288c0 .323.032.642.095.957.064.314.171.6.322.854.155.255.362.46.622.616.264.15.592.225.984.225Zm5.742-6.494v7.397h-1.264V8.17h1.264Zm4.854 0-3.507 4.238h-1.771l-.191-1.107h1.449l2.482-3.131h1.538Zm-1.361 7.397-2.72-3.35.813-.916 3.514 4.266h-1.607Z" fill="#fff"/><path d="M143.476 24.96c-.432 7.486-7.772 11.66-26.338 23.753l-34.54 32.821c-2.16 3.023 7.771 15.116-5.614 23.321-4.75 1.727-9.498-1.727-7.34 9.069.864 6.478 5.009 22.371 12.953 37.572 7.945 15.202-11.657 33.11-22.451 40.164" stroke="#FF6C01" stroke-width="2"/><path d="M76.985 104.851c-4.75 1.727-9.499-1.728-7.34 9.069.863 6.478 5.008 22.371 12.953 37.572 7.944 15.202-11.658 33.11-22.452 40.164l-8.524 5.299c-2.446 1.728 1.301 6.505-3.565 13.271" stroke="#fff" stroke-width="2"/><path d="M51.622 196.958c-2.446 1.728 1.301 6.506-3.565 13.271" stroke="#838383" stroke-width="2"/><circle cx="143.874" cy="23.794" r="3" fill="#FF6C01"/><circle cx="48.117" cy="209.591" r="3" fill="#838383"/><circle cx="70.495" cy="117.474" r="3" fill="#fff"/><circle cx="76.22" cy="177.849" r="3" fill="#fff"/></svg>