<svg width="380" height="452" fill="none" xmlns="http://www.w3.org/2000/svg"><path d="M86.933 356.993c-.147 3.354 3.244 2.663 4.958 1.898 9.152 2.082-4.017 14.949-3.98 14.11.037-.838-8.681 6.342-11.27 7.909-2.072 1.253-4.807 13.793-5.916 19.907-.657 2.212-3.656 6.73-10.395 7.106-6.739.377-5.942-5.022-4.7-7.768 3.344-6.016 9.545-18.404 7.592-19.834-2.443-1.788.184-4.194.33-7.548.118-2.684 4.523-.922 6.71.294.304-.547.934-2.144 1.023-4.156.088-2.013 7.354-1.639 10.976-1.2 1.619-4.97 4.819-14.073 4.672-10.718Zm-60.658 41.874c-2.012-.089-1.711-5.677-1.309-8.461l-2.406-2.626c-1.714.765-5.332 2.791-6.091 4.774-.95 2.48-6.526-4.487-5.069.618 1.165 4.085-.319 7.269-1.207 8.35 1.64.912 5.243 3.087 6.526 4.488 1.604 1.751 12.072-7.033 9.556-7.143Zm14.265-18.701c.436 5.397 2.394 2.906 3.318.986 4.726-.465 4.132 1.582 3.245 2.663-2.808.157-8.308 1.652-7.843 6.378.465 4.726-2.165 4.667-3.538 4.046-.56-.024-2.334-.438-4.959-1.898-2.625-1.459-.29-6.175 1.207-8.35l4.524-7.364c1.167-1.069 3.611-1.858 4.046 3.539Zm9.778-12.175c3.413-1.195 1.035-4.436-.581-5.908-3.326-.818-5.981 2.258-6.894 3.899 1.07 1.167 4.061 3.203 7.475 2.009Z" fill="#191C20"/><path d="M19.305 72.203V85h-1.697V72.203h1.697Zm2.935 5.862v1.336H19.2v-1.336h3.04Zm9.185.132v.809c0 .96-.12 1.822-.36 2.584s-.587 1.409-1.038 1.942c-.45.533-.993.94-1.626 1.222-.627.281-1.33.422-2.109.422a5.07 5.07 0 0 1-2.083-.422 4.683 4.683 0 0 1-1.635-1.222c-.457-.533-.811-1.18-1.063-1.942-.252-.762-.378-1.623-.378-2.584v-.809c0-.96.123-1.82.369-2.575.252-.762.606-1.41 1.063-1.942.457-.54 1-.95 1.626-1.23a5.072 5.072 0 0 1 2.083-.423c.78 0 1.483.141 2.11.422a4.457 4.457 0 0 1 1.626 1.23c.457.534.805 1.181 1.046 1.943.246.756.369 1.614.369 2.575Zm-1.679.809v-.826c0-.762-.079-1.436-.237-2.022-.153-.586-.378-1.078-.677-1.476a2.918 2.918 0 0 0-1.099-.906c-.427-.205-.914-.307-1.459-.307a3.27 3.27 0 0 0-1.432.307 3.031 3.031 0 0 0-1.09.906c-.299.398-.53.89-.694 1.476-.164.586-.247 1.26-.247 2.022v.826c0 .767.083 1.447.247 2.039.164.586.398 1.081.703 1.485.31.399.677.7 1.098.906a3.27 3.27 0 0 0 1.433.307c.55 0 1.04-.102 1.468-.307a2.866 2.866 0 0 0 1.08-.906c.3-.404.525-.9.678-1.485.152-.592.228-1.272.228-2.04Zm6.478 1.854-3.604-5.37h1.96l2.461 3.938h1.899l-.238 1.432h-2.478Zm.887-.167L34.351 85h-2.056l3.788-5.484 1.028 1.177Zm2.663-5.203V85h-1.626v-9.51h1.626Zm5.546 0-3.603 5.37h-2.479l-.255-1.432h1.908l2.46-3.938h1.97ZM43.58 85l-2.768-4.307 1.045-1.177L45.637 85H43.58Zm10.01-5.388v1.319h-5.027v-1.319h5.028Zm-4.684-4.122V85H47.28v-9.51h1.626Zm6.003 0V85h-1.635v-9.51h1.635Zm2.189 4.86v-.202c0-.685.1-1.32.299-1.907a4.544 4.544 0 0 1 .86-1.538c.376-.44.83-.78 1.363-1.02.533-.246 1.131-.369 1.793-.369.668 0 1.269.124 1.802.37.539.24.996.58 1.37 1.02.382.433.672.945.871 1.537.2.586.299 1.222.299 1.907v.203a5.9 5.9 0 0 1-.299 1.907c-.2.586-.49 1.098-.87 1.538-.375.433-.83.773-1.362 1.02-.528.24-1.125.36-1.793.36-.668 0-1.269-.12-1.802-.36a4.077 4.077 0 0 1-1.371-1.02 4.645 4.645 0 0 1-.861-1.538 5.89 5.89 0 0 1-.3-1.907Zm1.626-.202v.203c0 .474.055.922.167 1.344.111.416.278.786.5 1.108.23.322.513.577.853.764.34.182.736.273 1.187.273.445 0 .835-.091 1.169-.273.34-.187.62-.442.843-.764a3.54 3.54 0 0 0 .501-1.108 5.01 5.01 0 0 0 .176-1.344v-.203c0-.468-.059-.91-.176-1.327a3.416 3.416 0 0 0-.51-1.116 2.423 2.423 0 0 0-.843-.773c-.334-.188-.727-.282-1.178-.282-.445 0-.838.094-1.178.282a2.53 2.53 0 0 0-.843.773 3.51 3.51 0 0 0-.501 1.116 5.116 5.116 0 0 0-.167 1.327Zm12.454-1.256v1.336h-4.29v-1.336h4.29Zm9.562 2.039h1.688a5.382 5.382 0 0 1-.695 2.17 4.06 4.06 0 0 1-1.59 1.521c-.686.37-1.541.554-2.567.554-.75 0-1.432-.14-2.048-.422a4.55 4.55 0 0 1-1.573-1.195 5.594 5.594 0 0 1-1.02-1.873c-.234-.732-.351-1.546-.351-2.443V77.97c0-.897.117-1.708.352-2.435.24-.732.583-1.36 1.028-1.88a4.587 4.587 0 0 1 1.626-1.205c.633-.281 1.345-.422 2.136-.422.966 0 1.784.182 2.452.545a3.902 3.902 0 0 1 1.555 1.512c.375.639.607 1.38.695 2.224H80.74c-.082-.598-.234-1.11-.457-1.539a2.376 2.376 0 0 0-.949-1.001c-.41-.235-.946-.352-1.608-.352-.569 0-1.07.108-1.503.325a3.026 3.026 0 0 0-1.081.923 4.294 4.294 0 0 0-.65 1.433 7.284 7.284 0 0 0-.22 1.854v1.292c0 .627.064 1.216.193 1.767.135.55.337 1.034.606 1.45.27.416.613.744 1.029.984.416.235.908.352 1.476.352.72 0 1.295-.114 1.723-.343.428-.228.75-.556.967-.984.222-.428.38-.94.474-1.538Zm9.36 2.443v-4.895c0-.376-.076-.7-.228-.976a1.496 1.496 0 0 0-.668-.65c-.299-.153-.668-.229-1.107-.229-.41 0-.77.07-1.081.211-.305.14-.545.325-.721.554a1.21 1.21 0 0 0-.255.738h-1.626c0-.34.088-.677.264-1.01.175-.335.428-.636.756-.906a3.78 3.78 0 0 1 1.195-.65c.469-.165.99-.247 1.564-.247.692 0 1.301.118 1.829.352a2.73 2.73 0 0 1 1.247 1.064c.305.468.458 1.057.458 1.766v4.43c0 .316.026.653.079 1.01.058.358.143.666.255.923V85h-1.697a3.035 3.035 0 0 1-.193-.747 6.02 6.02 0 0 1-.07-.879Zm.282-4.14.017 1.143h-1.643a6.07 6.07 0 0 0-1.24.114c-.363.07-.667.179-.913.325a1.546 1.546 0 0 0-.563.554 1.468 1.468 0 0 0-.193.765c0 .299.067.571.202.817s.337.442.606.589c.276.14.613.211 1.011.211.498 0 .938-.105 1.318-.316a2.76 2.76 0 0 0 .906-.774c.228-.305.351-.6.369-.888l.694.783c-.04.246-.152.518-.334.817a3.937 3.937 0 0 1-1.802 1.538c-.41.176-.873.264-1.388.264-.645 0-1.21-.126-1.697-.378a2.902 2.902 0 0 1-1.125-1.01 2.676 2.676 0 0 1-.395-1.433c0-.51.1-.959.299-1.345.199-.393.486-.718.861-.976a4.092 4.092 0 0 1 1.354-.598 7.143 7.143 0 0 1 1.766-.202h1.89Zm5-3.744 2.084 3.463 2.11-3.463h1.906l-3.11 4.694L101.578 85h-1.88L97.5 81.432 95.304 85h-1.89l3.2-4.816-3.103-4.694h1.872Zm13.439 7.884v-4.895c0-.376-.076-.7-.228-.976a1.498 1.498 0 0 0-.668-.65c-.299-.153-.668-.229-1.108-.229-.41 0-.77.07-1.081.211-.304.14-.545.325-.72.554a1.21 1.21 0 0 0-.255.738h-1.626c0-.34.088-.677.263-1.01.176-.335.428-.636.756-.906a3.783 3.783 0 0 1 1.196-.65c.468-.165.99-.247 1.564-.247.691 0 1.301.118 1.828.352a2.74 2.74 0 0 1 1.248 1.064c.305.468.457 1.057.457 1.766v4.43c0 .316.027.653.079 1.01.059.358.144.666.255.923V85h-1.696a3.001 3.001 0 0 1-.193-.747 6.013 6.013 0 0 1-.071-.879Zm.282-4.14.017 1.143h-1.643c-.463 0-.876.038-1.24.114a2.84 2.84 0 0 0-.914.325 1.546 1.546 0 0 0-.562.554 1.468 1.468 0 0 0-.194.765c0 .299.068.571.203.817.134.246.336.442.606.589.275.14.612.211 1.011.211.498 0 .937-.105 1.318-.316.381-.211.683-.47.905-.774.229-.305.352-.6.369-.888l.695.783c-.041.246-.153.518-.334.817a3.912 3.912 0 0 1-.73.861c-.298.27-.656.496-1.072.677a3.49 3.49 0 0 1-1.389.264c-.644 0-1.21-.126-1.696-.378a2.907 2.907 0 0 1-1.125-1.01 2.672 2.672 0 0 1-.395-1.433c0-.51.099-.959.298-1.345.2-.393.487-.718.862-.976a4.093 4.093 0 0 1 1.353-.598 7.147 7.147 0 0 1 1.767-.202h1.89Zm10.256-3.744v1.345h-4.596V75.49h4.596Zm1.433 0V85h-1.626v-9.51h1.626Zm-6.425 0h1.635l-.246 4.588a17.177 17.177 0 0 1-.202 1.881 6.439 6.439 0 0 1-.369 1.389 2.9 2.9 0 0 1-.581.949c-.228.24-.503.419-.826.536a3.412 3.412 0 0 1-1.116.167h-.51v-1.433l.352-.026c.252-.018.466-.076.642-.176.181-.1.333-.246.457-.44a2.64 2.64 0 0 0 .298-.764c.082-.31.144-.68.185-1.107.047-.428.082-.926.105-1.494l.176-4.07Zm10.802 6.935 4.386-6.935h1.634V85h-1.634v-6.935L125.169 85h-1.617v-9.51h1.617v6.935Zm15.082-2.813v1.319h-5.027v-1.319h5.027Zm-4.685-4.122V85h-1.626v-9.51h1.626Zm6.003 0V85h-1.634v-9.51h1.634Zm6.425 8.35c.387 0 .744-.08 1.072-.237.329-.159.598-.375.809-.65.211-.282.331-.601.36-.959h1.547a2.902 2.902 0 0 1-.571 1.573c-.346.48-.8.87-1.362 1.17a3.956 3.956 0 0 1-1.855.439c-.715 0-1.339-.126-1.872-.378a3.708 3.708 0 0 1-1.318-1.037 4.633 4.633 0 0 1-.783-1.512 6.411 6.411 0 0 1-.254-1.82v-.368c0-.64.085-1.243.254-1.811a4.619 4.619 0 0 1 .783-1.52c.351-.44.791-.786 1.318-1.038.533-.252 1.157-.377 1.872-.377.744 0 1.395.152 1.951.457.557.298.993.709 1.31 1.23.322.516.498 1.102.527 1.758h-1.547a2.331 2.331 0 0 0-.334-1.064 2.078 2.078 0 0 0-.773-.756c-.322-.193-.7-.29-1.134-.29-.498 0-.917.1-1.257.3-.334.193-.6.456-.799.79a3.68 3.68 0 0 0-.422 1.099 6.044 6.044 0 0 0-.123 1.222v.369c0 .416.041.826.123 1.23.082.404.219.77.413 1.099.199.328.466.592.8.79.339.194.761.29 1.265.29Zm7.383-8.35V85h-1.626v-9.51h1.626Zm6.24 0-4.509 5.45h-2.276l-.246-1.424h1.863l3.191-4.026h1.977ZM159.868 85l-3.498-4.307 1.046-1.177L161.934 85h-2.066Zm87.681-69.38V17h-9.686v-1.38h9.686Zm-9.413 0v4.527h-1.679l-.009-4.527h1.688Zm10.889 0-.017 4.518h-1.679V15.62h1.696Zm-3.137-11.417v1.389h-5.608V4.203h5.608Zm1.459 0V17h-1.688V4.203h1.688Zm-7.647 0h1.696l-.263 5.15a17.68 17.68 0 0 1-.22 2.145 14.57 14.57 0 0 1-.413 1.784 9.696 9.696 0 0 1-.562 1.45 6.684 6.684 0 0 1-.677 1.1 4.18 4.18 0 0 1-.756.755 2.6 2.6 0 0 1-.782.413h-.774v-1.38h.545c.152-.164.325-.401.519-.712a7.06 7.06 0 0 0 .589-1.204c.199-.498.372-1.104.518-1.82.152-.714.255-1.558.308-2.53l.272-5.15Zm10.644 8.148v-.203c0-.685.099-1.32.299-1.907a4.528 4.528 0 0 1 .861-1.538c.375-.44.829-.78 1.362-1.02a4.245 4.245 0 0 1 1.793-.369c.668 0 1.269.123 1.802.37.539.24.996.58 1.371 1.02.381.433.671.945.87 1.537.199.586.299 1.222.299 1.907v.203a5.9 5.9 0 0 1-.299 1.907 4.557 4.557 0 0 1-.87 1.538 3.987 3.987 0 0 1-1.362 1.02c-.528.24-1.125.36-1.793.36-.668 0-1.269-.12-1.802-.36a4.08 4.08 0 0 1-1.371-1.02 4.641 4.641 0 0 1-.861-1.538 5.868 5.868 0 0 1-.299-1.907Zm1.626-.203v.203c0 .474.055.922.167 1.344.111.416.278.785.501 1.108.228.322.512.577.852.764.34.182.736.273 1.187.273.445 0 .835-.091 1.169-.273a2.44 2.44 0 0 0 .843-.764c.223-.323.39-.692.501-1.108a4.97 4.97 0 0 0 .176-1.344v-.203c0-.468-.058-.91-.176-1.327a3.42 3.42 0 0 0-.509-1.116 2.425 2.425 0 0 0-.844-.773c-.334-.188-.727-.282-1.178-.282a2.4 2.4 0 0 0-1.178.282 2.522 2.522 0 0 0-.843.773 3.51 3.51 0 0 0-.501 1.116 5.086 5.086 0 0 0-.167 1.327Zm15.284-4.658v1.345h-4.597V7.49h4.597Zm1.433 0V17h-1.626V7.49h1.626Zm-6.425 0h1.634l-.246 4.588a16.935 16.935 0 0 1-.202 1.881 6.439 6.439 0 0 1-.369 1.389 2.898 2.898 0 0 1-.58.949c-.228.24-.504.419-.826.536a3.412 3.412 0 0 1-1.116.167h-.51v-1.433l.351-.026c.252-.018.466-.076.642-.176.182-.1.334-.246.457-.44a2.64 2.64 0 0 0 .299-.764c.082-.31.143-.68.184-1.107.047-.428.082-.926.106-1.494l.176-4.07Zm10.801 6.935 4.386-6.935h1.635V17h-1.635v-6.935L273.063 17h-1.617V7.49h1.617v6.935Zm15.083-2.813v1.319h-5.028v-1.319h5.028Zm-4.685-4.122V17h-1.626V7.49h1.626Zm6.003 0V17h-1.635V7.49h1.635Zm6.425 8.35c.386 0 .744-.08 1.072-.238.328-.158.598-.375.809-.65.21-.281.331-.6.36-.958h1.547a2.903 2.903 0 0 1-.572 1.573c-.345.48-.799.87-1.362 1.17a3.952 3.952 0 0 1-1.854.439c-.715 0-1.339-.126-1.872-.378a3.711 3.711 0 0 1-1.319-1.037 4.65 4.65 0 0 1-.782-1.512 6.376 6.376 0 0 1-.255-1.82v-.369c0-.638.085-1.242.255-1.81a4.637 4.637 0 0 1 .782-1.52c.352-.44.791-.786 1.319-1.038.533-.252 1.157-.378 1.872-.378.744 0 1.394.153 1.951.457.556.3.993.71 1.309 1.231.323.516.498 1.101.528 1.758h-1.547a2.343 2.343 0 0 0-.334-1.064 2.081 2.081 0 0 0-.774-.756c-.322-.193-.7-.29-1.133-.29-.498 0-.917.1-1.257.3a2.201 2.201 0 0 0-.8.79 3.706 3.706 0 0 0-.422 1.099 6.044 6.044 0 0 0-.123 1.221v.37c0 .416.041.826.123 1.23.082.405.22.77.413 1.099.199.328.466.592.8.79.34.194.762.29 1.266.29Zm7.382-8.35V17h-1.625V7.49h1.625Zm6.241 0-4.509 5.45h-2.276l-.247-1.424h1.864l3.19-4.026h1.978ZM307.763 17l-3.498-4.307 1.046-1.177L309.828 17h-2.065Zm-28.057 83.838 3.234-7.348h1.565l-4.236 9.51h-1.125l-4.219-9.51h1.564l3.217 7.348Zm-3.691-7.348V103h-1.626v-9.51h1.626Zm7.33 9.51v-9.51h1.634V103h-1.634Zm5.59-6.24h2.856c.768 0 1.415.134 1.942.404.528.264.926.63 1.196 1.099.275.463.413.99.413 1.582 0 .439-.076.852-.229 1.239a2.784 2.784 0 0 1-.685 1.002 3.17 3.17 0 0 1-1.116.677c-.44.158-.947.237-1.521.237h-4.043v-9.51h1.626v8.174h2.417c.469 0 .844-.085 1.125-.255.281-.17.483-.389.606-.659.124-.27.185-.551.185-.844 0-.287-.061-.568-.185-.844a1.579 1.579 0 0 0-.606-.685c-.281-.188-.656-.281-1.125-.281h-2.856V96.76Zm9.791-3.27V103H297.1v-9.51h1.626Zm6.653 8.35c.387 0 .744-.079 1.072-.237.328-.159.598-.375.809-.651.211-.281.331-.6.36-.958h1.547a2.899 2.899 0 0 1-.571 1.573c-.346.481-.8.871-1.363 1.169a3.95 3.95 0 0 1-1.854.44c-.715 0-1.339-.126-1.872-.378a3.716 3.716 0 0 1-1.319-1.037 4.661 4.661 0 0 1-.782-1.512 6.376 6.376 0 0 1-.255-1.82v-.368c0-.64.085-1.243.255-1.811a4.636 4.636 0 0 1 .782-1.52 3.71 3.71 0 0 1 1.319-1.038c.533-.252 1.157-.377 1.872-.377.744 0 1.394.152 1.951.457.557.298.993.709 1.31 1.23.322.516.498 1.102.527 1.758h-1.547a2.343 2.343 0 0 0-.334-1.064 2.078 2.078 0 0 0-.773-.756 2.169 2.169 0 0 0-1.134-.29c-.498 0-.917.1-1.257.3a2.201 2.201 0 0 0-.8.79 3.707 3.707 0 0 0-.422 1.099 6.044 6.044 0 0 0-.123 1.222v.369c0 .416.041.826.123 1.23.082.404.22.771.413 1.099.2.328.466.592.8.791.34.193.762.29 1.266.29Zm20.18-5.643v.809c0 .96-.121 1.822-.361 2.584s-.586 1.409-1.037 1.942a4.495 4.495 0 0 1-1.626 1.222c-.627.281-1.33.422-2.109.422-.756 0-1.45-.141-2.083-.422a4.685 4.685 0 0 1-1.635-1.222c-.457-.533-.812-1.18-1.063-1.942-.252-.762-.378-1.623-.378-2.584v-.809c0-.96.123-1.82.369-2.575.252-.762.606-1.41 1.063-1.942.457-.54.999-.95 1.626-1.23a5.072 5.072 0 0 1 2.083-.423c.78 0 1.483.141 2.11.422a4.47 4.47 0 0 1 1.626 1.23c.457.534.805 1.181 1.045 1.943.247.756.37 1.614.37 2.575Zm-1.679.809v-.826c0-.762-.079-1.436-.237-2.022-.153-.586-.378-1.078-.677-1.476a2.918 2.918 0 0 0-1.099-.906 3.334 3.334 0 0 0-1.459-.307c-.527 0-1.005.102-1.432.307a3.026 3.026 0 0 0-1.09.906c-.299.398-.531.89-.695 1.476-.164.586-.246 1.26-.246 2.022v.826c0 .767.082 1.447.246 2.039.164.586.399 1.081.704 1.485.31.399.676.7 1.098.906.428.205.905.307 1.433.307.551 0 1.04-.102 1.468-.307a2.878 2.878 0 0 0 1.081-.906c.298-.404.524-.9.676-1.485.153-.592.229-1.272.229-2.04Zm7.778 4.834c.387 0 .744-.079 1.072-.237.329-.159.598-.375.809-.651.211-.281.331-.6.36-.958h1.547a2.89 2.89 0 0 1-.571 1.573c-.346.481-.8.871-1.362 1.169a3.957 3.957 0 0 1-1.855.44c-.715 0-1.339-.126-1.872-.378a3.713 3.713 0 0 1-1.318-1.037 4.623 4.623 0 0 1-.782-1.512 6.376 6.376 0 0 1-.255-1.82v-.368c0-.64.085-1.243.255-1.811a4.598 4.598 0 0 1 .782-1.52c.351-.44.791-.786 1.318-1.038.533-.252 1.157-.377 1.872-.377.744 0 1.395.152 1.951.457a3.35 3.35 0 0 1 1.31 1.23c.322.516.498 1.102.527 1.758h-1.547a2.331 2.331 0 0 0-.334-1.064 2.078 2.078 0 0 0-.773-.756c-.322-.193-.7-.29-1.134-.29-.498 0-.917.1-1.257.3-.334.193-.6.456-.799.79a3.68 3.68 0 0 0-.422 1.099 6.044 6.044 0 0 0-.123 1.222v.369c0 .416.041.826.123 1.23.082.404.219.771.413 1.099.199.328.466.592.8.791.339.193.761.29 1.265.29Zm9.492-8.35V103h-1.634v-9.51h1.634Zm3.191 0v1.319h-7.954V93.49h7.954Zm3.225 1.828v11.338h-1.634V93.49h1.494l.14 1.828Zm6.408 2.848v.185c0 .691-.082 1.333-.246 1.924a4.768 4.768 0 0 1-.721 1.53c-.311.433-.695.77-1.152 1.01-.457.241-.981.361-1.573.361-.603 0-1.136-.1-1.599-.299a3.149 3.149 0 0 1-1.178-.87 4.468 4.468 0 0 1-.774-1.371 7.946 7.946 0 0 1-.386-1.802v-.984c.07-.703.202-1.333.395-1.89a4.71 4.71 0 0 1 .765-1.424 3.14 3.14 0 0 1 1.169-.905c.457-.211.984-.317 1.582-.317.598 0 1.128.118 1.591.352.463.228.852.557 1.169.984.316.428.553.94.712 1.538a7.4 7.4 0 0 1 .246 1.978Zm-1.635.185v-.185c0-.475-.05-.92-.15-1.336a3.36 3.36 0 0 0-.465-1.107 2.22 2.22 0 0 0-.791-.756c-.323-.188-.706-.281-1.152-.281-.41 0-.767.07-1.072.21a2.329 2.329 0 0 0-.765.572 3.033 3.033 0 0 0-.518.808c-.129.3-.226.61-.29.932v2.276c.117.41.281.797.492 1.161.211.357.492.647.844.87.351.216.794.325 1.327.325.439 0 .817-.091 1.134-.273.322-.187.586-.442.791-.764a3.48 3.48 0 0 0 .465-1.108c.1-.422.15-.87.15-1.344Zm5.045-1.591h2.856c.768 0 1.415.134 1.943.404.527.264.925.63 1.195 1.099.275.463.413.99.413 1.582 0 .439-.076.852-.229 1.239-.152.381-.38.715-.685 1.002a3.17 3.17 0 0 1-1.116.677c-.44.158-.947.237-1.521.237h-4.043v-9.51h1.626v8.174h2.417c.469 0 .844-.085 1.125-.255.281-.17.484-.389.607-.659s.184-.551.184-.844c0-.287-.061-.568-.184-.844a1.581 1.581 0 0 0-.607-.685c-.281-.188-.656-.281-1.125-.281h-2.856V96.76Zm9.791-3.27V103h-1.626v-9.51h1.626Zm4.605 6.935 4.386-6.935h1.635V103h-1.635v-6.935L371.78 103h-1.617v-9.51h1.617v6.935Zm3.498-10.38h1.319c0 .457-.106.864-.317 1.222a2.171 2.171 0 0 1-.905.826c-.393.199-.858.299-1.397.299-.815 0-1.459-.217-1.934-.65-.469-.44-.703-1.006-.703-1.697h1.318c0 .346.1.65.299.914.199.264.539.395 1.02.395.468 0 .802-.131 1.001-.395.2-.264.299-.568.299-.914Zm-259.94 261.152v.809c0 .961-.12 1.822-.36 2.584-.241.762-.586 1.409-1.038 1.942a4.495 4.495 0 0 1-1.626 1.222c-.626.281-1.33.422-2.109.422-.756 0-1.45-.141-2.083-.422a4.685 4.685 0 0 1-1.635-1.222c-.457-.533-.811-1.18-1.063-1.942-.252-.762-.378-1.623-.378-2.584v-.809c0-.961.123-1.819.369-2.575.252-.762.606-1.409 1.064-1.942a4.56 4.56 0 0 1 1.625-1.231 5.08 5.08 0 0 1 2.084-.422c.779 0 1.482.141 2.109.422a4.453 4.453 0 0 1 1.626 1.231c.457.533.806 1.18 1.046 1.942.246.756.369 1.614.369 2.575Zm-1.679.809v-.826c0-.762-.079-1.436-.237-2.022-.152-.586-.378-1.078-.677-1.476a2.914 2.914 0 0 0-1.099-.906c-.427-.205-.914-.307-1.458-.307-.528 0-1.005.102-1.433.307a3.03 3.03 0 0 0-1.09.906c-.299.398-.53.89-.694 1.476-.164.586-.246 1.26-.246 2.022v.826c0 .767.082 1.447.246 2.039.164.586.398 1.081.703 1.485.31.399.677.7 1.098.906.428.205.906.307 1.433.307.551 0 1.04-.102 1.468-.307a2.87 2.87 0 0 0 1.081-.906c.299-.404.524-.899.677-1.485.152-.592.228-1.272.228-2.039Zm5.071-3.516 2.083 3.463 2.11-3.463h1.907l-3.111 4.694 3.208 4.816h-1.881l-2.197-3.568-2.198 3.568h-1.889l3.199-4.816-3.103-4.694h1.872Zm7.225 4.861v-.203c0-.685.1-1.321.299-1.907a4.529 4.529 0 0 1 .861-1.538 3.84 3.84 0 0 1 1.363-1.019c.533-.246 1.13-.37 1.793-.37.667 0 1.268.124 1.801.37.539.24.996.58 1.371 1.019.381.434.671.946.87 1.538.2.586.299 1.222.299 1.907v.203a5.87 5.87 0 0 1-.299 1.907 4.561 4.561 0 0 1-.87 1.538 3.992 3.992 0 0 1-1.362 1.019c-.527.241-1.125.361-1.793.361-.668 0-1.268-.12-1.802-.361a4.085 4.085 0 0 1-1.371-1.019 4.646 4.646 0 0 1-.861-1.538 5.896 5.896 0 0 1-.299-1.907Zm1.626-.203v.203c0 .474.056.922.167 1.344.111.416.278.785.501 1.108.229.322.513.577.853.764.339.182.735.273 1.186.273.445 0 .835-.091 1.169-.273.34-.187.621-.442.844-.764.222-.323.389-.692.501-1.108a5.01 5.01 0 0 0 .176-1.344v-.203c0-.468-.059-.911-.176-1.327a3.417 3.417 0 0 0-.51-1.116 2.42 2.42 0 0 0-.844-.773c-.334-.188-.726-.282-1.177-.282-.446 0-.838.094-1.178.282a2.529 2.529 0 0 0-.844.773 3.51 3.51 0 0 0-.501 1.116 5.132 5.132 0 0 0-.167 1.327Zm12.753-4.658V358h-1.635v-9.51h1.635Zm3.19 0v1.319h-7.954v-1.319h7.954Zm4.703 8.35a2.44 2.44 0 0 0 1.072-.237c.328-.159.597-.375.808-.651.211-.281.331-.6.361-.958h1.547a2.9 2.9 0 0 1-.572 1.573 3.875 3.875 0 0 1-1.362 1.169 3.953 3.953 0 0 1-1.854.44c-.715 0-1.339-.126-1.873-.378a3.721 3.721 0 0 1-1.318-1.037 4.642 4.642 0 0 1-.782-1.512 6.377 6.377 0 0 1-.255-1.819v-.369c0-.639.085-1.243.255-1.811a4.627 4.627 0 0 1 .782-1.521 3.721 3.721 0 0 1 1.318-1.037c.534-.252 1.158-.378 1.873-.378.744 0 1.394.153 1.951.457.556.299.993.709 1.309 1.231.323.516.498 1.102.528 1.758h-1.547a2.358 2.358 0 0 0-.334-1.064 2.096 2.096 0 0 0-.774-.756c-.322-.193-.7-.29-1.133-.29-.498 0-.917.1-1.257.299a2.206 2.206 0 0 0-.8.791 3.71 3.71 0 0 0-.422 1.099 6.045 6.045 0 0 0-.123 1.222v.369c0 .416.041.826.123 1.23.082.404.22.771.413 1.099.199.328.466.592.8.791.34.193.762.29 1.266.29Zm7.382-8.35V358h-1.626v-9.51h1.626Zm6.241 0-4.509 5.449h-2.277l-.246-1.423h1.864l3.19-4.026h1.978Zm-1.749 9.51-3.498-4.307 1.045-1.177 4.518 5.484h-2.065Zm2.856-4.649v-.203c0-.685.1-1.321.299-1.907a4.529 4.529 0 0 1 .861-1.538 3.845 3.845 0 0 1 1.362-1.019 4.234 4.234 0 0 1 1.793-.37c.668 0 1.269.124 1.802.37.539.24.996.58 1.371 1.019.381.434.671.946.87 1.538.2.586.299 1.222.299 1.907v.203a5.87 5.87 0 0 1-.299 1.907 4.561 4.561 0 0 1-.87 1.538 3.992 3.992 0 0 1-1.362 1.019c-.527.241-1.125.361-1.793.361-.668 0-1.269-.12-1.802-.361a4.085 4.085 0 0 1-1.371-1.019 4.646 4.646 0 0 1-.861-1.538 5.896 5.896 0 0 1-.299-1.907Zm1.626-.203v.203c0 .474.056.922.167 1.344.111.416.278.785.501 1.108.228.322.513.577.853.764.339.182.735.273 1.186.273.445 0 .835-.091 1.169-.273.34-.187.621-.442.844-.764.222-.323.389-.692.501-1.108a5.01 5.01 0 0 0 .175-1.344v-.203c0-.468-.058-.911-.175-1.327a3.438 3.438 0 0 0-.51-1.116 2.42 2.42 0 0 0-.844-.773c-.334-.188-.726-.282-1.178-.282-.445 0-.837.094-1.177.282a2.52 2.52 0 0 0-.844.773 3.51 3.51 0 0 0-.501 1.116 5.132 5.132 0 0 0-.167 1.327Zm13.017 5.028a4.692 4.692 0 0 1-1.802-.334 4.1 4.1 0 0 1-1.38-.958 4.261 4.261 0 0 1-.879-1.459 5.356 5.356 0 0 1-.308-1.846v-.369c0-.773.115-1.462.343-2.065.229-.61.539-1.125.932-1.547a3.973 3.973 0 0 1 1.336-.958 3.832 3.832 0 0 1 1.547-.326c.679 0 1.265.118 1.757.352a3.2 3.2 0 0 1 1.222.984c.317.416.551.909.703 1.477.153.562.229 1.178.229 1.846v.729h-7.102v-1.327h5.476v-.123a4.09 4.09 0 0 0-.264-1.231 2.213 2.213 0 0 0-.703-.984c-.322-.258-.762-.387-1.318-.387a2.207 2.207 0 0 0-1.82.923 3.47 3.47 0 0 0-.518 1.116c-.123.44-.185.947-.185 1.521v.369c0 .451.062.876.185 1.275.129.392.313.738.553 1.037.247.298.542.533.888.703.352.17.75.255 1.196.255.574 0 1.06-.118 1.458-.352a3.597 3.597 0 0 0 1.046-.94l.985.782c-.205.31-.466.606-.782.888a3.758 3.758 0 0 1-1.169.685c-.457.176-.999.264-1.626.264Zm-33.389 23.755h1.687a5.373 5.373 0 0 1-.694 2.171 4.06 4.06 0 0 1-1.591 1.52c-.685.369-1.541.554-2.566.554-.75 0-1.433-.141-2.048-.422a4.553 4.553 0 0 1-1.573-1.195 5.591 5.591 0 0 1-1.02-1.872c-.234-.733-.351-1.547-.351-2.444v-1.274c0-.897.117-1.708.351-2.435.24-.732.583-1.359 1.029-1.881a4.587 4.587 0 0 1 1.626-1.204c.632-.281 1.344-.422 2.135-.422.967 0 1.784.182 2.452.545a3.905 3.905 0 0 1 1.556 1.512c.375.639.607 1.38.694 2.224h-1.687c-.082-.598-.234-1.111-.457-1.538a2.374 2.374 0 0 0-.949-1.002c-.41-.235-.947-.352-1.609-.352-.568 0-1.069.108-1.503.325a3.04 3.04 0 0 0-1.081.923 4.282 4.282 0 0 0-.65 1.433 7.252 7.252 0 0 0-.22 1.854v1.292c0 .627.065 1.216.194 1.767.134.551.336 1.034.606 1.45.27.416.612.744 1.028.984.416.235.909.352 1.477.352.721 0 1.295-.114 1.723-.343a2.24 2.24 0 0 0 .966-.984c.223-.428.381-.941.475-1.538Zm8.218-.115h-3.12l-.018-1.3h2.549c.504 0 .923-.05 1.257-.15.34-.099.594-.249.764-.448.17-.199.255-.445.255-.738 0-.229-.05-.428-.149-.598a1.095 1.095 0 0 0-.431-.431 2.127 2.127 0 0 0-.721-.255 4.967 4.967 0 0 0-.993-.087h-2.083V386h-1.626v-9.51h3.709c.604 0 1.146.053 1.626.158.487.106.9.267 1.24.484.345.211.609.48.791.808.181.329.272.715.272 1.161a1.955 1.955 0 0 1-.694 1.503c-.229.199-.51.363-.844.492a4.345 4.345 0 0 1-1.151.237l-.633.483Zm0 4.184h-3.709l.808-1.318h2.901c.451 0 .826-.056 1.125-.167.299-.118.521-.282.668-.493a1.31 1.31 0 0 0 .228-.773c0-.299-.076-.554-.228-.765-.147-.216-.369-.38-.668-.492-.299-.117-.674-.176-1.125-.176h-2.47l.018-1.3h3.085l.588.492c.522.041.964.17 1.328.387.363.216.638.492.826.826.187.328.281.685.281 1.072 0 .445-.085.838-.255 1.178a2.23 2.23 0 0 1-.721.852c-.316.223-.7.393-1.151.51a6.415 6.415 0 0 1-1.529.167Zm5.405-4.649v-.203c0-.685.1-1.321.299-1.907a4.529 4.529 0 0 1 .861-1.538 3.845 3.845 0 0 1 1.362-1.019 4.234 4.234 0 0 1 1.793-.37c.668 0 1.269.124 1.802.37.539.24.996.58 1.371 1.019.381.434.671.946.87 1.538.2.586.299 1.222.299 1.907v.203a5.87 5.87 0 0 1-.299 1.907 4.561 4.561 0 0 1-.87 1.538 3.992 3.992 0 0 1-1.362 1.019c-.527.241-1.125.361-1.793.361-.668 0-1.269-.12-1.802-.361a4.085 4.085 0 0 1-1.371-1.019 4.646 4.646 0 0 1-.861-1.538 5.896 5.896 0 0 1-.299-1.907Zm1.626-.203v.203c0 .474.056.922.167 1.344.111.416.278.785.501 1.108.228.322.513.577.852.764.34.182.736.273 1.187.273.445 0 .835-.091 1.169-.273.34-.187.621-.442.844-.764.222-.323.389-.692.501-1.108a5.01 5.01 0 0 0 .175-1.344v-.203c0-.468-.058-.911-.175-1.327a3.438 3.438 0 0 0-.51-1.116 2.42 2.42 0 0 0-.844-.773c-.334-.188-.726-.282-1.178-.282-.445 0-.837.094-1.177.282a2.52 2.52 0 0 0-.844.773 3.51 3.51 0 0 0-.501 1.116 5.132 5.132 0 0 0-.167 1.327Zm15.17-8.797h1.336c0 .574-.088 1.031-.264 1.371a1.918 1.918 0 0 1-.721.773 3.593 3.593 0 0 1-1.019.413c-.375.094-.765.185-1.169.273a5.306 5.306 0 0 0-1.406.501 3.281 3.281 0 0 0-1.108.949c-.304.41-.53.943-.676 1.599-.141.657-.179 1.468-.115 2.435v.809h-1.336v-.809c0-1.084.103-2.03.308-2.839.211-.808.507-1.491.888-2.048a4.637 4.637 0 0 1 1.353-1.327 5.122 5.122 0 0 1 1.74-.677c.457-.087.85-.181 1.178-.281.328-.105.577-.246.747-.422.176-.175.264-.416.264-.72Zm-1.925 4.684c.621 0 1.175.109 1.661.325.487.217.9.519 1.239.906.34.386.598.843.774 1.371a5.14 5.14 0 0 1 .272 1.705v.193c0 .662-.096 1.277-.29 1.846a4.233 4.233 0 0 1-.835 1.476 3.78 3.78 0 0 1-1.336.976c-.521.234-1.116.352-1.784.352-.668 0-1.265-.118-1.793-.352a3.9 3.9 0 0 1-1.336-.976 4.364 4.364 0 0 1-.843-1.476 5.85 5.85 0 0 1-.282-1.846v-.193c0-.147.027-.29.079-.431.053-.14.118-.284.194-.431.082-.146.155-.301.22-.465a5.607 5.607 0 0 1 .887-1.468 4.471 4.471 0 0 1 1.363-1.09c.533-.281 1.136-.422 1.81-.422Zm-.316 1.327c-.598 0-1.09.138-1.477.413a2.489 2.489 0 0 0-.852 1.099c-.188.451-.282.94-.282 1.468v.193c0 .445.053.867.159 1.266.105.398.263.753.474 1.063.217.305.489.545.818.721.333.176.726.264 1.177.264.451 0 .841-.088 1.169-.264a2.28 2.28 0 0 0 .809-.721c.211-.31.369-.665.474-1.063.106-.399.159-.821.159-1.266v-.193c0-.399-.053-.777-.159-1.134a2.784 2.784 0 0 0-.483-.949 2.194 2.194 0 0 0-.817-.651c-.329-.164-.718-.246-1.169-.246Zm5.677 2.989v-.203c0-.685.1-1.321.299-1.907a4.531 4.531 0 0 1 .862-1.538 3.845 3.845 0 0 1 1.362-1.019 4.23 4.23 0 0 1 1.793-.37c.668 0 1.268.124 1.802.37.539.24.996.58 1.371 1.019.381.434.671.946.87 1.538.199.586.299 1.222.299 1.907v.203c0 .685-.1 1.321-.299 1.907a4.561 4.561 0 0 1-.87 1.538 3.986 3.986 0 0 1-1.363 1.019c-.527.241-1.125.361-1.793.361-.668 0-1.268-.12-1.801-.361a4.065 4.065 0 0 1-1.371-1.019 4.648 4.648 0 0 1-.862-1.538 5.896 5.896 0 0 1-.299-1.907Zm1.626-.203v.203c0 .474.056.922.167 1.344.112.416.279.785.501 1.108.229.322.513.577.853.764.34.182.735.273 1.186.273.446 0 .835-.091 1.169-.273.34-.187.621-.442.844-.764.223-.323.39-.692.501-1.108a5.01 5.01 0 0 0 .176-1.344v-.203c0-.468-.059-.911-.176-1.327a3.396 3.396 0 0 0-.51-1.116 2.417 2.417 0 0 0-.843-.773c-.334-.188-.727-.282-1.178-.282-.445 0-.838.094-1.178.282a2.529 2.529 0 0 0-.844.773 3.554 3.554 0 0 0-.501 1.116 5.132 5.132 0 0 0-.167 1.327Zm10.152-4.658h1.626l-.141 3.56c-.035.902-.138 1.681-.308 2.338-.169.656-.386 1.216-.65 1.678a5.034 5.034 0 0 1-.888 1.152c-.322.31-.656.571-1.002.782h-.808l.044-1.327.334-.009c.193-.228.381-.463.562-.703.182-.246.349-.536.501-.87.153-.34.279-.753.378-1.239.106-.493.173-1.093.202-1.802l.15-3.56Zm.404 0h5.722V386h-1.626v-8.007h-4.096v-1.503Zm-2.944 8.174h9.887v4.14h-1.626V386h-6.635v2.804h-1.635l.009-4.14Zm18.14-4.052v1.319h-5.027v-1.319h5.027Zm-4.684-4.122V386h-1.626v-9.51h1.626Zm6.003 0V386h-1.635v-9.51h1.635Zm2.188 4.861v-.203c0-.685.1-1.321.299-1.907a4.529 4.529 0 0 1 .861-1.538 3.84 3.84 0 0 1 1.363-1.019c.533-.246 1.13-.37 1.793-.37.668 0 1.268.124 1.801.37.539.24.996.58 1.371 1.019.381.434.671.946.871 1.538.199.586.298 1.222.298 1.907v.203c0 .685-.099 1.321-.298 1.907a4.58 4.58 0 0 1-.871 1.538 3.992 3.992 0 0 1-1.362 1.019c-.527.241-1.125.361-1.793.361-.668 0-1.268-.12-1.802-.361a4.085 4.085 0 0 1-1.371-1.019 4.646 4.646 0 0 1-.861-1.538 5.896 5.896 0 0 1-.299-1.907Zm1.626-.203v.203c0 .474.056.922.167 1.344.111.416.278.785.501 1.108.229.322.513.577.853.764.34.182.735.273 1.186.273.445 0 .835-.091 1.169-.273.34-.187.621-.442.844-.764.223-.323.39-.692.501-1.108a5.01 5.01 0 0 0 .176-1.344v-.203c0-.468-.059-.911-.176-1.327a3.396 3.396 0 0 0-.51-1.116 2.42 2.42 0 0 0-.844-.773c-.334-.188-.726-.282-1.177-.282-.446 0-.838.094-1.178.282a2.529 2.529 0 0 0-.844.773 3.51 3.51 0 0 0-.501 1.116 5.132 5.132 0 0 0-.167 1.327Zm13.017 5.028a4.692 4.692 0 0 1-1.802-.334 4.1 4.1 0 0 1-1.38-.958 4.261 4.261 0 0 1-.879-1.459 5.356 5.356 0 0 1-.307-1.846v-.369c0-.773.114-1.462.342-2.065.229-.61.539-1.125.932-1.547a3.983 3.983 0 0 1 1.336-.958 3.836 3.836 0 0 1 1.547-.326c.679 0 1.265.118 1.758.352.498.234.905.563 1.221.984.317.416.551.909.703 1.477.153.562.229 1.178.229 1.846v.729h-7.102v-1.327h5.476v-.123a4.03 4.03 0 0 0-.264-1.231 2.213 2.213 0 0 0-.703-.984c-.322-.258-.762-.387-1.318-.387a2.207 2.207 0 0 0-1.82.923 3.47 3.47 0 0 0-.518 1.116c-.123.44-.185.947-.185 1.521v.369c0 .451.062.876.185 1.275.129.392.313.738.554 1.037.246.298.542.533.887.703.352.17.75.255 1.196.255.574 0 1.06-.118 1.459-.352a3.622 3.622 0 0 0 1.046-.94l.984.782c-.205.31-.466.606-.782.888a3.747 3.747 0 0 1-1.169.685c-.457.176-.999.264-1.626.264ZM2.021 435.203h1.644l4.192 10.433 4.184-10.433h1.652L8.49 448H7.207l-5.186-12.797Zm-.536 0h1.45l.238 7.805V448H1.485v-12.797Zm11.285 0h1.45V448h-1.687v-4.992l.238-7.805Zm5.52 6.557h2.857c.767 0 1.415.135 1.942.404.527.264.926.63 1.195 1.099.276.463.413.99.413 1.582 0 .439-.076.852-.228 1.239a2.787 2.787 0 0 1-.686 1.002 3.16 3.16 0 0 1-1.116.677c-.44.158-.946.237-1.52.237h-4.043v-9.51h1.626v8.174h2.416c.47 0 .844-.085 1.125-.255.282-.17.484-.389.607-.659a2.011 2.011 0 0 0 0-1.688 1.582 1.582 0 0 0-.607-.685c-.28-.188-.656-.281-1.125-.281H18.29v-1.336Zm9.791-3.27V448h-1.626v-9.51h1.626Zm6.653 8.35c.387 0 .744-.079 1.073-.237.328-.159.597-.375.808-.651.211-.281.331-.6.36-.958h1.547a2.897 2.897 0 0 1-.57 1.573c-.346.481-.8.871-1.363 1.169-.563.293-1.18.44-1.855.44-.715 0-1.339-.126-1.872-.378a3.717 3.717 0 0 1-1.318-1.037 4.644 4.644 0 0 1-.782-1.512 6.38 6.38 0 0 1-.255-1.819v-.369c0-.639.085-1.243.255-1.811a4.63 4.63 0 0 1 .782-1.521 3.717 3.717 0 0 1 1.318-1.037c.533-.252 1.157-.378 1.872-.378.744 0 1.395.153 1.951.457a3.35 3.35 0 0 1 1.31 1.231 3.57 3.57 0 0 1 .528 1.758h-1.547a2.345 2.345 0 0 0-.334-1.064 2.09 2.09 0 0 0-.774-.756c-.322-.193-.7-.29-1.134-.29-.498 0-.917.1-1.257.299-.333.194-.6.457-.8.791a3.699 3.699 0 0 0-.421 1.099 6.038 6.038 0 0 0-.123 1.222v.369c0 .416.04.826.123 1.23.082.404.22.771.413 1.099.2.328.466.592.8.791.34.193.761.29 1.265.29Zm14.889-4.825H46.38l-.018-1.363h2.945c.486 0 .91-.082 1.274-.246.363-.164.645-.398.844-.703.205-.31.307-.68.307-1.107 0-.469-.09-.85-.272-1.143-.176-.299-.448-.515-.817-.65-.364-.141-.827-.211-1.39-.211h-2.495V448H45.06v-12.797h4.193a7.01 7.01 0 0 1 1.758.202c.515.129.952.334 1.31.616.363.275.638.626.825 1.054.188.428.282.941.282 1.538 0 .528-.135 1.005-.405 1.433-.27.422-.644.767-1.125 1.037-.474.27-1.03.442-1.67.519l-.606.413Zm-.08 5.985h-3.831l.958-1.38h2.874c.539 0 .996-.094 1.371-.281.38-.188.67-.451.87-.791.2-.346.299-.753.299-1.222 0-.474-.085-.885-.255-1.23a1.758 1.758 0 0 0-.8-.8c-.363-.188-.832-.281-1.406-.281h-2.417l.018-1.363h3.304l.36.493c.616.052 1.137.228 1.565.527.428.293.753.668.976 1.125.228.457.343.961.343 1.512 0 .796-.176 1.47-.528 2.021-.346.545-.835.961-1.468 1.248-.632.281-1.377.422-2.232.422Zm10.434.176a4.69 4.69 0 0 1-1.802-.334 4.094 4.094 0 0 1-1.38-.958 4.266 4.266 0 0 1-.879-1.459 5.354 5.354 0 0 1-.308-1.846v-.369c0-.773.115-1.462.343-2.065.229-.61.54-1.125.932-1.547a3.978 3.978 0 0 1 1.336-.958 3.834 3.834 0 0 1 1.547-.326c.68 0 1.265.118 1.757.352.498.234.906.563 1.222.984.317.416.55.909.703 1.477.153.562.229 1.178.229 1.846v.729h-7.102v-1.327h5.476v-.123a4.062 4.062 0 0 0-.264-1.231 2.215 2.215 0 0 0-.703-.984c-.322-.258-.762-.387-1.318-.387a2.204 2.204 0 0 0-1.82.923 3.458 3.458 0 0 0-.518 1.116c-.123.44-.185.947-.185 1.521v.369c0 .451.062.876.185 1.275.129.392.313.738.553 1.037.246.298.542.533.888.703.352.17.75.255 1.196.255.574 0 1.06-.118 1.458-.352a3.613 3.613 0 0 0 1.046-.94l.985.782a4.59 4.59 0 0 1-.782.888 3.741 3.741 0 0 1-1.17.685c-.456.176-.998.264-1.625.264Zm11.953-9.686v1.345h-4.597v-1.345h4.597Zm1.432 0V448h-1.626v-9.51h1.626Zm-6.424 0h1.634l-.246 4.588a16.984 16.984 0 0 1-.202 1.881 6.427 6.427 0 0 1-.37 1.389 2.903 2.903 0 0 1-.58.949c-.228.24-.503.419-.825.536a3.423 3.423 0 0 1-1.117.167h-.51v-1.433l.352-.026a1.5 1.5 0 0 0 .642-.176 1.26 1.26 0 0 0 .457-.439c.123-.199.222-.454.299-.765.082-.31.143-.68.184-1.107.047-.428.082-.926.106-1.494l.175-4.07Zm10.801 6.935 4.386-6.935h1.635V448h-1.635v-6.935L77.739 448h-1.617v-9.51h1.617v6.935Zm10.398-6.935V448H86.51v-9.51h1.626Zm6.24 0-4.509 5.449h-2.276l-.246-1.423h1.863l3.19-4.026h1.978Zm-1.75 9.51-3.497-4.307 1.046-1.177L94.693 448h-2.065Zm9.089-1.626v-4.895c0-.375-.076-.701-.229-.976a1.491 1.491 0 0 0-.668-.65c-.298-.153-.668-.229-1.107-.229-.41 0-.77.07-1.081.211a1.881 1.881 0 0 0-.72.554 1.21 1.21 0 0 0-.256.738H96.03c0-.34.088-.677.264-1.011a2.95 2.95 0 0 1 .756-.905 3.781 3.781 0 0 1 1.195-.65c.469-.165.99-.247 1.565-.247.691 0 1.3.118 1.828.352.533.234.949.589 1.248 1.063.304.469.457 1.058.457 1.767v4.43c0 .316.026.653.079 1.011.058.357.143.665.255.922V448h-1.697a3.058 3.058 0 0 1-.193-.747 5.997 5.997 0 0 1-.07-.879Zm.281-4.14.018 1.143h-1.644c-.463 0-.876.038-1.24.114a2.863 2.863 0 0 0-.913.325 1.548 1.548 0 0 0-.563.554 1.47 1.47 0 0 0-.193.765c0 .299.067.571.202.817s.337.443.606.589c.276.141.613.211 1.011.211a2.69 2.69 0 0 0 1.319-.316c.38-.211.682-.469.905-.774.228-.305.351-.6.369-.888l.694.783c-.041.246-.152.518-.334.817a3.937 3.937 0 0 1-1.801 1.538 3.494 3.494 0 0 1-1.39.264c-.644 0-1.209-.126-1.695-.378a2.9 2.9 0 0 1-1.125-1.011 2.676 2.676 0 0 1-.396-1.433c0-.509.1-.958.299-1.344.2-.393.486-.718.861-.976a4.09 4.09 0 0 1 1.354-.597 7.127 7.127 0 0 1 1.766-.203h1.89Zm10.354.378v1.319h-5.028v-1.319h5.028Zm-4.685-4.122V448h-1.626v-9.51h1.626Zm6.003 0V448h-1.635v-9.51h1.635Z" fill="#fff"/><path d="M276.5 32c3.167 15.333 11.4 46.4 19 48" stroke="#6F6F6F" stroke-width="4"/><circle cx="148" cy="104" r="6" fill="#FF6C01"/><circle cx="274" cy="32" r="6" fill="#FF6C01"/><circle cx="296" cy="80" r="6" fill="#6F6F6F"/><path d="M98 375c5.667 3 18.2 8.4 23 6m25-275-73.5 66 8.5 38-8.5 39.5-14 40 22.5 41 4 20c7 .667 18.5 7 10.5 23" stroke="#fff" stroke-width="3"/><path d="M95.5 378.5c1.667 4.167 4 13.7 0 18.5-4 4.8-8 8.667-9.5 10l-17 9.5-14.5 8" stroke="#828282" stroke-width="3"/><path d="m146 106-73.5 66 8.5 38-8.5 39.5-14 40 22.5 41 4 20c7 .667 18.5 7 10.5 23" stroke="#FF6C01" stroke-width="3"/><path d="m72.5 172 73.5-66c35.667-23.5 111.2-71.1 128-73.5" stroke="#FF6C01" stroke-width="3"/><circle cx="96" cy="375" r="6" fill="#FF6C01"/><circle cx="52" cy="425" r="6" fill="#828282"/><circle cx="124" cy="381" r="6" fill="#fff"/></svg>