<svg width="391" height="397" fill="none" xmlns="http://www.w3.org/2000/svg"><path d="M74.844 320.705v1.38h-6.926v-1.38h6.926Zm-6.662-5.502V328h-1.697v-12.797h1.697Zm8.138 0V328h-1.687v-12.797h1.687Zm2.338 8.148v-.203c0-.685.1-1.321.299-1.907.2-.592.486-1.104.861-1.538.375-.439.83-.779 1.363-1.019a4.23 4.23 0 0 1 1.793-.37c.668 0 1.268.124 1.801.37.54.24.996.58 1.371 1.019.381.434.671.946.87 1.538.2.586.3 1.222.3 1.907v.203c0 .685-.1 1.321-.3 1.907a4.561 4.561 0 0 1-.87 1.538 3.983 3.983 0 0 1-1.362 1.019c-.527.241-1.125.361-1.793.361-.668 0-1.268-.12-1.802-.361a4.08 4.08 0 0 1-1.37-1.019 4.65 4.65 0 0 1-.862-1.538 5.89 5.89 0 0 1-.299-1.907Zm1.626-.203v.203c0 .474.056.922.167 1.344.112.416.279.785.501 1.108.229.322.513.577.853.764.34.182.735.273 1.186.273.445 0 .835-.091 1.17-.273a2.45 2.45 0 0 0 .843-.764 3.55 3.55 0 0 0 .5-1.108 4.97 4.97 0 0 0 .177-1.344v-.203c0-.468-.059-.911-.176-1.327a3.412 3.412 0 0 0-.51-1.116 2.417 2.417 0 0 0-.844-.773c-.334-.188-.726-.282-1.177-.282-.446 0-.838.094-1.178.282a2.525 2.525 0 0 0-.844.773c-.222.322-.39.694-.5 1.116a5.115 5.115 0 0 0-.168 1.327Zm13.535.668H90.7l-.017-1.3h2.549c.503 0 .922-.05 1.256-.15.34-.099.595-.249.765-.448.17-.199.255-.445.255-.738 0-.229-.05-.428-.15-.598a1.09 1.09 0 0 0-.43-.431 2.135 2.135 0 0 0-.72-.255 4.972 4.972 0 0 0-.994-.087H91.13V328h-1.626v-9.51h3.709a7.65 7.65 0 0 1 1.626.158c.486.106.9.267 1.24.484.345.211.609.48.79.808.182.329.273.715.273 1.161a1.952 1.952 0 0 1-.695 1.503 2.81 2.81 0 0 1-.844.492 4.343 4.343 0 0 1-1.15.237l-.634.483Zm0 4.184H90.11l.809-1.318h2.9c.451 0 .826-.056 1.125-.167.3-.118.522-.282.668-.493.153-.216.229-.474.229-.773 0-.299-.076-.554-.229-.765-.146-.216-.369-.38-.668-.492-.299-.117-.674-.176-1.125-.176h-2.47l.018-1.3h3.085l.589.492c.522.041.964.17 1.327.387.363.216.639.492.826.826.188.328.282.685.282 1.072 0 .445-.085.838-.255 1.178a2.24 2.24 0 0 1-.721.852 3.51 3.51 0 0 1-1.151.51 6.424 6.424 0 0 1-1.53.167Zm7.594-2.575 4.386-6.935h1.635V328h-1.635v-6.935L101.413 328h-1.617v-9.51h1.617v6.935Zm10.398-6.935V328h-1.626v-9.51h1.626Zm6.24 0-4.509 5.449h-2.276l-.246-1.423h1.863l3.19-4.026h1.978Zm-1.749 9.51-3.498-4.307 1.046-1.177 4.517 5.484h-2.065Zm2.856-4.649v-.203c0-.685.1-1.321.299-1.907a4.529 4.529 0 0 1 .861-1.538 3.84 3.84 0 0 1 1.363-1.019 4.23 4.23 0 0 1 1.793-.37c.668 0 1.268.124 1.801.37.539.24.996.58 1.371 1.019.381.434.671.946.871 1.538.199.586.298 1.222.298 1.907v.203c0 .685-.099 1.321-.298 1.907a4.58 4.58 0 0 1-.871 1.538 3.992 3.992 0 0 1-1.362 1.019c-.527.241-1.125.361-1.793.361-.668 0-1.268-.12-1.802-.361a4.085 4.085 0 0 1-1.371-1.019 4.646 4.646 0 0 1-.861-1.538 5.896 5.896 0 0 1-.299-1.907Zm1.626-.203v.203c0 .474.056.922.167 1.344.111.416.278.785.501 1.108.229.322.513.577.853.764.34.182.735.273 1.186.273.446 0 .835-.091 1.169-.273.34-.187.621-.442.844-.764.223-.323.39-.692.501-1.108a5.01 5.01 0 0 0 .176-1.344v-.203c0-.468-.059-.911-.176-1.327a3.396 3.396 0 0 0-.51-1.116 2.42 2.42 0 0 0-.844-.773c-.334-.188-.726-.282-1.177-.282-.446 0-.838.094-1.178.282a2.529 2.529 0 0 0-.844.773 3.51 3.51 0 0 0-.501 1.116 5.132 5.132 0 0 0-.167 1.327Zm13.535.668h-3.12l-.017-1.3h2.548c.504 0 .923-.05 1.257-.15.34-.099.595-.249.765-.448.17-.199.255-.445.255-.738 0-.229-.05-.428-.15-.598a1.086 1.086 0 0 0-.43-.431 2.142 2.142 0 0 0-.721-.255 4.967 4.967 0 0 0-.993-.087h-2.083V328h-1.626v-9.51h3.709a7.65 7.65 0 0 1 1.626.158c.486.106.899.267 1.239.484.346.211.61.48.791.808.182.329.273.715.273 1.161a1.955 1.955 0 0 1-.695 1.503 2.805 2.805 0 0 1-.843.492 4.344 4.344 0 0 1-1.152.237l-.633.483Zm0 4.184h-3.709l.809-1.318h2.9c.452 0 .827-.056 1.125-.167.299-.118.522-.282.668-.493.153-.216.229-.474.229-.773 0-.299-.076-.554-.229-.765-.146-.216-.369-.38-.668-.492-.298-.117-.673-.176-1.125-.176h-2.469l.017-1.3h3.085l.589.492c.521.041.964.17 1.327.387.363.216.639.492.826.826.188.328.282.685.282 1.072 0 .445-.085.838-.255 1.178a2.24 2.24 0 0 1-.721.852c-.316.223-.7.393-1.151.51a6.424 6.424 0 0 1-1.53.167Zm5.406-4.649v-.203c0-.685.099-1.321.298-1.907.2-.592.487-1.104.862-1.538a3.845 3.845 0 0 1 1.362-1.019 4.23 4.23 0 0 1 1.793-.37c.668 0 1.269.124 1.802.37.539.24.996.58 1.371 1.019.381.434.671.946.87 1.538.199.586.299 1.222.299 1.907v.203c0 .685-.1 1.321-.299 1.907a4.561 4.561 0 0 1-.87 1.538 3.992 3.992 0 0 1-1.362 1.019c-.528.241-1.125.361-1.793.361-.668 0-1.269-.12-1.802-.361a4.085 4.085 0 0 1-1.371-1.019 4.665 4.665 0 0 1-.862-1.538 5.896 5.896 0 0 1-.298-1.907Zm1.626-.203v.203c0 .474.055.922.167 1.344.111.416.278.785.501 1.108.228.322.512.577.852.764.34.182.735.273 1.187.273.445 0 .835-.091 1.169-.273a2.45 2.45 0 0 0 .843-.764c.223-.323.39-.692.501-1.108a5.01 5.01 0 0 0 .176-1.344v-.203c0-.468-.059-.911-.176-1.327a3.415 3.415 0 0 0-.509-1.116 2.42 2.42 0 0 0-.844-.773c-.334-.188-.727-.282-1.178-.282-.445 0-.838.094-1.178.282a2.516 2.516 0 0 0-.843.773 3.51 3.51 0 0 0-.501 1.116 5.09 5.09 0 0 0-.167 1.327ZM6.223 61.337 1.986 73H.255l4.878-12.797h1.116l-.026 1.134ZM9.773 73 5.528 61.337l-.026-1.134h1.116L11.514 73h-1.74Zm-.22-4.737v1.388H2.365v-1.388h7.19Zm9.88-.65v1.318h-5.028v-1.319h5.028Zm-4.685-4.123V73h-1.626v-9.51h1.626Zm6.003 0V73h-1.635v-9.51h1.635Zm4.377 6.935 4.386-6.935h1.634V73h-1.634v-6.935L25.128 73H23.51v-9.51h1.617v6.935Zm13.096-1.609h-3.12l-.018-1.3h2.549c.504 0 .923-.05 1.257-.15.34-.1.594-.249.764-.448.17-.2.255-.445.255-.738 0-.229-.05-.428-.15-.598a1.086 1.086 0 0 0-.43-.43 2.124 2.124 0 0 0-.72-.255 4.924 4.924 0 0 0-.994-.088h-2.083V73h-1.626v-9.51h3.71c.603 0 1.145.053 1.625.158.486.106.9.267 1.24.484.345.21.609.48.79.808.182.329.273.715.273 1.16a1.953 1.953 0 0 1-.694 1.504c-.229.199-.51.363-.844.492a4.343 4.343 0 0 1-1.152.237l-.632.483Zm0 4.184h-3.71l.81-1.318h2.9c.45 0 .826-.056 1.125-.167.299-.118.521-.282.668-.493a1.31 1.31 0 0 0 .228-.773c0-.299-.076-.554-.228-.765-.147-.216-.37-.38-.668-.492-.3-.117-.674-.176-1.125-.176h-2.47l.018-1.3h3.084l.59.492c.52.04.963.17 1.327.386.363.217.638.493.826.827.187.328.28.685.28 1.072a2.6 2.6 0 0 1-.254 1.178c-.164.34-.404.624-.72.852a3.52 3.52 0 0 1-1.152.51 6.4 6.4 0 0 1-1.53.167Zm11.443-1.626v-4.895c0-.376-.076-.7-.229-.976a1.496 1.496 0 0 0-.668-.65c-.298-.153-.668-.229-1.107-.229-.41 0-.77.07-1.081.211-.305.14-.545.325-.72.554-.17.228-.256.474-.256.738H43.98c0-.34.088-.677.264-1.01.176-.335.428-.636.756-.906a3.78 3.78 0 0 1 1.195-.65c.47-.164.99-.246 1.565-.246.691 0 1.3.117 1.828.351.533.234.95.589 1.248 1.064.305.468.457 1.057.457 1.766v4.43c0 .316.026.653.08 1.01.058.358.143.666.254.923V73h-1.696a3.035 3.035 0 0 1-.194-.747 6.02 6.02 0 0 1-.07-.879Zm.281-4.14.018 1.143h-1.644a6.07 6.07 0 0 0-1.239.114 2.84 2.84 0 0 0-.914.325 1.548 1.548 0 0 0-.563.554 1.468 1.468 0 0 0-.193.765c0 .299.068.571.202.817.135.246.337.442.607.589.275.14.612.211 1.01.211.498 0 .938-.105 1.319-.316.38-.211.682-.47.905-.774.229-.305.352-.6.37-.888l.694.783c-.042.246-.153.518-.335.817a3.939 3.939 0 0 1-1.802 1.538c-.41.176-.872.264-1.388.264-.644 0-1.21-.126-1.696-.378a2.902 2.902 0 0 1-1.125-1.01 2.676 2.676 0 0 1-.396-1.433c0-.51.1-.959.3-1.345.198-.393.485-.718.86-.976a4.092 4.092 0 0 1 1.354-.598 7.143 7.143 0 0 1 1.767-.202h1.89Zm217.073 214.969h1.644l4.192 10.433 4.184-10.433h1.652L273.49 295h-1.283l-5.186-12.797Zm-.536 0h1.451l.237 7.805V295h-1.688v-12.797Zm11.286 0h1.45V295h-1.688v-4.992l.238-7.805Zm5.519 6.557h2.856c.768 0 1.416.135 1.943.404.527.264.926.63 1.195 1.099.276.463.413.99.413 1.582 0 .439-.076.852-.228 1.239a2.787 2.787 0 0 1-.686 1.002 3.17 3.17 0 0 1-1.116.677c-.439.158-.946.237-1.521.237h-4.042v-9.51h1.625v8.174h2.417c.469 0 .844-.085 1.125-.255.282-.17.484-.389.607-.659s.184-.551.184-.844c0-.287-.061-.568-.184-.844a1.578 1.578 0 0 0-.607-.685c-.281-.188-.656-.281-1.125-.281h-2.856v-1.336Zm9.791-3.27V295h-1.626v-9.51h1.626Zm6.653 8.35a2.44 2.44 0 0 0 1.073-.237c.328-.159.597-.375.808-.651.211-.281.331-.6.361-.958h1.546a2.89 2.89 0 0 1-.571 1.573c-.346.481-.8.871-1.362 1.169a3.957 3.957 0 0 1-1.855.44c-.714 0-1.338-.126-1.872-.378a3.721 3.721 0 0 1-1.318-1.037 4.642 4.642 0 0 1-.782-1.512 6.377 6.377 0 0 1-.255-1.819v-.369c0-.639.085-1.243.255-1.811a4.627 4.627 0 0 1 .782-1.521 3.721 3.721 0 0 1 1.318-1.037c.534-.252 1.158-.378 1.872-.378.745 0 1.395.153 1.952.457.556.299.993.709 1.309 1.231.322.516.498 1.102.527 1.758h-1.546a2.358 2.358 0 0 0-.334-1.064 2.096 2.096 0 0 0-.774-.756c-.322-.193-.7-.29-1.134-.29-.498 0-.917.1-1.256.299a2.206 2.206 0 0 0-.8.791 3.683 3.683 0 0 0-.422 1.099 6.045 6.045 0 0 0-.123 1.222v.369c0 .416.041.826.123 1.23.082.404.22.771.413 1.099.199.328.466.592.8.791.34.193.761.29 1.265.29Zm18.457-.22V295h-6.776v-1.38h6.776Zm-6.433-11.417V295h-1.696v-12.797h1.696Zm5.537 5.502v1.38h-5.88v-1.38h5.88Zm.809-5.502v1.389h-6.689v-1.389h6.689Zm6.407 8.613h-3.12l-.018-1.3h2.549c.504 0 .923-.05 1.257-.15.34-.099.594-.249.764-.448.17-.199.255-.445.255-.738 0-.229-.05-.428-.149-.598a1.089 1.089 0 0 0-.431-.431 2.127 2.127 0 0 0-.721-.255 4.967 4.967 0 0 0-.993-.087h-2.083V295h-1.626v-9.51h3.709c.604 0 1.146.053 1.626.158.487.106.9.267 1.24.484.345.211.609.48.791.808.181.329.272.715.272 1.161a1.955 1.955 0 0 1-.694 1.503c-.229.199-.51.363-.844.492a4.345 4.345 0 0 1-1.151.237l-.633.483Zm0 4.184h-3.709l.808-1.318h2.901c.451 0 .826-.056 1.125-.167.299-.118.521-.282.668-.493a1.31 1.31 0 0 0 .228-.773c0-.299-.076-.554-.228-.765-.147-.216-.369-.38-.668-.492-.299-.117-.674-.176-1.125-.176h-2.47l.018-1.3h3.085l.588.492c.522.041.964.17 1.328.387.363.216.638.492.826.826.187.328.281.685.281 1.072 0 .445-.085.838-.255 1.178a2.23 2.23 0 0 1-.721.852c-.316.223-.7.393-1.151.51a6.415 6.415 0 0 1-1.529.167Zm9.641-1.16c.387 0 .744-.079 1.073-.237.328-.159.597-.375.808-.651.211-.281.331-.6.361-.958h1.546a2.89 2.89 0 0 1-.571 1.573c-.346.481-.8.871-1.362 1.169a3.957 3.957 0 0 1-1.855.44c-.714 0-1.339-.126-1.872-.378a3.713 3.713 0 0 1-1.318-1.037 4.623 4.623 0 0 1-.782-1.512 6.377 6.377 0 0 1-.255-1.819v-.369c0-.639.085-1.243.255-1.811a4.608 4.608 0 0 1 .782-1.521 3.713 3.713 0 0 1 1.318-1.037c.533-.252 1.158-.378 1.872-.378.744 0 1.395.153 1.952.457.556.299.993.709 1.309 1.231.322.516.498 1.102.527 1.758h-1.546a2.358 2.358 0 0 0-.334-1.064 2.096 2.096 0 0 0-.774-.756c-.322-.193-.7-.29-1.134-.29-.498 0-.917.1-1.256.299a2.206 2.206 0 0 0-.8.791 3.683 3.683 0 0 0-.422 1.099 6.045 6.045 0 0 0-.123 1.222v.369c0 .416.041.826.123 1.23.082.404.22.771.413 1.099.199.328.466.592.8.791.34.193.761.29 1.265.29Zm9.493-8.35V295h-1.635v-9.51h1.635Zm3.19 0v1.319h-7.954v-1.319h7.954Zm7.066 7.884v-4.895c0-.375-.076-.701-.228-.976a1.496 1.496 0 0 0-.668-.65c-.299-.153-.668-.229-1.108-.229-.41 0-.77.07-1.081.211a1.879 1.879 0 0 0-.72.554 1.21 1.21 0 0 0-.255.738h-1.626c0-.34.088-.677.264-1.011.175-.334.427-.636.755-.905a3.784 3.784 0 0 1 1.196-.65c.468-.165.99-.247 1.564-.247.692 0 1.301.118 1.828.352.533.234.949.589 1.248 1.063.305.469.457 1.058.457 1.767v4.43c0 .316.027.653.079 1.011.059.357.144.665.255.922V295h-1.696a3.058 3.058 0 0 1-.193-.747 6.006 6.006 0 0 1-.071-.879Zm.282-4.14.017 1.143h-1.643c-.463 0-.876.038-1.24.114a2.864 2.864 0 0 0-.914.325 1.548 1.548 0 0 0-.562.554 1.47 1.47 0 0 0-.194.765c0 .299.068.571.203.817.134.246.337.443.606.589.275.141.612.211 1.011.211.498 0 .937-.106 1.318-.316.381-.211.683-.469.905-.774.229-.305.352-.6.37-.888l.694.783c-.041.246-.152.518-.334.817a3.899 3.899 0 0 1-.73.861c-.298.27-.656.495-1.072.677a3.49 3.49 0 0 1-1.389.264c-.644 0-1.209-.126-1.696-.378a2.907 2.907 0 0 1-1.125-1.011 2.681 2.681 0 0 1-.395-1.433c0-.509.099-.958.299-1.344.199-.393.486-.718.861-.976a4.09 4.09 0 0 1 1.353-.597 7.137 7.137 0 0 1 1.767-.203h1.89Zm14.836 1.178v.185c0 .668-.074 1.283-.22 1.845a4.41 4.41 0 0 1-.659 1.451c-.287.41-.645.729-1.073.958-.427.222-.922.334-1.485.334-.463 0-.87-.062-1.222-.185a2.485 2.485 0 0 1-.896-.554 2.777 2.777 0 0 1-.58-.861 4.37 4.37 0 0 1-.29-1.143v-4.218c.052-.452.149-.856.29-1.213.146-.358.34-.662.58-.914.246-.252.542-.446.888-.58.345-.135.75-.203 1.212-.203.457 0 .868.082 1.231.247.369.158.691.386.967.685.281.299.512.659.694 1.081.188.416.328.885.422 1.406a9.47 9.47 0 0 1 .141 1.679Zm-1.626.185v-.185c0-.41-.03-.8-.088-1.169a4.818 4.818 0 0 0-.255-1.028 2.912 2.912 0 0 0-.44-.826 1.889 1.889 0 0 0-.659-.545 1.883 1.883 0 0 0-.87-.194c-.352 0-.644.044-.879.132a1.337 1.337 0 0 0-.536.352c-.129.14-.223.29-.281.448v5.511c.07.129.173.252.307.369.135.111.317.205.545.281.229.07.516.106.862.106.41 0 .758-.082 1.046-.246.293-.17.53-.405.711-.704a3.12 3.12 0 0 0 .405-1.037 5.77 5.77 0 0 0 .132-1.265Zm-9.668 0v-.185c0-.598.046-1.157.14-1.679.094-.521.235-.99.422-1.406a3.96 3.96 0 0 1 .694-1.081c.282-.299.604-.527.967-.685a3.004 3.004 0 0 1 1.24-.247c.451 0 .843.068 1.177.203.34.134.627.328.862.58.234.252.421.556.562.914.141.357.24.761.299 1.213v4.051c-.053.446-.15.847-.29 1.204a2.956 2.956 0 0 1-.563.923 2.303 2.303 0 0 1-.87.58c-.34.135-.738.203-1.195.203-.563 0-1.058-.112-1.485-.334a3.124 3.124 0 0 1-1.081-.958 4.648 4.648 0 0 1-.66-1.451 7.327 7.327 0 0 1-.219-1.845Zm1.634-.185v.185c0 .451.038.873.115 1.265.082.393.208.739.378 1.037.175.299.404.534.685.704.281.164.627.246 1.037.246.352 0 .642-.044.87-.132.229-.088.41-.202.545-.343.135-.141.238-.287.308-.439v-5.353a1.302 1.302 0 0 0-.29-.448 1.337 1.337 0 0 0-.536-.352c-.229-.088-.522-.132-.879-.132-.41 0-.759.1-1.046.299a2.157 2.157 0 0 0-.694.818 4.53 4.53 0 0 0-.378 1.204 8.561 8.561 0 0 0-.115 1.441Zm3.129 8.244V281.5h1.635v17.156h-1.635Zm10.415-6.231 4.386-6.935h1.635V295h-1.635v-6.935L372.903 295h-1.617v-9.51h1.617v6.935Zm10.556-1.96h1.758L382.466 295h-1.758l2.751-4.535Zm1.362-4.975h3.973V295h-1.626v-8.191h-2.347c-.463 0-.841.079-1.133.237a1.479 1.479 0 0 0-.642.598 1.568 1.568 0 0 0-.018 1.511c.123.235.317.428.58.58.264.153.604.229 1.02.229h2.979v1.336h-2.979a4.397 4.397 0 0 1-1.45-.22 3.188 3.188 0 0 1-1.073-.606 2.647 2.647 0 0 1-.667-.923 2.918 2.918 0 0 1-.229-1.16c0-.416.079-.8.237-1.152.164-.351.399-.659.703-.923a3.255 3.255 0 0 1 1.134-.606c.451-.147.964-.22 1.538-.22ZM234.305 4.203V17h-1.697V4.203h1.697Zm2.935 5.862v1.336h-3.041v-1.336h3.041Zm9.185.132v.809c0 .96-.12 1.822-.361 2.584-.24.762-.585 1.409-1.037 1.942-.451.533-.993.94-1.626 1.222-.627.281-1.33.422-2.109.422a5.07 5.07 0 0 1-2.083-.422 4.684 4.684 0 0 1-1.635-1.222c-.457-.533-.811-1.18-1.063-1.942-.252-.762-.378-1.623-.378-2.584v-.809c0-.96.123-1.82.369-2.575.252-.762.606-1.41 1.063-1.942.457-.54.999-.95 1.626-1.23a5.075 5.075 0 0 1 2.083-.423c.78 0 1.483.141 2.11.422a4.453 4.453 0 0 1 1.626 1.23c.457.534.805 1.181 1.046 1.943.246.756.369 1.614.369 2.575Zm-1.679.809v-.826c0-.762-.079-1.436-.237-2.022-.153-.586-.378-1.078-.677-1.476a2.918 2.918 0 0 0-1.099-.906c-.427-.205-.914-.307-1.459-.307a3.27 3.27 0 0 0-1.432.307 3.035 3.035 0 0 0-1.09.906c-.299.398-.53.89-.694 1.476-.164.586-.246 1.26-.246 2.022v.826c0 .767.082 1.447.246 2.039.164.586.398 1.081.703 1.485.31.399.677.7 1.098.905.428.206.906.308 1.433.308.551 0 1.04-.102 1.468-.308a2.864 2.864 0 0 0 1.081-.905c.299-.404.524-.9.677-1.485.152-.592.228-1.272.228-2.04Zm6.478 1.854-3.604-5.37h1.96l2.461 3.938h1.898l-.237 1.432h-2.478Zm.887-.167L249.352 17h-2.057l3.788-5.484 1.028 1.177Zm2.663-5.203V17h-1.626V7.49h1.626Zm5.546 0-3.603 5.37h-2.479l-.255-1.432h1.908l2.461-3.938h1.968ZM258.58 17l-2.768-4.307 1.045-1.177 3.78 5.484h-2.057Zm10.011-5.388v1.319h-5.028v-1.319h5.028Zm-4.685-4.122V17h-1.626V7.49h1.626Zm6.003 0V17h-1.635V7.49h1.635Zm2.189 4.86v-.202a5.9 5.9 0 0 1 .298-1.907c.2-.592.487-1.104.862-1.538.375-.44.829-.78 1.362-1.02a4.245 4.245 0 0 1 1.793-.369c.668 0 1.269.123 1.802.37.539.24.996.58 1.371 1.02.381.433.671.945.87 1.537.199.586.299 1.222.299 1.907v.203a5.9 5.9 0 0 1-.299 1.907 4.557 4.557 0 0 1-.87 1.538 3.987 3.987 0 0 1-1.362 1.02c-.528.24-1.125.36-1.793.36-.668 0-1.269-.12-1.802-.36a4.08 4.08 0 0 1-1.371-1.02 4.66 4.66 0 0 1-.862-1.538 5.895 5.895 0 0 1-.298-1.907Zm1.626-.202v.203c0 .474.055.922.167 1.344.111.416.278.785.501 1.108.228.322.512.577.852.764.34.182.735.273 1.187.273.445 0 .835-.091 1.169-.273a2.45 2.45 0 0 0 .843-.764c.223-.323.39-.692.501-1.108a4.97 4.97 0 0 0 .176-1.344v-.203c0-.468-.058-.91-.176-1.327a3.42 3.42 0 0 0-.509-1.116 2.425 2.425 0 0 0-.844-.773c-.334-.188-.727-.282-1.178-.282a2.4 2.4 0 0 0-1.178.282 2.522 2.522 0 0 0-.843.773 3.51 3.51 0 0 0-.501 1.116 5.086 5.086 0 0 0-.167 1.327Zm12.454-1.256v1.335h-4.289v-1.335h4.289Zm9.562 2.039h1.688a5.385 5.385 0 0 1-.695 2.17 4.061 4.061 0 0 1-1.59 1.521c-.686.37-1.541.554-2.567.554-.75 0-1.432-.14-2.048-.422a4.558 4.558 0 0 1-1.573-1.195 5.597 5.597 0 0 1-1.019-1.872c-.235-.733-.352-1.547-.352-2.444V9.97c0-.897.117-1.708.352-2.435.24-.732.583-1.36 1.028-1.88a4.584 4.584 0 0 1 1.626-1.205c.633-.281 1.345-.422 2.136-.422.966 0 1.784.182 2.452.545a3.9 3.9 0 0 1 1.555 1.512c.375.639.607 1.38.695 2.224h-1.688c-.082-.598-.234-1.11-.457-1.538a2.372 2.372 0 0 0-.949-1.002c-.41-.235-.946-.352-1.608-.352-.569 0-1.07.108-1.503.325a3.025 3.025 0 0 0-1.081.923 4.288 4.288 0 0 0-.651 1.433 7.306 7.306 0 0 0-.22 1.854v1.292c0 .627.065 1.216.194 1.767.135.55.337 1.034.606 1.45.27.416.613.744 1.029.984.416.235.908.352 1.476.352.721 0 1.295-.114 1.723-.343.428-.228.75-.556.967-.984.222-.428.38-.94.474-1.538Zm9.361 2.443v-4.896c0-.374-.077-.7-.229-.975a1.492 1.492 0 0 0-.668-.65c-.299-.153-.668-.229-1.107-.229-.41 0-.771.07-1.081.211-.305.14-.545.325-.721.554a1.21 1.21 0 0 0-.255.738h-1.626c0-.34.088-.677.264-1.01.176-.335.427-.637.756-.906a3.776 3.776 0 0 1 1.195-.65 4.71 4.71 0 0 1 1.564-.247c.692 0 1.301.118 1.828.352.534.234.95.589 1.249 1.063.304.47.457 1.058.457 1.767v4.43c0 .316.026.653.079 1.01.058.358.143.666.255.923V17h-1.697a3.046 3.046 0 0 1-.193-.747 6.004 6.004 0 0 1-.07-.879Zm.281-4.14.017 1.143h-1.643a6.08 6.08 0 0 0-1.239.114 2.83 2.83 0 0 0-.914.325 1.542 1.542 0 0 0-.563.554 1.467 1.467 0 0 0-.193.765c0 .299.067.571.202.817s.337.443.606.589c.276.14.613.211 1.011.211.498 0 .938-.106 1.318-.317.381-.21.683-.468.906-.773.228-.305.351-.6.369-.888l.694.783c-.041.246-.152.518-.334.817a3.944 3.944 0 0 1-1.802 1.538c-.41.176-.873.264-1.388.264-.645 0-1.21-.126-1.697-.378a2.907 2.907 0 0 1-1.125-1.01 2.68 2.68 0 0 1-.395-1.434c0-.51.1-.957.299-1.344.199-.393.486-.718.861-.976a4.089 4.089 0 0 1 1.354-.598 7.139 7.139 0 0 1 1.766-.202h1.89Zm5.001-3.744 2.083 3.463 2.109-3.463h1.907l-3.111 4.694L316.579 17h-1.881l-2.197-3.568L310.304 17h-1.89l3.199-4.816-3.102-4.694h1.872Zm13.438 7.884v-4.896c0-.374-.076-.7-.228-.975a1.497 1.497 0 0 0-.668-.65c-.299-.153-.668-.229-1.108-.229-.41 0-.77.07-1.081.211a1.88 1.88 0 0 0-.72.554 1.21 1.21 0 0 0-.255.738h-1.626c0-.34.088-.677.263-1.01.176-.335.428-.637.756-.906a3.781 3.781 0 0 1 1.196-.65c.468-.165.99-.247 1.564-.247.691 0 1.301.118 1.828.352a2.74 2.74 0 0 1 1.248 1.063c.305.47.457 1.058.457 1.767v4.43c0 .316.027.653.079 1.01.059.358.144.666.255.923V17h-1.696a3.001 3.001 0 0 1-.193-.747 6.013 6.013 0 0 1-.071-.879Zm.282-4.14.017 1.143h-1.643c-.463 0-.876.038-1.24.114a2.84 2.84 0 0 0-.914.325 1.546 1.546 0 0 0-.562.554 1.468 1.468 0 0 0-.194.765c0 .299.068.571.203.817.134.246.336.443.606.589.275.14.612.211 1.011.211.498 0 .937-.106 1.318-.317a2.72 2.72 0 0 0 .905-.773c.229-.305.352-.6.369-.888l.695.783c-.041.246-.153.518-.334.817a3.912 3.912 0 0 1-.73.861c-.298.27-.656.495-1.072.677a3.49 3.49 0 0 1-1.389.264c-.644 0-1.21-.126-1.696-.378a2.907 2.907 0 0 1-1.125-1.01 2.672 2.672 0 0 1-.395-1.434c0-.51.099-.957.298-1.344.2-.393.487-.718.862-.976a4.093 4.093 0 0 1 1.353-.598 7.147 7.147 0 0 1 1.767-.202h1.89Zm10.256-3.744v1.345h-4.596V7.49h4.596Zm1.433 0V17h-1.626V7.49h1.626Zm-6.425 0h1.635l-.246 4.588a17.177 17.177 0 0 1-.202 1.881 6.439 6.439 0 0 1-.369 1.389 2.9 2.9 0 0 1-.581.949c-.228.24-.503.419-.826.536a3.412 3.412 0 0 1-1.116.167h-.51v-1.433l.352-.026c.252-.018.466-.076.642-.176.181-.1.333-.246.457-.44a2.64 2.64 0 0 0 .298-.764c.082-.31.144-.68.185-1.107.047-.428.082-.926.105-1.494l.176-4.07Zm10.802 6.935 4.386-6.935h1.634V17h-1.634v-6.935L340.169 17h-1.617V7.49h1.617v6.935Zm15.082-2.813v1.319h-5.027v-1.319h5.027Zm-4.685-4.122V17h-1.626V7.49h1.626Zm6.003 0V17h-1.634V7.49h1.634Zm6.425 8.35c.387 0 .744-.08 1.072-.238.329-.158.598-.375.809-.65.211-.281.331-.6.36-.958h1.547a2.902 2.902 0 0 1-.571 1.573c-.346.48-.8.87-1.362 1.17a3.956 3.956 0 0 1-1.855.439c-.715 0-1.339-.126-1.872-.378a3.708 3.708 0 0 1-1.318-1.037 4.633 4.633 0 0 1-.783-1.512 6.411 6.411 0 0 1-.254-1.82v-.369c0-.638.085-1.242.254-1.81a4.62 4.62 0 0 1 .783-1.52c.351-.44.791-.786 1.318-1.038.533-.252 1.157-.378 1.872-.378.744 0 1.395.153 1.951.457.557.3.993.71 1.31 1.231.322.516.498 1.101.527 1.758h-1.547a2.331 2.331 0 0 0-.334-1.064 2.078 2.078 0 0 0-.773-.756c-.322-.193-.7-.29-1.134-.29-.498 0-.917.1-1.257.3-.334.193-.6.456-.799.79a3.68 3.68 0 0 0-.422 1.099 6.044 6.044 0 0 0-.123 1.221v.37c0 .416.041.826.123 1.23.082.405.219.77.413 1.099.199.328.466.592.8.79.339.194.761.29 1.265.29Zm7.383-8.35V17h-1.626V7.49h1.626Zm6.24 0-4.509 5.45h-2.276l-.246-1.424h1.863l3.191-4.026h1.977ZM374.868 17l-3.498-4.307 1.046-1.177L376.934 17h-2.066ZM180.211 214.931h1.687a5.373 5.373 0 0 1-.694 2.171 4.06 4.06 0 0 1-1.591 1.52c-.685.369-1.541.554-2.566.554-.75 0-1.433-.141-2.048-.422a4.553 4.553 0 0 1-1.573-1.195 5.591 5.591 0 0 1-1.02-1.872c-.234-.733-.351-1.547-.351-2.444v-1.274c0-.897.117-1.708.351-2.435.24-.732.583-1.359 1.029-1.881a4.587 4.587 0 0 1 1.626-1.204c.632-.281 1.344-.422 2.135-.422.967 0 1.784.182 2.452.545a3.905 3.905 0 0 1 1.556 1.512c.375.639.607 1.38.694 2.224h-1.687c-.082-.598-.234-1.111-.457-1.538a2.374 2.374 0 0 0-.949-1.002c-.41-.235-.947-.352-1.609-.352-.568 0-1.069.108-1.503.325a3.04 3.04 0 0 0-1.081.923 4.282 4.282 0 0 0-.65 1.433 7.252 7.252 0 0 0-.22 1.854v1.292c0 .627.065 1.216.194 1.767.134.551.336 1.034.606 1.45.27.416.612.744 1.028.984.416.235.909.352 1.477.352.721 0 1.295-.114 1.723-.343a2.24 2.24 0 0 0 .966-.984c.223-.428.381-.941.475-1.538Zm13.772-8.728V219h-1.687v-11.408h-6.311V219h-1.696v-12.797h9.694Zm11.013 0v1.389h-6.17V219h-1.687v-12.797h7.857Zm16.321 0V219h-1.687v-11.408h-6.311V219h-1.696v-12.797h9.694Zm4.456 5.115v11.338h-1.634V209.49h1.494l.14 1.828Zm6.408 2.848v.185c0 .691-.082 1.333-.246 1.924a4.747 4.747 0 0 1-.721 1.53c-.311.433-.694.77-1.152 1.01-.457.241-.981.361-1.573.361-.603 0-1.136-.1-1.599-.299a3.149 3.149 0 0 1-1.178-.87 4.468 4.468 0 0 1-.774-1.371 7.946 7.946 0 0 1-.386-1.802v-.984a8.27 8.27 0 0 1 .395-1.89 4.733 4.733 0 0 1 .765-1.424 3.14 3.14 0 0 1 1.169-.905c.457-.211.984-.317 1.582-.317.598 0 1.128.118 1.591.352.463.229.852.557 1.169.984.316.428.553.941.712 1.538.164.592.246 1.251.246 1.978Zm-1.635.185v-.185c0-.475-.05-.92-.15-1.336a3.353 3.353 0 0 0-.465-1.107 2.21 2.21 0 0 0-.791-.756c-.323-.188-.706-.281-1.152-.281-.41 0-.767.07-1.072.21a2.329 2.329 0 0 0-.765.572 3.036 3.036 0 0 0-.518.808c-.129.299-.226.61-.29.932v2.276c.117.411.281.797.492 1.161.211.357.492.647.844.87.351.216.794.325 1.327.325.439 0 .817-.091 1.134-.273.322-.187.586-.442.791-.764a3.48 3.48 0 0 0 .465-1.108c.1-.422.15-.87.15-1.344Zm5.467 2.074 4.385-6.935h1.635V219h-1.635v-6.935L236.013 219h-1.617v-9.51h1.617v6.935Zm14.774-6.935v1.345h-4.394V219h-1.626v-9.51h6.02Zm.809 4.861v-.203c0-.685.099-1.321.299-1.907a4.529 4.529 0 0 1 .861-1.538 3.845 3.845 0 0 1 1.362-1.019 4.23 4.23 0 0 1 1.793-.37c.668 0 1.269.124 1.802.37.539.24.996.58 1.371 1.019.381.434.671.946.87 1.538.199.586.299 1.222.299 1.907v.203c0 .685-.1 1.321-.299 1.907a4.561 4.561 0 0 1-.87 1.538 3.992 3.992 0 0 1-1.362 1.019c-.528.241-1.125.361-1.793.361-.668 0-1.269-.12-1.802-.361a4.085 4.085 0 0 1-1.371-1.019 4.646 4.646 0 0 1-.861-1.538 5.87 5.87 0 0 1-.299-1.907Zm1.626-.203v.203c0 .474.055.922.167 1.344.111.416.278.785.501 1.108.228.322.512.577.852.764.34.182.736.273 1.187.273.445 0 .835-.091 1.169-.273a2.44 2.44 0 0 0 .843-.764c.223-.323.39-.692.501-1.108a4.97 4.97 0 0 0 .176-1.344v-.203c0-.468-.058-.911-.176-1.327a3.415 3.415 0 0 0-.509-1.116 2.42 2.42 0 0 0-.844-.773c-.334-.188-.727-.282-1.178-.282-.445 0-.838.094-1.178.282a2.516 2.516 0 0 0-.843.773 3.51 3.51 0 0 0-.501 1.116 5.09 5.09 0 0 0-.167 1.327Zm10.696-2.83v11.338h-1.635V209.49h1.494l.141 1.828Zm6.407 2.848v.185c0 .691-.082 1.333-.246 1.924a4.726 4.726 0 0 1-.721 1.53c-.31.433-.694.77-1.151 1.01-.457.241-.981.361-1.573.361-.604 0-1.137-.1-1.6-.299a3.157 3.157 0 0 1-1.178-.87 4.445 4.445 0 0 1-.773-1.371 7.999 7.999 0 0 1-.387-1.802v-.984a8.268 8.268 0 0 1 .396-1.89 4.71 4.71 0 0 1 .764-1.424c.323-.398.712-.7 1.169-.905.457-.211.985-.317 1.582-.317.598 0 1.128.118 1.591.352.463.229.853.557 1.169.984.317.428.554.941.712 1.538.164.592.246 1.251.246 1.978Zm-1.635.185v-.185c0-.475-.049-.92-.149-1.336a3.376 3.376 0 0 0-.466-1.107 2.21 2.21 0 0 0-.791-.756c-.322-.188-.706-.281-1.151-.281-.41 0-.768.07-1.072.21a2.329 2.329 0 0 0-.765.572 3.039 3.039 0 0 0-.519.808c-.129.299-.225.61-.29.932v2.276c.117.411.282.797.492 1.161.211.357.493.647.844.87.352.216.794.325 1.327.325.44 0 .818-.091 1.134-.273.322-.187.586-.442.791-.764.211-.323.366-.692.466-1.108.1-.422.149-.87.149-1.344Zm3.279 0v-.203c0-.685.099-1.321.299-1.907a4.529 4.529 0 0 1 .861-1.538 3.845 3.845 0 0 1 1.362-1.019 4.23 4.23 0 0 1 1.793-.37c.668 0 1.269.124 1.802.37.539.24.996.58 1.371 1.019.381.434.671.946.87 1.538.199.586.299 1.222.299 1.907v.203c0 .685-.1 1.321-.299 1.907a4.561 4.561 0 0 1-.87 1.538 3.992 3.992 0 0 1-1.362 1.019c-.528.241-1.125.361-1.793.361-.668 0-1.269-.12-1.802-.361a4.085 4.085 0 0 1-1.371-1.019 4.646 4.646 0 0 1-.861-1.538 5.87 5.87 0 0 1-.299-1.907Zm1.626-.203v.203c0 .474.055.922.167 1.344.111.416.278.785.501 1.108.228.322.512.577.852.764.34.182.736.273 1.187.273.445 0 .835-.091 1.169-.273a2.44 2.44 0 0 0 .843-.764c.223-.323.39-.692.501-1.108a4.97 4.97 0 0 0 .176-1.344v-.203c0-.468-.058-.911-.176-1.327a3.415 3.415 0 0 0-.509-1.116 2.42 2.42 0 0 0-.844-.773c-.334-.188-.727-.282-1.178-.282-.445 0-.838.094-1.178.282a2.516 2.516 0 0 0-.843.773 3.51 3.51 0 0 0-.501 1.116 5.09 5.09 0 0 0-.167 1.327Zm10.151-4.658h1.626l-.141 3.56c-.035.902-.137 1.681-.307 2.338-.17.656-.387 1.216-.651 1.678a5.031 5.031 0 0 1-.887 1.152c-.323.31-.657.571-1.002.782h-.809l.044-1.327.334-.009c.193-.228.381-.463.563-.703a4.93 4.93 0 0 0 .501-.87c.152-.34.278-.753.378-1.239.105-.493.172-1.093.202-1.802l.149-3.56Zm.404 0h5.722V219h-1.626v-8.007h-4.096v-1.503Zm-2.944 8.174h9.888v4.14h-1.626V219h-6.636v2.804h-1.635l.009-4.14Zm18.141-4.052v1.319h-5.028v-1.319h5.028Zm-4.685-4.122V219h-1.626v-9.51h1.626Zm6.003 0V219h-1.635v-9.51h1.635Zm2.189 4.861v-.203c0-.685.099-1.321.298-1.907.2-.592.487-1.104.862-1.538a3.845 3.845 0 0 1 1.362-1.019 4.23 4.23 0 0 1 1.793-.37c.668 0 1.269.124 1.802.37.539.24.996.58 1.371 1.019.381.434.671.946.87 1.538.199.586.299 1.222.299 1.907v.203c0 .685-.1 1.321-.299 1.907a4.561 4.561 0 0 1-.87 1.538 3.986 3.986 0 0 1-1.363 1.019c-.527.241-1.125.361-1.792.361-.668 0-1.269-.12-1.802-.361a4.085 4.085 0 0 1-1.371-1.019 4.665 4.665 0 0 1-.862-1.538 5.896 5.896 0 0 1-.298-1.907Zm1.625-.203v.203c0 .474.056.922.167 1.344.112.416.279.785.501 1.108.229.322.513.577.853.764.34.182.735.273 1.187.273.445 0 .834-.091 1.168-.273.34-.187.622-.442.844-.764.223-.323.39-.692.501-1.108a5.01 5.01 0 0 0 .176-1.344v-.203c0-.468-.059-.911-.176-1.327a3.396 3.396 0 0 0-.51-1.116 2.408 2.408 0 0 0-.843-.773c-.334-.188-.727-.282-1.178-.282-.445 0-.838.094-1.178.282a2.529 2.529 0 0 0-.844.773 3.554 3.554 0 0 0-.501 1.116 5.132 5.132 0 0 0-.167 1.327Zm13.017 5.028a4.692 4.692 0 0 1-1.802-.334 4.1 4.1 0 0 1-1.38-.958 4.275 4.275 0 0 1-.878-1.459 5.333 5.333 0 0 1-.308-1.846v-.369c0-.773.114-1.462.343-2.065.228-.61.539-1.125.931-1.547a3.983 3.983 0 0 1 1.336-.958 3.836 3.836 0 0 1 1.547-.326c.68 0 1.266.118 1.758.352.498.234.905.563 1.222.984.316.416.55.909.703 1.477a7.06 7.06 0 0 1 .228 1.846v.729h-7.101v-1.327h5.475v-.123a4.058 4.058 0 0 0-.263-1.231 2.22 2.22 0 0 0-.703-.984c-.323-.258-.762-.387-1.319-.387a2.2 2.2 0 0 0-1.019.238 2.164 2.164 0 0 0-.8.685 3.45 3.45 0 0 0-.519 1.116c-.123.44-.184.947-.184 1.521v.369c0 .451.061.876.184 1.275.129.392.314.738.554 1.037.246.298.542.533.888.703.351.17.75.255 1.195.255.574 0 1.061-.118 1.459-.352a3.622 3.622 0 0 0 1.046-.94l.984.782c-.205.31-.466.606-.782.888a3.735 3.735 0 0 1-1.169.685c-.457.176-.999.264-1.626.264Z" fill="#fff"/><path d="M298 37c-.829 14.384-14.933 22.406-50.608 45.641l-66.372 63.068m0 0c-4.148 5.808 14.934 29.044-10.785 44.811-9.126 3.319-18.252-3.32-14.104 17.426 1.659 12.448 9.624 42.986 24.889 72.196 15.266 29.21-22.4 63.621-43.141 77.175m43.141-211.608C169.014 130.972 139.1 102.6 115.5 107c-23.6 4.4-51.833-6.167-63-12C46 91.605 40 102.2 36 99c-2-1.167-6.7-4.6-9.5-9" stroke="#FF6C01" stroke-width="3"/><path d="M114.648 393c9.352-13 2.151-22.181 6.852-25.5l16.379-10.183c8.615-5.63 20.149-14.858 29.598-25.817 13.3-15.425 22.468-34.281 13.543-51.358-13.645-26.109-21.456-53.278-24.146-67.642m10.604 119c-9.449 10.959-20.984 20.187-29.599 25.817" stroke="#fff" stroke-width="3"/><path d="M114.648 393c9.352-13 2.151-22.181 6.852-25.5l16.379-10.183c8.615-5.63 20.149-14.858 29.598-25.817m.523-.5c16.667 2.333 52.5 5.6 62.5 0s34.167-13.333 45-16.5" stroke="#828282" stroke-width="3"/><path d="M121.5 367.5c-4.701 3.319 2.5 12.5-6.852 25.5" stroke="#838383" stroke-width="3"/><circle cx="299" cy="35" r="6" fill="#FF6C01"/><circle cx="114.5" cy="391.5" r="5.5" fill="#838383"/><circle cx="275.5" cy="313.5" r="5.5" fill="#838383"/><circle cx="157.5" cy="214.5" r="5.5" fill="#FF6C01"/><circle cx="168.5" cy="330.5" r="5.5" fill="#fff"/></svg>