<svg width="270" height="215" fill="none" xmlns="http://www.w3.org/2000/svg"><path d="M30.203 170.921v1.15h-5.771v-1.15h5.771Zm-5.552-4.585V177h-1.413v-10.664h1.413Zm6.783 0V177h-1.407v-10.664h1.407Zm1.948 6.789v-.168c0-.571.083-1.101.249-1.589.166-.493.405-.921.718-1.282a3.216 3.216 0 0 1 1.135-.85 3.525 3.525 0 0 1 1.494-.307c.557 0 1.057.102 1.502.307a3.2 3.2 0 0 1 1.142.85c.318.361.56.789.725 1.282.166.488.25 1.018.25 1.589v.168c0 .572-.084 1.102-.25 1.59a3.814 3.814 0 0 1-.725 1.282c-.312.361-.69.644-1.135.849-.44.2-.938.3-1.494.3a3.62 3.62 0 0 1-1.502-.3 3.4 3.4 0 0 1-1.142-.849 3.883 3.883 0 0 1-.718-1.282 4.905 4.905 0 0 1-.25-1.59Zm1.355-.168v.168c0 .396.046.77.139 1.121.093.347.232.654.418.923.19.269.427.481.71.637.283.152.613.227.989.227a2 2 0 0 0 .974-.227c.283-.156.517-.368.703-.637.185-.269.325-.576.417-.923.098-.351.147-.725.147-1.121v-.168a4.06 4.06 0 0 0-.147-1.106 2.848 2.848 0 0 0-.424-.93 2.021 2.021 0 0 0-.703-.645 1.975 1.975 0 0 0-.982-.234 2 2 0 0 0-.981.234 2.11 2.11 0 0 0-.703.645 2.94 2.94 0 0 0-.418.93c-.093.347-.14.715-.14 1.106Zm11.28.557h-2.601l-.015-1.084h2.124c.42 0 .77-.042 1.048-.125.283-.083.495-.207.637-.373a.916.916 0 0 0 .212-.616.969.969 0 0 0-.124-.498.911.911 0 0 0-.359-.359 1.787 1.787 0 0 0-.6-.212 4.092 4.092 0 0 0-.828-.073h-1.736V177H42.42v-7.925h3.09c.504 0 .955.044 1.356.132.405.088.75.222 1.032.403.288.176.508.4.66.674.151.273.227.595.227.966a1.63 1.63 0 0 1-.579 1.253 2.33 2.33 0 0 1-.703.41 3.592 3.592 0 0 1-.96.198l-.527.403Zm0 3.486h-3.092l.674-1.099h2.417c.376 0 .689-.046.938-.139.249-.097.434-.234.556-.41a1.09 1.09 0 0 0 .19-.644c0-.25-.063-.462-.19-.638a1.12 1.12 0 0 0-.556-.41c-.25-.098-.562-.146-.938-.146h-2.058l.015-1.084h2.57l.491.41c.435.034.803.141 1.106.322.303.181.532.41.689.689.156.273.234.571.234.893 0 .371-.07.698-.212.982-.137.283-.337.52-.601.71a2.932 2.932 0 0 1-.96.425 5.31 5.31 0 0 1-1.274.139Zm6.327-2.146L56 169.075h1.362V177H56v-5.779L52.344 177h-1.347v-7.925h1.347v5.779Zm8.665-5.779V177h-1.355v-7.925h1.355Zm5.2 0-3.757 4.541h-1.897l-.205-1.186h1.552l2.659-3.355h1.648ZM64.751 177l-2.915-3.589.872-.981 3.765 4.57H64.75Zm2.38-3.875v-.168c0-.571.084-1.101.25-1.589.166-.493.405-.921.718-1.282a3.216 3.216 0 0 1 1.135-.85 3.525 3.525 0 0 1 1.494-.307c.557 0 1.057.102 1.502.307a3.2 3.2 0 0 1 1.142.85 3.7 3.7 0 0 1 .725 1.282c.166.488.25 1.018.25 1.589v.168c0 .572-.084 1.102-.25 1.59a3.814 3.814 0 0 1-.725 1.282c-.312.361-.69.644-1.135.849-.44.2-.938.3-1.494.3a3.62 3.62 0 0 1-1.502-.3 3.4 3.4 0 0 1-1.142-.849 3.883 3.883 0 0 1-.718-1.282 4.905 4.905 0 0 1-.25-1.59Zm1.356-.168v.168c0 .396.046.77.139 1.121.093.347.232.654.417.923.19.269.428.481.71.637.284.152.614.227.99.227a2 2 0 0 0 .974-.227c.283-.156.517-.368.703-.637.186-.269.325-.576.417-.923.098-.351.147-.725.147-1.121v-.168a4.06 4.06 0 0 0-.147-1.106 2.848 2.848 0 0 0-.424-.93 2.021 2.021 0 0 0-.703-.645 1.975 1.975 0 0 0-.982-.234 2 2 0 0 0-.981.234 2.11 2.11 0 0 0-.704.645 2.94 2.94 0 0 0-.417.93c-.093.347-.14.715-.14 1.106Zm11.28.557h-2.601l-.015-1.084h2.124c.42 0 .77-.042 1.048-.125.283-.083.495-.207.637-.373a.916.916 0 0 0 .212-.616.969.969 0 0 0-.124-.498.911.911 0 0 0-.359-.359 1.787 1.787 0 0 0-.6-.212 4.092 4.092 0 0 0-.828-.073h-1.736V177H76.17v-7.925h3.09c.504 0 .955.044 1.356.132.405.088.75.222 1.032.403.288.176.508.4.66.674.151.273.227.595.227.966a1.63 1.63 0 0 1-.579 1.253 2.33 2.33 0 0 1-.703.41 3.592 3.592 0 0 1-.96.198l-.527.403Zm0 3.486h-3.092l.674-1.099h2.417c.376 0 .689-.046.938-.139.249-.097.434-.234.556-.41a1.09 1.09 0 0 0 .19-.644c0-.25-.063-.462-.19-.638a1.12 1.12 0 0 0-.556-.41c-.25-.098-.562-.146-.938-.146h-2.058l.015-1.084h2.57l.491.41c.435.034.803.141 1.106.322.303.181.532.41.689.689.156.273.234.571.234.893 0 .371-.07.698-.212.982-.137.283-.337.52-.601.71a2.932 2.932 0 0 1-.96.425 5.31 5.31 0 0 1-1.274.139Zm4.504-3.875v-.168c0-.571.082-1.101.248-1.589.166-.493.406-.921.718-1.282a3.217 3.217 0 0 1 1.136-.85 3.525 3.525 0 0 1 1.494-.307c.556 0 1.057.102 1.501.307.45.201.83.484 1.143.85.317.361.559.789.725 1.282.166.488.249 1.018.249 1.589v.168a4.88 4.88 0 0 1-.25 1.59 3.814 3.814 0 0 1-.724 1.282 3.33 3.33 0 0 1-1.135.849c-.44.2-.938.3-1.495.3-.556 0-1.057-.1-1.501-.3a3.399 3.399 0 0 1-1.143-.849 3.883 3.883 0 0 1-.718-1.282 4.908 4.908 0 0 1-.249-1.59Zm1.355-.168v.168c0 .396.046.77.139 1.121.092.347.232.654.417.923.19.269.427.481.71.637.284.152.613.227.99.227.37 0 .695-.075.974-.227.283-.156.517-.368.703-.637.185-.269.324-.576.417-.923a4.17 4.17 0 0 0 .147-1.121v-.168c0-.391-.05-.759-.147-1.106a2.848 2.848 0 0 0-.425-.93 2.023 2.023 0 0 0-.703-.645 1.975 1.975 0 0 0-.981-.234 2 2 0 0 0-.982.234 2.111 2.111 0 0 0-.703.645 2.942 2.942 0 0 0-.417.93c-.093.347-.14.715-.14 1.106ZM5.186 31.28 1.656 41H.211l4.065-10.664h.93l-.021.945ZM8.145 41l-3.538-9.72-.022-.944h.93L9.595 41h-1.45Zm-.184-3.948v1.157h-5.99v-1.157h5.99Zm8.233-.542v1.099h-4.19V36.51h4.19Zm-3.904-3.435V41h-1.355v-7.925h1.355Zm5.003 0V41H15.93v-7.925h1.363Zm3.647 5.779 3.655-5.779h1.362V41h-1.362v-5.779L20.94 41h-1.348v-7.925h1.348v5.779Zm10.913-1.34h-2.6l-.015-1.084h2.124c.42 0 .77-.042 1.048-.125.283-.083.495-.207.637-.373a.915.915 0 0 0 .212-.616.967.967 0 0 0-.124-.498.906.906 0 0 0-.36-.358 1.77 1.77 0 0 0-.6-.213 4.097 4.097 0 0 0-.827-.073h-1.736V41h-1.355v-7.925h3.09c.504 0 .955.044 1.356.132.405.088.75.222 1.032.403.288.176.508.4.66.674.15.273.227.595.227.967a1.626 1.626 0 0 1-.579 1.252 2.33 2.33 0 0 1-.703.41 3.624 3.624 0 0 1-.96.198l-.527.403Zm0 3.486h-3.09l.673-1.099h2.417c.376 0 .688-.046.938-.139.249-.097.434-.234.556-.41.127-.18.19-.395.19-.644a1.06 1.06 0 0 0-.19-.638 1.115 1.115 0 0 0-.556-.41c-.25-.097-.562-.146-.938-.146h-2.058l.015-1.084h2.57l.491.41c.435.034.803.141 1.106.322.303.18.532.41.689.689.156.273.234.57.234.893 0 .371-.07.698-.212.982-.137.283-.337.52-.601.71a2.932 2.932 0 0 1-.96.425c-.376.093-.8.139-1.274.139Zm9.536-1.355v-4.08c0-.312-.063-.583-.19-.813a1.247 1.247 0 0 0-.557-.542c-.249-.127-.557-.19-.923-.19a2.16 2.16 0 0 0-.9.176 1.57 1.57 0 0 0-.601.461 1.01 1.01 0 0 0-.213.616H36.65c0-.284.074-.565.22-.843.147-.278.357-.53.63-.754.278-.23.61-.41.996-.542.39-.137.825-.205 1.304-.205.576 0 1.084.097 1.523.293.445.195.791.49 1.04.886.254.39.381.881.381 1.472v3.692c0 .263.022.544.066.842.049.298.12.554.212.769V41H41.61a2.526 2.526 0 0 1-.161-.623 5.015 5.015 0 0 1-.059-.732Zm.234-3.45.015.953h-1.37c-.385 0-.73.031-1.032.095a2.362 2.362 0 0 0-.762.27 1.287 1.287 0 0 0-.469.462c-.107.18-.16.393-.16.637 0 .25.055.476.168.681.112.206.28.37.505.491.23.117.51.176.842.176a2.23 2.23 0 0 0 1.099-.264c.317-.175.569-.39.754-.644.19-.254.293-.5.308-.74l.579.652a1.967 1.967 0 0 1-.279.681 3.282 3.282 0 0 1-1.502 1.282c-.341.146-.727.22-1.156.22-.537 0-1.009-.105-1.414-.316a2.42 2.42 0 0 1-.938-.842 2.23 2.23 0 0 1-.33-1.194c0-.424.084-.798.25-1.12.166-.327.405-.598.718-.813a3.41 3.41 0 0 1 1.128-.498 5.95 5.95 0 0 1 1.472-.169h1.575Zm125.062 115.141h1.369l3.494 8.694 3.486-8.694h1.377L172.075 162h-1.069l-4.321-10.664Zm-.447 0h1.208l.198 6.504V162h-1.406v-10.664Zm9.404 0h1.209V162h-1.407v-4.16l.198-6.504Zm4.6 5.464h2.38c.64 0 1.179.112 1.619.337.439.219.771.525.996.915.229.386.344.825.344 1.319 0 .366-.063.71-.19 1.032a2.313 2.313 0 0 1-.572.835c-.249.24-.559.428-.93.564a3.725 3.725 0 0 1-1.267.198h-3.369v-7.925h1.355v6.812h2.014c.391 0 .703-.071.938-.213.234-.141.402-.324.505-.549a1.684 1.684 0 0 0 0-1.406 1.322 1.322 0 0 0-.505-.572c-.235-.156-.547-.234-.938-.234h-2.38V156.8Zm8.159-2.725V162h-1.355v-7.925h1.355Zm5.544 6.958c.323 0 .62-.066.894-.198.273-.131.498-.312.674-.542.175-.234.276-.5.3-.798h1.289a2.411 2.411 0 0 1-.476 1.311 3.249 3.249 0 0 1-1.135.974 3.298 3.298 0 0 1-1.546.366c-.595 0-1.115-.104-1.56-.314a3.099 3.099 0 0 1-1.098-.865 3.854 3.854 0 0 1-.652-1.259 5.307 5.307 0 0 1-.213-1.517v-.307c0-.532.071-1.035.213-1.509.146-.479.364-.901.652-1.267a3.096 3.096 0 0 1 1.098-.864c.445-.21.965-.315 1.56-.315.62 0 1.162.127 1.626.381.464.249.828.59 1.092 1.025.268.43.415.918.439 1.465h-1.289a1.945 1.945 0 0 0-.278-.886 1.734 1.734 0 0 0-.645-.63 1.8 1.8 0 0 0-.945-.242c-.415 0-.764.083-1.047.249a1.84 1.84 0 0 0-.667.659 3.081 3.081 0 0 0-.351.916 5.058 5.058 0 0 0-.103 1.018v.307c0 .347.035.689.103 1.026.068.337.183.642.344.915.166.274.388.493.667.66.283.161.634.241 1.054.241Zm15.381-.183V162h-5.647v-1.15h5.647Zm-5.361-9.514V162h-1.414v-10.664h1.414Zm4.614 4.585v1.15h-4.9v-1.15h4.9Zm.674-4.585v1.157h-5.574v-1.157h5.574Zm5.339 7.178h-2.6l-.014-1.084h2.124c.419 0 .769-.042 1.047-.125.283-.083.496-.207.637-.373a.914.914 0 0 0 .213-.616.97.97 0 0 0-.125-.498.91.91 0 0 0-.359-.359 1.784 1.784 0 0 0-.6-.212 4.102 4.102 0 0 0-.828-.073h-1.736V162h-1.355v-7.925h3.091c.503 0 .955.044 1.355.132.405.088.749.222 1.033.403.288.176.507.4.659.674.151.273.227.595.227.966a1.624 1.624 0 0 1-.579 1.253 2.33 2.33 0 0 1-.703.41 3.589 3.589 0 0 1-.959.198l-.528.403Zm0 3.486h-3.091l.674-1.099h2.417c.376 0 .689-.046.938-.139.249-.097.434-.234.556-.41.127-.181.191-.395.191-.644 0-.25-.064-.462-.191-.638a1.118 1.118 0 0 0-.556-.41c-.249-.098-.562-.146-.938-.146h-2.058l.015-1.084h2.571l.49.41c.435.034.804.141 1.106.322.303.181.533.41.689.689.156.273.234.571.234.893 0 .371-.071.698-.212.982-.137.283-.337.52-.601.71a2.932 2.932 0 0 1-.959.425 5.325 5.325 0 0 1-1.275.139Zm8.035-.967c.322 0 .62-.066.894-.198.273-.131.498-.312.673-.542.176-.234.276-.5.301-.798h1.289a2.42 2.42 0 0 1-.476 1.311 3.243 3.243 0 0 1-1.136.974 3.294 3.294 0 0 1-1.545.366c-.596 0-1.116-.104-1.56-.314a3.094 3.094 0 0 1-1.099-.865 3.874 3.874 0 0 1-.652-1.259 5.342 5.342 0 0 1-.212-1.517v-.307c0-.532.071-1.035.212-1.509.147-.479.364-.901.652-1.267a3.091 3.091 0 0 1 1.099-.864c.444-.21.964-.315 1.56-.315.62 0 1.162.127 1.626.381.464.249.828.59 1.091 1.025.269.43.415.918.44 1.465h-1.289a1.958 1.958 0 0 0-.279-.886 1.731 1.731 0 0 0-.644-.63 1.805 1.805 0 0 0-.945-.242c-.415 0-.764.083-1.047.249a1.832 1.832 0 0 0-.667.659 3.081 3.081 0 0 0-.351.916 4.987 4.987 0 0 0-.103 1.018v.307c0 .347.034.689.103 1.026.068.337.183.642.344.915.166.274.388.493.666.66.283.161.635.241 1.055.241Zm7.91-6.958V162h-1.362v-7.925h1.362Zm2.659 0v1.099h-6.629v-1.099h6.629Zm5.888 6.57v-4.08c0-.312-.063-.583-.19-.813a1.249 1.249 0 0 0-.557-.542c-.249-.127-.556-.19-.922-.19-.342 0-.643.059-.901.176a1.575 1.575 0 0 0-.601.461 1.01 1.01 0 0 0-.212.615h-1.355c0-.283.073-.564.219-.842.147-.278.357-.53.63-.754.279-.23.611-.41.996-.542a3.925 3.925 0 0 1 1.304-.205c.576 0 1.084.097 1.524.293.444.195.791.49 1.04.886.253.391.38.881.38 1.472v3.691c0 .264.022.545.066.843.049.298.12.554.213.769V162h-1.414a2.544 2.544 0 0 1-.161-.623 5.016 5.016 0 0 1-.059-.732Zm.235-3.45.014.952h-1.369c-.386 0-.73.032-1.033.096a2.357 2.357 0 0 0-.762.271 1.286 1.286 0 0 0-.468.461 1.218 1.218 0 0 0-.161.637c0 .249.056.476.168.681.112.206.281.369.505.491.23.117.511.176.843.176.415 0 .781-.088 1.098-.264.318-.175.569-.39.755-.644.19-.254.293-.501.307-.74l.579.652a1.97 1.97 0 0 1-.278.681 3.286 3.286 0 0 1-1.502 1.282 2.918 2.918 0 0 1-1.157.219c-.537 0-1.008-.104-1.414-.314-.4-.21-.713-.491-.937-.843a2.226 2.226 0 0 1-.33-1.194c0-.424.083-.798.249-1.12a2.17 2.17 0 0 1 .718-.813c.313-.22.689-.386 1.128-.498.439-.113.93-.169 1.472-.169h1.575Zm12.363.982v.154c0 .556-.061 1.069-.183 1.538a3.66 3.66 0 0 1-.549 1.208c-.24.342-.537.608-.894.798-.356.186-.769.279-1.238.279A3.07 3.07 0 0 1 247.8 162a2.071 2.071 0 0 1-.747-.461c-.2-.201-.361-.44-.483-.718a3.687 3.687 0 0 1-.242-.952v-3.516a4.05 4.05 0 0 1 .242-1.011c.122-.298.283-.551.483-.761.205-.21.452-.372.74-.484a2.781 2.781 0 0 1 1.011-.168 2.46 2.46 0 0 1 1.831.776c.234.249.427.549.578.901.157.347.274.737.352 1.172.078.434.117.901.117 1.399Zm-1.355.154v-.154c0-.342-.024-.667-.073-.974a4.025 4.025 0 0 0-.212-.857 2.43 2.43 0 0 0-.367-.689 1.589 1.589 0 0 0-.549-.454 1.576 1.576 0 0 0-.725-.161c-.293 0-.537.037-.733.11a1.139 1.139 0 0 0-.681.666v4.593c.059.107.144.21.257.307.112.093.263.171.454.235.19.058.429.088.718.088.341 0 .632-.069.871-.206.244-.141.442-.336.593-.585.157-.25.269-.538.337-.865.074-.327.11-.678.11-1.054Zm-8.056 0v-.154c0-.498.039-.965.117-1.399.078-.435.195-.825.351-1.172.157-.352.349-.652.579-.901.234-.249.503-.439.806-.571a2.505 2.505 0 0 1 1.032-.205c.376 0 .703.056.982.168.283.112.522.274.717.484.196.21.352.463.469.761.117.298.2.635.249 1.011v3.376a4.037 4.037 0 0 1-.241 1.004 2.5 2.5 0 0 1-.469.769c-.196.21-.437.371-.725.483a2.684 2.684 0 0 1-.996.169c-.469 0-.882-.093-1.238-.279a2.594 2.594 0 0 1-.901-.798 3.873 3.873 0 0 1-.549-1.208 6.102 6.102 0 0 1-.183-1.538Zm1.362-.154v.154c0 .376.032.727.095 1.054.068.327.173.615.315.865.146.249.337.444.571.585.235.137.523.206.865.206.292 0 .534-.037.725-.11a1.25 1.25 0 0 0 .71-.652v-4.461a1.085 1.085 0 0 0-.242-.373 1.11 1.11 0 0 0-.446-.293 2.077 2.077 0 0 0-.733-.11c-.342 0-.632.083-.871.249-.24.166-.433.393-.579.681a3.76 3.76 0 0 0-.315 1.004 7.264 7.264 0 0 0-.095 1.201Zm2.607 6.87V150.75h1.363v14.297h-1.363Zm8.679-5.193 3.655-5.779h1.363V162h-1.363v-5.779L254.919 162h-1.347v-7.925h1.347v5.779Zm8.797-1.633h1.465L262.888 162h-1.465l2.293-3.779Zm1.135-4.146h3.311V162h-1.355v-6.826h-1.956c-.386 0-.701.066-.945.198a1.234 1.234 0 0 0-.534.498 1.301 1.301 0 0 0-.015 1.259c.102.196.264.357.483.484.22.127.503.19.85.19h2.483v1.114h-2.483c-.454 0-.857-.062-1.209-.184a2.647 2.647 0 0 1-.893-.505 2.21 2.21 0 0 1-.557-.769 2.44 2.44 0 0 1-.19-.967c0-.346.066-.666.198-.959.136-.293.332-.55.586-.769.258-.22.573-.389.944-.506a4.15 4.15 0 0 1 1.282-.183ZM124.754 3.336V14h-1.414V3.336h1.414ZM127.2 8.22v1.113h-2.534V8.221h2.534Zm7.654.11v.674c0 .8-.1 1.518-.3 2.153a4.624 4.624 0 0 1-.865 1.619 3.744 3.744 0 0 1-1.355 1.018c-.522.234-1.108.351-1.757.351-.63 0-1.209-.117-1.736-.351a3.89 3.89 0 0 1-1.362-1.018 4.743 4.743 0 0 1-.887-1.619c-.21-.635-.315-1.352-.315-2.153V8.33c0-.8.103-1.516.308-2.146.21-.635.505-1.174.886-1.619a3.81 3.81 0 0 1 1.355-1.025 4.228 4.228 0 0 1 1.736-.352c.649 0 1.235.118 1.758.352.527.234.979.576 1.355 1.025.381.445.671.984.871 1.62.205.629.308 1.344.308 2.145Zm-1.399.674v-.689c0-.634-.066-1.196-.198-1.684-.127-.488-.315-.899-.564-1.23a2.433 2.433 0 0 0-.915-.755 2.781 2.781 0 0 0-1.216-.256 2.73 2.73 0 0 0-1.194.256c-.351.17-.654.422-.908.754-.249.332-.442.743-.579 1.23a6.295 6.295 0 0 0-.205 1.685v.689c0 .64.069 1.206.205 1.7.137.487.332.9.586 1.237.259.332.564.583.916.754.356.171.754.257 1.194.257.459 0 .866-.086 1.223-.257.356-.17.657-.422.901-.754.249-.337.437-.75.564-1.238.127-.493.19-1.06.19-1.7Zm5.398 1.545-3.003-4.475h1.633l2.051 3.281h1.582l-.198 1.194h-2.065Zm.74-.139-2.3 3.589h-1.714l3.157-4.57.857.981Zm2.219-4.336V14h-1.355V6.075h1.355Zm4.622 0-3.003 4.475h-2.066l-.212-1.194h1.589l2.051-3.28h1.641ZM144.983 14l-2.307-3.589.872-.981 3.149 4.57h-1.714Zm8.343-4.49v1.099h-4.19V9.51h4.19Zm-3.904-3.435V14h-1.355V6.075h1.355Zm5.002 0V14h-1.362V6.075h1.362Zm1.824 4.05v-.168c0-.571.083-1.101.249-1.59.166-.492.405-.92.718-1.281a3.2 3.2 0 0 1 1.135-.85 3.522 3.522 0 0 1 1.494-.307c.557 0 1.057.102 1.502.307.449.2.83.484 1.142.85a3.7 3.7 0 0 1 .725 1.282c.166.488.249 1.018.249 1.589v.168c0 .572-.083 1.102-.249 1.59a3.792 3.792 0 0 1-.725 1.282 3.32 3.32 0 0 1-1.135.85c-.439.2-.937.3-1.494.3a3.62 3.62 0 0 1-1.502-.3 3.395 3.395 0 0 1-1.142-.85 3.863 3.863 0 0 1-.718-1.282 4.907 4.907 0 0 1-.249-1.59Zm1.355-.168v.168c0 .396.046.77.139 1.121.093.347.232.654.418.923.19.268.427.48.71.637.283.152.613.227.989.227a2 2 0 0 0 .974-.227c.283-.156.518-.368.703-.637.186-.269.325-.576.418-.923.097-.351.146-.725.146-1.12v-.169c0-.39-.049-.76-.146-1.106a2.862 2.862 0 0 0-.425-.93 2.024 2.024 0 0 0-.703-.645 1.976 1.976 0 0 0-.982-.234c-.371 0-.698.078-.981.234a2.097 2.097 0 0 0-.703.645 2.937 2.937 0 0 0-.418.93 4.253 4.253 0 0 0-.139 1.106Zm10.378-1.047v1.113h-3.574V8.91h3.574Zm7.969 1.699h1.406a4.49 4.49 0 0 1-.578 1.809 3.389 3.389 0 0 1-1.326 1.267c-.571.308-1.284.461-2.139.461a4.055 4.055 0 0 1-1.706-.351 3.788 3.788 0 0 1-1.311-.996 4.662 4.662 0 0 1-.85-1.56 6.669 6.669 0 0 1-.293-2.036V8.14c0-.747.098-1.424.293-2.03.2-.61.486-1.132.857-1.567a3.826 3.826 0 0 1 1.355-1.003c.528-.234 1.121-.352 1.78-.352.806 0 1.487.152 2.043.455.557.302.989.722 1.297 1.26.312.532.505 1.15.578 1.852h-1.406c-.068-.498-.195-.925-.381-1.281a1.975 1.975 0 0 0-.791-.835c-.341-.196-.788-.293-1.34-.293-.474 0-.891.09-1.252.27a2.523 2.523 0 0 0-.901.77c-.24.332-.42.73-.542 1.194a6.074 6.074 0 0 0-.183 1.545v1.077c0 .522.053 1.013.161 1.472.112.459.28.862.505 1.208.225.347.51.62.857.82.347.196.757.294 1.23.294.601 0 1.08-.096 1.436-.286.356-.19.625-.464.806-.82.185-.357.317-.784.395-1.282Zm7.8 2.036v-4.08c0-.312-.063-.583-.19-.813a1.247 1.247 0 0 0-.557-.542c-.249-.127-.556-.19-.922-.19-.342 0-.643.059-.901.176a1.573 1.573 0 0 0-.601.461c-.141.19-.212.396-.212.615h-1.355c0-.283.073-.564.219-.842.147-.278.357-.53.63-.754.279-.23.611-.41.996-.542a3.932 3.932 0 0 1 1.304-.205c.576 0 1.084.097 1.524.293.444.195.791.49 1.04.886.254.39.38.881.38 1.472v3.691c0 .264.022.545.066.843.049.298.12.554.213.769V14h-1.414a2.545 2.545 0 0 1-.161-.623 5.032 5.032 0 0 1-.059-.732Zm.235-3.45.015.953h-1.37c-.386 0-.73.031-1.033.095a2.369 2.369 0 0 0-.762.27 1.218 1.218 0 0 0-.629 1.099c0 .25.056.476.168.681.112.206.281.37.505.491.23.117.511.176.843.176.415 0 .781-.088 1.098-.264.318-.175.569-.39.755-.644.19-.254.293-.5.307-.74l.579.652a1.97 1.97 0 0 1-.278.681 3.273 3.273 0 0 1-1.502 1.282c-.342.146-.727.22-1.157.22-.537 0-1.008-.106-1.414-.316a2.41 2.41 0 0 1-.937-.842 2.228 2.228 0 0 1-.33-1.194c0-.424.083-.798.249-1.12a2.17 2.17 0 0 1 .718-.813 3.42 3.42 0 0 1 1.128-.498c.439-.113.93-.169 1.472-.169h1.575Zm4.167-3.12 1.736 2.886 1.758-2.886h1.589l-2.592 3.911L193.316 14h-1.567l-1.832-2.974L188.086 14h-1.574l2.666-4.014-2.586-3.91h1.56Zm11.199 6.57v-4.08c0-.312-.063-.583-.19-.813a1.247 1.247 0 0 0-.557-.542c-.249-.127-.557-.19-.923-.19-.342 0-.642.059-.901.176a1.562 1.562 0 0 0-.6.461 1.01 1.01 0 0 0-.213.615h-1.355c0-.283.074-.564.22-.842.147-.278.356-.53.63-.754.278-.23.61-.41.996-.542a3.928 3.928 0 0 1 1.304-.205c.576 0 1.084.097 1.523.293.444.195.791.49 1.04.886.254.39.381.881.381 1.472v3.691c0 .264.022.545.066.843.049.298.12.554.212.769V14h-1.413a2.5 2.5 0 0 1-.161-.623 5.032 5.032 0 0 1-.059-.732Zm.234-3.45.015.953h-1.37c-.385 0-.73.031-1.032.095a2.36 2.36 0 0 0-.762.27 1.294 1.294 0 0 0-.469.462c-.107.18-.161.393-.161.637 0 .25.056.476.169.681.112.206.28.37.505.491.229.117.51.176.842.176a2.23 2.23 0 0 0 1.099-.264c.317-.175.569-.39.754-.644.191-.254.293-.5.308-.74l.579.652a1.974 1.974 0 0 1-.279.681 3.29 3.29 0 0 1-1.501 1.282c-.342.146-.728.22-1.157.22-.538 0-1.009-.106-1.414-.316a2.42 2.42 0 0 1-.938-.842 2.236 2.236 0 0 1-.329-1.194c0-.424.083-.798.249-1.12a2.16 2.16 0 0 1 .718-.813 3.4 3.4 0 0 1 1.128-.498c.439-.113.93-.169 1.472-.169h1.574Zm8.548-3.12v1.12h-3.831v-1.12h3.831Zm1.194 0V14h-1.355V6.075h1.355Zm-5.354 0h1.362l-.205 3.823c-.034.591-.09 1.114-.169 1.568a5.324 5.324 0 0 1-.307 1.157 2.405 2.405 0 0 1-.484.791c-.19.2-.42.35-.688.447a2.843 2.843 0 0 1-.93.139h-.425v-1.194l.293-.022c.21-.014.388-.063.535-.146a1.04 1.04 0 0 0 .38-.367c.103-.166.186-.378.249-.637.069-.258.12-.566.154-.923.039-.356.069-.771.088-1.245l.147-3.39Zm9.001 5.779 3.655-5.779h1.362V14h-1.362V8.221L212.974 14h-1.348V6.075h1.348v5.779Zm12.568-2.344v1.099h-4.189V9.51h4.189Zm-3.903-3.435V14h-1.355V6.075h1.355Zm5.002 0V14h-1.362V6.075h1.362Zm5.354 6.958c.322 0 .62-.066.894-.198.273-.131.498-.312.673-.542.176-.234.276-.5.301-.798h1.289a2.421 2.421 0 0 1-.476 1.311 3.257 3.257 0 0 1-2.681 1.34c-.596 0-1.116-.105-1.56-.315a3.097 3.097 0 0 1-1.099-.864 3.851 3.851 0 0 1-.651-1.26 5.302 5.302 0 0 1-.213-1.516v-.307c0-.532.071-1.035.213-1.509.146-.479.363-.9.651-1.267a3.1 3.1 0 0 1 1.099-.864c.444-.21.964-.315 1.56-.315.62 0 1.162.127 1.626.38.464.25.828.591 1.091 1.026.269.43.415.918.44 1.465h-1.289a1.95 1.95 0 0 0-.279-.886 1.735 1.735 0 0 0-.644-.63 1.804 1.804 0 0 0-.945-.242c-.415 0-.764.083-1.047.249a1.82 1.82 0 0 0-.667.66 3.073 3.073 0 0 0-.351.915 4.99 4.99 0 0 0-.103 1.018v.307c0 .347.034.689.103 1.026.068.337.183.642.344.915.166.274.388.494.666.66.284.16.635.241 1.055.241Zm6.152-6.958V14h-1.355V6.075h1.355Zm5.201 0-3.758 4.541h-1.897l-.205-1.186h1.553l2.659-3.355h1.648ZM241.89 14l-2.915-3.589.872-.981 3.764 4.57h-1.721ZM116.676 118.609h1.406a4.472 4.472 0 0 1-.579 1.809 3.377 3.377 0 0 1-1.325 1.267c-.572.308-1.284.461-2.139.461a4.058 4.058 0 0 1-1.706-.351 3.792 3.792 0 0 1-1.312-.996 4.67 4.67 0 0 1-.849-1.56 6.67 6.67 0 0 1-.293-2.036v-1.062c0-.747.098-1.424.293-2.029a4.58 4.58 0 0 1 .857-1.568 3.819 3.819 0 0 1 1.355-1.003c.527-.234 1.12-.352 1.78-.352.805 0 1.486.152 2.043.455a3.24 3.24 0 0 1 1.296 1.259c.313.533.506 1.15.579 1.853h-1.406c-.069-.498-.196-.925-.381-1.281a1.976 1.976 0 0 0-.791-.835c-.342-.196-.789-.293-1.34-.293-.474 0-.892.09-1.253.271-.356.18-.657.437-.901.769-.239.332-.42.73-.542 1.194a6.068 6.068 0 0 0-.183 1.545v1.077c0 .522.054 1.013.161 1.472.113.459.281.862.506 1.208.224.347.51.62.857.821.346.195.756.293 1.23.293.601 0 1.079-.096 1.436-.286.356-.19.625-.464.805-.82.186-.357.318-.784.396-1.282Zm11.477-7.273V122h-1.406v-9.507h-5.259V122h-1.414v-10.664h8.079Zm9.177 0v1.157h-5.142V122h-1.406v-10.664h6.548Zm13.601 0V122h-1.406v-9.507h-5.259V122h-1.413v-10.664h8.078Zm3.714 4.263v9.448h-1.363v-10.972h1.245l.118 1.524Zm5.339 2.373v.153a5.97 5.97 0 0 1-.205 1.604 3.936 3.936 0 0 1-.601 1.275 2.732 2.732 0 0 1-.959.842c-.381.2-.818.3-1.311.3-.503 0-.948-.083-1.333-.249a2.626 2.626 0 0 1-.982-.725 3.708 3.708 0 0 1-.644-1.142 6.602 6.602 0 0 1-.323-1.502v-.82a6.923 6.923 0 0 1 .33-1.575c.161-.464.374-.859.637-1.186a2.63 2.63 0 0 1 .974-.755c.381-.175.821-.263 1.319-.263s.94.097 1.325.293c.386.19.711.464.975.82.263.356.461.784.593 1.282a6.15 6.15 0 0 1 .205 1.648Zm-1.362.153v-.153c0-.396-.042-.767-.125-1.114a2.802 2.802 0 0 0-.388-.922 1.847 1.847 0 0 0-.659-.63c-.269-.157-.589-.235-.96-.235-.342 0-.639.059-.893.176a1.937 1.937 0 0 0-.638.476c-.175.195-.319.42-.432.674a3.858 3.858 0 0 0-.241.776v1.897c.097.342.234.664.41.967.176.298.41.54.703.725.293.181.662.271 1.106.271.366 0 .681-.075.945-.227.268-.156.488-.368.659-.637.176-.269.305-.576.388-.923.083-.351.125-.725.125-1.121Zm4.555 1.729 3.655-5.779h1.362V122h-1.362v-5.779L163.177 122h-1.347v-7.925h1.347v5.779Zm12.312-5.779v1.121h-3.662V122h-1.355v-7.925h5.017Zm.674 4.05v-.168c0-.571.083-1.101.249-1.589.166-.493.405-.921.718-1.282a3.213 3.213 0 0 1 1.135-.85 3.526 3.526 0 0 1 1.494-.307c.557 0 1.057.102 1.502.307.449.201.83.484 1.142.85a3.7 3.7 0 0 1 .725 1.282c.166.488.249 1.018.249 1.589v.168c0 .572-.083 1.102-.249 1.59a3.803 3.803 0 0 1-.725 1.282 3.321 3.321 0 0 1-1.135.849c-.439.2-.937.3-1.494.3-.557 0-1.057-.1-1.502-.3a3.396 3.396 0 0 1-1.142-.849 3.875 3.875 0 0 1-.718-1.282 4.908 4.908 0 0 1-.249-1.59Zm1.355-.168v.168c0 .396.046.77.139 1.121.093.347.232.654.418.923.19.269.427.481.71.637.283.152.613.227.989.227a2 2 0 0 0 .974-.227c.283-.156.518-.368.703-.637.186-.269.325-.576.418-.923.097-.351.146-.725.146-1.121v-.168c0-.391-.049-.759-.146-1.106a2.861 2.861 0 0 0-.425-.93 2.027 2.027 0 0 0-.703-.645 1.979 1.979 0 0 0-.982-.234c-.371 0-.698.078-.981.234a2.11 2.11 0 0 0-.703.645 2.936 2.936 0 0 0-.418.93 4.253 4.253 0 0 0-.139 1.106Zm8.914-2.358v9.448h-1.363v-10.972h1.245l.118 1.524Zm5.339 2.373v.153a5.97 5.97 0 0 1-.205 1.604 3.936 3.936 0 0 1-.601 1.275 2.723 2.723 0 0 1-.959.842c-.381.2-.818.3-1.311.3-.503 0-.947-.083-1.333-.249a2.626 2.626 0 0 1-.982-.725 3.708 3.708 0 0 1-.644-1.142 6.603 6.603 0 0 1-.322-1.502v-.82a6.87 6.87 0 0 1 .329-1.575c.161-.464.374-.859.637-1.186a2.63 2.63 0 0 1 .974-.755c.381-.175.821-.263 1.319-.263s.94.097 1.326.293c.385.19.71.464.974.82.263.356.461.784.593 1.282a6.15 6.15 0 0 1 .205 1.648Zm-1.362.153v-.153c0-.396-.042-.767-.125-1.114a2.802 2.802 0 0 0-.388-.922 1.847 1.847 0 0 0-.659-.63c-.269-.157-.589-.235-.96-.235-.341 0-.639.059-.893.176a1.923 1.923 0 0 0-.637.476c-.176.195-.32.42-.433.674a3.858 3.858 0 0 0-.241.776v1.897c.097.342.234.664.41.967.176.298.41.54.703.725.293.181.662.271 1.106.271.366 0 .681-.075.945-.227.268-.156.488-.368.659-.637.176-.269.305-.576.388-.923.083-.351.125-.725.125-1.121Zm2.732 0v-.168c0-.571.083-1.101.249-1.589.166-.493.405-.921.717-1.282a3.217 3.217 0 0 1 1.136-.85 3.523 3.523 0 0 1 1.494-.307c.556 0 1.057.102 1.501.307.45.201.83.484 1.143.85.317.361.559.789.725 1.282.166.488.249 1.018.249 1.589v.168c0 .572-.083 1.102-.249 1.59a3.82 3.82 0 0 1-.725 1.282 3.33 3.33 0 0 1-1.135.849c-.44.2-.938.3-1.495.3-.556 0-1.057-.1-1.501-.3a3.41 3.41 0 0 1-1.143-.849 3.89 3.89 0 0 1-.717-1.282 4.908 4.908 0 0 1-.249-1.59Zm1.355-.168v.168c0 .396.046.77.139 1.121.093.347.232.654.417.923.191.269.427.481.711.637.283.152.612.227.988.227.372 0 .696-.075.975-.227.283-.156.517-.368.703-.637.185-.269.324-.576.417-.923.098-.351.147-.725.147-1.121v-.168c0-.391-.049-.759-.147-1.106a2.84 2.84 0 0 0-.425-.93 2.019 2.019 0 0 0-.703-.645 1.972 1.972 0 0 0-.981-.234c-.371 0-.698.078-.982.234a2.119 2.119 0 0 0-.703.645 2.957 2.957 0 0 0-.417.93 4.253 4.253 0 0 0-.139 1.106Zm8.459-3.882h1.355l-.117 2.967c-.029.751-.115 1.401-.256 1.948a5.776 5.776 0 0 1-.542 1.399c-.22.381-.467.7-.74.959a4.863 4.863 0 0 1-.835.652h-.674l.037-1.106.278-.007c.161-.191.317-.386.469-.586.151-.205.29-.447.417-.725.127-.284.232-.628.315-1.033a9.14 9.14 0 0 0 .169-1.501l.124-2.967Zm.337 0h4.768V122h-1.355v-6.672h-3.413v-1.253Zm-2.454 6.812h8.24v3.449h-1.355V122h-5.53v2.336h-1.362l.007-3.449Zm15.118-3.377v1.099h-4.19v-1.099h4.19Zm-3.904-3.435V122h-1.355v-7.925h1.355Zm5.002 0V122h-1.362v-7.925h1.362Zm1.824 4.05v-.168c0-.571.083-1.101.249-1.589.166-.493.405-.921.718-1.282a3.213 3.213 0 0 1 1.135-.85 3.523 3.523 0 0 1 1.494-.307c.557 0 1.057.102 1.502.307.449.201.83.484 1.142.85a3.7 3.7 0 0 1 .725 1.282c.166.488.249 1.018.249 1.589v.168c0 .572-.083 1.102-.249 1.59a3.803 3.803 0 0 1-.725 1.282 3.321 3.321 0 0 1-1.135.849c-.44.2-.938.3-1.494.3-.557 0-1.057-.1-1.502-.3a3.396 3.396 0 0 1-1.142-.849 3.875 3.875 0 0 1-.718-1.282 4.908 4.908 0 0 1-.249-1.59Zm1.355-.168v.168c0 .396.046.77.139 1.121.093.347.232.654.418.923.19.269.427.481.71.637.283.152.613.227.989.227a2 2 0 0 0 .974-.227c.283-.156.517-.368.703-.637.186-.269.325-.576.417-.923.098-.351.147-.725.147-1.121v-.168c0-.391-.049-.759-.147-1.106a2.839 2.839 0 0 0-.424-.93 2.027 2.027 0 0 0-.703-.645 1.979 1.979 0 0 0-.982-.234c-.371 0-.698.078-.981.234a2.1 2.1 0 0 0-.703.645 2.936 2.936 0 0 0-.418.93 4.253 4.253 0 0 0-.139 1.106Zm10.847 4.189a3.886 3.886 0 0 1-1.501-.278 3.386 3.386 0 0 1-1.15-.798 3.545 3.545 0 0 1-.733-1.216 4.456 4.456 0 0 1-.256-1.538v-.308c0-.644.095-1.218.286-1.721.19-.508.449-.937.776-1.289a3.307 3.307 0 0 1 1.113-.798 3.193 3.193 0 0 1 1.289-.271c.567 0 1.055.097 1.465.293.415.195.755.468 1.018.82.264.347.459.757.586 1.23.127.469.191.982.191 1.539v.607h-5.918v-1.106h4.563v-.102a3.387 3.387 0 0 0-.22-1.025 1.85 1.85 0 0 0-.586-.821c-.269-.215-.635-.322-1.099-.322a1.84 1.84 0 0 0-1.516.769 2.9 2.9 0 0 0-.432.93 4.737 4.737 0 0 0-.154 1.267v.308c0 .376.052.73.154 1.062.107.327.261.615.461.864.206.249.452.445.74.586.293.142.625.213.996.213.479 0 .884-.098 1.216-.293.332-.196.623-.457.872-.784l.82.652a3.765 3.765 0 0 1-.652.739 3.099 3.099 0 0 1-.974.572c-.381.146-.832.219-1.355.219Z" fill="#fff"/><path d="M167.396 25.212c-.43 7.458-7.743 11.618-26.24 23.665l-34.413 32.7m0 0c-2.151 3.012 7.743 15.06-5.592 23.234-4.732 1.722-9.464-1.721-7.313 9.036.86 6.454 4.99 22.288 12.905 37.433 7.915 15.145-11.615 32.987-22.369 40.015m22.369-109.718c-6.226-7.64-21.736-22.351-33.972-20.07-12.236 2.281-26.875-3.197-32.665-6.222-3.37-1.76-6.481 3.733-8.555 2.074-1.037-.605-3.474-2.385-4.926-4.666" stroke="#FF6C01" stroke-width="2"/><path d="M72.326 209.796c4.849-6.74 1.115-11.5 3.553-13.221l8.492-5.28c4.467-2.919 10.447-7.704 15.347-13.386 6.896-7.998 11.649-17.774 7.021-26.629-7.074-13.537-11.124-27.624-12.52-35.072m5.499 61.701c-4.9 5.682-10.88 10.467-15.347 13.386" stroke="#fff" stroke-width="2"/><path d="M72.326 209.796c4.849-6.74 1.115-11.5 3.553-13.221l8.492-5.28c4.467-2.919 10.447-7.704 15.347-13.386m.27-.259c8.642 1.21 27.221 2.903 32.406 0 5.185-2.904 17.715-6.913 23.332-8.555" stroke="#828282" stroke-width="2"/><path d="M75.879 196.575c-2.438 1.721 1.296 6.481-3.553 13.221" stroke="#838383" stroke-width="1.555"/><circle cx="168.803" cy="25.064" r="4" fill="#FF6C01"/><circle cx="27" cy="52" r="4" fill="#FF6C01"/><circle cx="73.398" cy="210.167" r="4" fill="#838383"/><circle cx="156.875" cy="169.724" r="4" fill="#838383"/><circle cx="95" cy="119" r="4" fill="#FF6C01"/><circle cx="101" cy="177" r="4" fill="#fff"/></svg>