<svg width="464" height="237" fill="none" xmlns="http://www.w3.org/2000/svg"><path d="M188.402 218.632c-.05 1.145 1.108.909 1.693.648 3.125.711-1.371 5.103-1.359 4.817.013-.286-2.963 2.165-3.848 2.7-.707.428-1.641 4.709-2.019 6.796-.224.756-1.248 2.298-3.549 2.427-2.301.128-2.028-1.715-1.605-2.653 1.142-2.053 3.259-6.283 2.592-6.771-.834-.61.063-1.432.113-2.577.041-.916 1.544-.315 2.291.101.104-.187.319-.732.349-1.419.03-.688 2.511-.56 3.747-.41.553-1.697 1.646-4.805 1.595-3.659Zm-20.708 14.296c-.687-.031-.584-1.939-.447-2.889l-.821-.896c-.586.261-1.821.952-2.08 1.63-.324.846-2.228-1.533-1.731.211.398 1.394-.108 2.481-.412 2.85.561.312 1.79 1.054 2.228 1.532.548.598 4.122-2.401 3.263-2.438Zm4.87-6.385c.149 1.843.817.992 1.133.337 1.613-.159 1.41.54 1.107.909-.958.054-2.836.564-2.677 2.177.159 1.614-.739 1.594-1.208 1.382-.191-.009-.797-.15-1.693-.648-.896-.499-.099-2.108.412-2.851l1.545-2.514c.398-.365 1.232-.634 1.381 1.208Zm3.338-4.156c1.165-.408.353-1.515-.198-2.017-1.136-.28-2.042.771-2.354 1.331.365.398 1.387 1.093 2.552.686Z" fill="#191C20"/><path d="m390.678 11.001 2.82-7.126h1.626l-3.772 8.884c-.108.25-.227.49-.359.725-.132.23-.293.435-.484.615-.19.181-.427.325-.71.432-.278.108-.625.162-1.04.162-.117 0-.257-.008-.418-.022a1.755 1.755 0 0 1-.315-.037l.044-1.128c.054.01.159.02.315.03.157.004.271.007.344.007.279 0 .499-.056.66-.169.161-.112.29-.254.388-.425.102-.175.195-.354.278-.534l.623-1.414Zm-2.395-7.126 2.966 6.643.352 1.31-1.187.089-3.713-8.042h1.582Zm12.693 2.739v1.12h-3.663v6.805h-1.355V6.614h5.018Zm6.181 0v1.12h-3.83v-1.12h3.83Zm1.194 0v7.925h-1.355V6.614h1.355Zm-5.354 0h1.362l-.205 3.823c-.034.591-.09 1.114-.168 1.568a5.32 5.32 0 0 1-.308 1.157 2.42 2.42 0 0 1-.483.79c-.191.201-.42.35-.689.448a2.861 2.861 0 0 1-.93.139h-.425v-1.194l.293-.022a1.25 1.25 0 0 0 .535-.146c.151-.083.278-.206.381-.367a2.25 2.25 0 0 0 .249-.637 5.86 5.86 0 0 0 .154-.923c.039-.356.068-.771.088-1.245l.146-3.391Zm10.825 8.071a3.899 3.899 0 0 1-1.501-.278 3.395 3.395 0 0 1-1.15-.798 3.56 3.56 0 0 1-.733-1.216 4.48 4.48 0 0 1-.256-1.538v-.308c0-.644.095-1.218.286-1.721.19-.508.449-.938.776-1.29a3.323 3.323 0 0 1 1.113-.797 3.193 3.193 0 0 1 1.289-.271c.567 0 1.055.097 1.465.293.415.195.755.468 1.018.82a3.5 3.5 0 0 1 .586 1.23c.127.469.191.982.191 1.538v.608h-5.918V9.851h4.563V9.75a3.393 3.393 0 0 0-.22-1.026 1.84 1.84 0 0 0-.586-.82c-.268-.215-.635-.322-1.099-.322a1.844 1.844 0 0 0-1.516.769 2.898 2.898 0 0 0-.432.93 4.736 4.736 0 0 0-.154 1.267v.308c0 .376.052.73.154 1.062.108.327.261.615.462.864.205.249.451.444.739.586.293.141.625.212.997.212.478 0 .883-.097 1.215-.293.332-.195.623-.456.872-.783l.82.652a3.785 3.785 0 0 1-.652.74 3.1 3.1 0 0 1-.974.57c-.381.147-.832.22-1.355.22Zm9.785-8.071v1.12h-3.662v6.805h-1.355V6.614h5.017Zm.674 4.05v-.168c0-.571.083-1.101.249-1.59a3.78 3.78 0 0 1 .718-1.281 3.21 3.21 0 0 1 1.135-.85 3.528 3.528 0 0 1 1.494-.307c.557 0 1.058.102 1.502.307.449.2.83.484 1.142.85.318.361.56.788.726 1.281.166.489.249 1.019.249 1.59v.168c0 .572-.083 1.101-.249 1.59a3.795 3.795 0 0 1-.726 1.281 3.31 3.31 0 0 1-1.135.85c-.439.2-.937.3-1.494.3-.557 0-1.057-.1-1.501-.3a3.39 3.39 0 0 1-1.143-.85 3.881 3.881 0 0 1-.718-1.281 4.908 4.908 0 0 1-.249-1.59Zm1.355-.168v.168c0 .396.047.77.139 1.12.093.348.232.655.418.924.19.268.427.48.71.637.284.151.613.227.989.227.371 0 .696-.076.974-.227.283-.156.518-.369.703-.637.186-.269.325-.576.418-.923.097-.352.146-.725.146-1.12v-.17c0-.39-.049-.758-.146-1.105a2.862 2.862 0 0 0-.425-.93 2.024 2.024 0 0 0-.703-.645 1.974 1.974 0 0 0-.982-.234c-.371 0-.698.078-.981.234a2.106 2.106 0 0 0-.703.645 2.937 2.937 0 0 0-.418.93 4.296 4.296 0 0 0-.139 1.106Zm8.914-2.359v9.449h-1.362V6.614h1.245l.117 1.523Zm5.339 2.373v.154a5.97 5.97 0 0 1-.205 1.604 3.943 3.943 0 0 1-.601 1.275 2.722 2.722 0 0 1-.959.842c-.381.2-.818.3-1.311.3-.503 0-.947-.083-1.333-.249a2.621 2.621 0 0 1-.981-.725 3.694 3.694 0 0 1-.645-1.142 6.594 6.594 0 0 1-.322-1.502v-.82a6.87 6.87 0 0 1 .329-1.575c.161-.464.374-.86.638-1.186a2.61 2.61 0 0 1 .974-.755c.381-.176.82-.263 1.318-.263.498 0 .94.097 1.326.293.385.19.71.463.974.82.263.356.461.783.593 1.282a6.15 6.15 0 0 1 .205 1.648Zm-1.362.154v-.153a4.77 4.77 0 0 0-.125-1.114 2.808 2.808 0 0 0-.388-.923 1.846 1.846 0 0 0-.659-.63c-.269-.156-.588-.234-.959-.234-.342 0-.64.059-.894.176a1.934 1.934 0 0 0-.637.476c-.176.195-.32.42-.432.674a3.853 3.853 0 0 0-.242.776v1.897c.098.342.234.664.41.967.176.298.41.54.703.725.293.18.662.271 1.106.271.366 0 .681-.076.945-.227a1.91 1.91 0 0 0 .659-.637 2.9 2.9 0 0 0 .388-.923c.083-.352.125-.725.125-1.12Zm6.262 2.908c.322 0 .62-.066.894-.198.273-.132.498-.312.673-.542.176-.234.276-.5.301-.798h1.289a2.421 2.421 0 0 1-.476 1.311 3.25 3.25 0 0 1-1.136.974 3.29 3.29 0 0 1-1.545.366c-.596 0-1.116-.105-1.56-.315a3.098 3.098 0 0 1-1.099-.864 3.851 3.851 0 0 1-.651-1.26 5.302 5.302 0 0 1-.213-1.516v-.307c0-.533.071-1.036.213-1.51.146-.478.363-.9.651-1.266.293-.366.66-.655 1.099-.865.444-.21.964-.314 1.56-.314.62 0 1.162.126 1.626.38.464.25.828.591 1.091 1.026.269.43.415.918.44 1.465h-1.289a1.95 1.95 0 0 0-.279-.887 1.735 1.735 0 0 0-.644-.63 1.804 1.804 0 0 0-.945-.241c-.415 0-.764.083-1.047.249-.279.161-.501.38-.667.659a3.074 3.074 0 0 0-.351.916 4.99 4.99 0 0 0-.103 1.018v.307c0 .347.034.689.103 1.026.068.336.183.642.344.915.166.274.388.493.666.66.284.16.635.241 1.055.241Zm6.152-6.958v7.925h-1.355V6.614h1.355Zm5.201 0-3.758 4.541h-1.897l-.205-1.186h1.553l2.659-3.355h1.648Zm-1.458 7.925-2.915-3.589.872-.981 3.764 4.57h-1.721Zm-58.526 26.427h1.421v9.514h3.662v-9.514h1.406v9.514h3.641v-9.514h1.413V51.63h-11.543V40.966Zm18.538 9.309v-4.08c0-.312-.064-.583-.191-.813a1.245 1.245 0 0 0-.556-.542c-.249-.127-.557-.19-.923-.19-.342 0-.642.059-.901.176a1.574 1.574 0 0 0-.601.461c-.141.19-.212.396-.212.615h-1.355c0-.283.073-.564.22-.842.146-.278.356-.53.63-.754.278-.23.61-.41.996-.542.39-.137.825-.205 1.303-.205.577 0 1.084.097 1.524.293.444.195.791.49 1.04.886.254.39.381.881.381 1.472v3.691c0 .264.022.545.066.843.049.297.119.554.212.769v.117h-1.413a2.497 2.497 0 0 1-.162-.623 5.023 5.023 0 0 1-.058-.732Zm.234-3.45.015.952h-1.37c-.386 0-.73.032-1.033.096a2.363 2.363 0 0 0-.761.27 1.285 1.285 0 0 0-.469.462c-.107.18-.161.393-.161.637 0 .25.056.476.168.681.113.205.281.369.506.491.229.117.51.176.842.176.415 0 .781-.088 1.099-.264.317-.176.568-.39.754-.644.19-.254.293-.5.308-.74l.578.652a1.97 1.97 0 0 1-.278.68 3.277 3.277 0 0 1-1.502 1.282c-.341.147-.727.22-1.157.22-.537 0-1.008-.105-1.413-.315a2.416 2.416 0 0 1-.938-.842 2.227 2.227 0 0 1-.329-1.194c0-.424.083-.798.249-1.12.166-.328.405-.599.717-.813a3.42 3.42 0 0 1 1.128-.498c.44-.113.93-.169 1.472-.169h1.575Zm4.168-3.12 1.735 2.886 1.758-2.886h1.59l-2.593 3.911 2.673 4.014h-1.567l-1.831-2.974-1.831 2.974h-1.575l2.666-4.014-2.585-3.91h1.56Zm9.756 0v7.925h-1.363v-7.925h1.363Zm2.658 0v1.099h-6.628v-1.099h6.628Zm4.036 8.071a3.902 3.902 0 0 1-1.502-.278 3.414 3.414 0 0 1-1.15-.798 3.558 3.558 0 0 1-.732-1.216 4.457 4.457 0 0 1-.256-1.538v-.308c0-.644.095-1.218.285-1.721a3.87 3.87 0 0 1 .777-1.29 3.325 3.325 0 0 1 1.113-.797 3.193 3.193 0 0 1 1.289-.271c.566 0 1.055.097 1.465.293.415.195.754.468 1.018.82.264.347.459.757.586 1.23.127.47.19.982.19 1.538v.608h-5.918v-1.106h4.563v-.102a3.36 3.36 0 0 0-.219-1.026 1.848 1.848 0 0 0-.586-.82c-.269-.215-.635-.322-1.099-.322a1.846 1.846 0 0 0-1.516.769c-.186.254-.33.564-.432.93a4.696 4.696 0 0 0-.154 1.267v.308c0 .376.051.73.154 1.062.107.327.261.615.461.864.205.25.452.444.74.586.293.142.625.212.996.212.479 0 .884-.097 1.216-.293.332-.195.622-.456.871-.783l.821.652a3.785 3.785 0 0 1-.652.74 3.11 3.11 0 0 1-.974.57c-.381.147-.833.22-1.355.22Zm6.02-6.548v9.449h-1.362V43.705h1.245l.117 1.523Zm5.34 2.374v.153c0 .576-.069 1.111-.205 1.604a3.943 3.943 0 0 1-.601 1.275 2.74 2.74 0 0 1-.959.842c-.381.2-.818.3-1.311.3-.503 0-.948-.083-1.333-.249a2.632 2.632 0 0 1-.982-.725 3.71 3.71 0 0 1-.644-1.142 6.595 6.595 0 0 1-.323-1.502v-.82a6.92 6.92 0 0 1 .33-1.575c.161-.464.373-.86.637-1.186.269-.332.593-.584.974-.755.381-.175.821-.263 1.319-.263s.94.097 1.325.293c.386.19.711.463.974.82.264.356.462.784.594 1.282a6.19 6.19 0 0 1 .205 1.648Zm-1.363.153v-.153c0-.396-.041-.767-.124-1.114a2.83 2.83 0 0 0-.388-.923 1.855 1.855 0 0 0-.659-.63c-.269-.156-.589-.234-.96-.234-.342 0-.64.059-.893.176-.25.117-.462.276-.638.476-.175.195-.32.42-.432.674a3.918 3.918 0 0 0-.242.776V48.7c.098.342.235.664.411.967.175.298.41.54.703.725.293.18.661.271 1.106.271.366 0 .681-.076.945-.227a1.92 1.92 0 0 0 .659-.637c.175-.269.305-.576.388-.923.083-.352.124-.725.124-1.12Zm6.263 2.908c.322 0 .62-.066.893-.198.274-.132.498-.312.674-.542a1.5 1.5 0 0 0 .3-.798h1.289a2.413 2.413 0 0 1-.476 1.311 3.25 3.25 0 0 1-1.135.974 3.296 3.296 0 0 1-1.545.366c-.596 0-1.116-.105-1.56-.315a3.088 3.088 0 0 1-1.099-.864 3.874 3.874 0 0 1-.652-1.26 5.302 5.302 0 0 1-.212-1.516v-.307c0-.533.07-1.036.212-1.51.147-.478.364-.9.652-1.266a3.09 3.09 0 0 1 1.099-.864c.444-.21.964-.315 1.56-.315.62 0 1.162.127 1.626.38.463.25.827.591 1.091 1.026.268.43.415.918.439 1.465h-1.289a1.948 1.948 0 0 0-.278-.886 1.73 1.73 0 0 0-.645-.63 1.797 1.797 0 0 0-.944-.242c-.415 0-.765.083-1.048.249-.278.161-.5.38-.666.66a3.075 3.075 0 0 0-.352.915 5.061 5.061 0 0 0-.102 1.018v.307c0 .347.034.689.102 1.026.069.337.183.642.344.915.166.274.389.493.667.66.283.16.635.241 1.055.241Zm6.152-6.958v7.925h-1.355v-7.925h1.355Zm5.2 0-3.757 4.541h-1.897l-.205-1.186h1.553l2.658-3.355h1.648Zm-1.457 7.925-2.915-3.589.871-.981 3.765 4.57h-1.721ZM143.074 167.513v10.664h-1.413v-10.664h1.413Zm2.447 4.885v1.113h-2.535v-1.113h2.535Zm7.653.11v.674c0 .801-.1 1.518-.3 2.153-.2.635-.488 1.175-.864 1.619a3.751 3.751 0 0 1-1.355 1.018c-.523.234-1.109.351-1.758.351-.63 0-1.209-.117-1.736-.351a3.908 3.908 0 0 1-1.362-1.018c-.381-.444-.676-.984-.886-1.619-.21-.635-.315-1.352-.315-2.153v-.674c0-.801.102-1.516.307-2.146.21-.635.506-1.174.887-1.619.38-.449.832-.791 1.354-1.025a4.235 4.235 0 0 1 1.736-.352c.65 0 1.236.118 1.758.352.527.234.979.576 1.355 1.025.381.445.672.984.872 1.619.205.63.307 1.345.307 2.146Zm-1.399.674v-.689c0-.634-.066-1.196-.197-1.684-.127-.488-.315-.899-.564-1.231a2.437 2.437 0 0 0-.916-.754 2.776 2.776 0 0 0-1.216-.256c-.439 0-.837.085-1.194.256a2.533 2.533 0 0 0-.908.754c-.249.332-.442.743-.578 1.231-.137.488-.205 1.05-.205 1.684v.689c0 .64.068 1.206.205 1.699.136.488.332.901.586 1.238.258.332.564.583.915.754.357.171.755.257 1.194.257.459 0 .867-.086 1.223-.257.357-.171.657-.422.901-.754.249-.337.437-.75.564-1.238.127-.493.19-1.059.19-1.699Zm5.398 1.545-3.003-4.475h1.634l2.05 3.281h1.583l-.198 1.194h-2.066Zm.74-.139-2.3 3.589h-1.714l3.157-4.57.857.981Zm2.219-4.336v7.925h-1.355v-7.925h1.355Zm4.622 0-3.003 4.475h-2.065l-.213-1.194h1.589l2.051-3.281h1.641Zm-1.45 7.925-2.307-3.589.871-.981 3.15 4.57h-1.714Zm8.342-4.49v1.099h-4.189v-1.099h4.189Zm-3.904-3.435v7.925h-1.355v-7.925h1.355Zm5.003 0v7.925h-1.363v-7.925h1.363Zm1.823 4.05v-.168c0-.571.083-1.101.249-1.589.166-.493.406-.921.718-1.282a3.222 3.222 0 0 1 1.135-.85 3.53 3.53 0 0 1 1.495-.307c.556 0 1.057.102 1.501.307.449.201.83.484 1.143.85.317.361.559.789.725 1.282.166.488.249 1.018.249 1.589v.168c0 .572-.083 1.102-.249 1.59a3.82 3.82 0 0 1-.725 1.282 3.325 3.325 0 0 1-1.136.849c-.439.2-.937.3-1.494.3-.556 0-1.057-.1-1.501-.3a3.4 3.4 0 0 1-1.143-.849 3.893 3.893 0 0 1-.718-1.282 4.908 4.908 0 0 1-.249-1.59Zm1.355-.168v.168c0 .396.047.77.139 1.121.093.347.232.654.418.923.19.269.427.481.71.637.284.152.613.227.989.227a2 2 0 0 0 .974-.227c.284-.156.518-.368.703-.637.186-.269.325-.576.418-.923.098-.351.146-.725.146-1.121v-.168c0-.391-.048-.759-.146-1.106a2.84 2.84 0 0 0-.425-.93 2.019 2.019 0 0 0-.703-.645 1.972 1.972 0 0 0-.981-.234 2 2 0 0 0-.982.234 2.11 2.11 0 0 0-.703.645 2.936 2.936 0 0 0-.418.93 4.296 4.296 0 0 0-.139 1.106Zm10.379-1.047v1.113h-3.574v-1.113h3.574Zm7.969 1.699h1.406a4.472 4.472 0 0 1-.579 1.809 3.373 3.373 0 0 1-1.326 1.267c-.571.308-1.284.461-2.138.461a4.065 4.065 0 0 1-1.707-.351 3.78 3.78 0 0 1-1.311-.996 4.67 4.67 0 0 1-.849-1.56c-.196-.611-.293-1.289-.293-2.036v-1.062c0-.747.097-1.424.293-2.029.2-.611.485-1.133.857-1.568a3.819 3.819 0 0 1 1.355-1.003c.527-.234 1.12-.352 1.779-.352.806 0 1.487.152 2.044.455.556.302.989.722 1.296 1.259.313.533.506 1.15.579 1.853h-1.406c-.069-.498-.196-.925-.381-1.281a1.982 1.982 0 0 0-.791-.835c-.342-.196-.789-.293-1.341-.293-.473 0-.891.09-1.252.271a2.51 2.51 0 0 0-.901.769c-.239.332-.42.73-.542 1.194a6.068 6.068 0 0 0-.183 1.545v1.077c0 .522.054 1.013.161 1.472.112.459.281.862.505 1.208.225.347.511.62.857.821.347.195.757.293 1.231.293.6 0 1.079-.096 1.435-.286.357-.19.625-.464.806-.82.186-.357.317-.784.396-1.282Zm7.8 2.036v-4.08c0-.312-.064-.583-.191-.813a1.247 1.247 0 0 0-.556-.542c-.249-.127-.557-.19-.923-.19-.342 0-.642.059-.901.176a1.575 1.575 0 0 0-.601.461 1.017 1.017 0 0 0-.212.615h-1.355c0-.283.073-.564.22-.842.146-.278.356-.53.63-.754.278-.23.61-.41.996-.542.39-.137.825-.205 1.303-.205.577 0 1.084.097 1.524.293.444.195.791.49 1.04.886.254.391.381.881.381 1.472v3.691c0 .264.022.545.066.843.049.298.119.554.212.769v.117h-1.413a2.495 2.495 0 0 1-.162-.623 5.008 5.008 0 0 1-.058-.732Zm.234-3.45.015.952h-1.37c-.386 0-.73.032-1.033.096a2.35 2.35 0 0 0-.761.271 1.289 1.289 0 0 0-.469.461 1.228 1.228 0 0 0-.161.637c0 .249.056.476.168.681.113.206.281.369.506.491.229.117.51.176.842.176a2.282 2.282 0 0 0 1.853-.908c.19-.254.293-.501.308-.74l.578.652a1.97 1.97 0 0 1-.278.681 3.309 3.309 0 0 1-1.502 1.282 2.915 2.915 0 0 1-1.157.219c-.537 0-1.008-.104-1.413-.314a2.415 2.415 0 0 1-.938-.843 2.225 2.225 0 0 1-.329-1.194c0-.424.083-.798.249-1.12.166-.327.405-.598.717-.813.313-.22.689-.386 1.128-.498.44-.113.93-.169 1.472-.169h1.575Zm4.168-3.12 1.735 2.886 1.758-2.886h1.59l-2.593 3.911 2.673 4.014h-1.567l-1.831-2.974-1.831 2.974h-1.575l2.666-4.014-2.585-3.911h1.56Zm11.198 6.57v-4.08c0-.312-.063-.583-.19-.813a1.249 1.249 0 0 0-.557-.542c-.249-.127-.556-.19-.923-.19-.341 0-.642.059-.9.176a1.567 1.567 0 0 0-.601.461 1.01 1.01 0 0 0-.212.615h-1.355c0-.283.073-.564.219-.842.147-.278.357-.53.63-.754.279-.23.611-.41.996-.542a3.925 3.925 0 0 1 1.304-.205c.576 0 1.084.097 1.523.293.445.195.791.49 1.041.886.253.391.38.881.38 1.472v3.691c0 .264.022.545.066.843.049.298.12.554.213.769v.117h-1.414a2.544 2.544 0 0 1-.161-.623 5.016 5.016 0 0 1-.059-.732Zm.235-3.45.014.952h-1.369c-.386 0-.73.032-1.033.096a2.348 2.348 0 0 0-.762.271 1.219 1.219 0 0 0-.63 1.098c0 .249.057.476.169.681.112.206.281.369.505.491.23.117.511.176.843.176.415 0 .781-.088 1.098-.264.318-.175.569-.39.755-.644.19-.254.293-.501.307-.74l.579.652a1.97 1.97 0 0 1-.278.681 3.286 3.286 0 0 1-1.502 1.282 2.918 2.918 0 0 1-1.157.219c-.537 0-1.008-.104-1.414-.314-.4-.21-.713-.491-.937-.843a2.226 2.226 0 0 1-.33-1.194c0-.424.083-.798.249-1.12.166-.327.405-.598.718-.813a3.39 3.39 0 0 1 1.128-.498c.439-.113.93-.169 1.472-.169h1.575Zm8.547-3.12v1.121h-3.83v-1.121h3.83Zm1.194 0v7.925h-1.355v-7.925h1.355Zm-5.354 0h1.362l-.205 3.823c-.034.591-.09 1.114-.168 1.568a5.378 5.378 0 0 1-.308 1.157 2.422 2.422 0 0 1-.483.791c-.191.2-.42.349-.689.447a2.834 2.834 0 0 1-.93.139h-.425v-1.194l.293-.022c.21-.014.388-.063.535-.146a1.05 1.05 0 0 0 .381-.367 2.25 2.25 0 0 0 .249-.637c.068-.259.119-.566.154-.923.039-.356.068-.771.087-1.245l.147-3.391Zm9.001 5.779 3.655-5.779h1.363v7.925h-1.363v-5.779l-3.655 5.779h-1.347v-7.925h1.347v5.779Zm12.569-2.344v1.099h-4.19v-1.099h4.19Zm-3.904-3.435v7.925h-1.355v-7.925h1.355Zm5.002 0v7.925h-1.362v-7.925h1.362Zm5.354 6.958c.323 0 .621-.066.894-.198.273-.131.498-.312.674-.542a1.5 1.5 0 0 0 .3-.798h1.289a2.411 2.411 0 0 1-.476 1.311 3.24 3.24 0 0 1-1.135.974 3.298 3.298 0 0 1-1.546.366c-.595 0-1.115-.104-1.56-.314a3.099 3.099 0 0 1-1.098-.865 3.854 3.854 0 0 1-.652-1.259 5.307 5.307 0 0 1-.213-1.517v-.307c0-.532.071-1.035.213-1.509.146-.479.364-.901.652-1.267a3.096 3.096 0 0 1 1.098-.864c.445-.21.965-.315 1.56-.315.621 0 1.163.127 1.626.381.464.249.828.59 1.092 1.025.268.43.415.918.439 1.465h-1.289a1.945 1.945 0 0 0-.278-.886 1.727 1.727 0 0 0-.645-.63 1.8 1.8 0 0 0-.945-.242c-.415 0-.764.083-1.047.249-.278.161-.5.381-.666.659a3.056 3.056 0 0 0-.352.916 5.058 5.058 0 0 0-.103 1.018v.307c0 .347.035.689.103 1.026.068.337.183.642.344.915.166.274.388.493.667.66.283.161.635.241 1.054.241Zm6.153-6.958v7.925h-1.355v-7.925h1.355Zm5.2 0-3.757 4.541h-1.897l-.205-1.186h1.552l2.659-3.355h1.648Zm-1.458 7.925-2.915-3.589.872-.981 3.765 4.57h-1.722Zm-77.738-56.482 2.563 4.086 2.564-4.086h1.648l-3.37 5.28 3.45 5.384h-1.662l-2.63-4.168-2.629 4.168h-1.663l3.45-5.384-3.369-5.28h1.648Zm7.763 6.789v-.168c0-.572.083-1.101.249-1.59a3.78 3.78 0 0 1 .718-1.281c.313-.367.691-.65 1.135-.85a3.53 3.53 0 0 1 1.495-.308c.556 0 1.057.103 1.501.308.449.2.83.483 1.143.85.317.361.559.788.725 1.281.166.489.249 1.018.249 1.59v.168c0 .571-.083 1.101-.249 1.589a3.801 3.801 0 0 1-.725 1.282 3.315 3.315 0 0 1-1.136.85c-.439.2-.937.3-1.494.3-.556 0-1.057-.1-1.501-.3a3.39 3.39 0 0 1-1.143-.85 3.872 3.872 0 0 1-.718-1.282 4.906 4.906 0 0 1-.249-1.589Zm1.355-.168v.168c0 .396.047.769.139 1.121.093.346.232.654.418.923.19.268.427.481.71.637.284.151.613.227.989.227.371 0 .696-.076.974-.227.284-.156.518-.369.703-.637.186-.269.325-.577.418-.923.098-.352.146-.725.146-1.121v-.168c0-.391-.048-.76-.146-1.106a2.83 2.83 0 0 0-.425-.93 2.01 2.01 0 0 0-.703-.645 1.972 1.972 0 0 0-.981-.234 2 2 0 0 0-.982.234 2.1 2.1 0 0 0-.703.645 2.926 2.926 0 0 0-.418.93 4.29 4.29 0 0 0-.139 1.106Zm12.737-3.882v1.12h-3.83v-1.12h3.83Zm1.194 0v7.925h-1.355v-7.925h1.355Zm-5.354 0h1.362l-.205 3.823c-.034.591-.09 1.113-.168 1.567a5.33 5.33 0 0 1-.308 1.158 2.422 2.422 0 0 1-.483.791c-.191.2-.42.349-.689.446-.268.093-.578.14-.93.14h-.425v-1.194l.293-.022c.21-.015.388-.064.535-.147.151-.083.278-.205.381-.366a2.25 2.25 0 0 0 .249-.637c.068-.259.119-.566.154-.923.039-.356.068-.771.088-1.245l.146-3.391Zm12.092 6.123 2.696-6.123h1.303l-3.53 7.925h-.937l-3.516-7.925h1.304l2.68 6.123Zm-3.076-6.123v7.925h-1.355v-7.925h1.355Zm6.109 7.925v-7.925h1.362v7.925h-1.362Zm6.716-.967c.322 0 .62-.066.893-.198.274-.132.498-.312.674-.542a1.5 1.5 0 0 0 .3-.798h1.29a2.42 2.42 0 0 1-.477 1.311 3.25 3.25 0 0 1-1.135.974 3.297 3.297 0 0 1-1.545.366c-.596 0-1.116-.105-1.56-.315a3.091 3.091 0 0 1-1.099-.864 3.869 3.869 0 0 1-.652-1.26 5.335 5.335 0 0 1-.212-1.516v-.308c0-.532.071-1.035.212-1.508.147-.479.364-.901.652-1.267a3.083 3.083 0 0 1 1.099-.865c.444-.21.964-.315 1.56-.315.62 0 1.162.127 1.626.381.464.249.827.591 1.091 1.026.269.429.415.918.44 1.464h-1.29a1.95 1.95 0 0 0-.278-.886 1.805 1.805 0 0 0-1.589-.871c-.415 0-.764.083-1.048.249-.278.161-.5.381-.666.659a3.093 3.093 0 0 0-.352.915 5.065 5.065 0 0 0-.102 1.018v.308c0 .347.034.689.102 1.025.069.337.183.643.345.916.166.273.388.493.666.659.283.161.635.242 1.055.242Zm6.152-6.958v7.925h-1.355v-7.925h1.355Zm5.2 0-3.757 4.541h-1.897l-.205-1.187h1.553l2.658-3.354h1.648Zm-1.457 7.925-2.915-3.589.871-.982 3.765 4.571h-1.721ZM68.588 81.095l2.696-6.123h1.303l-3.53 7.925h-.937l-3.516-7.925h1.304l2.68 6.123Zm-3.076-6.123v7.925h-1.355v-7.925h1.355Zm6.109 7.925v-7.925h1.362v7.925H71.62Zm4.658-5.2h2.38c.64 0 1.18.112 1.619.336.44.22.771.525.996.916.23.386.344.825.344 1.318 0 .367-.063.71-.19 1.033a2.317 2.317 0 0 1-.572.835c-.249.24-.559.427-.93.564a3.733 3.733 0 0 1-1.267.198H75.29v-7.925h1.355v6.811h2.014c.39 0 .703-.07.938-.212a1.24 1.24 0 0 0 .505-.55 1.675 1.675 0 0 0 0-1.406 1.316 1.316 0 0 0-.505-.57c-.235-.157-.547-.235-.938-.235h-2.38v-1.114Zm8.159-2.725v7.925h-1.355v-7.925h1.355Zm5.544 6.958c.323 0 .62-.066.894-.198.273-.132.498-.312.674-.542a1.5 1.5 0 0 0 .3-.798h1.29a2.417 2.417 0 0 1-.477 1.31 3.25 3.25 0 0 1-1.135.975 3.295 3.295 0 0 1-1.546.366c-.595 0-1.115-.105-1.56-.315a3.093 3.093 0 0 1-1.098-.864 3.86 3.86 0 0 1-.652-1.26 5.316 5.316 0 0 1-.212-1.516v-.307c0-.533.07-1.036.212-1.51.146-.478.364-.9.652-1.266a3.088 3.088 0 0 1 1.098-.865c.445-.21.965-.315 1.56-.315.62 0 1.162.127 1.626.381.464.25.828.591 1.092 1.026.268.43.415.918.44 1.465h-1.29a1.952 1.952 0 0 0-.278-.887 1.736 1.736 0 0 0-.645-.63 1.801 1.801 0 0 0-.945-.241c-.415 0-.764.083-1.047.249-.278.16-.5.38-.666.659a3.075 3.075 0 0 0-.352.916 5.032 5.032 0 0 0-.103 1.017v.308c0 .347.035.689.103 1.026.068.336.183.642.344.915.166.273.388.493.667.66.283.16.635.24 1.054.24Zm15.044-2.424h1.407a4.49 4.49 0 0 1-.579 1.809 3.376 3.376 0 0 1-1.326 1.267c-.571.307-1.284.461-2.138.461a4.061 4.061 0 0 1-1.707-.351 3.791 3.791 0 0 1-1.31-.996 4.662 4.662 0 0 1-.85-1.56 6.656 6.656 0 0 1-.293-2.037v-1.062c0-.747.097-1.423.292-2.029.2-.61.486-1.132.857-1.567a3.827 3.827 0 0 1 1.355-1.003c.528-.235 1.121-.352 1.78-.352.806 0 1.487.151 2.044.454a3.26 3.26 0 0 1 1.296 1.26c.313.532.505 1.15.579 1.853h-1.407a3.93 3.93 0 0 0-.38-1.282 1.984 1.984 0 0 0-.792-.835c-.341-.195-.788-.293-1.34-.293-.473 0-.891.09-1.252.271a2.513 2.513 0 0 0-.901.77c-.239.331-.42.73-.542 1.193a6.074 6.074 0 0 0-.183 1.546v1.076c0 .523.053 1.013.16 1.472.113.46.282.862.506 1.209.225.347.51.62.857.82.347.196.757.293 1.231.293.6 0 1.079-.095 1.435-.285.357-.19.625-.464.806-.82.185-.357.317-.784.395-1.282Zm8.423-4.534v1.12h-3.83v-1.12h3.83Zm1.194 0v7.925h-1.355v-7.925h1.355Zm-5.354 0h1.362l-.205 3.823c-.034.591-.09 1.113-.168 1.567-.073.45-.176.836-.308 1.158a2.42 2.42 0 0 1-.483.79c-.191.201-.42.35-.689.448a2.861 2.861 0 0 1-.93.139h-.425v-1.194l.293-.022c.21-.015.389-.064.535-.147.151-.083.278-.205.381-.366a2.25 2.25 0 0 0 .249-.637 5.86 5.86 0 0 0 .154-.923 19 19 0 0 0 .088-1.245l.146-3.391Zm10.825 8.071a3.895 3.895 0 0 1-1.501-.278 3.396 3.396 0 0 1-1.15-.798 3.56 3.56 0 0 1-.733-1.216 4.48 4.48 0 0 1-.256-1.538v-.308c0-.645.095-1.218.286-1.721.19-.508.449-.938.776-1.29a3.324 3.324 0 0 1 1.113-.798 3.2 3.2 0 0 1 1.289-.27c.567 0 1.055.097 1.465.292.415.196.755.47 1.018.82.264.347.459.758.586 1.231.127.469.191.982.191 1.538v.608h-5.918V78.21h4.563v-.102a3.392 3.392 0 0 0-.22-1.026 1.84 1.84 0 0 0-.586-.82c-.268-.215-.635-.322-1.099-.322a1.844 1.844 0 0 0-1.516.769 2.897 2.897 0 0 0-.432.93 4.737 4.737 0 0 0-.154 1.267v.308c0 .376.052.73.154 1.062.108.327.261.615.462.864.205.249.451.444.739.586.293.142.625.212.997.212.478 0 .883-.097 1.215-.293.332-.195.623-.456.872-.783l.82.651a3.788 3.788 0 0 1-.652.74 3.1 3.1 0 0 1-.974.572c-.381.146-.832.22-1.355.22Zm9.947-8.071v1.12h-4.007v-1.12h4.007Zm-3.809 0v7.925h-1.355v-7.925h1.355Zm5.01 0v7.925h-1.363v-7.925h1.363Zm3.64 5.779 3.655-5.78h1.362v7.926h-1.362v-5.78l-3.655 5.78h-1.348v-7.925h1.348v5.779Zm8.664-5.78v7.926h-1.355v-7.925h1.355Zm5.201 0-3.758 4.542h-1.897l-.205-1.187h1.553l2.659-3.354h1.648Zm-1.458 7.926-2.915-3.59.872-.98 3.764 4.57h-1.721Zm2.38-3.875v-.168c0-.572.083-1.101.249-1.59a3.78 3.78 0 0 1 .718-1.281c.313-.367.691-.65 1.136-.85a3.521 3.521 0 0 1 1.494-.308 3.54 3.54 0 0 1 1.501.308c.449.2.83.484 1.143.85.317.361.559.788.725 1.281.166.489.249 1.019.249 1.59v.168c0 .572-.083 1.101-.249 1.59a3.808 3.808 0 0 1-.725 1.281 3.324 3.324 0 0 1-1.136.85c-.439.2-.937.3-1.494.3-.556 0-1.057-.1-1.501-.3a3.4 3.4 0 0 1-1.143-.85 3.88 3.88 0 0 1-.718-1.281 4.908 4.908 0 0 1-.249-1.59Zm1.355-.168v.168c0 .396.047.77.14 1.12.092.348.232.655.417.924.191.268.427.48.711.637.283.151.612.227.988.227.371 0 .696-.076.974-.227.284-.156.518-.369.704-.637.185-.269.324-.576.417-.923.098-.352.147-.725.147-1.12v-.17c0-.39-.049-.758-.147-1.105a2.841 2.841 0 0 0-.425-.93 2.015 2.015 0 0 0-.703-.645 1.97 1.97 0 0 0-.981-.234 2 2 0 0 0-.982.234 2.115 2.115 0 0 0-.703.645 2.935 2.935 0 0 0-.417.93c-.093.346-.14.715-.14 1.106Zm12.935-.447v1.099h-4.189v-1.099h4.189Zm-3.904-3.435v7.925h-1.355v-7.925h1.355Zm5.003 0v7.925h-1.363v-7.925h1.363Zm5.354 6.958c.322 0 .62-.066.893-.198a1.84 1.84 0 0 0 .674-.542 1.5 1.5 0 0 0 .3-.798h1.289a2.413 2.413 0 0 1-.476 1.31 3.242 3.242 0 0 1-1.135.975 3.296 3.296 0 0 1-1.545.366c-.596 0-1.116-.105-1.56-.315a3.09 3.09 0 0 1-1.099-.864 3.873 3.873 0 0 1-.652-1.26 5.302 5.302 0 0 1-.212-1.516v-.307c0-.533.07-1.036.212-1.51.147-.478.364-.9.652-1.266a3.088 3.088 0 0 1 1.099-.865c.444-.21.964-.315 1.56-.315.62 0 1.162.127 1.626.381.463.25.827.591 1.091 1.026.268.43.415.918.439 1.465h-1.289a1.948 1.948 0 0 0-.278-.887 1.73 1.73 0 0 0-.645-.63 1.798 1.798 0 0 0-.944-.241c-.415 0-.765.083-1.048.249-.278.16-.5.38-.666.659a3.075 3.075 0 0 0-.352.916 5.06 5.06 0 0 0-.102 1.017v.308c0 .347.034.689.102 1.026.069.336.183.642.344.915.166.273.389.493.667.66.283.16.635.24 1.055.24Zm6.152-6.958v7.925h-1.355v-7.925h1.355Zm5.2 0-3.757 4.54h-1.897l-.205-1.186h1.553l2.658-3.354h1.648Zm-1.457 7.925-2.915-3.59.871-.98 3.765 4.57h-1.721Zm2.38-3.875v-.168c0-.572.083-1.101.249-1.59.166-.493.405-.92.718-1.281a3.2 3.2 0 0 1 1.135-.85 3.521 3.521 0 0 1 1.494-.308c.557 0 1.057.103 1.502.308.449.2.83.484 1.142.85a3.7 3.7 0 0 1 .725 1.281c.166.489.249 1.019.249 1.59v.168c0 .572-.083 1.101-.249 1.59a3.792 3.792 0 0 1-.725 1.281 3.32 3.32 0 0 1-1.135.85c-.439.2-.937.3-1.494.3a3.62 3.62 0 0 1-1.502-.3 3.395 3.395 0 0 1-1.142-.85 3.862 3.862 0 0 1-.718-1.281 4.908 4.908 0 0 1-.249-1.59Zm1.355-.168v.168c0 .396.046.77.139 1.12.093.348.232.655.418.924.19.268.427.48.71.637.283.151.613.227.989.227.371 0 .696-.076.974-.227.283-.156.518-.369.703-.637.186-.269.325-.576.418-.923.097-.352.146-.725.146-1.12v-.17c0-.39-.049-.758-.146-1.105a2.862 2.862 0 0 0-.425-.93 2.024 2.024 0 0 0-.703-.645 1.976 1.976 0 0 0-.982-.234c-.371 0-.698.078-.981.234a2.096 2.096 0 0 0-.703.645 2.937 2.937 0 0 0-.418.93 4.253 4.253 0 0 0-.139 1.106Zm12.678-3.882v1.12h-3.662v6.805h-1.355v-7.925h5.017Zm.674 4.05v-.168c0-.572.083-1.101.249-1.59.166-.493.405-.92.718-1.281a3.2 3.2 0 0 1 1.135-.85 3.521 3.521 0 0 1 1.494-.308c.557 0 1.057.103 1.502.308.449.2.83.484 1.142.85a3.7 3.7 0 0 1 .725 1.281c.166.489.249 1.019.249 1.59v.168c0 .572-.083 1.101-.249 1.59a3.792 3.792 0 0 1-.725 1.281 3.32 3.32 0 0 1-1.135.85c-.439.2-.937.3-1.494.3a3.62 3.62 0 0 1-1.502-.3 3.395 3.395 0 0 1-1.142-.85 3.862 3.862 0 0 1-.718-1.281 4.908 4.908 0 0 1-.249-1.59Zm1.355-.168v.168c0 .396.046.77.139 1.12.093.348.232.655.418.924.19.268.427.48.71.637.283.151.613.227.989.227.371 0 .696-.076.974-.227.283-.156.518-.369.703-.637.186-.269.325-.576.418-.923.097-.352.146-.725.146-1.12v-.17c0-.39-.049-.758-.146-1.105a2.862 2.862 0 0 0-.425-.93 2.024 2.024 0 0 0-.703-.645 1.976 1.976 0 0 0-.982-.234c-.371 0-.698.078-.981.234a2.096 2.096 0 0 0-.703.645 2.937 2.937 0 0 0-.418.93 4.253 4.253 0 0 0-.139 1.106Zm13.409-21.621v10.664h-1.391V57.233h1.391Zm3.428 0v1.157h-8.24v-1.157h8.24Zm.286 6.79v-.17c0-.57.083-1.1.249-1.589.166-.493.405-.92.717-1.281.313-.366.691-.65 1.136-.85a3.521 3.521 0 0 1 1.494-.308 3.54 3.54 0 0 1 1.501.308c.449.2.83.483 1.143.85.317.361.559.788.725 1.281.166.489.249 1.018.249 1.59v.168c0 .572-.083 1.101-.249 1.59a3.808 3.808 0 0 1-.725 1.281 3.33 3.33 0 0 1-1.135.85c-.44.2-.938.3-1.495.3-.556 0-1.057-.1-1.501-.3a3.41 3.41 0 0 1-1.143-.85 3.878 3.878 0 0 1-.717-1.281 4.908 4.908 0 0 1-.249-1.59Zm1.355-.17v.17c0 .395.046.768.139 1.12.093.347.232.654.417.923.191.268.427.48.711.637.283.151.612.227.988.227.372 0 .696-.076.975-.227.283-.156.517-.369.703-.637.185-.269.324-.576.417-.923.098-.352.147-.725.147-1.12v-.17c0-.39-.049-.759-.147-1.105a2.841 2.841 0 0 0-.425-.93 2.015 2.015 0 0 0-.703-.645 1.97 1.97 0 0 0-.981-.234c-.371 0-.698.078-.982.234a2.115 2.115 0 0 0-.703.645 2.958 2.958 0 0 0-.417.93 4.253 4.253 0 0 0-.139 1.106Zm12.114 2.242 2.695-6.123h1.304l-3.53 7.925h-.938l-3.516-7.925h1.304l2.681 6.123Zm-3.076-6.123v7.925h-1.355v-7.925h1.355Zm6.108 7.925v-7.925h1.362v7.925h-1.362Zm8.218-1.355v-4.08c0-.312-.064-.583-.191-.813a1.244 1.244 0 0 0-.556-.542c-.249-.127-.557-.19-.923-.19-.342 0-.642.058-.901.175a1.573 1.573 0 0 0-.601.462c-.141.19-.212.395-.212.615h-1.355c0-.283.073-.564.22-.842a2.45 2.45 0 0 1 .63-.755c.278-.229.61-.41.996-.541.39-.137.825-.206 1.303-.206.577 0 1.084.098 1.524.293.444.196.791.491 1.04.887.254.39.381.881.381 1.472v3.691c0 .264.022.545.066.842.049.298.119.555.212.77v.117h-1.413a2.495 2.495 0 0 1-.162-.623 5.025 5.025 0 0 1-.058-.732Zm.234-3.45.015.952h-1.37c-.386 0-.73.032-1.032.095a2.36 2.36 0 0 0-.762.271 1.287 1.287 0 0 0-.469.462c-.107.18-.161.393-.161.637 0 .25.056.476.168.681.113.205.281.369.506.49.229.118.51.177.842.177a2.275 2.275 0 0 0 1.853-.909c.19-.253.293-.5.308-.74l.578.653a1.97 1.97 0 0 1-.278.68 3.29 3.29 0 0 1-1.501 1.282c-.342.147-.728.22-1.158.22-.537 0-1.008-.105-1.413-.315a2.418 2.418 0 0 1-.938-.842 2.227 2.227 0 0 1-.329-1.194c0-.425.083-.798.249-1.12.166-.328.405-.599.717-.814a3.42 3.42 0 0 1 1.128-.498 5.96 5.96 0 0 1 1.473-.168h1.574Zm4.607-1.597v9.449h-1.362V59.972h1.245l.117 1.523Zm5.34 2.373v.154c0 .576-.069 1.111-.206 1.604a3.92 3.92 0 0 1-.6 1.275 2.734 2.734 0 0 1-.96.842c-.38.2-.818.3-1.311.3-.503 0-.947-.083-1.333-.249a2.629 2.629 0 0 1-.981-.725 3.694 3.694 0 0 1-.645-1.142 6.648 6.648 0 0 1-.322-1.502v-.82a6.92 6.92 0 0 1 .33-1.575c.161-.464.373-.86.637-1.187a2.61 2.61 0 0 1 .974-.754c.381-.176.82-.264 1.318-.264.498 0 .94.098 1.326.293.386.19.71.464.974.82.264.357.462.784.593 1.282a6.15 6.15 0 0 1 .206 1.648Zm-1.363.154v-.154c0-.395-.041-.766-.124-1.113a2.829 2.829 0 0 0-.388-.923 1.849 1.849 0 0 0-.66-.63c-.268-.156-.588-.234-.959-.234-.342 0-.64.059-.894.176a1.934 1.934 0 0 0-.637.476c-.176.195-.32.42-.432.674a3.917 3.917 0 0 0-.242.776v1.897c.098.342.235.664.41.967.176.298.411.54.704.725.293.18.661.27 1.105.27.367 0 .682-.075.945-.226.269-.156.489-.369.66-.637.175-.269.305-.576.388-.923.083-.352.124-.725.124-1.12Zm4.556 1.729 3.655-5.78h1.362v7.926h-1.362v-5.78l-3.655 5.78h-1.348v-7.925h1.348v5.779ZM285.71 99.45l5.251-8.217h1.414v10.664h-1.414v-8.225l-5.251 8.225h-1.406V91.233h1.406v8.217Zm14.458-5.478v1.12h-3.831v-1.12h3.831Zm1.194 0v7.925h-1.355v-7.925h1.355Zm-5.354 0h1.362l-.205 3.823c-.034.591-.09 1.113-.168 1.567-.074.45-.176.836-.308 1.158a2.422 2.422 0 0 1-.483.791c-.191.2-.42.349-.689.447a2.865 2.865 0 0 1-.93.139h-.425v-1.194l.293-.022c.21-.015.388-.064.535-.147.151-.083.278-.205.381-.366a2.25 2.25 0 0 0 .249-.637 5.87 5.87 0 0 0 .153-.923c.039-.356.069-.771.088-1.245l.147-3.391Zm8.65 2.725h2.38c.64 0 1.179.112 1.619.336.439.22.771.525.996.916.229.386.344.825.344 1.318 0 .367-.063.71-.19 1.033a2.322 2.322 0 0 1-.572.835 2.646 2.646 0 0 1-.93.564 3.725 3.725 0 0 1-1.267.198h-3.369v-7.925h1.355v6.811h2.014c.391 0 .703-.07.938-.212.234-.142.402-.325.505-.549a1.685 1.685 0 0 0 0-1.407 1.32 1.32 0 0 0-.505-.57c-.235-.157-.547-.235-.938-.235h-2.38v-1.114Zm8.496 3.054 3.655-5.78h1.362v7.926h-1.362v-5.78l-3.655 5.78h-1.348v-7.925h1.348v5.779Zm12.568-2.344v1.099h-4.189v-1.099h4.189Zm-3.904-3.435v7.925h-1.355v-7.925h1.355Zm5.003 0v7.925h-1.363v-7.925h1.363Zm5.354 6.958c.322 0 .62-.066.893-.198.274-.132.498-.312.674-.542a1.5 1.5 0 0 0 .3-.798h1.29a2.422 2.422 0 0 1-.477 1.311 3.25 3.25 0 0 1-1.135.974 3.297 3.297 0 0 1-1.545.366c-.596 0-1.116-.105-1.56-.315a3.091 3.091 0 0 1-1.099-.864 3.87 3.87 0 0 1-.652-1.26 5.337 5.337 0 0 1-.212-1.516v-.307c0-.533.071-1.036.212-1.51.147-.478.364-.9.652-1.266a3.088 3.088 0 0 1 1.099-.865c.444-.21.964-.315 1.56-.315.62 0 1.162.127 1.626.381.464.25.827.591 1.091 1.026.269.43.415.918.44 1.465h-1.29a1.948 1.948 0 0 0-.278-.887 1.735 1.735 0 0 0-.644-.63 1.804 1.804 0 0 0-.945-.241c-.415 0-.764.083-1.048.249-.278.16-.5.38-.666.659a3.102 3.102 0 0 0-.352.916 5.06 5.06 0 0 0-.102 1.017v.308c0 .347.034.689.102 1.026.069.336.183.642.345.915.166.273.388.493.666.659.283.161.635.242 1.055.242Zm6.152-6.958v7.925h-1.355v-7.925h1.355Zm5.2 0-3.757 4.54h-1.897l-.205-1.186h1.553l2.658-3.354h1.648Zm-1.457 7.925-2.915-3.59.871-.98 3.765 4.57h-1.721Zm2.38-3.875v-.168c0-.572.083-1.101.249-1.59.166-.493.405-.92.718-1.281a3.2 3.2 0 0 1 1.135-.85 3.528 3.528 0 0 1 1.494-.308c.557 0 1.058.103 1.502.308.449.2.83.484 1.142.85.318.361.56.788.726 1.281.166.489.249 1.019.249 1.59v.168c0 .572-.083 1.101-.249 1.59a3.79 3.79 0 0 1-.726 1.281c-.312.362-.69.645-1.135.85-.439.2-.937.3-1.494.3-.557 0-1.057-.1-1.501-.3a3.38 3.38 0 0 1-1.143-.85 3.858 3.858 0 0 1-.718-1.281 4.908 4.908 0 0 1-.249-1.59Zm1.355-.168v.168c0 .396.047.77.139 1.12.093.348.232.655.418.924.19.268.427.481.71.637.283.151.613.227.989.227.371 0 .696-.076.974-.227.283-.156.518-.369.703-.637.186-.269.325-.576.418-.923.097-.352.146-.725.146-1.12v-.17c0-.39-.049-.758-.146-1.105a2.862 2.862 0 0 0-.425-.93 2.024 2.024 0 0 0-.703-.645 1.973 1.973 0 0 0-.982-.234c-.371 0-.698.078-.981.234a2.106 2.106 0 0 0-.703.645 2.937 2.937 0 0 0-.418.93 4.296 4.296 0 0 0-.139 1.106Zm10.847 4.189a3.908 3.908 0 0 1-1.501-.278 3.424 3.424 0 0 1-1.15-.798 3.55 3.55 0 0 1-.732-1.216 4.456 4.456 0 0 1-.257-1.538v-.308c0-.645.095-1.218.286-1.721.19-.508.449-.938.776-1.29a3.318 3.318 0 0 1 1.114-.798c.415-.18.844-.27 1.289-.27.566 0 1.054.097 1.464.292.415.196.755.47 1.018.82.264.347.459.758.586 1.231.127.469.191.982.191 1.538v.608h-5.918V97.21h4.563v-.102a3.392 3.392 0 0 0-.22-1.026 1.84 1.84 0 0 0-.586-.82c-.268-.215-.635-.322-1.098-.322a1.845 1.845 0 0 0-1.517.769 2.897 2.897 0 0 0-.432.93 4.739 4.739 0 0 0-.153 1.267v.308c0 .376.051.73.153 1.062.108.327.262.615.462.864.205.249.451.444.739.586.293.141.625.212.997.212.478 0 .883-.097 1.215-.293.332-.195.623-.456.872-.783l.82.651a3.77 3.77 0 0 1-.652.74 3.078 3.078 0 0 1-.974.571c-.381.147-.832.22-1.355.22Zm-267.449-.225v1.15h-5.771v-1.15h5.771Zm-5.552-4.585v10.664h-1.413V97.233h1.413Zm6.783 0v10.664h-1.407V97.233h1.407Zm5.595 10.81a3.909 3.909 0 0 1-1.501-.278 3.423 3.423 0 0 1-1.15-.798 3.56 3.56 0 0 1-.733-1.216 4.462 4.462 0 0 1-.256-1.538v-.308c0-.645.095-1.218.286-1.721.19-.508.449-.938.776-1.289a3.325 3.325 0 0 1 1.114-.799c.415-.18.844-.27 1.288-.27.567 0 1.055.097 1.465.292a2.67 2.67 0 0 1 1.018.821c.264.346.46.757.586 1.23.127.469.19.982.19 1.538v.608h-5.917v-1.106h4.563v-.102a3.38 3.38 0 0 0-.22-1.026 1.844 1.844 0 0 0-.586-.82c-.268-.215-.635-.322-1.099-.322-.307 0-.59.066-.85.197a1.81 1.81 0 0 0-.666.572c-.185.254-.33.564-.432.93a4.713 4.713 0 0 0-.154 1.267v.308c0 .376.052.73.154 1.062.108.327.261.615.462.864.205.249.451.444.74.586.292.141.624.212.996.212.478 0 .883-.097 1.215-.293.332-.195.623-.456.872-.783l.82.651c-.17.259-.388.506-.652.74a3.09 3.09 0 0 1-.974.571c-.38.147-.832.22-1.355.22Zm8.387-3.633h-2.601l-.014-1.084h2.124c.42 0 .769-.041 1.047-.124.283-.083.496-.208.637-.374a.913.913 0 0 0 .213-.615.97.97 0 0 0-.125-.498.904.904 0 0 0-.359-.359 1.784 1.784 0 0 0-.6-.212 4.095 4.095 0 0 0-.828-.073h-1.736v6.826h-1.355v-7.925h3.091c.503 0 .955.044 1.355.132.405.088.75.222 1.033.403.288.175.508.4.659.673.151.274.227.596.227.967a1.634 1.634 0 0 1-.579 1.253c-.19.166-.424.302-.703.41a3.668 3.668 0 0 1-.959.198l-.527.402Zm0 3.487h-3.091l.674-1.099h2.417c.376 0 .688-.046.937-.139.249-.098.435-.234.557-.41.127-.181.19-.396.19-.645s-.063-.461-.19-.637c-.122-.181-.308-.317-.557-.41-.249-.098-.561-.147-.937-.147h-2.059l.015-1.084h2.571l.491.411c.434.034.803.141 1.106.322.302.181.532.41.688.688.156.274.234.572.234.894 0 .371-.07.698-.212.981a1.87 1.87 0 0 1-.601.711 2.943 2.943 0 0 1-.959.425 5.374 5.374 0 0 1-1.274.139Zm8.151.146a3.908 3.908 0 0 1-1.501-.278 3.424 3.424 0 0 1-1.15-.798 3.552 3.552 0 0 1-.732-1.216 4.46 4.46 0 0 1-.257-1.538v-.308c0-.645.095-1.218.286-1.721.19-.508.449-.938.776-1.289a3.328 3.328 0 0 1 1.114-.799c.415-.18.844-.27 1.289-.27.566 0 1.054.097 1.464.292a2.68 2.68 0 0 1 1.019.821c.263.346.458.757.585 1.23.127.469.191.982.191 1.538v.608h-5.918v-1.106h4.563v-.102a3.393 3.393 0 0 0-.22-1.026 1.84 1.84 0 0 0-.586-.82c-.268-.215-.635-.322-1.098-.322-.308 0-.591.066-.85.197a1.814 1.814 0 0 0-.667.572 2.9 2.9 0 0 0-.432.93 4.74 4.74 0 0 0-.153 1.267v.308c0 .376.051.73.153 1.062.108.327.262.615.462.864.205.249.451.444.74.586.293.141.625.212.996.212.478 0 .883-.097 1.215-.293.332-.195.623-.456.872-.783l.82.651a3.77 3.77 0 0 1-.652.74 3.078 3.078 0 0 1-.974.571c-.38.147-.832.22-1.355.22Zm9.961-8.071v1.121h-3.83v-1.121h3.83Zm1.194 0v7.925h-1.355v-7.925h1.355Zm-5.354 0h1.362l-.205 3.823a14.19 14.19 0 0 1-.168 1.568 5.32 5.32 0 0 1-.308 1.157 2.422 2.422 0 0 1-.483.791c-.191.2-.42.349-.689.447a2.861 2.861 0 0 1-.93.139h-.425v-1.194l.293-.022c.21-.015.389-.064.535-.147.151-.083.278-.205.381-.366.102-.166.186-.378.249-.637.068-.259.12-.566.154-.923.039-.356.068-.771.088-1.245l.146-3.391Zm8.65 2.725h2.38c.64 0 1.18.112 1.619.336.44.22.772.525.996.916.23.386.344.825.344 1.318 0 .367-.063.711-.19 1.033a2.32 2.32 0 0 1-.571.835 2.646 2.646 0 0 1-.93.564 3.735 3.735 0 0 1-1.268.198h-3.369v-7.925h1.355v6.811h2.014c.391 0 .704-.07.938-.212.234-.142.403-.325.505-.549.103-.225.154-.459.154-.703 0-.24-.051-.474-.154-.704a1.32 1.32 0 0 0-.505-.571c-.234-.156-.547-.234-.938-.234h-2.38v-1.113Zm10.203 4.233c.322 0 .62-.066.893-.198.274-.132.498-.312.674-.542a1.5 1.5 0 0 0 .3-.798h1.289a2.411 2.411 0 0 1-.476 1.311 3.25 3.25 0 0 1-1.135.974 3.297 3.297 0 0 1-1.545.366c-.596 0-1.116-.105-1.56-.315a3.091 3.091 0 0 1-1.099-.864 3.869 3.869 0 0 1-.652-1.26 5.335 5.335 0 0 1-.212-1.516v-.307c0-.533.071-1.036.212-1.509.147-.479.364-.901.652-1.267a3.083 3.083 0 0 1 1.099-.865c.444-.21.964-.315 1.56-.315.62 0 1.162.127 1.626.381.464.249.827.591 1.091 1.026.269.429.415.918.439 1.465h-1.289a1.95 1.95 0 0 0-.278-.887 1.805 1.805 0 0 0-1.589-.871c-.415 0-.764.083-1.048.249-.278.161-.5.381-.666.659a3.104 3.104 0 0 0-.352.915 5.068 5.068 0 0 0-.102 1.019v.307c0 .347.034.689.102 1.026.069.336.183.642.345.915.166.273.388.493.666.659.283.161.635.242 1.055.242Zm6.152-6.958v7.925h-1.355v-7.925h1.355Zm5.2 0-3.757 4.541h-1.897l-.205-1.187h1.553l2.658-3.354h1.648Zm-1.457 7.925-2.915-3.589.871-.982 3.765 4.571h-1.721ZM7.852 114.233v1.157H2.71v9.507H1.304v-10.664h6.548Zm-.206 6.789v-.168c0-.572.083-1.101.25-1.59.166-.493.405-.92.717-1.281.313-.367.691-.65 1.136-.85a3.526 3.526 0 0 1 1.494-.308c.556 0 1.057.103 1.501.308.45.2.83.483 1.143.85.317.361.559.788.725 1.281.166.489.249 1.018.249 1.59v.168c0 .572-.083 1.101-.25 1.59a3.8 3.8 0 0 1-.724 1.281 3.315 3.315 0 0 1-1.136.85c-.439.2-.937.3-1.494.3a3.62 3.62 0 0 1-1.501-.3 3.389 3.389 0 0 1-1.143-.85 3.869 3.869 0 0 1-.717-1.281 4.911 4.911 0 0 1-.25-1.59Zm1.355-.168v.168c0 .396.047.769.14 1.121.092.347.232.654.417.923.19.268.427.481.71.637.284.151.613.227.99.227.37 0 .695-.076.973-.227.284-.156.518-.369.704-.637.185-.269.324-.576.417-.923.098-.352.146-.725.146-1.121v-.168c0-.391-.048-.76-.146-1.106a2.837 2.837 0 0 0-.425-.93 2.012 2.012 0 0 0-.703-.645 1.975 1.975 0 0 0-.981-.234c-.371 0-.699.078-.982.234a2.1 2.1 0 0 0-.703.645 2.93 2.93 0 0 0-.417.93c-.093.346-.14.715-.14 1.106Zm8.914-2.359v9.449h-1.362v-10.972h1.245l.117 1.523Zm5.34 2.373v.154c0 .576-.069 1.111-.206 1.604a3.945 3.945 0 0 1-.6 1.275 2.733 2.733 0 0 1-.96.842c-.38.2-.818.3-1.31.3-.504 0-.948-.083-1.334-.249a2.633 2.633 0 0 1-.981-.725 3.7 3.7 0 0 1-.645-1.142 6.624 6.624 0 0 1-.322-1.502v-.82a6.891 6.891 0 0 1 .33-1.575c.16-.464.373-.859.637-1.186.268-.333.593-.584.974-.755.38-.176.82-.264 1.318-.264.498 0 .94.098 1.326.293.386.191.71.464.974.821.264.356.462.783.593 1.281a6.16 6.16 0 0 1 .205 1.648Zm-1.363.154v-.154c0-.395-.041-.766-.124-1.113a2.821 2.821 0 0 0-.389-.923 1.86 1.86 0 0 0-.659-.63c-.268-.156-.588-.234-.96-.234-.341 0-.639.059-.893.176a1.932 1.932 0 0 0-.637.476 2.52 2.52 0 0 0-.432.674 3.873 3.873 0 0 0-.242.776v1.897c.098.342.235.664.41.967.176.298.41.539.703.725.293.181.662.271 1.106.271.367 0 .681-.076.945-.227.269-.156.489-.369.66-.637.175-.269.305-.576.388-.923.083-.352.124-.725.124-1.121Zm8.467-.615v1.099h-4.19v-1.099h4.19Zm-3.904-3.435v7.925H25.1v-7.925h1.355Zm5.003 0v7.925h-1.363v-7.925h1.363Zm1.823 4.05v-.168c0-.572.083-1.101.25-1.59.165-.493.404-.92.717-1.281.313-.367.691-.65 1.135-.85a3.525 3.525 0 0 1 1.494-.308c.557 0 1.058.103 1.502.308.45.2.83.483 1.143.85.317.361.559.788.725 1.281.166.489.249 1.018.249 1.59v.168c0 .572-.083 1.101-.25 1.59a3.8 3.8 0 0 1-.724 1.281 3.315 3.315 0 0 1-1.136.85c-.44.2-.937.3-1.494.3a3.62 3.62 0 0 1-1.501-.3 3.39 3.39 0 0 1-1.143-.85 3.868 3.868 0 0 1-.718-1.281 4.912 4.912 0 0 1-.249-1.59Zm1.355-.168v.168c0 .396.047.769.14 1.121.092.347.231.654.417.923.19.268.427.481.71.637.284.151.613.227.99.227.37 0 .695-.076.973-.227.283-.156.518-.369.703-.637.186-.269.325-.576.418-.923a4.17 4.17 0 0 0 .146-1.121v-.168c0-.391-.049-.76-.146-1.106a2.839 2.839 0 0 0-.425-.93 2.012 2.012 0 0 0-.703-.645 1.975 1.975 0 0 0-.982-.234 2 2 0 0 0-.981.234 2.1 2.1 0 0 0-.703.645 2.93 2.93 0 0 0-.418.93 4.29 4.29 0 0 0-.139 1.106Zm10.518.256h-1.458v-.835h1.348c.376 0 .674-.046.894-.139.22-.098.375-.232.468-.403.093-.171.14-.371.14-.6 0-.206-.054-.398-.162-.579a1.091 1.091 0 0 0-.498-.447c-.23-.117-.537-.176-.923-.176a2.09 2.09 0 0 0-.85.169 1.5 1.5 0 0 0-.607.447.988.988 0 0 0-.22.63h-1.355c0-.484.137-.899.41-1.246a2.704 2.704 0 0 1 1.106-.813c.464-.19.97-.285 1.516-.285.46 0 .87.051 1.23.154.367.097.677.244.931.439.254.19.447.43.579.718.136.283.205.613.205.989a1.6 1.6 0 0 1-.19.761c-.128.24-.31.452-.55.637a2.72 2.72 0 0 1-.872.425 3.905 3.905 0 0 1-1.142.154Zm-1.458-.513h1.458c.473 0 .89.047 1.252.14.362.087.664.219.909.395.244.176.427.393.549.652.127.254.19.547.19.879 0 .371-.076.705-.227 1.003a2.097 2.097 0 0 1-.63.747 2.94 2.94 0 0 1-.981.469 4.53 4.53 0 0 1-1.253.161c-.512 0-1.01-.088-1.494-.263a2.793 2.793 0 0 1-1.194-.813c-.312-.372-.468-.843-.468-1.414h1.355c0 .239.075.466.227.681.151.215.361.388.63.52.273.132.588.198.944.198.381 0 .699-.059.953-.176a1.31 1.31 0 0 0 .57-.469c.133-.195.199-.407.199-.637 0-.298-.059-.537-.176-.718a1.005 1.005 0 0 0-.542-.395c-.24-.088-.547-.132-.923-.132h-1.348v-.828Zm10.789 2.945v-4.08c0-.312-.064-.583-.19-.813a1.248 1.248 0 0 0-.557-.542c-.25-.127-.557-.19-.923-.19-.342 0-.642.058-.9.176a1.57 1.57 0 0 0-.602.461c-.141.19-.212.395-.212.615h-1.355c0-.283.073-.564.22-.842a2.46 2.46 0 0 1 .63-.754c.278-.23.61-.411.996-.542.39-.137.825-.206 1.303-.206.577 0 1.084.098 1.524.293.444.196.791.491 1.04.887.254.39.38.881.38 1.472v3.691c0 .264.023.545.067.842.049.298.12.555.212.77v.117h-1.413a2.537 2.537 0 0 1-.161-.623 5.02 5.02 0 0 1-.06-.732Zm.234-3.45.015.952h-1.37c-.386 0-.73.032-1.032.095a2.374 2.374 0 0 0-.762.271 1.285 1.285 0 0 0-.469.462c-.107.18-.161.393-.161.637 0 .249.056.476.168.681.113.205.281.369.506.491.23.117.51.176.842.176.415 0 .781-.088 1.099-.264a2.29 2.29 0 0 0 .754-.645c.19-.253.293-.5.308-.739l.578.652a1.967 1.967 0 0 1-.278.681 3.271 3.271 0 0 1-1.502 1.281c-.341.147-.727.22-1.157.22-.537 0-1.008-.105-1.413-.315a2.42 2.42 0 0 1-.938-.842 2.228 2.228 0 0 1-.33-1.194c0-.425.084-.798.25-1.12a2.15 2.15 0 0 1 .717-.813 3.42 3.42 0 0 1 1.128-.499 5.97 5.97 0 0 1 1.473-.168h1.574Zm6.973 1.318h-2.6l-.015-1.084h2.124c.42 0 .77-.041 1.047-.124.284-.083.496-.208.638-.374a.915.915 0 0 0 .212-.615.969.969 0 0 0-.124-.498.91.91 0 0 0-.36-.359 1.786 1.786 0 0 0-.6-.212 4.092 4.092 0 0 0-.828-.073h-1.735v6.826h-1.355v-7.925h3.09c.504 0 .955.044 1.355.132.406.088.75.222 1.033.403.288.175.508.4.66.673.15.274.226.596.226.967a1.625 1.625 0 0 1-.578 1.253c-.19.166-.425.302-.703.41a3.671 3.671 0 0 1-.96.198l-.527.402Zm0 3.487h-3.09l.673-1.099h2.417c.376 0 .688-.046.937-.139.25-.098.435-.234.557-.41.127-.181.19-.396.19-.645s-.063-.461-.19-.637c-.122-.181-.308-.317-.557-.41-.249-.098-.561-.147-.937-.147h-2.058l.014-1.084h2.571l.491.411c.434.034.803.141 1.106.322.303.181.532.41.688.688.157.274.235.572.235.894 0 .371-.071.698-.213.981-.136.284-.337.52-.6.711a2.953 2.953 0 0 1-.96.425c-.376.092-.8.139-1.274.139Zm4.504-3.875v-.168c0-.572.083-1.101.25-1.59.165-.493.405-.92.717-1.281.313-.367.691-.65 1.135-.85a3.526 3.526 0 0 1 1.495-.308c.556 0 1.057.103 1.5.308.45.2.831.483 1.143.85.318.361.56.788.726 1.281.166.489.249 1.018.249 1.59v.168c0 .572-.083 1.101-.25 1.59a3.8 3.8 0 0 1-.725 1.281c-.312.362-.69.645-1.135.85-.44.2-.937.3-1.494.3-.556 0-1.057-.1-1.501-.3a3.388 3.388 0 0 1-1.143-.85 3.868 3.868 0 0 1-.718-1.281 4.912 4.912 0 0 1-.249-1.59Zm1.355-.168v.168c0 .396.047.769.14 1.121.092.347.231.654.417.923.19.268.427.481.71.637.284.151.613.227.99.227.37 0 .695-.076.973-.227.283-.156.518-.369.703-.637.186-.269.325-.576.418-.923.097-.352.146-.725.146-1.121v-.168c0-.391-.049-.76-.146-1.106a2.839 2.839 0 0 0-.425-.93 2.013 2.013 0 0 0-.703-.645 1.975 1.975 0 0 0-.981-.234 2 2 0 0 0-.982.234 2.1 2.1 0 0 0-.703.645 2.932 2.932 0 0 0-.418.93 4.26 4.26 0 0 0-.139 1.106Zm8.46-3.882h1.355l-.117 2.966c-.03.752-.115 1.402-.257 1.948a5.716 5.716 0 0 1-.542 1.399c-.22.381-.466.701-.74.96a4.84 4.84 0 0 1-.834.652h-.674l.036-1.106.279-.008c.16-.19.317-.385.468-.585a4.09 4.09 0 0 0 .418-.726c.127-.283.232-.627.315-1.032.088-.41.144-.911.168-1.502l.125-2.966Zm.337 0h4.768v7.925H79.76v-6.673h-3.413v-1.252Zm-2.454 6.811h8.24v3.45h-1.355v-2.336h-5.53v2.336h-1.362l.007-3.45Zm12.913.147c.322 0 .62-.066.893-.198.274-.132.498-.312.674-.542a1.5 1.5 0 0 0 .3-.798h1.29a2.415 2.415 0 0 1-.477 1.311 3.25 3.25 0 0 1-1.135.974 3.296 3.296 0 0 1-1.545.366c-.596 0-1.116-.105-1.56-.315a3.094 3.094 0 0 1-1.1-.864 3.858 3.858 0 0 1-.65-1.26 5.314 5.314 0 0 1-.213-1.516v-.307c0-.533.07-1.036.212-1.509.147-.479.364-.901.652-1.267.293-.367.66-.655 1.099-.865.444-.21.964-.315 1.56-.315.62 0 1.162.127 1.626.381.463.249.827.591 1.09 1.026.27.429.416.918.44 1.465h-1.289a1.953 1.953 0 0 0-.278-.887 1.747 1.747 0 0 0-.645-.63 1.802 1.802 0 0 0-.944-.241c-.415 0-.764.083-1.048.249-.278.161-.5.381-.666.659a3.079 3.079 0 0 0-.352.915 5.046 5.046 0 0 0-.102 1.019v.307c0 .347.034.689.102 1.026.069.336.183.642.344.915.166.273.389.493.667.659.283.161.635.242 1.055.242Zm6.152-6.958v7.925h-1.355v-7.925h1.355Zm5.2 0-3.757 4.541h-1.897l-.205-1.187h1.553l2.658-3.354h1.648Zm-1.457 7.925-2.915-3.589.871-.982 3.765 4.571h-1.721Zm-78.005 35.344h1.421v9.514h3.662v-9.514h1.406v9.514h3.64v-9.514h1.414v10.664H18.697v-10.664Zm17.154 10.81a3.908 3.908 0 0 1-1.502-.278 3.409 3.409 0 0 1-1.15-.798 3.551 3.551 0 0 1-.732-1.216 4.462 4.462 0 0 1-.257-1.538v-.308c0-.644.096-1.218.286-1.721.19-.508.45-.938.776-1.289a3.326 3.326 0 0 1 1.114-.799 3.21 3.21 0 0 1 1.289-.271c.566 0 1.055.098 1.465.293.415.196.754.469 1.018.821.263.346.459.757.586 1.23.127.469.19.982.19 1.538v.608h-5.918v-1.106h4.563v-.102a3.38 3.38 0 0 0-.22-1.026 1.844 1.844 0 0 0-.586-.82c-.268-.215-.634-.322-1.098-.322a1.843 1.843 0 0 0-1.516.769c-.186.254-.33.564-.432.93a4.713 4.713 0 0 0-.154 1.267v.308c0 .376.051.73.154 1.062.107.327.26.615.461.864.205.249.452.444.74.586.293.142.625.212.996.212.478 0 .884-.097 1.216-.293.332-.195.622-.456.871-.783l.82.652c-.17.258-.388.505-.651.739a3.11 3.11 0 0 1-.974.572c-.381.146-.833.219-1.355.219Zm9.748-11.521h1.113c0 .479-.073.86-.22 1.143a1.596 1.596 0 0 1-.6.644 3.017 3.017 0 0 1-.85.345 34.83 34.83 0 0 1-.974.227c-.42.088-.81.227-1.171.417a2.739 2.739 0 0 0-.923.791c-.254.342-.442.786-.564 1.333-.117.547-.15 1.223-.095 2.029v.674H40.2v-.674c0-.903.086-1.692.257-2.366.175-.674.422-1.242.74-1.706a3.846 3.846 0 0 1 1.127-1.106c.44-.274.923-.462 1.45-.564.381-.073.708-.152.982-.235.273-.087.48-.205.622-.351.147-.147.22-.347.22-.601Zm-1.604 3.904c.518 0 .98.09 1.384.271.406.181.75.432 1.033.754.283.323.498.704.645 1.143.151.435.227.908.227 1.421v.161c0 .552-.08 1.065-.242 1.538a3.556 3.556 0 0 1-.696 1.231 3.176 3.176 0 0 1-1.113.813c-.435.195-.93.293-1.487.293a3.647 3.647 0 0 1-1.494-.293 3.268 3.268 0 0 1-1.113-.813 3.652 3.652 0 0 1-.704-1.231 4.879 4.879 0 0 1-.234-1.538v-.161c0-.122.022-.242.066-.359a3.26 3.26 0 0 1 .161-.359c.069-.122.13-.251.183-.388.181-.439.428-.847.74-1.223a3.724 3.724 0 0 1 1.135-.908 3.177 3.177 0 0 1 1.51-.352Zm-.264 1.106c-.498 0-.908.115-1.23.344-.317.23-.554.535-.71.916a3.154 3.154 0 0 0-.235 1.223v.161c0 .371.044.723.132 1.055.088.332.22.627.395.886.181.254.408.454.682.601.278.146.605.219.981.219s.7-.073.974-.219a1.9 1.9 0 0 0 .674-.601 2.87 2.87 0 0 0 .396-.886c.087-.332.131-.684.131-1.055v-.161c0-.332-.044-.647-.131-.945a2.334 2.334 0 0 0-.403-.791 1.833 1.833 0 0 0-.681-.542c-.274-.137-.599-.205-.975-.205Zm7.317 5.544 2.205-7.104h1.45l-3.179 9.148a5.07 5.07 0 0 1-.293.63 3.021 3.021 0 0 1-.454.652c-.185.205-.41.371-.674.498-.258.132-.568.197-.93.197a2.47 2.47 0 0 1-.41-.043 4 4 0 0 1-.351-.074l-.008-1.098c.04.005.1.009.183.014.088.01.15.015.183.015.308 0 .57-.042.784-.125.215-.078.396-.212.542-.402.152-.186.281-.442.388-.769l.564-1.539Zm-1.618-7.104 2.058 6.152.351 1.429-.974.498-2.915-8.079h1.48Zm11.872 3.435v1.099h-4.19v-1.099h4.19Zm-3.904-3.435v7.925h-1.355v-7.925h1.355Zm5.003 0v7.925h-1.362v-7.925H62.4Zm3.647 5.779 3.655-5.779h1.362v7.925h-1.362v-5.779l-3.655 5.779h-1.347v-7.925h1.347v5.779Zm12.569-2.344v1.099h-4.19v-1.099h4.19Zm-3.904-3.435v7.925h-1.355v-7.925h1.355Zm5.002 0v7.925h-1.362v-7.925h1.362Zm1.824 4.05v-.168c0-.571.083-1.101.25-1.59.165-.493.404-.92.717-1.281.312-.366.69-.65 1.135-.85a3.526 3.526 0 0 1 1.494-.308c.557 0 1.057.103 1.502.308.449.2.83.484 1.142.85.318.361.56.788.725 1.281.166.489.25 1.019.25 1.59v.168c0 .572-.084 1.101-.25 1.59a3.8 3.8 0 0 1-.725 1.281c-.312.362-.69.645-1.135.85-.44.2-.938.3-1.494.3a3.62 3.62 0 0 1-1.502-.3 3.388 3.388 0 0 1-1.142-.85 3.868 3.868 0 0 1-.718-1.281 4.912 4.912 0 0 1-.249-1.59Zm1.355-.168v.168c0 .396.046.769.14 1.121.092.347.231.654.417.923.19.268.427.481.71.637.283.151.613.227.989.227.371 0 .696-.076.974-.227.283-.156.518-.369.703-.637a2.95 2.95 0 0 0 .418-.923 4.17 4.17 0 0 0 .146-1.121v-.168a4.06 4.06 0 0 0-.146-1.106 2.835 2.835 0 0 0-.425-.93 2.012 2.012 0 0 0-.703-.645 1.975 1.975 0 0 0-.982-.234c-.37 0-.698.078-.981.234a2.1 2.1 0 0 0-.703.645 2.93 2.93 0 0 0-.418.93 4.253 4.253 0 0 0-.139 1.106Z" fill="#fff"/><path d="m90.863 135.086-19.637 9.819c-1.455.969-3.637 3.054-.727 3.636" stroke="#fff" stroke-width="2"/><path d="M216.319 103.449c-2.91-.363-9.601-2.182-11.637-5.09" stroke="#6F6F6F" stroke-width="2"/><path d="m412.319 27.448 5.818-5.09c2.182-1.334 5.528-1.674 1.455 7.636-1.212 2.303-9.6 6.4-33.455 4.363l-12.728 9.091-4.727 5.819-12 1.09c-1.333 3.637-5.891 9.237-13.455 2.546l-19.273 11.273-2.909 6.545h-14.182c-4 3.758-13.091 11.564-17.455 12.728-5.454 1.454-4.727 1.454-16 3.273l1.818 7.636-3.636 18.909c2.182 1.213 4.873 3.491-1.818 2.91l-3.273 5.454c-7.515 2.424-24.219 9.964-30.91 20.728-1.091 1.454-3.491 4.945-4.363 7.273l-37.455-.728c-1.213-2.424-3.637-5.673-3.637.728-7.636 3.515-27.055 10.4-43.637 9.818m0 0c-2.545-5.818-9.818-11.637-22.546-16.364.243-5.333-.8-17.237-6.909-22.182l-1.454-2.182-23.637 15.637-1.818 1.091.364 7.636m56 16.364 10.546-23.273c2.303-.364 2.182-5.091 2.545-5.091l10.546-2.546c.485.485 1.527-1.527 1.818-13.454" stroke="#FF6C01" stroke-width="2"/><path d="m412.32 27.448 5.818-5.09c2.182-1.334 5.527-1.674 1.455 7.636M373.41 43.448l-4.727 5.819-12 1.09c-1.334 3.637-5.891 9.237-13.455 2.546l-19.273 11.273-2.909 6.545h-14.182c-4 3.758-13.091 11.564-17.455 12.728-5.455 1.454-4.727 1.454-16 3.273m0 0 1.818 7.636-3.636 18.909m1.818-26.545c-6.061 0-20.219-1.164-28.364-5.819-8.146-4.654-22.667 18.425-32.001 25.819-8 6.061-31.927 8.509-38.909 7.636" stroke="#fff" stroke-width="2"/><circle cx="411.957" cy="26.357" r="4" fill="#fff"/><circle cx="172.684" cy="115.086" r="4" fill="#FF6C01"/><circle cx="204.682" cy="97.631" r="4" fill="#6F6F6F"/><circle cx="115.229" cy="119.45" r="4" fill="#FF6C01"/><circle cx="91.225" cy="144.177" r="4" fill="#FF6C01"/><circle cx="72.318" cy="150.722" r="4" fill="#fff"/><circle cx="273.047" cy="85.994" r="4" fill="#fff"/><circle cx="234.5" cy="83.085" r="4" fill="#fff"/><circle cx="184.318" cy="150.722" r="4" fill="#FF6C01"/></svg>