<svg width="584" height="276" fill="none" xmlns="http://www.w3.org/2000/svg"><circle cx="566.486" cy="43.591" r="4" transform="rotate(5.26 566.486 43.591)" fill="#fff"/><circle cx="349.716" cy="101.571" r="4" transform="rotate(5.26 349.716 101.571)" fill="#fff"/><circle cx="435.232" cy="104.122" r="4" transform="rotate(5.26 435.232 104.122)" fill="#fff"/><circle cx="72.23" cy="231.175" r="4" transform="rotate(5.26 72.23 231.175)" fill="#FF6C01"/><circle cx="99.138" cy="227.609" r="4" transform="rotate(5.26 99.138 227.609)" fill="#FF6C01"/><circle cx="182.48" cy="193.697" r="4" transform="rotate(5.26 182.48 193.697)" fill="#FF6C01"/><circle cx="221.55" cy="191.251" r="4" transform="rotate(5.26 221.55 191.251)" fill="#FF6C01"/><circle cx="151.702" cy="198.802" r="4" transform="rotate(5.26 151.702 198.802)" fill="#FF6C01"/><path d="M566.801 43.573c-4.343 5.373-13.687 16.203-16.316 16.538-2.628.336-9.098.846-12.004 1.06-7.237 4.145-22.954 13.402-27.929 17.273-6.218 4.84-5.093 16.129-55.256 20.17l-18.223 5.9-44.533 1.673-28.631 5.303c.635 3.546.236 9.186-6.445 3.375-1.045-1.006-3.201-1.932-6.35-1.575M72.187 231.123c12.07 3.709 24.311-1.49 28.923-4.553 13.112-11.782 48.091-34.829 83.115-32.76 35.024 2.07 37.971.369 35.067-.741 4.586-5.928 11.458-6.883 14.32-6.619l14.631 5.676 3.71-1.101 4.862-13.624 18.651-10.551c17.091-40.641 47.822-33.482 61.596-45.925 5.806-5.246 10.545-7.236 14.052-7.635m0 0-7.434-5.467c-.931-1.649-1.263-5.095 4.853-5.687" stroke="#fff" stroke-width="2"/><path d="M357.463 114.865c-1.045-1.006-3.201-1.932-6.349-1.575-3.508.399-8.246 2.389-14.053 7.635-13.774 12.443-44.505 5.284-61.596 45.925l-18.651 10.551-4.862 13.624-3.71 1.101-14.631-5.676c-2.862-.264-9.733.691-14.32 6.619 2.905 1.11-.042 2.811-35.067.741-35.024-2.069-70.003 20.978-83.115 32.76-4.611 3.063-16.852 8.262-28.923 4.553" stroke="#FF6C01" stroke-width="2"/><path d="m256.814 177.4 18.651-10.55c4.153-9.874 9.11-16.927 14.434-22.124M72.187 231.123c12.07 3.709 24.31-1.491 28.923-4.554 5.156-4.633 13.694-11.009 24.288-16.914" stroke="#FF6C01" stroke-width="2"/><circle cx="259.136" cy="176.219" r="4" transform="rotate(5.26 259.136 176.219)" fill="#FF6C01"/><circle cx="300.917" cy="136.498" r="4" transform="rotate(5.26 300.917 136.498)" fill="#FF6C01"/><circle cx="357.804" cy="114.313" r="4" transform="rotate(5.26 357.804 114.313)" fill="#FF6C01"/><path d="M2.754 240.196v10.664H1.34v-10.664h1.414Zm2.446 4.885v1.113H2.666v-1.113H5.2Zm7.654.11v.674c0 .8-.1 1.518-.3 2.153a4.63 4.63 0 0 1-.864 1.618 3.751 3.751 0 0 1-1.355 1.019c-.523.234-1.109.351-1.758.351-.63 0-1.209-.117-1.736-.351a3.905 3.905 0 0 1-1.362-1.019 4.734 4.734 0 0 1-.887-1.618c-.21-.635-.315-1.353-.315-2.153v-.674c0-.801.103-1.516.308-2.146.21-.635.505-1.175.886-1.619a3.799 3.799 0 0 1 1.355-1.025 4.216 4.216 0 0 1 1.736-.352c.65 0 1.235.117 1.758.352a3.71 3.71 0 0 1 1.355 1.025c.38.444.671.984.871 1.619.206.63.308 1.345.308 2.146Zm-1.399.674v-.689c0-.635-.066-1.196-.198-1.685-.127-.488-.315-.898-.564-1.23a2.424 2.424 0 0 0-.915-.754 2.777 2.777 0 0 0-1.216-.257c-.44 0-.837.086-1.194.257-.351.17-.654.422-.908.754-.25.332-.442.742-.579 1.23a6.3 6.3 0 0 0-.205 1.685v.689c0 .639.069 1.206.205 1.699.137.488.332.901.586 1.238a2.6 2.6 0 0 0 .916.754c.356.171.754.256 1.194.256.459 0 .866-.085 1.223-.256a2.39 2.39 0 0 0 .9-.754c.25-.337.438-.75.565-1.238.127-.493.19-1.06.19-1.699Zm5.398 1.545-3.003-4.475h1.633l2.051 3.281h1.582l-.197 1.194h-2.066Zm.74-.139-2.3 3.589h-1.714l3.157-4.571.857.982Zm2.219-4.336v7.925h-1.355v-7.925h1.355Zm4.622 0-3.003 4.475h-2.066l-.212-1.194h1.59l2.05-3.281h1.64Zm-1.45 7.925-2.308-3.589.872-.982 3.15 4.571h-1.715Zm8.342-4.49v1.099h-4.19v-1.099h4.19Zm-3.904-3.435v7.925h-1.355v-7.925h1.355Zm5.002 0v7.925h-1.362v-7.925h1.362Zm1.824 4.05v-.168c0-.572.083-1.101.25-1.59.165-.493.404-.92.717-1.281a3.18 3.18 0 0 1 1.135-.85 3.525 3.525 0 0 1 1.494-.308c.557 0 1.057.103 1.502.308.449.2.83.483 1.142.85.318.361.56.788.725 1.281.166.489.25 1.018.25 1.59v.168c0 .571-.084 1.101-.25 1.589a3.795 3.795 0 0 1-.725 1.282c-.312.362-.69.645-1.135.85-.44.2-.938.3-1.494.3a3.62 3.62 0 0 1-1.502-.3 3.39 3.39 0 0 1-1.142-.85 3.863 3.863 0 0 1-.718-1.282 4.906 4.906 0 0 1-.249-1.589Zm1.355-.168v.168c0 .396.046.769.14 1.121.092.346.231.654.417.923.19.268.427.481.71.637.283.151.613.227.989.227.371 0 .696-.076.974-.227.283-.156.518-.369.703-.637.186-.269.325-.577.418-.923a4.17 4.17 0 0 0 .146-1.121v-.168c0-.391-.049-.76-.146-1.106a2.839 2.839 0 0 0-.425-.93 2.012 2.012 0 0 0-.703-.645 1.975 1.975 0 0 0-.982-.234 2 2 0 0 0-.981.234 2.1 2.1 0 0 0-.703.645 2.93 2.93 0 0 0-.418.93 4.248 4.248 0 0 0-.139 1.106Zm10.378-1.048v1.114h-3.574v-1.114h3.574Zm7.97 1.7h1.405a4.492 4.492 0 0 1-.578 1.809 3.387 3.387 0 0 1-1.326 1.267c-.571.307-1.284.461-2.139.461a4.063 4.063 0 0 1-1.706-.351 3.798 3.798 0 0 1-1.311-.997 4.65 4.65 0 0 1-.85-1.56 6.657 6.657 0 0 1-.293-2.036V245c0-.747.098-1.423.293-2.029.2-.61.486-1.132.857-1.567a3.813 3.813 0 0 1 1.355-1.003c.527-.235 1.12-.352 1.78-.352.806 0 1.487.151 2.043.454.557.303.99.723 1.297 1.26.312.532.505 1.15.578 1.853H53.95a3.93 3.93 0 0 0-.38-1.282 1.986 1.986 0 0 0-.792-.835c-.341-.195-.788-.293-1.34-.293-.474 0-.891.091-1.253.271a2.526 2.526 0 0 0-.9.769c-.24.332-.42.73-.542 1.194a6.072 6.072 0 0 0-.183 1.546v1.076c0 .523.053 1.013.16 1.472.113.459.282.862.506 1.209.225.347.51.62.857.82.347.196.757.293 1.23.293.601 0 1.08-.095 1.436-.285a1.87 1.87 0 0 0 .806-.821 4.16 4.16 0 0 0 .395-1.281Zm7.8 2.036v-4.08c0-.312-.064-.583-.19-.813a1.249 1.249 0 0 0-.558-.542c-.249-.127-.556-.19-.922-.19-.342 0-.643.058-.901.175a1.572 1.572 0 0 0-.6.462c-.142.19-.213.395-.213.615h-1.355c0-.283.073-.564.22-.842.146-.279.356-.53.63-.755.278-.229.61-.41.995-.542a3.95 3.95 0 0 1 1.304-.205c.576 0 1.084.098 1.524.293.444.196.79.491 1.04.887.253.39.38.881.38 1.472v3.691c0 .264.022.545.066.842.05.298.12.555.213.769v.118H61.97a2.542 2.542 0 0 1-.16-.623 5.02 5.02 0 0 1-.06-.732Zm.234-3.45.014.952h-1.37c-.385 0-.73.032-1.032.095a2.373 2.373 0 0 0-.762.271 1.286 1.286 0 0 0-.468.462c-.108.18-.161.393-.161.637 0 .249.056.476.168.681.112.205.28.369.505.491.23.117.51.176.843.176.415 0 .78-.088 1.098-.264a2.28 2.28 0 0 0 .755-.645c.19-.254.293-.5.307-.739l.579.651a1.961 1.961 0 0 1-.278.682 3.244 3.244 0 0 1-.608.717 3.264 3.264 0 0 1-.894.564 2.9 2.9 0 0 1-1.157.22c-.537 0-1.008-.105-1.414-.315a2.42 2.42 0 0 1-.937-.842 2.232 2.232 0 0 1-.33-1.194c0-.425.083-.798.25-1.121a2.16 2.16 0 0 1 .717-.813 3.439 3.439 0 0 1 1.128-.498c.44-.112.93-.168 1.472-.168h1.575Zm4.167-3.12 1.736 2.886 1.758-2.886h1.59l-2.593 3.911 2.673 4.014h-1.567l-1.831-2.974-1.832 2.974h-1.574l2.666-4.014-2.586-3.911h1.56Zm11.2 6.57v-4.08c0-.312-.064-.583-.191-.813a1.248 1.248 0 0 0-.557-.542c-.249-.127-.557-.19-.923-.19a2.16 2.16 0 0 0-.9.175 1.572 1.572 0 0 0-.601.462c-.142.19-.213.395-.213.615h-1.355c0-.283.074-.564.22-.842.147-.279.357-.53.63-.755.278-.229.61-.41.996-.542.39-.136.825-.205 1.304-.205.576 0 1.084.098 1.523.293.445.196.791.491 1.04.887.254.39.381.881.381 1.472v3.691c0 .264.022.545.066.842.049.298.12.555.212.769v.118h-1.413a2.537 2.537 0 0 1-.161-.623 5.02 5.02 0 0 1-.059-.732Zm.233-3.45.015.952h-1.37c-.385 0-.73.032-1.032.095a2.373 2.373 0 0 0-.762.271 1.286 1.286 0 0 0-.469.462c-.107.18-.16.393-.16.637 0 .249.055.476.168.681.112.205.28.369.505.491.23.117.51.176.842.176.415 0 .781-.088 1.099-.264a2.29 2.29 0 0 0 .754-.645c.19-.254.293-.5.308-.739l.578.651a1.963 1.963 0 0 1-.278.682 3.244 3.244 0 0 1-.608.717 3.263 3.263 0 0 1-.893.564c-.342.147-.728.22-1.157.22-.538 0-1.009-.105-1.414-.315a2.42 2.42 0 0 1-.938-.842 2.233 2.233 0 0 1-.33-1.194c0-.425.084-.798.25-1.121.166-.327.405-.598.718-.813a3.44 3.44 0 0 1 1.128-.498c.439-.112.93-.168 1.472-.168h1.574Zm8.548-3.12v1.12h-3.83v-1.12h3.83Zm1.194 0v7.925h-1.355v-7.925h1.355Zm-5.354 0h1.362l-.205 3.823a13.89 13.89 0 0 1-.169 1.567c-.073.45-.175.835-.307 1.158a2.416 2.416 0 0 1-.484.791c-.19.2-.42.349-.688.446-.269.093-.579.14-.93.14h-.425v-1.194l.293-.022c.21-.015.388-.064.535-.147.151-.083.278-.205.38-.366a2.22 2.22 0 0 0 .25-.637 5.77 5.77 0 0 0 .153-.923c.04-.356.069-.771.088-1.245l.147-3.391Zm9.001 5.779 3.655-5.779h1.362v7.925H94.63v-5.779l-3.655 5.779h-1.348v-7.925h1.348v5.779Zm12.568-2.344v1.099h-4.189v-1.099h4.189Zm-3.903-3.435v7.925h-1.355v-7.925h1.355Zm5.002 0v7.925h-1.362v-7.925h1.362Zm5.354 6.958c.322 0 .62-.066.894-.198.273-.132.498-.312.673-.542.176-.234.276-.5.301-.798h1.289a2.425 2.425 0 0 1-.476 1.311 3.259 3.259 0 0 1-2.681 1.34c-.596 0-1.116-.105-1.56-.315a3.1 3.1 0 0 1-1.099-.864 3.847 3.847 0 0 1-.651-1.26 5.3 5.3 0 0 1-.213-1.516v-.308c0-.532.071-1.035.213-1.508.146-.479.363-.901.651-1.267.293-.367.66-.655 1.099-.865.444-.21.964-.315 1.56-.315.62 0 1.162.127 1.626.381.464.249.828.591 1.091 1.026.269.429.415.918.44 1.464h-1.289a1.95 1.95 0 0 0-.279-.886 1.805 1.805 0 0 0-1.589-.871c-.415 0-.764.083-1.047.249-.279.161-.501.38-.667.659a3.065 3.065 0 0 0-.351.915 4.994 4.994 0 0 0-.103 1.018v.308c0 .347.034.689.103 1.025.068.337.183.643.344.916.166.273.388.493.666.659.284.161.635.242 1.055.242Zm6.152-6.958v7.925h-1.355v-7.925h1.355Zm5.201 0-3.758 4.541h-1.897l-.205-1.187h1.553l2.659-3.354h1.648Zm-1.458 7.925-2.915-3.589.872-.982 3.764 4.571h-1.721ZM258.186 72.14l-3.531 9.72h-1.443l4.065-10.664h.931l-.022.945Zm2.959 9.72-3.538-9.72-.022-.944h.93l4.08 10.664h-1.45Zm-.184-3.948v1.158h-5.991v-1.158h5.991Zm8.284-3.977v1.12h-3.83v-1.12h3.83Zm1.194 0v7.925h-1.355v-7.925h1.355Zm-5.354 0h1.362l-.205 3.823c-.034.591-.09 1.114-.168 1.568-.074.45-.176.835-.308 1.157a2.42 2.42 0 0 1-.483.791c-.191.2-.42.35-.689.447a2.84 2.84 0 0 1-.93.14h-.425v-1.195l.293-.022c.21-.014.388-.063.535-.146.151-.083.278-.205.381-.366.102-.166.185-.379.249-.638.068-.258.119-.566.154-.922.039-.357.068-.772.087-1.246l.147-3.39Zm10.825 8.072a3.895 3.895 0 0 1-1.501-.279 3.396 3.396 0 0 1-1.15-.798 3.544 3.544 0 0 1-.733-1.216 4.456 4.456 0 0 1-.256-1.538v-.308c0-.644.095-1.218.286-1.72.19-.509.449-.938.776-1.29a3.324 3.324 0 0 1 1.113-.798 3.2 3.2 0 0 1 1.289-.271c.567 0 1.055.097 1.465.293.415.195.755.469 1.018.82.264.347.459.757.586 1.23.127.47.191.982.191 1.539v.608h-5.918v-1.106h4.563v-.103a3.392 3.392 0 0 0-.22-1.025 1.839 1.839 0 0 0-.586-.82c-.269-.215-.635-.323-1.099-.323a1.844 1.844 0 0 0-1.516.77 2.898 2.898 0 0 0-.432.93 4.736 4.736 0 0 0-.154 1.266v.308c0 .376.052.73.154 1.062.108.327.261.615.462.864.205.25.451.445.739.586.293.142.625.213.996.213.479 0 .884-.098 1.216-.293.332-.196.623-.457.872-.784l.82.652a3.785 3.785 0 0 1-.652.74 3.1 3.1 0 0 1-.974.57c-.381.147-.832.22-1.355.22Zm6.138-8.072v7.925h-1.355v-7.925h1.355Zm5.2 0-3.757 4.541h-1.897l-.205-1.186h1.552l2.659-3.355h1.648Zm-1.457 7.925-2.916-3.589.872-.981 3.765 4.57h-1.721Zm5.954-.967c.322 0 .62-.066.894-.197.273-.132.498-.313.673-.542.176-.235.276-.5.301-.799h1.289a2.421 2.421 0 0 1-.476 1.311c-.288.4-.667.725-1.135.974a3.297 3.297 0 0 1-1.546.367c-.596 0-1.116-.105-1.56-.315a3.098 3.098 0 0 1-1.099-.865 3.851 3.851 0 0 1-.651-1.26 5.302 5.302 0 0 1-.213-1.515v-.308c0-.532.071-1.035.213-1.509.146-.478.363-.9.651-1.267a3.1 3.1 0 0 1 1.099-.864c.444-.21.964-.315 1.56-.315.62 0 1.162.127 1.626.38.464.25.828.591 1.091 1.026.269.43.415.918.44 1.465h-1.289a1.95 1.95 0 0 0-.279-.886 1.735 1.735 0 0 0-.644-.63 1.804 1.804 0 0 0-.945-.242c-.415 0-.764.083-1.047.25-.279.16-.501.38-.667.658a3.073 3.073 0 0 0-.351.916 4.99 4.99 0 0 0-.103 1.018v.308c0 .346.034.688.103 1.025.068.337.183.642.344.915.166.274.388.494.666.66.284.16.635.241 1.055.241Zm9.353-.388v-4.08c0-.312-.063-.583-.19-.813a1.247 1.247 0 0 0-.557-.541c-.249-.127-.557-.19-.923-.19-.342 0-.642.058-.901.175a1.562 1.562 0 0 0-.6.461 1.01 1.01 0 0 0-.213.616h-1.355a1.8 1.8 0 0 1 .22-.843c.147-.278.357-.53.63-.754.278-.23.61-.41.996-.542a3.928 3.928 0 0 1 1.304-.205c.576 0 1.084.097 1.523.293.445.195.791.49 1.04.886.254.39.381.881.381 1.472v3.692c0 .263.022.544.066.842.049.298.12.554.212.769v.117h-1.413a2.545 2.545 0 0 1-.161-.623 5.032 5.032 0 0 1-.059-.732Zm.235-3.45.014.953h-1.369c-.386 0-.73.031-1.033.095a2.36 2.36 0 0 0-.762.27 1.294 1.294 0 0 0-.469.462c-.107.18-.161.393-.161.637 0 .25.056.477.169.682.112.205.28.368.505.49.23.117.51.176.842.176a2.23 2.23 0 0 0 1.099-.264c.317-.175.569-.39.754-.644.191-.254.293-.5.308-.74l.579.652a1.973 1.973 0 0 1-.279.681 3.29 3.29 0 0 1-1.501 1.282c-.342.146-.728.22-1.157.22-.538 0-1.009-.105-1.414-.315-.4-.21-.713-.491-.937-.843a2.228 2.228 0 0 1-.33-1.194c0-.424.083-.798.249-1.12a2.16 2.16 0 0 1 .718-.813 3.39 3.39 0 0 1 1.128-.498 5.96 5.96 0 0 1 1.472-.169h1.575Zm8.627.315v1.099h-4.189V77.37h4.189Zm-3.903-3.435v7.925h-1.355v-7.925h1.355Zm5.002 0v7.925h-1.362v-7.925h1.362Zm3.611 0h1.355l-.117 2.967c-.03.752-.115 1.401-.257 1.948a5.695 5.695 0 0 1-.542 1.399c-.219.38-.466.7-.739.96a4.866 4.866 0 0 1-.835.651h-.674l.036-1.106.279-.007c.161-.19.317-.386.469-.586.151-.205.29-.447.417-.725a4.99 4.99 0 0 0 .315-1.033c.088-.41.144-.91.168-1.501l.125-2.967Zm.337 0h4.768v7.925h-1.355v-6.672h-3.413v-1.253Zm-2.454 6.812h8.24v3.45h-1.355V81.86h-5.53v2.337h-1.362l.007-3.45Zm11.096-5.288v9.448h-1.362V73.935h1.245l.117 1.524Zm5.34 2.373v.154a6.02 6.02 0 0 1-.205 1.604 3.943 3.943 0 0 1-.601 1.274 2.74 2.74 0 0 1-.959.842c-.381.2-.818.3-1.311.3-.503 0-.948-.082-1.333-.248a2.632 2.632 0 0 1-.982-.725 3.712 3.712 0 0 1-.644-1.143 6.593 6.593 0 0 1-.323-1.502v-.82a6.92 6.92 0 0 1 .33-1.575c.161-.463.373-.859.637-1.186.269-.332.593-.584.974-.755.381-.175.821-.263 1.319-.263s.94.097 1.325.293c.386.19.711.464.974.82.264.356.462.784.594 1.282a6.19 6.19 0 0 1 .205 1.648Zm-1.363.154v-.154c0-.396-.041-.767-.124-1.113a2.807 2.807 0 0 0-.388-.923 1.853 1.853 0 0 0-.659-.63 1.881 1.881 0 0 0-.96-.235c-.342 0-.64.059-.893.176a1.938 1.938 0 0 0-.638.476c-.175.196-.319.42-.432.674a3.85 3.85 0 0 0-.241.776v1.897c.097.342.234.664.41.967.175.298.41.54.703.725.293.181.661.271 1.106.271.366 0 .681-.075.945-.227a1.92 1.92 0 0 0 .659-.637 2.9 2.9 0 0 0 .388-.923 4.86 4.86 0 0 0 .124-1.12Zm2.732 0v-.169c0-.571.083-1.1.249-1.59a3.79 3.79 0 0 1 .718-1.281 3.21 3.21 0 0 1 1.135-.85 3.53 3.53 0 0 1 1.495-.307c.556 0 1.057.102 1.501.307.449.2.83.484 1.143.85.317.361.559.789.725 1.282.166.488.249 1.018.249 1.59v.168c0 .57-.083 1.1-.249 1.589a3.81 3.81 0 0 1-.725 1.282 3.324 3.324 0 0 1-1.136.85c-.439.2-.937.3-1.494.3-.556 0-1.057-.1-1.501-.3a3.4 3.4 0 0 1-1.143-.85 3.881 3.881 0 0 1-.718-1.282 4.908 4.908 0 0 1-.249-1.59Zm1.355-.169v.169c0 .395.047.769.14 1.12.092.347.231.654.417.923.19.269.427.481.71.637.284.152.613.227.989.227a2 2 0 0 0 .974-.227c.284-.156.518-.368.703-.637.186-.269.325-.576.418-.923.098-.351.146-.725.146-1.12v-.169c0-.39-.048-.76-.146-1.106a2.841 2.841 0 0 0-.425-.93 2.015 2.015 0 0 0-.703-.645 1.97 1.97 0 0 0-.981-.234 2 2 0 0 0-.982.234 2.106 2.106 0 0 0-.703.645 2.913 2.913 0 0 0-.417.93c-.093.347-.14.716-.14 1.106Zm11.28.557h-2.6l-.015-1.084h2.124c.42 0 .769-.042 1.047-.125.284-.083.496-.207.638-.373a.918.918 0 0 0 .212-.615.967.967 0 0 0-.483-.857 1.78 1.78 0 0 0-.601-.213 4.094 4.094 0 0 0-.828-.073h-1.736v6.826h-1.355v-7.925h3.091c.503 0 .955.044 1.355.132.406.088.75.222 1.033.403.288.176.508.4.659.674.152.273.227.596.227.967a1.636 1.636 0 0 1-.578 1.252 2.342 2.342 0 0 1-.704.41 3.617 3.617 0 0 1-.959.198l-.527.403Zm0 3.486h-3.091l.674-1.099h2.417c.376 0 .688-.046.937-.139.249-.097.435-.234.557-.41.127-.18.19-.395.19-.644 0-.25-.063-.462-.19-.638a1.116 1.116 0 0 0-.557-.41c-.249-.097-.561-.146-.937-.146h-2.058l.014-1.084h2.571l.491.41c.434.034.803.142 1.106.322.302.18.532.41.688.689.156.273.235.571.235.893 0 .371-.071.698-.213.982-.137.283-.337.52-.6.71a2.937 2.937 0 0 1-.96.425 5.32 5.32 0 0 1-1.274.14Zm8.034-.967c.323 0 .62-.066.894-.197.273-.132.498-.313.674-.542.176-.235.276-.5.3-.799h1.289a2.413 2.413 0 0 1-.476 1.311 3.25 3.25 0 0 1-1.135.974 3.297 3.297 0 0 1-1.546.367c-.595 0-1.115-.105-1.56-.315a3.095 3.095 0 0 1-1.098-.865 3.853 3.853 0 0 1-.652-1.26 5.302 5.302 0 0 1-.213-1.515v-.308c0-.532.071-1.035.213-1.509.146-.478.364-.9.652-1.267a3.093 3.093 0 0 1 1.098-.864c.445-.21.965-.315 1.56-.315.62 0 1.162.127 1.626.38.464.25.828.591 1.092 1.026.268.43.415.918.439 1.465h-1.289a1.948 1.948 0 0 0-.278-.886 1.737 1.737 0 0 0-.645-.63 1.8 1.8 0 0 0-.945-.242c-.415 0-.764.083-1.047.25a1.84 1.84 0 0 0-.667.658 3.073 3.073 0 0 0-.351.916 5.062 5.062 0 0 0-.103 1.018v.308c0 .346.035.688.103 1.025.068.337.183.642.344.915.166.274.388.494.667.66.283.16.634.241 1.054.241Zm6.153-6.958v7.925h-1.355v-7.925h1.355Zm5.2 0-3.757 4.541h-1.897l-.205-1.186h1.552l2.659-3.355h1.648Zm-1.458 7.925-2.915-3.589.872-.981 3.765 4.57h-1.722Zm5.721-5.09v1.113h-3.575V76.77h3.575Zm7.968 1.699h1.407a4.506 4.506 0 0 1-.579 1.81 3.382 3.382 0 0 1-1.326 1.266c-.571.308-1.284.462-2.138.462a4.06 4.06 0 0 1-1.707-.352 3.787 3.787 0 0 1-1.311-.996 4.68 4.68 0 0 1-.85-1.56 6.669 6.669 0 0 1-.293-2.036V76c0-.747.098-1.424.293-2.03a4.6 4.6 0 0 1 .857-1.567 3.827 3.827 0 0 1 1.355-1.003c.528-.234 1.121-.351 1.78-.351.806 0 1.487.15 2.044.454.556.302.988.722 1.296 1.26.312.532.505 1.15.579 1.853h-1.407c-.068-.499-.195-.926-.381-1.282a1.975 1.975 0 0 0-.791-.835c-.341-.196-.788-.293-1.34-.293-.474 0-.891.09-1.252.27a2.523 2.523 0 0 0-.901.77c-.239.332-.42.73-.542 1.194a6.074 6.074 0 0 0-.183 1.545v1.077c0 .522.053 1.013.161 1.472.112.459.281.862.505 1.208.225.347.51.62.857.82.347.196.757.294 1.231.294.6 0 1.079-.096 1.435-.286.357-.19.625-.464.806-.82.185-.357.317-.784.395-1.282Zm7.801 2.036v-4.08c0-.312-.064-.583-.191-.813a1.244 1.244 0 0 0-.556-.541c-.249-.127-.557-.19-.923-.19-.342 0-.642.058-.901.175a1.574 1.574 0 0 0-.601.461c-.141.19-.212.396-.212.616h-1.355c0-.284.073-.564.22-.843a2.46 2.46 0 0 1 .629-.754c.279-.23.611-.41.997-.542.39-.137.825-.205 1.303-.205.576 0 1.084.097 1.524.293.444.195.791.49 1.04.886.254.39.381.881.381 1.472v3.692c0 .263.022.544.066.842.048.298.119.554.212.769v.117h-1.414a2.545 2.545 0 0 1-.161-.623 5.023 5.023 0 0 1-.058-.732Zm.234-3.45.015.953h-1.37c-.386 0-.73.031-1.033.095a2.363 2.363 0 0 0-.761.27 1.286 1.286 0 0 0-.469.462c-.108.18-.161.393-.161.637 0 .25.056.477.168.682.112.205.281.368.506.49.229.117.51.176.842.176.415 0 .781-.088 1.098-.264.318-.175.569-.39.755-.644.19-.254.293-.5.307-.74l.579.652a1.97 1.97 0 0 1-.278.681 3.271 3.271 0 0 1-1.502 1.282c-.342.146-.727.22-1.157.22-.537 0-1.008-.105-1.414-.315a2.42 2.42 0 0 1-.937-.843 2.228 2.228 0 0 1-.33-1.194c0-.424.083-.798.249-1.12a2.17 2.17 0 0 1 .718-.813 3.42 3.42 0 0 1 1.128-.498c.44-.112.93-.169 1.472-.169h1.575Zm4.167-3.12 1.736 2.886 1.758-2.886h1.589l-2.592 3.911 2.673 4.014h-1.567l-1.831-2.974-1.831 2.974h-1.575l2.666-4.014-2.586-3.91h1.56Zm11.199 6.57v-4.08c0-.312-.063-.583-.19-.813a1.247 1.247 0 0 0-.557-.541c-.249-.127-.557-.19-.923-.19-.342 0-.642.058-.901.175a1.57 1.57 0 0 0-.6.461 1.01 1.01 0 0 0-.213.616h-1.355a1.8 1.8 0 0 1 .22-.843c.147-.278.357-.53.63-.754.278-.23.61-.41.996-.542a3.928 3.928 0 0 1 1.304-.205c.576 0 1.084.097 1.523.293.445.195.791.49 1.04.886.254.39.381.881.381 1.472v3.692c0 .263.022.544.066.842.049.298.12.554.213.769v.117h-1.414a2.545 2.545 0 0 1-.161-.623 5.032 5.032 0 0 1-.059-.732Zm.235-3.45.014.953h-1.369c-.386 0-.73.031-1.033.095a2.36 2.36 0 0 0-.762.27 1.294 1.294 0 0 0-.469.462c-.107.18-.161.393-.161.637 0 .25.056.477.169.682.112.205.281.368.505.49.23.117.51.176.842.176a2.23 2.23 0 0 0 1.099-.264c.317-.175.569-.39.754-.644.191-.254.293-.5.308-.74l.579.652a1.973 1.973 0 0 1-.279.681 3.274 3.274 0 0 1-1.501 1.282c-.342.146-.728.22-1.157.22-.537 0-1.009-.105-1.414-.315-.4-.21-.713-.491-.937-.843a2.228 2.228 0 0 1-.33-1.194c0-.424.083-.798.249-1.12a2.16 2.16 0 0 1 .718-.813 3.39 3.39 0 0 1 1.128-.498 5.96 5.96 0 0 1 1.472-.169h1.575Zm8.547-3.12v1.12h-3.831v-1.12h3.831Zm1.194 0v7.925h-1.355v-7.925h1.355Zm-5.354 0h1.362l-.205 3.823c-.034.591-.09 1.114-.168 1.568-.074.45-.176.835-.308 1.157a2.42 2.42 0 0 1-.483.791c-.191.2-.42.35-.689.447-.268.093-.579.14-.93.14h-.425v-1.195l.293-.022c.21-.014.388-.063.535-.146.151-.083.278-.205.381-.366.102-.166.185-.379.249-.638a5.85 5.85 0 0 0 .153-.922c.039-.357.069-.772.088-1.246l.147-3.39Zm9.001 5.78 3.655-5.78h1.362v7.925h-1.362v-5.779l-3.655 5.78h-1.347v-7.926h1.347v5.78Zm12.569-2.345v1.099h-4.19V77.37h4.19Zm-3.904-3.435v7.925h-1.355v-7.925h1.355Zm5.002 0v7.925h-1.362v-7.925h1.362Zm5.354 6.958c.323 0 .62-.066.894-.197.273-.132.498-.313.674-.542.175-.235.276-.5.3-.799h1.289a2.413 2.413 0 0 1-.476 1.311c-.288.4-.667.725-1.135.974a3.297 3.297 0 0 1-1.546.367c-.595 0-1.115-.105-1.56-.315a3.095 3.095 0 0 1-1.098-.865 3.834 3.834 0 0 1-.652-1.26 5.302 5.302 0 0 1-.213-1.515v-.308c0-.532.071-1.035.213-1.509.146-.478.363-.9.652-1.267a3.093 3.093 0 0 1 1.098-.864c.445-.21.965-.315 1.56-.315.62 0 1.162.127 1.626.38.464.25.828.591 1.092 1.026.268.43.415.918.439 1.465h-1.289a1.948 1.948 0 0 0-.278-.886 1.737 1.737 0 0 0-.645-.63 1.8 1.8 0 0 0-.945-.242c-.415 0-.764.083-1.047.25a1.84 1.84 0 0 0-.667.658 3.073 3.073 0 0 0-.351.916 4.99 4.99 0 0 0-.103 1.018v.308c0 .346.034.688.103 1.025.068.337.183.642.344.915.166.274.388.494.667.66.283.16.634.241 1.054.241Zm6.153-6.958v7.925h-1.355v-7.925h1.355Zm5.2 0-3.758 4.541h-1.897l-.205-1.186h1.553l2.659-3.355h1.648Zm-1.458 7.925-2.915-3.589.872-.981 3.764 4.57h-1.721Zm4.366-2.146 3.654-5.779h1.363v7.925h-1.363v-5.779l-3.654 5.78h-1.348v-7.926h1.348v5.78Zm8.657 0 3.655-5.779h1.362v7.925h-1.362v-5.779l-3.655 5.78h-1.348v-7.926h1.348v5.78Zm2.915-8.65h1.098c0 .381-.087.72-.263 1.018a1.817 1.817 0 0 1-.755.689c-.327.166-.715.249-1.164.249-.679 0-1.216-.18-1.612-.542-.39-.366-.585-.838-.585-1.414h1.098c0 .288.083.542.249.762.166.22.449.33.85.33.39 0 .669-.11.835-.33a1.23 1.23 0 0 0 .249-.762ZM347.25 120.996v10.664h-1.391v-10.664h1.391Zm3.428 0v1.157h-8.24v-1.157h8.24Zm1.524 5.464h2.38c.64 0 1.179.112 1.619.337.439.219.771.525.996.915.229.386.344.825.344 1.319 0 .366-.063.71-.19 1.032a2.313 2.313 0 0 1-.572.835c-.249.24-.559.428-.93.564a3.725 3.725 0 0 1-1.267.198h-3.369v-7.925h1.355v6.812h2.014c.391 0 .703-.071.938-.213.234-.141.402-.324.505-.549a1.684 1.684 0 0 0 0-1.406 1.322 1.322 0 0 0-.505-.572c-.235-.156-.547-.234-.938-.234h-2.38v-1.113Zm8.159-2.725v7.925h-1.355v-7.925h1.355Zm6.929 6.123 2.695-6.123h1.304l-3.531 7.925h-.937l-3.516-7.925h1.304l2.681 6.123Zm-3.077-6.123v7.925h-1.355v-7.925h1.355Zm6.109 7.925v-7.925h1.362v7.925h-1.362Zm3.186-3.874v-.169c0-.571.083-1.101.249-1.589.166-.493.405-.921.718-1.282a3.213 3.213 0 0 1 1.135-.85 3.523 3.523 0 0 1 1.494-.307c.557 0 1.057.102 1.501.307.45.201.831.484 1.143.85.317.361.559.789.725 1.282.166.488.249 1.018.249 1.589v.169c0 .571-.083 1.101-.249 1.589a3.82 3.82 0 0 1-.725 1.282 3.321 3.321 0 0 1-1.135.849c-.44.2-.938.301-1.494.301a3.623 3.623 0 0 1-1.502-.301 3.396 3.396 0 0 1-1.142-.849 3.875 3.875 0 0 1-.718-1.282 4.906 4.906 0 0 1-.249-1.589Zm1.355-.169v.169c0 .395.046.769.139 1.12.093.347.232.654.417.923.191.269.428.481.711.637.283.152.613.227.989.227.371 0 .695-.075.974-.227.283-.156.517-.368.703-.637.185-.269.325-.576.417-.923.098-.351.147-.725.147-1.12v-.169c0-.391-.049-.759-.147-1.106a2.839 2.839 0 0 0-.424-.93 2.022 2.022 0 0 0-.704-.645 1.972 1.972 0 0 0-.981-.234c-.371 0-.698.078-.981.234a2.113 2.113 0 0 0-.704.645 2.957 2.957 0 0 0-.417.93 4.253 4.253 0 0 0-.139 1.106Zm11.279.557h-2.6l-.015-1.084h2.124c.42 0 .769-.042 1.048-.125.283-.083.495-.207.637-.373a.913.913 0 0 0 .212-.616.969.969 0 0 0-.124-.498.902.902 0 0 0-.359-.358 1.76 1.76 0 0 0-.601-.213 4.085 4.085 0 0 0-.827-.073h-1.736v6.826h-1.355v-7.925h3.091c.503 0 .954.044 1.355.132.405.088.749.222 1.032.403.288.176.508.4.66.674.151.273.227.595.227.967 0 .239-.049.466-.147.681a1.666 1.666 0 0 1-.432.571 2.33 2.33 0 0 1-.703.41 3.588 3.588 0 0 1-.96.198l-.527.403Zm0 3.486h-3.091l.674-1.099h2.417c.376 0 .689-.046.938-.139.249-.097.434-.234.556-.41.127-.181.191-.395.191-.644s-.064-.462-.191-.638a1.118 1.118 0 0 0-.556-.41c-.249-.097-.562-.146-.938-.146h-2.058l.015-1.084h2.57l.491.41c.435.034.803.141 1.106.322.303.181.532.41.689.689.156.273.234.571.234.893 0 .371-.071.698-.212.982-.137.283-.337.52-.601.71a2.941 2.941 0 0 1-.959.425 5.325 5.325 0 0 1-1.275.139Zm8.035-.967c.322 0 .62-.066.893-.198.274-.131.498-.312.674-.542a1.5 1.5 0 0 0 .3-.798h1.289a2.411 2.411 0 0 1-.476 1.311 3.24 3.24 0 0 1-1.135.974 3.297 3.297 0 0 1-1.545.367c-.596 0-1.116-.105-1.56-.315a3.083 3.083 0 0 1-1.099-.865 3.874 3.874 0 0 1-.652-1.259 5.342 5.342 0 0 1-.212-1.517v-.307c0-.532.071-1.035.212-1.509.147-.478.364-.901.652-1.267a3.091 3.091 0 0 1 1.099-.864c.444-.21.964-.315 1.56-.315.62 0 1.162.127 1.626.381.464.249.827.59 1.091 1.025.269.43.415.918.439 1.465h-1.289a1.945 1.945 0 0 0-.278-.886 1.731 1.731 0 0 0-.644-.63 1.805 1.805 0 0 0-.945-.242c-.415 0-.764.083-1.048.249-.278.161-.5.381-.666.659a3.11 3.11 0 0 0-.352.916 5.058 5.058 0 0 0-.102 1.018v.307c0 .347.034.689.102 1.026.069.337.183.642.345.915.166.274.388.494.666.66.283.161.635.241 1.055.241Zm6.152-6.958v7.925h-1.355v-7.925h1.355Zm5.2 0-3.757 4.541h-1.897l-.205-1.186h1.553l2.658-3.355h1.648Zm-1.457 7.925-2.915-3.589.871-.981 3.765 4.57h-1.721Zm2.38-3.874v-.169c0-.571.083-1.101.249-1.589.166-.493.405-.921.718-1.282a3.213 3.213 0 0 1 1.135-.85 3.53 3.53 0 0 1 1.494-.307c.557 0 1.057.102 1.502.307.449.201.83.484 1.142.85a3.7 3.7 0 0 1 .725 1.282c.166.488.25 1.018.25 1.589v.169c0 .571-.084 1.101-.25 1.589a3.803 3.803 0 0 1-.725 1.282 3.321 3.321 0 0 1-1.135.849c-.439.2-.937.301-1.494.301a3.615 3.615 0 0 1-1.501-.301 3.39 3.39 0 0 1-1.143-.849 3.875 3.875 0 0 1-.718-1.282 4.906 4.906 0 0 1-.249-1.589Zm1.355-.169v.169c0 .395.047.769.139 1.12.093.347.232.654.418.923.19.269.427.481.71.637.283.152.613.227.989.227a2 2 0 0 0 .974-.227c.283-.156.518-.368.703-.637.186-.269.325-.576.418-.923.097-.351.146-.725.146-1.12v-.169c0-.391-.049-.759-.146-1.106a2.861 2.861 0 0 0-.425-.93 2.027 2.027 0 0 0-.703-.645 1.979 1.979 0 0 0-.982-.234c-.371 0-.698.078-.981.234a2.11 2.11 0 0 0-.703.645 2.936 2.936 0 0 0-.418.93 4.296 4.296 0 0 0-.139 1.106Zm10.847 4.19a3.89 3.89 0 0 1-1.501-.279 3.386 3.386 0 0 1-1.15-.798 3.542 3.542 0 0 1-.732-1.216 4.456 4.456 0 0 1-.257-1.538v-.308c0-.644.095-1.218.286-1.721.19-.508.449-.937.776-1.289a3.321 3.321 0 0 1 1.113-.798 3.194 3.194 0 0 1 1.29-.271c.566 0 1.054.097 1.464.293.415.195.755.468 1.018.82.264.347.459.757.586 1.23.127.469.191.982.191 1.539v.607h-5.918v-1.105h4.563v-.103a3.387 3.387 0 0 0-.22-1.025 1.843 1.843 0 0 0-.586-.821c-.268-.215-.635-.322-1.098-.322a1.844 1.844 0 0 0-1.517.769 2.9 2.9 0 0 0-.432.93 4.737 4.737 0 0 0-.154 1.267v.308c0 .376.052.73.154 1.062.108.327.262.615.462.864.205.249.451.445.739.586.293.142.625.213.997.213.478 0 .883-.098 1.215-.293.332-.196.623-.457.872-.784l.82.652a3.798 3.798 0 0 1-.652.74 3.116 3.116 0 0 1-.974.571c-.381.146-.832.22-1.355.22Zm24.549-13.026v1.149h-5.771v-1.149h5.771Zm-5.552-4.585v10.664h-1.413v-10.664h1.413Zm6.783 0v10.664h-1.407v-10.664h1.407Zm1.948 6.789v-.168c0-.572.083-1.101.249-1.59.166-.493.405-.92.718-1.281a3.19 3.19 0 0 1 1.135-.85 3.523 3.523 0 0 1 1.494-.308 3.54 3.54 0 0 1 1.501.308c.45.2.831.483 1.143.85.317.361.559.788.725 1.281.166.489.249 1.018.249 1.59v.168c0 .571-.083 1.101-.249 1.589a3.801 3.801 0 0 1-.725 1.282 3.311 3.311 0 0 1-1.135.85c-.44.2-.938.3-1.494.3-.557 0-1.057-.1-1.502-.3a3.386 3.386 0 0 1-1.142-.85 3.855 3.855 0 0 1-.718-1.282 4.906 4.906 0 0 1-.249-1.589Zm1.355-.168v.168c0 .396.046.769.139 1.121.093.346.232.654.417.923.191.268.428.481.711.637.283.151.613.227.989.227.371 0 .695-.076.974-.227.283-.156.517-.369.703-.637.185-.269.325-.577.417-.923.098-.352.147-.725.147-1.121v-.168c0-.391-.049-.76-.147-1.106a2.83 2.83 0 0 0-.424-.93 2.012 2.012 0 0 0-.704-.645 1.972 1.972 0 0 0-.981-.234c-.371 0-.698.078-.981.234a2.102 2.102 0 0 0-.704.645 2.946 2.946 0 0 0-.417.93 4.248 4.248 0 0 0-.139 1.106Zm12.678-3.882v1.12h-3.662v6.805h-1.355v-7.925h5.017Zm6.182 0v1.12h-3.831v-1.12h3.831Zm1.194 0v7.925h-1.355v-7.925h1.355Zm-5.354 0h1.362l-.205 3.823a14.125 14.125 0 0 1-.169 1.567c-.073.45-.175.835-.307 1.158a2.407 2.407 0 0 1-.484.791c-.19.2-.42.349-.688.446-.269.093-.579.14-.93.14h-.425v-1.194l.293-.022a1.25 1.25 0 0 0 .534-.147 1.04 1.04 0 0 0 .381-.366c.103-.166.186-.378.249-.637a5.76 5.76 0 0 0 .154-.923c.039-.356.069-.771.088-1.245l.147-3.391Zm9.001 5.779 3.655-5.779h1.362v7.925h-1.362v-5.779l-3.655 5.779h-1.348v-7.925h1.348v5.779Zm8.665-5.779v7.925h-1.355v-7.925h1.355Zm5.2 0-3.758 4.541h-1.897l-.205-1.187h1.553l2.659-3.354h1.648Zm-1.458 7.925-2.915-3.589.872-.982 3.764 4.571h-1.721Zm4.365-2.146 3.655-5.779h1.363v7.925h-1.363v-5.779l-3.655 5.779h-1.347v-7.925h1.347v5.779Zm-276.534 33.755h1.406a4.482 4.482 0 0 1-.579 1.809 3.384 3.384 0 0 1-1.325 1.267c-.572.307-1.284.461-2.139.461a4.058 4.058 0 0 1-1.706-.351 3.807 3.807 0 0 1-1.312-.997 4.65 4.65 0 0 1-.849-1.56 6.666 6.666 0 0 1-.293-2.036V154c0-.747.098-1.423.293-2.029.2-.61.486-1.132.857-1.567a3.807 3.807 0 0 1 1.355-1.003c.527-.235 1.12-.352 1.78-.352.805 0 1.486.151 2.043.454.557.303.989.723 1.296 1.26.313.532.506 1.15.579 1.853h-1.406c-.069-.498-.196-.925-.381-1.282a1.987 1.987 0 0 0-.791-.835c-.342-.195-.789-.293-1.34-.293-.474 0-.892.091-1.253.271a2.529 2.529 0 0 0-.901.769c-.239.332-.42.73-.542 1.194a6.076 6.076 0 0 0-.183 1.546v1.076c0 .523.054 1.013.161 1.472.113.459.281.862.506 1.209.224.347.51.62.857.82.346.196.756.293 1.23.293.601 0 1.079-.095 1.436-.285.356-.191.625-.464.805-.821.186-.356.318-.783.396-1.281Zm7.683 1.589 2.695-6.123h1.304l-3.53 7.925h-.938l-3.515-7.925h1.303l2.681 6.123Zm-3.076-6.123v7.925h-1.355v-7.925h1.355Zm6.108 7.925v-7.925h1.362v7.925h-1.362Zm5.01-2.146 3.655-5.779h1.362v7.925h-1.362v-5.779l-3.655 5.779h-1.348v-7.925h1.348v5.779Zm8.547-4.256v9.448h-1.362v-10.971h1.245l.117 1.523Zm5.34 2.373v.154c0 .576-.069 1.111-.205 1.604a3.956 3.956 0 0 1-.601 1.275 2.735 2.735 0 0 1-.96.842c-.38.2-.817.3-1.311.3-.503 0-.947-.083-1.333-.249a2.641 2.641 0 0 1-.981-.725 3.703 3.703 0 0 1-.645-1.143 6.636 6.636 0 0 1-.322-1.501v-.82a6.923 6.923 0 0 1 .33-1.575c.161-.464.373-.859.637-1.187.269-.332.593-.583.974-.754.381-.176.82-.264 1.318-.264.499 0 .94.098 1.326.293.386.191.711.464.974.821.264.356.462.783.594 1.281a6.2 6.2 0 0 1 .205 1.648Zm-1.363.154v-.154c0-.395-.041-.766-.124-1.113a2.83 2.83 0 0 0-.388-.923 1.86 1.86 0 0 0-.66-.63c-.268-.156-.588-.234-.959-.234-.342 0-.64.059-.894.176a1.934 1.934 0 0 0-.637.476c-.176.195-.32.42-.432.674a3.905 3.905 0 0 0-.242.776v1.897c.098.342.235.664.411.967.175.298.41.539.703.725.293.18.661.271 1.106.271.366 0 .681-.076.944-.227.269-.156.489-.369.66-.637.175-.269.305-.577.388-.923.083-.352.124-.725.124-1.121Zm8.467-.615v1.099h-4.189v-1.099h4.189Zm-3.904-3.435v7.925h-1.355v-7.925h1.355Zm5.003 0v7.925h-1.363v-7.925h1.363Zm3.296 2.724h2.38c.64 0 1.179.113 1.619.337.439.22.771.525.996.916.229.386.344.825.344 1.318 0 .366-.064.711-.19 1.033a2.322 2.322 0 0 1-.572.835 2.646 2.646 0 0 1-.93.564 3.725 3.725 0 0 1-1.267.198h-3.369v-7.925h1.355v6.811h2.014c.391 0 .703-.07.937-.212.235-.142.403-.325.506-.549a1.685 1.685 0 0 0 0-1.407 1.316 1.316 0 0 0-.506-.571c-.234-.156-.546-.234-.937-.234h-2.38v-1.114Zm8.159-2.724v7.925h-1.355v-7.925h1.355Zm3.288 0 1.736 2.886 1.758-2.886h1.589l-2.592 3.911 2.673 4.014h-1.567L266 156.886l-1.832 2.974h-1.574l2.666-4.014-2.586-3.911h1.56Zm-50.852 50.261v10.664h-1.406v-9.507h-5.259v9.507h-1.413v-10.664h8.078Zm2 6.789v-.168c0-.572.083-1.101.249-1.59.166-.493.405-.92.718-1.281a3.19 3.19 0 0 1 1.135-.85 3.523 3.523 0 0 1 1.494-.308 3.54 3.54 0 0 1 1.501.308c.45.2.831.483 1.143.85.317.361.559.788.725 1.281.166.489.249 1.018.249 1.59v.168c0 .571-.083 1.101-.249 1.589a3.801 3.801 0 0 1-.725 1.282 3.311 3.311 0 0 1-1.135.85c-.44.2-.938.3-1.494.3-.557 0-1.057-.1-1.502-.3a3.386 3.386 0 0 1-1.142-.85 3.855 3.855 0 0 1-.718-1.282 4.906 4.906 0 0 1-.249-1.589Zm1.355-.168v.168c0 .396.046.769.139 1.121.093.346.232.654.417.923.191.268.428.481.711.637.283.151.613.227.989.227.371 0 .695-.076.974-.227.283-.156.517-.369.703-.637.185-.269.325-.577.417-.923.098-.352.147-.725.147-1.121v-.168c0-.391-.049-.76-.147-1.106a2.83 2.83 0 0 0-.424-.93 2.012 2.012 0 0 0-.704-.645 1.972 1.972 0 0 0-.981-.234c-.371 0-.698.078-.981.234a2.102 2.102 0 0 0-.704.645 2.946 2.946 0 0 0-.417.93 4.248 4.248 0 0 0-.139 1.106Zm8.913-2.359v9.448h-1.362v-10.971h1.245l.117 1.523Zm5.34 2.373v.154c0 .576-.069 1.111-.205 1.604a3.956 3.956 0 0 1-.601 1.275 2.74 2.74 0 0 1-.959.842c-.381.2-.818.3-1.311.3-.503 0-.948-.083-1.333-.249a2.636 2.636 0 0 1-.982-.725 3.702 3.702 0 0 1-.644-1.143 6.581 6.581 0 0 1-.323-1.501v-.82a6.923 6.923 0 0 1 .33-1.575c.161-.464.373-.859.637-1.187.269-.332.593-.583.974-.754.381-.176.821-.264 1.319-.264s.94.098 1.325.293c.386.191.711.464.974.821.264.356.462.783.594 1.281a6.2 6.2 0 0 1 .205 1.648Zm-1.363.154v-.154c0-.395-.041-.766-.124-1.113a2.808 2.808 0 0 0-.388-.923 1.864 1.864 0 0 0-.659-.63c-.269-.156-.589-.234-.96-.234-.342 0-.64.059-.893.176a1.937 1.937 0 0 0-.638.476c-.175.195-.319.42-.432.674a3.838 3.838 0 0 0-.241.776v1.897c.097.342.234.664.41.967.175.298.41.539.703.725.293.18.661.271 1.106.271.366 0 .681-.076.945-.227a1.92 1.92 0 0 0 .659-.637c.176-.269.305-.577.388-.923.083-.352.124-.725.124-1.121Zm2.732 0v-.168c0-.572.083-1.101.249-1.59a3.78 3.78 0 0 1 .718-1.281c.313-.367.691-.65 1.135-.85a3.53 3.53 0 0 1 1.495-.308c.556 0 1.057.103 1.501.308.449.2.83.483 1.143.85.317.361.559.788.725 1.281.166.489.249 1.018.249 1.59v.168c0 .571-.083 1.101-.249 1.589a3.801 3.801 0 0 1-.725 1.282 3.315 3.315 0 0 1-1.136.85c-.439.2-.937.3-1.494.3-.556 0-1.057-.1-1.501-.3a3.39 3.39 0 0 1-1.143-.85 3.872 3.872 0 0 1-.718-1.282 4.906 4.906 0 0 1-.249-1.589Zm1.355-.168v.168c0 .396.047.769.14 1.121.092.346.231.654.417.923.19.268.427.481.71.637.284.151.613.227.989.227.371 0 .696-.076.974-.227.284-.156.518-.369.703-.637.186-.269.325-.577.418-.923.098-.352.146-.725.146-1.121v-.168c0-.391-.048-.76-.146-1.106a2.83 2.83 0 0 0-.425-.93 2.01 2.01 0 0 0-.703-.645 1.972 1.972 0 0 0-.981-.234 2 2 0 0 0-.982.234 2.1 2.1 0 0 0-.703.645 2.902 2.902 0 0 0-.417.93c-.093.346-.14.715-.14 1.106Zm12.935-.447v1.099h-4.19v-1.099h4.19Zm-3.904-3.435v7.925h-1.355v-7.925h1.355Zm5.003 0v7.925h-1.363v-7.925h1.363Zm6.855 6.57v-4.08c0-.312-.063-.583-.19-.813a1.249 1.249 0 0 0-.557-.542c-.249-.127-.557-.19-.923-.19-.342 0-.642.058-.901.175a1.566 1.566 0 0 0-.6.462c-.142.19-.213.395-.213.615h-1.355c0-.283.074-.564.22-.842.146-.279.356-.53.63-.755.278-.229.61-.41.996-.542a3.946 3.946 0 0 1 1.304-.205c.576 0 1.084.098 1.523.293.444.196.791.491 1.04.887.254.39.381.881.381 1.472v3.691c0 .264.022.545.066.842.049.298.12.555.212.769v.118h-1.413a2.511 2.511 0 0 1-.161-.623 5.038 5.038 0 0 1-.059-.732Zm.234-3.45.015.952h-1.37c-.385 0-.73.032-1.032.095a2.372 2.372 0 0 0-.762.271 1.291 1.291 0 0 0-.469.462c-.107.18-.161.393-.161.637 0 .249.056.476.169.681.112.205.28.369.505.491.229.117.51.176.842.176.415 0 .781-.088 1.099-.264.317-.176.569-.391.754-.645.191-.254.293-.5.308-.739l.578.651a1.947 1.947 0 0 1-.278.682 3.232 3.232 0 0 1-.608.717 3.27 3.27 0 0 1-.893.564c-.342.147-.728.22-1.158.22-.537 0-1.008-.105-1.413-.315a2.42 2.42 0 0 1-.938-.842 2.239 2.239 0 0 1-.329-1.194c0-.425.083-.798.249-1.121.166-.327.405-.598.718-.813a3.43 3.43 0 0 1 1.128-.498c.439-.112.93-.168 1.472-.168h1.574Zm4.717 2.659 3.655-5.779h1.362v7.925h-1.362v-5.779l-3.655 5.779h-1.347v-7.925h1.347v5.779Zm2.915-8.65h1.099c0 .381-.088.72-.264 1.018a1.812 1.812 0 0 1-.754.688c-.327.166-.716.249-1.165.249-.678 0-1.216-.18-1.611-.542-.391-.366-.586-.837-.586-1.413h1.099c0 .288.083.542.249.761.166.22.449.33.849.33.391 0 .669-.11.835-.33.166-.219.249-.473.249-.761Zm7.449 9.829c.322 0 .62-.066.894-.198.273-.132.498-.312.673-.542.176-.234.276-.5.301-.798h1.289a2.425 2.425 0 0 1-.476 1.311c-.288.4-.667.725-1.136.974a3.294 3.294 0 0 1-1.545.366c-.596 0-1.116-.105-1.56-.315a3.091 3.091 0 0 1-1.099-.864 3.869 3.869 0 0 1-.652-1.26 5.335 5.335 0 0 1-.212-1.516v-.308c0-.532.071-1.035.212-1.508.147-.479.364-.901.652-1.267a3.083 3.083 0 0 1 1.099-.865c.444-.21.964-.315 1.56-.315.62 0 1.162.127 1.626.381.464.249.828.591 1.091 1.026.269.429.415.918.44 1.464h-1.289a1.962 1.962 0 0 0-.279-.886 1.805 1.805 0 0 0-1.589-.871c-.415 0-.764.083-1.047.249-.279.161-.501.38-.667.659a3.065 3.065 0 0 0-.351.915 4.994 4.994 0 0 0-.103 1.018v.308c0 .347.034.689.103 1.025.068.337.183.643.344.916.166.273.388.493.666.659.283.161.635.242 1.055.242Zm6.152-6.958v7.925h-1.355v-7.925h1.355Zm5.201 0-3.758 4.541h-1.897l-.205-1.187h1.553l2.659-3.354h1.648Zm-1.458 7.925-2.915-3.589.872-.982 3.764 4.571h-1.721Zm-134.128-42.664h1.369l3.494 8.693 3.486-8.693h1.377l-4.336 10.664h-1.069l-4.321-10.664Zm-.447 0h1.208l.198 6.503v4.161h-1.406v-10.664Zm9.404 0h1.209v10.664h-1.407v-4.161l.198-6.503Zm8.159 9.309v-4.08c0-.312-.063-.583-.19-.813a1.249 1.249 0 0 0-.557-.542c-.249-.127-.556-.19-.923-.19-.341 0-.642.058-.901.175a1.573 1.573 0 0 0-.6.462c-.142.19-.213.395-.213.615h-1.355c0-.283.074-.564.22-.842.147-.279.357-.53.63-.755.278-.229.61-.41.996-.542a3.946 3.946 0 0 1 1.304-.205c.576 0 1.084.098 1.523.293.445.196.791.491 1.04.887.254.39.381.881.381 1.472v3.691c0 .264.022.545.066.842.049.298.12.555.213.769v.118h-1.414a2.556 2.556 0 0 1-.161-.623 5.038 5.038 0 0 1-.059-.732Zm.235-3.45.014.952h-1.369c-.386 0-.73.032-1.033.095a2.372 2.372 0 0 0-.762.271 1.291 1.291 0 0 0-.469.462c-.107.18-.161.393-.161.637 0 .249.056.476.169.681.112.205.281.369.505.491.23.117.51.176.842.176.416 0 .782-.088 1.099-.264.317-.176.569-.391.754-.645.191-.254.293-.5.308-.739l.579.651a1.95 1.95 0 0 1-.279.682 3.232 3.232 0 0 1-.608.717 3.255 3.255 0 0 1-.893.564c-.342.147-.728.22-1.157.22-.537 0-1.009-.105-1.414-.315-.4-.21-.713-.491-.937-.842a2.23 2.23 0 0 1-.33-1.194c0-.425.083-.798.249-1.121.166-.327.405-.598.718-.813a3.43 3.43 0 0 1 1.128-.498c.439-.112.93-.168 1.472-.168h1.575Zm4.724-3.12v7.925h-1.355v-7.925h1.355Zm5.2 0-3.757 4.541h-1.897l-.205-1.187h1.552l2.659-3.354h1.648Zm-1.458 7.925-2.915-3.589.872-.982 3.765 4.571h-1.722Zm7.574-1.355v-4.08c0-.312-.064-.583-.191-.813a1.247 1.247 0 0 0-.556-.542c-.249-.127-.557-.19-.923-.19-.342 0-.642.058-.901.175a1.577 1.577 0 0 0-.601.462c-.141.19-.212.395-.212.615h-1.355c0-.283.073-.564.22-.842.146-.279.356-.53.63-.755.278-.229.61-.41.996-.542a3.94 3.94 0 0 1 1.303-.205c.576 0 1.084.098 1.524.293.444.196.791.491 1.04.887.254.39.381.881.381 1.472v3.691c0 .264.022.545.066.842.048.298.119.555.212.769v.118h-1.414a2.556 2.556 0 0 1-.161-.623 5.029 5.029 0 0 1-.058-.732Zm.234-3.45.015.952h-1.37c-.386 0-.73.032-1.033.095a2.374 2.374 0 0 0-.761.271 1.216 1.216 0 0 0-.63 1.099c0 .249.056.476.168.681.113.205.281.369.506.491.229.117.51.176.842.176.415 0 .781-.088 1.099-.264.317-.176.568-.391.754-.645.19-.254.293-.5.308-.739l.578.651a1.966 1.966 0 0 1-.278.682 3.259 3.259 0 0 1-.608.717 3.26 3.26 0 0 1-.894.564c-.341.147-.727.22-1.157.22-.537 0-1.008-.105-1.413-.315a2.42 2.42 0 0 1-.938-.842 2.23 2.23 0 0 1-.33-1.194c0-.425.083-.798.249-1.121a2.17 2.17 0 0 1 .718-.813 3.449 3.449 0 0 1 1.128-.498c.44-.112.93-.168 1.472-.168h1.575Zm4.607-1.597v9.448h-1.362v-10.971h1.245l.117 1.523Zm5.339 2.373v.154c0 .576-.068 1.111-.205 1.604a3.954 3.954 0 0 1-.6 1.275 2.735 2.735 0 0 1-.96.842c-.381.2-.818.3-1.311.3-.503 0-.947-.083-1.333-.249a2.625 2.625 0 0 1-.981-.725 3.683 3.683 0 0 1-.645-1.143 6.636 6.636 0 0 1-.322-1.501v-.82a6.87 6.87 0 0 1 .33-1.575c.161-.464.373-.859.637-1.187a2.61 2.61 0 0 1 .974-.754c.381-.176.82-.264 1.318-.264.498 0 .94.098 1.326.293.386.191.71.464.974.821.264.356.461.783.593 1.281a6.16 6.16 0 0 1 .205 1.648Zm-1.362.154v-.154c0-.395-.041-.766-.124-1.113a2.809 2.809 0 0 0-.389-.923 1.856 1.856 0 0 0-.659-.63c-.268-.156-.588-.234-.959-.234-.342 0-.64.059-.894.176a1.934 1.934 0 0 0-.637.476c-.176.195-.32.42-.432.674a3.84 3.84 0 0 0-.242.776v1.897c.098.342.234.664.41.967.176.298.41.539.703.725.293.18.662.271 1.106.271.367 0 .681-.076.945-.227.269-.156.488-.369.659-.637.176-.269.306-.577.389-.923.083-.352.124-.725.124-1.121Zm2.732 0v-.168c0-.572.083-1.101.249-1.59.166-.493.405-.92.718-1.281a3.19 3.19 0 0 1 1.135-.85 3.523 3.523 0 0 1 1.494-.308c.557 0 1.057.103 1.502.308.449.2.83.483 1.142.85.318.361.559.788.725 1.281.166.489.249 1.018.249 1.59v.168c0 .571-.083 1.101-.249 1.589a3.784 3.784 0 0 1-.725 1.282 3.311 3.311 0 0 1-1.135.85c-.439.2-.938.3-1.494.3-.557 0-1.057-.1-1.502-.3a3.386 3.386 0 0 1-1.142-.85 3.855 3.855 0 0 1-.718-1.282 4.906 4.906 0 0 1-.249-1.589Zm1.355-.168v.168c0 .396.046.769.139 1.121.093.346.232.654.418.923.19.268.427.481.71.637.283.151.613.227.989.227.371 0 .696-.076.974-.227.283-.156.518-.369.703-.637.186-.269.325-.577.418-.923.097-.352.146-.725.146-1.121v-.168c0-.391-.049-.76-.146-1.106a2.851 2.851 0 0 0-.425-.93 2.018 2.018 0 0 0-.703-.645 1.979 1.979 0 0 0-.982-.234c-.371 0-.698.078-.981.234a2.09 2.09 0 0 0-.703.645 2.926 2.926 0 0 0-.418.93 4.248 4.248 0 0 0-.139 1.106Zm11.279.556h-2.6l-.014-1.084h2.124c.419 0 .769-.041 1.047-.124.283-.083.495-.208.637-.374a.913.913 0 0 0 .213-.615.97.97 0 0 0-.125-.498.904.904 0 0 0-.359-.359 1.762 1.762 0 0 0-.6-.212 4.096 4.096 0 0 0-.828-.074h-1.736v6.827h-1.355v-7.925h3.091c.503 0 .954.044 1.355.132.405.088.749.222 1.033.402.288.176.507.401.659.674.151.274.227.596.227.967 0 .239-.049.466-.147.681a1.657 1.657 0 0 1-.432.572c-.19.166-.425.302-.703.41a3.63 3.63 0 0 1-.959.197l-.528.403Zm0 3.487h-3.091l.674-1.099h2.417c.376 0 .689-.046.938-.139.249-.098.434-.235.556-.41.127-.181.191-.396.191-.645s-.064-.461-.191-.637c-.122-.181-.307-.317-.556-.41-.249-.098-.562-.147-.938-.147h-2.058l.015-1.084h2.571l.49.41c.435.035.804.142 1.106.323.303.18.533.41.689.688.156.274.234.571.234.894 0 .371-.071.698-.212.981-.137.283-.337.52-.601.711a2.93 2.93 0 0 1-.959.424c-.376.093-.801.14-1.275.14Zm-72.221 41.012h-2.703l-.014-1.135h2.453c.406 0 .76-.069 1.062-.206.303-.136.538-.332.704-.585.17-.259.256-.567.256-.923 0-.391-.076-.708-.227-.952a1.258 1.258 0 0 0-.681-.542c-.303-.118-.689-.176-1.158-.176h-2.08v9.507h-1.413v-10.664h3.493c.547 0 1.036.056 1.465.168.43.107.794.278 1.092.513.302.229.532.522.688.879.156.356.234.783.234 1.281 0 .44-.112.838-.336 1.194-.225.352-.538.64-.938.864-.395.225-.859.369-1.392.433l-.505.344Zm-.066 4.988h-3.193l.798-1.15h2.395c.449 0 .83-.078 1.143-.235.317-.156.559-.376.725-.659.166-.288.249-.627.249-1.018 0-.395-.071-.737-.213-1.025a1.463 1.463 0 0 0-.666-.667c-.303-.156-.693-.234-1.172-.234h-2.014l.015-1.135h2.753l.301.41c.512.044.947.19 1.303.439.357.244.628.557.813.938.191.381.286.8.286 1.259 0 .665-.146 1.226-.439 1.685a2.752 2.752 0 0 1-1.224 1.04c-.527.234-1.147.352-1.86.352Zm8.364-3.787h-1.457v-.835h1.348c.376 0 .673-.046.893-.139.22-.098.376-.232.469-.403.093-.171.139-.371.139-.601 0-.205-.054-.397-.161-.578a1.096 1.096 0 0 0-.498-.447c-.23-.117-.537-.176-.923-.176-.313 0-.596.056-.85.169a1.504 1.504 0 0 0-.608.447.99.99 0 0 0-.219.629h-1.355c0-.483.136-.898.41-1.245a2.702 2.702 0 0 1 1.106-.813c.464-.19.969-.285 1.516-.285.459 0 .869.051 1.23.153.367.098.677.245.931.44.254.19.446.43.578.718.137.283.205.612.205.988a1.6 1.6 0 0 1-.19.762c-.127.239-.31.452-.549.637-.24.181-.53.323-.872.425a3.908 3.908 0 0 1-1.143.154Zm-1.457-.513h1.457a5.1 5.1 0 0 1 1.253.139c.361.088.664.22.908.396.244.176.427.393.549.652.127.254.191.547.191.879a2.108 2.108 0 0 1-.857 1.75 2.955 2.955 0 0 1-.982.469 4.565 4.565 0 0 1-1.252.161 4.33 4.33 0 0 1-1.494-.264 2.77 2.77 0 0 1-1.194-.813c-.313-.371-.469-.842-.469-1.413h1.355c0 .239.076.466.227.681.152.215.362.388.63.52.274.132.589.198.945.198.381 0 .698-.059.952-.176.254-.117.444-.273.571-.469.132-.195.198-.407.198-.637 0-.298-.058-.537-.176-.718a1.001 1.001 0 0 0-.542-.395c-.239-.088-.546-.132-.922-.132h-1.348v-.828Zm10.671 2.498 2.696-6.123h1.303l-3.53 7.925h-.937l-3.516-7.925h1.304l2.68 6.123Zm-3.076-6.123v7.925h-1.355v-7.925h1.355Zm6.108 7.925v-7.925h1.363v7.925h-1.363Zm3.187-3.875v-.168c0-.572.083-1.101.249-1.59.166-.493.405-.92.717-1.281.313-.367.691-.65 1.136-.85a3.523 3.523 0 0 1 1.494-.308c.556 0 1.057.103 1.501.308.449.2.83.483 1.143.85.317.361.559.788.725 1.281.166.489.249 1.018.249 1.59v.168c0 .571-.083 1.101-.249 1.589a3.801 3.801 0 0 1-.725 1.282 3.32 3.32 0 0 1-1.135.85c-.44.2-.938.3-1.495.3-.556 0-1.057-.1-1.501-.3a3.4 3.4 0 0 1-1.143-.85 3.87 3.87 0 0 1-.717-1.282 4.906 4.906 0 0 1-.249-1.589Zm1.355-.168v.168c0 .396.046.769.139 1.121.092.346.232.654.417.923.191.268.427.481.711.637.283.151.612.227.988.227.371 0 .696-.076.974-.227.284-.156.518-.369.704-.637a2.98 2.98 0 0 0 .417-.923c.098-.352.147-.725.147-1.121v-.168c0-.391-.049-.76-.147-1.106a2.83 2.83 0 0 0-.425-.93 2.01 2.01 0 0 0-.703-.645 1.972 1.972 0 0 0-.981-.234c-.371 0-.699.078-.982.234a2.109 2.109 0 0 0-.703.645 2.924 2.924 0 0 0-.417.93 4.248 4.248 0 0 0-.139 1.106Zm8.913-2.359v9.448h-1.362v-10.971h1.245l.117 1.523Zm5.339 2.373v.154c0 .576-.068 1.111-.205 1.604a3.954 3.954 0 0 1-.6 1.275 2.735 2.735 0 0 1-.96.842c-.381.2-.818.3-1.311.3-.503 0-.947-.083-1.333-.249a2.633 2.633 0 0 1-.981-.725 3.683 3.683 0 0 1-.645-1.143 6.636 6.636 0 0 1-.322-1.501v-.82a6.87 6.87 0 0 1 .33-1.575c.161-.464.373-.859.637-1.187a2.61 2.61 0 0 1 .974-.754c.381-.176.82-.264 1.318-.264.498 0 .94.098 1.326.293.386.191.71.464.974.821.264.356.462.783.593 1.281a6.16 6.16 0 0 1 .205 1.648Zm-1.362.154v-.154c0-.395-.041-.766-.124-1.113a2.809 2.809 0 0 0-.389-.923 1.848 1.848 0 0 0-.659-.63c-.268-.156-.588-.234-.959-.234-.342 0-.64.059-.894.176a1.934 1.934 0 0 0-.637.476c-.176.195-.32.42-.432.674a3.84 3.84 0 0 0-.242.776v1.897c.098.342.235.664.41.967.176.298.411.539.703.725.293.18.662.271 1.106.271.367 0 .682-.076.945-.227.269-.156.489-.369.659-.637.176-.269.306-.577.389-.923.083-.352.124-.725.124-1.121Zm4.204-1.326h2.381c.639 0 1.179.113 1.618.337.44.22.772.525.996.916.23.386.345.825.345 1.318 0 .366-.064.711-.191 1.033a2.32 2.32 0 0 1-.571.835 2.646 2.646 0 0 1-.93.564 3.733 3.733 0 0 1-1.267.198h-3.37v-7.925h1.355v6.811h2.015c.39 0 .703-.07.937-.212.234-.142.403-.325.505-.549a1.67 1.67 0 0 0 .154-.704c0-.239-.051-.473-.154-.703a1.314 1.314 0 0 0-.505-.571c-.234-.156-.547-.234-.937-.234h-2.381v-1.114Zm10.32 5.347a3.904 3.904 0 0 1-1.501-.278 3.402 3.402 0 0 1-1.15-.799 3.54 3.54 0 0 1-.733-1.215 4.46 4.46 0 0 1-.256-1.538v-.308c0-.645.095-1.218.286-1.721.19-.508.449-.938.776-1.289a3.324 3.324 0 0 1 1.113-.799 3.21 3.21 0 0 1 1.289-.271c.567 0 1.055.098 1.465.293a2.67 2.67 0 0 1 1.018.821c.264.346.459.756.586 1.23.127.469.191.982.191 1.538v.608h-5.918v-1.106h4.563v-.102a3.393 3.393 0 0 0-.22-1.026 1.847 1.847 0 0 0-.586-.82c-.269-.215-.635-.322-1.099-.322-.307 0-.591.066-.849.197a1.814 1.814 0 0 0-.667.572 2.9 2.9 0 0 0-.432.93 4.692 4.692 0 0 0-.154 1.267v.308c0 .376.051.73.154 1.062.107.327.261.615.461.864.206.249.452.444.74.586.293.141.625.212.996.212.479 0 .884-.098 1.216-.293.332-.195.623-.456.872-.784l.82.652a3.77 3.77 0 0 1-.652.74 3.108 3.108 0 0 1-.974.571c-.381.147-.832.22-1.355.22ZM64.624 208.71v1.15h-8.071v-1.15h8.071Zm-7.844 0v3.772h-1.4l-.007-3.772h1.407Zm9.075 0-.015 3.764h-1.4v-3.764h1.415Zm-2.615-9.514v1.157h-4.673v-1.157h4.673Zm1.216 0v10.664h-1.407v-10.664h1.407Zm-6.373 0h1.414l-.22 4.292c-.029.644-.09 1.24-.183 1.787a12.14 12.14 0 0 1-.344 1.486c-.137.45-.293.853-.469 1.209a5.488 5.488 0 0 1-.564.915c-.2.254-.41.464-.63.63a2.158 2.158 0 0 1-.652.345h-.644v-1.15h.454c.127-.137.271-.335.432-.594.166-.258.33-.593.491-1.003.166-.415.31-.92.432-1.516a13.84 13.84 0 0 0 .256-2.109l.227-4.292Zm8.87 6.789v-.168c0-.572.083-1.101.25-1.59.165-.493.404-.92.717-1.281a3.18 3.18 0 0 1 1.135-.85 3.525 3.525 0 0 1 1.494-.308c.557 0 1.057.103 1.502.308.449.2.83.483 1.142.85.318.361.56.788.725 1.281.166.489.25 1.018.25 1.59v.168c0 .571-.084 1.101-.25 1.589a3.798 3.798 0 0 1-.725 1.282 3.314 3.314 0 0 1-1.135.85c-.44.2-.937.3-1.494.3a3.62 3.62 0 0 1-1.501-.3 3.39 3.39 0 0 1-1.143-.85 3.865 3.865 0 0 1-.718-1.282 4.906 4.906 0 0 1-.249-1.589Zm1.355-.168v.168c0 .396.046.769.14 1.121.092.346.231.654.417.923.19.268.427.481.71.637.283.151.613.227.989.227.371 0 .696-.076.974-.227.283-.156.518-.369.703-.637.186-.269.325-.577.418-.923.097-.352.146-.725.146-1.121v-.168c0-.391-.049-.76-.146-1.106a2.839 2.839 0 0 0-.425-.93 2.013 2.013 0 0 0-.703-.645 1.975 1.975 0 0 0-.982-.234 2 2 0 0 0-.981.234 2.102 2.102 0 0 0-.703.645 2.93 2.93 0 0 0-.418.93 4.248 4.248 0 0 0-.139 1.106Zm12.737-3.882v1.12h-3.83v-1.12h3.83Zm1.194 0v7.925h-1.355v-7.925h1.355Zm-5.354 0h1.362l-.205 3.823c-.034.591-.09 1.113-.168 1.567-.074.45-.176.835-.308 1.158a2.416 2.416 0 0 1-.484.791c-.19.2-.42.349-.688.446-.269.093-.579.14-.93.14h-.425v-1.194l.293-.022c.21-.015.388-.064.535-.147.151-.083.278-.205.38-.366a2.22 2.22 0 0 0 .25-.637 5.77 5.77 0 0 0 .153-.923c.04-.356.069-.771.088-1.245l.147-3.391Zm9.001 5.779 3.655-5.779h1.362v7.925h-1.362v-5.779l-3.655 5.779H84.54v-7.925h1.347v5.779Zm12.569-2.344v1.099h-4.19v-1.099h4.19Zm-3.904-3.435v7.925h-1.355v-7.925h1.355Zm5.002 0v7.925h-1.362v-7.925h1.362Zm5.354 6.958c.322 0 .62-.066.894-.198.273-.132.498-.312.674-.542.175-.234.275-.5.3-.798h1.289a2.417 2.417 0 0 1-.476 1.311 3.259 3.259 0 0 1-2.681 1.34c-.595 0-1.115-.105-1.56-.315a3.096 3.096 0 0 1-1.098-.864 3.83 3.83 0 0 1-.652-1.26 5.3 5.3 0 0 1-.213-1.516v-.308c0-.532.071-1.035.213-1.508.146-.479.363-.901.652-1.267a3.088 3.088 0 0 1 1.098-.865c.445-.21.965-.315 1.56-.315.62 0 1.162.127 1.626.381.464.249.828.591 1.092 1.026.268.429.415.918.439 1.464h-1.289a1.961 1.961 0 0 0-.278-.886 1.757 1.757 0 0 0-.645-.63 1.802 1.802 0 0 0-.945-.241c-.415 0-.764.083-1.047.249-.278.161-.501.38-.667.659a3.065 3.065 0 0 0-.351.915 4.994 4.994 0 0 0-.103 1.018v.308c0 .347.034.689.103 1.025.068.337.183.643.344.916.166.273.388.493.667.659.283.161.634.242 1.054.242Zm6.153-6.958v7.925h-1.355v-7.925h1.355Zm5.2 0-3.758 4.541h-1.897l-.205-1.187h1.553l2.659-3.354h1.648Zm-1.458 7.925-2.915-3.589.872-.982 3.764 4.571h-1.721Zm166.646-88.669v.674c0 .801-.1 1.519-.3 2.153-.2.635-.488 1.175-.864 1.619a3.751 3.751 0 0 1-1.355 1.018 4.259 4.259 0 0 1-1.758.352c-.63 0-1.209-.118-1.736-.352a3.898 3.898 0 0 1-1.362-1.018 4.72 4.72 0 0 1-.886-1.619c-.21-.634-.315-1.352-.315-2.153v-.674c0-.801.102-1.516.307-2.146a4.75 4.75 0 0 1 .886-1.618 3.79 3.79 0 0 1 1.355-1.026 4.234 4.234 0 0 1 1.736-.351c.65 0 1.236.117 1.758.351.527.234.979.576 1.355 1.026.381.444.671.983.872 1.618.205.63.307 1.345.307 2.146Zm-1.399.674v-.688c0-.635-.066-1.197-.197-1.685-.127-.488-.315-.898-.564-1.231a2.437 2.437 0 0 0-.916-.754 2.776 2.776 0 0 0-1.216-.256c-.439 0-.837.085-1.194.256a2.533 2.533 0 0 0-.908.754 3.688 3.688 0 0 0-.578 1.231c-.137.488-.205 1.05-.205 1.685v.688c0 .64.068 1.206.205 1.699.136.488.332.901.586 1.238.258.332.563.583.915.754.356.171.754.257 1.194.257.459 0 .867-.086 1.223-.257.356-.171.657-.422.901-.754.249-.337.437-.75.564-1.238.127-.493.19-1.059.19-1.699Zm8.687.505v1.099h-4.19v-1.099h4.19Zm-3.904-3.435v7.925h-1.355v-7.925h1.355Zm5.002 0v7.925h-1.362v-7.925h1.362Zm1.824 4.051v-.169c0-.571.083-1.101.249-1.589.166-.493.405-.921.718-1.282a3.222 3.222 0 0 1 1.135-.85 3.53 3.53 0 0 1 1.494-.307c.557 0 1.058.102 1.502.307.449.201.83.484 1.142.85.318.361.56.789.726 1.282.166.488.249 1.018.249 1.589v.169c0 .571-.083 1.101-.249 1.589a3.806 3.806 0 0 1-.726 1.282c-.312.361-.69.644-1.135.849-.439.2-.937.301-1.494.301a3.615 3.615 0 0 1-1.501-.301 3.39 3.39 0 0 1-1.143-.849 3.875 3.875 0 0 1-.718-1.282 4.906 4.906 0 0 1-.249-1.589Zm1.355-.169v.169c0 .395.047.769.139 1.12.093.347.232.654.418.923.19.269.427.481.71.637.283.152.613.227.989.227a2 2 0 0 0 .974-.227c.283-.156.518-.368.703-.637.186-.269.325-.576.418-.923.097-.351.146-.725.146-1.12v-.169c0-.39-.049-.759-.146-1.106a2.87 2.87 0 0 0-.425-.93 2.037 2.037 0 0 0-.703-.645 1.976 1.976 0 0 0-.982-.234c-.371 0-.698.078-.981.234a2.12 2.12 0 0 0-.703.645 2.946 2.946 0 0 0-.418.93 4.302 4.302 0 0 0-.139 1.106Zm8.914-2.358v9.448h-1.363v-10.972h1.246l.117 1.524Zm5.339 2.373v.154a5.98 5.98 0 0 1-.205 1.604 3.94 3.94 0 0 1-.601 1.274 2.723 2.723 0 0 1-.959.842 2.78 2.78 0 0 1-1.311.301c-.503 0-.947-.083-1.333-.249a2.628 2.628 0 0 1-.982-.726 3.708 3.708 0 0 1-.644-1.142 6.591 6.591 0 0 1-.322-1.502v-.82a6.87 6.87 0 0 1 .329-1.575 3.94 3.94 0 0 1 .637-1.186c.269-.332.594-.584.975-.755.38-.175.82-.263 1.318-.263.498 0 .94.097 1.326.293.385.19.71.464.974.82.263.357.461.784.593 1.282a6.15 6.15 0 0 1 .205 1.648Zm-1.362.154v-.154c0-.396-.042-.767-.125-1.113a2.799 2.799 0 0 0-.388-.923 1.847 1.847 0 0 0-.659-.63 1.879 1.879 0 0 0-.96-.235c-.341 0-.639.059-.893.176a1.923 1.923 0 0 0-.637.476c-.176.196-.32.42-.432.674a3.86 3.86 0 0 0-.242.776v1.897c.098.342.234.664.41.967.176.298.41.54.703.725.293.181.662.271 1.106.271.366 0 .681-.075.945-.227.268-.156.488-.368.659-.637.176-.269.305-.576.388-.923a4.86 4.86 0 0 0 .125-1.12ZM567.448 24.19v.675c0 .8-.1 1.518-.3 2.153-.2.635-.488 1.174-.864 1.619a3.751 3.751 0 0 1-1.355 1.018c-.523.234-1.109.351-1.758.351-.63 0-1.209-.117-1.736-.351a3.899 3.899 0 0 1-1.362-1.018 4.724 4.724 0 0 1-.886-1.619c-.21-.635-.315-1.352-.315-2.153v-.674c0-.8.102-1.516.307-2.146.21-.635.506-1.174.886-1.619a3.81 3.81 0 0 1 1.355-1.025 4.228 4.228 0 0 1 1.736-.352c.65 0 1.236.117 1.758.352.527.234.979.576 1.355 1.025.381.445.671.984.872 1.619.205.63.307 1.345.307 2.146Zm-1.399.675v-.689c0-.634-.066-1.196-.197-1.684-.127-.489-.315-.899-.564-1.23a2.437 2.437 0 0 0-.916-.755 2.778 2.778 0 0 0-1.216-.257 2.73 2.73 0 0 0-1.194.257c-.351.17-.654.422-.908.754-.249.332-.442.742-.578 1.23-.137.489-.205 1.05-.205 1.685v.689c0 .64.068 1.206.205 1.699.136.488.332.9.586 1.238.258.332.563.583.915.754.356.171.754.256 1.194.256.459 0 .867-.085 1.223-.256.356-.17.657-.422.901-.754.249-.337.437-.75.564-1.238.127-.493.19-1.06.19-1.7Zm4.226-2.93 1.736 2.886 1.758-2.886h1.589l-2.592 3.911 2.673 4.014h-1.567l-1.831-2.974-1.832 2.974h-1.574l2.666-4.014-2.586-3.91h1.56Zm11.199 6.57v-4.08c0-.312-.063-.583-.19-.813a1.247 1.247 0 0 0-.557-.542c-.249-.127-.557-.19-.923-.19-.342 0-.642.059-.901.176a1.562 1.562 0 0 0-.6.461 1.01 1.01 0 0 0-.213.615h-1.355c0-.283.074-.564.22-.842a2.48 2.48 0 0 1 .63-.754c.278-.23.61-.41.996-.542a3.926 3.926 0 0 1 1.304-.205c.576 0 1.084.097 1.523.292.445.196.791.491 1.04.887.254.39.381.881.381 1.472v3.691c0 .264.022.545.066.843.049.297.12.554.212.769v.117h-1.413a2.501 2.501 0 0 1-.161-.623 5.034 5.034 0 0 1-.059-.732Zm.234-3.45.015.952h-1.369c-.386 0-.73.032-1.033.095a2.362 2.362 0 0 0-.762.271 1.294 1.294 0 0 0-.469.462c-.107.18-.161.393-.161.637 0 .25.056.476.169.681.112.205.28.369.505.491.23.117.51.176.842.176.415 0 .782-.088 1.099-.264.317-.176.569-.39.754-.644.191-.254.293-.5.308-.74l.579.652a1.974 1.974 0 0 1-.279.68 3.286 3.286 0 0 1-1.501 1.282c-.342.147-.728.22-1.157.22-.538 0-1.009-.105-1.414-.315a2.42 2.42 0 0 1-.938-.842 2.235 2.235 0 0 1-.329-1.194c0-.425.083-.798.249-1.12.166-.328.405-.599.718-.813a3.39 3.39 0 0 1 1.128-.498c.439-.113.93-.169 1.472-.169h1.574Z" fill="#fff"/></svg>