<svg width="756" height="405" fill="none" xmlns="http://www.w3.org/2000/svg"><circle cx="749.168" cy="39.375" r="6" fill="#fff"/><circle cx="455.668" cy="146.875" r="5.5" fill="#fff"/><circle cx="574.5" cy="139.5" r="5.5" fill="#fff"/><circle cx="87.668" cy="361.875" r="5.5" fill="#FF6C01"/><circle cx="124.5" cy="353.5" r="5.5" fill="#FF6C01"/><circle cx="235.668" cy="295.875" r="5.5" fill="#FF6C01"/><circle cx="289.5" cy="287.5" r="5.5" fill="#FF6C01"/><circle cx="193.668" cy="306.875" r="5.5" fill="#FF6C01"/><path d="M749.168 38.875c-5.333 8-16.9 24.2-20.5 25-3.6.8-12.5 2.333-16.5 3-9.5 6.667-30.1 21.5-36.5 27.5-8 7.5-5 23-74 35l-24.5 10.5-61.5 8-39 11c1.333 4.833 1.5 12.7-8.5 5.5-1.577-1.261-4.683-2.269-9-1.372m-371.5 198.872c17.2 3.6 33.5-5.167 39.5-10 16.667-18 62.2-54.4 111-56 48.8-1.6 52.667-4.333 48.5-5.5 5.6-8.8 15-11 19-11l21 6 5-2 5-19.5 24.5-17c18.5-58.5 62-52.5 79.5-71.5 7.377-8.01 13.69-11.373 18.5-12.372m0 0-11-6.628c-1.5-2.167-2.4-6.9 6-8.5" stroke="#fff" stroke-width="3"/><path d="M468.168 164.375c-1.577-1.261-4.683-2.269-9-1.372-4.81.999-11.123 4.362-18.5 12.372-17.5 19-61 13-79.5 71.5l-24.5 17-5 19.5-5 2-21-6c-4 0-13.4 2.2-19 11 4.167 1.167.3 3.9-48.5 5.5s-94.333 38-111 56c-6 4.833-22.3 13.6-39.5 10" stroke="#FF6C01" stroke-width="3"/><path d="m336.668 263.875 24.5-17c4.495-14.213 10.465-24.618 17.179-32.5m-290.679 147.5c17.2 3.6 33.5-5.167 39.5-10 6.554-7.079 17.573-17.003 31.5-26.538" stroke="#FF6C01" stroke-width="3"/><circle cx="339.668" cy="261.875" r="5.5" fill="#FF6C01"/><circle cx="392.5" cy="201.5" r="5.5" fill="#FF6C01"/><circle cx="468.5" cy="163.5" r="5.5" fill="#FF6C01"/><path d="M3.473 387.578v12.797H1.776v-12.797h1.697Zm2.935 5.862v1.336h-3.04v-1.336h3.04Zm9.185.132v.809c0 .961-.12 1.822-.36 2.584s-.587 1.409-1.038 1.942a4.499 4.499 0 0 1-1.626 1.222c-.627.281-1.33.422-2.109.422-.756 0-1.45-.141-2.083-.422a4.684 4.684 0 0 1-1.635-1.222c-.457-.533-.811-1.18-1.063-1.942-.252-.762-.378-1.623-.378-2.584v-.809c0-.961.123-1.819.369-2.575.252-.762.606-1.409 1.063-1.942.457-.539 1-.95 1.626-1.231a5.075 5.075 0 0 1 2.083-.422c.78 0 1.483.141 2.11.422a4.455 4.455 0 0 1 1.626 1.231c.457.533.805 1.18 1.046 1.942.246.756.369 1.614.369 2.575Zm-1.679.809v-.826c0-.762-.079-1.436-.237-2.022-.153-.586-.378-1.078-.677-1.476a2.915 2.915 0 0 0-1.099-.906c-.427-.205-.914-.307-1.459-.307-.527 0-1.005.102-1.432.307a3.029 3.029 0 0 0-1.09.906c-.299.398-.53.89-.694 1.476-.164.586-.247 1.26-.247 2.022v.826c0 .767.083 1.447.247 2.039.164.586.398 1.081.703 1.485.31.399.676.7 1.098.906.428.205.906.307 1.433.307.55 0 1.04-.102 1.468-.307a2.872 2.872 0 0 0 1.08-.906c.3-.404.525-.899.678-1.485.152-.592.228-1.272.228-2.039Zm6.478 1.854-3.604-5.37h1.96l2.461 3.938h1.898l-.237 1.432h-2.478Zm.887-.167-2.76 4.307h-2.056l3.788-5.484 1.028 1.177Zm2.663-5.203v9.51h-1.626v-9.51h1.626Zm5.546 0-3.603 5.37h-2.479l-.255-1.432h1.908l2.46-3.938h1.97Zm-1.74 9.51-2.768-4.307 1.045-1.177 3.78 5.484h-2.057Zm10.01-5.388v1.319h-5.027v-1.319h5.028Zm-4.684-4.122v9.51h-1.626v-9.51h1.626Zm6.003 0v9.51h-1.635v-9.51h1.635Zm2.189 4.861v-.203c0-.685.1-1.321.299-1.907a4.544 4.544 0 0 1 .86-1.538c.376-.439.83-.779 1.363-1.019.533-.247 1.13-.37 1.793-.37.668 0 1.269.123 1.802.37.539.24.996.58 1.37 1.019.382.434.672.946.871 1.538.2.586.299 1.222.299 1.907v.203c0 .685-.1 1.321-.299 1.907-.2.586-.49 1.098-.87 1.538-.375.433-.83.773-1.362 1.019-.528.241-1.125.361-1.793.361-.668 0-1.269-.12-1.802-.361a4.082 4.082 0 0 1-1.371-1.019 4.65 4.65 0 0 1-.861-1.538 5.888 5.888 0 0 1-.3-1.907Zm1.626-.203v.203c0 .474.055.922.167 1.344.11.416.278.785.5 1.108.23.322.513.577.853.764.34.182.736.273 1.187.273.445 0 .835-.091 1.169-.273a2.45 2.45 0 0 0 .843-.764 3.55 3.55 0 0 0 .501-1.108 5.01 5.01 0 0 0 .176-1.344v-.203c0-.468-.058-.911-.176-1.327a3.41 3.41 0 0 0-.51-1.116 2.417 2.417 0 0 0-.843-.773c-.334-.188-.727-.282-1.178-.282-.445 0-.838.094-1.178.282a2.523 2.523 0 0 0-.843.773 3.51 3.51 0 0 0-.501 1.116 5.12 5.12 0 0 0-.167 1.327Zm12.454-1.256v1.336h-4.29v-1.336h4.29Zm9.562 2.039h1.688a5.387 5.387 0 0 1-.695 2.171 4.062 4.062 0 0 1-1.59 1.52c-.686.369-1.542.554-2.567.554-.75 0-1.432-.141-2.048-.422a4.555 4.555 0 0 1-1.573-1.195 5.606 5.606 0 0 1-1.02-1.872c-.234-.733-.351-1.547-.351-2.444v-1.274c0-.897.117-1.708.351-2.435a5.508 5.508 0 0 1 1.029-1.881 4.59 4.59 0 0 1 1.626-1.204c.633-.281 1.344-.422 2.136-.422.966 0 1.784.182 2.452.545a3.905 3.905 0 0 1 1.555 1.512c.375.639.607 1.38.695 2.224h-1.688c-.082-.598-.234-1.111-.457-1.538a2.372 2.372 0 0 0-.949-1.002c-.41-.235-.946-.352-1.608-.352-.569 0-1.07.108-1.503.325a3.033 3.033 0 0 0-1.081.923 4.3 4.3 0 0 0-.65 1.433 7.275 7.275 0 0 0-.22 1.854v1.292c0 .627.064 1.216.193 1.767.135.551.337 1.034.606 1.45.27.416.613.744 1.029.984.416.235.908.352 1.476.352.72 0 1.295-.114 1.723-.343.428-.228.75-.557.967-.984.222-.428.38-.941.474-1.538Zm9.36 2.443v-4.895c0-.375-.076-.701-.228-.976a1.494 1.494 0 0 0-.668-.65c-.299-.153-.668-.229-1.107-.229-.41 0-.77.07-1.081.211a1.882 1.882 0 0 0-.721.554 1.21 1.21 0 0 0-.255.738h-1.626c0-.34.088-.677.264-1.011.175-.334.427-.636.756-.905a3.78 3.78 0 0 1 1.195-.65c.469-.165.99-.247 1.564-.247.692 0 1.301.118 1.828.352.534.234.95.589 1.249 1.063.304.469.456 1.058.456 1.767v4.43c0 .316.027.653.08 1.011.058.357.143.665.254.922v.141h-1.696a3.036 3.036 0 0 1-.193-.747 6.014 6.014 0 0 1-.07-.879Zm.282-4.14.017 1.143h-1.643c-.463 0-.876.038-1.24.114a2.862 2.862 0 0 0-.913.325 1.548 1.548 0 0 0-.563.554 1.47 1.47 0 0 0-.193.765c0 .299.067.571.202.817s.337.443.606.589c.276.141.613.211 1.011.211.498 0 .938-.106 1.318-.316.381-.211.683-.469.906-.774.228-.305.351-.6.369-.888l.694.783c-.04.246-.152.518-.334.817a3.935 3.935 0 0 1-1.802 1.538 3.49 3.49 0 0 1-1.388.264c-.645 0-1.21-.126-1.697-.378a2.9 2.9 0 0 1-1.125-1.011 2.676 2.676 0 0 1-.395-1.433c0-.509.1-.958.299-1.344.199-.393.486-.718.861-.976a4.09 4.09 0 0 1 1.354-.597 7.127 7.127 0 0 1 1.766-.203h1.89Zm5-3.744 2.084 3.463 2.11-3.463h1.906l-3.11 4.694 3.207 4.816h-1.88l-2.198-3.568-2.197 3.568h-1.89l3.2-4.816-3.103-4.694h1.872Zm13.44 7.884v-4.895c0-.375-.077-.701-.23-.976a1.494 1.494 0 0 0-.667-.65c-.3-.153-.668-.229-1.108-.229-.41 0-.77.07-1.08.211a1.882 1.882 0 0 0-.721.554 1.21 1.21 0 0 0-.255.738h-1.626c0-.34.088-.677.263-1.011.176-.334.428-.636.756-.905a3.78 3.78 0 0 1 1.196-.65c.468-.165.99-.247 1.564-.247.691 0 1.3.118 1.828.352.533.234.95.589 1.248 1.063.305.469.457 1.058.457 1.767v4.43c0 .316.027.653.08 1.011.058.357.143.665.254.922v.141h-1.696a3.036 3.036 0 0 1-.193-.747 6.014 6.014 0 0 1-.07-.879Zm.28-4.14.018 1.143h-1.644c-.462 0-.875.038-1.239.114a2.862 2.862 0 0 0-.914.325 1.548 1.548 0 0 0-.562.554 1.47 1.47 0 0 0-.194.765c0 .299.068.571.203.817.134.246.336.443.606.589.275.141.612.211 1.01.211.499 0 .938-.106 1.319-.316.38-.211.683-.469.905-.774.229-.305.352-.6.37-.888l.694.783c-.041.246-.153.518-.334.817a3.935 3.935 0 0 1-1.802 1.538 3.49 3.49 0 0 1-1.389.264c-.644 0-1.21-.126-1.696-.378a2.9 2.9 0 0 1-1.125-1.011 2.676 2.676 0 0 1-.395-1.433c0-.509.1-.958.298-1.344.2-.393.487-.718.862-.976a4.09 4.09 0 0 1 1.353-.597 7.127 7.127 0 0 1 1.767-.203h1.89Zm10.257-3.744v1.345h-4.596v-1.345h4.596Zm1.433 0v9.51h-1.626v-9.51h1.626Zm-6.425 0h1.635l-.246 4.588a17.01 17.01 0 0 1-.202 1.881 6.427 6.427 0 0 1-.37 1.389 2.903 2.903 0 0 1-.58.949c-.228.24-.503.419-.826.536a3.423 3.423 0 0 1-1.116.167h-.51v-1.433l.352-.026a1.5 1.5 0 0 0 .642-.176 1.26 1.26 0 0 0 .457-.439 2.66 2.66 0 0 0 .298-.765c.082-.31.144-.68.185-1.107.047-.428.082-.926.105-1.494l.176-4.07Zm10.802 6.935 4.386-6.935h1.634v9.51h-1.634v-6.935l-4.386 6.935h-1.617v-9.51h1.617v6.935Zm15.082-2.813v1.319h-5.027v-1.319h5.027Zm-4.685-4.122v9.51h-1.626v-9.51h1.626Zm6.003 0v9.51h-1.634v-9.51h1.634Zm6.425 8.35c.387 0 .744-.079 1.072-.237.328-.159.598-.375.809-.651.211-.281.331-.6.36-.958h1.547a2.899 2.899 0 0 1-.571 1.573c-.346.481-.8.87-1.362 1.169a3.957 3.957 0 0 1-1.855.44c-.715 0-1.339-.126-1.872-.378a3.713 3.713 0 0 1-1.318-1.037 4.644 4.644 0 0 1-.783-1.512 6.412 6.412 0 0 1-.254-1.819v-.369c0-.639.085-1.243.254-1.811a4.63 4.63 0 0 1 .783-1.521 3.713 3.713 0 0 1 1.318-1.037c.533-.252 1.157-.378 1.872-.378.744 0 1.395.153 1.951.457.557.299.993.709 1.31 1.231.322.516.498 1.102.527 1.758h-1.547a2.334 2.334 0 0 0-.334-1.064 2.085 2.085 0 0 0-.773-.756c-.322-.193-.7-.29-1.134-.29-.498 0-.917.1-1.257.299-.334.194-.6.457-.8.791a3.681 3.681 0 0 0-.421 1.099 6.045 6.045 0 0 0-.123 1.222v.369c0 .416.041.826.123 1.23.082.404.219.771.413 1.099.199.328.465.592.799.791.34.193.762.29 1.266.29Zm7.383-8.35v9.51h-1.626v-9.51h1.626Zm6.24 0-4.509 5.449H139l-.246-1.423h1.863l3.191-4.026h1.977Zm-1.749 9.51-3.498-4.307 1.046-1.177 4.518 5.484h-2.066Zm174.187-285.038L313.986 127h-1.731l4.878-12.797h1.116l-.026 1.134Zm3.55 11.663-4.245-11.663-.026-1.134h1.116L323.514 127h-1.741Zm-.219-4.737v1.388h-7.19v-1.388h7.19Zm9.94-4.773v1.345h-4.597v-1.345h4.597Zm1.433 0V127h-1.626v-9.51h1.626Zm-6.425 0h1.635l-.246 4.588a16.921 16.921 0 0 1-.203 1.881 6.331 6.331 0 0 1-.369 1.389 2.886 2.886 0 0 1-.58.949c-.228.24-.504.419-.826.536a3.42 3.42 0 0 1-1.116.167h-.51v-1.433l.352-.026c.252-.018.465-.076.641-.176.182-.099.334-.246.457-.439.123-.199.223-.454.299-.765.082-.31.144-.68.185-1.107.047-.428.082-.926.105-1.494l.176-4.07Zm12.99 9.686a4.692 4.692 0 0 1-1.802-.334 4.085 4.085 0 0 1-1.379-.958 4.261 4.261 0 0 1-.879-1.459 5.356 5.356 0 0 1-.308-1.846v-.369c0-.773.114-1.462.343-2.065.228-.61.539-1.125.931-1.547a3.983 3.983 0 0 1 1.336-.958 3.836 3.836 0 0 1 1.547-.326c.68 0 1.266.118 1.758.352.498.234.905.563 1.222.984.316.416.551.909.703 1.477a7.06 7.06 0 0 1 .228 1.846v.729h-7.101v-1.327h5.475v-.123a4.058 4.058 0 0 0-.263-1.231 2.22 2.22 0 0 0-.703-.984c-.323-.258-.762-.387-1.319-.387a2.2 2.2 0 0 0-1.019.238 2.172 2.172 0 0 0-.8.685 3.45 3.45 0 0 0-.519 1.116c-.123.44-.184.947-.184 1.521v.369c0 .451.061.876.184 1.275.129.392.314.738.554 1.037.246.298.542.533.888.703.351.17.75.255 1.195.255.574 0 1.061-.118 1.459-.352a3.61 3.61 0 0 0 1.046-.94l.984.782c-.205.31-.465.606-.782.888a3.735 3.735 0 0 1-1.169.685c-.457.176-.999.264-1.626.264Zm7.365-9.686V127h-1.626v-9.51h1.626Zm6.241 0-4.509 5.449h-2.277l-.246-1.423h1.864l3.19-4.026h1.978Zm-1.749 9.51-3.498-4.307 1.045-1.177 4.518 5.484h-2.065Zm7.145-1.16c.387 0 .744-.079 1.072-.237.329-.159.598-.375.809-.651.211-.281.331-.6.36-.958h1.547a2.899 2.899 0 0 1-.571 1.573c-.346.481-.8.871-1.362 1.169a3.957 3.957 0 0 1-1.855.44c-.715 0-1.339-.126-1.872-.378a3.713 3.713 0 0 1-1.318-1.037 4.644 4.644 0 0 1-.783-1.512 6.412 6.412 0 0 1-.254-1.819v-.369c0-.639.085-1.243.254-1.811a4.63 4.63 0 0 1 .783-1.521 3.713 3.713 0 0 1 1.318-1.037c.533-.252 1.157-.378 1.872-.378.744 0 1.395.153 1.951.457.557.299.993.709 1.31 1.231.322.516.498 1.102.527 1.758h-1.547a2.334 2.334 0 0 0-.334-1.064 2.085 2.085 0 0 0-.773-.756c-.322-.193-.7-.29-1.134-.29-.498 0-.917.1-1.257.299-.334.194-.6.457-.799.791a3.683 3.683 0 0 0-.422 1.099 6.045 6.045 0 0 0-.123 1.222v.369c0 .416.041.826.123 1.23.082.404.219.771.413 1.099.199.328.466.592.8.791.339.193.761.29 1.265.29Zm11.224-.466v-4.895c0-.375-.076-.701-.229-.976a1.491 1.491 0 0 0-.668-.65c-.299-.153-.668-.229-1.107-.229-.41 0-.771.07-1.081.211a1.882 1.882 0 0 0-.721.554 1.21 1.21 0 0 0-.255.738h-1.626c0-.34.088-.677.264-1.011.176-.334.428-.636.756-.905a3.779 3.779 0 0 1 1.195-.65c.469-.165.99-.247 1.565-.247.691 0 1.3.118 1.828.352.533.234.949.589 1.248 1.063.304.469.457 1.058.457 1.767v4.43c0 .316.026.653.079 1.011.058.357.143.665.255.922V127h-1.697a3.058 3.058 0 0 1-.193-.747 5.997 5.997 0 0 1-.07-.879Zm.281-4.14.018 1.143h-1.644a6.08 6.08 0 0 0-1.239.114 2.864 2.864 0 0 0-.914.325 1.55 1.55 0 0 0-.563.554 1.469 1.469 0 0 0-.193.765c0 .299.067.571.202.817s.337.443.606.589c.276.141.613.211 1.011.211a2.69 2.69 0 0 0 1.319-.316c.38-.211.682-.469.905-.774.228-.305.351-.6.369-.888l.694.783c-.041.246-.152.518-.334.817a3.937 3.937 0 0 1-1.801 1.538 3.493 3.493 0 0 1-1.389.264c-.645 0-1.21-.126-1.696-.378a2.893 2.893 0 0 1-1.125-1.011 2.673 2.673 0 0 1-.396-1.433c0-.509.1-.958.299-1.344.199-.393.486-.718.861-.976a4.086 4.086 0 0 1 1.354-.597 7.123 7.123 0 0 1 1.766-.203h1.89Zm10.354.378v1.319h-5.028v-1.319h5.028Zm-4.685-4.122V127h-1.626v-9.51h1.626Zm6.003 0V127h-1.635v-9.51h1.635Zm4.333 0h1.626l-.141 3.56c-.035.902-.137 1.681-.307 2.338-.17.656-.387 1.216-.651 1.678a5.031 5.031 0 0 1-.887 1.152c-.323.31-.657.571-1.002.782h-.809l.044-1.327.334-.009c.193-.228.381-.463.562-.703.182-.246.349-.536.501-.87.153-.34.279-.753.378-1.239.106-.493.173-1.093.202-1.802l.15-3.56Zm.404 0h5.722V127h-1.626v-8.007h-4.096v-1.503Zm-2.944 8.174h9.888v4.14h-1.626V127h-6.636v2.804h-1.635l.009-4.14Zm13.315-6.346v11.338h-1.634V117.49h1.494l.14 1.828Zm6.408 2.848v.185c0 .691-.083 1.333-.247 1.924a4.745 4.745 0 0 1-.72 1.53c-.311.433-.695.77-1.152 1.01-.457.241-.981.361-1.573.361-.603 0-1.137-.1-1.599-.299a3.149 3.149 0 0 1-1.178-.87 4.468 4.468 0 0 1-.774-1.371 7.946 7.946 0 0 1-.386-1.802v-.984a8.27 8.27 0 0 1 .395-1.89 4.69 4.69 0 0 1 .765-1.424 3.14 3.14 0 0 1 1.169-.905c.457-.211.984-.317 1.582-.317.597 0 1.128.118 1.591.352.462.229.852.557 1.169.984.316.428.553.941.711 1.538a7.4 7.4 0 0 1 .247 1.978Zm-1.635.185v-.185c0-.475-.05-.92-.15-1.336a3.374 3.374 0 0 0-.465-1.107 2.217 2.217 0 0 0-.791-.756c-.323-.188-.707-.281-1.152-.281-.41 0-.767.07-1.072.21a2.329 2.329 0 0 0-.765.572 3.011 3.011 0 0 0-.518.808c-.129.299-.226.61-.29.932v2.276c.117.411.281.797.492 1.161.211.357.492.647.844.87.351.216.794.325 1.327.325.439 0 .817-.091 1.134-.273.322-.187.585-.442.791-.764.21-.323.366-.692.465-1.108.1-.422.15-.87.15-1.344Zm3.278 0v-.203c0-.685.1-1.321.299-1.907a4.529 4.529 0 0 1 .861-1.538 3.84 3.84 0 0 1 1.363-1.019c.533-.246 1.13-.37 1.793-.37.667 0 1.268.124 1.801.37.539.24.996.58 1.371 1.019.381.434.671.946.87 1.538.2.586.299 1.222.299 1.907v.203a5.87 5.87 0 0 1-.299 1.907 4.561 4.561 0 0 1-.87 1.538 3.992 3.992 0 0 1-1.362 1.019c-.527.241-1.125.361-1.793.361-.668 0-1.268-.12-1.802-.361a4.085 4.085 0 0 1-1.371-1.019 4.646 4.646 0 0 1-.861-1.538 5.896 5.896 0 0 1-.299-1.907Zm1.626-.203v.203c0 .474.056.922.167 1.344.111.416.278.785.501 1.108.229.322.513.577.853.764.339.182.735.273 1.186.273.445 0 .835-.091 1.169-.273.34-.187.621-.442.844-.764.222-.323.389-.692.501-1.108a5.01 5.01 0 0 0 .176-1.344v-.203c0-.468-.059-.911-.176-1.327a3.417 3.417 0 0 0-.51-1.116 2.42 2.42 0 0 0-.844-.773c-.334-.188-.726-.282-1.177-.282-.446 0-.838.094-1.178.282a2.529 2.529 0 0 0-.844.773 3.51 3.51 0 0 0-.501 1.116 5.132 5.132 0 0 0-.167 1.327Zm13.535.668h-3.12l-.017-1.3h2.548c.504 0 .923-.05 1.257-.15.34-.099.595-.249.765-.448.17-.199.255-.445.255-.738 0-.229-.05-.428-.15-.598a1.086 1.086 0 0 0-.43-.431 2.142 2.142 0 0 0-.721-.255 4.967 4.967 0 0 0-.993-.087h-2.083V127h-1.626v-9.51h3.709a7.65 7.65 0 0 1 1.626.158c.486.106.899.267 1.239.484.346.211.609.48.791.808.182.329.272.715.272 1.161a1.954 1.954 0 0 1-.694 1.503 2.81 2.81 0 0 1-.844.492 4.337 4.337 0 0 1-1.151.237l-.633.483Zm0 4.184h-3.709l.809-1.318h2.9c.451 0 .826-.056 1.125-.167.299-.118.522-.282.668-.493.153-.216.229-.474.229-.773 0-.299-.076-.554-.229-.765-.146-.216-.369-.38-.668-.492-.299-.117-.674-.176-1.125-.176h-2.47l.018-1.3h3.085l.589.492c.521.041.964.17 1.327.387.363.216.639.492.826.826.188.328.281.685.281 1.072 0 .445-.085.838-.254 1.178a2.24 2.24 0 0 1-.721.852c-.317.223-.7.393-1.151.51a6.424 6.424 0 0 1-1.53.167Zm9.642-1.16c.387 0 .744-.079 1.072-.237.328-.159.598-.375.809-.651.211-.281.331-.6.36-.958h1.547a2.899 2.899 0 0 1-.571 1.573c-.346.481-.8.871-1.363 1.169a3.95 3.95 0 0 1-1.854.44c-.715 0-1.339-.126-1.872-.378a3.716 3.716 0 0 1-1.319-1.037 4.661 4.661 0 0 1-.782-1.512 6.377 6.377 0 0 1-.255-1.819v-.369c0-.639.085-1.243.255-1.811a4.647 4.647 0 0 1 .782-1.521 3.716 3.716 0 0 1 1.319-1.037c.533-.252 1.157-.378 1.872-.378.744 0 1.394.153 1.951.457.557.299.993.709 1.31 1.231.322.516.498 1.102.527 1.758h-1.547a2.346 2.346 0 0 0-.334-1.064 2.085 2.085 0 0 0-.773-.756 2.169 2.169 0 0 0-1.134-.29c-.498 0-.917.1-1.257.299a2.206 2.206 0 0 0-.8.791 3.71 3.71 0 0 0-.422 1.099 6.045 6.045 0 0 0-.123 1.222v.369c0 .416.041.826.123 1.23.082.404.22.771.413 1.099.2.328.466.592.8.791.34.193.762.29 1.266.29Zm7.383-8.35V127h-1.626v-9.51h1.626Zm6.24 0-4.509 5.449h-2.276l-.246-1.423h1.863l3.19-4.026h1.978Zm-1.749 9.51-3.498-4.307 1.046-1.177 4.517 5.484h-2.065Zm6.864-6.108v1.336h-4.289v-1.336h4.289Zm9.563 2.039h1.687c-.088.808-.319 1.532-.694 2.171a4.067 4.067 0 0 1-1.591 1.52c-.686.369-1.541.554-2.566.554-.75 0-1.433-.141-2.048-.422a4.556 4.556 0 0 1-1.574-1.195 5.607 5.607 0 0 1-1.019-1.872c-.234-.733-.352-1.547-.352-2.444v-1.274c0-.897.118-1.708.352-2.435.24-.732.583-1.359 1.028-1.881a4.587 4.587 0 0 1 1.626-1.204c.633-.281 1.345-.422 2.136-.422.967 0 1.784.182 2.452.545a3.905 3.905 0 0 1 1.556 1.512c.375.639.606 1.38.694 2.224h-1.687c-.082-.598-.235-1.111-.457-1.538a2.37 2.37 0 0 0-.95-1.002c-.41-.235-.946-.352-1.608-.352-.568 0-1.069.108-1.503.325a3.031 3.031 0 0 0-1.081.923 4.282 4.282 0 0 0-.65 1.433 7.252 7.252 0 0 0-.22 1.854v1.292c0 .627.064 1.216.193 1.767a4.69 4.69 0 0 0 .607 1.45c.269.416.612.744 1.028.984.416.235.908.352 1.477.352.72 0 1.294-.114 1.722-.343.428-.228.75-.557.967-.984.223-.428.381-.941.475-1.538Zm9.36 2.443v-4.895c0-.375-.076-.701-.229-.976a1.491 1.491 0 0 0-.668-.65c-.298-.153-.668-.229-1.107-.229-.41 0-.77.07-1.081.211a1.882 1.882 0 0 0-.721.554 1.21 1.21 0 0 0-.255.738h-1.626c0-.34.088-.677.264-1.011.176-.334.428-.636.756-.905a3.779 3.779 0 0 1 1.195-.65c.469-.165.99-.247 1.565-.247.691 0 1.301.118 1.828.352.533.234.949.589 1.248 1.063.305.469.457 1.058.457 1.767v4.43c0 .316.026.653.079 1.011.059.357.144.665.255.922V127h-1.696a3.054 3.054 0 0 1-.194-.747 5.997 5.997 0 0 1-.07-.879Zm.281-4.14.018 1.143h-1.644a6.08 6.08 0 0 0-1.239.114 2.864 2.864 0 0 0-.914.325 1.55 1.55 0 0 0-.563.554 1.469 1.469 0 0 0-.193.765c0 .299.067.571.202.817s.337.443.607.589c.275.141.612.211 1.01.211a2.69 2.69 0 0 0 1.319-.316c.381-.211.682-.469.905-.774.229-.305.352-.6.369-.888l.694.783c-.041.246-.152.518-.334.817a3.937 3.937 0 0 1-1.801 1.538 3.49 3.49 0 0 1-1.389.264c-.644 0-1.21-.126-1.696-.378a2.893 2.893 0 0 1-1.125-1.011 2.673 2.673 0 0 1-.396-1.433c0-.509.1-.958.299-1.344.199-.393.486-.718.861-.976a4.095 4.095 0 0 1 1.354-.597 7.125 7.125 0 0 1 1.767-.203h1.889Zm5.001-3.744 2.083 3.463 2.11-3.463h1.907l-3.112 4.694 3.208 4.816h-1.88l-2.198-3.568-2.197 3.568h-1.89l3.2-4.816-3.103-4.694h1.872Zm13.439 7.884v-4.895c0-.375-.077-.701-.229-.976a1.491 1.491 0 0 0-.668-.65c-.299-.153-.668-.229-1.107-.229-.41 0-.771.07-1.081.211a1.882 1.882 0 0 0-.721.554 1.21 1.21 0 0 0-.255.738h-1.626c0-.34.088-.677.264-1.011.176-.334.428-.636.756-.905a3.779 3.779 0 0 1 1.195-.65c.469-.165.99-.247 1.564-.247.692 0 1.301.118 1.829.352.533.234.949.589 1.248 1.063.304.469.457 1.058.457 1.767v4.43c0 .316.026.653.079 1.011.058.357.143.665.255.922V127h-1.697a3.058 3.058 0 0 1-.193-.747 5.997 5.997 0 0 1-.07-.879Zm.281-4.14.017 1.143h-1.643a6.08 6.08 0 0 0-1.239.114 2.855 2.855 0 0 0-.914.325 1.55 1.55 0 0 0-.563.554 1.469 1.469 0 0 0-.193.765c0 .299.067.571.202.817s.337.443.606.589c.276.141.613.211 1.011.211.498 0 .938-.106 1.318-.316.381-.211.683-.469.906-.774.228-.305.351-.6.369-.888l.694.783c-.041.246-.152.518-.334.817a3.943 3.943 0 0 1-1.802 1.538c-.41.176-.873.264-1.388.264-.645 0-1.21-.126-1.697-.378a2.907 2.907 0 0 1-1.125-1.011 2.681 2.681 0 0 1-.395-1.433c0-.509.1-.958.299-1.344.199-.393.486-.718.861-.976a4.086 4.086 0 0 1 1.354-.597 7.123 7.123 0 0 1 1.766-.203h1.89Zm10.257-3.744v1.345h-4.597v-1.345h4.597Zm1.432 0V127h-1.626v-9.51h1.626Zm-6.424 0h1.634l-.246 4.588a16.94 16.94 0 0 1-.202 1.881 6.445 6.445 0 0 1-.369 1.389 2.903 2.903 0 0 1-.58.949 2.13 2.13 0 0 1-.826.536 3.43 3.43 0 0 1-1.117.167h-.509v-1.433l.351-.026c.252-.018.466-.076.642-.176.182-.099.334-.246.457-.439.123-.199.223-.454.299-.765.082-.31.143-.68.184-1.107.047-.428.082-.926.106-1.494l.176-4.07Zm10.801 6.935 4.386-6.935h1.635V127h-1.635v-6.935L502.362 127h-1.617v-9.51h1.617v6.935Zm15.082-2.813v1.319h-5.027v-1.319h5.027Zm-4.684-4.122V127h-1.626v-9.51h1.626Zm6.003 0V127h-1.635v-9.51h1.635Zm6.425 8.35a2.44 2.44 0 0 0 1.072-.237c.328-.159.597-.375.808-.651.211-.281.331-.6.361-.958h1.547a2.9 2.9 0 0 1-.572 1.573c-.345.481-.8.871-1.362 1.169a3.955 3.955 0 0 1-1.854.44c-.715 0-1.339-.126-1.873-.378a3.721 3.721 0 0 1-1.318-1.037 4.642 4.642 0 0 1-.782-1.512 6.377 6.377 0 0 1-.255-1.819v-.369c0-.639.085-1.243.255-1.811a4.627 4.627 0 0 1 .782-1.521 3.721 3.721 0 0 1 1.318-1.037c.534-.252 1.158-.378 1.873-.378.744 0 1.394.153 1.951.457.556.299.993.709 1.309 1.231.323.516.498 1.102.528 1.758h-1.547a2.358 2.358 0 0 0-.334-1.064 2.096 2.096 0 0 0-.774-.756c-.322-.193-.7-.29-1.133-.29-.499 0-.917.1-1.257.299a2.206 2.206 0 0 0-.8.791 3.71 3.71 0 0 0-.422 1.099 6.045 6.045 0 0 0-.123 1.222v.369c0 .416.041.826.123 1.23.082.404.22.771.413 1.099.199.328.466.592.8.791.34.193.762.29 1.266.29Zm7.382-8.35V127h-1.626v-9.51h1.626Zm6.241 0-4.509 5.449h-2.277l-.246-1.423h1.864l3.19-4.026h1.978Zm-1.749 9.51-3.499-4.307 1.046-1.177 4.518 5.484h-2.065Zm5.238-2.575 4.386-6.935h1.634V127h-1.634v-6.935L542.3 127h-1.617v-9.51h1.617v6.935Zm10.388 0 4.386-6.935h1.635V127h-1.635v-6.935L552.688 127h-1.617v-9.51h1.617v6.935Zm3.499-10.38h1.318c0 .457-.106.864-.317 1.222-.21.351-.512.627-.905.826-.392.199-.858.299-1.397.299-.815 0-1.459-.217-1.934-.651-.469-.439-.703-1.005-.703-1.696h1.318c0 .346.1.65.299.914.199.264.539.395 1.02.395.468 0 .802-.131 1.002-.395.199-.264.299-.568.299-.914Zm-96.973 62.158V189h-1.67v-12.797h1.67Zm4.113 0v1.389h-9.888v-1.389h9.888Zm1.828 6.557h2.857c.767 0 1.415.135 1.942.404.527.264.926.63 1.195 1.099.276.463.413.99.413 1.582 0 .439-.076.852-.228 1.239a2.774 2.774 0 0 1-.686 1.002c-.298.287-.67.513-1.116.677-.439.158-.946.237-1.52.237h-4.043v-9.51h1.626v8.174h2.417c.468 0 .843-.085 1.125-.255.281-.17.483-.389.606-.659a2.013 2.013 0 0 0 0-1.688 1.582 1.582 0 0 0-.606-.685c-.282-.188-.657-.281-1.125-.281h-2.857v-1.336Zm9.791-3.27V189h-1.626v-9.51h1.626Zm8.315 7.348 3.234-7.348h1.565l-4.237 9.51h-1.125l-4.219-9.51h1.565l3.217 7.348Zm-3.692-7.348V189h-1.626v-9.51h1.626Zm7.33 9.51v-9.51h1.635V189h-1.635Zm3.824-4.649v-.203c0-.685.099-1.321.298-1.907.2-.592.487-1.104.862-1.538a3.845 3.845 0 0 1 1.362-1.019 4.23 4.23 0 0 1 1.793-.37c.668 0 1.269.124 1.802.37.539.24.996.58 1.371 1.019.381.434.671.946.87 1.538.199.586.299 1.222.299 1.907v.203c0 .685-.1 1.321-.299 1.907a4.561 4.561 0 0 1-.87 1.538 3.992 3.992 0 0 1-1.362 1.019c-.528.241-1.125.361-1.793.361-.668 0-1.269-.12-1.802-.361a4.085 4.085 0 0 1-1.371-1.019 4.665 4.665 0 0 1-.862-1.538 5.896 5.896 0 0 1-.298-1.907Zm1.626-.203v.203c0 .474.055.922.167 1.344.111.416.278.785.501 1.108.228.322.512.577.852.764.34.182.735.273 1.187.273.445 0 .835-.091 1.169-.273a2.45 2.45 0 0 0 .843-.764c.223-.323.39-.692.501-1.108a4.97 4.97 0 0 0 .176-1.344v-.203c0-.468-.058-.911-.176-1.327a3.415 3.415 0 0 0-.509-1.116 2.42 2.42 0 0 0-.844-.773c-.334-.188-.727-.282-1.178-.282-.445 0-.838.094-1.178.282a2.516 2.516 0 0 0-.843.773 3.51 3.51 0 0 0-.501 1.116 5.09 5.09 0 0 0-.167 1.327Zm13.535.668h-3.12l-.018-1.3h2.549c.504 0 .923-.05 1.257-.15.34-.099.594-.249.764-.448.17-.199.255-.445.255-.738 0-.229-.05-.428-.149-.598a1.089 1.089 0 0 0-.431-.431 2.129 2.129 0 0 0-.72-.255 4.985 4.985 0 0 0-.994-.087h-2.083V189h-1.626v-9.51h3.709c.604 0 1.146.053 1.626.158.487.106.9.267 1.24.484.345.211.609.48.791.808.181.329.272.715.272 1.161a1.955 1.955 0 0 1-.694 1.503c-.229.199-.51.363-.844.492a4.345 4.345 0 0 1-1.151.237l-.633.483Zm0 4.184h-3.709l.808-1.318h2.901c.451 0 .826-.056 1.125-.167.299-.118.521-.282.668-.493a1.31 1.31 0 0 0 .228-.773c0-.299-.076-.554-.228-.765-.147-.216-.369-.38-.668-.492-.299-.117-.674-.176-1.125-.176h-2.47l.018-1.3h3.085l.588.492c.522.041.964.17 1.328.387.363.216.638.492.826.826.187.328.281.685.281 1.072 0 .445-.085.838-.255 1.178a2.23 2.23 0 0 1-.721.852c-.316.223-.7.393-1.151.51a6.415 6.415 0 0 1-1.529.167Zm9.641-1.16a2.44 2.44 0 0 0 1.073-.237c.328-.159.597-.375.808-.651.211-.281.331-.6.361-.958h1.546a2.89 2.89 0 0 1-.571 1.573c-.346.481-.8.871-1.362 1.169a3.957 3.957 0 0 1-1.855.44c-.714 0-1.338-.126-1.872-.378a3.721 3.721 0 0 1-1.318-1.037 4.642 4.642 0 0 1-.782-1.512 6.377 6.377 0 0 1-.255-1.819v-.369c0-.639.085-1.243.255-1.811a4.627 4.627 0 0 1 .782-1.521 3.721 3.721 0 0 1 1.318-1.037c.534-.252 1.158-.378 1.872-.378.745 0 1.395.153 1.952.457.556.299.993.709 1.309 1.231.322.516.498 1.102.527 1.758h-1.546a2.358 2.358 0 0 0-.334-1.064 2.096 2.096 0 0 0-.774-.756c-.322-.193-.7-.29-1.134-.29-.498 0-.917.1-1.256.299a2.206 2.206 0 0 0-.8.791 3.683 3.683 0 0 0-.422 1.099 6.045 6.045 0 0 0-.123 1.222v.369c0 .416.041.826.123 1.23.082.404.22.771.413 1.099.199.328.466.592.8.791.34.193.761.29 1.265.29Zm7.383-8.35V189h-1.626v-9.51h1.626Zm6.24 0-4.508 5.449h-2.277l-.246-1.423h1.863l3.191-4.026h1.977Zm-1.749 9.51-3.498-4.307 1.046-1.177 4.518 5.484h-2.066Zm2.857-4.649v-.203c0-.685.099-1.321.299-1.907a4.529 4.529 0 0 1 .861-1.538 3.845 3.845 0 0 1 1.362-1.019 4.234 4.234 0 0 1 1.793-.37c.668 0 1.269.124 1.802.37.539.24.996.58 1.371 1.019.381.434.671.946.87 1.538.199.586.299 1.222.299 1.907v.203c0 .685-.1 1.321-.299 1.907a4.561 4.561 0 0 1-.87 1.538 3.992 3.992 0 0 1-1.362 1.019c-.528.241-1.125.361-1.793.361-.668 0-1.269-.12-1.802-.361a4.085 4.085 0 0 1-1.371-1.019 4.646 4.646 0 0 1-.861-1.538 5.87 5.87 0 0 1-.299-1.907Zm1.626-.203v.203c0 .474.056.922.167 1.344.111.416.278.785.501 1.108.228.322.512.577.852.764.34.182.736.273 1.187.273.445 0 .835-.091 1.169-.273.34-.187.621-.442.844-.764.222-.323.389-.692.501-1.108a5.01 5.01 0 0 0 .175-1.344v-.203c0-.468-.058-.911-.175-1.327a3.438 3.438 0 0 0-.51-1.116 2.42 2.42 0 0 0-.844-.773c-.334-.188-.727-.282-1.178-.282-.445 0-.838.094-1.177.282a2.52 2.52 0 0 0-.844.773 3.51 3.51 0 0 0-.501 1.116 5.132 5.132 0 0 0-.167 1.327Zm13.016 5.028a4.686 4.686 0 0 1-1.801-.334 4.09 4.09 0 0 1-1.38-.958 4.261 4.261 0 0 1-.879-1.459 5.356 5.356 0 0 1-.308-1.846v-.369c0-.773.115-1.462.343-2.065.229-.61.539-1.125.932-1.547a3.973 3.973 0 0 1 1.336-.958 3.832 3.832 0 0 1 1.547-.326c.679 0 1.265.118 1.757.352.498.234.906.563 1.222.984.316.416.551.909.703 1.477a7.06 7.06 0 0 1 .229 1.846v.729h-7.102v-1.327h5.476v-.123a4.09 4.09 0 0 0-.264-1.231 2.22 2.22 0 0 0-.703-.984c-.322-.258-.762-.387-1.318-.387a2.205 2.205 0 0 0-1.82.923 3.47 3.47 0 0 0-.518 1.116c-.123.44-.185.947-.185 1.521v.369c0 .451.062.876.185 1.275.129.392.313.738.553 1.037.246.298.542.533.888.703.352.17.75.255 1.195.255.575 0 1.061-.118 1.459-.352a3.61 3.61 0 0 0 1.046-.94l.985.782c-.205.31-.466.606-.783.888a3.735 3.735 0 0 1-1.169.685c-.457.176-.999.264-1.626.264Zm39.946-32.471v1.38h-6.926v-1.38h6.926Zm-6.662-5.502V164h-1.697v-12.797h1.697Zm8.138 0V164h-1.687v-12.797h1.687Zm2.338 8.148v-.203c0-.685.1-1.321.299-1.907a4.529 4.529 0 0 1 .861-1.538 3.84 3.84 0 0 1 1.363-1.019 4.23 4.23 0 0 1 1.793-.37c.668 0 1.268.124 1.801.37.539.24.996.58 1.371 1.019.381.434.671.946.871 1.538.199.586.298 1.222.298 1.907v.203c0 .685-.099 1.321-.298 1.907a4.58 4.58 0 0 1-.871 1.538 3.992 3.992 0 0 1-1.362 1.019c-.527.241-1.125.361-1.793.361-.668 0-1.268-.12-1.802-.361a4.085 4.085 0 0 1-1.371-1.019 4.646 4.646 0 0 1-.861-1.538 5.896 5.896 0 0 1-.299-1.907Zm1.626-.203v.203c0 .474.056.922.167 1.344.111.416.278.785.501 1.108.229.322.513.577.853.764.34.182.735.273 1.186.273.446 0 .835-.091 1.169-.273.34-.187.621-.442.844-.764.223-.323.39-.692.501-1.108a5.01 5.01 0 0 0 .176-1.344v-.203c0-.468-.059-.911-.176-1.327a3.396 3.396 0 0 0-.51-1.116 2.42 2.42 0 0 0-.844-.773c-.334-.188-.726-.282-1.177-.282-.446 0-.838.094-1.178.282a2.529 2.529 0 0 0-.844.773 3.51 3.51 0 0 0-.501 1.116 5.132 5.132 0 0 0-.167 1.327Zm15.214-4.658v1.345h-4.394V164h-1.626v-9.51h6.02Zm7.418 0v1.345h-4.597v-1.345h4.597Zm1.433 0V164h-1.626v-9.51h1.626Zm-6.425 0h1.635l-.247 4.588a16.94 16.94 0 0 1-.202 1.881 6.445 6.445 0 0 1-.369 1.389 2.886 2.886 0 0 1-.58.949c-.228.24-.504.419-.826.536a3.42 3.42 0 0 1-1.116.167h-.51v-1.433l.352-.026c.251-.018.465-.076.641-.176.182-.099.334-.246.457-.439.123-.199.223-.454.299-.765.082-.31.144-.68.185-1.107.046-.428.082-.926.105-1.494l.176-4.07Zm10.802 6.935 4.385-6.935h1.635V164h-1.635v-6.935L618.726 164h-1.618v-9.51h1.618v6.935Zm10.397-6.935V164h-1.626v-9.51h1.626Zm6.24 0-4.509 5.449h-2.276l-.246-1.423h1.863l3.191-4.026h1.977Zm-1.749 9.51-3.498-4.307 1.046-1.177L635.68 164h-2.066Zm5.239-2.575 4.385-6.935h1.635V164h-1.635v-6.935L638.853 164h-1.618v-9.51h1.618v6.935Zm-342.642 80.506h1.687a5.373 5.373 0 0 1-.694 2.171 4.06 4.06 0 0 1-1.591 1.52c-.685.369-1.541.554-2.566.554-.75 0-1.433-.141-2.048-.422a4.553 4.553 0 0 1-1.573-1.195 5.591 5.591 0 0 1-1.02-1.872c-.234-.733-.351-1.547-.351-2.444v-1.274c0-.897.117-1.708.351-2.435.24-.732.583-1.359 1.029-1.881a4.587 4.587 0 0 1 1.626-1.204c.632-.281 1.344-.422 2.135-.422.967 0 1.784.182 2.452.545a3.905 3.905 0 0 1 1.556 1.512c.375.639.607 1.38.694 2.224h-1.687c-.082-.598-.234-1.111-.457-1.538a2.374 2.374 0 0 0-.949-1.002c-.41-.235-.947-.352-1.609-.352-.568 0-1.069.108-1.503.325a3.04 3.04 0 0 0-1.081.923 4.282 4.282 0 0 0-.65 1.433 7.252 7.252 0 0 0-.22 1.854v1.292c0 .627.065 1.216.194 1.767.134.551.336 1.034.606 1.45.27.416.612.744 1.028.984.416.235.909.352 1.477.352.721 0 1.295-.114 1.723-.343a2.24 2.24 0 0 0 .966-.984c.223-.428.381-.941.475-1.538Zm9.22 1.907 3.234-7.348h1.564l-4.236 9.51h-1.125l-4.219-9.51h1.565l3.217 7.348Zm-3.692-7.348V246h-1.626v-9.51h1.626Zm7.33 9.51v-9.51h1.635V246h-1.635Zm6.012-2.575 4.386-6.935h1.635V246h-1.635v-6.935L315.081 246h-1.617v-9.51h1.617v6.935Zm10.257-5.107v11.338h-1.635V236.49h1.494l.141 1.828Zm6.407 2.848v.185c0 .691-.082 1.333-.246 1.924a4.726 4.726 0 0 1-.721 1.53c-.31.433-.694.77-1.151 1.01-.457.241-.981.361-1.573.361-.604 0-1.137-.1-1.6-.299a3.157 3.157 0 0 1-1.178-.87 4.445 4.445 0 0 1-.773-1.371 7.945 7.945 0 0 1-.387-1.802v-.984a8.268 8.268 0 0 1 .396-1.89 4.71 4.71 0 0 1 .764-1.424c.323-.398.712-.7 1.169-.905.457-.211.985-.317 1.582-.317.598 0 1.128.118 1.591.352.463.229.853.557 1.169.984.317.428.554.941.712 1.538.164.592.246 1.251.246 1.978Zm-1.635.185v-.185c0-.475-.049-.92-.149-1.336a3.376 3.376 0 0 0-.466-1.107 2.21 2.21 0 0 0-.791-.756c-.322-.188-.706-.281-1.151-.281-.41 0-.768.07-1.073.21a2.335 2.335 0 0 0-.764.572 3.039 3.039 0 0 0-.519.808c-.129.299-.225.61-.29.932v2.276c.117.411.281.797.492 1.161.211.357.493.647.844.87.352.216.794.325 1.327.325.44 0 .818-.091 1.134-.273.322-.187.586-.442.791-.764.211-.323.366-.692.466-1.108.1-.422.149-.87.149-1.344Zm10.161-.739v1.319h-5.028v-1.319h5.028Zm-4.685-4.122V246h-1.626v-9.51h1.626Zm6.003 0V246h-1.635v-9.51h1.635Zm3.955 3.27h2.856c.768 0 1.415.135 1.943.404.527.264.926.63 1.195 1.099.275.463.413.99.413 1.582 0 .439-.076.852-.228 1.239a2.787 2.787 0 0 1-.686 1.002 3.17 3.17 0 0 1-1.116.677c-.44.158-.946.237-1.521.237h-4.043v-9.51h1.626v8.174h2.417c.469 0 .844-.085 1.125-.255.282-.17.484-.389.607-.659s.184-.551.184-.844c0-.287-.061-.568-.184-.844a1.578 1.578 0 0 0-.607-.685c-.281-.188-.656-.281-1.125-.281h-2.856v-1.336Zm9.791-3.27V246h-1.626v-9.51h1.626Zm3.946 0 2.083 3.463 2.11-3.463h1.907l-3.111 4.694 3.208 4.816h-1.881l-2.198-3.568-2.197 3.568h-1.89l3.2-4.816-3.103-4.694h1.872Zm-78.022 60.713V310h-1.688v-11.408h-6.31V310h-1.697v-12.797h9.695Zm2.399 8.148v-.203c0-.685.1-1.321.299-1.907a4.529 4.529 0 0 1 .861-1.538 3.84 3.84 0 0 1 1.363-1.019 4.23 4.23 0 0 1 1.793-.37c.668 0 1.268.124 1.801.37.539.24.996.58 1.371 1.019.381.434.671.946.871 1.538.199.586.298 1.222.298 1.907v.203c0 .685-.099 1.321-.298 1.907a4.58 4.58 0 0 1-.871 1.538 3.992 3.992 0 0 1-1.362 1.019c-.527.241-1.125.361-1.793.361-.668 0-1.268-.12-1.802-.361a4.085 4.085 0 0 1-1.371-1.019 4.646 4.646 0 0 1-.861-1.538 5.896 5.896 0 0 1-.299-1.907Zm1.626-.203v.203c0 .474.056.922.167 1.344.111.416.278.785.501 1.108.229.322.513.577.853.764.34.182.735.273 1.186.273.446 0 .835-.091 1.169-.273.34-.187.621-.442.844-.764.223-.323.39-.692.501-1.108a5.01 5.01 0 0 0 .176-1.344v-.203c0-.468-.059-.911-.176-1.327a3.396 3.396 0 0 0-.51-1.116 2.42 2.42 0 0 0-.844-.773c-.334-.188-.726-.282-1.177-.282-.446 0-.838.094-1.178.282a2.529 2.529 0 0 0-.844.773 3.51 3.51 0 0 0-.501 1.116 5.132 5.132 0 0 0-.167 1.327Zm10.696-2.83v11.338h-1.634V300.49h1.494l.14 1.828Zm6.408 2.848v.185c0 .691-.082 1.333-.246 1.924a4.747 4.747 0 0 1-.721 1.53c-.311.433-.694.77-1.151 1.01-.458.241-.982.361-1.574.361-.603 0-1.136-.1-1.599-.299a3.149 3.149 0 0 1-1.178-.87 4.445 4.445 0 0 1-.773-1.371 7.891 7.891 0 0 1-.387-1.802v-.984a8.27 8.27 0 0 1 .395-1.89 4.733 4.733 0 0 1 .765-1.424 3.14 3.14 0 0 1 1.169-.905c.457-.211.984-.317 1.582-.317.598 0 1.128.118 1.591.352.463.229.852.557 1.169.984.316.428.553.941.712 1.538.164.592.246 1.251.246 1.978Zm-1.635.185v-.185c0-.475-.05-.92-.149-1.336a3.376 3.376 0 0 0-.466-1.107 2.21 2.21 0 0 0-.791-.756c-.323-.188-.706-.281-1.152-.281-.41 0-.767.07-1.072.21a2.329 2.329 0 0 0-.765.572 3.036 3.036 0 0 0-.518.808c-.129.299-.226.61-.29.932v2.276c.117.411.281.797.492 1.161.211.357.492.647.844.87.351.216.794.325 1.327.325.439 0 .817-.091 1.134-.273.322-.187.586-.442.791-.764.211-.323.366-.692.466-1.108a5.87 5.87 0 0 0 .149-1.344Zm3.278 0v-.203c0-.685.1-1.321.299-1.907a4.529 4.529 0 0 1 .861-1.538c.375-.439.83-.779 1.363-1.019a4.23 4.23 0 0 1 1.793-.37c.668 0 1.268.124 1.801.37.54.24.997.58 1.372 1.019.38.434.67.946.87 1.538.199.586.298 1.222.298 1.907v.203c0 .685-.099 1.321-.298 1.907-.2.586-.49 1.098-.87 1.538-.375.433-.83.773-1.363 1.019-.527.241-1.125.361-1.793.361-.668 0-1.268-.12-1.802-.361a4.085 4.085 0 0 1-1.371-1.019 4.646 4.646 0 0 1-.861-1.538 5.896 5.896 0 0 1-.299-1.907Zm1.626-.203v.203c0 .474.056.922.167 1.344.112.416.279.785.501 1.108.229.322.513.577.853.764.34.182.735.273 1.186.273.446 0 .835-.091 1.169-.273.34-.187.621-.442.844-.764.223-.323.39-.692.501-1.108a5.01 5.01 0 0 0 .176-1.344v-.203c0-.468-.059-.911-.176-1.327a3.396 3.396 0 0 0-.51-1.116 2.411 2.411 0 0 0-.844-.773c-.334-.188-.726-.282-1.177-.282-.446 0-.838.094-1.178.282a2.529 2.529 0 0 0-.844.773 3.554 3.554 0 0 0-.501 1.116 5.132 5.132 0 0 0-.167 1.327Zm15.522-.536v1.319h-5.028v-1.319h5.028Zm-4.685-4.122V310h-1.626v-9.51h1.626Zm6.003 0V310h-1.635v-9.51h1.635Zm8.227 7.884v-4.895c0-.375-.077-.701-.229-.976a1.491 1.491 0 0 0-.668-.65c-.299-.153-.668-.229-1.107-.229-.41 0-.771.07-1.081.211a1.882 1.882 0 0 0-.721.554 1.21 1.21 0 0 0-.255.738h-1.626c0-.34.088-.677.264-1.011.176-.334.428-.636.756-.905a3.779 3.779 0 0 1 1.195-.65c.469-.165.99-.247 1.564-.247.692 0 1.301.118 1.829.352.533.234.949.589 1.248 1.063.304.469.457 1.058.457 1.767v4.43c0 .316.026.653.079 1.011.058.357.143.665.255.922V310h-1.697a3.058 3.058 0 0 1-.193-.747 5.997 5.997 0 0 1-.07-.879Zm.281-4.14.017 1.143h-1.643a6.08 6.08 0 0 0-1.239.114 2.855 2.855 0 0 0-.914.325 1.543 1.543 0 0 0-.563.554 1.469 1.469 0 0 0-.193.765c0 .299.067.571.202.817s.337.443.606.589c.276.141.613.211 1.011.211.498 0 .938-.106 1.318-.316.381-.211.683-.469.906-.774.228-.305.351-.6.369-.888l.694.783c-.041.246-.152.518-.334.817a3.943 3.943 0 0 1-1.802 1.538c-.41.176-.873.264-1.388.264-.645 0-1.21-.126-1.697-.378a2.907 2.907 0 0 1-1.125-1.011 2.681 2.681 0 0 1-.395-1.433c0-.509.1-.958.299-1.344.199-.393.486-.718.861-.976a4.086 4.086 0 0 1 1.354-.597 7.123 7.123 0 0 1 1.766-.203h1.89Zm5.66 3.191 4.386-6.935h1.635V310h-1.635v-6.935L336.665 310h-1.617v-9.51h1.617v6.935Zm3.498-10.38h1.318c0 .457-.105.864-.316 1.222a2.18 2.18 0 0 1-.905.826c-.393.199-.859.299-1.398.299-.814 0-1.459-.217-1.933-.651-.469-.439-.703-1.005-.703-1.696h1.318c0 .346.1.65.299.914.199.264.539.395 1.019.395.469 0 .803-.131 1.002-.395.199-.264.299-.568.299-.914Zm8.939 11.795a2.44 2.44 0 0 0 1.072-.237c.328-.159.597-.375.808-.651.211-.281.331-.6.361-.958h1.547a2.9 2.9 0 0 1-.572 1.573 3.875 3.875 0 0 1-1.362 1.169 3.953 3.953 0 0 1-1.854.44c-.715 0-1.339-.126-1.873-.378a3.721 3.721 0 0 1-1.318-1.037 4.642 4.642 0 0 1-.782-1.512 6.377 6.377 0 0 1-.255-1.819v-.369c0-.639.085-1.243.255-1.811a4.627 4.627 0 0 1 .782-1.521 3.721 3.721 0 0 1 1.318-1.037c.534-.252 1.158-.378 1.873-.378.744 0 1.394.153 1.951.457.556.299.993.709 1.309 1.231.323.516.498 1.102.528 1.758h-1.547a2.358 2.358 0 0 0-.334-1.064 2.096 2.096 0 0 0-.774-.756c-.322-.193-.7-.29-1.133-.29-.498 0-.917.1-1.257.299a2.206 2.206 0 0 0-.8.791 3.71 3.71 0 0 0-.422 1.099 6.045 6.045 0 0 0-.123 1.222v.369c0 .416.041.826.123 1.23.082.404.22.771.413 1.099.199.328.466.592.8.791.34.193.762.29 1.266.29Zm7.382-8.35V310h-1.626v-9.51h1.626Zm6.241 0-4.509 5.449h-2.277l-.246-1.423h1.864l3.19-4.026h1.978Zm-1.749 9.51-3.498-4.307 1.045-1.177 4.518 5.484h-2.065Zm-156.955-39.797h1.644l4.192 10.433 4.184-10.433h1.652L210.49 283h-1.283l-5.186-12.797Zm-.536 0h1.451l.237 7.805V283h-1.688v-12.797Zm11.286 0h1.45V283h-1.688v-4.992l.238-7.805Zm9.791 11.171v-4.895c0-.375-.077-.701-.229-.976a1.491 1.491 0 0 0-.668-.65c-.299-.153-.668-.229-1.107-.229-.411 0-.771.07-1.081.211a1.882 1.882 0 0 0-.721.554 1.21 1.21 0 0 0-.255.738h-1.626c0-.34.088-.677.264-1.011.175-.334.427-.636.756-.905a3.779 3.779 0 0 1 1.195-.65c.469-.165.99-.247 1.564-.247.692 0 1.301.118 1.828.352.534.234.95.589 1.248 1.063.305.469.458 1.058.458 1.767v4.43c0 .316.026.653.079 1.011.058.357.143.665.254.922V283h-1.696a3.058 3.058 0 0 1-.193-.747 5.997 5.997 0 0 1-.07-.879Zm.281-4.14.017 1.143h-1.643a6.08 6.08 0 0 0-1.239.114 2.87 2.87 0 0 0-.915.325 1.548 1.548 0 0 0-.562.554 1.469 1.469 0 0 0-.193.765c0 .299.067.571.202.817s.337.443.606.589c.276.141.613.211 1.011.211.498 0 .937-.106 1.318-.316.381-.211.683-.469.906-.774.228-.305.351-.6.369-.888l.694.783c-.041.246-.152.518-.334.817a3.92 3.92 0 0 1-1.802 1.538c-.41.176-.873.264-1.388.264-.645 0-1.21-.126-1.697-.378a2.907 2.907 0 0 1-1.125-1.011 2.681 2.681 0 0 1-.395-1.433c0-.509.099-.958.299-1.344.199-.393.486-.718.861-.976a4.086 4.086 0 0 1 1.354-.597 7.123 7.123 0 0 1 1.766-.203h1.89Zm5.669-3.744V283h-1.626v-9.51h1.626Zm6.24 0-4.509 5.449h-2.276l-.246-1.423h1.863l3.19-4.026h1.978Zm-1.749 9.51-3.498-4.307 1.046-1.177 4.517 5.484h-2.065Zm9.088-1.626v-4.895c0-.375-.076-.701-.229-.976a1.491 1.491 0 0 0-.668-.65c-.298-.153-.668-.229-1.107-.229-.41 0-.771.07-1.081.211a1.882 1.882 0 0 0-.721.554 1.21 1.21 0 0 0-.255.738h-1.626c0-.34.088-.677.264-1.011.176-.334.428-.636.756-.905a3.779 3.779 0 0 1 1.195-.65c.469-.165.99-.247 1.565-.247.691 0 1.3.118 1.828.352.533.234.949.589 1.248 1.063.304.469.457 1.058.457 1.767v4.43c0 .316.026.653.079 1.011.058.357.143.665.255.922V283h-1.697a3.058 3.058 0 0 1-.193-.747 5.997 5.997 0 0 1-.07-.879Zm.281-4.14.018 1.143h-1.644a6.08 6.08 0 0 0-1.239.114 2.864 2.864 0 0 0-.914.325 1.55 1.55 0 0 0-.563.554 1.469 1.469 0 0 0-.193.765c0 .299.067.571.202.817s.337.443.607.589c.275.141.612.211 1.01.211a2.69 2.69 0 0 0 1.319-.316c.38-.211.682-.469.905-.774.228-.305.351-.6.369-.888l.694.783c-.041.246-.152.518-.334.817a3.937 3.937 0 0 1-1.801 1.538 3.493 3.493 0 0 1-1.389.264c-.645 0-1.21-.126-1.696-.378a2.893 2.893 0 0 1-1.125-1.011 2.673 2.673 0 0 1-.396-1.433c0-.509.1-.958.299-1.344.199-.393.486-.718.861-.976a4.086 4.086 0 0 1 1.354-.597 7.123 7.123 0 0 1 1.766-.203h1.89Zm5.528-1.916v11.338h-1.634V273.49h1.494l.14 1.828Zm6.408 2.848v.185c0 .691-.082 1.333-.246 1.924a4.768 4.768 0 0 1-.721 1.53c-.311.433-.695.77-1.152 1.01-.457.241-.981.361-1.573.361-.603 0-1.137-.1-1.599-.299a3.149 3.149 0 0 1-1.178-.87 4.468 4.468 0 0 1-.774-1.371 7.946 7.946 0 0 1-.386-1.802v-.984a8.27 8.27 0 0 1 .395-1.89 4.711 4.711 0 0 1 .765-1.424 3.14 3.14 0 0 1 1.169-.905c.457-.211.984-.317 1.582-.317.598 0 1.128.118 1.591.352.463.229.852.557 1.169.984.316.428.553.941.712 1.538.164.592.246 1.251.246 1.978Zm-1.635.185v-.185c0-.475-.05-.92-.15-1.336a3.353 3.353 0 0 0-.465-1.107 2.21 2.21 0 0 0-.791-.756c-.323-.188-.706-.281-1.152-.281-.41 0-.767.07-1.072.21a2.329 2.329 0 0 0-.765.572 3.036 3.036 0 0 0-.518.808c-.129.299-.226.61-.29.932v2.276c.117.411.281.797.492 1.161.211.357.492.647.844.87.351.216.794.325 1.327.325.439 0 .817-.091 1.134-.273.322-.187.586-.442.791-.764a3.48 3.48 0 0 0 .465-1.108c.1-.422.15-.87.15-1.344Zm3.278 0v-.203c0-.685.1-1.321.299-1.907a4.529 4.529 0 0 1 .861-1.538 3.84 3.84 0 0 1 1.363-1.019c.533-.246 1.13-.37 1.793-.37.668 0 1.268.124 1.801.37.539.24.996.58 1.371 1.019.381.434.671.946.871 1.538.199.586.298 1.222.298 1.907v.203c0 .685-.099 1.321-.298 1.907a4.58 4.58 0 0 1-.871 1.538 3.992 3.992 0 0 1-1.362 1.019c-.527.241-1.125.361-1.793.361-.668 0-1.268-.12-1.802-.361a4.085 4.085 0 0 1-1.371-1.019 4.646 4.646 0 0 1-.861-1.538 5.896 5.896 0 0 1-.299-1.907Zm1.626-.203v.203c0 .474.056.922.167 1.344.111.416.278.785.501 1.108.229.322.513.577.853.764.34.182.735.273 1.186.273.445 0 .835-.091 1.169-.273.34-.187.621-.442.844-.764.223-.323.39-.692.501-1.108a5.01 5.01 0 0 0 .176-1.344v-.203c0-.468-.059-.911-.176-1.327a3.396 3.396 0 0 0-.51-1.116 2.42 2.42 0 0 0-.844-.773c-.334-.188-.726-.282-1.177-.282-.446 0-.838.094-1.178.282a2.529 2.529 0 0 0-.844.773 3.51 3.51 0 0 0-.501 1.116 5.132 5.132 0 0 0-.167 1.327Zm13.535.668h-3.12l-.017-1.3h2.548c.504 0 .923-.05 1.257-.15.34-.099.595-.249.765-.448.17-.199.255-.445.255-.738 0-.229-.05-.428-.15-.598a1.086 1.086 0 0 0-.43-.431 2.142 2.142 0 0 0-.721-.255 4.967 4.967 0 0 0-.993-.087h-2.083V283h-1.626v-9.51h3.709a7.65 7.65 0 0 1 1.626.158c.486.106.899.267 1.239.484.346.211.609.48.791.808.182.329.273.715.273 1.161a1.955 1.955 0 0 1-.695 1.503 2.81 2.81 0 0 1-.844.492 4.337 4.337 0 0 1-1.151.237l-.633.483Zm0 4.184h-3.709l.809-1.318h2.9c.451 0 .826-.056 1.125-.167.299-.118.522-.282.668-.493.153-.216.229-.474.229-.773 0-.299-.076-.554-.229-.765-.146-.216-.369-.38-.668-.492-.299-.117-.674-.176-1.125-.176h-2.469l.017-1.3h3.085l.589.492c.521.041.964.17 1.327.387.363.216.639.492.826.826.188.328.282.685.282 1.072 0 .445-.085.838-.255 1.178a2.24 2.24 0 0 1-.721.852c-.316.223-.7.393-1.151.51a6.424 6.424 0 0 1-1.53.167Zm-96.065 44.015h-3.243l-.018-1.363h2.944c.487 0 .912-.082 1.275-.246a1.93 1.93 0 0 0 .844-.703c.205-.31.307-.68.307-1.107 0-.469-.091-.85-.272-1.143-.176-.299-.448-.515-.818-.65-.363-.141-.826-.211-1.388-.211h-2.496V333h-1.697v-12.797h4.193a7.01 7.01 0 0 1 1.758.202c.515.129.952.334 1.309.616.363.275.639.626.826 1.054.188.428.282.941.282 1.538 0 .528-.135 1.005-.405 1.433a3.1 3.1 0 0 1-1.125 1.037c-.474.27-1.031.442-1.67.519l-.606.413Zm-.079 5.985h-3.832l.958-1.38h2.874c.539 0 .996-.094 1.371-.281.381-.188.671-.451.87-.791.199-.346.299-.753.299-1.222 0-.474-.085-.885-.255-1.23a1.76 1.76 0 0 0-.8-.8c-.363-.188-.832-.281-1.406-.281h-2.417l.017-1.363h3.305l.36.493c.616.052 1.137.228 1.565.527.428.293.753.668.976 1.125.228.457.342.961.342 1.512 0 .796-.175 1.47-.527 2.021-.346.545-.835.961-1.468 1.248-.633.281-1.377.422-2.232.422Zm10.037-4.544h-1.749v-1.002h1.617c.451 0 .809-.056 1.072-.167.264-.117.451-.278.563-.483.111-.205.167-.446.167-.721 0-.246-.065-.478-.194-.694-.123-.223-.322-.402-.597-.536-.276-.141-.645-.211-1.108-.211-.375 0-.714.067-1.019.202a1.81 1.81 0 0 0-.73.536 1.191 1.191 0 0 0-.263.756h-1.626c0-.58.164-1.078.492-1.494.334-.422.776-.747 1.327-.976a4.755 4.755 0 0 1 1.819-.343 5.42 5.42 0 0 1 1.477.185 3.14 3.14 0 0 1 1.116.527c.305.229.536.516.694.861.165.34.247.736.247 1.187 0 .322-.077.627-.229.914a2.384 2.384 0 0 1-.659.765 3.28 3.28 0 0 1-1.046.509 4.67 4.67 0 0 1-1.371.185Zm-1.749-.615h1.749c.568 0 1.069.055 1.503.167.433.105.797.263 1.09.474.293.211.512.472.659.783.152.304.228.656.228 1.054 0 .446-.09.847-.272 1.204a2.52 2.52 0 0 1-.756.897 3.53 3.53 0 0 1-1.178.562 5.457 5.457 0 0 1-1.503.194 5.207 5.207 0 0 1-1.793-.317 3.349 3.349 0 0 1-1.432-.975c-.375-.446-.563-1.011-.563-1.696h1.626c0 .287.091.559.273.817.181.258.433.466.756.624.328.158.706.237 1.133.237.457 0 .838-.07 1.143-.211a1.57 1.57 0 0 0 .685-.562c.159-.235.238-.489.238-.765 0-.357-.071-.644-.211-.861-.141-.217-.358-.375-.651-.475-.287-.105-.656-.158-1.107-.158h-1.617v-.993Zm12.806 2.997 3.234-7.348h1.564l-4.236 9.51h-1.125l-4.219-9.51h1.565l3.217 7.348Zm-3.692-7.348V333h-1.626v-9.51h1.626Zm7.33 9.51v-9.51h1.635V333H201.7Zm3.823-4.649v-.203c0-.685.1-1.321.299-1.907a4.531 4.531 0 0 1 .862-1.538 3.845 3.845 0 0 1 1.362-1.019 4.23 4.23 0 0 1 1.793-.37c.668 0 1.268.124 1.802.37.539.24.996.58 1.371 1.019.381.434.671.946.87 1.538.199.586.299 1.222.299 1.907v.203c0 .685-.1 1.321-.299 1.907a4.561 4.561 0 0 1-.87 1.538 3.986 3.986 0 0 1-1.363 1.019c-.527.241-1.125.361-1.793.361-.668 0-1.268-.12-1.801-.361a4.065 4.065 0 0 1-1.371-1.019 4.648 4.648 0 0 1-.862-1.538 5.896 5.896 0 0 1-.299-1.907Zm1.626-.203v.203c0 .474.056.922.167 1.344.112.416.279.785.501 1.108.229.322.513.577.853.764.34.182.735.273 1.186.273.446 0 .835-.091 1.169-.273.34-.187.621-.442.844-.764.223-.323.39-.692.501-1.108a5.01 5.01 0 0 0 .176-1.344v-.203c0-.468-.059-.911-.176-1.327a3.396 3.396 0 0 0-.51-1.116 2.417 2.417 0 0 0-.843-.773c-.334-.188-.727-.282-1.178-.282-.445 0-.838.094-1.178.282a2.529 2.529 0 0 0-.844.773 3.554 3.554 0 0 0-.501 1.116 5.132 5.132 0 0 0-.167 1.327Zm10.697-2.83v11.338h-1.635V323.49h1.494l.141 1.828Zm6.407 2.848v.185c0 .691-.082 1.333-.246 1.924a4.726 4.726 0 0 1-.721 1.53c-.31.433-.694.77-1.151 1.01-.457.241-.982.361-1.573.361-.604 0-1.137-.1-1.6-.299a3.149 3.149 0 0 1-1.178-.87 4.445 4.445 0 0 1-.773-1.371 7.891 7.891 0 0 1-.387-1.802v-.984c.07-.704.202-1.333.396-1.89a4.71 4.71 0 0 1 .764-1.424 3.14 3.14 0 0 1 1.169-.905c.457-.211.985-.317 1.582-.317.598 0 1.128.118 1.591.352.463.229.853.557 1.169.984a4.5 4.5 0 0 1 .712 1.538c.164.592.246 1.251.246 1.978Zm-1.635.185v-.185c0-.475-.05-.92-.149-1.336a3.376 3.376 0 0 0-.466-1.107 2.21 2.21 0 0 0-.791-.756c-.322-.188-.706-.281-1.151-.281-.411 0-.768.07-1.073.21a2.325 2.325 0 0 0-.764.572 3.039 3.039 0 0 0-.519.808c-.129.299-.226.61-.29.932v2.276c.117.411.281.797.492 1.161.211.357.492.647.844.87.352.216.794.325 1.327.325.44 0 .818-.091 1.134-.273.322-.187.586-.442.791-.764.211-.323.366-.692.466-1.108a5.87 5.87 0 0 0 .149-1.344Zm5.045-1.591h2.857c.767 0 1.415.135 1.942.404.527.264.926.63 1.195 1.099.276.463.413.99.413 1.582 0 .439-.076.852-.228 1.239a2.787 2.787 0 0 1-.686 1.002 3.17 3.17 0 0 1-1.116.677c-.439.158-.946.237-1.52.237h-4.043v-9.51h1.626v8.174h2.417c.468 0 .843-.085 1.125-.255.281-.17.483-.389.606-.659a2.013 2.013 0 0 0 0-1.688 1.582 1.582 0 0 0-.606-.685c-.282-.188-.657-.281-1.125-.281h-2.857v-1.336Zm12.384 6.416a4.692 4.692 0 0 1-1.802-.334 4.1 4.1 0 0 1-1.38-.958 4.261 4.261 0 0 1-.879-1.459 5.356 5.356 0 0 1-.307-1.846v-.369c0-.773.114-1.462.342-2.065.229-.61.54-1.125.932-1.547a3.983 3.983 0 0 1 1.336-.958 3.836 3.836 0 0 1 1.547-.326c.68 0 1.266.118 1.758.352.498.234.905.563 1.221.984.317.416.551.909.704 1.477a7.06 7.06 0 0 1 .228 1.846v.729h-7.101v-1.327h5.475v-.123a4.03 4.03 0 0 0-.264-1.231 2.205 2.205 0 0 0-.703-.984c-.322-.258-.761-.387-1.318-.387a2.207 2.207 0 0 0-1.819.923 3.45 3.45 0 0 0-.519 1.116c-.123.44-.185.947-.185 1.521v.369c0 .451.062.876.185 1.275.129.392.314.738.554 1.037.246.298.542.533.887.703.352.17.75.255 1.196.255.574 0 1.06-.118 1.459-.352a3.622 3.622 0 0 0 1.046-.94l.984.782c-.205.31-.466.606-.782.888a3.747 3.747 0 0 1-1.169.685c-.457.176-.999.264-1.626.264ZM75.549 331.62V333h-9.686v-1.38h9.686Zm-9.413 0v4.526h-1.679l-.009-4.526h1.688Zm10.89 0-.018 4.518h-1.679v-4.518h1.696Zm-3.138-11.417v1.389H68.28v-1.389h5.608Zm1.459 0V333h-1.688v-12.797h1.688Zm-7.647 0h1.697l-.264 5.151a17.64 17.64 0 0 1-.22 2.144 14.57 14.57 0 0 1-.413 1.784 9.582 9.582 0 0 1-.563 1.45 6.63 6.63 0 0 1-.676 1.099 4.17 4.17 0 0 1-.756.756 2.6 2.6 0 0 1-.782.413h-.774v-1.38h.545a4.78 4.78 0 0 0 .519-.712c.199-.31.395-.712.589-1.204.199-.498.372-1.104.518-1.819.152-.715.255-1.559.308-2.531l.272-5.151Zm10.644 8.148v-.203c0-.685.1-1.321.299-1.907a4.544 4.544 0 0 1 .86-1.538c.376-.439.83-.779 1.363-1.019a4.23 4.23 0 0 1 1.793-.37c.668 0 1.269.124 1.802.37.539.24.996.58 1.371 1.019.38.434.67.946.87 1.538.2.586.299 1.222.299 1.907v.203c0 .685-.1 1.321-.299 1.907-.2.586-.49 1.098-.87 1.538-.375.433-.83.773-1.362 1.019-.528.241-1.125.361-1.793.361-.668 0-1.269-.12-1.802-.361a4.083 4.083 0 0 1-1.371-1.019 4.65 4.65 0 0 1-.861-1.538 5.89 5.89 0 0 1-.3-1.907Zm1.626-.203v.203c0 .474.055.922.167 1.344.111.416.278.785.5 1.108.23.322.513.577.853.764.34.182.736.273 1.187.273.445 0 .835-.091 1.169-.273a2.45 2.45 0 0 0 .843-.764c.223-.323.39-.692.501-1.108a4.97 4.97 0 0 0 .176-1.344v-.203c0-.468-.058-.911-.176-1.327a3.412 3.412 0 0 0-.51-1.116 2.418 2.418 0 0 0-.843-.773c-.334-.188-.727-.282-1.178-.282-.445 0-.838.094-1.178.282a2.524 2.524 0 0 0-.843.773 3.51 3.51 0 0 0-.501 1.116 5.12 5.12 0 0 0-.167 1.327Zm15.284-4.658v1.345h-4.597v-1.345h4.597Zm1.432 0V333H95.06v-9.51h1.626Zm-6.424 0h1.635l-.247 4.588a16.984 16.984 0 0 1-.202 1.881 6.421 6.421 0 0 1-.369 1.389 2.902 2.902 0 0 1-.58.949c-.228.24-.504.419-.826.536a3.424 3.424 0 0 1-1.116.167h-.51v-1.433l.351-.026a1.5 1.5 0 0 0 .642-.176c.182-.099.334-.246.457-.439.123-.199.223-.454.299-.765.082-.31.143-.68.184-1.107.047-.428.082-.926.106-1.494l.176-4.07Zm10.801 6.935 4.386-6.935h1.635V333h-1.635v-6.935L101.063 333h-1.617v-9.51h1.617v6.935Zm15.083-2.813v1.319h-5.028v-1.319h5.028Zm-4.685-4.122V333h-1.626v-9.51h1.626Zm6.003 0V333h-1.635v-9.51h1.635Zm6.425 8.35a2.44 2.44 0 0 0 1.072-.237c.328-.159.598-.375.809-.651.21-.281.331-.6.36-.958h1.547a2.9 2.9 0 0 1-.572 1.573 3.875 3.875 0 0 1-1.362 1.169 3.953 3.953 0 0 1-1.854.44c-.715 0-1.339-.126-1.872-.378a3.716 3.716 0 0 1-1.319-1.037 4.661 4.661 0 0 1-.782-1.512 6.377 6.377 0 0 1-.255-1.819v-.369c0-.639.085-1.243.255-1.811a4.647 4.647 0 0 1 .782-1.521 3.716 3.716 0 0 1 1.319-1.037c.533-.252 1.157-.378 1.872-.378.744 0 1.394.153 1.951.457.556.299.993.709 1.309 1.231.323.516.498 1.102.528 1.758h-1.547a2.346 2.346 0 0 0-.334-1.064 2.088 2.088 0 0 0-.774-.756c-.322-.193-.7-.29-1.133-.29-.498 0-.917.1-1.257.299a2.206 2.206 0 0 0-.8.791 3.71 3.71 0 0 0-.422 1.099 6.045 6.045 0 0 0-.123 1.222v.369c0 .416.041.826.123 1.23.082.404.22.771.413 1.099.199.328.466.592.8.791.34.193.762.29 1.266.29Zm7.382-8.35V333h-1.625v-9.51h1.625Zm6.241 0-4.509 5.449h-2.276l-.247-1.423h1.864l3.19-4.026h1.978Zm-1.749 9.51-3.498-4.307 1.046-1.177 4.517 5.484h-2.065Zm240.575-152.803v.809c0 .961-.12 1.822-.36 2.584-.241.762-.586 1.409-1.038 1.942a4.495 4.495 0 0 1-1.626 1.222c-.626.281-1.33.422-2.109.422-.756 0-1.45-.141-2.083-.422a4.685 4.685 0 0 1-1.635-1.222c-.457-.533-.811-1.18-1.063-1.942-.252-.762-.378-1.623-.378-2.584v-.809c0-.961.123-1.819.369-2.575.252-.762.606-1.409 1.064-1.942a4.56 4.56 0 0 1 1.625-1.231 5.08 5.08 0 0 1 2.084-.422c.779 0 1.482.141 2.109.422a4.453 4.453 0 0 1 1.626 1.231c.457.533.806 1.18 1.046 1.942.246.756.369 1.614.369 2.575Zm-1.679.809v-.826c0-.762-.079-1.436-.237-2.022-.152-.586-.378-1.078-.677-1.476a2.914 2.914 0 0 0-1.099-.906c-.427-.205-.914-.307-1.458-.307-.528 0-1.005.102-1.433.307a3.03 3.03 0 0 0-1.09.906c-.299.398-.53.89-.694 1.476-.164.586-.246 1.26-.246 2.022v.826c0 .767.082 1.447.246 2.039.164.586.398 1.081.703 1.485.31.399.677.7 1.098.906.428.205.906.307 1.433.307.551 0 1.04-.102 1.468-.307a2.87 2.87 0 0 0 1.081-.906c.299-.404.524-.899.677-1.485.152-.592.228-1.272.228-2.039Zm10.424.606v1.319h-5.027v-1.319h5.027Zm-4.685-4.122V187h-1.626v-9.51h1.626Zm6.003 0V187h-1.634v-9.51h1.634Zm2.189 4.861v-.203c0-.685.099-1.321.299-1.907a4.529 4.529 0 0 1 .861-1.538 3.845 3.845 0 0 1 1.362-1.019 4.234 4.234 0 0 1 1.793-.37c.668 0 1.269.124 1.802.37.539.24.996.58 1.371 1.019.381.434.671.946.87 1.538.199.586.299 1.222.299 1.907v.203c0 .685-.1 1.321-.299 1.907a4.561 4.561 0 0 1-.87 1.538 3.992 3.992 0 0 1-1.362 1.019c-.528.241-1.125.361-1.793.361-.668 0-1.269-.12-1.802-.361a4.085 4.085 0 0 1-1.371-1.019 4.646 4.646 0 0 1-.861-1.538 5.87 5.87 0 0 1-.299-1.907Zm1.626-.203v.203c0 .474.055.922.167 1.344.111.416.278.785.501 1.108.228.322.512.577.852.764.34.182.736.273 1.187.273.445 0 .835-.091 1.169-.273.34-.187.621-.442.844-.764.222-.323.389-.692.501-1.108a5.01 5.01 0 0 0 .175-1.344v-.203c0-.468-.058-.911-.175-1.327a3.438 3.438 0 0 0-.51-1.116 2.42 2.42 0 0 0-.844-.773c-.334-.188-.727-.282-1.178-.282-.445 0-.838.094-1.177.282a2.52 2.52 0 0 0-.844.773 3.51 3.51 0 0 0-.501 1.116 5.09 5.09 0 0 0-.167 1.327Zm10.696-2.83v11.338h-1.635V177.49h1.494l.141 1.828Zm6.407 2.848v.185c0 .691-.082 1.333-.246 1.924a4.745 4.745 0 0 1-.72 1.53c-.311.433-.695.77-1.152 1.01-.457.241-.981.361-1.573.361-.604 0-1.137-.1-1.6-.299a3.146 3.146 0 0 1-1.177-.87 4.447 4.447 0 0 1-.774-1.371 7.999 7.999 0 0 1-.387-1.802v-.984a8.322 8.322 0 0 1 .396-1.89 4.69 4.69 0 0 1 .765-1.424c.322-.398.711-.7 1.169-.905.457-.211.984-.317 1.582-.317.597 0 1.127.118 1.59.352.463.229.853.557 1.169.984.317.428.554.941.712 1.538.164.592.246 1.251.246 1.978Zm-1.634.185v-.185c0-.475-.05-.92-.15-1.336a3.355 3.355 0 0 0-.466-1.107 2.201 2.201 0 0 0-.791-.756c-.322-.188-.706-.281-1.151-.281-.41 0-.768.07-1.072.21a2.329 2.329 0 0 0-.765.572 3.039 3.039 0 0 0-.519.808c-.128.299-.225.61-.29.932v2.276c.118.411.282.797.493 1.161.211.357.492.647.843.87.352.216.794.325 1.328.325.439 0 .817-.091 1.133-.273.323-.187.586-.442.791-.764.211-.323.367-.692.466-1.108.1-.422.15-.87.15-1.344ZM734.506 10.572v.809c0 .96-.12 1.822-.36 2.584-.241.762-.586 1.409-1.038 1.942-.451.533-.993.94-1.626 1.222-.627.281-1.33.422-2.109.422a5.07 5.07 0 0 1-2.083-.422 4.684 4.684 0 0 1-1.635-1.222c-.457-.533-.811-1.18-1.063-1.942-.252-.762-.378-1.623-.378-2.584v-.809c0-.96.123-1.82.369-2.575.252-.762.606-1.41 1.063-1.942.458-.54 1-.95 1.626-1.23a5.075 5.075 0 0 1 2.083-.423c.78 0 1.483.141 2.11.422a4.453 4.453 0 0 1 1.626 1.23c.457.534.805 1.181 1.046 1.943.246.756.369 1.614.369 2.575Zm-1.679.809v-.826c0-.762-.079-1.436-.237-2.022-.152-.586-.378-1.078-.677-1.476a2.918 2.918 0 0 0-1.099-.906c-.427-.205-.914-.307-1.459-.307a3.27 3.27 0 0 0-1.432.307 3.035 3.035 0 0 0-1.09.906c-.299.398-.53.89-.694 1.476-.164.586-.246 1.26-.246 2.022v.826c0 .767.082 1.447.246 2.039.164.586.398 1.081.703 1.485.31.399.677.7 1.098.905.428.206.906.308 1.433.308.551 0 1.04-.102 1.468-.307a2.864 2.864 0 0 0 1.081-.906c.299-.404.524-.9.677-1.485.152-.592.228-1.272.228-2.04Zm5.071-3.516 2.083 3.463 2.11-3.463h1.907l-3.111 4.694 3.208 4.816h-1.881l-2.197-3.568-2.198 3.568h-1.889l3.199-4.816-3.103-4.694h1.872Zm13.439 7.884v-4.896c0-.374-.076-.7-.229-.975a1.492 1.492 0 0 0-.668-.65c-.298-.153-.668-.229-1.107-.229-.41 0-.771.07-1.081.211-.305.14-.545.325-.721.554a1.21 1.21 0 0 0-.255.738h-1.626c0-.34.088-.677.264-1.01.176-.335.428-.637.756-.906a3.776 3.776 0 0 1 1.195-.65c.469-.165.99-.247 1.565-.247.691 0 1.3.118 1.828.352a2.74 2.74 0 0 1 1.248 1.063c.305.47.457 1.058.457 1.767v4.43c0 .316.026.653.079 1.01.059.358.144.666.255.923v.141h-1.696a3.041 3.041 0 0 1-.194-.747 6.004 6.004 0 0 1-.07-.879Zm.281-4.14.018 1.143h-1.644a6.08 6.08 0 0 0-1.239.114 2.84 2.84 0 0 0-.914.325 1.55 1.55 0 0 0-.563.554 1.467 1.467 0 0 0-.193.765c0 .299.067.571.202.817s.337.443.607.589c.275.14.612.211 1.01.211.498 0 .938-.105 1.319-.316.381-.211.682-.47.905-.774.228-.305.352-.6.369-.888l.694.783c-.041.246-.152.518-.334.817a3.938 3.938 0 0 1-1.801 1.538 3.49 3.49 0 0 1-1.389.264c-.644 0-1.21-.126-1.696-.378a2.893 2.893 0 0 1-1.125-1.01 2.673 2.673 0 0 1-.396-1.434c0-.51.1-.957.299-1.344.199-.393.486-.718.861-.976a4.098 4.098 0 0 1 1.354-.598 7.141 7.141 0 0 1 1.767-.202h1.889Z" fill="#fff"/></svg>