<svg width="242" height="252" fill="none" xmlns="http://www.w3.org/2000/svg"><path d="M84.296 190.563c-.074 1.7 1.644 1.349 2.512.962 4.637 1.055-2.035 7.573-2.016 7.149.018-.425-4.398 3.212-5.71 4.006-1.05.635-2.436 6.989-2.997 10.086-.333 1.121-1.853 3.41-5.267 3.6-3.414.191-3.01-2.544-2.381-3.936 1.694-3.047 4.836-9.323 3.846-10.048-1.237-.906.093-2.125.168-3.824.06-1.36 2.291-.467 3.4.149.153-.277.473-1.086.517-2.106.045-1.02 3.726-.83 5.561-.607.82-2.519 2.442-7.131 2.367-5.431Zm-30.731 21.215c-1.02-.045-.867-2.876-.663-4.286l-1.22-1.331c-.868.388-2.7 1.414-3.085 2.419-.481 1.256-3.306-2.274-2.568.313.59 2.069-.162 3.682-.612 4.23.831.462 2.656 1.564 3.306 2.274.813.887 6.117-3.563 4.842-3.619Zm7.227-9.475c.22 2.735 1.213 1.473 1.681.5 2.394-.236 2.094.801 1.644 1.349-1.423.08-4.209.837-3.974 3.232.236 2.394-1.097 2.364-1.792 2.05-.284-.013-1.183-.223-2.512-.962-1.33-.74-.147-3.128.61-4.23l2.293-3.731c.592-.542 1.83-.942 2.05 1.792Zm4.954-6.168c1.73-.605.524-2.247-.295-2.993-1.684-.414-3.03 1.144-3.492 1.975.541.592 2.057 1.623 3.787 1.018Z" fill="#191C20"/><path d="M2.754 37.336V48H1.34V37.336h1.414ZM5.2 42.22v1.114H2.666V42.22H5.2Zm7.654.11v.674c0 .8-.1 1.518-.3 2.153a4.635 4.635 0 0 1-.864 1.619 3.75 3.75 0 0 1-1.355 1.018 4.259 4.259 0 0 1-1.758.352c-.63 0-1.209-.118-1.736-.352a3.903 3.903 0 0 1-1.362-1.018 4.739 4.739 0 0 1-.887-1.619c-.21-.635-.315-1.352-.315-2.153v-.674c0-.8.103-1.516.308-2.146.21-.635.505-1.174.886-1.619a3.81 3.81 0 0 1 1.355-1.025 4.226 4.226 0 0 1 1.736-.351c.65 0 1.235.117 1.758.351.527.234.979.576 1.355 1.025.38.445.671.984.871 1.62.206.629.308 1.344.308 2.145Zm-1.399.674v-.689c0-.634-.066-1.196-.198-1.684-.127-.488-.315-.899-.564-1.23a2.432 2.432 0 0 0-.915-.755 2.778 2.778 0 0 0-1.216-.256c-.44 0-.837.085-1.194.256-.351.17-.654.422-.908.754-.25.332-.442.743-.579 1.23a6.306 6.306 0 0 0-.205 1.685v.689c0 .64.069 1.206.205 1.7.137.487.332.9.586 1.237a2.6 2.6 0 0 0 .916.754c.356.171.754.257 1.194.257.459 0 .866-.086 1.223-.257a2.39 2.39 0 0 0 .9-.754c.25-.337.438-.75.565-1.238.127-.493.19-1.06.19-1.7Zm5.398 1.545-3.003-4.475h1.633l2.051 3.281h1.582l-.197 1.194h-2.066Zm.74-.139-2.3 3.59h-1.714l3.157-4.57.857.981Zm2.219-4.336V48h-1.355v-7.925h1.355Zm4.622 0L21.43 44.55h-2.066l-.212-1.194h1.59l2.05-3.28h1.64ZM22.984 48l-2.308-3.589.872-.981 3.15 4.57h-1.715Zm8.342-4.49v1.099h-4.19V43.51h4.19Zm-3.904-3.435V48h-1.355v-7.925h1.355Zm5.002 0V48h-1.362v-7.925h1.362Zm1.824 4.05v-.168c0-.571.083-1.101.25-1.59.165-.492.404-.92.717-1.281.312-.366.69-.65 1.135-.85a3.524 3.524 0 0 1 1.494-.307c.557 0 1.057.102 1.502.307.449.2.83.484 1.142.85.318.361.56.788.725 1.282.166.488.25 1.018.25 1.589v.169c0 .57-.084 1.1-.25 1.589a3.802 3.802 0 0 1-.725 1.282 3.34 3.34 0 0 1-1.135.85c-.44.2-.938.3-1.494.3-.557 0-1.057-.1-1.502-.3a3.399 3.399 0 0 1-1.142-.85 3.871 3.871 0 0 1-.718-1.282 4.907 4.907 0 0 1-.249-1.59Zm1.355-.168v.169c0 .395.046.769.14 1.12.092.347.231.654.417.923.19.269.427.48.71.637.283.152.613.227.989.227a2 2 0 0 0 .974-.227c.283-.156.518-.368.703-.637.186-.269.325-.576.418-.923.097-.352.146-.725.146-1.12v-.169c0-.39-.049-.76-.146-1.106a2.85 2.85 0 0 0-.425-.93 2.018 2.018 0 0 0-.703-.645 1.972 1.972 0 0 0-.982-.234c-.37 0-.698.078-.981.234a2.107 2.107 0 0 0-.703.645 2.94 2.94 0 0 0-.418.93 4.253 4.253 0 0 0-.139 1.106Zm10.378-1.047v1.113h-3.574V42.91h3.574Zm7.97 1.699h1.405a4.485 4.485 0 0 1-.578 1.809 3.383 3.383 0 0 1-1.326 1.267c-.571.308-1.284.462-2.139.462a4.057 4.057 0 0 1-1.706-.352 3.792 3.792 0 0 1-1.311-.996 4.662 4.662 0 0 1-.85-1.56 6.66 6.66 0 0 1-.293-2.036V42.14c0-.747.098-1.424.293-2.03.2-.61.486-1.132.857-1.567a3.825 3.825 0 0 1 1.355-1.003c.527-.234 1.12-.351 1.78-.351.806 0 1.487.15 2.043.454.557.302.99.722 1.297 1.26.312.531.505 1.15.578 1.852H53.95c-.068-.498-.195-.925-.38-1.281a1.98 1.98 0 0 0-.792-.835c-.341-.196-.788-.293-1.34-.293-.474 0-.891.09-1.253.27a2.528 2.528 0 0 0-.9.77c-.24.332-.42.73-.542 1.194a6.07 6.07 0 0 0-.183 1.545v1.077c0 .522.053 1.013.16 1.472.113.459.282.862.506 1.208.225.347.51.62.857.82.347.196.757.294 1.23.294.601 0 1.08-.096 1.436-.286.356-.19.625-.464.806-.82.185-.357.317-.784.395-1.282Zm7.8 2.036v-4.08c0-.312-.064-.583-.19-.813a1.247 1.247 0 0 0-.558-.542c-.249-.127-.556-.19-.922-.19-.342 0-.643.059-.901.176a1.57 1.57 0 0 0-.6.461 1.01 1.01 0 0 0-.213.616h-1.355c0-.284.073-.565.22-.843.146-.278.356-.53.63-.754.278-.23.61-.41.995-.542a3.925 3.925 0 0 1 1.304-.205c.576 0 1.084.097 1.524.293.444.195.79.49 1.04.886.253.39.38.881.38 1.472v3.692c0 .263.022.544.066.842.05.298.12.554.213.769V48H61.97a2.53 2.53 0 0 1-.16-.623 5.015 5.015 0 0 1-.06-.732Zm.234-3.45.014.953h-1.37c-.385 0-.73.031-1.032.095a2.361 2.361 0 0 0-.762.27 1.288 1.288 0 0 0-.468.462c-.108.18-.161.393-.161.637 0 .25.056.476.168.681.112.206.28.37.505.491.23.117.51.176.843.176a2.23 2.23 0 0 0 1.098-.264c.318-.175.57-.39.755-.644.19-.254.293-.5.307-.74l.579.652a1.965 1.965 0 0 1-.278.681 3.283 3.283 0 0 1-1.501 1.282c-.343.146-.728.22-1.158.22-.537 0-1.008-.105-1.414-.316-.4-.21-.712-.49-.937-.842a2.23 2.23 0 0 1-.33-1.194 2.4 2.4 0 0 1 .25-1.12 2.16 2.16 0 0 1 .717-.813 3.41 3.41 0 0 1 1.128-.498 5.95 5.95 0 0 1 1.472-.169h1.575Zm4.167-3.12 1.736 2.886 1.758-2.886h1.59l-2.593 3.911L71.316 48h-1.567l-1.831-2.974L66.086 48h-1.574l2.666-4.014-2.586-3.91h1.56Zm11.2 6.57v-4.08c0-.312-.064-.583-.191-.813a1.247 1.247 0 0 0-.557-.542c-.249-.127-.557-.19-.923-.19a2.16 2.16 0 0 0-.9.176 1.57 1.57 0 0 0-.601.461 1.01 1.01 0 0 0-.213.616h-1.355c0-.284.074-.565.22-.843.147-.278.357-.53.63-.754.278-.23.61-.41.996-.542.39-.137.825-.205 1.304-.205.576 0 1.084.097 1.523.293.445.195.791.49 1.04.886.254.39.381.881.381 1.472v3.692c0 .263.022.544.066.842.049.298.12.554.212.769V48h-1.413a2.526 2.526 0 0 1-.161-.623 5.015 5.015 0 0 1-.059-.732Zm.233-3.45.015.953h-1.37c-.385 0-.73.031-1.032.095a2.361 2.361 0 0 0-.762.27 1.288 1.288 0 0 0-.469.462c-.107.18-.16.393-.16.637 0 .25.055.476.168.681.112.206.28.37.505.491.23.117.51.176.842.176a2.23 2.23 0 0 0 1.099-.264c.317-.175.569-.39.754-.644.19-.254.293-.5.308-.74l.578.652a1.967 1.967 0 0 1-.278.681 3.282 3.282 0 0 1-1.501 1.282c-.342.146-.728.22-1.157.22-.538 0-1.009-.105-1.414-.316a2.42 2.42 0 0 1-.938-.842 2.23 2.23 0 0 1-.33-1.194c0-.424.084-.798.25-1.12.166-.327.405-.598.718-.813a3.41 3.41 0 0 1 1.128-.498 5.95 5.95 0 0 1 1.472-.169h1.574Zm8.548-3.12v1.12h-3.83v-1.12h3.83Zm1.194 0V48h-1.355v-7.925h1.355Zm-5.354 0h1.362l-.205 3.823c-.034.591-.09 1.114-.169 1.568a5.324 5.324 0 0 1-.307 1.157 2.414 2.414 0 0 1-.484.791c-.19.2-.42.35-.688.447a2.843 2.843 0 0 1-.93.139h-.425v-1.194l.293-.022c.21-.014.388-.063.535-.146.151-.083.278-.205.38-.366.103-.166.186-.379.25-.638a5.85 5.85 0 0 0 .153-.923c.04-.356.069-.771.088-1.245l.147-3.39Zm9.001 5.779 3.655-5.779h1.362V48H94.63v-5.779L90.974 48h-1.348v-7.925h1.348v5.779Zm12.568-2.344v1.099h-4.189V43.51h4.189Zm-3.903-3.435V48h-1.355v-7.925h1.355Zm5.002 0V48h-1.362v-7.925h1.362Zm5.354 6.958c.322 0 .62-.066.894-.198a1.83 1.83 0 0 0 .673-.541c.176-.235.276-.501.301-.799h1.289a2.421 2.421 0 0 1-.476 1.311 3.257 3.257 0 0 1-2.681 1.34c-.596 0-1.116-.105-1.56-.315a3.097 3.097 0 0 1-1.099-.864 3.851 3.851 0 0 1-.651-1.26 5.302 5.302 0 0 1-.213-1.516v-.307c0-.532.071-1.035.213-1.509.146-.478.363-.9.651-1.267a3.1 3.1 0 0 1 1.099-.864c.444-.21.964-.315 1.56-.315.62 0 1.162.127 1.626.38.464.25.828.591 1.091 1.026.269.43.415.918.44 1.465h-1.289a1.95 1.95 0 0 0-.279-.886 1.735 1.735 0 0 0-.644-.63 1.804 1.804 0 0 0-.945-.242c-.415 0-.764.083-1.047.249a1.82 1.82 0 0 0-.667.66 3.073 3.073 0 0 0-.351.915 4.99 4.99 0 0 0-.103 1.018v.307c0 .347.034.689.103 1.026.068.337.183.642.344.915.166.274.388.494.666.66.284.16.635.241 1.055.241Zm6.152-6.958V48h-1.355v-7.925h1.355Zm5.201 0-3.758 4.541h-1.897l-.205-1.186h1.553l2.659-3.355h1.648ZM119.89 48l-2.915-3.589.872-.981 3.764 4.57h-1.721Zm38.734-35.15V14h-8.071v-1.15h8.071Zm-7.844 0v3.772h-1.399l-.007-3.772h1.406Zm9.074 0-.014 3.765h-1.399V12.85h1.413Zm-2.614-9.514v1.157h-4.673V3.336h4.673Zm1.216 0V14h-1.407V3.336h1.407Zm-6.373 0h1.414l-.22 4.292c-.029.644-.09 1.24-.183 1.787a12.17 12.17 0 0 1-.344 1.487c-.137.45-.293.852-.469 1.208a5.582 5.582 0 0 1-.564.916c-.2.254-.41.464-.63.63a2.157 2.157 0 0 1-.651.344h-.645v-1.15h.454c.127-.137.271-.334.432-.593.166-.259.33-.593.491-1.004.166-.415.31-.92.432-1.516.127-.595.212-1.299.256-2.11l.227-4.291Zm8.87 6.79v-.169c0-.571.083-1.101.249-1.59.166-.492.405-.92.718-1.281a3.2 3.2 0 0 1 1.135-.85 3.528 3.528 0 0 1 1.494-.307c.557 0 1.057.102 1.502.307.449.2.83.484 1.142.85a3.7 3.7 0 0 1 .725 1.282c.166.488.249 1.018.249 1.589v.168c0 .572-.083 1.102-.249 1.59a3.792 3.792 0 0 1-.725 1.282 3.32 3.32 0 0 1-1.135.85c-.439.2-.937.3-1.494.3a3.62 3.62 0 0 1-1.502-.3 3.395 3.395 0 0 1-1.142-.85 3.863 3.863 0 0 1-.718-1.282 4.907 4.907 0 0 1-.249-1.59Zm1.355-.169v.168c0 .396.046.77.139 1.121.093.347.232.654.418.923.19.268.427.48.71.637.283.152.613.227.989.227a2 2 0 0 0 .974-.227c.283-.156.518-.368.703-.637.186-.269.325-.576.418-.923.097-.351.146-.725.146-1.12v-.169c0-.39-.049-.76-.146-1.106a2.862 2.862 0 0 0-.425-.93 2.024 2.024 0 0 0-.703-.645 1.976 1.976 0 0 0-.982-.234c-.371 0-.698.078-.981.234a2.106 2.106 0 0 0-.703.645 2.937 2.937 0 0 0-.418.93 4.253 4.253 0 0 0-.139 1.106Zm12.737-3.882v1.12h-3.831v-1.12h3.831Zm1.194 0V14h-1.355V6.075h1.355Zm-5.354 0h1.362l-.205 3.823c-.034.591-.09 1.114-.168 1.568a5.38 5.38 0 0 1-.308 1.157 2.42 2.42 0 0 1-.483.791c-.191.2-.42.35-.689.447a2.843 2.843 0 0 1-.93.139h-.425v-1.194l.293-.022c.21-.014.388-.063.535-.146a1.05 1.05 0 0 0 .381-.367 2.25 2.25 0 0 0 .249-.637c.068-.258.119-.566.153-.923.039-.356.069-.771.088-1.245l.147-3.39Zm9.001 5.779 3.655-5.779h1.362V14h-1.362V8.221L179.886 14h-1.347V6.075h1.347v5.779Zm12.569-2.344v1.099h-4.19V9.51h4.19Zm-3.904-3.435V14h-1.355V6.075h1.355Zm5.002 0V14h-1.362V6.075h1.362Zm5.354 6.958c.322 0 .62-.066.894-.198.273-.131.498-.312.674-.542.175-.234.275-.5.3-.798h1.289a2.413 2.413 0 0 1-.476 1.311 3.257 3.257 0 0 1-2.681 1.34c-.595 0-1.115-.105-1.56-.315a3.093 3.093 0 0 1-1.098-.864 3.834 3.834 0 0 1-.652-1.26 5.302 5.302 0 0 1-.213-1.516v-.307c0-.532.071-1.035.213-1.509.146-.479.363-.9.652-1.267a3.094 3.094 0 0 1 1.098-.864c.445-.21.965-.315 1.56-.315.62 0 1.162.127 1.626.38.464.25.828.591 1.092 1.026.268.43.415.918.439 1.465h-1.289a1.96 1.96 0 0 0-.278-.886 1.745 1.745 0 0 0-.645-.63 1.801 1.801 0 0 0-.945-.242c-.415 0-.764.083-1.047.249-.278.161-.501.38-.667.66a3.073 3.073 0 0 0-.351.915 4.99 4.99 0 0 0-.103 1.018v.307c0 .347.034.689.103 1.026.068.337.183.642.344.915.166.274.388.494.667.66.283.16.634.241 1.054.241Zm6.153-6.958V14h-1.355V6.075h1.355Zm5.2 0-3.758 4.541h-1.897L204.4 9.43h1.553l2.659-3.355h1.648ZM208.802 14l-2.915-3.589.872-.981 3.764 4.57h-1.721Zm-50.214 56.198 2.696-6.123h1.303L159.057 72h-.937l-3.516-7.925h1.304l2.68 6.123Zm-3.076-6.123V72h-1.355v-7.925h1.355ZM161.621 72v-7.925h1.362V72h-1.362Zm4.658-5.2h2.38c.64 0 1.179.112 1.619.337.439.22.771.525.996.915.229.386.344.825.344 1.319 0 .366-.063.71-.19 1.032a2.321 2.321 0 0 1-.572.835c-.249.24-.559.427-.93.564a3.727 3.727 0 0 1-1.267.198h-3.369v-7.925h1.355v6.812h2.014c.391 0 .703-.071.938-.213.234-.141.403-.324.505-.549.103-.225.154-.459.154-.703a1.7 1.7 0 0 0-.154-.703 1.313 1.313 0 0 0-.505-.572c-.235-.156-.547-.234-.938-.234h-2.38V66.8Zm8.159-2.725V72h-1.355v-7.925h1.355Zm5.544 6.958c.323 0 .621-.066.894-.198a1.84 1.84 0 0 0 .674-.541c.176-.235.276-.501.3-.799h1.289a2.413 2.413 0 0 1-.476 1.311 3.25 3.25 0 0 1-1.135.974 3.297 3.297 0 0 1-1.546.367c-.595 0-1.115-.106-1.56-.316a3.093 3.093 0 0 1-1.098-.864 3.853 3.853 0 0 1-.652-1.26 5.302 5.302 0 0 1-.213-1.516v-.307c0-.532.071-1.035.213-1.509.146-.478.364-.9.652-1.267a3.093 3.093 0 0 1 1.098-.864c.445-.21.965-.315 1.56-.315.621 0 1.163.127 1.626.38.464.25.828.591 1.092 1.026.268.43.415.918.439 1.465h-1.289a1.948 1.948 0 0 0-.278-.886 1.73 1.73 0 0 0-.645-.63 1.8 1.8 0 0 0-.945-.242c-.415 0-.764.083-1.047.249-.278.161-.5.38-.666.66a3.048 3.048 0 0 0-.352.915 5.062 5.062 0 0 0-.103 1.018v.307c0 .347.035.689.103 1.026.068.337.183.642.344.915.166.274.388.493.667.66.283.16.634.241 1.054.241Zm16.817-4.702v.674c0 .8-.1 1.518-.3 2.153-.201.635-.489 1.174-.865 1.619a3.744 3.744 0 0 1-1.355 1.018 4.252 4.252 0 0 1-1.758.352 4.223 4.223 0 0 1-1.735-.352 3.903 3.903 0 0 1-1.363-1.018c-.381-.445-.676-.984-.886-1.619-.21-.635-.315-1.352-.315-2.153v-.674c0-.8.103-1.516.308-2.146.21-.635.505-1.174.886-1.619a3.81 3.81 0 0 1 1.355-1.025 4.225 4.225 0 0 1 1.736-.351c.649 0 1.235.117 1.758.351.527.234.979.576 1.355 1.025.38.445.671.984.871 1.62.205.629.308 1.344.308 2.145Zm-1.399.674v-.689c0-.634-.066-1.196-.198-1.684-.127-.488-.315-.899-.564-1.23a2.433 2.433 0 0 0-.915-.755 2.781 2.781 0 0 0-1.216-.256c-.44 0-.838.085-1.194.256-.352.17-.654.422-.908.754-.249.332-.442.743-.579 1.23-.137.49-.205 1.05-.205 1.685v.689c0 .64.068 1.206.205 1.7.137.487.332.9.586 1.237.259.332.564.583.916.754.356.171.754.257 1.193.257a2.8 2.8 0 0 0 1.224-.257 2.4 2.4 0 0 0 .901-.754c.249-.337.437-.75.563-1.238a6.84 6.84 0 0 0 .191-1.7Zm6.482 4.028c.322 0 .62-.066.893-.198.274-.131.498-.312.674-.541.176-.235.276-.501.301-.799h1.289a2.422 2.422 0 0 1-.477 1.311 3.25 3.25 0 0 1-1.135.974 3.296 3.296 0 0 1-1.545.367c-.596 0-1.116-.106-1.56-.316a3.088 3.088 0 0 1-1.099-.864 3.873 3.873 0 0 1-.652-1.26 5.337 5.337 0 0 1-.212-1.516v-.307c0-.532.071-1.035.212-1.509.147-.478.364-.9.652-1.267a3.088 3.088 0 0 1 1.099-.864c.444-.21.964-.315 1.56-.315.62 0 1.162.127 1.626.38.464.25.827.591 1.091 1.026.269.43.415.918.44 1.465h-1.289a1.961 1.961 0 0 0-.279-.886 1.735 1.735 0 0 0-.644-.63 1.804 1.804 0 0 0-.945-.242c-.415 0-.764.083-1.048.249-.278.161-.5.38-.666.66a3.102 3.102 0 0 0-.352.915 5.062 5.062 0 0 0-.102 1.018v.307c0 .347.034.689.102 1.026.069.337.184.642.345.915.166.274.388.493.666.66.283.16.635.241 1.055.241Zm7.91-6.958V72h-1.362v-7.925h1.362Zm2.659 0v1.099h-6.629v-1.099h6.629Zm2.688 1.524v9.448h-1.363V64.075h1.245l.118 1.524Zm5.339 2.373v.154c0 .576-.068 1.11-.205 1.603a3.943 3.943 0 0 1-.601 1.275 2.723 2.723 0 0 1-.959.842c-.381.2-.818.3-1.311.3-.503 0-.947-.082-1.333-.249a2.635 2.635 0 0 1-.982-.725 3.712 3.712 0 0 1-.644-1.142 6.595 6.595 0 0 1-.322-1.502v-.82c.058-.586.168-1.11.329-1.575.161-.464.374-.86.637-1.186a2.62 2.62 0 0 1 .975-.755c.38-.175.82-.263 1.318-.263.498 0 .94.097 1.326.293.385.19.71.464.974.82.263.356.461.784.593 1.282a6.15 6.15 0 0 1 .205 1.648Zm-1.362.154v-.154c0-.396-.042-.767-.125-1.114a2.808 2.808 0 0 0-.388-.922 1.854 1.854 0 0 0-.659-.63c-.269-.157-.589-.235-.96-.235-.341 0-.639.059-.893.176a1.923 1.923 0 0 0-.637.476c-.176.195-.32.42-.433.674a3.85 3.85 0 0 0-.241.776v1.897c.097.342.234.664.41.967.176.298.41.54.703.725.293.18.662.271 1.106.271.366 0 .681-.076.945-.227.268-.156.488-.368.659-.637.176-.269.305-.576.388-.923.083-.352.125-.725.125-1.12Zm4.204-1.326h2.38c.64 0 1.179.112 1.619.337.439.22.771.525.996.915.229.386.344.825.344 1.319 0 .366-.063.71-.19 1.032a2.321 2.321 0 0 1-.572.835c-.249.24-.559.427-.93.564A3.727 3.727 0 0 1 225.7 72h-3.369v-7.925h1.355v6.812h2.014c.391 0 .703-.071.938-.213.234-.141.403-.324.505-.549.103-.225.154-.459.154-.703a1.7 1.7 0 0 0-.154-.703 1.313 1.313 0 0 0-.505-.572c-.235-.156-.547-.234-.938-.234h-2.38V66.8Zm8.159-2.725V72h-1.355v-7.925h1.355Zm3.838 5.779 3.655-5.779h1.362V72h-1.362v-5.779L235.317 72h-1.348v-7.925h1.348v5.779Zm2.915-8.65h1.099c0 .381-.088.72-.264 1.018a1.81 1.81 0 0 1-.755.689c-.327.166-.715.249-1.164.249-.679 0-1.216-.181-1.611-.542-.391-.367-.586-.838-.586-1.414h1.098c0 .288.083.542.249.762.166.22.45.33.85.33.391 0 .669-.11.835-.33a1.23 1.23 0 0 0 .249-.762ZM107.448 183.331v.674c0 .801-.1 1.518-.3 2.153-.2.635-.488 1.175-.864 1.619a3.751 3.751 0 0 1-1.355 1.018c-.523.234-1.109.351-1.758.351-.63 0-1.209-.117-1.736-.351a3.898 3.898 0 0 1-1.362-1.018c-.381-.444-.676-.984-.886-1.619-.21-.635-.315-1.352-.315-2.153v-.674c0-.801.102-1.516.307-2.146.21-.635.506-1.174.886-1.619a3.799 3.799 0 0 1 1.355-1.025 4.235 4.235 0 0 1 1.736-.352c.65 0 1.236.118 1.758.352.527.234.979.576 1.355 1.025.381.445.671.984.872 1.619.205.63.307 1.345.307 2.146Zm-1.399.674v-.689c0-.634-.066-1.196-.197-1.684-.127-.488-.315-.899-.564-1.231a2.437 2.437 0 0 0-.916-.754 2.776 2.776 0 0 0-1.216-.256c-.439 0-.837.085-1.194.256a2.533 2.533 0 0 0-.908.754c-.249.332-.442.743-.578 1.231-.137.488-.205 1.05-.205 1.684v.689c0 .64.068 1.206.205 1.699.136.488.332.901.586 1.238.258.332.563.583.915.754.356.171.754.257 1.194.257.459 0 .867-.086 1.223-.257.356-.171.657-.422.901-.754.249-.337.437-.75.564-1.238.127-.493.19-1.059.19-1.699Zm4.226-2.93 1.736 2.886 1.758-2.886h1.589l-2.592 3.911 2.673 4.014h-1.567l-1.831-2.974-1.832 2.974h-1.574l2.666-4.014-2.586-3.911h1.56Zm6.021 4.05v-.168c0-.571.083-1.101.249-1.589.166-.493.405-.921.718-1.282a3.213 3.213 0 0 1 1.135-.85 3.523 3.523 0 0 1 1.494-.307c.557 0 1.057.102 1.502.307.449.201.83.484 1.142.85a3.7 3.7 0 0 1 .725 1.282c.166.488.249 1.018.249 1.589v.168c0 .572-.083 1.102-.249 1.59a3.803 3.803 0 0 1-.725 1.282 3.321 3.321 0 0 1-1.135.849c-.44.2-.938.3-1.494.3-.557 0-1.057-.1-1.502-.3a3.396 3.396 0 0 1-1.142-.849 3.875 3.875 0 0 1-.718-1.282 4.908 4.908 0 0 1-.249-1.59Zm1.355-.168v.168c0 .396.046.77.139 1.121.093.347.232.654.418.923.19.269.427.481.71.637.283.152.613.227.989.227a2 2 0 0 0 .974-.227c.283-.156.517-.368.703-.637.186-.269.325-.576.417-.923.098-.351.147-.725.147-1.121v-.168c0-.391-.049-.759-.147-1.106a2.839 2.839 0 0 0-.424-.93 2.027 2.027 0 0 0-.703-.645 1.979 1.979 0 0 0-.982-.234c-.371 0-.698.078-.981.234a2.1 2.1 0 0 0-.703.645 2.936 2.936 0 0 0-.418.93 4.253 4.253 0 0 0-.139 1.106Zm10.627-3.882V189h-1.362v-7.925h1.362Zm2.659 0v1.099h-6.628v-1.099h6.628Zm3.918 6.958c.323 0 .621-.066.894-.198.273-.131.498-.312.674-.542a1.5 1.5 0 0 0 .3-.798h1.289a2.411 2.411 0 0 1-.476 1.311 3.24 3.24 0 0 1-1.135.974 3.298 3.298 0 0 1-1.546.366c-.595 0-1.115-.104-1.56-.314a3.099 3.099 0 0 1-1.098-.865 3.854 3.854 0 0 1-.652-1.259 5.307 5.307 0 0 1-.212-1.517v-.307c0-.532.07-1.035.212-1.509.146-.479.364-.901.652-1.267a3.096 3.096 0 0 1 1.098-.864c.445-.21.965-.315 1.56-.315.621 0 1.163.127 1.626.381.464.249.828.59 1.092 1.025.268.43.415.918.439 1.465h-1.289a1.945 1.945 0 0 0-.278-.886 1.727 1.727 0 0 0-.645-.63 1.8 1.8 0 0 0-.945-.242c-.415 0-.764.083-1.047.249-.278.161-.5.381-.666.659a3.056 3.056 0 0 0-.352.916 5.058 5.058 0 0 0-.102 1.018v.307c0 .347.034.689.102 1.026.068.337.183.642.344.915.166.274.388.493.667.66.283.161.635.241 1.054.241Zm6.153-6.958V189h-1.355v-7.925h1.355Zm5.2 0-3.757 4.541h-1.897l-.205-1.186h1.552l2.659-3.355h1.648ZM144.75 189l-2.915-3.589.872-.981 3.765 4.57h-1.722Zm2.381-3.875v-.168c0-.571.083-1.101.249-1.589.166-.493.405-.921.718-1.282a3.213 3.213 0 0 1 1.135-.85 3.523 3.523 0 0 1 1.494-.307c.557 0 1.057.102 1.502.307.449.201.83.484 1.142.85.317.361.559.789.725 1.282.166.488.249 1.018.249 1.589v.168c0 .572-.083 1.102-.249 1.59a3.82 3.82 0 0 1-.725 1.282 3.321 3.321 0 0 1-1.135.849c-.44.2-.938.3-1.494.3-.557 0-1.057-.1-1.502-.3a3.396 3.396 0 0 1-1.142-.849 3.875 3.875 0 0 1-.718-1.282 4.908 4.908 0 0 1-.249-1.59Zm1.355-.168v.168c0 .396.046.77.139 1.121.093.347.232.654.417.923.191.269.428.481.711.637.283.152.613.227.989.227a2 2 0 0 0 .974-.227c.283-.156.517-.368.703-.637.185-.269.325-.576.417-.923.098-.351.147-.725.147-1.121v-.168c0-.391-.049-.759-.147-1.106a2.839 2.839 0 0 0-.424-.93 2.022 2.022 0 0 0-.704-.645 1.972 1.972 0 0 0-.981-.234c-.371 0-.698.078-.981.234a2.113 2.113 0 0 0-.704.645 2.957 2.957 0 0 0-.417.93 4.253 4.253 0 0 0-.139 1.106Zm10.847 4.189a3.886 3.886 0 0 1-1.501-.278 3.386 3.386 0 0 1-1.15-.798 3.545 3.545 0 0 1-.733-1.216 4.456 4.456 0 0 1-.256-1.538v-.308c0-.644.095-1.218.286-1.721.19-.508.449-.937.776-1.289a3.307 3.307 0 0 1 1.113-.798 3.193 3.193 0 0 1 1.289-.271c.567 0 1.055.097 1.465.293.415.195.754.468 1.018.82.264.347.459.757.586 1.23.127.469.191.982.191 1.539v.607h-5.918v-1.106h4.563v-.102a3.387 3.387 0 0 0-.22-1.025 1.85 1.85 0 0 0-.586-.821c-.269-.215-.635-.322-1.099-.322a1.84 1.84 0 0 0-1.516.769 2.9 2.9 0 0 0-.432.93 4.697 4.697 0 0 0-.154 1.267v.308c0 .376.051.73.154 1.062.107.327.261.615.461.864.205.249.452.445.74.586.293.142.625.213.996.213.479 0 .884-.098 1.216-.293.332-.196.623-.457.872-.784l.82.652a3.765 3.765 0 0 1-.652.739 3.11 3.11 0 0 1-.974.572c-.381.146-.833.219-1.355.219Zm-51.657 34.463h1.406a4.472 4.472 0 0 1-.579 1.809 3.377 3.377 0 0 1-1.325 1.267c-.572.308-1.284.461-2.139.461a4.058 4.058 0 0 1-1.706-.351 3.792 3.792 0 0 1-1.312-.996 4.67 4.67 0 0 1-.849-1.56 6.67 6.67 0 0 1-.293-2.036v-1.062c0-.747.098-1.424.293-2.029a4.58 4.58 0 0 1 .857-1.568 3.819 3.819 0 0 1 1.355-1.003c.527-.234 1.12-.352 1.78-.352.805 0 1.486.152 2.043.455a3.24 3.24 0 0 1 1.296 1.259c.313.533.506 1.15.579 1.853h-1.406c-.069-.498-.196-.925-.381-1.281a1.976 1.976 0 0 0-.791-.835c-.342-.196-.789-.293-1.34-.293-.474 0-.892.09-1.253.271-.356.18-.657.437-.901.769-.239.332-.42.73-.542 1.194a6.068 6.068 0 0 0-.183 1.545v1.077c0 .522.054 1.013.161 1.472.113.459.281.862.506 1.208.224.347.51.62.857.821.346.195.756.293 1.23.293.601 0 1.079-.096 1.436-.286.356-.19.625-.464.805-.82.186-.357.318-.784.396-1.282Zm6.848-.095h-2.6l-.015-1.084h2.124c.42 0 .769-.042 1.048-.125.283-.083.495-.207.637-.373a.918.918 0 0 0 .212-.616.969.969 0 0 0-.124-.498.91.91 0 0 0-.359-.359 1.79 1.79 0 0 0-.601-.212 4.085 4.085 0 0 0-.827-.073h-1.736V227h-1.355v-7.925h3.091c.502 0 .954.044 1.355.132.405.088.749.222 1.032.403.288.176.508.4.659.674.152.273.227.595.227.966a1.623 1.623 0 0 1-.578 1.253 2.343 2.343 0 0 1-.703.41 3.596 3.596 0 0 1-.96.198l-.527.403Zm0 3.486h-3.091l.674-1.099h2.417c.376 0 .688-.046.937-.139.249-.097.435-.234.557-.41a1.09 1.09 0 0 0 .19-.644c0-.25-.063-.462-.19-.638a1.121 1.121 0 0 0-.557-.41c-.249-.098-.561-.146-.937-.146h-2.058l.014-1.084h2.571l.491.41c.435.034.803.141 1.106.322.303.181.532.41.688.689.157.273.235.571.235.893 0 .371-.071.698-.213.982-.136.283-.337.52-.6.71a2.937 2.937 0 0 1-.96.425c-.376.093-.8.139-1.274.139Zm4.504-3.875v-.168c0-.571.083-1.101.249-1.589.166-.493.406-.921.718-1.282a3.222 3.222 0 0 1 1.135-.85 3.53 3.53 0 0 1 1.495-.307c.556 0 1.057.102 1.501.307.449.201.83.484 1.143.85.317.361.559.789.725 1.282.166.488.249 1.018.249 1.589v.168c0 .572-.083 1.102-.249 1.59a3.82 3.82 0 0 1-.725 1.282 3.325 3.325 0 0 1-1.136.849c-.439.2-.937.3-1.494.3-.556 0-1.057-.1-1.501-.3a3.39 3.39 0 0 1-1.143-.849 3.893 3.893 0 0 1-.718-1.282 4.908 4.908 0 0 1-.249-1.59Zm1.355-.168v.168c0 .396.047.77.139 1.121.093.347.232.654.418.923.19.269.427.481.71.637.284.152.613.227.989.227a2 2 0 0 0 .974-.227c.283-.156.518-.368.703-.637.186-.269.325-.576.418-.923.098-.351.146-.725.146-1.121v-.168c0-.391-.048-.759-.146-1.106a2.84 2.84 0 0 0-.425-.93 2.019 2.019 0 0 0-.703-.645 1.975 1.975 0 0 0-.981-.234 2 2 0 0 0-.982.234 2.11 2.11 0 0 0-.703.645 2.936 2.936 0 0 0-.418.93 4.296 4.296 0 0 0-.139 1.106Zm12.642-7.332h1.113c0 .479-.073.86-.22 1.143a1.6 1.6 0 0 1-.6.645 3.01 3.01 0 0 1-.85.344c-.312.078-.637.154-.974.227-.42.088-.81.227-1.172.417-.356.186-.664.45-.923.791-.253.342-.441.787-.564 1.333-.117.547-.148 1.224-.095 2.029v.674h-1.113v-.674c0-.903.085-1.692.256-2.366.176-.673.423-1.242.74-1.706a3.838 3.838 0 0 1 1.128-1.106 4.274 4.274 0 0 1 1.45-.564c.381-.073.708-.151.982-.234.273-.088.481-.205.622-.352.147-.146.22-.347.22-.601Zm-1.604 3.904c.517 0 .979.091 1.384.271.405.181.75.432 1.033.755.283.322.498.703.644 1.142.152.435.227.908.227 1.421v.161c0 .552-.08 1.065-.241 1.538a3.545 3.545 0 0 1-.696 1.231 3.158 3.158 0 0 1-1.113.813c-.435.195-.93.293-1.487.293a3.644 3.644 0 0 1-1.494-.293 3.245 3.245 0 0 1-1.114-.813 3.658 3.658 0 0 1-.703-1.231 4.884 4.884 0 0 1-.234-1.538v-.161c0-.122.022-.242.066-.359.044-.117.098-.237.161-.359.068-.122.129-.251.183-.388.181-.439.427-.847.74-1.223a3.723 3.723 0 0 1 1.135-.908 3.176 3.176 0 0 1 1.509-.352Zm-.264 1.106c-.498 0-.908.115-1.23.344a2.08 2.08 0 0 0-.711.916 3.16 3.16 0 0 0-.234 1.223v.161c0 .371.044.723.132 1.055.088.332.219.627.395.886.181.254.408.454.681.601.279.146.606.22.982.22s.701-.074.974-.22a1.91 1.91 0 0 0 .674-.601c.176-.259.307-.554.395-.886.088-.332.132-.684.132-1.055v-.161a3.32 3.32 0 0 0-.132-.945 2.33 2.33 0 0 0-.403-.791 1.821 1.821 0 0 0-.681-.542 2.163 2.163 0 0 0-.974-.205Zm4.732 2.49v-.168c0-.571.083-1.101.249-1.589.166-.493.405-.921.717-1.282a3.217 3.217 0 0 1 1.136-.85 3.523 3.523 0 0 1 1.494-.307c.557 0 1.057.102 1.501.307.45.201.83.484 1.143.85.317.361.559.789.725 1.282.166.488.249 1.018.249 1.589v.168c0 .572-.083 1.102-.249 1.59a3.82 3.82 0 0 1-.725 1.282 3.33 3.33 0 0 1-1.135.849c-.44.2-.938.3-1.494.3a3.62 3.62 0 0 1-1.502-.3 3.41 3.41 0 0 1-1.143-.849 3.89 3.89 0 0 1-.717-1.282 4.908 4.908 0 0 1-.249-1.59Zm1.355-.168v.168c0 .396.046.77.139 1.121.093.347.232.654.417.923.191.269.428.481.711.637.283.152.613.227.989.227.371 0 .695-.075.974-.227.283-.156.517-.368.703-.637.185-.269.324-.576.417-.923.098-.351.147-.725.147-1.121v-.168c0-.391-.049-.759-.147-1.106a2.84 2.84 0 0 0-.425-.93 2.01 2.01 0 0 0-.703-.645 1.972 1.972 0 0 0-.981-.234c-.371 0-.698.078-.982.234a2.119 2.119 0 0 0-.703.645 2.957 2.957 0 0 0-.417.93 4.253 4.253 0 0 0-.139 1.106Zm8.459-3.882h1.355l-.117 2.967c-.029.751-.115 1.401-.256 1.948a5.776 5.776 0 0 1-.542 1.399c-.22.381-.467.7-.74.959a4.863 4.863 0 0 1-.835.652h-.674l.037-1.106.278-.007c.161-.191.317-.386.469-.586.151-.205.29-.447.417-.725.127-.284.232-.628.315-1.033a9.14 9.14 0 0 0 .169-1.501l.124-2.967Zm.337 0h4.768V227h-1.355v-6.672h-3.413v-1.253Zm-2.454 6.812h8.24v3.449h-1.355V227h-5.53v2.336h-1.362l.007-3.449Zm15.118-3.377v1.099h-4.19v-1.099h4.19Zm-3.904-3.435V227h-1.355v-7.925h1.355Zm5.002 0V227h-1.362v-7.925h1.362Zm1.824 4.05v-.168c0-.571.083-1.101.249-1.589.166-.493.405-.921.718-1.282a3.213 3.213 0 0 1 1.135-.85 3.523 3.523 0 0 1 1.494-.307c.557 0 1.057.102 1.502.307.449.201.83.484 1.142.85a3.7 3.7 0 0 1 .725 1.282c.166.488.249 1.018.249 1.589v.168c0 .572-.083 1.102-.249 1.59a3.803 3.803 0 0 1-.725 1.282 3.321 3.321 0 0 1-1.135.849c-.439.2-.938.3-1.494.3-.557 0-1.057-.1-1.502-.3a3.396 3.396 0 0 1-1.142-.849 3.875 3.875 0 0 1-.718-1.282 4.908 4.908 0 0 1-.249-1.59Zm1.355-.168v.168c0 .396.046.77.139 1.121.093.347.232.654.418.923.19.269.427.481.71.637.283.152.613.227.989.227a2 2 0 0 0 .974-.227c.283-.156.518-.368.703-.637.186-.269.325-.576.418-.923.097-.351.146-.725.146-1.121v-.168c0-.391-.049-.759-.146-1.106a2.861 2.861 0 0 0-.425-.93 2.027 2.027 0 0 0-.703-.645 1.979 1.979 0 0 0-.982-.234c-.371 0-.698.078-.981.234a2.1 2.1 0 0 0-.703.645 2.936 2.936 0 0 0-.418.93 4.253 4.253 0 0 0-.139 1.106Zm10.847 4.189a3.886 3.886 0 0 1-1.501-.278 3.386 3.386 0 0 1-1.15-.798 3.545 3.545 0 0 1-.733-1.216 4.456 4.456 0 0 1-.256-1.538v-.308c0-.644.095-1.218.286-1.721.19-.508.449-.937.776-1.289a3.307 3.307 0 0 1 1.113-.798 3.193 3.193 0 0 1 1.289-.271c.567 0 1.055.097 1.465.293.415.195.755.468 1.018.82.264.347.459.757.586 1.23.127.469.191.982.191 1.539v.607h-5.918v-1.106h4.563v-.102a3.387 3.387 0 0 0-.22-1.025 1.843 1.843 0 0 0-.586-.821c-.269-.215-.635-.322-1.099-.322a1.842 1.842 0 0 0-1.516.769 2.9 2.9 0 0 0-.432.93 4.737 4.737 0 0 0-.154 1.267v.308c0 .376.052.73.154 1.062.108.327.261.615.462.864.205.249.451.445.739.586.293.142.625.213.996.213.479 0 .884-.098 1.216-.293.332-.196.623-.457.872-.784l.82.652a3.765 3.765 0 0 1-.652.739 3.099 3.099 0 0 1-.974.572c-.381.146-.832.219-1.355.219Zm-156.143 10.19h1.37l3.493 8.694 3.486-8.694h1.377L23.075 248h-1.07l-4.32-10.664Zm-.447 0h1.208l.198 6.504V248h-1.406v-10.664Zm9.404 0h1.209V248h-1.407v-4.16l.198-6.504Zm4.6 5.464h2.38c.64 0 1.18.112 1.619.337.44.219.771.525.996.915.23.386.344.825.344 1.319 0 .366-.063.71-.19 1.032a2.311 2.311 0 0 1-.572.835c-.249.24-.559.428-.93.564a3.728 3.728 0 0 1-1.267.198h-3.37v-7.925h1.356v6.812h2.014c.39 0 .703-.071.938-.213.234-.141.402-.324.505-.549a1.675 1.675 0 0 0 0-1.406 1.318 1.318 0 0 0-.505-.572c-.235-.156-.547-.234-.938-.234h-2.38V242.8Zm8.159-2.725V248h-1.355v-7.925H39.4Zm5.544 6.958c.323 0 .62-.066.894-.198.273-.131.498-.312.674-.542.175-.234.276-.5.3-.798h1.29a2.416 2.416 0 0 1-.477 1.311 3.243 3.243 0 0 1-1.135.974 3.296 3.296 0 0 1-1.546.366c-.595 0-1.115-.104-1.56-.314a3.097 3.097 0 0 1-1.098-.865 3.86 3.86 0 0 1-.652-1.259 5.321 5.321 0 0 1-.213-1.517v-.307c0-.532.071-1.035.213-1.509a3.84 3.84 0 0 1 .652-1.267 3.096 3.096 0 0 1 1.098-.864c.445-.21.965-.315 1.56-.315.62 0 1.162.127 1.626.381.464.249.828.59 1.092 1.025.268.43.415.918.44 1.465h-1.29a1.95 1.95 0 0 0-.278-.886 1.731 1.731 0 0 0-.645-.63 1.802 1.802 0 0 0-.945-.242c-.415 0-.764.083-1.047.249-.278.161-.5.381-.667.659a3.085 3.085 0 0 0-.351.916 5.03 5.03 0 0 0-.103 1.018v.307c0 .347.035.689.103 1.026.068.337.183.642.344.915.166.274.388.493.667.66.283.161.634.241 1.054.241Zm12.407-4.021H54.65l-.015-1.135h2.454c.405 0 .76-.068 1.062-.205.303-.137.537-.332.703-.586.17-.259.256-.566.256-.923 0-.391-.075-.708-.227-.952a1.254 1.254 0 0 0-.68-.542c-.304-.117-.69-.176-1.158-.176h-2.08V248H53.55v-10.664h3.494c.547 0 1.035.056 1.465.168.43.108.793.279 1.091.513.303.23.532.523.689.879.156.356.234.784.234 1.282 0 .439-.112.837-.337 1.194a2.596 2.596 0 0 1-.938.864 3.69 3.69 0 0 1-1.391.432l-.505.344ZM57.288 248h-3.194l.799-1.15h2.395c.449 0 .83-.078 1.142-.234.318-.157.56-.376.725-.659a2.01 2.01 0 0 0 .25-1.019 2.31 2.31 0 0 0-.213-1.025 1.466 1.466 0 0 0-.667-.666c-.302-.157-.693-.235-1.172-.235h-2.014l.015-1.135h2.754l.3.41c.513.044.948.191 1.304.44.356.244.627.556.813.937.19.381.286.801.286 1.26 0 .664-.147 1.225-.44 1.684a2.754 2.754 0 0 1-1.223 1.04c-.527.235-1.148.352-1.86.352Zm8.694.146a3.89 3.89 0 0 1-1.502-.278 3.395 3.395 0 0 1-1.15-.798 3.551 3.551 0 0 1-.732-1.216 4.458 4.458 0 0 1-.257-1.538v-.308c0-.644.095-1.218.286-1.721.19-.508.45-.937.776-1.289a3.31 3.31 0 0 1 1.114-.798 3.193 3.193 0 0 1 1.289-.271c.566 0 1.054.097 1.464.293.416.195.755.468 1.019.82.263.347.459.757.586 1.23.127.469.19.982.19 1.539v.607h-5.918v-1.106h4.563v-.102a3.375 3.375 0 0 0-.22-1.025 1.847 1.847 0 0 0-.586-.821c-.268-.215-.634-.322-1.098-.322a1.843 1.843 0 0 0-1.516.769 2.88 2.88 0 0 0-.433.93 4.717 4.717 0 0 0-.153 1.267v.308c0 .376.05.73.153 1.062.108.327.262.615.462.864.205.249.451.445.74.586.293.142.625.213.996.213.478 0 .883-.098 1.215-.293.333-.196.623-.457.872-.784l.82.652c-.17.259-.388.505-.651.739a3.11 3.11 0 0 1-.975.572c-.38.146-.832.219-1.354.219Zm9.96-8.071v1.121h-3.83v-1.121h3.83Zm1.194 0V248H75.78v-7.925h1.355Zm-5.354 0h1.363l-.206 3.823c-.034.591-.09 1.114-.168 1.568a5.345 5.345 0 0 1-.308 1.157 2.417 2.417 0 0 1-.483.791c-.19.2-.42.349-.689.447a2.84 2.84 0 0 1-.93.139h-.424v-1.194l.292-.022a1.24 1.24 0 0 0 .535-.146c.152-.083.278-.205.381-.367a2.22 2.22 0 0 0 .25-.637c.067-.259.119-.566.153-.923.039-.356.068-.771.088-1.245l.146-3.391Zm9.002 5.779 3.654-5.779H85.8V248h-1.362v-5.779L80.782 248h-1.348v-7.925h1.348v5.779Zm8.664-5.779V248h-1.355v-7.925h1.355Zm5.2 0-3.757 4.541h-1.897l-.205-1.186h1.553L93 240.075h1.647ZM93.19 248l-2.915-3.589.871-.981 3.765 4.57H93.19Zm7.573-1.355v-4.08c0-.312-.063-.583-.19-.813a1.249 1.249 0 0 0-.557-.542c-.249-.127-.556-.19-.923-.19a2.16 2.16 0 0 0-.9.176 1.57 1.57 0 0 0-.601.461 1.013 1.013 0 0 0-.213.615h-1.355c0-.283.074-.564.22-.842a2.46 2.46 0 0 1 .63-.754c.278-.23.61-.41.996-.542a3.92 3.92 0 0 1 1.304-.205c.576 0 1.084.097 1.523.293.445.195.791.49 1.04.886.254.391.381.881.381 1.472v3.691c0 .264.022.545.066.843.049.298.12.554.212.769V248h-1.413a2.544 2.544 0 0 1-.161-.623 5.016 5.016 0 0 1-.059-.732Zm.235-3.45.014.952h-1.37c-.385 0-.73.032-1.032.096a2.35 2.35 0 0 0-.762.271 1.291 1.291 0 0 0-.469.461 1.224 1.224 0 0 0-.16.637c0 .249.055.476.168.681.112.206.28.369.505.491.23.117.51.176.842.176.415 0 .782-.088 1.099-.264.317-.175.569-.39.754-.644.191-.254.293-.501.308-.74l.579.652a1.974 1.974 0 0 1-.279.681 3.3 3.3 0 0 1-1.501 1.282 2.919 2.919 0 0 1-1.157.219c-.538 0-1.009-.104-1.414-.314-.4-.21-.713-.491-.938-.843a2.228 2.228 0 0 1-.329-1.194c0-.424.083-.798.249-1.12.166-.327.405-.598.718-.813a3.39 3.39 0 0 1 1.128-.498c.44-.113.93-.169 1.472-.169h1.575Zm8.627.315v1.099h-4.189v-1.099h4.189Zm-3.903-3.435V248h-1.355v-7.925h1.355Zm5.002 0V248h-1.362v-7.925h1.362Z" fill="#fff"/><path d="M180.338 25.91c1.604 7.769 5.776 23.509 9.626 24.32" stroke="#6F6F6F" stroke-width="2"/><circle cx="116" cy="62" r="4" fill="#FF6C01"/><circle cx="180.031" cy="26.871" r="4" fill="#FF6C01"/><circle cx="191.178" cy="51.19" r="4" fill="#6F6F6F"/><path d="M89.904 199.686c2.871 1.52 9.221 4.256 11.653 3.04" stroke="#fff" stroke-width="2"/><path d="M114.221 63.402 76.984 96.84l4.306 19.252-4.306 20.012-7.093 20.265 11.399 20.772 2.026 10.133c3.547.338 9.373 3.546 5.32 11.652" stroke="#fff" stroke-width="1.52"/><path d="M88.637 201.459c.845 2.111 2.027 6.941 0 9.373-2.026 2.432-4.053 4.391-4.813 5.067l-8.613 4.813-7.346 4.053" stroke="#828282" stroke-width="2"/><path d="M114.221 63.402 76.984 96.84l4.306 19.252-4.306 20.012-7.093 20.265 11.399 20.772 2.026 10.133c3.547.338 9.373 3.546 5.32 11.652" stroke="#FF6C01" stroke-width="2"/><path d="m76.984 96.84 37.238-33.438c18.07-11.906 56.338-36.022 64.849-37.238" stroke="#FF6C01" stroke-width="1.52"/><circle cx="89.85" cy="200.646" r="4" fill="#FF6C01"/><circle cx="67.559" cy="225.978" r="4" fill="#828282"/><circle cx="104.037" cy="203.686" r="4" fill="#fff"/></svg>