<svg width="362" height="276" fill="none" xmlns="http://www.w3.org/2000/svg"><circle cx="349.716" cy="101.712" r="4" transform="rotate(5.26 349.716 101.712)" fill="#fff"/><circle cx="72.23" cy="231.316" r="4" transform="rotate(5.26 72.23 231.316)" fill="#FF6C01"/><circle cx="99.138" cy="227.749" r="4" transform="rotate(5.26 99.138 227.749)" fill="#FF6C01"/><circle cx="182.48" cy="193.837" r="4" transform="rotate(5.26 182.48 193.837)" fill="#FF6C01"/><circle cx="221.55" cy="191.391" r="4" transform="rotate(5.26 221.55 191.391)" fill="#FF6C01"/><circle cx="151.702" cy="198.942" r="4" transform="rotate(5.26 151.702 198.942)" fill="#FF6C01"/><path d="M566.801 43.713c-4.343 5.373-13.687 16.203-16.316 16.538-2.628.336-9.098.846-12.004 1.06-7.237 4.145-22.954 13.402-27.929 17.274-6.218 4.84-5.093 16.128-55.256 20.17l-18.223 5.899-44.533 1.673-28.631 5.303c.635 3.546.236 9.186-6.445 3.375-1.045-1.006-3.201-1.932-6.35-1.574M72.187 231.264c12.07 3.709 24.311-1.491 28.923-4.554 13.112-11.782 48.091-34.829 83.115-32.76 35.024 2.07 37.971.369 35.067-.74 4.586-5.928 11.458-6.883 14.32-6.62l14.631 5.677 3.71-1.102 4.862-13.624 18.651-10.551c17.091-40.641 47.822-33.482 61.596-45.925 5.806-5.246 10.545-7.236 14.052-7.634m0 0-7.434-5.467c-.931-1.65-1.263-5.096 4.853-5.687" stroke="#fff" stroke-width="2"/><path d="M357.463 115.005c-1.045-1.006-3.201-1.932-6.349-1.575-3.508.399-8.246 2.389-14.053 7.635-13.774 12.443-44.505 5.284-61.596 45.925l-18.651 10.551-4.862 13.624-3.71 1.102-14.631-5.677c-2.862-.264-9.733.692-14.32 6.62 2.905 1.109-.042 2.81-35.067.74-35.024-2.069-70.003 20.978-83.115 32.76-4.611 3.063-16.852 8.262-28.923 4.554" stroke="#FF6C01" stroke-width="2"/><path d="m256.814 177.541 18.651-10.551c4.153-9.874 9.11-16.926 14.434-22.124M72.187 231.263c12.07 3.709 24.31-1.49 28.923-4.553 5.156-4.634 13.694-11.01 24.288-16.915" stroke="#FF6C01" stroke-width="2"/><circle cx="259.136" cy="176.359" r="4" transform="rotate(5.26 259.136 176.359)" fill="#FF6C01"/><circle cx="300.917" cy="136.638" r="4" transform="rotate(5.26 300.917 136.638)" fill="#FF6C01"/><circle cx="357.804" cy="114.453" r="4" transform="rotate(5.26 357.804 114.453)" fill="#FF6C01"/><path d="M2.754 240.336V251H1.34v-10.664h1.414Zm2.446 4.885v1.113H2.666v-1.113H5.2Zm7.654.11v.674c0 .801-.1 1.518-.3 2.153a4.635 4.635 0 0 1-.864 1.619 3.748 3.748 0 0 1-1.355 1.018c-.523.234-1.109.351-1.758.351-.63 0-1.209-.117-1.736-.351a3.902 3.902 0 0 1-1.362-1.018 4.739 4.739 0 0 1-.887-1.619c-.21-.635-.315-1.352-.315-2.153v-.674c0-.801.103-1.516.308-2.146.21-.635.505-1.174.886-1.619a3.799 3.799 0 0 1 1.355-1.025 4.232 4.232 0 0 1 1.736-.352c.65 0 1.235.118 1.758.352a3.71 3.71 0 0 1 1.355 1.025c.38.445.671.984.871 1.619.206.63.308 1.345.308 2.146Zm-1.399.674v-.689a6.48 6.48 0 0 0-.198-1.684c-.127-.488-.315-.899-.564-1.231a2.433 2.433 0 0 0-.915-.754 2.777 2.777 0 0 0-1.216-.256c-.44 0-.837.085-1.194.256a2.528 2.528 0 0 0-.908.754c-.25.332-.442.743-.579 1.231a6.293 6.293 0 0 0-.205 1.684v.689c0 .64.069 1.206.205 1.699.137.488.332.901.586 1.238a2.6 2.6 0 0 0 .916.754c.356.171.754.257 1.194.257.459 0 .866-.086 1.223-.257a2.39 2.39 0 0 0 .9-.754c.25-.337.438-.75.565-1.238.127-.493.19-1.059.19-1.699Zm5.398 1.545-3.003-4.475h1.633l2.051 3.281h1.582l-.197 1.194h-2.066Zm.74-.139-2.3 3.589h-1.714l3.157-4.57.857.981Zm2.219-4.336V251h-1.355v-7.925h1.355Zm4.622 0-3.003 4.475h-2.066l-.212-1.194h1.59l2.05-3.281h1.64ZM22.984 251l-2.308-3.589.872-.981 3.15 4.57h-1.715Zm8.342-4.49v1.099h-4.19v-1.099h4.19Zm-3.904-3.435V251h-1.355v-7.925h1.355Zm5.002 0V251h-1.362v-7.925h1.362Zm1.824 4.05v-.168c0-.571.083-1.101.25-1.589a3.75 3.75 0 0 1 .717-1.282 3.216 3.216 0 0 1 1.135-.85 3.525 3.525 0 0 1 1.494-.307c.557 0 1.057.102 1.502.307a3.2 3.2 0 0 1 1.142.85c.318.361.56.789.725 1.282.166.488.25 1.018.25 1.589v.168c0 .572-.084 1.102-.25 1.59a3.814 3.814 0 0 1-.725 1.282c-.312.361-.69.644-1.135.849-.44.2-.938.3-1.494.3a3.62 3.62 0 0 1-1.502-.3 3.4 3.4 0 0 1-1.142-.849 3.883 3.883 0 0 1-.718-1.282 4.908 4.908 0 0 1-.249-1.59Zm1.355-.168v.168c0 .396.046.77.14 1.121.092.347.231.654.417.923.19.269.427.481.71.637.283.152.613.227.989.227a2 2 0 0 0 .974-.227c.283-.156.518-.368.703-.637.186-.269.325-.576.418-.923.097-.351.146-.725.146-1.121v-.168a4.06 4.06 0 0 0-.146-1.106 2.848 2.848 0 0 0-.425-.93 2.021 2.021 0 0 0-.703-.645 1.975 1.975 0 0 0-.982-.234 2 2 0 0 0-.981.234 2.11 2.11 0 0 0-.703.645 2.94 2.94 0 0 0-.418.93 4.253 4.253 0 0 0-.139 1.106Zm10.378-1.047v1.113h-3.574v-1.113h3.574Zm7.97 1.699h1.405a4.482 4.482 0 0 1-.578 1.809 3.38 3.38 0 0 1-1.326 1.267c-.571.308-1.284.461-2.139.461a4.063 4.063 0 0 1-1.706-.351 3.783 3.783 0 0 1-1.311-.996 4.67 4.67 0 0 1-.85-1.56 6.661 6.661 0 0 1-.293-2.036v-1.062c0-.747.098-1.424.293-2.029a4.58 4.58 0 0 1 .857-1.568 3.825 3.825 0 0 1 1.355-1.003c.527-.234 1.12-.352 1.78-.352.806 0 1.487.152 2.043.455.557.302.99.722 1.297 1.259.312.533.505 1.15.578 1.853H53.95c-.068-.498-.195-.925-.38-1.281a1.974 1.974 0 0 0-.792-.835c-.341-.196-.788-.293-1.34-.293-.474 0-.891.09-1.253.271-.356.18-.656.437-.9.769-.24.332-.42.73-.542 1.194a6.064 6.064 0 0 0-.183 1.545v1.077c0 .522.053 1.013.16 1.472.113.459.282.862.506 1.208.225.347.51.62.857.821.347.195.757.293 1.23.293.601 0 1.08-.096 1.436-.286.356-.19.625-.464.806-.82.185-.357.317-.784.395-1.282Zm7.8 2.036v-4.08c0-.312-.064-.583-.19-.813a1.249 1.249 0 0 0-.558-.542c-.249-.127-.556-.19-.922-.19-.342 0-.643.059-.901.176a1.57 1.57 0 0 0-.6.461 1.013 1.013 0 0 0-.213.615h-1.355c0-.283.073-.564.22-.842a2.46 2.46 0 0 1 .63-.754c.278-.23.61-.41.995-.542a3.92 3.92 0 0 1 1.304-.205c.576 0 1.084.097 1.524.293.444.195.79.49 1.04.886.253.391.38.881.38 1.472v3.691c0 .264.022.545.066.843.05.298.12.554.213.769V251H61.97a2.53 2.53 0 0 1-.16-.623 5 5 0 0 1-.06-.732Zm.234-3.45.014.952h-1.37c-.385 0-.73.032-1.032.096a2.35 2.35 0 0 0-.762.271 1.291 1.291 0 0 0-.468.461 1.224 1.224 0 0 0-.161.637c0 .249.056.476.168.681.112.206.28.369.505.491.23.117.51.176.843.176.415 0 .78-.088 1.098-.264.318-.175.57-.39.755-.644.19-.254.293-.501.307-.74l.579.652a1.965 1.965 0 0 1-.278.681 3.271 3.271 0 0 1-1.502 1.282 2.92 2.92 0 0 1-1.157.219c-.537 0-1.008-.104-1.414-.314a2.42 2.42 0 0 1-.937-.843 2.227 2.227 0 0 1-.33-1.194 2.4 2.4 0 0 1 .25-1.12 2.16 2.16 0 0 1 .717-.813c.313-.22.688-.386 1.128-.498.44-.113.93-.169 1.472-.169h1.575Zm4.167-3.12 1.736 2.886 1.758-2.886h1.59l-2.593 3.911L71.316 251h-1.567l-1.831-2.974L66.086 251h-1.574l2.666-4.014-2.586-3.911h1.56Zm11.2 6.57v-4.08c0-.312-.064-.583-.191-.813a1.248 1.248 0 0 0-.557-.542c-.249-.127-.557-.19-.923-.19a2.16 2.16 0 0 0-.9.176 1.57 1.57 0 0 0-.601.461 1.013 1.013 0 0 0-.213.615h-1.355c0-.283.074-.564.22-.842a2.46 2.46 0 0 1 .63-.754c.278-.23.61-.41.996-.542a3.92 3.92 0 0 1 1.304-.205c.576 0 1.084.097 1.523.293.445.195.791.49 1.04.886.254.391.381.881.381 1.472v3.691c0 .264.022.545.066.843.049.298.12.554.212.769V251h-1.413a2.525 2.525 0 0 1-.161-.623 5 5 0 0 1-.059-.732Zm.233-3.45.015.952h-1.37c-.385 0-.73.032-1.032.096a2.35 2.35 0 0 0-.762.271 1.291 1.291 0 0 0-.469.461 1.224 1.224 0 0 0-.16.637c0 .249.055.476.168.681.112.206.28.369.505.491.23.117.51.176.842.176.415 0 .781-.088 1.099-.264.317-.175.569-.39.754-.644.19-.254.293-.501.308-.74l.578.652a1.967 1.967 0 0 1-.278.681 3.271 3.271 0 0 1-1.501 1.282 2.92 2.92 0 0 1-1.157.219c-.538 0-1.009-.104-1.414-.314-.4-.21-.713-.491-.938-.843a2.228 2.228 0 0 1-.33-1.194c0-.424.084-.798.25-1.12.166-.327.405-.598.718-.813a3.39 3.39 0 0 1 1.128-.498c.439-.113.93-.169 1.472-.169h1.574Zm8.548-3.12v1.121h-3.83v-1.121h3.83Zm1.194 0V251h-1.355v-7.925h1.355Zm-5.354 0h1.362l-.205 3.823c-.034.591-.09 1.114-.169 1.568a5.345 5.345 0 0 1-.307 1.157 2.416 2.416 0 0 1-.484.791c-.19.2-.42.349-.688.447a2.84 2.84 0 0 1-.93.139h-.425v-1.194l.293-.022c.21-.014.388-.063.535-.146a1.04 1.04 0 0 0 .38-.367 2.22 2.22 0 0 0 .25-.637 5.75 5.75 0 0 0 .153-.923c.04-.356.069-.771.088-1.245l.147-3.391Zm9.001 5.779 3.655-5.779h1.362V251H94.63v-5.779L90.974 251h-1.348v-7.925h1.348v5.779Zm12.568-2.344v1.099h-4.189v-1.099h4.189Zm-3.903-3.435V251h-1.355v-7.925h1.355Zm5.002 0V251h-1.362v-7.925h1.362Zm5.354 6.958c.322 0 .62-.066.894-.198.273-.131.498-.312.673-.542.176-.234.276-.5.301-.798h1.289a2.42 2.42 0 0 1-.476 1.311 3.249 3.249 0 0 1-1.135.974 3.298 3.298 0 0 1-1.546.366c-.596 0-1.116-.104-1.56-.314a3.102 3.102 0 0 1-1.099-.865 3.852 3.852 0 0 1-.651-1.259 5.307 5.307 0 0 1-.213-1.517v-.307c0-.532.071-1.035.213-1.509.146-.479.363-.901.651-1.267a3.1 3.1 0 0 1 1.099-.864c.444-.21.964-.315 1.56-.315.62 0 1.162.127 1.626.381.464.249.828.59 1.091 1.025.269.43.415.918.44 1.465h-1.289a1.946 1.946 0 0 0-.279-.886 1.731 1.731 0 0 0-.644-.63 1.805 1.805 0 0 0-.945-.242c-.415 0-.764.083-1.047.249a1.832 1.832 0 0 0-.667.659 3.081 3.081 0 0 0-.351.916 4.987 4.987 0 0 0-.103 1.018v.307c0 .347.034.689.103 1.026.068.337.183.642.344.915.166.274.388.493.666.66.284.161.635.241 1.055.241Zm6.152-6.958V251h-1.355v-7.925h1.355Zm5.201 0-3.758 4.541h-1.897l-.205-1.186h1.553l2.659-3.355h1.648ZM119.89 251l-2.915-3.589.872-.981 3.764 4.57h-1.721ZM258.186 72.281l-3.531 9.72h-1.443l4.065-10.665h.931l-.022.945Zm2.959 9.72-3.538-9.72-.022-.945h.93l4.08 10.665h-1.45Zm-.184-3.948v1.157h-5.991v-1.157h5.991Zm8.284-3.977v1.12h-3.83v-1.12h3.83Zm1.194 0V82h-1.355v-7.925h1.355Zm-5.354 0h1.362l-.205 3.823a14.16 14.16 0 0 1-.168 1.567 5.38 5.38 0 0 1-.308 1.158 2.42 2.42 0 0 1-.483.79c-.191.2-.42.35-.689.447a2.84 2.84 0 0 1-.93.14h-.425v-1.194l.293-.022c.21-.015.388-.064.535-.147.151-.083.278-.205.381-.366a2.25 2.25 0 0 0 .249-.637c.068-.259.119-.567.154-.923.039-.356.068-.772.087-1.245l.147-3.391Zm10.825 8.071a3.895 3.895 0 0 1-1.501-.278 3.396 3.396 0 0 1-1.15-.799 3.545 3.545 0 0 1-.733-1.215 4.457 4.457 0 0 1-.256-1.539v-.307c0-.645.095-1.219.286-1.721.19-.508.449-.938.776-1.29a3.325 3.325 0 0 1 1.113-.798c.415-.18.845-.27 1.289-.27.567 0 1.055.097 1.465.292.415.196.755.469 1.018.82.264.347.459.757.586 1.23.127.47.191.982.191 1.539v.608h-5.918v-1.106h4.563v-.103a3.392 3.392 0 0 0-.22-1.025 1.84 1.84 0 0 0-.586-.82c-.269-.215-.635-.322-1.099-.322a1.845 1.845 0 0 0-1.516.768 2.898 2.898 0 0 0-.432.93 4.736 4.736 0 0 0-.154 1.268v.307c0 .376.052.73.154 1.062.108.328.261.616.462.865.205.249.451.444.739.586.293.141.625.212.996.212.479 0 .884-.098 1.216-.293.332-.195.623-.457.872-.784l.82.652a3.785 3.785 0 0 1-.652.74 3.1 3.1 0 0 1-.974.571c-.381.147-.832.22-1.355.22Zm6.138-8.071V82h-1.355v-7.925h1.355Zm5.2 0-3.757 4.54h-1.897l-.205-1.186h1.552l2.659-3.354h1.648ZM285.791 82l-2.916-3.59.872-.98 3.765 4.57h-1.721Zm5.954-.967c.322 0 .62-.066.894-.198.273-.132.498-.313.673-.542.176-.234.276-.5.301-.798h1.289a2.42 2.42 0 0 1-.476 1.31 3.256 3.256 0 0 1-2.681 1.341c-.596 0-1.116-.105-1.56-.315a3.097 3.097 0 0 1-1.099-.864 3.852 3.852 0 0 1-.651-1.26 5.302 5.302 0 0 1-.213-1.516v-.308c0-.532.071-1.035.213-1.508.146-.479.363-.901.651-1.268a3.1 3.1 0 0 1 1.099-.864c.444-.21.964-.315 1.56-.315.62 0 1.162.127 1.626.381.464.25.828.59 1.091 1.025.269.43.415.918.44 1.465h-1.289a1.949 1.949 0 0 0-.279-.886 1.735 1.735 0 0 0-.644-.63 1.803 1.803 0 0 0-.945-.242c-.415 0-.764.084-1.047.25-.279.16-.501.38-.667.659a3.073 3.073 0 0 0-.351.915 4.99 4.99 0 0 0-.103 1.018v.308c0 .347.034.688.103 1.025.068.337.183.642.344.916.166.273.388.493.666.659.284.161.635.242 1.055.242Zm9.353-.389v-4.08a1.65 1.65 0 0 0-.19-.812 1.248 1.248 0 0 0-.557-.542c-.249-.127-.557-.19-.923-.19-.342 0-.642.058-.901.175a1.562 1.562 0 0 0-.6.462 1.01 1.01 0 0 0-.213.615h-1.355c0-.283.074-.564.22-.842.147-.279.357-.53.63-.755.278-.23.61-.41.996-.542a3.928 3.928 0 0 1 1.304-.205c.576 0 1.084.098 1.523.293.445.196.791.49 1.04.886.254.391.381.882.381 1.473v3.691c0 .264.022.544.066.842.049.298.12.554.212.77V82h-1.413a2.546 2.546 0 0 1-.161-.623 5.032 5.032 0 0 1-.059-.733Zm.235-3.45.014.953h-1.369c-.386 0-.73.032-1.033.095a2.36 2.36 0 0 0-.762.271 1.293 1.293 0 0 0-.469.462c-.107.18-.161.393-.161.637 0 .249.056.476.169.68.112.206.28.37.505.492.23.117.51.175.842.175a2.23 2.23 0 0 0 1.099-.263c.317-.176.569-.39.754-.645.191-.254.293-.5.308-.74l.579.652a1.974 1.974 0 0 1-.279.681 3.286 3.286 0 0 1-1.501 1.282c-.342.147-.728.22-1.157.22-.538 0-1.009-.105-1.414-.315a2.41 2.41 0 0 1-.937-.842 2.227 2.227 0 0 1-.33-1.194c0-.425.083-.798.249-1.12.166-.328.405-.599.718-.814a3.41 3.41 0 0 1 1.128-.498c.439-.112.93-.168 1.472-.168h1.575Zm8.627.316v1.098h-4.189V77.51h4.189Zm-3.903-3.435V82h-1.355v-7.925h1.355Zm5.002 0V82h-1.362v-7.925h1.362Zm3.611 0h1.355l-.117 2.966c-.03.752-.115 1.401-.257 1.948a5.694 5.694 0 0 1-.542 1.4c-.219.38-.466.7-.739.959a4.862 4.862 0 0 1-.835.651h-.674l.036-1.106.279-.007c.161-.19.317-.386.469-.586.151-.205.29-.447.417-.725a4.99 4.99 0 0 0 .315-1.032c.088-.41.144-.911.168-1.502l.125-2.966Zm.337 0h4.768V82h-1.355v-6.673h-3.413v-1.252Zm-2.454 6.811h8.24v3.45h-1.355V82h-5.53v2.337h-1.362l.007-3.45Zm11.096-5.288v9.448h-1.362v-10.97h1.245l.117 1.523Zm5.34 2.373v.154a6.02 6.02 0 0 1-.205 1.604 3.943 3.943 0 0 1-.601 1.274 2.74 2.74 0 0 1-.959.843c-.381.2-.818.3-1.311.3-.503 0-.948-.083-1.333-.25a2.633 2.633 0 0 1-.982-.724 3.712 3.712 0 0 1-.644-1.143 6.595 6.595 0 0 1-.323-1.501v-.82a6.92 6.92 0 0 1 .33-1.575c.161-.464.373-.86.637-1.187.269-.332.593-.583.974-.754.381-.176.821-.264 1.319-.264s.94.098 1.325.293c.386.19.711.464.974.82.264.357.462.784.594 1.282.136.493.205 1.043.205 1.648Zm-1.363.154v-.154c0-.395-.041-.766-.124-1.113a2.808 2.808 0 0 0-.388-.923 1.854 1.854 0 0 0-.659-.63c-.269-.156-.589-.234-.96-.234-.342 0-.64.058-.893.176a1.936 1.936 0 0 0-.638.476c-.175.195-.319.42-.432.673a3.85 3.85 0 0 0-.241.777v1.897c.097.342.234.664.41.967.175.297.41.54.703.725.293.18.661.27 1.106.27.366 0 .681-.075.945-.226.268-.157.488-.369.659-.638.176-.268.305-.576.388-.922.083-.352.124-.725.124-1.121Zm2.732 0v-.169c0-.57.083-1.1.249-1.589.166-.493.406-.92.718-1.282a3.21 3.21 0 0 1 1.135-.85 3.53 3.53 0 0 1 1.495-.307 3.54 3.54 0 0 1 1.501.308c.449.2.83.483 1.143.85.317.36.559.788.725 1.281.166.488.249 1.018.249 1.59v.168c0 .571-.083 1.101-.249 1.59a3.809 3.809 0 0 1-.725 1.281 3.324 3.324 0 0 1-1.136.85c-.439.2-.937.3-1.494.3-.556 0-1.057-.1-1.501-.3a3.4 3.4 0 0 1-1.143-.85 3.88 3.88 0 0 1-.718-1.282 4.907 4.907 0 0 1-.249-1.589Zm1.355-.169v.169c0 .395.047.769.14 1.12.092.347.231.655.417.923.19.269.427.481.71.638.284.151.613.227.989.227.371 0 .696-.076.974-.227.284-.157.518-.369.703-.638.186-.268.325-.576.418-.922.098-.352.146-.725.146-1.121v-.169c0-.39-.048-.759-.146-1.105a2.84 2.84 0 0 0-.425-.93 2.014 2.014 0 0 0-.703-.645 1.97 1.97 0 0 0-.981-.234 2 2 0 0 0-.982.234 2.105 2.105 0 0 0-.703.644 2.912 2.912 0 0 0-.417.93c-.093.347-.14.716-.14 1.106Zm11.28.557h-2.6l-.015-1.084h2.124c.42 0 .769-.041 1.047-.124.284-.083.496-.208.638-.374a.918.918 0 0 0 .212-.615.967.967 0 0 0-.483-.857 1.78 1.78 0 0 0-.601-.212 4.094 4.094 0 0 0-.828-.074h-1.736V82h-1.355v-7.924h3.091c.503 0 .955.044 1.355.132.406.087.75.222 1.033.402.288.176.508.4.659.674.152.274.227.596.227.967a1.637 1.637 0 0 1-.578 1.252 2.345 2.345 0 0 1-.704.41 3.62 3.62 0 0 1-.959.198l-.527.403Zm0 3.487h-3.091l.674-1.1h2.417c.376 0 .688-.045.937-.138.249-.098.435-.235.557-.41.127-.181.19-.396.19-.645s-.063-.461-.19-.637a1.116 1.116 0 0 0-.557-.41c-.249-.098-.561-.147-.937-.147h-2.058l.014-1.084h2.571l.491.41c.434.034.803.142 1.106.323.302.18.532.41.688.688.156.273.235.571.235.894 0 .37-.071.698-.213.981-.137.283-.337.52-.6.71a2.937 2.937 0 0 1-.96.425 5.32 5.32 0 0 1-1.274.14Zm8.034-.967c.323 0 .62-.066.894-.198.273-.132.498-.313.674-.542a1.5 1.5 0 0 0 .3-.798h1.289a2.413 2.413 0 0 1-.476 1.31 3.242 3.242 0 0 1-1.135.975 3.297 3.297 0 0 1-1.546.366c-.595 0-1.115-.105-1.56-.315a3.093 3.093 0 0 1-1.098-.864 3.854 3.854 0 0 1-.652-1.26 5.302 5.302 0 0 1-.213-1.516v-.308c0-.532.071-1.035.213-1.508a3.85 3.85 0 0 1 .652-1.268 3.095 3.095 0 0 1 1.098-.864c.445-.21.965-.315 1.56-.315.62 0 1.162.127 1.626.381a2.8 2.8 0 0 1 1.092 1.025c.268.43.415.918.439 1.465h-1.289a1.948 1.948 0 0 0-.278-.886 1.737 1.737 0 0 0-.645-.63 1.798 1.798 0 0 0-.945-.242c-.415 0-.764.084-1.047.25-.278.16-.501.38-.667.659a3.073 3.073 0 0 0-.351.915 5.062 5.062 0 0 0-.103 1.018v.308c0 .347.035.688.103 1.025.068.337.183.642.344.916.166.273.388.493.667.659.283.161.634.242 1.054.242Zm6.153-6.958V82h-1.355v-7.925h1.355Zm5.2 0-3.757 4.54h-1.897l-.205-1.186h1.552l2.659-3.354h1.648ZM360.922 82l-2.915-3.59.872-.98 3.765 4.57h-1.722Zm5.721-5.09v1.112h-3.575V76.91h3.575Zm7.968 1.698h1.407a4.506 4.506 0 0 1-.579 1.81 3.382 3.382 0 0 1-1.326 1.267c-.571.307-1.284.461-2.138.461a4.06 4.06 0 0 1-1.707-.352 3.788 3.788 0 0 1-1.311-.996 4.68 4.68 0 0 1-.85-1.56 6.669 6.669 0 0 1-.293-2.036V76.14c0-.747.098-1.423.293-2.029a4.6 4.6 0 0 1 .857-1.567 3.827 3.827 0 0 1 1.355-1.004c.528-.234 1.121-.351 1.78-.351.806 0 1.487.151 2.044.454a3.26 3.26 0 0 1 1.296 1.26c.312.532.505 1.15.579 1.853h-1.407c-.068-.498-.195-.925-.381-1.282a1.976 1.976 0 0 0-.791-.835c-.341-.195-.788-.293-1.34-.293-.474 0-.891.09-1.252.271-.357.18-.657.437-.901.77-.239.331-.42.73-.542 1.193a6.074 6.074 0 0 0-.183 1.545v1.077c0 .523.053 1.013.161 1.472.112.46.281.862.505 1.209.225.347.51.62.857.82.347.195.757.293 1.231.293.6 0 1.079-.095 1.435-.286.357-.19.625-.463.806-.82.185-.356.317-.784.395-1.282Zm7.801 2.037v-4.08a1.65 1.65 0 0 0-.191-.813 1.245 1.245 0 0 0-.556-.542c-.249-.127-.557-.19-.923-.19-.342 0-.642.058-.901.175a1.574 1.574 0 0 0-.601.462c-.141.19-.212.395-.212.615h-1.355c0-.283.073-.564.22-.842.146-.279.356-.53.629-.755.279-.23.611-.41.997-.542a3.94 3.94 0 0 1 1.303-.205c.576 0 1.084.098 1.524.293.444.196.791.49 1.04.886.254.391.381.882.381 1.473v3.691c0 .264.022.544.066.842.048.298.119.554.212.77V82h-1.414a2.546 2.546 0 0 1-.161-.623 5.023 5.023 0 0 1-.058-.733Zm.234-3.45.015.952h-1.37c-.386 0-.73.032-1.033.095a2.363 2.363 0 0 0-.761.271 1.285 1.285 0 0 0-.469.462c-.108.18-.161.393-.161.637 0 .249.056.476.168.68.112.206.281.37.506.492.229.117.51.175.842.175.415 0 .781-.087 1.098-.263.318-.176.569-.39.755-.645.19-.254.293-.5.307-.74l.579.652a1.97 1.97 0 0 1-.278.681 3.273 3.273 0 0 1-1.502 1.282 2.91 2.91 0 0 1-1.157.22c-.537 0-1.008-.105-1.414-.315a2.42 2.42 0 0 1-.937-.842 2.227 2.227 0 0 1-.33-1.194c0-.425.083-.798.249-1.12.166-.328.406-.599.718-.814a3.42 3.42 0 0 1 1.128-.498c.44-.112.93-.168 1.472-.168h1.575Zm4.167-3.12 1.736 2.885 1.758-2.885h1.589l-2.592 3.91L391.977 82h-1.567l-1.831-2.973L386.748 82h-1.575l2.666-4.014-2.586-3.911h1.56Zm11.199 6.57v-4.08a1.65 1.65 0 0 0-.19-.813 1.248 1.248 0 0 0-.557-.542c-.249-.127-.557-.19-.923-.19-.342 0-.642.058-.901.175a1.57 1.57 0 0 0-.6.462 1.01 1.01 0 0 0-.213.615h-1.355c0-.283.074-.564.22-.842.147-.279.357-.53.63-.755.278-.23.61-.41.996-.542a3.928 3.928 0 0 1 1.304-.205c.576 0 1.084.098 1.523.293.445.196.791.49 1.04.886.254.391.381.882.381 1.473v3.691c0 .264.022.544.066.842.049.298.12.554.213.77V82h-1.414a2.546 2.546 0 0 1-.161-.623 5.032 5.032 0 0 1-.059-.733Zm.235-3.45.014.952h-1.369c-.386 0-.73.032-1.033.095a2.36 2.36 0 0 0-.762.271 1.293 1.293 0 0 0-.469.462c-.107.18-.161.393-.161.637 0 .249.056.476.169.68.112.206.281.37.505.492.23.117.51.175.842.175a2.23 2.23 0 0 0 1.099-.263c.317-.176.569-.39.754-.645.191-.254.293-.5.308-.74l.579.652a1.974 1.974 0 0 1-.279.681 3.271 3.271 0 0 1-1.501 1.282c-.342.147-.728.22-1.157.22-.537 0-1.009-.105-1.414-.315a2.41 2.41 0 0 1-.937-.842 2.227 2.227 0 0 1-.33-1.194c0-.425.083-.798.249-1.12.166-.328.405-.599.718-.814a3.41 3.41 0 0 1 1.128-.498c.439-.112.93-.168 1.472-.168h1.575Zm8.547-3.12v1.12h-3.831v-1.12h3.831Zm1.194 0V82h-1.355v-7.925h1.355Zm-5.354 0h1.362l-.205 3.823a14.16 14.16 0 0 1-.168 1.567 5.38 5.38 0 0 1-.308 1.158 2.42 2.42 0 0 1-.483.79c-.191.2-.42.35-.689.447-.268.093-.579.14-.93.14h-.425v-1.194l.293-.022c.21-.015.388-.064.535-.147.151-.083.278-.205.381-.366a2.25 2.25 0 0 0 .249-.637c.068-.259.119-.567.153-.923.039-.356.069-.772.088-1.245l.147-3.391Zm9.001 5.779 3.655-5.78h1.362V82h-1.362v-5.778L411.635 82h-1.347v-7.925h1.347v5.779Zm12.569-2.344v1.098h-4.19V77.51h4.19Zm-3.904-3.435V82h-1.355v-7.925h1.355Zm5.002 0V82h-1.362v-7.925h1.362Zm5.354 6.958c.323 0 .62-.066.894-.198.273-.132.498-.313.674-.542.175-.234.276-.5.3-.798h1.289a2.413 2.413 0 0 1-.476 1.31 3.256 3.256 0 0 1-2.681 1.341c-.595 0-1.115-.105-1.56-.315a3.093 3.093 0 0 1-1.098-.864 3.835 3.835 0 0 1-.652-1.26 5.302 5.302 0 0 1-.213-1.516v-.308c0-.532.071-1.035.213-1.508a3.83 3.83 0 0 1 .652-1.268 3.095 3.095 0 0 1 1.098-.864c.445-.21.965-.315 1.56-.315.62 0 1.162.127 1.626.381a2.8 2.8 0 0 1 1.092 1.025c.268.43.415.918.439 1.465h-1.289a1.948 1.948 0 0 0-.278-.886 1.737 1.737 0 0 0-.645-.63 1.798 1.798 0 0 0-.945-.242c-.415 0-.764.084-1.047.25-.278.16-.501.38-.667.659a3.073 3.073 0 0 0-.351.915 4.99 4.99 0 0 0-.103 1.018v.308c0 .347.034.688.103 1.025.068.337.183.642.344.916.166.273.388.493.667.659.283.161.634.242 1.054.242Zm6.153-6.958V82h-1.355v-7.925h1.355Zm5.2 0-3.758 4.54h-1.897l-.205-1.186h1.553l2.659-3.354h1.648ZM440.551 82l-2.915-3.59.872-.98 3.764 4.57h-1.721Zm4.366-2.147 3.654-5.778h1.363V82h-1.363v-5.78L444.917 82h-1.348v-7.925h1.348v5.779Zm8.657 0 3.655-5.778h1.362V82h-1.362v-5.78L453.574 82h-1.348v-7.925h1.348v5.779Zm2.915-8.65h1.098c0 .381-.087.72-.263 1.019a1.816 1.816 0 0 1-.755.688c-.327.166-.715.25-1.164.25-.679 0-1.216-.181-1.612-.543-.39-.366-.585-.837-.585-1.413h1.098c0 .288.083.542.249.761.166.22.449.33.85.33.39 0 .669-.11.835-.33.166-.22.249-.473.249-.761ZM347.25 121.136V131.8h-1.391v-10.664h1.391Zm3.428 0v1.157h-8.24v-1.157h8.24Zm1.524 5.464h2.38c.64 0 1.179.112 1.619.337.439.22.771.525.996.916.229.385.344.825.344 1.318 0 .366-.063.71-.19 1.033a2.33 2.33 0 0 1-.572.835 2.646 2.646 0 0 1-.93.564 3.75 3.75 0 0 1-1.267.197h-3.369v-7.925h1.355v6.812h2.014c.391 0 .703-.071.938-.212.234-.142.402-.325.505-.55a1.68 1.68 0 0 0 0-1.406 1.32 1.32 0 0 0-.505-.571c-.235-.156-.547-.235-.938-.235h-2.38V126.6Zm8.159-2.725v7.925h-1.355v-7.925h1.355Zm6.929 6.124 2.695-6.124h1.304l-3.531 7.925h-.937l-3.516-7.925h1.304l2.681 6.124Zm-3.077-6.124v7.925h-1.355v-7.925h1.355Zm6.109 7.925v-7.925h1.362v7.925h-1.362Zm3.186-3.874v-.169c0-.571.083-1.101.249-1.589.166-.493.405-.92.718-1.282a3.199 3.199 0 0 1 1.135-.849 3.523 3.523 0 0 1 1.494-.308 3.54 3.54 0 0 1 1.501.308c.45.2.831.483 1.143.849.317.362.559.789.725 1.282.166.488.249 1.018.249 1.589v.169c0 .571-.083 1.101-.249 1.589a3.81 3.81 0 0 1-.725 1.282 3.321 3.321 0 0 1-1.135.849c-.44.201-.938.301-1.494.301-.557 0-1.057-.1-1.502-.301a3.396 3.396 0 0 1-1.142-.849 3.865 3.865 0 0 1-.718-1.282 4.906 4.906 0 0 1-.249-1.589Zm1.355-.169v.169c0 .395.046.769.139 1.12.093.347.232.655.417.923.191.269.428.481.711.637.283.152.613.227.989.227.371 0 .695-.075.974-.227.283-.156.517-.368.703-.637.185-.268.325-.576.417-.923.098-.351.147-.725.147-1.12v-.169c0-.39-.049-.759-.147-1.106a2.848 2.848 0 0 0-.424-.93 1.962 1.962 0 0 0-1.685-.879c-.371 0-.698.078-.981.235a2.11 2.11 0 0 0-.704.644 2.967 2.967 0 0 0-.417.93 4.259 4.259 0 0 0-.139 1.106Zm11.279.557h-2.6l-.015-1.084h2.124c.42 0 .769-.042 1.048-.125.283-.083.495-.207.637-.373a.913.913 0 0 0 .212-.615.964.964 0 0 0-.124-.498.904.904 0 0 0-.359-.359 1.76 1.76 0 0 0-.601-.213 4.158 4.158 0 0 0-.827-.073h-1.736v6.826h-1.355v-7.925h3.091c.503 0 .954.044 1.355.132.405.088.749.222 1.032.403.288.176.508.401.66.674.151.273.227.596.227.967 0 .239-.049.466-.147.681a1.666 1.666 0 0 1-.432.571 2.33 2.33 0 0 1-.703.41 3.588 3.588 0 0 1-.96.198l-.527.403Zm0 3.486h-3.091l.674-1.098h2.417c.376 0 .689-.047.938-.14.249-.097.434-.234.556-.41a1.09 1.09 0 0 0 .191-.644c0-.249-.064-.462-.191-.637a1.114 1.114 0 0 0-.556-.411c-.249-.097-.562-.146-.938-.146h-2.058l.015-1.084h2.57l.491.41c.435.034.803.142 1.106.322.303.181.532.411.689.689.156.273.234.571.234.893 0 .372-.071.699-.212.982-.137.283-.337.52-.601.71a2.941 2.941 0 0 1-.959.425 5.325 5.325 0 0 1-1.275.139Zm8.035-.967c.322 0 .62-.065.893-.197.274-.132.498-.313.674-.542.176-.235.276-.501.3-.799h1.289a2.411 2.411 0 0 1-.476 1.311 3.242 3.242 0 0 1-1.135.975 3.297 3.297 0 0 1-1.545.366c-.596 0-1.116-.105-1.56-.315a3.091 3.091 0 0 1-1.099-.864 3.889 3.889 0 0 1-.652-1.26 5.34 5.34 0 0 1-.212-1.516v-.308c0-.532.071-1.035.212-1.509.147-.478.364-.901.652-1.267a3.091 3.091 0 0 1 1.099-.864c.444-.21.964-.315 1.56-.315.62 0 1.162.127 1.626.381a2.8 2.8 0 0 1 1.091 1.025c.269.43.415.918.439 1.465h-1.289a1.95 1.95 0 0 0-.278-.886 1.731 1.731 0 0 0-.644-.63 1.805 1.805 0 0 0-.945-.242c-.415 0-.764.083-1.048.249-.278.161-.5.381-.666.659a3.11 3.11 0 0 0-.352.916 5.058 5.058 0 0 0-.102 1.018v.308c0 .346.034.688.102 1.025.069.337.183.642.345.916.166.273.388.493.666.659.283.161.635.241 1.055.241Zm6.152-6.958v7.925h-1.355v-7.925h1.355Zm5.2 0-3.757 4.542h-1.897l-.205-1.187h1.553l2.658-3.355h1.648Zm-1.457 7.925-2.915-3.589.871-.981 3.765 4.57h-1.721Zm2.38-3.874v-.169c0-.571.083-1.101.249-1.589.166-.493.405-.92.718-1.282a3.199 3.199 0 0 1 1.135-.849 3.53 3.53 0 0 1 1.494-.308c.557 0 1.057.103 1.502.308.449.2.83.483 1.142.849.318.362.559.789.725 1.282.166.488.25 1.018.25 1.589v.169c0 .571-.084 1.101-.25 1.589a3.794 3.794 0 0 1-.725 1.282 3.321 3.321 0 0 1-1.135.849c-.439.201-.937.301-1.494.301a3.6 3.6 0 0 1-1.501-.301 3.39 3.39 0 0 1-1.143-.849 3.865 3.865 0 0 1-.718-1.282 4.906 4.906 0 0 1-.249-1.589Zm1.355-.169v.169c0 .395.047.769.139 1.12.093.347.232.655.418.923.19.269.427.481.71.637.283.152.613.227.989.227a2 2 0 0 0 .974-.227c.283-.156.518-.368.703-.637.186-.268.325-.576.418-.923.097-.351.146-.725.146-1.12v-.169c0-.39-.049-.759-.146-1.106a2.87 2.87 0 0 0-.425-.93 2.024 2.024 0 0 0-.703-.644 1.968 1.968 0 0 0-.982-.235c-.371 0-.698.078-.981.235a2.106 2.106 0 0 0-.703.644 2.946 2.946 0 0 0-.418.93 4.302 4.302 0 0 0-.139 1.106Zm10.847 4.19a3.89 3.89 0 0 1-1.501-.279 3.386 3.386 0 0 1-1.15-.798 3.542 3.542 0 0 1-.732-1.216 4.452 4.452 0 0 1-.257-1.538v-.307c0-.645.095-1.219.286-1.722.19-.507.449-.937.776-1.289a3.335 3.335 0 0 1 1.113-.798 3.194 3.194 0 0 1 1.29-.271c.566 0 1.054.098 1.464.293.415.195.755.469 1.018.82.264.347.459.757.586 1.231.127.469.191.981.191 1.538v.608h-5.918v-1.106h4.563v-.103a3.394 3.394 0 0 0-.22-1.025 1.834 1.834 0 0 0-.586-.82c-.268-.215-.635-.323-1.098-.323a1.844 1.844 0 0 0-1.517.769 2.895 2.895 0 0 0-.432.931 4.732 4.732 0 0 0-.154 1.267v.307c0 .376.052.73.154 1.062.108.327.262.615.462.864.205.25.451.445.739.586.293.142.625.213.997.213.478 0 .883-.098 1.215-.293.332-.195.623-.457.872-.784l.82.652a3.798 3.798 0 0 1-.652.74 3.097 3.097 0 0 1-.974.571c-.381.147-.832.22-1.355.22Zm-206.978 24.662h1.406a4.472 4.472 0 0 1-.579 1.809 3.377 3.377 0 0 1-1.325 1.267c-.572.308-1.284.461-2.139.461a4.058 4.058 0 0 1-1.706-.351 3.792 3.792 0 0 1-1.312-.996 4.67 4.67 0 0 1-.849-1.56 6.67 6.67 0 0 1-.293-2.036v-1.062c0-.747.098-1.424.293-2.029a4.58 4.58 0 0 1 .857-1.568 3.819 3.819 0 0 1 1.355-1.003c.527-.234 1.12-.352 1.78-.352.805 0 1.486.152 2.043.455a3.24 3.24 0 0 1 1.296 1.259c.313.533.506 1.15.579 1.853h-1.406c-.069-.498-.196-.925-.381-1.281a1.976 1.976 0 0 0-.791-.835c-.342-.196-.789-.293-1.34-.293-.474 0-.892.09-1.253.271-.356.18-.657.437-.901.769-.239.332-.42.73-.542 1.194a6.068 6.068 0 0 0-.183 1.545v1.077c0 .522.054 1.013.161 1.472.113.459.281.862.506 1.208.224.347.51.62.857.821.346.195.756.293 1.23.293.601 0 1.079-.096 1.436-.286.356-.19.625-.464.805-.82.186-.357.318-.784.396-1.282Zm7.683 1.589 2.695-6.123h1.304l-3.53 7.925h-.938l-3.515-7.925h1.303l2.681 6.123Zm-3.076-6.123V160h-1.355v-7.925h1.355Zm6.108 7.925v-7.925h1.362V160h-1.362Zm5.01-2.146 3.655-5.779h1.362V160h-1.362v-5.779L227.401 160h-1.348v-7.925h1.348v5.779Zm8.547-4.255v9.448h-1.362v-10.972h1.245l.117 1.524Zm5.34 2.373v.153a6.01 6.01 0 0 1-.205 1.604 3.936 3.936 0 0 1-.601 1.275 2.735 2.735 0 0 1-.96.842c-.38.2-.817.3-1.311.3-.503 0-.947-.083-1.333-.249a2.63 2.63 0 0 1-.981-.725 3.71 3.71 0 0 1-.645-1.142 6.657 6.657 0 0 1-.322-1.502v-.82a6.923 6.923 0 0 1 .33-1.575c.161-.464.373-.859.637-1.186.269-.332.593-.584.974-.755.381-.175.82-.263 1.318-.263.499 0 .94.097 1.326.293.386.19.711.464.974.82.264.356.462.784.594 1.282a6.19 6.19 0 0 1 .205 1.648Zm-1.363.153v-.153c0-.396-.041-.767-.124-1.114a2.824 2.824 0 0 0-.388-.922 1.842 1.842 0 0 0-.66-.63c-.268-.157-.588-.235-.959-.235-.342 0-.64.059-.894.176a1.934 1.934 0 0 0-.637.476c-.176.195-.32.42-.432.674a3.926 3.926 0 0 0-.242.776v1.897c.098.342.235.664.411.967.175.298.41.54.703.725.293.181.661.271 1.106.271.366 0 .681-.075.944-.227.269-.156.489-.368.66-.637.175-.269.305-.576.388-.923.083-.351.124-.725.124-1.121Zm8.467-.615v1.099h-4.189v-1.099h4.189Zm-3.904-3.435V160h-1.355v-7.925h1.355Zm5.003 0V160h-1.363v-7.925h1.363Zm3.296 2.725h2.38c.64 0 1.179.112 1.619.337.439.219.771.525.996.915.229.386.344.825.344 1.319 0 .366-.064.71-.19 1.032a2.313 2.313 0 0 1-.572.835c-.249.24-.559.428-.93.564a3.725 3.725 0 0 1-1.267.198h-3.369v-7.925h1.355v6.812h2.014c.391 0 .703-.071.937-.213.235-.141.403-.324.506-.549a1.684 1.684 0 0 0 0-1.406 1.319 1.319 0 0 0-.506-.572c-.234-.156-.546-.234-.937-.234h-2.38V154.8Zm8.159-2.725V160h-1.355v-7.925h1.355Zm3.288 0 1.736 2.886 1.758-2.886h1.589l-2.592 3.911 2.673 4.014h-1.567L266 157.026 264.168 160h-1.574l2.666-4.014-2.586-3.911h1.56Zm-50.852 50.261V213h-1.406v-9.507h-5.259V213h-1.413v-10.664h8.078Zm2 6.789v-.168c0-.571.083-1.101.249-1.589.166-.493.405-.921.718-1.282a3.213 3.213 0 0 1 1.135-.85 3.523 3.523 0 0 1 1.494-.307c.557 0 1.057.102 1.501.307.45.201.831.484 1.143.85.317.361.559.789.725 1.282.166.488.249 1.018.249 1.589v.168c0 .572-.083 1.102-.249 1.59a3.82 3.82 0 0 1-.725 1.282 3.321 3.321 0 0 1-1.135.849c-.44.2-.938.3-1.494.3-.557 0-1.057-.1-1.502-.3a3.396 3.396 0 0 1-1.142-.849 3.875 3.875 0 0 1-.718-1.282 4.908 4.908 0 0 1-.249-1.59Zm1.355-.168v.168c0 .396.046.77.139 1.121.093.347.232.654.417.923.191.269.428.481.711.637.283.152.613.227.989.227.371 0 .695-.075.974-.227.283-.156.517-.368.703-.637.185-.269.325-.576.417-.923.098-.351.147-.725.147-1.121v-.168c0-.391-.049-.759-.147-1.106a2.839 2.839 0 0 0-.424-.93 2.022 2.022 0 0 0-.704-.645 1.972 1.972 0 0 0-.981-.234c-.371 0-.698.078-.981.234a2.113 2.113 0 0 0-.704.645 2.957 2.957 0 0 0-.417.93 4.253 4.253 0 0 0-.139 1.106Zm8.913-2.358v9.448h-1.362v-10.972h1.245l.117 1.524Zm5.34 2.373v.153a6.01 6.01 0 0 1-.205 1.604 3.936 3.936 0 0 1-.601 1.275 2.74 2.74 0 0 1-.959.842c-.381.2-.818.3-1.311.3-.503 0-.948-.083-1.333-.249a2.626 2.626 0 0 1-.982-.725 3.708 3.708 0 0 1-.644-1.142 6.602 6.602 0 0 1-.323-1.502v-.82a6.923 6.923 0 0 1 .33-1.575c.161-.464.373-.859.637-1.186.269-.332.593-.584.974-.755.381-.175.821-.263 1.319-.263s.94.097 1.325.293c.386.19.711.464.974.82.264.356.462.784.594 1.282a6.19 6.19 0 0 1 .205 1.648Zm-1.363.153v-.153c0-.396-.041-.767-.124-1.114a2.802 2.802 0 0 0-.388-.922 1.847 1.847 0 0 0-.659-.63c-.269-.157-.589-.235-.96-.235-.342 0-.64.059-.893.176a1.937 1.937 0 0 0-.638.476c-.175.195-.319.42-.432.674a3.858 3.858 0 0 0-.241.776v1.897c.097.342.234.664.41.967.175.298.41.54.703.725.293.181.661.271 1.106.271.366 0 .681-.075.945-.227.268-.156.488-.368.659-.637.176-.269.305-.576.388-.923.083-.351.124-.725.124-1.121Zm2.732 0v-.168c0-.571.083-1.101.249-1.589.166-.493.406-.921.718-1.282a3.222 3.222 0 0 1 1.135-.85 3.53 3.53 0 0 1 1.495-.307c.556 0 1.057.102 1.501.307.449.201.83.484 1.143.85.317.361.559.789.725 1.282.166.488.249 1.018.249 1.589v.168c0 .572-.083 1.102-.249 1.59a3.82 3.82 0 0 1-.725 1.282 3.325 3.325 0 0 1-1.136.849c-.439.2-.937.3-1.494.3-.556 0-1.057-.1-1.501-.3a3.4 3.4 0 0 1-1.143-.849 3.893 3.893 0 0 1-.718-1.282 4.908 4.908 0 0 1-.249-1.59Zm1.355-.168v.168c0 .396.047.77.14 1.121.092.347.231.654.417.923.19.269.427.481.71.637.284.152.613.227.989.227a2 2 0 0 0 .974-.227c.284-.156.518-.368.703-.637.186-.269.325-.576.418-.923.098-.351.146-.725.146-1.121v-.168c0-.391-.048-.759-.146-1.106a2.84 2.84 0 0 0-.425-.93 2.019 2.019 0 0 0-.703-.645 1.972 1.972 0 0 0-.981-.234 2 2 0 0 0-.982.234 2.11 2.11 0 0 0-.703.645 2.912 2.912 0 0 0-.417.93c-.093.347-.14.715-.14 1.106Zm12.935-.447v1.099h-4.19v-1.099h4.19Zm-3.904-3.435V213h-1.355v-7.925h1.355Zm5.003 0V213h-1.363v-7.925h1.363Zm6.855 6.57v-4.08c0-.312-.063-.583-.19-.813a1.249 1.249 0 0 0-.557-.542c-.249-.127-.557-.19-.923-.19-.342 0-.642.059-.901.176a1.564 1.564 0 0 0-.6.461 1.011 1.011 0 0 0-.213.615h-1.355c0-.283.074-.564.22-.842.146-.278.356-.53.63-.754.278-.23.61-.41.996-.542a3.92 3.92 0 0 1 1.304-.205c.576 0 1.084.097 1.523.293.444.195.791.49 1.04.886.254.391.381.881.381 1.472v3.691c0 .264.022.545.066.843.049.298.12.554.212.769V213h-1.413a2.5 2.5 0 0 1-.161-.623 5.016 5.016 0 0 1-.059-.732Zm.234-3.45.015.952h-1.37c-.385 0-.73.032-1.032.096a2.348 2.348 0 0 0-.762.271 1.297 1.297 0 0 0-.469.461 1.228 1.228 0 0 0-.161.637c0 .249.056.476.169.681.112.206.28.369.505.491.229.117.51.176.842.176.415 0 .781-.088 1.099-.264.317-.175.569-.39.754-.644.191-.254.293-.501.308-.74l.578.652a1.95 1.95 0 0 1-.278.681 3.258 3.258 0 0 1-.608.718 3.318 3.318 0 0 1-.893.564 2.923 2.923 0 0 1-1.158.219c-.537 0-1.008-.104-1.413-.314a2.415 2.415 0 0 1-.938-.843 2.234 2.234 0 0 1-.329-1.194c0-.424.083-.798.249-1.12.166-.327.405-.598.718-.813a3.39 3.39 0 0 1 1.128-.498c.439-.113.93-.169 1.472-.169h1.574Zm4.717 2.659 3.655-5.779h1.362V213h-1.362v-5.779L259.554 213h-1.347v-7.925h1.347v5.779Zm2.915-8.65h1.099c0 .381-.088.72-.264 1.018a1.814 1.814 0 0 1-.754.689c-.327.166-.716.249-1.165.249-.678 0-1.216-.181-1.611-.542-.391-.367-.586-.838-.586-1.414h1.099c0 .288.083.542.249.762.166.22.449.329.849.329.391 0 .669-.109.835-.329a1.23 1.23 0 0 0 .249-.762Zm7.449 9.829c.322 0 .62-.066.894-.198.273-.131.498-.312.673-.542.176-.234.276-.5.301-.798h1.289a2.42 2.42 0 0 1-.476 1.311 3.243 3.243 0 0 1-1.136.974 3.294 3.294 0 0 1-1.545.366c-.596 0-1.116-.104-1.56-.314a3.094 3.094 0 0 1-1.099-.865 3.874 3.874 0 0 1-.652-1.259 5.342 5.342 0 0 1-.212-1.517v-.307c0-.532.071-1.035.212-1.509.147-.479.364-.901.652-1.267a3.091 3.091 0 0 1 1.099-.864c.444-.21.964-.315 1.56-.315.62 0 1.162.127 1.626.381.464.249.828.59 1.091 1.025.269.43.415.918.44 1.465h-1.289a1.958 1.958 0 0 0-.279-.886 1.731 1.731 0 0 0-.644-.63 1.805 1.805 0 0 0-.945-.242c-.415 0-.764.083-1.047.249a1.832 1.832 0 0 0-.667.659 3.081 3.081 0 0 0-.351.916 4.987 4.987 0 0 0-.103 1.018v.307c0 .347.034.689.103 1.026.068.337.183.642.344.915.166.274.388.493.666.66.283.161.635.241 1.055.241Zm6.152-6.958V213h-1.355v-7.925h1.355Zm5.201 0-3.758 4.541h-1.897l-.205-1.186h1.553l2.659-3.355h1.648ZM279.813 213l-2.915-3.589.872-.981 3.764 4.57h-1.721Zm-134.128-42.664h1.369l3.494 8.694 3.486-8.694h1.377L151.075 181h-1.069l-4.321-10.664Zm-.447 0h1.208l.198 6.504V181h-1.406v-10.664Zm9.404 0h1.209V181h-1.407v-4.16l.198-6.504Zm8.159 9.309v-4.08c0-.312-.063-.583-.19-.813a1.249 1.249 0 0 0-.557-.542c-.249-.127-.556-.19-.923-.19-.341 0-.642.059-.901.176a1.571 1.571 0 0 0-.6.461 1.011 1.011 0 0 0-.213.615h-1.355c0-.283.074-.564.22-.842.147-.278.357-.53.63-.754.278-.23.61-.41.996-.542a3.92 3.92 0 0 1 1.304-.205c.576 0 1.084.097 1.523.293.445.195.791.49 1.04.886.254.391.381.881.381 1.472v3.691c0 .264.022.545.066.843.049.298.12.554.213.769V181h-1.414a2.544 2.544 0 0 1-.161-.623 5.016 5.016 0 0 1-.059-.732Zm.235-3.45.014.952h-1.369c-.386 0-.73.032-1.033.096a2.348 2.348 0 0 0-.762.271 1.297 1.297 0 0 0-.469.461 1.228 1.228 0 0 0-.161.637c0 .249.056.476.169.681.112.206.281.369.505.491.23.117.51.176.842.176.416 0 .782-.088 1.099-.264.317-.175.569-.39.754-.644.191-.254.293-.501.308-.74l.579.652a1.954 1.954 0 0 1-.279.681 3.303 3.303 0 0 1-1.501 1.282 2.921 2.921 0 0 1-1.157.219c-.537 0-1.009-.104-1.414-.314-.4-.21-.713-.491-.937-.843a2.226 2.226 0 0 1-.33-1.194c0-.424.083-.798.249-1.12.166-.327.405-.598.718-.813a3.39 3.39 0 0 1 1.128-.498c.439-.113.93-.169 1.472-.169h1.575Zm4.724-3.12V181h-1.355v-7.925h1.355Zm5.2 0-3.757 4.541h-1.897l-.205-1.186h1.552l2.659-3.355h1.648ZM171.502 181l-2.915-3.589.872-.981 3.765 4.57h-1.722Zm7.574-1.355v-4.08c0-.312-.064-.583-.191-.813a1.247 1.247 0 0 0-.556-.542c-.249-.127-.557-.19-.923-.19-.342 0-.642.059-.901.176a1.575 1.575 0 0 0-.601.461 1.017 1.017 0 0 0-.212.615h-1.355c0-.283.073-.564.22-.842.146-.278.356-.53.63-.754.278-.23.61-.41.996-.542.39-.137.825-.205 1.303-.205.576 0 1.084.097 1.524.293.444.195.791.49 1.04.886.254.391.381.881.381 1.472v3.691c0 .264.022.545.066.843.048.298.119.554.212.769V181h-1.414a2.544 2.544 0 0 1-.161-.623 5.008 5.008 0 0 1-.058-.732Zm.234-3.45.015.952h-1.37c-.386 0-.73.032-1.033.096a2.35 2.35 0 0 0-.761.271 1.289 1.289 0 0 0-.469.461 1.218 1.218 0 0 0-.161.637c0 .249.056.476.168.681.113.206.281.369.506.491.229.117.51.176.842.176a2.282 2.282 0 0 0 1.853-.908c.19-.254.293-.501.308-.74l.578.652a1.97 1.97 0 0 1-.278.681 3.286 3.286 0 0 1-1.502 1.282 2.915 2.915 0 0 1-1.157.219c-.537 0-1.008-.104-1.413-.314a2.415 2.415 0 0 1-.938-.843 2.226 2.226 0 0 1-.33-1.194c0-.424.083-.798.249-1.12a2.17 2.17 0 0 1 .718-.813c.313-.22.689-.386 1.128-.498.44-.113.93-.169 1.472-.169h1.575Zm4.607-1.596v9.448h-1.362v-10.972h1.245l.117 1.524Zm5.339 2.373v.153a5.97 5.97 0 0 1-.205 1.604 3.934 3.934 0 0 1-.6 1.275 2.735 2.735 0 0 1-.96.842c-.381.2-.818.3-1.311.3-.503 0-.947-.083-1.333-.249a2.614 2.614 0 0 1-.981-.725 3.69 3.69 0 0 1-.645-1.142 6.657 6.657 0 0 1-.322-1.502v-.82a6.87 6.87 0 0 1 .33-1.575c.161-.464.373-.859.637-1.186.268-.332.593-.584.974-.755.381-.175.82-.263 1.318-.263.498 0 .94.097 1.326.293.386.19.71.464.974.82.264.356.461.784.593 1.282a6.15 6.15 0 0 1 .205 1.648Zm-1.362.153v-.153c0-.396-.041-.767-.124-1.114a2.804 2.804 0 0 0-.389-.922 1.84 1.84 0 0 0-.659-.63c-.268-.157-.588-.235-.959-.235-.342 0-.64.059-.894.176a1.934 1.934 0 0 0-.637.476c-.176.195-.32.42-.432.674a3.86 3.86 0 0 0-.242.776v1.897c.098.342.234.664.41.967.176.298.41.54.703.725.293.181.662.271 1.106.271.367 0 .681-.075.945-.227.269-.156.488-.368.659-.637.176-.269.306-.576.389-.923.083-.351.124-.725.124-1.121Zm2.732 0v-.168c0-.571.083-1.101.249-1.589.166-.493.405-.921.718-1.282a3.213 3.213 0 0 1 1.135-.85 3.523 3.523 0 0 1 1.494-.307c.557 0 1.057.102 1.502.307.449.201.83.484 1.142.85a3.7 3.7 0 0 1 .725 1.282c.166.488.249 1.018.249 1.589v.168c0 .572-.083 1.102-.249 1.59a3.803 3.803 0 0 1-.725 1.282 3.321 3.321 0 0 1-1.135.849c-.439.2-.938.3-1.494.3-.557 0-1.057-.1-1.502-.3a3.396 3.396 0 0 1-1.142-.849 3.875 3.875 0 0 1-.718-1.282 4.908 4.908 0 0 1-.249-1.59Zm1.355-.168v.168c0 .396.046.77.139 1.121.093.347.232.654.418.923.19.269.427.481.71.637.283.152.613.227.989.227a2 2 0 0 0 .974-.227c.283-.156.518-.368.703-.637.186-.269.325-.576.418-.923.097-.351.146-.725.146-1.121v-.168c0-.391-.049-.759-.146-1.106a2.861 2.861 0 0 0-.425-.93 2.027 2.027 0 0 0-.703-.645 1.979 1.979 0 0 0-.982-.234c-.371 0-.698.078-.981.234a2.1 2.1 0 0 0-.703.645 2.936 2.936 0 0 0-.418.93 4.253 4.253 0 0 0-.139 1.106Zm11.279.557h-2.6l-.014-1.084h2.124c.419 0 .769-.042 1.047-.125.283-.083.495-.207.637-.373a.914.914 0 0 0 .213-.616.97.97 0 0 0-.125-.498.91.91 0 0 0-.359-.359 1.784 1.784 0 0 0-.6-.212 4.102 4.102 0 0 0-.828-.073h-1.736V181h-1.355v-7.925h3.091c.503 0 .954.044 1.355.132.405.088.749.222 1.033.403.288.176.507.4.659.674.151.273.227.595.227.966a1.624 1.624 0 0 1-.579 1.253 2.33 2.33 0 0 1-.703.41 3.589 3.589 0 0 1-.959.198l-.528.403Zm0 3.486h-3.091l.674-1.099h2.417c.376 0 .689-.046.938-.139.249-.097.434-.234.556-.41.127-.181.191-.395.191-.644 0-.25-.064-.462-.191-.638a1.118 1.118 0 0 0-.556-.41c-.249-.098-.562-.146-.938-.146h-2.058l.015-1.084h2.571l.49.41c.435.034.804.141 1.106.322.303.181.533.41.689.689.156.273.234.571.234.893 0 .371-.071.698-.212.982-.137.283-.337.52-.601.71a2.932 2.932 0 0 1-.959.425 5.325 5.325 0 0 1-1.275.139Zm-72.221 41.012h-2.703l-.014-1.135h2.453c.406 0 .76-.068 1.062-.205.303-.137.538-.332.704-.586.17-.259.256-.566.256-.923 0-.391-.076-.708-.227-.952a1.258 1.258 0 0 0-.681-.542c-.303-.117-.689-.176-1.158-.176h-2.08V227h-1.413v-10.664h3.493c.547 0 1.036.056 1.465.168.43.108.794.279 1.092.513.302.23.532.523.688.879.156.356.234.784.234 1.282a2.2 2.2 0 0 1-.336 1.194 2.604 2.604 0 0 1-.938.864c-.395.224-.859.368-1.392.432l-.505.344Zm-.066 4.988h-3.193l.798-1.15h2.395c.449 0 .83-.078 1.143-.234.317-.157.559-.376.725-.659.166-.289.249-.628.249-1.019 0-.395-.071-.737-.213-1.025a1.461 1.461 0 0 0-.666-.666c-.303-.157-.693-.235-1.172-.235h-2.014l.015-1.135h2.753l.301.41c.512.044.947.191 1.303.44.357.244.628.556.813.937.191.381.286.801.286 1.26 0 .664-.146 1.225-.439 1.684a2.752 2.752 0 0 1-1.224 1.04c-.527.235-1.147.352-1.86.352Zm8.364-3.787h-1.457v-.835h1.348c.376 0 .673-.046.893-.139a.94.94 0 0 0 .469-.403c.093-.17.139-.371.139-.6a1.12 1.12 0 0 0-.161-.579 1.107 1.107 0 0 0-.498-.447c-.23-.117-.537-.175-.923-.175-.313 0-.596.056-.85.168a1.514 1.514 0 0 0-.608.447.99.99 0 0 0-.219.63h-1.355c0-.484.136-.899.41-1.245a2.685 2.685 0 0 1 1.106-.813 3.943 3.943 0 0 1 1.516-.286c.459 0 .869.051 1.23.154.367.098.677.244.931.439.254.191.446.43.578.718.137.283.205.613.205.989 0 .268-.063.522-.19.762-.127.239-.31.451-.549.637-.24.18-.53.322-.872.425a3.943 3.943 0 0 1-1.143.153Zm-1.457-.512h1.457c.474 0 .892.046 1.253.139a2.6 2.6 0 0 1 .908.395c.244.176.427.393.549.652.127.254.191.547.191.879 0 .371-.076.706-.227 1.004a2.117 2.117 0 0 1-.63.747 2.954 2.954 0 0 1-.982.468 4.527 4.527 0 0 1-1.252.161 4.33 4.33 0 0 1-1.494-.263 2.787 2.787 0 0 1-1.194-.813c-.313-.371-.469-.842-.469-1.414h1.355c0 .24.076.467.227.681.152.215.362.389.63.52.274.132.589.198.945.198.381 0 .698-.058.952-.176.254-.117.444-.273.571-.468.132-.196.198-.408.198-.638 0-.297-.058-.537-.176-.717a.998.998 0 0 0-.542-.396c-.239-.088-.546-.132-.922-.132h-1.348v-.827Zm10.671 2.497 2.696-6.123h1.303L149.02 227h-.937l-3.516-7.925h1.304l2.68 6.123Zm-3.076-6.123V227h-1.355v-7.925h1.355Zm6.108 7.925v-7.925h1.363V227h-1.363Zm3.187-3.875v-.168c0-.571.083-1.101.249-1.589.166-.493.405-.921.717-1.282a3.217 3.217 0 0 1 1.136-.85 3.523 3.523 0 0 1 1.494-.307c.556 0 1.057.102 1.501.307.449.201.83.484 1.143.85.317.361.559.789.725 1.282.166.488.249 1.018.249 1.589v.168c0 .572-.083 1.102-.249 1.59a3.82 3.82 0 0 1-.725 1.282 3.33 3.33 0 0 1-1.135.849c-.44.2-.938.3-1.495.3-.556 0-1.057-.1-1.501-.3a3.41 3.41 0 0 1-1.143-.849 3.89 3.89 0 0 1-.717-1.282 4.908 4.908 0 0 1-.249-1.59Zm1.355-.168v.168c0 .396.046.77.139 1.121.092.347.232.654.417.923.191.269.427.481.711.637.283.152.612.227.988.227a2 2 0 0 0 .974-.227c.284-.156.518-.368.704-.637.185-.269.324-.576.417-.923.098-.351.147-.725.147-1.121v-.168c0-.391-.049-.759-.147-1.106a2.84 2.84 0 0 0-.425-.93 2.019 2.019 0 0 0-.703-.645 1.972 1.972 0 0 0-.981-.234c-.371 0-.699.078-.982.234a2.119 2.119 0 0 0-.703.645 2.934 2.934 0 0 0-.417.93 4.253 4.253 0 0 0-.139 1.106Zm8.913-2.358v9.448h-1.362v-10.972h1.245l.117 1.524Zm5.339 2.373v.153a5.97 5.97 0 0 1-.205 1.604 3.934 3.934 0 0 1-.6 1.275 2.735 2.735 0 0 1-.96.842c-.381.2-.818.3-1.311.3-.503 0-.947-.083-1.333-.249a2.622 2.622 0 0 1-.981-.725 3.69 3.69 0 0 1-.645-1.142 6.657 6.657 0 0 1-.322-1.502v-.82a6.87 6.87 0 0 1 .33-1.575c.161-.464.373-.859.637-1.186.268-.332.593-.584.974-.755.381-.175.82-.263 1.318-.263.498 0 .94.097 1.326.293.386.19.71.464.974.82.264.356.462.784.593 1.282a6.15 6.15 0 0 1 .205 1.648Zm-1.362.153v-.153c0-.396-.041-.767-.124-1.114a2.804 2.804 0 0 0-.389-.922 1.831 1.831 0 0 0-1.618-.865c-.342 0-.64.059-.894.176a1.934 1.934 0 0 0-.637.476c-.176.195-.32.42-.432.674a3.86 3.86 0 0 0-.242.776v1.897c.098.342.235.664.41.967.176.298.411.54.703.725.293.181.662.271 1.106.271.367 0 .682-.075.945-.227.269-.156.489-.368.659-.637.176-.269.306-.576.389-.923.083-.351.124-.725.124-1.121Zm4.204-1.325h2.381c.639 0 1.179.112 1.618.337.44.219.772.525.996.915.23.386.345.825.345 1.319 0 .366-.064.71-.191 1.032a2.31 2.31 0 0 1-.571.835c-.249.24-.559.428-.93.564a3.733 3.733 0 0 1-1.267.198h-3.37v-7.925h1.355v6.812h2.015c.39 0 .703-.071.937-.213.234-.141.403-.324.505-.549a1.669 1.669 0 0 0 0-1.406 1.316 1.316 0 0 0-.505-.572c-.234-.156-.547-.234-.937-.234h-2.381V221.8Zm10.32 5.346a3.886 3.886 0 0 1-1.501-.278 3.386 3.386 0 0 1-1.15-.798 3.545 3.545 0 0 1-.733-1.216 4.456 4.456 0 0 1-.256-1.538v-.308c0-.644.095-1.218.286-1.721.19-.508.449-.937.776-1.289a3.307 3.307 0 0 1 1.113-.798 3.193 3.193 0 0 1 1.289-.271c.567 0 1.055.097 1.465.293.415.195.755.468 1.018.82.264.347.459.757.586 1.23.127.469.191.982.191 1.539v.607h-5.918v-1.106h4.563v-.102a3.387 3.387 0 0 0-.22-1.025 1.85 1.85 0 0 0-.586-.821c-.269-.215-.635-.322-1.099-.322a1.84 1.84 0 0 0-1.516.769 2.9 2.9 0 0 0-.432.93 4.697 4.697 0 0 0-.154 1.267v.308c0 .376.051.73.154 1.062.107.327.261.615.461.864.206.249.452.445.74.586.293.142.625.213.996.213.479 0 .884-.098 1.216-.293.332-.196.623-.457.872-.784l.82.652a3.765 3.765 0 0 1-.652.739 3.11 3.11 0 0 1-.974.572c-.381.146-.832.219-1.355.219ZM64.624 208.85V210h-8.071v-1.15h8.071Zm-7.844 0v3.772h-1.4l-.007-3.772h1.407Zm9.075 0-.015 3.765h-1.4v-3.765h1.415Zm-2.615-9.514v1.157h-4.673v-1.157h4.673Zm1.216 0V210h-1.407v-10.664h1.407Zm-6.373 0h1.414l-.22 4.292c-.029.644-.09 1.24-.183 1.787a12.157 12.157 0 0 1-.344 1.487 7.983 7.983 0 0 1-.469 1.208 5.541 5.541 0 0 1-.564.916c-.2.254-.41.464-.63.63a2.154 2.154 0 0 1-.652.344h-.644v-1.15h.454a4 4 0 0 0 .432-.593c.166-.259.33-.593.491-1.004.166-.415.31-.92.432-1.516a13.84 13.84 0 0 0 .256-2.109l.227-4.292Zm8.87 6.789v-.168c0-.571.083-1.101.25-1.589a3.75 3.75 0 0 1 .717-1.282c.312-.366.69-.649 1.135-.85a3.525 3.525 0 0 1 1.494-.307c.557 0 1.057.102 1.502.307a3.2 3.2 0 0 1 1.142.85c.318.361.56.789.725 1.282.166.488.25 1.018.25 1.589v.168c0 .572-.084 1.102-.25 1.59a3.817 3.817 0 0 1-.725 1.282 3.324 3.324 0 0 1-1.135.849c-.44.2-.937.3-1.494.3a3.62 3.62 0 0 1-1.501-.3 3.4 3.4 0 0 1-1.143-.849 3.885 3.885 0 0 1-.718-1.282 4.908 4.908 0 0 1-.249-1.59Zm1.355-.168v.168c0 .396.046.77.14 1.121.092.347.231.654.417.923.19.269.427.481.71.637.283.152.613.227.989.227a2 2 0 0 0 .974-.227c.283-.156.518-.368.703-.637.186-.269.325-.576.418-.923a4.17 4.17 0 0 0 .146-1.121v-.168c0-.391-.049-.759-.146-1.106a2.848 2.848 0 0 0-.425-.93 2.022 2.022 0 0 0-.703-.645 1.975 1.975 0 0 0-.982-.234 2 2 0 0 0-.981.234 2.112 2.112 0 0 0-.703.645 2.94 2.94 0 0 0-.418.93 4.253 4.253 0 0 0-.139 1.106Zm12.737-3.882v1.121h-3.83v-1.121h3.83Zm1.194 0V210h-1.355v-7.925h1.355Zm-5.354 0h1.362l-.205 3.823c-.034.591-.09 1.114-.168 1.568a5.339 5.339 0 0 1-.308 1.157 2.416 2.416 0 0 1-.484.791c-.19.2-.42.349-.688.447a2.84 2.84 0 0 1-.93.139h-.425v-1.194l.293-.022c.21-.014.388-.063.535-.146a1.04 1.04 0 0 0 .38-.367 2.22 2.22 0 0 0 .25-.637 5.75 5.75 0 0 0 .153-.923c.04-.356.069-.771.088-1.245l.147-3.391Zm9.001 5.779 3.655-5.779h1.362V210h-1.362v-5.779L85.886 210H84.54v-7.925h1.347v5.779Zm12.569-2.344v1.099h-4.19v-1.099h4.19Zm-3.904-3.435V210h-1.355v-7.925h1.355Zm5.002 0V210h-1.362v-7.925h1.362Zm5.354 6.958c.322 0 .62-.066.894-.198.273-.131.498-.312.674-.542.175-.234.275-.5.3-.798h1.289a2.411 2.411 0 0 1-.476 1.311 3.249 3.249 0 0 1-1.135.974 3.298 3.298 0 0 1-1.546.366c-.595 0-1.115-.104-1.56-.314a3.099 3.099 0 0 1-1.098-.865 3.835 3.835 0 0 1-.652-1.259 5.307 5.307 0 0 1-.213-1.517v-.307c0-.532.071-1.035.213-1.509.146-.479.363-.901.652-1.267a3.096 3.096 0 0 1 1.098-.864c.445-.21.965-.315 1.56-.315.62 0 1.162.127 1.626.381.464.249.828.59 1.092 1.025.268.43.415.918.439 1.465h-1.289a1.957 1.957 0 0 0-.278-.886 1.741 1.741 0 0 0-.645-.63 1.803 1.803 0 0 0-.945-.242c-.415 0-.764.083-1.047.249a1.84 1.84 0 0 0-.667.659 3.081 3.081 0 0 0-.351.916 4.987 4.987 0 0 0-.103 1.018v.307c0 .347.034.689.103 1.026.068.337.183.642.344.915.166.274.388.493.667.66.283.161.634.241 1.054.241Zm6.153-6.958V210h-1.355v-7.925h1.355Zm5.2 0-3.758 4.541h-1.897l-.205-1.186h1.553l2.659-3.355h1.648ZM114.802 210l-2.915-3.589.872-.981 3.764 4.57h-1.721Zm166.646-88.668v.673c0 .801-.1 1.519-.3 2.154-.2.634-.488 1.174-.864 1.618a3.74 3.74 0 0 1-1.355 1.018c-.523.235-1.109.352-1.758.352-.63 0-1.209-.117-1.736-.352a3.886 3.886 0 0 1-1.362-1.018 4.725 4.725 0 0 1-.886-1.618c-.21-.635-.315-1.353-.315-2.154v-.673c0-.801.102-1.517.307-2.146.21-.635.506-1.175.886-1.619a3.799 3.799 0 0 1 1.355-1.025 4.219 4.219 0 0 1 1.736-.352c.65 0 1.236.117 1.758.352.527.234.979.576 1.355 1.025.381.444.671.984.872 1.619.205.629.307 1.345.307 2.146Zm-1.399.673v-.688a6.53 6.53 0 0 0-.197-1.685c-.127-.488-.315-.898-.564-1.23a2.44 2.44 0 0 0-.916-.755 2.79 2.79 0 0 0-1.216-.256c-.439 0-.837.086-1.194.256a2.536 2.536 0 0 0-.908.755c-.249.332-.442.742-.578 1.23-.137.489-.205 1.05-.205 1.685v.688c0 .64.068 1.206.205 1.7.136.488.332.9.586 1.237.258.332.563.584.915.755.356.171.754.256 1.194.256.459 0 .867-.085 1.223-.256.356-.171.657-.423.901-.755.249-.337.437-.749.564-1.237.127-.494.19-1.06.19-1.7Zm8.687.506v1.098h-4.19v-1.098h4.19Zm-3.904-3.435V127h-1.355v-7.924h1.355Zm5.002 0V127h-1.362v-7.924h1.362Zm1.824 4.05v-.168c0-.572.083-1.102.249-1.59.166-.493.405-.92.718-1.282a3.208 3.208 0 0 1 1.135-.849 3.53 3.53 0 0 1 1.494-.308c.557 0 1.058.103 1.502.308.449.2.83.483 1.142.849.318.362.56.789.726 1.282.166.488.249 1.018.249 1.59v.168c0 .571-.083 1.101-.249 1.589a3.786 3.786 0 0 1-.726 1.282c-.312.361-.69.645-1.135.85-.439.2-.937.3-1.494.3-.557 0-1.057-.1-1.501-.3a3.393 3.393 0 0 1-1.143-.85 3.855 3.855 0 0 1-.718-1.282 4.906 4.906 0 0 1-.249-1.589Zm1.355-.168v.168c0 .395.047.769.139 1.121.093.346.232.654.418.922.19.269.427.481.71.638.283.151.613.227.989.227.371 0 .696-.076.974-.227.283-.157.518-.369.703-.638.186-.268.325-.576.418-.922.097-.352.146-.726.146-1.121v-.168c0-.391-.049-.76-.146-1.106a2.866 2.866 0 0 0-.425-.931 2.024 2.024 0 0 0-.703-.644 1.976 1.976 0 0 0-.982-.235 2 2 0 0 0-.981.235 2.106 2.106 0 0 0-.703.644 2.941 2.941 0 0 0-.418.931 4.29 4.29 0 0 0-.139 1.106Zm8.914-2.359v9.448h-1.363v-10.971h1.246l.117 1.523Zm5.339 2.373v.154c0 .576-.068 1.111-.205 1.604a3.94 3.94 0 0 1-.601 1.274 2.726 2.726 0 0 1-.959.843c-.381.2-.818.3-1.311.3-.503 0-.947-.083-1.333-.249a2.636 2.636 0 0 1-.982-.725 3.713 3.713 0 0 1-.644-1.143 6.594 6.594 0 0 1-.322-1.501v-.821c.058-.585.168-1.11.329-1.574.161-.464.374-.86.637-1.187.269-.332.594-.583.975-.754.38-.176.82-.264 1.318-.264.498 0 .94.098 1.326.293.385.191.71.464.974.82.263.357.461.784.593 1.282.137.493.205 1.043.205 1.648Zm-1.362.154v-.154c0-.395-.042-.766-.125-1.113a2.808 2.808 0 0 0-.388-.923 1.856 1.856 0 0 0-.659-.63c-.269-.156-.588-.234-.96-.234-.341 0-.639.058-.893.176a1.91 1.91 0 0 0-.637.476c-.176.195-.32.42-.432.673a3.85 3.85 0 0 0-.242.777v1.897c.098.342.234.664.41.967.176.297.41.539.703.725.293.18.662.271 1.106.271.366 0 .681-.076.945-.227.268-.157.488-.369.659-.638.176-.268.305-.576.388-.922.083-.352.125-.726.125-1.121Z" fill="#fff"/></svg>