<svg width="625" height="325" fill="none" xmlns="http://www.w3.org/2000/svg"><path d="M258.112 299.874c-.069 1.575 1.523 1.25 2.328.891 4.296.977-1.886 7.017-1.868 6.623.017-.393-4.075 2.977-5.291 3.712-.972.589-2.256 6.475-2.776 9.345-.309 1.038-1.717 3.159-4.88 3.336-3.163.177-2.789-2.358-2.206-3.647 1.57-2.824 4.481-8.639 3.563-9.31-1.146-.839.087-1.968.156-3.543.055-1.26 2.122-.433 3.149.138.143-.256.439-1.006.48-1.951.042-.945 3.452-.769 5.153-.563.759-2.333 2.262-6.606 2.192-5.031ZM229.64 319.53c-.945-.042-.804-2.665-.615-3.972l-1.129-1.233c-.805.36-2.503 1.311-2.859 2.242-.446 1.163-3.063-2.107-2.38.29.547 1.917-.149 3.411-.566 3.919.77.428 2.461 1.449 3.063 2.107.753.821 5.667-3.302 4.486-3.353Zm6.696-8.779c.204 2.534 1.123 1.364 1.557.463 2.219-.218 1.94.743 1.523 1.25-1.318.074-3.899.776-3.681 2.994.218 2.219-1.017 2.191-1.661 1.899-.263-.011-1.096-.205-2.328-.89-1.232-.686-.135-2.899.567-3.92l2.124-3.457c.548-.501 1.694-.872 1.899 1.661Zm4.589-5.715c1.603-.56.486-2.082-.272-2.773-1.561-.384-2.808 1.06-3.236 1.83.502.548 1.906 1.504 3.508.943Z" fill="#191C20"/><path d="m535.449 12.755 3.384-8.552h1.951l-4.526 10.661a9.317 9.317 0 0 1-.431.87 3.21 3.21 0 0 1-.58.739c-.228.216-.513.39-.852.518-.334.13-.75.194-1.249.194a5.62 5.62 0 0 1-.5-.027 2.097 2.097 0 0 1-.378-.044l.052-1.353c.065.012.191.023.378.035.188.006.325.009.413.009.334 0 .598-.068.791-.203.194-.134.349-.304.466-.51.123-.21.235-.424.334-.64l.747-1.697Zm-2.874-8.552 3.56 7.972.422 1.573-1.424.106-4.456-9.65h1.898Zm15.232 3.287v1.345h-4.395V17h-1.626V7.49h6.021Zm7.418 0v1.345h-4.597V7.49h4.597Zm1.432 0V17h-1.626V7.49h1.626Zm-6.425 0h1.635l-.246 4.588a16.935 16.935 0 0 1-.202 1.881 6.439 6.439 0 0 1-.369 1.389 2.915 2.915 0 0 1-.58.949 2.13 2.13 0 0 1-.826.536 3.423 3.423 0 0 1-1.117.167h-.509v-1.433l.351-.026c.252-.018.466-.076.642-.176.181-.1.334-.246.457-.44.123-.198.222-.453.299-.764.082-.31.143-.68.184-1.107.047-.428.082-.926.106-1.494l.175-4.07Zm12.991 9.686a4.678 4.678 0 0 1-1.802-.334 4.09 4.09 0 0 1-1.38-.958 4.259 4.259 0 0 1-.879-1.46 5.353 5.353 0 0 1-.308-1.845v-.369c0-.774.115-1.462.343-2.066a4.623 4.623 0 0 1 .932-1.546 3.986 3.986 0 0 1 1.336-.958 3.838 3.838 0 0 1 1.547-.326c.679 0 1.265.118 1.758.352a3.2 3.2 0 0 1 1.221.984c.317.416.551.909.703 1.477.153.563.229 1.178.229 1.846v.73h-7.102v-1.328h5.476v-.123a4.053 4.053 0 0 0-.264-1.23 2.21 2.21 0 0 0-.703-.985c-.322-.258-.762-.387-1.318-.387a2.217 2.217 0 0 0-1.82.923 3.464 3.464 0 0 0-.518 1.117 5.653 5.653 0 0 0-.185 1.52v.37c0 .45.062.875.185 1.274.129.392.313.738.554 1.037.246.299.542.533.887.703.352.17.75.255 1.196.255.574 0 1.06-.118 1.459-.352a3.605 3.605 0 0 0 1.045-.94l.985.782c-.205.31-.466.606-.782.888a3.74 3.74 0 0 1-1.169.685c-.457.176-.999.264-1.626.264Zm11.742-9.686v1.345h-4.395V17h-1.626V7.49h6.021Zm.808 4.86v-.202c0-.685.1-1.32.299-1.907a4.53 4.53 0 0 1 .862-1.538c.375-.44.829-.78 1.362-1.02a4.245 4.245 0 0 1 1.793-.369c.668 0 1.268.123 1.802.37.539.24.996.58 1.371 1.02.381.433.671.945.87 1.537.199.586.299 1.222.299 1.907v.203a5.9 5.9 0 0 1-.299 1.907 4.557 4.557 0 0 1-.87 1.538 3.981 3.981 0 0 1-1.363 1.02c-.527.24-1.125.36-1.793.36-.668 0-1.268-.12-1.801-.36a4.06 4.06 0 0 1-1.371-1.02 4.643 4.643 0 0 1-.862-1.538 5.895 5.895 0 0 1-.299-1.907Zm1.626-.202v.203c0 .474.056.922.167 1.344.112.416.279.785.501 1.108.229.322.513.577.853.764.34.182.735.273 1.186.273.446 0 .835-.091 1.169-.273.34-.187.621-.442.844-.764.223-.323.39-.692.501-1.108a5.01 5.01 0 0 0 .176-1.344v-.203c0-.468-.059-.91-.176-1.327a3.4 3.4 0 0 0-.51-1.116 2.422 2.422 0 0 0-.843-.773c-.334-.188-.727-.282-1.178-.282a2.4 2.4 0 0 0-1.178.282 2.534 2.534 0 0 0-.844.773 3.558 3.558 0 0 0-.501 1.116 5.13 5.13 0 0 0-.167 1.327Zm10.697-2.83v11.338h-1.635V7.49h1.494l.141 1.828Zm6.407 2.848v.185c0 .691-.082 1.333-.246 1.924a4.72 4.72 0 0 1-.721 1.53c-.31.433-.694.77-1.151 1.01-.457.24-.982.36-1.573.36-.604 0-1.137-.099-1.6-.298a3.17 3.17 0 0 1-1.178-.87 4.441 4.441 0 0 1-.773-1.371 7.89 7.89 0 0 1-.387-1.802v-.984c.07-.704.202-1.333.396-1.89a4.708 4.708 0 0 1 .764-1.424 3.14 3.14 0 0 1 1.169-.905c.457-.211.985-.317 1.582-.317.598 0 1.128.118 1.591.352.463.229.853.557 1.169.984.316.428.554.94.712 1.538a7.4 7.4 0 0 1 .246 1.978Zm-1.635.185v-.185c0-.475-.05-.92-.149-1.336a3.383 3.383 0 0 0-.466-1.107 2.22 2.22 0 0 0-.791-.756c-.322-.188-.706-.281-1.151-.281-.411 0-.768.07-1.073.21a2.325 2.325 0 0 0-.764.572 3.037 3.037 0 0 0-.519.808c-.129.3-.226.61-.29.932v2.276c.117.41.281.797.492 1.16.211.358.492.648.844.87.352.217.794.326 1.327.326.44 0 .818-.091 1.134-.273.322-.187.586-.442.791-.764.211-.323.366-.692.466-1.108a5.87 5.87 0 0 0 .149-1.344Zm7.515 3.489c.387 0 .744-.08 1.072-.238.328-.158.598-.375.809-.65.211-.281.331-.6.36-.958h1.547a2.902 2.902 0 0 1-.571 1.573 3.9 3.9 0 0 1-1.363 1.17 3.95 3.95 0 0 1-1.854.439c-.715 0-1.339-.126-1.872-.378a3.711 3.711 0 0 1-1.319-1.037 4.65 4.65 0 0 1-.782-1.512 6.376 6.376 0 0 1-.255-1.82v-.369c0-.638.085-1.242.255-1.81a4.637 4.637 0 0 1 .782-1.52c.352-.44.791-.786 1.319-1.038.533-.252 1.157-.378 1.872-.378.744 0 1.394.153 1.951.457.557.3.993.71 1.31 1.231.322.516.498 1.101.527 1.758h-1.547a2.343 2.343 0 0 0-.334-1.064 2.078 2.078 0 0 0-.773-.756 2.169 2.169 0 0 0-1.134-.29c-.498 0-.917.1-1.257.3a2.201 2.201 0 0 0-.8.79 3.706 3.706 0 0 0-.422 1.099 6.044 6.044 0 0 0-.123 1.221v.37c0 .416.041.826.123 1.23.082.405.22.77.413 1.099.2.328.466.592.8.79.34.194.762.29 1.266.29Zm7.383-8.35V17h-1.626V7.49h1.626Zm6.24 0-4.509 5.45h-2.276l-.246-1.424h1.863l3.19-4.026h1.978ZM612.257 17l-3.498-4.307 1.046-1.177L614.322 17h-2.065Zm-68.71 38.203h1.705V66.62h4.394V55.203h1.688V66.62h4.368V55.203h1.696V68h-13.851V55.203Zm22.245 11.171v-4.895c0-.376-.076-.7-.229-.976a1.496 1.496 0 0 0-.667-.65c-.299-.153-.668-.229-1.108-.229-.41 0-.77.07-1.081.211-.305.14-.545.325-.721.554a1.21 1.21 0 0 0-.255.738h-1.626c0-.34.088-.677.264-1.01.176-.335.428-.636.756-.906a3.778 3.778 0 0 1 1.195-.65 4.719 4.719 0 0 1 1.565-.246c.691 0 1.301.117 1.828.351a2.74 2.74 0 0 1 1.248 1.064c.305.468.457 1.057.457 1.766v4.43c0 .316.026.653.079 1.01.059.358.144.666.255.923V68h-1.696a3.041 3.041 0 0 1-.194-.747 6.004 6.004 0 0 1-.07-.879Zm.281-4.14.018 1.143h-1.644a6.08 6.08 0 0 0-1.239.114 2.84 2.84 0 0 0-.914.325 1.55 1.55 0 0 0-.563.554 1.477 1.477 0 0 0-.193.765c0 .299.067.571.202.817s.337.442.607.589c.275.14.612.211 1.01.211.498 0 .938-.105 1.319-.316.381-.211.682-.47.905-.774.229-.305.352-.6.369-.888l.695.783c-.041.246-.153.518-.334.817a3.938 3.938 0 0 1-1.802 1.538 3.49 3.49 0 0 1-1.389.264c-.644 0-1.21-.126-1.696-.378a2.893 2.893 0 0 1-1.125-1.01 2.673 2.673 0 0 1-.396-1.433c0-.51.1-.959.299-1.345.199-.393.486-.718.861-.976a4.098 4.098 0 0 1 1.354-.597 7.141 7.141 0 0 1 1.767-.203h1.889Zm5.001-3.744 2.083 3.463 2.11-3.463h1.907l-3.112 4.694L577.271 68h-1.881l-2.198-3.568L570.995 68h-1.89l3.2-4.816-3.103-4.694h1.872Zm11.707 0V68h-1.635v-9.51h1.635Zm3.191 0v1.319h-7.954V58.49h7.954Zm4.842 9.686a4.673 4.673 0 0 1-1.801-.334 4.08 4.08 0 0 1-1.38-.958 4.259 4.259 0 0 1-.879-1.46 5.353 5.353 0 0 1-.308-1.845v-.369c0-.773.115-1.462.343-2.066a4.623 4.623 0 0 1 .932-1.546 3.986 3.986 0 0 1 1.336-.958 3.836 3.836 0 0 1 1.547-.325c.679 0 1.265.117 1.757.351.498.234.906.563 1.222.984.316.416.551.909.703 1.477a7.06 7.06 0 0 1 .229 1.846v.73h-7.102v-1.328h5.476v-.123a4.083 4.083 0 0 0-.264-1.23 2.21 2.21 0 0 0-.703-.985c-.322-.258-.762-.387-1.318-.387a2.214 2.214 0 0 0-1.82.923 3.464 3.464 0 0 0-.518 1.117 5.653 5.653 0 0 0-.185 1.52v.37c0 .45.062.875.185 1.273.129.393.313.739.553 1.038.246.298.542.533.888.703.352.17.75.255 1.195.255.575 0 1.061-.118 1.459-.352a3.608 3.608 0 0 0 1.046-.94l.985.782c-.205.31-.466.606-.783.888-.316.28-.706.51-1.169.685-.457.176-.999.264-1.626.264Zm7.225-7.858v11.338h-1.635V58.49h1.494l.141 1.828Zm6.407 2.848v.185c0 .691-.082 1.333-.246 1.924a4.72 4.72 0 0 1-.721 1.53c-.31.433-.694.77-1.151 1.01-.457.24-.981.36-1.573.36-.604 0-1.137-.099-1.6-.298a3.15 3.15 0 0 1-1.177-.87 4.423 4.423 0 0 1-.774-1.371 7.999 7.999 0 0 1-.387-1.802v-.984a8.324 8.324 0 0 1 .396-1.89 4.688 4.688 0 0 1 .765-1.424c.322-.398.711-.7 1.168-.905.458-.211.985-.316 1.583-.316.597 0 1.127.117 1.59.351.463.229.853.557 1.169.984.317.428.554.94.712 1.538a7.4 7.4 0 0 1 .246 1.978Zm-1.634.185v-.185c0-.475-.05-.92-.15-1.336a3.382 3.382 0 0 0-.466-1.107 2.212 2.212 0 0 0-.791-.756c-.322-.188-.706-.282-1.151-.282-.41 0-.768.07-1.072.212a2.31 2.31 0 0 0-.765.57 3.036 3.036 0 0 0-.519.81 4.74 4.74 0 0 0-.29.931v2.276c.118.41.282.797.493 1.16.211.358.492.648.843.87.352.217.794.326 1.327.326.44 0 .818-.091 1.134-.273.323-.187.586-.442.791-.764.211-.322.366-.692.466-1.108.1-.422.15-.87.15-1.344Zm7.514 3.489c.387 0 .744-.08 1.072-.237.329-.159.598-.375.809-.65.211-.282.331-.601.36-.959h1.547a2.894 2.894 0 0 1-.571 1.573c-.346.48-.8.87-1.362 1.17a3.956 3.956 0 0 1-1.855.439c-.715 0-1.339-.126-1.872-.378a3.708 3.708 0 0 1-1.318-1.037 4.611 4.611 0 0 1-.782-1.512 6.376 6.376 0 0 1-.255-1.82v-.369c0-.638.085-1.242.255-1.81a4.598 4.598 0 0 1 .782-1.52c.351-.44.791-.786 1.318-1.038.533-.252 1.157-.377 1.872-.377.744 0 1.395.152 1.951.457a3.35 3.35 0 0 1 1.31 1.23c.322.516.498 1.101.527 1.758h-1.547a2.331 2.331 0 0 0-.334-1.064 2.078 2.078 0 0 0-.773-.756c-.322-.193-.7-.29-1.134-.29-.498 0-.917.1-1.257.3-.334.193-.6.456-.799.79a3.68 3.68 0 0 0-.422 1.099 6.044 6.044 0 0 0-.123 1.221v.37c0 .416.041.826.123 1.23.082.404.219.77.413 1.099.199.328.466.592.8.79.339.194.761.29 1.265.29Zm7.383-8.35V68h-1.626v-9.51h1.626Zm6.24 0-4.509 5.45h-2.276l-.246-1.424h1.863l3.191-4.026h1.977ZM622.2 68l-3.498-4.307 1.046-1.177L624.266 68H622.2ZM195.305 229.203V242h-1.697v-12.797h1.697Zm2.935 5.862v1.336h-3.041v-1.336h3.041Zm9.185.132v.809c0 .961-.12 1.822-.361 2.584-.24.762-.585 1.409-1.037 1.942a4.495 4.495 0 0 1-1.626 1.222c-.627.281-1.33.422-2.109.422-.756 0-1.45-.141-2.083-.422a4.685 4.685 0 0 1-1.635-1.222c-.457-.533-.811-1.18-1.063-1.942-.252-.762-.378-1.623-.378-2.584v-.809c0-.961.123-1.819.369-2.575.252-.762.606-1.409 1.063-1.942.457-.539.999-.95 1.626-1.231a5.079 5.079 0 0 1 2.083-.422c.78 0 1.483.141 2.11.422a4.453 4.453 0 0 1 1.626 1.231c.457.533.805 1.18 1.046 1.942.246.756.369 1.614.369 2.575Zm-1.679.809v-.826c0-.762-.079-1.436-.237-2.022-.153-.586-.378-1.078-.677-1.476a2.914 2.914 0 0 0-1.099-.906c-.427-.205-.914-.307-1.459-.307-.527 0-1.004.102-1.432.307a3.03 3.03 0 0 0-1.09.906c-.299.398-.53.89-.694 1.476-.164.586-.246 1.26-.246 2.022v.826c0 .767.082 1.447.246 2.039.164.586.398 1.081.703 1.485.31.399.677.7 1.098.906.428.205.906.307 1.433.307.551 0 1.04-.102 1.468-.307a2.87 2.87 0 0 0 1.081-.906c.299-.404.524-.899.677-1.485.152-.592.228-1.272.228-2.039Zm6.478 1.854-3.604-5.37h1.96l2.461 3.938h1.898l-.237 1.432h-2.478Zm.887-.167L210.352 242h-2.057l3.788-5.484 1.028 1.177Zm2.663-5.203V242h-1.626v-9.51h1.626Zm5.546 0-3.603 5.37h-2.479l-.255-1.432h1.908l2.461-3.938h1.968Zm-1.74 9.51-2.768-4.307 1.045-1.177 3.78 5.484h-2.057Zm10.011-5.388v1.319h-5.028v-1.319h5.028Zm-4.685-4.122V242h-1.626v-9.51h1.626Zm6.003 0V242h-1.635v-9.51h1.635Zm2.189 4.861v-.203c0-.685.099-1.321.298-1.907.2-.592.487-1.104.862-1.538a3.845 3.845 0 0 1 1.362-1.019 4.23 4.23 0 0 1 1.793-.37c.668 0 1.269.124 1.802.37.539.24.996.58 1.371 1.019.381.434.671.946.87 1.538.199.586.299 1.222.299 1.907v.203c0 .685-.1 1.321-.299 1.907a4.561 4.561 0 0 1-.87 1.538 3.992 3.992 0 0 1-1.362 1.019c-.528.241-1.125.361-1.793.361-.668 0-1.269-.12-1.802-.361a4.085 4.085 0 0 1-1.371-1.019 4.665 4.665 0 0 1-.862-1.538 5.896 5.896 0 0 1-.298-1.907Zm1.626-.203v.203c0 .474.055.922.167 1.344.111.416.278.785.501 1.108.228.322.512.577.852.764.34.182.735.273 1.187.273.445 0 .835-.091 1.169-.273a2.45 2.45 0 0 0 .843-.764c.223-.323.39-.692.501-1.108a4.97 4.97 0 0 0 .176-1.344v-.203c0-.468-.058-.911-.176-1.327a3.415 3.415 0 0 0-.509-1.116 2.42 2.42 0 0 0-.844-.773c-.334-.188-.727-.282-1.178-.282-.445 0-.838.094-1.178.282a2.516 2.516 0 0 0-.843.773 3.51 3.51 0 0 0-.501 1.116 5.09 5.09 0 0 0-.167 1.327Zm12.454-1.256v1.336h-4.289v-1.336h4.289Zm9.562 2.039h1.688a5.39 5.39 0 0 1-.695 2.171 4.064 4.064 0 0 1-1.59 1.52c-.686.369-1.541.554-2.567.554-.75 0-1.432-.141-2.048-.422a4.562 4.562 0 0 1-1.573-1.195 5.607 5.607 0 0 1-1.019-1.872c-.235-.733-.352-1.547-.352-2.444v-1.274c0-.897.117-1.708.352-2.435.24-.732.583-1.359 1.028-1.881a4.587 4.587 0 0 1 1.626-1.204c.633-.281 1.345-.422 2.136-.422.966 0 1.784.182 2.452.545a3.902 3.902 0 0 1 1.555 1.512c.375.639.607 1.38.695 2.224h-1.688c-.082-.598-.234-1.111-.457-1.538a2.368 2.368 0 0 0-.949-1.002c-.41-.235-.946-.352-1.608-.352-.569 0-1.07.108-1.503.325a3.031 3.031 0 0 0-1.081.923c-.288.398-.504.876-.651 1.433a7.297 7.297 0 0 0-.22 1.854v1.292c0 .627.065 1.216.194 1.767.135.551.337 1.034.606 1.45.27.416.613.744 1.029.984.416.235.908.352 1.476.352.721 0 1.295-.114 1.723-.343.428-.228.75-.557.967-.984.222-.428.38-.941.474-1.538Zm9.361 2.443v-4.895c0-.375-.077-.701-.229-.976a1.491 1.491 0 0 0-.668-.65c-.299-.153-.668-.229-1.107-.229-.41 0-.771.07-1.081.211a1.882 1.882 0 0 0-.721.554 1.21 1.21 0 0 0-.255.738h-1.626c0-.34.088-.677.264-1.011a2.94 2.94 0 0 1 .756-.905 3.779 3.779 0 0 1 1.195-.65c.469-.165.99-.247 1.564-.247.692 0 1.301.118 1.828.352.534.234.95.589 1.249 1.063.304.469.457 1.058.457 1.767v4.43c0 .316.026.653.079 1.011.058.357.143.665.255.922V242h-1.697a3.058 3.058 0 0 1-.193-.747 5.997 5.997 0 0 1-.07-.879Zm.281-4.14.017 1.143h-1.643a6.08 6.08 0 0 0-1.239.114 2.855 2.855 0 0 0-.914.325 1.543 1.543 0 0 0-.563.554 1.469 1.469 0 0 0-.193.765c0 .299.067.571.202.817s.337.443.606.589c.276.141.613.211 1.011.211.498 0 .938-.106 1.318-.316.381-.211.683-.469.906-.774.228-.305.351-.6.369-.888l.694.783c-.041.246-.152.518-.334.817a3.943 3.943 0 0 1-1.802 1.538c-.41.176-.873.264-1.388.264-.645 0-1.21-.126-1.697-.378a2.907 2.907 0 0 1-1.125-1.011 2.681 2.681 0 0 1-.395-1.433c0-.509.1-.958.299-1.344.199-.393.486-.718.861-.976a4.086 4.086 0 0 1 1.354-.597 7.123 7.123 0 0 1 1.766-.203h1.89Zm5.001-3.744 2.083 3.463 2.109-3.463h1.907l-3.111 4.694 3.208 4.816h-1.881l-2.197-3.568-2.197 3.568h-1.89l3.199-4.816-3.102-4.694h1.872Zm13.438 7.884v-4.895c0-.375-.076-.701-.228-.976a1.496 1.496 0 0 0-.668-.65c-.299-.153-.668-.229-1.108-.229-.41 0-.77.07-1.081.211a1.879 1.879 0 0 0-.72.554 1.21 1.21 0 0 0-.255.738h-1.626c0-.34.088-.677.263-1.011.176-.334.428-.636.756-.905a3.784 3.784 0 0 1 1.196-.65c.468-.165.99-.247 1.564-.247.691 0 1.301.118 1.828.352.533.234.949.589 1.248 1.063.305.469.457 1.058.457 1.767v4.43c0 .316.027.653.079 1.011.059.357.144.665.255.922V242h-1.696a3.014 3.014 0 0 1-.193-.747 6.006 6.006 0 0 1-.071-.879Zm.282-4.14.017 1.143h-1.643c-.463 0-.876.038-1.24.114a2.864 2.864 0 0 0-.914.325 1.548 1.548 0 0 0-.562.554 1.47 1.47 0 0 0-.194.765c0 .299.068.571.203.817.134.246.336.443.606.589.275.141.612.211 1.011.211.498 0 .937-.106 1.318-.316.381-.211.683-.469.905-.774.229-.305.352-.6.369-.888l.695.783c-.041.246-.153.518-.334.817a3.899 3.899 0 0 1-.73.861c-.298.27-.656.495-1.072.677a3.49 3.49 0 0 1-1.389.264c-.644 0-1.21-.126-1.696-.378a2.907 2.907 0 0 1-1.125-1.011 2.673 2.673 0 0 1-.395-1.433c0-.509.099-.958.298-1.344.2-.393.487-.718.862-.976a4.09 4.09 0 0 1 1.353-.597 7.13 7.13 0 0 1 1.767-.203h1.89Zm10.256-3.744v1.345h-4.596v-1.345h4.596Zm1.433 0V242h-1.626v-9.51h1.626Zm-6.425 0h1.635l-.246 4.588a17.182 17.182 0 0 1-.202 1.881 6.445 6.445 0 0 1-.369 1.389 2.905 2.905 0 0 1-.581.949c-.228.24-.503.419-.826.536a3.42 3.42 0 0 1-1.116.167h-.51v-1.433l.352-.026c.252-.018.466-.076.642-.176.181-.099.333-.246.457-.439a2.66 2.66 0 0 0 .298-.765c.082-.31.144-.68.185-1.107.047-.428.082-.926.105-1.494l.176-4.07Zm10.802 6.935 4.386-6.935h1.634V242h-1.634v-6.935L301.169 242h-1.617v-9.51h1.617v6.935Zm15.082-2.813v1.319h-5.027v-1.319h5.027Zm-4.685-4.122V242h-1.626v-9.51h1.626Zm6.003 0V242h-1.634v-9.51h1.634Zm6.425 8.35c.387 0 .744-.079 1.072-.237.329-.159.598-.375.809-.651.211-.281.331-.6.36-.958h1.547a2.899 2.899 0 0 1-.571 1.573c-.346.481-.8.871-1.362 1.169a3.957 3.957 0 0 1-1.855.44c-.715 0-1.339-.126-1.872-.378a3.713 3.713 0 0 1-1.318-1.037 4.644 4.644 0 0 1-.783-1.512 6.412 6.412 0 0 1-.254-1.819v-.369c0-.639.085-1.243.254-1.811a4.63 4.63 0 0 1 .783-1.521 3.713 3.713 0 0 1 1.318-1.037c.533-.252 1.157-.378 1.872-.378.744 0 1.395.153 1.951.457.557.299.993.709 1.31 1.231.322.516.498 1.102.527 1.758h-1.547a2.334 2.334 0 0 0-.334-1.064 2.085 2.085 0 0 0-.773-.756c-.322-.193-.7-.29-1.134-.29-.498 0-.917.1-1.257.299-.334.194-.6.457-.799.791a3.683 3.683 0 0 0-.422 1.099 6.045 6.045 0 0 0-.123 1.222v.369c0 .416.041.826.123 1.23.082.404.219.771.413 1.099.199.328.466.592.8.791.339.193.761.29 1.265.29Zm7.383-8.35V242h-1.626v-9.51h1.626Zm6.24 0-4.509 5.449h-2.276l-.246-1.423h1.863l3.191-4.026h1.977Zm-1.749 9.51-3.498-4.307 1.046-1.177 4.518 5.484h-2.066Zm-86.284-75.797 3.076 4.904 3.076-4.904h1.978l-4.043 6.337 4.14 6.46h-1.996l-3.155-5.001-3.155 5.001h-1.995l4.139-6.46-4.043-6.337h1.978Zm9.316 8.148v-.203c0-.685.1-1.321.299-1.907a4.531 4.531 0 0 1 .862-1.538 3.845 3.845 0 0 1 1.362-1.019 4.23 4.23 0 0 1 1.793-.37c.668 0 1.268.124 1.802.37.539.24.996.58 1.371 1.019.381.434.671.946.87 1.538.199.586.299 1.222.299 1.907v.203c0 .685-.1 1.321-.299 1.907a4.561 4.561 0 0 1-.87 1.538 3.986 3.986 0 0 1-1.363 1.019c-.527.241-1.125.361-1.793.361-.668 0-1.268-.12-1.801-.361a4.065 4.065 0 0 1-1.371-1.019 4.648 4.648 0 0 1-.862-1.538 5.896 5.896 0 0 1-.299-1.907Zm1.626-.203v.203c0 .474.056.922.167 1.344.112.416.279.785.501 1.108.229.322.513.577.853.764.34.182.735.273 1.186.273.446 0 .835-.091 1.169-.273.34-.187.621-.442.844-.764.223-.323.39-.692.501-1.108a5.01 5.01 0 0 0 .176-1.344v-.203c0-.468-.059-.911-.176-1.327a3.396 3.396 0 0 0-.51-1.116 2.417 2.417 0 0 0-.843-.773c-.334-.188-.727-.282-1.178-.282-.445 0-.838.094-1.178.282a2.529 2.529 0 0 0-.844.773 3.554 3.554 0 0 0-.501 1.116 5.132 5.132 0 0 0-.167 1.327Zm15.285-4.658v1.345h-4.597v-1.345h4.597Zm1.432 0V179h-1.626v-9.51h1.626Zm-6.425 0h1.635l-.246 4.588a16.94 16.94 0 0 1-.202 1.881 6.445 6.445 0 0 1-.369 1.389 2.92 2.92 0 0 1-.58.949c-.229.24-.504.419-.827.536a3.42 3.42 0 0 1-1.116.167h-.509v-1.433l.351-.026c.252-.018.466-.076.642-.176a1.26 1.26 0 0 0 .457-.439c.123-.199.222-.454.299-.765.082-.31.143-.68.184-1.107.047-.428.082-.926.106-1.494l.175-4.07Zm14.511 7.348 3.234-7.348h1.565l-4.236 9.51h-1.125l-4.219-9.51h1.564l3.217 7.348Zm-3.691-7.348V179h-1.626v-9.51h1.626Zm7.33 9.51v-9.51h1.635V179h-1.635Zm8.059-1.16c.387 0 .744-.079 1.073-.237.328-.159.597-.375.808-.651.211-.281.331-.6.361-.958h1.546a2.89 2.89 0 0 1-.571 1.573c-.346.481-.8.871-1.362 1.169a3.957 3.957 0 0 1-1.855.44c-.715 0-1.339-.126-1.872-.378a3.713 3.713 0 0 1-1.318-1.037 4.623 4.623 0 0 1-.782-1.512 6.377 6.377 0 0 1-.255-1.819v-.369c0-.639.085-1.243.255-1.811a4.608 4.608 0 0 1 .782-1.521 3.713 3.713 0 0 1 1.318-1.037c.533-.252 1.157-.378 1.872-.378.744 0 1.395.153 1.952.457.556.299.993.709 1.309 1.231.322.516.498 1.102.527 1.758h-1.546a2.358 2.358 0 0 0-.334-1.064 2.096 2.096 0 0 0-.774-.756c-.322-.193-.7-.29-1.134-.29-.498 0-.917.1-1.256.299a2.206 2.206 0 0 0-.8.791 3.683 3.683 0 0 0-.422 1.099 6.045 6.045 0 0 0-.123 1.222v.369c0 .416.041.826.123 1.23.082.404.22.771.413 1.099.199.328.466.592.8.791.34.193.761.29 1.265.29Zm7.383-8.35V179h-1.626v-9.51h1.626Zm6.24 0-4.508 5.449h-2.277l-.246-1.423h1.863l3.191-4.026h1.977Zm-1.749 9.51-3.498-4.307 1.046-1.177 4.518 5.484h-2.066Zm-184.195-62.162 3.234-7.348h1.565l-4.236 9.51h-1.125l-4.219-9.51h1.564l3.217 7.348Zm-3.691-7.348V119h-1.626v-9.51h1.626Zm7.33 9.51v-9.51h1.634V119h-1.634Zm5.59-6.24h2.856c.768 0 1.415.135 1.942.404.528.264.926.63 1.196 1.099.275.463.413.99.413 1.582 0 .439-.076.852-.229 1.239a2.784 2.784 0 0 1-.685 1.002 3.17 3.17 0 0 1-1.116.677c-.44.158-.947.237-1.521.237h-4.043v-9.51h1.626v8.174h2.417c.469 0 .844-.085 1.125-.255.281-.17.483-.389.606-.659.124-.27.185-.551.185-.844 0-.287-.061-.568-.185-.844a1.582 1.582 0 0 0-.606-.685c-.281-.188-.656-.281-1.125-.281h-2.856v-1.336Zm9.791-3.27V119H142.1v-9.51h1.626Zm6.653 8.35c.387 0 .744-.079 1.072-.237.328-.159.598-.375.809-.651.211-.281.331-.6.36-.958h1.547a2.899 2.899 0 0 1-.571 1.573c-.346.481-.8.871-1.363 1.169a3.95 3.95 0 0 1-1.854.44c-.715 0-1.339-.126-1.872-.378a3.716 3.716 0 0 1-1.319-1.037 4.661 4.661 0 0 1-.782-1.512 6.377 6.377 0 0 1-.255-1.819v-.369c0-.639.085-1.243.255-1.811a4.647 4.647 0 0 1 .782-1.521 3.716 3.716 0 0 1 1.319-1.037c.533-.252 1.157-.378 1.872-.378.744 0 1.394.153 1.951.457.557.299.993.709 1.31 1.231.322.516.498 1.102.527 1.758h-1.547a2.346 2.346 0 0 0-.334-1.064 2.085 2.085 0 0 0-.773-.756 2.169 2.169 0 0 0-1.134-.29c-.498 0-.917.1-1.257.299a2.206 2.206 0 0 0-.8.791 3.71 3.71 0 0 0-.422 1.099 6.045 6.045 0 0 0-.123 1.222v.369c0 .416.041.826.123 1.23.082.404.22.771.413 1.099.2.328.466.592.8.791.34.193.762.29 1.266.29Zm18.053-2.909h1.687c-.088.808-.319 1.532-.694 2.171a4.06 4.06 0 0 1-1.591 1.52c-.686.369-1.541.554-2.566.554-.75 0-1.433-.141-2.048-.422a4.556 4.556 0 0 1-1.574-1.195 5.607 5.607 0 0 1-1.019-1.872c-.234-.733-.352-1.547-.352-2.444v-1.274c0-.897.118-1.708.352-2.435.24-.732.583-1.359 1.028-1.881a4.587 4.587 0 0 1 1.626-1.204c.633-.281 1.345-.422 2.136-.422.967 0 1.784.182 2.452.545a3.905 3.905 0 0 1 1.556 1.512c.375.639.606 1.38.694 2.224h-1.687c-.082-.598-.235-1.111-.457-1.538a2.37 2.37 0 0 0-.95-1.002c-.41-.235-.946-.352-1.608-.352-.568 0-1.069.108-1.503.325a3.031 3.031 0 0 0-1.081.923 4.282 4.282 0 0 0-.65 1.433 7.252 7.252 0 0 0-.22 1.854v1.292c0 .627.064 1.216.193 1.767a4.69 4.69 0 0 0 .607 1.45c.269.416.612.744 1.028.984.416.235.908.352 1.477.352.72 0 1.294-.114 1.722-.343.428-.228.75-.557.967-.984.223-.428.381-.941.475-1.538Zm10.107-5.441v1.345h-4.597v-1.345h4.597Zm1.433 0V119h-1.626v-9.51h1.626Zm-6.425 0h1.635l-.246 4.588a16.921 16.921 0 0 1-.203 1.881 6.387 6.387 0 0 1-.369 1.389 2.886 2.886 0 0 1-.58.949c-.228.24-.504.419-.826.536a3.42 3.42 0 0 1-1.116.167h-.51v-1.433l.352-.026c.252-.018.465-.076.641-.176.182-.099.334-.246.457-.439.123-.199.223-.454.299-.765.082-.31.144-.68.185-1.107.046-.428.082-.926.105-1.494l.176-4.07Zm12.99 9.686a4.692 4.692 0 0 1-1.802-.334 4.1 4.1 0 0 1-1.38-.958 4.275 4.275 0 0 1-.878-1.459 5.333 5.333 0 0 1-.308-1.846v-.369c0-.773.114-1.462.343-2.065.228-.61.539-1.125.931-1.547a3.983 3.983 0 0 1 1.336-.958 3.836 3.836 0 0 1 1.547-.326c.68 0 1.266.118 1.758.352.498.234.905.563 1.222.984.316.416.55.909.703 1.477a7.06 7.06 0 0 1 .228 1.846v.729h-7.101v-1.327h5.475v-.123a4.058 4.058 0 0 0-.263-1.231 2.22 2.22 0 0 0-.703-.984c-.323-.258-.762-.387-1.319-.387a2.2 2.2 0 0 0-1.019.238 2.164 2.164 0 0 0-.8.685 3.45 3.45 0 0 0-.519 1.116c-.123.44-.184.947-.184 1.521v.369c0 .451.061.876.184 1.275.129.392.314.738.554 1.037.246.298.542.533.888.703.351.17.75.255 1.195.255.574 0 1.061-.118 1.459-.352a3.622 3.622 0 0 0 1.046-.94l.984.782c-.205.31-.466.606-.782.888a3.735 3.735 0 0 1-1.169.685c-.457.176-.999.264-1.626.264Zm11.936-9.686v1.345h-4.808v-1.345h4.808Zm-4.571 0V119h-1.626v-9.51h1.626Zm6.012 0V119h-1.635v-9.51h1.635Zm4.368 6.935 4.386-6.935h1.635V119h-1.635v-6.935L204.282 119h-1.617v-9.51h1.617v6.935Zm10.398-6.935V119h-1.626v-9.51h1.626Zm6.24 0-4.509 5.449h-2.276l-.246-1.423h1.863l3.19-4.026h1.978Zm-1.749 9.51-3.498-4.307 1.046-1.177 4.517 5.484h-2.065Zm2.856-4.649v-.203c0-.685.1-1.321.299-1.907a4.514 4.514 0 0 1 .862-1.538 3.836 3.836 0 0 1 1.362-1.019 4.23 4.23 0 0 1 1.793-.37c.668 0 1.268.124 1.802.37.539.24.996.58 1.371 1.019.38.434.671.946.87 1.538.199.586.299 1.222.299 1.907v.203c0 .685-.1 1.321-.299 1.907a4.578 4.578 0 0 1-.87 1.538 3.986 3.986 0 0 1-1.363 1.019c-.527.241-1.125.361-1.793.361-.668 0-1.268-.12-1.801-.361a4.065 4.065 0 0 1-1.371-1.019 4.63 4.63 0 0 1-.862-1.538 5.896 5.896 0 0 1-.299-1.907Zm1.626-.203v.203c0 .474.056.922.167 1.344.112.416.279.785.501 1.108.229.322.513.577.853.764.34.182.735.273 1.186.273.446 0 .835-.091 1.169-.273.34-.187.621-.442.844-.764.223-.323.39-.692.501-1.108a5.01 5.01 0 0 0 .176-1.344v-.203c0-.468-.059-.911-.176-1.327a3.396 3.396 0 0 0-.51-1.116 2.417 2.417 0 0 0-.843-.773c-.334-.188-.727-.282-1.178-.282-.446 0-.838.094-1.178.282a2.529 2.529 0 0 0-.844.773 3.554 3.554 0 0 0-.501 1.116 5.132 5.132 0 0 0-.167 1.327Zm15.522-.536v1.319h-5.028v-1.319h5.028Zm-4.685-4.122V119h-1.626v-9.51h1.626Zm6.003 0V119h-1.635v-9.51h1.635Zm6.425 8.35c.387 0 .744-.079 1.072-.237.328-.159.598-.375.809-.651.211-.281.331-.6.36-.958h1.547a2.899 2.899 0 0 1-.571 1.573c-.346.481-.8.871-1.363 1.169a3.95 3.95 0 0 1-1.854.44c-.715 0-1.339-.126-1.872-.378a3.713 3.713 0 0 1-1.318-1.037 4.644 4.644 0 0 1-.783-1.512 6.377 6.377 0 0 1-.255-1.819v-.369c0-.639.085-1.243.255-1.811a4.63 4.63 0 0 1 .783-1.521 3.713 3.713 0 0 1 1.318-1.037c.533-.252 1.157-.378 1.872-.378.744 0 1.394.153 1.951.457.557.299.993.709 1.31 1.231.322.516.498 1.102.527 1.758h-1.547a2.334 2.334 0 0 0-.334-1.064 2.085 2.085 0 0 0-.773-.756c-.323-.193-.7-.29-1.134-.29-.498 0-.917.1-1.257.299-.334.194-.6.457-.8.791a3.71 3.71 0 0 0-.422 1.099 6.045 6.045 0 0 0-.123 1.222v.369c0 .416.041.826.123 1.23.082.404.22.771.414 1.099.199.328.465.592.799.791.34.193.762.29 1.266.29Zm7.383-8.35V119h-1.626v-9.51h1.626Zm6.24 0-4.509 5.449h-2.276l-.246-1.423h1.863l3.19-4.026h1.978Zm-1.749 9.51-3.498-4.307 1.046-1.177 4.517 5.484h-2.065Zm2.856-4.649v-.203c0-.685.1-1.321.299-1.907a4.531 4.531 0 0 1 .862-1.538 3.845 3.845 0 0 1 1.362-1.019 4.23 4.23 0 0 1 1.793-.37c.668 0 1.268.124 1.802.37.539.24.996.58 1.371 1.019.381.434.671.946.87 1.538.199.586.299 1.222.299 1.907v.203c0 .685-.1 1.321-.299 1.907a4.561 4.561 0 0 1-.87 1.538 3.986 3.986 0 0 1-1.363 1.019c-.527.241-1.125.361-1.793.361-.668 0-1.268-.12-1.801-.361a4.065 4.065 0 0 1-1.371-1.019 4.648 4.648 0 0 1-.862-1.538 5.896 5.896 0 0 1-.299-1.907Zm1.626-.203v.203c0 .474.056.922.167 1.344.112.416.279.785.501 1.108.229.322.513.577.853.764.34.182.735.273 1.186.273.446 0 .835-.091 1.169-.273.34-.187.621-.442.844-.764.223-.323.39-.692.501-1.108a5.01 5.01 0 0 0 .176-1.344v-.203c0-.468-.059-.911-.176-1.327a3.396 3.396 0 0 0-.51-1.116 2.417 2.417 0 0 0-.843-.773c-.334-.188-.727-.282-1.178-.282-.445 0-.838.094-1.178.282a2.529 2.529 0 0 0-.844.773 3.554 3.554 0 0 0-.501 1.116 5.132 5.132 0 0 0-.167 1.327Zm15.214-4.658v1.345h-4.394V119h-1.626v-9.51h6.02Zm.809 4.861v-.203c0-.685.099-1.321.299-1.907a4.529 4.529 0 0 1 .861-1.538 3.845 3.845 0 0 1 1.362-1.019 4.234 4.234 0 0 1 1.793-.37c.668 0 1.269.124 1.802.37.539.24.996.58 1.371 1.019.381.434.671.946.87 1.538.199.586.299 1.222.299 1.907v.203c0 .685-.1 1.321-.299 1.907a4.561 4.561 0 0 1-.87 1.538 3.992 3.992 0 0 1-1.362 1.019c-.527.241-1.125.361-1.793.361-.668 0-1.269-.12-1.802-.361a4.085 4.085 0 0 1-1.371-1.019 4.646 4.646 0 0 1-.861-1.538 5.87 5.87 0 0 1-.299-1.907Zm1.626-.203v.203c0 .474.056.922.167 1.344.111.416.278.785.501 1.108.228.322.513.577.852.764.34.182.736.273 1.187.273.445 0 .835-.091 1.169-.273.34-.187.621-.442.844-.764.222-.323.389-.692.501-1.108a5.01 5.01 0 0 0 .175-1.344v-.203c0-.468-.058-.911-.175-1.327a3.438 3.438 0 0 0-.51-1.116 2.42 2.42 0 0 0-.844-.773c-.334-.188-.727-.282-1.178-.282-.445 0-.838.094-1.177.282a2.52 2.52 0 0 0-.844.773 3.51 3.51 0 0 0-.501 1.116 5.132 5.132 0 0 0-.167 1.327Zm15.291-26.945V100h-1.67V87.203h1.67Zm4.113 0v1.389h-9.888v-1.389h9.888Zm.343 8.148v-.203c0-.685.1-1.32.299-1.907a4.528 4.528 0 0 1 .861-1.538c.375-.44.829-.78 1.362-1.02.534-.246 1.131-.369 1.793-.369.668 0 1.269.124 1.802.37.539.24.996.58 1.371 1.02.381.433.671.945.87 1.537.2.586.299 1.222.299 1.907v.203c0 .685-.099 1.32-.299 1.907a4.557 4.557 0 0 1-.87 1.538 3.987 3.987 0 0 1-1.362 1.02c-.527.24-1.125.36-1.793.36-.668 0-1.269-.12-1.802-.36a4.08 4.08 0 0 1-1.371-1.02 4.641 4.641 0 0 1-.861-1.538 5.895 5.895 0 0 1-.299-1.907Zm1.626-.203v.203c0 .474.056.922.167 1.344.111.416.278.786.501 1.108.228.322.513.577.852.764.34.182.736.273 1.187.273.445 0 .835-.091 1.169-.273.34-.187.621-.442.844-.764a3.57 3.57 0 0 0 .501-1.108 5.01 5.01 0 0 0 .175-1.344v-.203c0-.468-.058-.91-.175-1.327a3.442 3.442 0 0 0-.51-1.116 2.425 2.425 0 0 0-.844-.773c-.334-.188-.726-.282-1.178-.282-.445 0-.838.094-1.177.282a2.525 2.525 0 0 0-.844.773 3.51 3.51 0 0 0-.501 1.116 5.13 5.13 0 0 0-.167 1.327Zm14.537 2.69 3.234-7.348h1.565l-4.236 9.51h-1.125l-4.219-9.51h1.564l3.217 7.348Zm-3.691-7.348V100h-1.626v-9.51h1.626Zm7.33 9.51v-9.51h1.634V100h-1.634Zm9.861-1.626v-4.895c0-.376-.076-.7-.229-.976a1.496 1.496 0 0 0-.667-.65c-.299-.153-.668-.229-1.108-.229-.41 0-.77.07-1.081.211-.305.14-.545.325-.721.554a1.21 1.21 0 0 0-.255.738h-1.626c0-.34.088-.677.264-1.01.176-.335.428-.636.756-.906a3.778 3.778 0 0 1 1.195-.65 4.719 4.719 0 0 1 1.565-.247c.691 0 1.301.118 1.828.352a2.74 2.74 0 0 1 1.248 1.064c.305.468.457 1.057.457 1.766v4.43c0 .316.026.653.079 1.01.059.358.144.666.255.923V100h-1.696a3.041 3.041 0 0 1-.194-.747 6.004 6.004 0 0 1-.07-.879Zm.281-4.14.018 1.143h-1.644a6.08 6.08 0 0 0-1.239.114 2.84 2.84 0 0 0-.914.325 1.55 1.55 0 0 0-.563.554 1.477 1.477 0 0 0-.193.765c0 .299.067.571.202.817s.337.442.607.589c.275.14.612.211 1.01.211.498 0 .938-.105 1.319-.316.381-.211.682-.47.905-.774.229-.305.352-.6.369-.888l.695.783c-.041.246-.153.518-.334.817a3.938 3.938 0 0 1-1.802 1.538 3.49 3.49 0 0 1-1.389.264c-.644 0-1.21-.126-1.696-.378a2.893 2.893 0 0 1-1.125-1.01 2.673 2.673 0 0 1-.396-1.433c0-.51.1-.959.299-1.345.199-.393.486-.718.861-.976a4.098 4.098 0 0 1 1.354-.598 7.141 7.141 0 0 1 1.767-.202h1.889Zm5.529-1.916v11.338h-1.635V90.49h1.494l.141 1.828Zm6.407 2.848v.185c0 .691-.082 1.333-.246 1.924a4.74 4.74 0 0 1-.721 1.53c-.311.433-.694.77-1.151 1.01-.457.241-.982.361-1.574.361-.603 0-1.136-.1-1.599-.299a3.17 3.17 0 0 1-1.178-.87 4.441 4.441 0 0 1-.773-1.371 7.89 7.89 0 0 1-.387-1.802v-.984c.07-.703.202-1.333.395-1.89a4.731 4.731 0 0 1 .765-1.424 3.14 3.14 0 0 1 1.169-.905c.457-.211.984-.317 1.582-.317.598 0 1.128.118 1.591.352.463.228.852.557 1.169.984.316.428.554.94.712 1.538a7.4 7.4 0 0 1 .246 1.978Zm-1.635.185v-.185c0-.475-.05-.92-.149-1.336a3.382 3.382 0 0 0-.466-1.107 2.22 2.22 0 0 0-.791-.756c-.322-.188-.706-.281-1.152-.281-.41 0-.767.07-1.072.21a2.315 2.315 0 0 0-.764.572 3.036 3.036 0 0 0-.519.808c-.129.3-.226.61-.29.932v2.276c.117.41.281.797.492 1.16.211.358.492.648.844.87.351.217.794.326 1.327.326.439 0 .817-.091 1.134-.273.322-.187.586-.442.791-.764.211-.322.366-.692.466-1.108a5.87 5.87 0 0 0 .149-1.344Zm5.467 2.074 4.386-6.935h1.634V100h-1.634v-6.935L346.382 100h-1.617v-9.51h1.617v6.935Zm44.87 40.639 6.302-9.861h1.696V141h-1.696v-9.87l-6.302 9.87h-1.688v-12.797h1.688v9.861Zm17.35-6.574v1.345h-4.597v-1.345h4.597Zm1.432 0V141h-1.626v-9.51h1.626Zm-6.425 0h1.635l-.246 4.588a16.94 16.94 0 0 1-.202 1.881 6.445 6.445 0 0 1-.369 1.389 2.92 2.92 0 0 1-.58.949 2.13 2.13 0 0 1-.826.536 3.43 3.43 0 0 1-1.117.167h-.509v-1.433l.351-.026c.252-.018.466-.076.642-.176a1.26 1.26 0 0 0 .457-.439c.123-.199.222-.454.299-.765.082-.31.143-.68.184-1.107.047-.428.082-.926.106-1.494l.175-4.07Zm10.38 3.27h2.857c.767 0 1.415.135 1.942.404.527.264.926.63 1.195 1.099.276.463.413.99.413 1.582 0 .439-.076.852-.228 1.239a2.774 2.774 0 0 1-.686 1.002c-.298.287-.67.513-1.116.677-.439.158-.946.237-1.52.237h-4.043v-9.51h1.626v8.174h2.417c.468 0 .843-.085 1.125-.255.281-.17.483-.389.606-.659a2.013 2.013 0 0 0 0-1.688 1.582 1.582 0 0 0-.606-.685c-.282-.188-.657-.281-1.125-.281h-2.857v-1.336Zm10.196 3.665 4.385-6.935h1.635V141h-1.635v-6.935L424.185 141h-1.618v-9.51h1.618v6.935Zm15.082-2.813v1.319h-5.028v-1.319h5.028Zm-4.685-4.122V141h-1.626v-9.51h1.626Zm6.003 0V141h-1.635v-9.51h1.635Zm6.425 8.35a2.44 2.44 0 0 0 1.072-.237c.328-.159.598-.375.809-.651.211-.281.331-.6.36-.958h1.547a2.899 2.899 0 0 1-.571 1.573c-.346.481-.8.871-1.363 1.169a3.95 3.95 0 0 1-1.854.44c-.715 0-1.339-.126-1.872-.378a3.716 3.716 0 0 1-1.319-1.037 4.661 4.661 0 0 1-.782-1.512 6.377 6.377 0 0 1-.255-1.819v-.369c0-.639.085-1.243.255-1.811a4.647 4.647 0 0 1 .782-1.521 3.716 3.716 0 0 1 1.319-1.037c.533-.252 1.157-.378 1.872-.378.744 0 1.394.153 1.951.457.557.299.993.709 1.31 1.231.322.516.498 1.102.527 1.758h-1.547a2.346 2.346 0 0 0-.334-1.064 2.093 2.093 0 0 0-.773-.756 2.169 2.169 0 0 0-1.134-.29c-.498 0-.917.1-1.257.299a2.206 2.206 0 0 0-.8.791 3.71 3.71 0 0 0-.422 1.099 6.045 6.045 0 0 0-.123 1.222v.369c0 .416.041.826.123 1.23.082.404.22.771.413 1.099.2.328.466.592.8.791.34.193.762.29 1.266.29Zm7.383-8.35V141h-1.626v-9.51h1.626Zm6.24 0-4.509 5.449h-2.276l-.246-1.423h1.863l3.19-4.026h1.978Zm-1.749 9.51-3.498-4.307 1.046-1.177 4.517 5.484h-2.065Zm2.856-4.649v-.203c0-.685.1-1.321.299-1.907a4.529 4.529 0 0 1 .861-1.538 3.84 3.84 0 0 1 1.363-1.019 4.23 4.23 0 0 1 1.793-.37c.668 0 1.268.124 1.801.37.539.24.997.58 1.372 1.019.38.434.67.946.87 1.538.199.586.298 1.222.298 1.907v.203c0 .685-.099 1.321-.298 1.907-.2.586-.49 1.098-.87 1.538-.375.433-.83.773-1.363 1.019-.527.241-1.125.361-1.793.361-.668 0-1.268-.12-1.802-.361a4.085 4.085 0 0 1-1.371-1.019 4.646 4.646 0 0 1-.861-1.538 5.896 5.896 0 0 1-.299-1.907Zm1.626-.203v.203c0 .474.056.922.167 1.344.112.416.279.785.501 1.108.229.322.513.577.853.764.34.182.735.273 1.186.273.446 0 .835-.091 1.169-.273.34-.187.621-.442.844-.764.223-.323.39-.692.501-1.108a5.01 5.01 0 0 0 .176-1.344v-.203c0-.468-.059-.911-.176-1.327a3.396 3.396 0 0 0-.51-1.116 2.42 2.42 0 0 0-.844-.773c-.334-.188-.726-.282-1.177-.282-.446 0-.838.094-1.178.282a2.529 2.529 0 0 0-.844.773 3.554 3.554 0 0 0-.501 1.116 5.132 5.132 0 0 0-.167 1.327Zm13.017 5.028a4.692 4.692 0 0 1-1.802-.334 4.1 4.1 0 0 1-1.38-.958 4.261 4.261 0 0 1-.879-1.459 5.356 5.356 0 0 1-.307-1.846v-.369c0-.773.114-1.462.342-2.065.229-.61.539-1.125.932-1.547a3.983 3.983 0 0 1 1.336-.958 3.836 3.836 0 0 1 1.547-.326c.68 0 1.266.118 1.758.352.498.234.905.563 1.221.984.317.416.551.909.703 1.477.153.562.229 1.178.229 1.846v.729h-7.102v-1.327h5.476v-.123a4.03 4.03 0 0 0-.264-1.231 2.213 2.213 0 0 0-.703-.984c-.322-.258-.761-.387-1.318-.387a2.207 2.207 0 0 0-1.819.923 3.45 3.45 0 0 0-.519 1.116c-.123.44-.185.947-.185 1.521v.369c0 .451.062.876.185 1.275.129.392.313.738.554 1.037.246.298.542.533.887.703.352.17.75.255 1.196.255.574 0 1.06-.118 1.459-.352a3.622 3.622 0 0 0 1.046-.94l.984.782c-.205.31-.466.606-.782.888a3.747 3.747 0 0 1-1.169.685c-.457.176-.999.264-1.626.264Zm-354.539 2.529v1.38h-6.926v-1.38h6.926Zm-6.662-5.502V151h-1.697v-12.797h1.697Zm8.138 0V151h-1.687v-12.797h1.687Zm6.715 12.973a4.692 4.692 0 0 1-1.802-.334 4.085 4.085 0 0 1-1.379-.958 4.261 4.261 0 0 1-.879-1.459 5.356 5.356 0 0 1-.308-1.846v-.369c0-.773.114-1.462.343-2.065.228-.61.539-1.125.931-1.547a3.983 3.983 0 0 1 1.336-.958 3.836 3.836 0 0 1 1.547-.326c.68 0 1.266.118 1.758.352.498.234.905.563 1.222.984.316.416.55.909.703 1.477a7.06 7.06 0 0 1 .228 1.846v.729h-7.101v-1.327h5.475v-.123a4.058 4.058 0 0 0-.263-1.231 2.22 2.22 0 0 0-.703-.984c-.323-.258-.762-.387-1.319-.387a2.2 2.2 0 0 0-1.019.238 2.172 2.172 0 0 0-.8.685 3.45 3.45 0 0 0-.519 1.116c-.123.44-.184.947-.184 1.521v.369c0 .451.061.876.184 1.275.129.392.314.738.554 1.037.246.298.542.533.888.703.351.17.75.255 1.195.255.574 0 1.061-.118 1.459-.352a3.622 3.622 0 0 0 1.046-.94l.984.782c-.205.31-.466.606-.782.888a3.735 3.735 0 0 1-1.169.685c-.457.176-.999.264-1.626.264Zm10.064-4.36h-3.12l-.018-1.3h2.549c.504 0 .923-.05 1.257-.15.339-.099.594-.249.764-.448.17-.199.255-.445.255-.738 0-.229-.05-.428-.149-.598a1.095 1.095 0 0 0-.431-.431 2.135 2.135 0 0 0-.721-.255 4.967 4.967 0 0 0-.993-.087h-2.083V151h-1.626v-9.51h3.709c.604 0 1.146.053 1.626.158.486.106.9.267 1.239.484.346.211.61.48.791.808.182.329.273.715.273 1.161a1.955 1.955 0 0 1-.694 1.503c-.229.199-.51.363-.844.492a4.344 4.344 0 0 1-1.152.237l-.632.483Zm0 4.184h-3.709l.808-1.318h2.901c.451 0 .826-.056 1.125-.167.298-.118.521-.282.668-.493a1.31 1.31 0 0 0 .228-.773c0-.299-.076-.554-.228-.765-.147-.216-.37-.38-.668-.492-.299-.117-.674-.176-1.125-.176h-2.47l.017-1.3h3.085l.589.492c.522.041.964.17 1.327.387.364.216.639.492.827.826.187.328.281.685.281 1.072 0 .445-.085.838-.255 1.178a2.23 2.23 0 0 1-.721.852c-.316.223-.7.393-1.151.51a6.415 6.415 0 0 1-1.529.167Zm9.782.176a4.692 4.692 0 0 1-1.802-.334 4.1 4.1 0 0 1-1.38-.958 4.261 4.261 0 0 1-.879-1.459 5.356 5.356 0 0 1-.307-1.846v-.369c0-.773.114-1.462.342-2.065.229-.61.54-1.125.932-1.547a3.983 3.983 0 0 1 1.336-.958 3.836 3.836 0 0 1 1.547-.326c.68 0 1.266.118 1.758.352.498.234.905.563 1.221.984.317.416.551.909.704 1.477a7.06 7.06 0 0 1 .228 1.846v.729h-7.102v-1.327h5.476v-.123a4.03 4.03 0 0 0-.264-1.231 2.205 2.205 0 0 0-.703-.984c-.322-.258-.761-.387-1.318-.387a2.207 2.207 0 0 0-1.819.923 3.45 3.45 0 0 0-.519 1.116c-.123.44-.185.947-.185 1.521v.369c0 .451.062.876.185 1.275.129.392.314.738.554 1.037.246.298.542.533.887.703.352.17.75.255 1.196.255.574 0 1.06-.118 1.459-.352a3.622 3.622 0 0 0 1.046-.94l.984.782c-.205.31-.466.606-.782.888a3.747 3.747 0 0 1-1.169.685c-.457.176-.999.264-1.626.264Zm11.953-9.686v1.345h-4.597v-1.345h4.597Zm1.433 0V151h-1.626v-9.51h1.626Zm-6.425 0h1.635l-.247 4.588a16.94 16.94 0 0 1-.202 1.881 6.445 6.445 0 0 1-.369 1.389 2.903 2.903 0 0 1-.58.949c-.228.24-.504.419-.826.536a3.42 3.42 0 0 1-1.116.167h-.51v-1.433l.352-.026c.251-.018.465-.076.641-.176.182-.099.334-.246.457-.439.123-.199.223-.454.299-.765.082-.31.144-.68.185-1.107.046-.428.082-.926.105-1.494l.176-4.07Zm10.38 3.27h2.856c.768 0 1.415.135 1.943.404.527.264.925.63 1.195 1.099.275.463.413.99.413 1.582 0 .439-.076.852-.229 1.239-.152.381-.38.715-.685 1.002a3.17 3.17 0 0 1-1.116.677c-.44.158-.947.237-1.521.237h-4.043v-9.51h1.626v8.174h2.417c.469 0 .844-.085 1.125-.255.281-.17.484-.389.607-.659s.184-.551.184-.844c0-.287-.061-.568-.184-.844a1.584 1.584 0 0 0-.607-.685c-.281-.188-.656-.281-1.125-.281h-2.856v-1.336Zm12.243 5.08c.387 0 .744-.079 1.072-.237.328-.159.598-.375.809-.651.211-.281.331-.6.36-.958h1.547a2.899 2.899 0 0 1-.571 1.573c-.346.481-.8.871-1.363 1.169a3.95 3.95 0 0 1-1.854.44c-.715 0-1.339-.126-1.872-.378a3.716 3.716 0 0 1-1.319-1.037 4.661 4.661 0 0 1-.782-1.512 6.377 6.377 0 0 1-.255-1.819v-.369c0-.639.085-1.243.255-1.811a4.647 4.647 0 0 1 .782-1.521 3.716 3.716 0 0 1 1.319-1.037c.533-.252 1.157-.378 1.872-.378.744 0 1.394.153 1.951.457.557.299.993.709 1.31 1.231.322.516.498 1.102.527 1.758h-1.547a2.346 2.346 0 0 0-.334-1.064 2.085 2.085 0 0 0-.773-.756 2.169 2.169 0 0 0-1.134-.29c-.498 0-.917.1-1.257.299a2.206 2.206 0 0 0-.8.791 3.71 3.71 0 0 0-.422 1.099 6.045 6.045 0 0 0-.123 1.222v.369c0 .416.041.826.123 1.23.082.404.22.771.413 1.099.2.328.466.592.8.791.34.193.762.29 1.266.29Zm7.383-8.35V151h-1.626v-9.51h1.626Zm6.24 0-4.509 5.449h-2.276l-.246-1.423h1.863l3.19-4.026h1.978Zm-1.749 9.51-3.498-4.307 1.046-1.177 4.517 5.484h-2.065ZM9.422 166.203v1.389h-6.17V179H1.564v-12.797h7.858Zm-.246 8.148v-.203c0-.685.1-1.321.299-1.907a4.544 4.544 0 0 1 .86-1.538c.376-.439.83-.779 1.363-1.019a4.23 4.23 0 0 1 1.793-.37c.668 0 1.269.124 1.802.37.539.24.996.58 1.371 1.019.38.434.671.946.87 1.538.2.586.299 1.222.299 1.907v.203c0 .685-.1 1.321-.299 1.907a4.578 4.578 0 0 1-.87 1.538 3.992 3.992 0 0 1-1.362 1.019c-.528.241-1.125.361-1.793.361-.668 0-1.269-.12-1.802-.361a4.083 4.083 0 0 1-1.371-1.019 4.65 4.65 0 0 1-.861-1.538 5.89 5.89 0 0 1-.3-1.907Zm1.626-.203v.203c0 .474.055.922.167 1.344.111.416.278.785.5 1.108.23.322.513.577.853.764.34.182.736.273 1.187.273.445 0 .835-.091 1.169-.273a2.45 2.45 0 0 0 .843-.764 3.56 3.56 0 0 0 .502-1.108 5.01 5.01 0 0 0 .175-1.344v-.203a4.88 4.88 0 0 0-.175-1.327 3.415 3.415 0 0 0-.51-1.116 2.418 2.418 0 0 0-.844-.773c-.334-.188-.727-.282-1.178-.282-.445 0-.838.094-1.178.282a2.524 2.524 0 0 0-.843.773 3.51 3.51 0 0 0-.501 1.116 5.115 5.115 0 0 0-.167 1.327Zm10.696-2.83v11.338h-1.635V169.49h1.494l.141 1.828Zm6.407 2.848v.185c0 .691-.082 1.333-.246 1.924a4.74 4.74 0 0 1-.72 1.53c-.311.433-.695.77-1.152 1.01-.457.241-.981.361-1.573.361-.604 0-1.137-.1-1.6-.299a3.151 3.151 0 0 1-1.178-.87 4.448 4.448 0 0 1-.773-1.371 7.934 7.934 0 0 1-.387-1.802v-.984c.07-.704.203-1.333.396-1.89a4.708 4.708 0 0 1 .764-1.424c.323-.398.712-.7 1.17-.905.456-.211.984-.317 1.581-.317.598 0 1.128.118 1.591.352a3.22 3.22 0 0 1 1.17.984c.316.428.553.941.711 1.538.164.592.246 1.251.246 1.978Zm-1.635.185v-.185c0-.475-.05-.92-.149-1.336a3.369 3.369 0 0 0-.466-1.107 2.208 2.208 0 0 0-.79-.756c-.323-.188-.707-.281-1.152-.281-.41 0-.768.07-1.072.21a2.328 2.328 0 0 0-.765.572 3.033 3.033 0 0 0-.519.808c-.128.299-.225.61-.29.932v2.276c.118.411.282.797.493 1.161.21.357.492.647.843.87.352.216.794.325 1.328.325.439 0 .817-.091 1.133-.273.322-.187.586-.442.791-.764.211-.323.366-.692.466-1.108.1-.422.15-.87.15-1.344Zm10.16-.739v1.319h-5.027v-1.319h5.028Zm-4.684-4.122V179H30.12v-9.51h1.626Zm6.003 0V179h-1.635v-9.51h1.635Zm2.188 4.861v-.203c0-.685.1-1.321.3-1.907a4.527 4.527 0 0 1 .86-1.538c.376-.439.83-.779 1.363-1.019a4.23 4.23 0 0 1 1.793-.37c.668 0 1.269.124 1.802.37.539.24.996.58 1.37 1.019.382.434.672.946.87 1.538.2.586.3 1.222.3 1.907v.203c0 .685-.1 1.321-.3 1.907a4.528 4.528 0 0 1-.87 1.538 3.979 3.979 0 0 1-1.361 1.019c-.528.241-1.126.361-1.794.361-.668 0-1.268-.12-1.801-.361a4.08 4.08 0 0 1-1.371-1.019 4.65 4.65 0 0 1-.862-1.538 5.89 5.89 0 0 1-.298-1.907Zm1.627-.203v.203c0 .474.055.922.166 1.344.112.416.279.785.501 1.108.229.322.513.577.853.764.34.182.735.273 1.186.273.446 0 .835-.091 1.17-.273a2.45 2.45 0 0 0 .843-.764 3.55 3.55 0 0 0 .501-1.108 5.01 5.01 0 0 0 .176-1.344v-.203c0-.468-.059-.911-.176-1.327a3.412 3.412 0 0 0-.51-1.116 2.417 2.417 0 0 0-.843-.773c-.334-.188-.727-.282-1.178-.282-.445 0-.838.094-1.178.282a2.525 2.525 0 0 0-.844.773c-.222.322-.39.694-.5 1.116a5.115 5.115 0 0 0-.168 1.327Zm12.62.308h-1.748v-1.002h1.617c.45 0 .808-.056 1.072-.167.264-.117.451-.278.563-.483a1.49 1.49 0 0 0 .166-.721c0-.246-.064-.478-.193-.694-.123-.223-.322-.402-.598-.536-.275-.141-.644-.211-1.107-.211a2.49 2.49 0 0 0-1.02.202 1.807 1.807 0 0 0-.729.536 1.187 1.187 0 0 0-.264.756h-1.626c0-.58.164-1.078.493-1.494.334-.422.776-.747 1.327-.976a4.755 4.755 0 0 1 1.82-.343c.55 0 1.042.062 1.476.185.44.117.811.293 1.116.527.304.229.536.516.694.861.164.34.246.736.246 1.187 0 .322-.076.627-.228.914a2.387 2.387 0 0 1-.66.765 3.28 3.28 0 0 1-1.045.509 4.673 4.673 0 0 1-1.371.185Zm-1.748-.615h1.749c.568 0 1.069.055 1.502.167a3.09 3.09 0 0 1 1.09.474c.293.211.513.472.66.783.152.304.228.656.228 1.054 0 .446-.09.847-.272 1.204a2.517 2.517 0 0 1-.756.897 3.53 3.53 0 0 1-1.178.562 5.459 5.459 0 0 1-1.503.194 5.206 5.206 0 0 1-1.793-.317 3.35 3.35 0 0 1-1.432-.975c-.376-.446-.563-1.011-.563-1.696h1.626c0 .287.09.559.272.817.182.258.434.466.756.624.328.158.706.237 1.134.237.457 0 .838-.07 1.143-.211.304-.14.533-.328.685-.562a1.34 1.34 0 0 0 .238-.765c0-.357-.07-.644-.212-.861-.14-.217-.357-.375-.65-.475-.287-.105-.656-.158-1.107-.158h-1.617v-.993Zm12.946 3.533v-4.895c0-.375-.076-.701-.229-.976a1.494 1.494 0 0 0-.668-.65c-.299-.153-.668-.229-1.107-.229-.41 0-.77.07-1.081.211a1.882 1.882 0 0 0-.72.554 1.21 1.21 0 0 0-.256.738h-1.626c0-.34.088-.677.264-1.011a2.95 2.95 0 0 1 .756-.905 3.782 3.782 0 0 1 1.195-.65c.469-.165.99-.247 1.565-.247.691 0 1.3.118 1.828.352.533.234.949.589 1.248 1.063.305.469.457 1.058.457 1.767v4.43c0 .316.026.653.079 1.011.058.357.144.665.255.922V179h-1.697a3.052 3.052 0 0 1-.193-.747 6.027 6.027 0 0 1-.07-.879Zm.281-4.14.018 1.143h-1.644c-.463 0-.876.038-1.24.114a2.862 2.862 0 0 0-.913.325 1.548 1.548 0 0 0-.563.554 1.47 1.47 0 0 0-.193.765c0 .299.067.571.202.817s.337.443.607.589c.275.141.612.211 1.01.211a2.69 2.69 0 0 0 1.319-.316c.38-.211.682-.469.905-.774.228-.305.351-.6.369-.888l.694.783c-.04.246-.152.518-.334.817a3.935 3.935 0 0 1-1.802 1.538c-.41.176-.872.264-1.388.264-.645 0-1.21-.126-1.696-.378a2.9 2.9 0 0 1-1.125-1.011 2.676 2.676 0 0 1-.396-1.433c0-.509.1-.958.299-1.344.2-.393.486-.718.861-.976a4.09 4.09 0 0 1 1.354-.597 7.128 7.128 0 0 1 1.766-.203h1.89Zm8.367 1.582h-3.12l-.017-1.3h2.548c.504 0 .923-.05 1.257-.15.34-.099.595-.249.765-.448.17-.199.255-.445.255-.738 0-.229-.05-.428-.15-.598a1.09 1.09 0 0 0-.43-.431 2.135 2.135 0 0 0-.721-.255 4.972 4.972 0 0 0-.993-.087H71.34V179h-1.626v-9.51h3.709a7.65 7.65 0 0 1 1.626.158c.486.106.9.267 1.24.484.345.211.608.48.79.808.182.329.273.715.273 1.161a1.953 1.953 0 0 1-.695 1.503 2.81 2.81 0 0 1-.844.492 4.343 4.343 0 0 1-1.15.237l-.634.483Zm0 4.184h-3.709l.809-1.318h2.9c.451 0 .826-.056 1.125-.167.3-.118.522-.282.668-.493.153-.216.229-.474.229-.773 0-.299-.076-.554-.229-.765-.146-.216-.369-.38-.668-.492-.299-.117-.674-.176-1.125-.176h-2.47l.018-1.3h3.085l.589.492c.521.041.964.17 1.327.387.363.216.639.492.826.826.188.328.281.685.281 1.072 0 .445-.084.838-.254 1.178a2.24 2.24 0 0 1-.721.852 3.51 3.51 0 0 1-1.151.51 6.417 6.417 0 0 1-1.53.167Zm5.406-4.649v-.203c0-.685.1-1.321.298-1.907.2-.592.487-1.104.862-1.538a3.845 3.845 0 0 1 1.362-1.019 4.23 4.23 0 0 1 1.793-.37c.668 0 1.268.124 1.802.37.539.24.996.58 1.37 1.019.382.434.672.946.87 1.538.2.586.3 1.222.3 1.907v.203c0 .685-.1 1.321-.3 1.907a4.528 4.528 0 0 1-.87 1.538 3.973 3.973 0 0 1-1.362 1.019c-.527.241-1.125.361-1.792.361-.668 0-1.269-.12-1.802-.361a4.083 4.083 0 0 1-1.371-1.019 4.65 4.65 0 0 1-.862-1.538 5.89 5.89 0 0 1-.298-1.907Zm1.625-.203v.203c0 .474.056.922.167 1.344.112.416.279.785.502 1.108.228.322.512.577.852.764.34.182.735.273 1.187.273.445 0 .834-.091 1.168-.273a2.45 2.45 0 0 0 .844-.764 3.55 3.55 0 0 0 .501-1.108 5.01 5.01 0 0 0 .176-1.344v-.203c0-.468-.059-.911-.176-1.327a3.412 3.412 0 0 0-.51-1.116 2.418 2.418 0 0 0-.843-.773c-.334-.188-.727-.282-1.178-.282-.445 0-.838.094-1.178.282a2.524 2.524 0 0 0-.843.773c-.223.322-.39.694-.502 1.116a5.12 5.12 0 0 0-.166 1.327Zm10.152-4.658h1.626l-.14 3.56c-.036.902-.138 1.681-.308 2.338-.17.656-.387 1.216-.65 1.678-.264.457-.56.841-.888 1.152-.323.31-.657.571-1.002.782h-.809l.044-1.327.334-.009c.193-.228.38-.463.562-.703a4.75 4.75 0 0 0 .501-.87 6 6 0 0 0 .378-1.239 10.92 10.92 0 0 0 .203-1.802l.149-3.56Zm.404 0h5.722V179h-1.626v-8.007h-4.096v-1.503Zm-2.944 8.174h9.888v4.14h-1.626V179h-6.636v2.804h-1.635l.009-4.14Zm15.495.176c.387 0 .744-.079 1.072-.237.328-.159.598-.375.809-.651.211-.281.331-.6.36-.958h1.547a2.899 2.899 0 0 1-.571 1.573c-.346.481-.8.871-1.363 1.169a3.95 3.95 0 0 1-1.854.44c-.715 0-1.339-.126-1.872-.378a3.713 3.713 0 0 1-1.318-1.037 4.644 4.644 0 0 1-.783-1.512 6.377 6.377 0 0 1-.255-1.819v-.369c0-.639.085-1.243.255-1.811a4.63 4.63 0 0 1 .783-1.521 3.713 3.713 0 0 1 1.318-1.037c.533-.252 1.157-.378 1.872-.378.744 0 1.394.153 1.951.457.557.299.993.709 1.31 1.231.322.516.498 1.102.527 1.758h-1.547a2.334 2.334 0 0 0-.334-1.064 2.085 2.085 0 0 0-.773-.756c-.323-.193-.7-.29-1.134-.29-.498 0-.917.1-1.257.299-.334.194-.6.457-.8.791a3.71 3.71 0 0 0-.422 1.099 6.045 6.045 0 0 0-.123 1.222v.369c0 .416.041.826.123 1.23.082.404.22.771.414 1.099.199.328.465.592.799.791.34.193.762.29 1.266.29Zm7.383-8.35V179h-1.626v-9.51h1.626Zm6.24 0-4.509 5.449h-2.276l-.246-1.423h1.863l3.19-4.026h1.978Zm-1.749 9.51-3.498-4.307 1.046-1.177 4.517 5.484h-2.065Zm-91.495 40.203h1.705v11.417h4.395v-11.417h1.687v11.417h4.368v-11.417h1.696V232H24.547v-12.797Zm20.584 12.973a4.69 4.69 0 0 1-1.802-.334 4.094 4.094 0 0 1-1.38-.958 4.266 4.266 0 0 1-.879-1.459 5.354 5.354 0 0 1-.307-1.846v-.369c0-.773.114-1.462.343-2.065a4.6 4.6 0 0 1 .931-1.547 3.979 3.979 0 0 1 1.336-.958 3.835 3.835 0 0 1 1.547-.326c.68 0 1.265.118 1.758.352.498.234.905.563 1.221.984.317.416.551.909.703 1.477.153.562.23 1.178.23 1.846v.729H41.73v-1.327h5.475v-.123a4.062 4.062 0 0 0-.264-1.231 2.215 2.215 0 0 0-.703-.984c-.322-.258-.761-.387-1.318-.387a2.204 2.204 0 0 0-1.82.923 3.458 3.458 0 0 0-.518 1.116c-.123.44-.184.947-.184 1.521v.369c0 .451.061.876.184 1.275.129.392.313.738.554 1.037.246.298.542.533.887.703.352.17.75.255 1.196.255.574 0 1.06-.118 1.459-.352a3.613 3.613 0 0 0 1.046-.94l.984.782a4.59 4.59 0 0 1-.782.888 3.741 3.741 0 0 1-1.17.685c-.456.176-.998.264-1.625.264Zm11.698-13.825h1.336c0 .574-.088 1.031-.264 1.371a1.918 1.918 0 0 1-.72.773 3.609 3.609 0 0 1-1.02.413c-.375.094-.764.185-1.169.273a5.317 5.317 0 0 0-1.406.501 3.278 3.278 0 0 0-1.108.949c-.304.41-.53.943-.676 1.599-.14.657-.179 1.468-.114 2.435v.809h-1.336v-.809c0-1.084.102-2.03.307-2.839.211-.808.507-1.491.888-2.048a4.63 4.63 0 0 1 1.353-1.327 5.111 5.111 0 0 1 1.74-.677c.458-.087.85-.181 1.178-.281.329-.105.578-.246.747-.422.176-.175.264-.416.264-.72Zm-1.925 4.684c.621 0 1.175.109 1.661.325.487.217.9.519 1.24.906.34.386.597.843.773 1.371a5.14 5.14 0 0 1 .273 1.705v.193a5.7 5.7 0 0 1-.29 1.846 4.255 4.255 0 0 1-.835 1.476 3.789 3.789 0 0 1-1.336.976c-.522.234-1.117.352-1.785.352-.667 0-1.265-.118-1.792-.352a3.896 3.896 0 0 1-1.336-.976 4.37 4.37 0 0 1-.844-1.476 5.863 5.863 0 0 1-.281-1.846v-.193c0-.147.026-.29.079-.431.052-.14.117-.284.193-.431a3.74 3.74 0 0 0 .22-.465 5.628 5.628 0 0 1 .887-1.468 4.471 4.471 0 0 1 1.363-1.09c.533-.281 1.136-.422 1.81-.422Zm-.316 1.327c-.598 0-1.09.138-1.477.413-.38.276-.665.642-.852 1.099-.188.451-.282.94-.282 1.468v.193c0 .445.053.867.159 1.266.105.398.263.753.474 1.063.217.305.49.545.818.721.334.176.726.264 1.178.264.45 0 .84-.088 1.168-.264a2.28 2.28 0 0 0 .809-.721c.21-.31.37-.665.475-1.063.105-.399.158-.821.158-1.266v-.193a4 4 0 0 0-.158-1.134 2.797 2.797 0 0 0-.484-.949 2.195 2.195 0 0 0-.817-.651c-.328-.164-.718-.246-1.17-.246Zm8.78 6.654 2.646-8.526h1.74l-3.815 10.978a6.096 6.096 0 0 1-.351.756c-.14.275-.322.536-.545.782a2.608 2.608 0 0 1-.809.598c-.31.158-.682.237-1.116.237-.129 0-.293-.018-.492-.053-.2-.035-.34-.064-.422-.088l-.009-1.318c.047.006.12.012.22.017.105.012.179.018.22.018.369 0 .682-.05.94-.149.258-.094.475-.255.65-.484.182-.222.337-.53.466-.923l.677-1.845Zm-1.942-8.526 2.47 7.383.421 1.714-1.169.598-3.498-9.695h1.776Zm14.247 4.122v1.319h-5.028v-1.319h5.028Zm-4.685-4.122V232h-1.626v-9.51h1.626Zm6.003 0V232h-1.635v-9.51h1.635Zm4.377 6.935 4.386-6.935h1.635V232h-1.635v-6.935L81.368 232h-1.617v-9.51h1.617v6.935Zm15.082-2.813v1.319h-5.027v-1.319h5.027Zm-4.684-4.122V232H90.14v-9.51h1.626Zm6.003 0V232h-1.635v-9.51h1.635Zm2.188 4.861v-.203c0-.685.1-1.321.299-1.907a4.529 4.529 0 0 1 .861-1.538 3.845 3.845 0 0 1 1.362-1.019 4.234 4.234 0 0 1 1.793-.37c.668 0 1.269.124 1.802.37.539.24.996.58 1.371 1.019.381.434.671.946.87 1.538.2.586.299 1.222.299 1.907v.203a5.87 5.87 0 0 1-.299 1.907 4.561 4.561 0 0 1-.87 1.538 3.992 3.992 0 0 1-1.362 1.019c-.527.241-1.125.361-1.793.361-.668 0-1.269-.12-1.802-.361a4.085 4.085 0 0 1-1.371-1.019 4.646 4.646 0 0 1-.861-1.538 5.896 5.896 0 0 1-.299-1.907Zm1.626-.203v.203c0 .474.056.922.167 1.344.111.416.278.785.501 1.108.228.322.513.577.853.764.339.182.735.273 1.186.273.445 0 .835-.091 1.169-.273.34-.187.621-.442.844-.764.222-.323.389-.692.501-1.108a5.01 5.01 0 0 0 .175-1.344v-.203c0-.468-.058-.911-.175-1.327a3.438 3.438 0 0 0-.51-1.116 2.42 2.42 0 0 0-.844-.773c-.334-.188-.726-.282-1.178-.282-.445 0-.837.094-1.177.282a2.52 2.52 0 0 0-.844.773 3.51 3.51 0 0 0-.501 1.116 5.132 5.132 0 0 0-.167 1.327Z" fill="#fff"/><path d="m123.999 185-27 13.5c-2 1.333-5 4.2-1 5" stroke="#fff" stroke-width="3"/><path d="M296.5 141.5c-4-.5-13.2-3-16-7" stroke="#6F6F6F" stroke-width="4"/><path d="m566 37 8-7c3-1.833 7.6-2.3 2 10.5-1.667 3.167-13.2 8.8-46 6L512.5 59l-6.5 8-16.5 1.5c-1.833 5-8.1 12.7-18.5 3.5l-26.5 15.5-4 9H421c-5.5 5.167-18 15.9-24 17.5-7.5 2-6.5 2-22 4.5l2.5 10.5-5 26c3 1.667 6.7 4.8-2.5 4l-4.5 7.5c-10.333 3.333-33.3 13.7-42.5 28.5-1.5 2-4.8 6.8-6 10l-51.5-1c-1.667-3.333-5-7.8-5 1-10.5 4.833-37.2 14.3-60 13.5m0 0c-3.5-8-13.5-16-31-22.5.333-7.333-1.1-23.7-9.5-30.5l-2-3-32.5 21.5-2.5 1.5.5 10.5m77 22.5 14.5-32c3.167-.5 3-7 3.5-7L233 176c.667.667 2.1-2.1 2.5-18.5" stroke="#FF6C01" stroke-width="3"/><path d="m566 37 8-7c3-1.833 7.6-2.3 2 10.5M512.5 59l-6.5 8-16.5 1.5c-1.833 5-8.1 12.7-18.5 3.5l-26.5 15.5-4 9H421c-5.5 5.167-18 15.9-24 17.5-7.5 2-6.5 2-22 4.5m0 0 2.5 10.5-5 26m2.5-36.5c-8.333 0-27.8-1.6-39-8s-31.167 25.333-44 35.5c-11 8.333-43.9 11.7-53.5 10.5" stroke="#fff" stroke-width="3"/><circle cx="566" cy="36" r="6" fill="#fff"/><circle cx="237" cy="158" r="6" fill="#FF6C01"/><circle cx="281" cy="134" r="6" fill="#6F6F6F"/><circle cx="158" cy="164" r="6" fill="#FF6C01"/><circle cx="125" cy="198" r="6" fill="#FF6C01"/><circle cx="99" cy="207" r="6" fill="#fff"/><circle cx="375" cy="118" r="6" fill="#fff"/><circle cx="322" cy="114" r="6" fill="#fff"/><circle cx="253" cy="207" r="6" fill="#FF6C01"/></svg>