<svg width="361" height="309" fill="none" xmlns="http://www.w3.org/2000/svg"><path d="M1542.91-407.408c-13.38-6.769-12.36-22.191-14.62-35.879-2.26-13.688-13.43 29.245-22.25 34.962-11.01 7.147-19.6 36.545-26.83 48.122-7.22 11.578-10.39-1.078-20.63 3.095-10.24 4.174-8.44 16.722-21.27 25.936-12.84 9.213-21 .585-14.57-11.33 6.42-11.914.04-11.304-8.59-21.071-8.62-9.767-13.34 1.451-14.54 9.908-1.19 8.457 4.39 7.51-.77 20.901s-6.62.04-9.63-7.363c-3.02-7.404-3.31.02-20.32-1.018s-17.59-18.733-21.87-27.613c-4.28-8.88 17.07-6.955 24.09-15.79 7.01-8.836-38.15-38.247-42.87-44.955-4.72-6.708-17.07 6.955-33.4 22.241-16.32 15.286-23.34 24.122-35.41 27.05-12.08 2.929-85.29 26.784-98.94 32.349-13.66 5.564-25.04-7.726-34.66-11.778-9.61-4.052-26.17 10.665-33.56 13.679-7.4 3.014-10.2 10.796-17.64 7.188-7.44-3.609-28.79 12.393-43.24 17.62-14.46 5.227.99 12.212-6.31 28.471-7.31 16.258-16.21-.7-22.85-3.971-6.641-3.271-6.424 11.915-15.729 36.293-9.306 24.378-50.263 58.998-80.081 70.485-29.817 11.486-27.422-5.428-55.809-1.829-28.388 3.599-49.058 17.999-69.45 39.59-20.393 21.592-93.645 38.825-149.635 60.977-55.989 22.151-142.927 23.71-164.802 28.64-21.874 4.93-81.151 80.882-107.891 91.779-26.741 10.897-51.932-2.08-73.178-5.376-21.246-3.296-70.019 39.822-92.545 49.665-22.526 9.844-74.016 5.591-91.362 5.355-17.346-.237-56.678 38.37-83.778 46.757-27.1 8.387-14.366 18.471-17.48 30.366-3.115 11.894 11.947-4.869 19.179 1.481 7.232 6.35 20.19-.923 34.205-3.977 14.014-3.055 64.913-1.882 76.419-4.578 11.506-2.697 33.284 11.671 37.716 25.803 4.432 14.132-14.771 9.339-14.262 17.101.509 7.761.24 18.496 12.749 45.938 12.51 27.442-54.627 54.8-64.299 58.742-9.672 3.941-21.62 8.81-16.582 11.406 5.038 2.595 27.564-7.248 33.254-9.567 5.689-2.318 26.643 8.401 32.857-.772 6.214-9.173 45.681-27.912 62.158-37.947 16.477-10.034 10.346-5.544-.172-8.562-10.518-3.019-4.649-29.317 6.977-48.001 11.626-18.683 26.382-13.406 42.986-21.501 16.605-8.094 7.793-11.809 5.63-44.795-2.164-32.986 101.79-66.05 122.04-74.966 20.251-8.916 131.616-9.14 154.673-7.91 23.058 1.228 10.032-1.432 33-13.448 22.967-12.016 54.32 17.709 69.674 43.992 15.354 26.282 19.666 56.401 11.289 83.057s-38.771 70.917-43.046 79.964c-4.275 9.047-12.831 9.213-27.706 19.923-14.876 10.711 1.332 11.411 2.784 6.835 1.453-4.577 32.034-4.421 34.767-22.137 2.186-14.172 14.091-36.511 19.771-45.908 10.57-22.902 63.82-45.265 71.216-48.279 7.397-3.014 12.914-13.896 17.885-21.234 4.971-7.338 14.224-5.796 23.327-9.506 9.103-3.709 5.667-5.629 10.046-16.047 4.38-10.417 16.141-9.233 28.74-19.016 12.599-9.783 39.31-41.918 59.051-58.595 19.742-16.678 73.411-44.524 103.206-59.322 29.795-14.798 77.898-56.313 97.318-68.878 19.43-12.565 41.99-33.713 46.06-40.018 4.06-6.305-3.25-7.973-.47-19.066 2.77-11.093 8.53-3.477 23.58-5.625 15.05-2.147 23.95-17.731 26.74-10.897 2.78 6.834 18.02-1.366 29.4-6.003 11.38-4.637 34.46-.096 47-1.886 12.54-1.789 74.42-29.001 84.18-37.625 9.75-8.623-11.95 4.869-19.85.122-7.91-4.748 54.82-42.926 65.37-51.212 10.56-8.286 16.99-2.273 23.76 2.938 6.76 5.211-13.19 6.703-19.35 7.883-6.15 1.179-7.27 4.954-14.98 12.081-7.71 7.126-3.66 15.437 4.88 11.959 8.53-3.478 92.88-83.009 97.41-88.175 4.53-5.166 1.9-6.749 9.17-11.703s1.07 7.53 6.2 5.443c5.12-2.087 12.36-10.352 28.44-11.592 16.08-1.241 18.61 1.713 30.22-2.355 11.62-4.067 8.24-13.981 17.38-28.995 7.31-12.011 22.32-23.925 28.9-28.38 6.59-4.456 1.45-5.68-1.85-4.556-3.3 1.124-13.25 1.679-26.62-5.09Z" fill="url(#a)" fill-opacity=".24"/><defs><linearGradient id="a" x1="60.512" y1="226.355" x2="456.901" y2="-20.189" gradientUnits="userSpaceOnUse"><stop offset=".083" stop-color="#9C9C9C"/><stop offset=".848" stop-color="#191C20"/><stop offset="1" stop-color="#191C20" stop-opacity="0"/></linearGradient></defs></svg>