<svg width="840" height="503" fill="none" xmlns="http://www.w3.org/2000/svg"><path d="M822.003 21.22c-7.798-2.962-8.142-11.555-10.196-18.996-2.054-7.442-5.713 16.97-10.256 20.651-5.678 4.602-8.705 21.373-12.023 28.203-3.318 6.83-5.813.013-11.235 2.923s-3.692 9.75-10.251 15.6c-6.56 5.852-11.582 1.556-8.726-5.414 2.855-6.97-.643-6.257-5.988-11.156-5.346-4.898-7.297 1.586-7.464 6.336-.166 4.75 2.868 3.898.8 11.61-2.068 7.714-3.66.412-5.763-3.508-2.104-3.92-1.83.205-11.303.63-9.473.423-10.83-9.335-13.721-13.998-2.89-4.662 9.037-4.85 12.4-10.15 3.363-5.301-23.35-18.926-26.358-22.36-3.007-3.435-9.037 4.85-17.175 14.266-8.138 9.417-11.501 14.718-18.011 17.047-6.51 2.329-45.62 19.826-52.849 23.706-7.229 3.88-14.31-2.806-19.867-4.484s-13.856 7.438-17.772 9.54c-3.916 2.102-5.009 6.572-9.338 5.012-4.33-1.56-15.201 8.547-22.894 12.288-7.692 3.74 1.268 6.699-1.821 16.124-3.089 9.426-9.01.564-12.876-.856-3.866-1.42-2.855 6.97-6.574 21.005-3.718 14.036-24.351 35.597-40.176 43.703-15.826 8.106-15.493-1.394-30.99 2.263-15.497 3.658-26.09 12.839-36.107 25.983s-49.541 26.979-79.223 42.522c-29.682 15.543-77.698 21.508-89.513 25.519-11.815 4.012-40.159 49.519-54.316 57.118-14.158 7.599-28.859 1.896-40.809 1.32-11.95-.577-36.408 26.144-48.296 32.913-11.887 6.769-40.629 7.437-50.241 8.324-9.612.887-29.111 24.558-43.615 30.789-14.504 6.232-6.866 11.065-7.891 17.829-1.025 6.765 6.326-3.395 10.7-.306 4.374 3.09 11.118-1.695 18.694-4.208 7.575-2.512 35.81-4.85 42.018-7.017 6.209-2.168 19.103 4.505 22.385 12.065 3.281 7.56-7.626 6.035-6.889 10.3.738 4.265 1.218 10.221 9.75 24.672 8.533 14.451-27.011 33.529-32.132 36.278-5.121 2.748-11.447 6.144-8.507 7.284 2.94 1.141 14.828-5.628 17.84-7.245 3.012-1.617 15.236 3.085 18.136-2.355 2.9-5.441 23.64-18.126 32.169-24.646 8.529-6.519 5.4-3.675-.598-4.728-5.997-1.053-4.293-15.95 1.044-26.97 5.337-11.021 13.812-8.967 22.525-14.421 8.713-5.453 3.62-6.991.487-25.117s52.45-42.523 63.132-48.645c10.682-6.122 72.294-12.781 85.125-13.454 12.831-.673 5.467-1.381 17.471-9.378 12.004-7.996 31.097 6.612 41.136 20.255 10.039 13.642 14.192 30.055 11.121 45.297-3.071 15.242-17.293 41.518-19.127 46.775-1.835 5.257-6.56 5.851-14.163 12.65-7.602 6.8 1.407 6.236 1.942 3.619.535-2.618 17.467-4.326 17.939-14.29.378-7.97 5.655-21.03 8.247-26.564 4.505-13.293 32.659-28.792 36.575-30.894 3.915-2.102 6.33-8.447 8.65-12.799 2.32-4.353 7.531-4.042 12.35-6.629 4.82-2.587 2.806-3.448 4.618-9.47 1.812-6.021 8.389-6.056 14.787-12.209 6.398-6.152 19.293-25.502 29.238-35.889 9.945-10.387 38.009-28.945 53.628-38.882 15.619-9.937 39.798-35.732 49.811-43.825 10.012-8.093 21.257-21.119 23.136-24.847 1.88-3.727-2.265-4.221-1.379-10.522.886-6.302 4.518-2.425 12.719-4.497 8.2-2.071 12.215-11.217 14.157-7.599 1.942 3.618 9.891-1.813 15.916-5.047 6.024-3.233 19.062-2.075 25.896-3.801s39.483-20.416 44.375-25.76c4.891-5.345-6.326 3.395-10.979 1.232-4.653-2.163 27.817-26.97 33.171-32.175 5.355-5.204 9.266-2.255 13.317.232 4.051 2.486-6.906 4.483-10.242 5.497-3.336 1.014-3.731 3.168-7.58 7.564s-1.12 8.757 3.399 6.332c4.518-2.425 46.529-51.384 48.732-54.509 2.203-3.124.652-3.845 4.384-7.013 3.731-3.168 1.038 4.103 3.749 2.648 2.711-1.455 6.236-6.454 15.062-8.084 8.825-1.63 10.398-.145 16.585-3.077 6.186-2.932 3.736-8.22 7.913-17.064 3.342-7.075 10.945-14.548 14.329-17.4 3.384-2.852.466-3.228-1.295-2.412-1.761.815-7.232 1.706-15.029-1.255Z" fill="#9C9C9C" fill-opacity=".24"/></svg>