<svg width="365" height="310" fill="none" xmlns="http://www.w3.org/2000/svg"><path d="M614.135 15.632c-5.384-2.632-5.065-8.804-6.044-14.264-.98-5.46-5.206 11.767-8.699 14.102-4.367 2.918-7.637 14.72-10.461 19.389-2.824 4.668-4.16-.374-8.232 1.351-4.071 1.726-3.284 6.733-8.363 10.488-5.079 3.754-8.389.35-5.887-4.45 2.502-4.798-.048-4.52-3.55-8.377-3.502-3.857-5.326.655-5.758 4.043-.432 3.388 1.796 2.978-.192 8.36-1.988 5.383-2.646.053-3.893-2.89-1.247-2.944-1.323.026-8.129-.294-6.806-.321-7.135-7.393-8.896-10.92-1.761-3.526 6.786-2.875 9.541-6.446 2.756-3.572-15.462-15.08-17.387-17.736-1.926-2.656-6.786 2.875-13.23 9.077-6.443 6.202-9.199 9.774-14.01 11.011-4.812 1.238-33.95 11.182-39.378 13.482-5.429 2.3-10.055-2.95-13.921-4.517-3.865-1.566-10.405 4.41-13.345 5.656-2.941 1.246-4.017 4.372-7.012 2.97-2.995-1.4-11.44 5.116-17.191 7.285-5.751 2.17.466 4.878-2.365 11.419-2.832 6.54-6.484-.19-9.157-1.461-2.674-1.271-2.503 4.799-6.088 14.597-3.585 9.799-19.769 23.867-31.627 28.625-11.858 4.758-10.994-2.018-22.324-.422-11.33 1.597-19.514 7.469-27.548 16.214-8.034 8.746-37.226 16.042-59.489 25.209-22.263 9.167-57.013 10.272-65.732 12.364-8.719 2.092-31.998 32.788-42.629 37.293-10.631 4.505-20.775-.544-29.287-1.744-8.513-1.2-27.775 16.309-36.726 20.37-8.952 4.06-29.563 2.645-36.499 2.647-6.936.001-22.448 15.655-33.237 19.158-10.789 3.504-5.641 7.465-6.82 12.238-1.18 4.773 4.75-2.013 7.676.486 2.926 2.499 8.067-.481 13.654-1.78 5.586-1.299 25.943-1.112 30.528-2.253 4.586-1.142 13.372 4.482 15.222 10.107 1.85 5.626-5.853 3.816-5.607 6.917.247 3.1.199 7.393 5.352 18.296 5.154 10.902-21.537 22.213-25.382 23.842-3.846 1.63-8.596 3.643-6.567 4.652 2.029 1.01 10.98-3.05 13.242-4.009 2.262-.958 10.7 3.211 13.133-.49 2.434-3.702 18.11-11.413 24.642-15.517 6.532-4.103 4.106-2.274-.116-3.422-4.222-1.149-2.022-11.696 2.523-19.23 4.545-7.535 10.474-5.507 17.068-8.835 6.594-3.329 3.05-4.765 2.002-17.941-1.047-13.177 40.332-26.972 48.379-30.649 8.047-3.677 52.572-4.384 61.797-4.02 9.226.363 4.003-.628 13.12-5.56 9.116-4.931 21.816 6.78 28.1 17.203 6.285 10.423 8.176 22.441 4.974 33.145-3.201 10.704-15.108 28.569-16.767 32.21-1.659 3.641-5.079 3.755-10.967 8.119-5.888 4.365.596 4.555 1.151 2.717.555-1.838 12.783-1.945 13.777-9.043.796-5.678 5.432-14.676 7.651-18.465 4.099-9.215 25.266-18.451 28.206-19.697 2.941-1.246 5.086-5.627 7.033-8.589 1.947-2.961 5.655-2.396 9.274-3.93 3.619-1.533 2.235-2.282 3.928-6.471 1.693-4.19 6.402-3.781 11.385-7.763 4.983-3.981 15.485-16.977 23.285-23.754 7.801-6.778 29.104-18.209 40.935-24.29 11.831-6.082 30.832-22.947 38.529-28.078 7.698-5.131 16.602-13.712 18.192-16.255 1.591-2.544-1.343-3.17-.294-7.621 1.049-4.45 3.393-1.437 9.397-2.379 6.005-.942 9.48-7.222 10.631-4.505 1.152 2.717 7.197-.646 11.721-2.563 4.524-1.917 13.777-.23 18.781-1.015 5.003-.785 29.597-12.007 33.449-15.51 3.852-3.501-4.75 2.014-7.937.16-3.187-1.855 21.681-17.467 25.855-20.838 4.175-3.372 6.779-1.004 9.514 1.042 2.734 2.046-5.237 2.754-7.691 3.26-2.454.505-2.879 2.02-5.922 4.913-3.044 2.892-1.378 6.192 2.015 4.754 3.392-1.438 36.678-33.703 38.461-35.794 1.782-2.09.72-2.708 3.598-4.73 2.879-2.02.473 3.005 2.509 2.142 2.036-.862 4.887-4.207 11.31-4.792 6.422-.585 7.45.582 12.07-1.109 4.62-1.69 3.215-5.635 6.786-11.689 2.857-4.843 8.79-9.69 11.399-11.507 2.61-1.818.547-2.28-.767-1.811-1.314.467-5.287.745-10.672-1.888Z" fill="#9C9C9C" fill-opacity=".24"/></svg>