<svg width="1004" height="482" fill="none" xmlns="http://www.w3.org/2000/svg"><path d="M983.654 25.252c-8.525-4.315-7.879-14.146-9.32-22.87-1.441-8.726-8.558 18.64-14.178 22.285-7.024 4.556-12.498 23.295-17.103 30.675-4.605 7.38-6.623-.687-13.151 1.973s-5.383 10.66-13.563 16.532c-8.179 5.873-13.38.373-9.286-7.221 4.095-7.595.024-7.206-5.473-13.432-5.498-6.226-8.504.925-9.268 6.316-.763 5.39 2.797 4.787-.491 13.323-3.288 8.536-4.219.025-6.142-4.694-1.923-4.72-2.109.013-12.951-.648-10.842-.662-11.209-11.942-13.939-17.602-2.73-5.66 10.88-4.434 15.352-10.066 4.471-5.632-24.314-24.38-27.325-28.656-3.011-4.275-10.88 4.434-21.288 14.178s-14.879 15.376-22.576 17.243c-7.698 1.866-54.363 17.073-63.067 20.62-8.705 3.547-15.963-4.925-22.09-7.508-6.127-2.582-16.683 6.799-21.398 8.72-4.715 1.921-6.499 6.882-11.243 4.581-4.743-2.3-18.348 7.9-27.563 11.233-9.215 3.331.635 7.784-4.023 18.148-4.657 10.364-10.331-.447-14.564-2.531-4.233-2.085-4.094 7.594-10.026 23.134-5.931 15.54-32.039 37.608-51.046 44.93-19.007 7.322-17.48-3.46-35.576-1.165-18.095 2.294-31.271 11.473-44.27 25.236-12.999 13.763-59.693 24.748-95.383 38.868-35.69 14.121-91.107 15.115-105.051 18.257-13.944 3.142-51.729 51.557-68.774 58.503-17.046 6.947-33.104-1.326-46.647-3.426-13.543-2.101-44.633 25.384-58.992 31.658-14.359 6.275-47.18 3.564-58.237 3.413-11.057-.151-36.13 24.459-53.404 29.805-17.275 5.346-9.157 11.775-11.143 19.357-1.985 7.581 7.617-3.104 12.226.944 4.61 4.048 12.87-.588 21.804-2.535 8.933-1.948 41.378-1.2 48.712-2.919 7.335-1.719 21.217 7.44 24.042 16.449 2.825 9.008-9.416 5.953-9.091 10.9.325 4.948.153 11.791 8.127 29.283 7.974 17.493-34.822 34.932-40.987 37.444-6.165 2.513-13.782 5.616-10.57 7.271 3.211 1.654 17.57-4.62 21.197-6.098 3.627-1.478 16.984 5.355 20.945-.492 3.96-5.847 29.119-17.792 39.622-24.189 10.503-6.397 6.595-3.534-.11-5.458-6.705-1.925-2.963-18.688 4.447-30.598 7.411-11.909 16.817-8.546 27.401-13.705 10.585-5.16 4.968-7.528 3.589-28.554-1.379-21.027 64.885-42.103 77.793-47.787 12.909-5.683 83.897-5.826 98.595-5.043 14.698.784 6.395-.912 21.035-8.571 14.641-7.66 34.626 11.288 44.413 28.042 9.788 16.753 12.536 35.952 7.197 52.944-5.34 16.992-24.715 45.205-27.44 50.972-2.724 5.767-8.179 5.873-17.661 12.7-9.482 6.827.85 7.273 1.775 4.356.926-2.917 20.42-2.818 22.162-14.11 1.393-9.034 8.982-23.274 12.602-29.264 6.739-14.599 40.682-28.854 45.397-30.775 4.714-1.921 8.231-8.857 11.4-13.535 3.169-4.678 9.067-3.695 14.87-6.059 5.803-2.365 3.612-3.589 6.404-10.23 2.791-6.64 10.288-5.885 18.32-12.121 8.031-6.236 25.057-26.72 37.641-37.351s46.795-28.382 65.787-37.814c18.993-9.433 49.653-35.896 62.037-43.906 12.383-8.009 26.766-21.49 29.357-25.509 2.591-4.019-2.071-5.082-.3-12.153 1.77-7.071 5.44-2.217 15.031-3.586 9.592-1.369 15.271-11.302 17.046-6.946 1.775 4.356 11.486-.871 18.74-3.827 7.253-2.955 21.965-.061 29.958-1.202 7.994-1.14 47.444-18.486 53.662-23.983 6.218-5.497-7.616 3.103-12.656.077-5.039-3.026 34.946-27.363 41.675-32.644 6.728-5.282 10.827-1.449 15.141 1.872 4.314 3.322-8.408 4.273-12.331 5.025-3.922.752-4.633 3.158-9.549 7.701-4.915 4.543-2.333 9.84 3.107 7.624 5.44-2.217 59.211-52.914 62.098-56.207 2.887-3.293 1.208-4.302 5.841-7.46 4.634-3.158.687 4.8 3.951 3.47 3.265-1.33 7.884-6.6 18.134-7.39s11.863 1.092 19.265-1.5c7.401-2.593 5.249-8.912 11.076-18.483 4.661-7.656 14.225-15.25 18.428-18.09 4.2-2.84.92-3.621-1.19-2.905-2.101.717-8.442 1.07-16.966-3.244Z" fill="url(#a)" fill-opacity=".24"/><defs><linearGradient id="a" x1="38.716" y1="429.237" x2="592.918" y2="138.73" gradientUnits="userSpaceOnUse"><stop offset=".083" stop-color="#9C9C9C"/><stop offset=".848" stop-color="#191C20"/><stop offset="1" stop-color="#191C20" stop-opacity="0"/></linearGradient></defs></svg>