<svg width="85" height="101" fill="none" xmlns="http://www.w3.org/2000/svg"><g clip-path="url(#a)" fill="#fff"><path d="m25.049 58.974 1.034 1.476h-.69l-.989-1.415h-.93v1.415h-.599v-4.08h1.709c.855 0 1.514.557 1.514 1.325-.015.632-.435 1.114-1.05 1.28Zm-1.59-.496h1.035c.585 0 .974-.286.974-.768 0-.482-.39-.768-.974-.768H23.46v1.536Zm3.914-1.551v1.16h2.159v.556h-2.159v1.235h2.384v.557h-2.984v-4.08h2.984v.557h-2.384v.015Zm3.207-.557h.6l2.338 3.086V56.37h.6v4.08h-.6l-2.338-3.086v3.086h-.6v-4.08Zm5.608.557h-1.335v-.557h3.269v.557h-1.335v3.523h-.6v-3.523Zm5.082 2.695h-2.114l-.36.828h-.66l1.74-4.08h.66l1.738 4.08h-.66l-.344-.828Zm-.225-.542-.825-1.942-.824 1.942h1.649Zm4.542.813v.556h-2.759V56.37h.6v3.523h2.159Zm2.159-1.49c0-1.145.974-2.108 2.114-2.108.584 0 1.11.241 1.499.647l-.42.407a1.463 1.463 0 0 0-1.08-.497c-.809 0-1.498.708-1.498 1.55 0 .843.69 1.566 1.499 1.566.42 0 .81-.196 1.08-.497l.419.407c-.39.39-.915.647-1.5.647-1.139 0-2.113-.963-2.113-2.122Zm7.061 1.219h-2.114l-.36.828h-.66l1.74-4.08h.66l1.738 4.08h-.66l-.344-.828Zm-.24-.542-.824-1.942-.825 1.942h1.65Zm4.033-.106 1.034 1.476h-.69l-.99-1.415h-.929v1.415h-.6v-4.08h1.71c.854 0 1.514.557 1.514 1.325-.015.632-.435 1.114-1.05 1.28Zm-1.59-.496h1.035c.584 0 .974-.286.974-.768 0-.482-.39-.768-.974-.768H57.01v1.536Zm3.088 1.384.36-.451c.36.346.779.572 1.334.572.554 0 .854-.301.854-.617 0-.392-.33-.542-1.02-.693-.824-.195-1.378-.451-1.378-1.174 0-.677.584-1.204 1.409-1.204.63 0 1.094.226 1.484.572l-.345.452c-.345-.316-.75-.497-1.17-.497-.449 0-.779.286-.779.617 0 .376.345.512 1.02.678.81.195 1.379.466 1.379 1.189 0 .692-.525 1.204-1.484 1.204-.675 0-1.23-.226-1.664-.648Zm-30.866-8.263v1.67h-6.117v-8.61h1.844v6.94h4.273Zm2.143-6.939h1.844v8.61h-1.844v-8.61Zm8.41 3.763h3.793v3.537c-.855.903-2.19 1.445-3.463 1.445-2.489 0-4.588-2.047-4.588-4.455 0-2.409 2.114-4.44 4.588-4.44 1.289 0 2.608.541 3.463 1.444l-1.335 1.204c-.51-.587-1.349-.963-2.128-.963-1.455 0-2.699 1.28-2.699 2.77 0 1.505 1.23 2.784 2.699 2.784a2.8 2.8 0 0 0 1.664-.557v-1.31h-1.994v-1.46Zm13.853-3.763v8.61h-1.83v-3.553h-3.897v3.553h-1.829v-8.61h1.829v3.387h3.898V44.66h1.829Zm4.841 1.67H55.81v-1.67h7.181v1.67h-2.668v6.94h-1.844v-6.94ZM30.207 88.522c.33-.903.644-1.791 1.109-2.65.645-1.204 1.14-2.483 1.694-3.732.075-.15.165-.301.045-.452-.315-.421-.33-.451.165-.557.33-.075.345-.316.45-.542.255-.572.48-1.174.794-1.716.165-.27.18-.421-.06-.632-.12-.105-.42-.27-.225-.451.27-.271.225.18.375.24.135.06.315.06.36-.075.405-1.038.81-2.077 1.2-3.116-.286.046-.33-.105-.316-.346-.224.03-.374-.075-.48-.256.226.09.375-.526.645-.09l.18.045c.33-.075.555-.27.66-.572.18-.527.18-1.114.674-1.52.24-.196.105-.301-.194-.346-.375-.06-.42-.497-.135-.783-.195-.391-.525-.24-.825-.226 0 .06 0 .136-.015.196-.09.165-.15.421-.285.466-.78.256-.764.949-.884 1.55.285.031.554.031.854-.074-.27.18-.315.557-.674.587-.285-.015-.255.602-.66.36-.45.964-.93 1.913-1.32 2.906-.194.512-.659.978-.374 1.61-.57.211-.705.768-.884 1.22-.315.858-1.035 1.595-.855 2.619-.195-.15-.315.03-.375.135-.27.557-.51 1.114-.764 1.686.345-.256.69-.527 1.14.136-1.05-.542-.496.617-.9.722-.36-.12-.03-.512-.21-.662a.733.733 0 0 1-.165-.06 42.838 42.838 0 0 1-2.324 5.313c-.315.602 0 .978.18 1.4.135.286.72.256.63.828-.03.15.3.15.405-.09.374-.949.749-1.897 1.124-2.86.045-.06.195-.106.24-.211Zm.99-6.307s.014 0 .014.015c.225-.075.465-.166.405-.482-.045-.286.105-.481.345-.406.255.075.165.421.09.587-.15.361-.435.572-.84.316-.015 0-.015 0-.03.015.015-.03.015-.045.015-.045Zm-1.305 6.548v-.03c-.495-.196-.585-.648-.645-1.1-.015-.12.075-.225.195-.195.09.03.225.12.24.196.09.361.135.737.195 1.099.015 0 .015.015.03.015l-.015.015Zm-2.64-2.845c.39-.076.405-.407.57-.648.674-1.053.9-2.302 1.514-3.401.84-1.505 1.499-3.131 2.144-4.742.104-.256.63-.797-.15-1.053-.105-.03-.135-.181-.03-.271.045-.045.18-.075.195-.045.284.376.48.255.66-.09.09-.196-.076-.242-.18-.302-.106-.075-.27.226-.39-.03.584-.21.584-.21.36-.617.194-.346.404.467.599 0 .12-.271.225-.557.345-.843-.3-.105-.105-1.069-.825-.497-.18.15-.3.106-.42-.045-.12-.135-.044-.196.105-.18.405.015.465-.392.435-.572-.075-.422-.524.572-.66-.12-.014-.046-.12.195-.194.285-.315.406-.33.933-.57 1.4-1.26 2.408-2.279 4.937-3.433 7.496.675-.196.914.482 1.59.632-.556.045-.915.136-1.275.075-.585-.105-.765.256-.93.678-.374.858-.644 1.776-1.169 2.559-.09.135-.105.3.015.376.27.18.255.18-.06.27-.435.136-.645.663-.525.98.18.436.51.842.675 1.339-.36-.075-.39-.376-.585-.527-.21-.18-.284.015-.404.12-.135.12-.285.317-.03.377.404.105.33.542.644.677-.36.271-.57-.3-.974-.015.375.422.794.723 1.379.888.045-.376-.405-.316-.24-.707.195-.452.345-.18.54-.106.045.015.15-.06.18-.12.404-.903.794-1.806 1.169-2.71.015-.045-.03-.195-.075-.21-.375-.045-.225-.256 0-.301ZM32.41 73.47c-.03.436-.3.511-.465.752-.105-.511.195-.527.465-.752Zm-2.159 4.064c.015-.045.105-.12.165-.12.09-.016.18.03.375.06-.165.135-.255.225-.345.255-.09.016-.225-.045-.195-.195Zm-17.765 4.32c.06-.06.105-.12.165-.181.18-.166.405-.18.465.045.194.632.66.647 1.184.632 2.114-.015 4.227-.09 6.326.015 1.05.046 1.56-.376 1.934-1.249.24-.557.045-.813-.495-.813-2.953 0-5.906 0-8.86.03-.749 0-1.394 1.19-1.064 1.852-.03-.271.075-.392.345-.331Zm2.938-.979c.06-.12.15-.24.315-.21.075.014.15.045.15.045-.06.316-.21.286-.33.286-.06 0-.195.015-.135-.12Zm-.674.346c.015-.015.165.106.24.166-.09.196-.18.301-.375.286-.105 0-.24.015-.255-.12-.045-.286.255-.211.39-.332Zm30.552 6.187c-.03-.361.315-.136.48-.226-.075-.391-.435-.482-.704-.647-.435-.256-.915-.422-1.305-.723-.51-.391-.93-.918-1.679-.647-.06.015-.18 0-.15-.196-.015-.225.345-.03.39-.195-1.08-.723-2.159-1.43-3.223-2.153-.255-.165-.54-.496-.78-.346-.494.316-.81.873-.944 1.445-.09.391.345.587.645.783a1204.29 1204.29 0 0 0 5.801 3.823c1.38.903 1.484.873 1.964-.798-.18-.045-.465.12-.495-.12ZM42.514 87a.478.478 0 0 1-.27-.27c-.045-.09 0-.211.15-.211.18 0 .195.15.27.27 0 .121-.015.257-.15.211Zm1.649.888c-.105 0-.21-.014-.24-.15-.015-.136.06-.196.165-.196.15.015.285.045.285.211.03.135-.105.12-.21.135Zm-30.191-7.901c2.563 0 5.127-.06 7.675 0 1.02.03 1.574-.286 1.934-1.234.225-.602.165-.828-.465-.828-.72 0-1.454.015-2.174.015-.075 0-.164.03-.15.136.21 1.113-.584.797-1.124.827.3-.36-.375-.24-.255-.541.09-.241.18-.467-.285-.452-.794.015-.779-.015-.944.452-.015.075-.105.15-.165.165-.06.015-.21-.06-.21-.09 0-.768-.57-.467-.93-.482-.674-.03-1.348.03-2.023-.015-.794-.045-1.29.196-1.589.993-.405.994-.405 1.054.705 1.054Zm5.681-1.069s-.015 0-.015-.015c0 .015.03.015.015.015.225.12.39.271.24.542-.03.06-.285.06-.36 0-.255-.24-.12-.406.12-.542Zm-3.088-.451c.165.045.285.15.315.316-.015.165-.135.21-.225.165a.667.667 0 0 1-.255-.285c-.06-.12.03-.241.165-.196Zm.21.843c.03 0 .09.075.09.105 0 .286-.255.271-.495.406.015-.376.15-.496.405-.511Zm26.324 12.312c-.78-.451-1.53-.963-2.309-1.415-.195-.12-.3-.481-.57-.36-.3.135.15.436-.045.632h.015c.27-.076.495.03.705.21-.345.241-.495-.105-.705-.21h-.03s0-.016.015-.016c-.36-.135-.87-.09-.914-.617-.03-.421.495.045.63-.361-.93-.451-1.634-1.355-2.804-1.46-.195-.015-.015-.15-.03-.166a1.122 1.122 0 0 0-.87-.662c-.42-.075-.479.256-.539.572-.03.15-.165.286-.255.421-.285.467-.3.798.255 1.16 2.249 1.43 4.467 2.935 6.701 4.41.15.105.33.286.525.15.51-.36.6-.978.764-1.505.09-.27-.195-.587-.54-.783Zm-4.618-.933a.208.208 0 0 1-.255-.195c0-.06.135-.196.21-.196.075-.015.165.09.3.18-.105.09-.165.181-.255.211Zm-.87-.843c.3-.195.346-.692.72-.572.36.12.615.482.66.949-.345-.482-.855-.196-1.38-.377Zm3.134 2.093c-.195.015-.21-.136-.21-.271 0-.12.045-.226.195-.211.135.015.165.12.165.24 0 .106-.015.227-.15.242Zm.345.511c-.06 0-.165-.06-.18-.105-.045-.18.09-.24.225-.271.03 0 .09.09.105.12.015.166-.015.271-.15.256ZM15.2 74.433c-.06.256.105.346.255.466.195.181.345.016.36-.12 0-.316.135-.301.24-.09.195.406.48.33.824.316.99-.045 1.994-.075 2.983-.06 1.545.015 3.104.09 4.648.075.974-.015 1.274-.572.84-1.43.15-.24.674.165.614-.316-.045-.376-.42-.271-.69-.271-2.443 0-4.887.045-7.33-.015-.465-.015-.615.482-1.065.376-.96-.196-1.484.18-1.679 1.069Zm9.37-1.039c.224-.135.404-.045.584.211-.27.135-.48.12-.674-.015 0 0 .045-.166.09-.196Zm.12.753c-.405.391-.63.06-.885-.166.36-.165.57.196.885.166Zm-2.639-.963c.09-.046.21 0 .225.195-.075.12-.165.301-.3.407-.09.075-.18-.046-.21-.166-.045-.24.12-.346.285-.436Zm-.57.873c.075.12.165.225.27.376-.075.06-.15.18-.225.18-.165-.014-.3-.135-.254-.316.015-.09.135-.15.21-.24Zm-.39-.452c.166-.015.166.12.18.226.016.12-.044.21-.18.21-.134 0-.194-.105-.194-.21-.015-.12.06-.226.195-.226Zm-.18.647c-.194.15-.254.407-.539.452-.045-.422.09-.602.54-.452Zm-6.206 3.161c1.439.015 2.878-.15 4.332-.06.255.015.585-.15.885.03.06-.045.12-.075.18-.12-.285-.331.914-.648 0-.979.03-.06.06-.15.104-.18.54-.286 1.71.36 1.68.963-.016.331.12.376.36.361 1.558-.045 1.678.286 2.503-1.294.36-.708-.015-.903-.495-.708-.585.256-1.034-.06-1.544-.045-2.159.03-4.333.09-6.491 0-1.035-.045-1.59.286-1.964 1.25-.21.572.06.767.45.782Zm9.564-1.038h-1.094c.51-.587.78-.076 1.094 0ZM42.5 95.04c-.046-.257-.286-.166-.465-.06-.09.044-.225.044-.285-.076.72-.542.72-.632-.135-1.144-.165-.09-.315-.256-.48-.301-.315-.075-.51-.226-.75-.422-.929-.692-1.873-1.37-2.878-1.987-.66-.406-1.499-.572-1.979-1.294-.135-.196-.51-.436-.81-.015.27.286.78.12 1.005.647-.18.015-.315.075-.405.03-.464-.165-.854-.3-1.094.362-.225.647.165.812.585 1.083 1.094.693 2.158 1.4 3.223 2.123.824.542 1.634 1.114 2.443 1.67.105.076.195.226.345.076.06-.06.15-.136.03-.196-.555-.24-.105-.21.06-.24.405-.061.63.39 1.035.375.134 0 .434.196.374-.03-.075-.3.21-.436.18-.602Zm-4.258-2.018c0-.06.12-.15.165-.135.09.03.165.105.254.18-.06.03-.105.076-.15.106-.134-.045-.284.03-.27-.15Zm.72 1.1c.104-.904-.69-.181-.84-.588.345-.482.854-.24 1.17.015.314.271-.27.346-.33.572Zm2.038.21c-.15 0-.315-.015-.465-.03v.015h-.015c.12.165.675.196.195.572-.21.165-.42.482-.66.15-.134-.195-.074-.526.285-.602.075-.015.12-.09.18-.135 0-.015-.015-.015-.015-.03h.03c.015-.18-.3-.166-.24-.211.195-.166.435-.286.72-.271.18 0 .225.105.225.271.015.196-.075.27-.24.27Zm5.592-10.115c-1.005-.557-1.844-1.385-2.938-1.806-.525-.678-1.35-.934-1.994-1.43-.135-.106-.255.015-.345.12-.09.09-.165.21-.33.045-.18-.18 0-.24.075-.316.15-.15.09-.21-.06-.286-.435-.21-.764-.677-1.319-.632-.045.06-.09.12-.135.196-.6.075-.87.557-1.02 1.023-.134.407.316.647.585.828 1.47.918 2.954 1.806 4.348 2.83.255.18.644.24.93.361.614.271 1.243-.346 1.843.166.18.15.63-.226.765-.497.165-.316-.225-.497-.405-.602Zm-5.637-1.972c-.255-.24-.524-.497-.734-.768-.075-.09.09-.18.315-.18.18.21.42.481.644.752 0-.015-.21.196-.225.196Zm2.714.166-.015-.015c-.015 0 .015.015.015.015.18.18.15.316-.105.36-.075.016-.255.061-.24-.105-.015-.21.195-.195.345-.255Zm-.6.722c-.225 0-.465.045-.6-.195-.03-.046.015-.166.06-.196.24-.196.375.075.555.15.09.046.165.136.24.211.584-.06 1.14-.03 1.604.467-.705.165-1.304-.06-1.859-.437ZM17.735 72.31c1.769-.12 3.567.422 5.291-.3.09-.046.255-.046.24.12-.03.452.24.18.405.196.675.075 1.364-.076 2.054.03.495.075 1.529-1.16 1.424-1.671-.06-.256-.3-.407-.555-.422-.33-.015-.66-.03-.959.166-.18.12-.39.286-.6.12-.614-.496-1.139-.3-1.634.196-.195.196-.494.391-.614.09-.24-.602-.855-.21-1.17-.541a.147.147 0 0 0-.225.09c-.12.481-.194.466-.614.24-.315-.165-.645-.511-1.05-.18.15.24.12.286-.27.346-.15.271-.33.211-.524.03-.015-.075-.015-.15-.03-.225-.48.722-1.124.12-1.68.18-.089.015-.179-.135-.344.045-.54.587-.03.813.345 1.024-.225.452-.585 0-.825.18.315.768.9.317 1.335.287Zm6.67-.873c-.479-.36-.974.603-1.393-.06.45-.33.914-.542 1.394.06Zm-2.938-.27c.225-.181.405-.482.765-.196.135.12.075.15 0 .24-.24.257-.405.678-.87.332-.06-.045-.15-.06-.284-.12.18-.106.285-.181.39-.257Zm-2.053.135c.03-.196.164-.166.3-.09.104.06.224.135.344.21-.15.12-.18.317-.345.226-.165-.06-.33-.165-.3-.346Zm26.233 9.228c-.615-.438-1.304-.754-1.934-1.145-.764-.467-1.214-1.475-2.369-1.189-.074.015-.194-.21-.3-.316h-.18c-.18.256.12.617-.18.843.076.195.376.376.06.617-.119.09-.239.12-.359 0-.3-.301.195-.376.165-.602-.09 0-.165 0-.255-.015-.195-.015-.255-.602-.614-.09-.3.421.044.436.224.587 1.365 1.159 2.999 1.941 4.423 3.025.51-.376 1.289 1.294 1.664-.21.015-.046.195-.091.195-.076.24.361.87.286.944.828.06 0 .135 0 .195.015.9-.226.885-.196.315-.843-.57-.662-1.334-.963-1.994-1.43Zm-4.662-.769c.045-.24.135-.481.39-.436.06.015.09.12.134.18-.18.076-.344.166-.524.256Zm3.807.798c-.18.045-.24-.09-.284-.226 0-.015.105-.075.165-.09.105-.015.224-.03.24.18-.03.03-.06.121-.12.136Zm-34.315 6.728c1.125 0 2.234 0 3.358-.015.015-.165-.33-.316-.044-.481.165-.09.404-.09.524.09.165.286-.315.15-.285.391h1.08c1.154 0 2.308-.165 3.448.15-.105-.165-.21-.315-.315-.48v-.377c-.36-.286-.81-.482-.87-1.008-.3.12-.51-.106-.75-.211-.659-.286-1.558-.06-1.753.391-.93-.677-2.009-.391-3.028-.482-.99-.09-1.514.211-1.934 1.205-.36.873 0 .828.57.828Zm5.592-1.82c.24-.031.405.09.51.36-.315.166-.435-.135-.63-.165.03-.06.06-.18.12-.196Zm-1.184.27v.015c.24-.045.435 0 .495.271.015.12-.03.24-.18.21-.24-.06-.36-.225-.315-.48h-.015c-.015.014.015-.016.015-.016Zm2.504-.226v.03h.015l-.015-.03Zm-7.885 4.471c1.59-.03 3.193-.12 4.962.03-.584-.512-.3-1.009-.255-1.49.03-.256.18-.407-.3-.482-1.124-.18-2.233.03-3.327-.135-.9-.136-1.41.135-1.77.948-.36.888-.24 1.159.69 1.129Zm31.181-3.252c-.96-.526-1.889-1.144-2.788-1.776-.42-.3-.735-.526-1.095.03-.644.994-.63 1.385.03 1.807 1.11.722 2.219 1.46 3.313 2.182.39-.27.195-1.069.915-1.099h.165c.195-.556-.015-.858-.54-1.143Zm-2.233 8.294c-1.394-.918-2.818-1.806-4.212-2.724-.375-.241-.675-.226-.75.21-.075.437-.974.798-.09 1.37.285.196.165.377.405.301.465 0 .45.377.51.678.15.27.48.24.72.436.33.271.989.467 1.319.316.644-.3 1.094 0 1.499.286.57.422.464-.286.734-.376.315-.12.03-.376-.135-.497ZM17.21 84.593c.434-.15.72.06 1.094.196.734.27 1.559.165 2.324.06.51-.075.464-.752.72-1.129.449-.632-.03-.843-.466-.828a48.55 48.55 0 0 1-3.628.015c-.494-.015-.63.106-.57.362.09.346-.569.496-.224.888.315.06.405.557.75.436Zm-.375-.873c.36-.12.614.106.884.271.015 0-.045.18-.09.196-.405.135-.54-.301-.84-.391a.796.796 0 0 0 .046-.076Zm-5.878 7.496c.72-.09 1.35.497 2.07.256-.346-.406-.346-.406.749-1.159-1.514 0-2.909.015-4.288.015-1.334 0-1.319-.015-1.559 1.34-.045.27-.285.572.135.677.3.075.69.166.9-.226.194-.361.284-.376.314.06.015.287.15.12.21.03.165-.21.405-.225.615-.165.54.166.675-.12.6-.542-.045-.286-.015-.256.254-.286ZM47.85 79.19c-.074-.241.495-.347.076-.603-.375-.24-.72-.511-1.11-.707-.195-.105-.45-.136-.584.24-.105.317-.465.467-.765.437-.3-.03-.21.482-.585.376-.66-.195.345-.33 0-.496-.03-.015-.06-.06-.06-.045-.434.316-.794-.512-1.289-.015.93.27 1.424 1.189 2.399 1.384.84.166 1.649.497 2.473.753-.075.24-.464-.105-.554.21.345.046.63.528.96.091.239-.316.554-.692.434-1.099-.195-.767-.885-.496-1.394-.527Zm-31.344 4.982-.016-.015.016.015Z"/><path d="M11.258 83.42c-.12.255-.18.526-.315.767-.33.572-.12.782.465.722 1.26-.12 2.579.316 3.793-.33.075-.151.195-.181.345-.181.24.03.464-.016.72.09.359.15.314-.09.224-.316-.734-.045-1.364-.316-1.754-.979-.195-.33-.48-.346-.794-.33-.42.014-.84.074-1.275.014-.554-.06-.33.256-.18.512.81-.346 1.35.422 2.07.512.18.03 0 .165-.016.24-.015.106-.075.302-.165.226-.554-.421-1.319-.06-1.844-.526-.045-.046-.045-.151-.075-.241-.15-.045-.344-.06-.45-.166-.12-.12.286-.466-.12-.481-.254 0-.509.18-.629.466Zm32.651-6.172c.045.36.39.391.585.346.42-.075.69-.03.78.421.044.256.344.211.374.136.12-.286.39-.557.255-.903-.045-.12-.12-.241-.36-.136-.585.271-.81-.165-1.154-.286-.615-.226-.45-.813-.81-1.084-.51-.376-1.034-.707-1.559-1.068-.285-.196-.525-.136-.72.12-.704.948-.6 1.596.405 2.258.135.09.195.286.54.256-.465-.888.675-.693.78-1.22 0-.014.224.09.18.332-.06.316-.465 1.023.464.602.15-.045.225.06.24.226Zm.359 11.831c-.375-.316-.855-.497-1.214-.813-.57-.497-.465-.015-.495.286-.21-.03-.345.12-.495.226v.15c.105.407-.42.301-.464.587.045.256.704-.12.42.331-.226.392.014.392.21.512.21.136.404.286.599.422 1.034.737 1.32.617 1.859-.512.315-.647-.075-.903-.42-1.19Zm-1.484-.196c-.255.03-.195-.15-.195-.301h-.03l.03-.03v.03l.45.045c-.09.075-.165.241-.255.256Zm-19.608-7.165c-.36.723-.66 1.475-.99 2.228-.134.33-.06.542.345.436.69-.18 1.38-.36 2.04-.587.164-.06.479-.09.374-.572-.3-.436-.675-1.008-1.064-1.565-.255-.422-.54-.286-.705.06Zm2.489-5.388c-.465.933-.93 1.82-1.32 2.74-.194.466.27.42.495.36.69-.18 1.364-.421 2.024-.662.33-.12.555-.27.225-.707-.42-.572-.81-1.19-1.424-1.731Zm7.644 13.471c-.84.256-1.574.452-2.294.693-.3.105-.315.36-.195.692.225.602.75.963 1.08 1.475.18.286.434.286.6-.12.314-.753.659-1.505 1.033-2.243.21-.422-.074-.452-.224-.497Zm16.117-12.644c-.09-.03-.165-.135-.24-.21.15-.106.3-.211.465-.301-.105-.271-.375-.12-.57-.256-.93-.708-1.05-.693-1.034.361.015.467-.57.993 0 1.445.3.24.614.482.93.677.374.241.614.241.899-.24.39-.648.075-1.175 0-1.762-.03.286-.21.377-.45.286Zm-22.067-3.176c-.15.377-.615 0-.75.617.975-.376 1.92-.436 2.729-.978.105-.075.24-.196.075-.406-.39-.497-.72-1.024-1.095-1.52-.255-.332-.524-.392-.72.09-.15.391-.329.752-.509 1.129-.21.451-.57.918.27 1.068Zm7.404 13.487c.255-.737.63-1.4.945-2.107.194-.437-.075-.467-.3-.527-.525.15-.99.286-1.454.436-1.275.422-1.29.452-.465 1.55.165.227.315.452.465.678.284.482.644.437.81-.03Zm.12-.707c-.39.782-.72.602-1.064.165.314-.045.63-.105 1.064-.165Zm-7.75 6.472c-.36-.045-.495-.136-.57-.527-.03-.15.36-.361-.03-.436-.18-.03-.285.135-.36.36-.224.648-.57 1.25-.794 1.898-.09.255-.555.451-.165.842.24.241.555.166.81.256.57.211 1.873-1.31 1.828-2.032-.21-.12-.464-.33-.72-.361Zm-.99 1.987c-.06-.03-.24.045-.21-.105a.719.719 0 0 1 .24-.392c.09-.075.195.03.195.166 0 .15.045.33-.224.33Zm.9-1.129c-.03.09-.135.166-.24.286-.045-.105-.09-.15-.09-.226-.015-.12.03-.226.15-.256.165-.045.195.106.18.196Zm15.126-19.899c.525 0 .75-.256 1.094.015.39.316.285-.466.705-.421.51.06-.15.451.27.496.12-.3.42-.843.345-.918-.375-.316-.855-.542-1.335-.722-.195-.075-.24.12-.18.3-.134-.03-.164-.15-.21-.27-.044-.136.315-.286-.014-.361-.165-.03-.375-.106-.51.135-.195.331-.045.813-.465 1.039.255.36-.06.993.57 1.174.764.225 1.274.903 2.054 1.098-.33-1.023-1.275-1.174-2.324-1.565Zm.93-1.234h-.016l.03-.015c-.015 0-.015.015-.015.015.465 0 .375.3.135.421-.224.12-.48.392-.824.196.105-.346.57-.286.69-.617Zm-6.775 9.272c-.33.286-.135.437.105.557.24.105.434-.03.554-.256.39-.813.63-1.656.45-2.68-.33.272-.66.317-1.02.377-.45.075-1.049.09-1.259.617-.165.422.33.678.495 1.009.09.195.255.361.54.18.15-.075.315.045.135.196Zm-.12-1.22c.33-.255.6-.376.944-.255-.27.15-.48.467-.944.256ZM21.541 91.291c.195-.526.795-1.189.51-1.55-.36-.437-.96.15-1.439.406-.15.076-.375.03-.57.015-.27-.015-.33.226-.374.377-.075.195 1.049 1.61 1.319 1.64.405-.105.45-.572.555-.888Zm12.249-2.784c-.33-.422-.69-.934-1.094-1.415-.105-.12-.315-.046-.405.15-.285.678-.6 1.355-.87 2.047-.075.196.06.362.255.301.66-.195 1.29-.421 1.934-.647.165-.045.195-.18.18-.436Zm1.767-5.509c-.24-.317-.36-.783-.93-.904-.27.211-.404.588-.494.919-.15.541-.81 1.068-.42 1.55.195.24.9-.226 1.38-.376 1.064-.301 1.094-.346.464-1.19Zm-7.69-6.051c.285-.602.57-1.19.81-1.806.075-.196.105-.467-.15-.467-.735.21-1.364.361-1.964.587-.105.045-.405.361-.135.617.33.316.51.722.765 1.084.21.316.464.436.674-.015Zm-8.725 14.404c-.495.332-.69.919-.87 1.445a.927.927 0 0 0 .84 1.25c.435 0 1.38-.678 1.38-.979-.016-.255-1.215-1.806-1.35-1.716Zm.765 1.235c-.465.09-.585.376-.795.587v.015c.165-.03.27.165.255.21-.135.302-.36.076-.57.136.045-.226.33-.136.315-.346h-.015l.015-.015c-.21-.045-.42-.286-.315-.377.24-.18.54-.436 1.11-.21ZM15.2 88.973l-.014.016c.015 0 .015.015.03.015-.015 0-.015-.015-.015-.03Z"/><path d="M18.183 89.997c.554-.226.809-.617.899-1.385-.465.512-.735.557-.945-.015-.09-.24-.344-.467-.69-.271-.149.09-.224.18-.389-.045-.315-.482-.315-.452-.69.03-.284.391-.524.933-1.169.677.15.587.645.467 1.065.482.045-.256.195-.391.45-.361-.016-.346.18-.392.464-.331.345.075.18.21.09.406-.12.256-.24.602.12.753.345.135.465-.181.57-.437.03-.075.105-.196.15-.18.39.27-.03.42.075.677Zm-5.023 1.972c-.224-.18-.404-.06-.404.15.015.196.24.271.554.226.66.12 1.185-.482 1.874-.662.345-.09.36-.527.42-.813.03-.15-.3-.512-.464-.512-.525.015-1.095.136-1.41.602-.09.15-.6.196-.285.512.555.602-.18.346-.284.497Zm11.036-11.214c.285.436.6.858.914 1.264.15.196.375.241.54 0 .15-.24.165-.421-.165-.542-.345-.12-.72-.286-.63-.858.39.076.525.347.72.527.105.09.255.256.345.12.255-.436.72-.903.554-1.414-.165-.482-.584-.015-.884.045-.375.075-.735.256-1.11.346-.3.075-.464.226-.284.512Zm5.261-8.805c.195.42.525.3.72-.076.24-.497.48-.993.66-1.505.044-.136.314-.286.074-.482-.18-.15-.39-.195-.524-.045-.15.18-.39-.06-.525.18.15.181.315.347.555.618-.36-.06-.645.09-.825-.136-.12-.15.015-.526-.405-.346-.33.136-.375.376-.434.708-.075.587.524.692.704 1.083Zm3.673-.618c.104-.135.24-.361.464-.105.195.226.15.406-.075.557-.24.15-.27.406-.315.647.33.226.435-.09.525-.286.21-.436.36-.903.54-1.34 0-.06-.015-.135-.015-.195-.165.015-.345.376-.465.075-.09-.256.105-.467.45-.361.18-.271.195-.693.644-.738-.015-.045-.015-.12-.03-.135-.57-.256-1.11.12-1.694.075-.33-.03-.69.602-.285.858.66.406.255.512-.06.753-.12.09-.254.195-.21.39.166-.074.375-.014.525-.195Z"/><path d="M32.605 71.543v-.03h-.015c0 .015.015.03.015.03Zm.585.888c0-.015-.015-.015-.03-.015l.03.015Zm-9.355 12.312c-.525.046-1.035.302-1.56.482-.33.106-.509.467-.254.617.54.347.45 1.295 1.29 1.28.03 0 .06-.03.074-.045.33-.497.27-1.174.885-1.61-.435-.166-.15-.754-.435-.724Zm-.765 1.822c-.39.045.015-.452-.3-.467.03-.376.435-.18.63-.361-.03.331.24.783-.33.828Zm10.96-18.89c-.03.075-.06.15-.09.21h.314c.75.196 1.62-.376 1.784-1.294-.614.722-1.004.03-1.409-.18-.135-.076-.105-.558-.465-.212-.224.226-.18.482-.045.798.165.362.63-.225.6.211-.015.286-.555.136-.69.467Zm5.185 9.753c.255-.707.54-1.4.945-2.047.075-.12.225-.346-.015-.496-.285-.181-.465.33-.75.135.015.391-.54.647-.48.813.18.436.046.767-.164 1.069-.33.466.33.466.3.767.164-.015.134-.165.164-.24Zm-1.348 1.807c-.464-.572-1.139-.798-1.319-1.656-.285.647-.434 1.084-.644 1.49-.27.542.06.602.42.512.48-.12.914-.407 1.543-.346ZM21.526 69.044c.105.015.24-.225.39.03-.06.287-.6.226-.48.633.48-.136.765.677 1.32.256.134-.106.24-.256.15-.301-.435-.256-.45-.783-.75-1.114-.3-.347-.735.21-1.02-.166-.014.075-.074.166-.06.226.076.226.255.406.45.436ZM18.273 90.78c.18-.317-.06-.241-.225-.317-.75-.36-1.53-.18-2.339-.09.375.105.75.21 1.184.346-.33.196-.69.422-.405.708.225.24.33-.211.495-.346.24-.196.57-.332.87-.09.33.285.314-.03.42-.212Zm14.032 7.962c-.045-.406-.015-.797.195-1.385-.54.542-1.5.693-.555 1.641-.495-.361-.87-.632-1.35-.12.405.316.675.963 1.35.406a.551.551 0 0 0 .36-.542Zm12.728-25.754h.046c-.015 0-.015-.015-.03-.015 0-.015-.016.015-.016.015Zm1.259-.316c-.254-1.204-.54-.437-.854-.045-.105.135-.165.33-.36.36.51.452 1.08.648 1.74.287a.527.527 0 0 0 .299-.542c0-.105.015-.24-.135-.271-.375-.06.12.286-.18.391-.315.12-.465.015-.51-.18Zm-16.461-3.914.195-.195c.27-.362.465-.813.93-.979.21-.075.195-.166.075-.27-.27-.212-.375-.663-.84-.588-.03.542-.285.316-.51.15.195.618.435 1.22-.12 1.807-.03.045.18.045.27.075Zm8.906-3.537c-.42.24-.42.978-.06 1.31.21.195.315.511.45.737-.27.361-.045.738.09.723.374-.03.12-.377.164-.572.195-.753-.51-1.34-.3-2.093.016-.09-.18-.195-.344-.105Zm14.017 4.229c.075-.45-.645-.075-.854-.42-.045-.061-.135-.151-.195-.151-.165.015-.27-.256-.435-.12-.285.225.105.3.12.45.03.257 0 .528 0 .784l.225.18c.015.015.03.015.045.045.48-.12 1.019-.346 1.094-.767Zm-37.27 23.407c-.24 0-.33.165-.465.3-.105.106-.045.227.03.287.15.135.12-.09.18-.12.24-.121.525-.347.675.135.06.195-.285.451.075.557.3.09.405-.226.57-.392.194-.18.36-.391.689-.767-.72 0-1.23.015-1.754 0Zm-2.997-9.468c-.015.075-.015.15-.03.226.525.27 1.094.346 1.664.361-.465-.361-1.08-.391-1.634-.587Zm18.394 12.207c-.03-.045-.21-.03-.3.015-.464.256-.06.693-.21 1.084-.449-.03-.659-.527-1.094-.542-.165 0-.344.06-.39.241-.03.105 0 .301.136.196.42-.316.524.105.734.27.375.302.69.588.915-.18.12-.361.45-.677.21-1.084ZM50.984 74.81c-.57.21-.945-.467-1.514-.332-.21.045-.495.12-.24.271.465.27.135.406-.015.527-.12.105-.345.135-.18.33.15.151.36.151.435-.12.105-.33.3-.511.674-.33l.18.18c.33.075.42-.27.66-.361.03-.06.03-.12 0-.166Zm-2.774-1.1c0 .016.047.061 0 0Z"/><path d="M47.162 74.132c.24.512.675.602.99.843.21.15.314.06.464-.09.18-.166.105-.241-.015-.407-.165-.24-.27-.527-.404-.783-.375.076-.405.828-1.035.437ZM19.863 86.4c.345-.03.51-.287.6-.603.104-.406-.21-.542-.45-.542-.285-.015-.63-.15-.99.12.315.332.795.242 1.05.588-.21.331-.555-.256-.675.135-.06.12.225.331.465.301Zm22.411-17.837c.06-.136.164-.271-.015-.332-.15-.045-.33 0-.495.016.165.647-.735.511-.735 1.098.51-.105 1.14-.557 1.245-.782Z"/><path d="M48.735 73.921c.24.03.57.256.705-.135.12-.377.03-.708-.33-.949-.255-.165-.45.15-.45.166.6.737-.3.497-.465.722.225-.045.36.166.54.196ZM20.477 89.425c.3-.166.72-.136.944-.557-.36-.21-.69-.286-1.14-.12-.359.135-.164.27-.18.436-.014.301.166.346.376.24ZM50.145 75.14c-.075.301-.644.422-.315.858.18.241.45.362.78.316.18-.03.345-.12.375-.285.045-.272-.18-.226-.33-.211-.435.03-.33-.271-.315-.512-.12 0-.15-.09-.195-.166Zm-34.21 12.84c-.54-.076-.99.03-1.455-.076.48.226.255.859.72 1.054.15-.346.405-.647.735-.978Zm-.735.993c-.015 0-.015.016-.03.016l.03-.016Zm30.808-12.9c.15.06.314.196.404-.03.06-.12.045-.286.015-.406-.105-.286-.27.03-.374-.015-.54-.24-1.02.045-1.53.12.315.046.54.362.9.271h.195c.12.015.255.015.39.06Zm-16.012 17.16c-.15.106-.09.226.045.316.255.18.6.196.854.437.105.105.48.21.525-.12.045-.242.345-.723-.315-.678-.27.135-.494.512-.84.18-.09-.06-.239-.165-.269-.135Zm9.28 2.439c-.015 1.068-.015 1.068 1.215.752-.375-.451-.78-.587-1.215-.752Zm-13.522 1.58c.045-.015.09-.15.075-.18-.045-.091-.135-.166-.27-.091-.15.09-.315.166-.48.256.015.331-.375.467-.39.813.27.075.54.15.795.21.18-.36-.36-.827.27-1.008Zm-.69-.015c.016 0 .016-.015.03-.015v-.015l-.03.03Zm22.906-21.57c-.285-.421-.72-.466-.974-.722-.24-.256-.3 0-.42.135-.21.226.03.241.12.346.345.347.78.196 1.274.241Zm-.943 1.912c.03.045.135.06.21.09-.105-.873-.405-1.114-1.484-1.159 0 .136-.045.316.135.331.525.03.9.271 1.14.738Zm-1.291-1.069h.016v-.015l-.016.015ZM31 92.977a.78.78 0 0 0-.014-.316c-.075-.09-.135-.21-.225-.24-.18-.076-.24-.543-.48-.272-.12.12-.404.106-.374.362.044.451.524-.136.614.316-.3 0-.165.21-.15.376.21-.09.555-.015.63-.226Zm-10.163-5.99c-.09.06-.09.421 0 .526.45.512.72-.075 1.304-.3-.63.06-.87-.527-1.304-.226Zm15.816-9.559c.18.271.24.693.614.723.165.015.225-.286.24-.542-.045-.301-.315-.482-.614-.542-.09-.015-.33.21-.24.361Zm-4.079-5.9c.015 0 .015 0 .03.015l-.03-.015c.015 0 .015 0 0 0Z"/><path d="M31.93 71.272c-.18.196-.39.632-.12.813.345.226.45-.271.66-.452l.105-.105c-.225-.09-.315-.617-.645-.256Zm-2.04 12.9c.076.015.136.03.165.06.24.045.45-.045.57-.316-.18-.09-.36.3-.584.105l-.15.15Zm-10.478 4.154c-.165-.692-.794-.286-1.17-.481-.119-.076-.359-.09-.299.06.225.587.93.15 1.29.526 0 .016.18-.09.18-.105Zm2.129 7.104c-.374 0-.494.302-.554.588-.03.135-.12.406.12.406.405 0 .33-.512.614-.677.045-.18-.06-.316-.18-.316Zm19.805-6.848h.015v-.015l-.015.015Z"/><path d="M42.005 88.808c.014-.03.044-.046.06-.046-.345-.316.39-.556.014-.948-.27.226-.344.663-.734.753-.06.707.435.3.704.331-.044-.015-.06-.045-.044-.09Zm.975-20.788c.209-.18.614-.15.719-.33.03-.211-.045-.332-.21-.287-.285.09-.555.211-.78.377-.075.075.225.286.27.24ZM32.89 98.817c-.194-.03-.39-.045-.584-.075.15.346.045.542-.345.527.015.497.165.527.54.196.135-.12.105-.377.344-.392.015-.075.03-.165.045-.256Zm-.03.271h-.014v.016l.015-.016Z"/><path d="m32.875 98.803-.016-.046.016.061v-.015Zm4.466-23.045c-.194.421.18.632.42.933.135-.271.03-.497.135-.708.105-.225-.435-.466-.555-.225Zm-5.066 20.275c-.18-.286-.36-.18-.465.06-.105.24.12.346.255.482.135.135.225.346.525.3.09-.39-.225-.42-.39-.571-.03-.015.105-.211.075-.271ZM20.507 69.797c-.12-.376.42-.241.405-.527-.015-.286-.315-.166-.48-.21-.27-.061-.314.225-.33.406-.044.165.136.27.405.33Zm22.187-3.387c.045-.226-.09-.24-.24-.24-.24 0-.42.105-.45.376-.015.18.045.36.24.36.315 0 .27-.376.45-.496Zm-5.637 2.604h.03c-.015 0-.015-.015-.03 0Zm.344-.737c.12-.076-.03-.226-.134-.332-.105-.105-.165.016-.18.046-.09.33-.63.647-.045 1.008.015-.09.06-.15.105-.18.075-.181.06-.407.255-.542ZM15.2 84.563c.24.677.749.18 1.169.346-.21-.391-.645-.226-.825-.527-.09.12-.195.196-.345.181Zm31.916-1.791c-.405.226-.6-.437-1.005-.166.405.03.615 1.069 1.2.18-.06.076-.135.061-.195-.014ZM34.313 70.339c-.03.03-.06.045-.075.075v.135c.015.015.03.046.06.06a.17.17 0 0 1-.045.166c.405-.3.435-.797.615-1.204-.255.196-.33.542-.555.768Zm1.576-5.675c.194-.03.374.316.584.06.045-.045.15-.12.03-.18-.21-.12-.405-.256-.674-.226-.18.03-.3.105-.405.361.195-.015.33 0 .465-.015Z"/><path d="M37.132 69.014h-.045c.314.106.164.286.075.482-.09.166.12.316.18.226.15-.196.21-.467.3-.723.03-.09.09-.24-.076-.256-.15-.015-.3-.015-.404.076a.28.28 0 0 1-.105.18l.075.015Zm9.144-2.874c.12-.076-.03-.227-.134-.332-.105-.105-.165.015-.18.045-.09.331-.63.647-.045 1.009.015-.09.06-.15.105-.18.075-.182.06-.407.255-.543Zm-.269.737h-.045c.314.105.164.286.075.482-.09.165.12.316.18.225.15-.195.21-.466.3-.722.03-.09.09-.241-.076-.256-.15-.015-.3-.015-.404.075a.28.28 0 0 1-.105.18l.075.016Zm1.529-.151h-.045c.315.106.165.286.075.482-.09.165.12.316.18.226.15-.196.21-.467.3-.723.03-.09.09-.24-.075-.256-.15-.015-.3-.015-.405.076a.28.28 0 0 1-.105.18l.075.015Zm-3.702 3.101c.18.015.21-.09.225-.21.015-.166-.045-.287-.36-.302-.075.045-.285.076-.255.21.045.136.18.287.39.302Zm2.442-.617c.21-.18.615-.15.72-.331.03-.211-.045-.332-.21-.286-.285.09-.555.21-.78.376-.075.06.225.27.27.24Zm.841 1.806c.18.015.21-.09.225-.21.015-.166-.045-.287-.36-.302-.075.046-.285.076-.255.211.06.136.18.286.39.301Zm-1.409 14.857c-.045.015-.105.15-.075.195.18.347.465.332.9.196-.285-.27-.48-.512-.825-.391Zm7.24-15.339c-.03-.135.075-.346-.195-.36-.135.044-.09.18-.09.27-.014.361.345.512.48.783 0 .015.135 0 .15-.03.18-.377-.285-.422-.345-.663ZM27.552 98.095c-.195.015-.33.135-.314.331.015.226.164.346.404.346.135 0 .285-.03.195-.286-.225-.015.045-.406-.285-.391ZM51.39 69.993c-.18-.076-.36-.151-.54-.241-.315.466-.135.617.36.572.15-.015.3-.076.45-.12l-.045-.046c-.09-.03-.225-.015-.225-.165Zm-16.297 2.995c-.45.12-.345.542-.48.843.195-.166.36-.361.57-.497a1.308 1.308 0 0 1-.09-.346Zm5.951 4.892c-.225-.256-.21-.888-.944-.542.314.18.374.542.75.557.06-.09.12-.09.194-.015Zm9.579-5.374c.03-.045-.015-.195-.045-.21-.36-.106-.554.135-.78.451.36 0 .66.075.825-.24Zm-6.43-.346c.135.527.54.587.84.783.045-.557-.36-.632-.84-.783Zm.84.783v.046l.03-.03c-.015 0-.03 0-.03-.016Zm-34.9 20.426v.03l.03-.03h-.03Zm-.106-.452c-.284-.015-.48.256-.554.557.284.196.434-.166.66-.105 0-.181.12-.452-.106-.452ZM25.904 66.44h.03c.03-.256.494-.135.434-.481-.749-.046-.764-.03-.57.436l.016.015c.03.03.06.03.09.03Zm-6.82 4.26c.09-.075.18-.12.27-.015.014 0 .044-.015.06-.015.12-.045.254-.075.3-.21-.21.375-.705-.663-.825.165.06.015.12.045.165.06 0 .015.015.015.03.015Zm23.594 6.849c-.06.015-.09.12-.12.18.24.166.48.317.72.467a.114.114 0 0 0 .06-.03c-.285-.135-.18-.753-.66-.617Zm3.06-2.499c.06-.06.015-.361-.03-.376-.345-.12-.405.33-.675.36.27.377.51.197.705.016ZM30.266 93.354c.015 0 .03-.016.06-.016h-.015c-.03.016-.03.016-.045.016Zm.121-.166c-.06.03-.12.075-.135.15h.045c.06-.03.09-.075.09-.15Z"/><path d="M30.252 93.338c0 .016 0 .016 0 0 .015.016.015.016 0 0Zm.853-.15c0-.18.045-.376-.12-.512.045.15.045.241.015.316a.451.451 0 0 1-.09.211c.06-.03.135-.03.195-.015Zm-.795.15c.255 0 .48-.03.6-.165-.18.03-.36.105-.54.15-.015.015-.03.015-.06.015Zm7.257-21.75c.075-.105.24-.135.195-.331-.09-.331-.33-.376-.615-.301-.03.331.21.467.42.632Z"/><path d="M37.117 70.971h.03v-.015c0-.015-.03.015-.03.015l.03-.03c-.015.015-.015.03-.03.03Zm-8.681 26.612c-.224 0-.36.045-.374.211-.015.21.12.331.314.286.12-.03.315-.135.315-.226.03-.165-.135-.256-.255-.27Zm-10.058-1.671c-.105 0-.255-.015-.27.12-.015.227.135.347.345.392.12.015.285.045.315-.165-.06-.196-.165-.332-.39-.347Zm-5.997-2.062c-.09.136.075.271.195.316.345.136.405-.12.465-.391-.24-.045-.495-.166-.66.075Zm28.184-14.977c.135.015.06-.12.105-.165-.045 0-.09 0-.135.015.03.045.03.105.03.15Zm9.535-9.317c.06-.09.045-.361.015-.376-.27-.09-.48.03-.734.36.315-.09.45.407.72.016Zm1.904 3.026h-.016v.015l.016-.015Zm-.494-.467c-.016-.015-.15.105-.136.15.06.316.285.347.555.316.015 0 .045 0 .06-.015.09-.376-.27-.33-.48-.451ZM33.249 98.26c-.195.03-.45-.12-.6.09-.12.197.18.257.225.422.045-.24.525-.135.375-.511Zm-22.366-6.11c.375.075.764.15.78-.482-.36.09-.45.481-.78.481Zm.644 1.444c-.015.045.075.166.135.18.345.106.36-.225.525-.406-.225.09-.555-.165-.66.226ZM23.58 67.373c-.21-.135-.27-.451-.585-.421-.03 0-.09.15-.075.21.09.392.405.196.66.211ZM10.854 93.775c0 .12.164.15.254.105.3-.135.24-.391.15-.707-.18.195-.404.316-.404.602Zm22.951.406c-.03.377.045.678.51.678-.226-.18-.3-.482-.51-.678Zm-19.953-6.909h.194c-.074-.165-.134-.165-.194 0Zm27.373.618c-.06.06-.12.06-.165 0 .06.24-.36.707.285.677.03-.24.21-.512-.12-.677Zm.135.677h-.014v.015l.015-.015Zm8.38-16.332c.09-.075.105-.225-.015-.27-.225-.106-.434-.06-.584.24.21.045.39.21.6.03Zm-16.536.196-.03-.015s.015 0 .03.015c-.015 0-.015 0 0 0Zm-.464.376c.03.136.12.21.224.15.18-.12.45-.24.225-.526-.195.075-.525-.03-.45.376Zm-8.305-3.958c0-.015-.09-.076-.12-.076-.3.09-.285.362-.45.783.465-.226.54-.451.57-.707Zm16.281 1.746c.15 0 .285-.046.3-.211.015-.15-.075-.286-.24-.24-.12.03-.27.09-.27.27 0 .135.09.18.21.18Zm-4.813 3.672c-.03.045-.045.106-.075.15l.015.016c.105.12.18.27.255.406l.045-.632a.737.737 0 0 1-.195.06h-.045ZM49.8 70.339c-.256-.332-.48-.407-.78-.15.21.24.45.24.78.15Zm-19.79-1.054c-.21-.105-.33-.497-.809-.166.36.076.48.377.81.166ZM18.139 85.436c-.51-.21-.51-.21-.735.09.24.106.465.06.735-.09Zm-.735.09c-.016 0-.016 0-.031-.015l.03.016Zm-1.004 4.14c.015.15.12.331.225.27.27-.15.27-.48.39-.737l-.285-.045c.03.256-.12.391-.33.512Zm-3.703 3.281c.285.361.525.376.81-.015-.285-.075-.525-.15-.81.015Zm13.807 3.327c-.12.03-.27.12-.255.286 0 .135.12.21.225.195.135-.015.24-.12.24-.286 0-.135-.09-.225-.21-.195Zm-1.44.963.03-.03h-.045c0 .015 0 .03.015.03Zm-.45-.467c-.09.03-.15.15-.21.241.09.075.18.21.285.24.105.031.24 0 .36-.03-.06-.075-.135-.15-.165-.24-.045-.15-.12-.271-.27-.21Zm13.058 4.185c.36-.075.6.18.734-.181-.18-.196-.374-.196-.734.181Zm-6.267-32.362c.135-.015.3-.06.3-.271 0-.106 0-.241-.135-.241-.195-.015-.3.135-.345.286-.045.09 0 .21.18.226Zm2.535-.708c-.015.241-.39.09-.375.346 0 .136.105.181.21.196.285.045.255-.18.33-.346.03-.075.105-.12.15-.18-.105.09-.21.09-.315-.016Zm-14.858-.707c.225.105.285-.075.315-.241-.015-.075-.015-.15-.03-.226-.165.045-.435-.09-.465.21 0 .076.09.227.18.257Zm10.6-.301c.15-.106.344-.09.51-.15-.27-.287-.435-.242-.51.15Zm19.924 9.994c.075.106.18.015.27 0a3.018 3.018 0 0 0-.24-.21c-.03.06-.09.135-.03.21Zm-29.684.497c.165.015.33.045.495.045.12 0 .314.045.314-.165 0-.271-.225-.18-.36-.166-.104.015-.194.106-.284.15-.03.091-.09.136-.165.136Zm25.86 10.175c.195-.12.015-.24 0-.36-.12.12-.105.24 0 .36Zm-12.937 11.56c-.06.166-.09.347.15.316.165-.015.405-.165.24-.39-.135-.212-.255.03-.39.074Z"/><path d="M32.83 99.104c.015 0 .015 0 0 0l.015-.016s0 .016-.015.016Zm-8.41-9.468c-.076.195-.136.361-.21.511-.076.136.044.151.104.151.24-.015.315-.21.33-.391.015-.076-.12-.166-.225-.271Zm21.183-13.623c-.06.09-.12.09-.18.015.105.166-.525.873.33.482.12-.226-.195-.316-.15-.497ZM25.98 97.448c-.09.09-.226.165-.256.27-.06.181.09.211.24.211.135-.03.285-.06.225-.24-.045-.09-.15-.15-.21-.241Zm2.637-2.002c-.03.015-.06.12-.03.135.195.226.404.136.644.045-.135-.3-.36-.3-.614-.18Zm-18.484-2.047h.03v-.015c-.015-.016-.03.015-.03.015Z"/><path d="M10.148 93.384c-.015.27.09.466.39.496.03 0 .105-.075.105-.105-.015-.301-.21-.406-.495-.391ZM48.33 81.357c-.285-.286-.285-.286-.824-.452.345.241.405.602.824.452ZM28.288 67.313c.27.046.435-.075.525-.346-.3-.15-.465.03-.6.226-.015.015.045.12.075.12Zm-2.009-3.898c.135.045.27.015.374-.196-.09-.06-.18-.166-.3-.21-.15-.046-.284.06-.3.21-.014.06.136.166.226.196Zm-3.629 5.388c.105.226.21.407.435.362.09-.015.225-.106.135-.241-.135-.21-.33-.18-.57-.12Zm25.83.723c-.105-.015-.255.09-.135.18.135.12-.03.422.255.407.105 0 .21-.075.165-.24-.075-.121-.09-.317-.285-.347Zm3.508 3.071s.016 0 .03.015v-.03c-.014 0-.03.015-.03.015Zm.031.015c.03.195-.15.466.18.526.164.03.164-.195.18-.316.03-.346-.225-.195-.36-.21ZM14.945 89.56c-.03.03-.06.12-.045.15.18.182.39.152.795.016-.39-.06-.525-.331-.75-.166Zm1.319-.075.135.18c.045-.12.09-.225.15-.33-.075.06-.18.09-.285.15Zm.481-.361h-.03v.03l.03-.03Z"/><path d="M16.745 89.154v-.03c-.015 0-.015.015-.03.015.015 0 .03 0 .03.015Zm-.091.09c.015-.03.03-.06.06-.09-.06.06-.105.12-.15.18l.09-.09Zm5.832-.978c-.15 0-.21.105-.165.21.03.076.15.136.24.151.09.015.225 0 .225-.196-.06-.105-.15-.165-.3-.165Zm-3.913-.843c.3.03.315-.106.195-.331-.105 0-.18-.09-.27-.15.075.15.18.3.075.48Zm28.842-3.793c-.09.015-.224.06-.27.12-.044.09 0 .211.15.226.135 0 .27-.03.33-.196 0-.165-.105-.18-.21-.15Zm-27.822 3.1c-.015-.105-.105-.135-.225-.135-.105 0-.24 0-.27.12-.03.181.105.226.255.211.12-.015.225-.03.24-.196Z"/><path d="M18.438 86.85c.135-.014.225.136.315.257.03-.361-.165-.527-.495-.542.06.075.135.166.18.286 0-.015 0-.015 0 0Z"/><path d="M18.498 86.956c-.015-.03-.045-.075-.045-.105-.06 0-.12.03-.18.105.075-.075.15-.045.225 0Zm19.488 13.352c.12-.015.21-.061.195-.181-.045-.15-.135-.166-.255-.166-.12.016-.21.076-.18.211.015.136.135.151.24.136ZM51.854 71.92c.12 0 .21-.046.165-.181-.03-.12-.105-.166-.255-.166-.075.03-.225 0-.21.15.015.166.15.196.3.196ZM33.909 98.577c-.12.015-.21.045-.24.165-.03.15.09.18.195.196.105 0 .21-.045.225-.166.03-.15-.09-.165-.18-.195ZM51.794 70.91c.105 0 .225-.03.195-.3 0-.03-.105-.06-.225-.045-.12.015-.225.075-.225.21.03.136.165.136.255.136ZM23.101 95.054c-.105-.015-.24 0-.255.12-.03.181.09.227.24.211.105-.014.21-.03.24-.18 0-.136-.12-.136-.225-.15Zm10.133-.255c.045-.016.06-.181.03-.211a.516.516 0 0 0-.6 0c.18.135.315.346.57.21Zm-8.59-2.033c-.015-.075-.18-.105-.254-.15-.165.015-.21.105-.21.226.015.135.09.18.225.18.15-.015.284-.09.24-.256Zm.421-1.399c.03 0 .075-.106.15-.196-.105-.075-.165-.136-.255-.18-.075-.03-.165.014-.15.105a.29.29 0 0 0 .255.27Zm.089-.994c-.285-.15-.48-.06-.615.196.27.15.465.06.615-.196Zm14.287-24.429c0 .15.075.27.255.225.06-.015.09-.105.12-.135-.015-.18-.12-.226-.225-.226-.045 0-.135.09-.15.136Zm.255 13.953c-.105-.166-.24-.467-.45-.21-.24.315.33.15.315.406a.266.266 0 0 1 .135-.196Zm-15.17-16.301c-.12 0-.195.105-.18.225 0 .06.09.15.15.15.12 0 .18-.09.195-.24-.046-.06-.105-.136-.165-.136Zm25.979 5.434c-.015.36.15.541.345.722-.12-.21.09-.557-.345-.723Zm-18.634-2.936c-.03.045-.09.12-.135.18.105.076.21.151.315.211.015.015.135-.105.135-.15-.015-.15-.105-.226-.315-.241Zm13.372 8.294c-.105-.076-.135-.256-.3-.21-.105.03-.195.135-.135.24.045.09.15.18.24.196.12.03.165-.106.195-.226Zm-32.757 7.571v.226c.135-.015.33.015.375-.045.105-.211-.21-.271-.21-.452-.06.075-.075.196-.165.27.015 0 .015 0 0 0Z"/><path d="M12.426 82.02c-.09.06-.165.135-.27.18.12.24.24.135.345-.015-.045-.06-.075-.12-.075-.166Zm.061-.06v-.106c-.045.06-.075.105-.075.165.03-.03.06-.045.075-.06ZM25.89 66.801c.15-.09.06-.24.045-.36h-.075l-.03-.03-.015-.016c-.135.09-.27.21-.12.376.03.046.15.06.195.03Zm15.634.377c-.09.015-.255 0-.24.135a.28.28 0 0 0 .285.256c.105 0 .21 0 .24-.15-.105-.076-.105-.271-.285-.241Zm-19.037.316c.09-.045.18-.12.27-.166-.09-.09-.196-.18-.255-.24-.21 0-.24.105-.24.225 0 .12 0 .286.225.18Zm3.312-3.537c.06.03.15-.016.27-.03-.09-.09-.15-.151-.21-.196-.03-.015-.09.03-.15.045.03.06.045.165.09.18Zm.404 4.019c-.09.045-.225.12-.225.195-.015.09.09.196.12.256.225-.09.3-.18.27-.286-.015-.075-.135-.18-.165-.165Zm-.689-4.591c.03-.06.075-.136.075-.181-.015-.06-.09-.105-.165-.196-.03.106-.09.18-.06.241.015.045.09.09.15.136Zm-.765-.347c-.21-.105-.315.06-.45.166.225.15.48.346.45-.166Zm25.77 4.772h.03c.03-.256.495-.135.435-.482-.75-.045-.765-.03-.57.437l.015.015c.03.015.06.03.09.03Zm2.385.873c.27.045.434-.075.524-.346-.3-.15-.464.03-.6.226-.015.015.045.105.075.12Zm-2.01-3.899c.135.045.27.015.375-.195-.09-.06-.18-.166-.3-.211-.15-.045-.285.06-.3.21-.015.046.135.151.225.196Z"/><path d="M50.505 68.171c.15-.09.06-.24.045-.361h-.075l-.03-.03-.015-.015c-.135.09-.27.21-.12.376.03.045.15.06.195.03Zm-.091-2.845c.06.03.15-.015.27-.03a2.14 2.14 0 0 0-.21-.195c-.03-.015-.09.03-.15.045.03.06.045.15.09.18Zm.42 4.004c-.09.046-.225.12-.225.196-.015.09.09.196.12.256.225-.09.3-.18.27-.286a.419.419 0 0 0-.165-.166Zm-.705-4.59c.03-.06.075-.136.075-.181-.015-.06-.09-.106-.165-.196-.03.105-.09.18-.06.24.015.061.09.091.15.136Zm-.749-.347c-.21-.105-.315.06-.45.166.21.165.464.346.45-.166Zm1.604 10.417c.06.03.075.06.06.09s-.03.045-.06.045c.12.03.24.18.375.03.06-.075.075-.136 0-.21-.135-.106-.255.014-.375.044Zm-19.609-8.054c0 .076.03.166.15.136.09-.015.18-.06.345-.106-.135-.12-.21-.225-.3-.24-.12-.016-.195.075-.195.21Zm-11.978.181c.15-.105.3-.196.45-.301-.045-.06-.09-.166-.15-.18-.195-.046-.255.12-.33.255.09.076.105.15.03.226Zm2.22-.422c.06 0 .12-.075.18-.105.015-.15-.06-.18-.15-.166-.06.016-.12.076-.18.12.06.046.105.136.15.151Zm30.895 4.395c-.06 0-.165.06-.165.106-.044.166.075.256.21.286.045.015.12-.06.12-.06.015-.226-.045-.316-.165-.331ZM18.02 96.65c.03.06.12.105.18.135.059.03.149.046.194-.105-.075-.045-.15-.105-.24-.136-.105-.045-.18 0-.135.106Zm23.204-.542c0 .12.06.21.27.15.03-.03.09-.105.15-.18-.09-.06-.165-.166-.27-.18-.18-.046-.15.12-.15.21ZM34.66 65.01c-.105.15-.15.362.105.316.27-.045.134-.3.09-.481-.06.06-.15.09-.195.165Zm13.386 8.098c-.09 0-.24.015-.21.181.015.06.09.105.165.196.09-.09.195-.136.225-.226.075-.18-.09-.15-.18-.15ZM21.992 95.536c-.015.136.06.196.195.196.09 0 .18-.03.33-.06-.135-.12-.195-.211-.285-.256-.12-.06-.225 0-.24.12Zm24.914-19.041c.09.03.225 0 .21-.165-.015-.136-.12-.166-.24-.166-.06.045-.24-.06-.195.12.015.09.135.181.225.211ZM20.687 88.447c.06 0 .12-.046.255-.106-.15-.09-.24-.165-.33-.196-.12-.03-.135.076-.15.15-.015.182.12.166.225.151ZM38.751 73.8c.03-.044.135-.12.135-.195.015-.136-.135-.136-.225-.136-.105 0-.21.03-.195.181.03.136.105.18.285.15Zm-2.519-2.98c.015-.045.045-.06.06-.06-.015-.12.045-.3-.15-.316-.06 0-.165.06-.18.105-.045.241.135.332.315.392-.045-.045-.06-.09-.045-.12Zm-12.186-.722c.105.06.195.015.24-.15-.015-.09-.06-.181-.195-.151-.09.015-.18.06-.255.075.075.075.135.166.21.226ZM6.954 93.037c.015.136.12.181.225.136.06-.015.09-.12.165-.21-.105-.061-.18-.151-.27-.166-.15.015-.135.135-.12.24Zm16.536-.857c-.134.015-.194.12-.18.24.016.136.136.166.24.136.09-.03.226-.03.24.015-.09-.331-.164-.406-.3-.391Zm-11.047-.03c.06-.121-.075-.106-.12-.106-.12-.015-.27-.045-.315.18.03.046.075.121.135.136.15.03.255-.09.3-.21Zm22.666-23.903c-.165-.03-.165.09-.195.24.06.06.105.166.195.196.165.06.165-.075.15-.18 0-.106-.015-.226-.15-.256Zm-5.277.511c.15.241.39.256.495.045.105-.21-.15-.21-.3-.24.045.165 0 .255-.195.195ZM17.12 91.517c-.106 0-.226.015-.21.18.014.136.104.197.224.151.09-.045.165-.12.24-.18-.045-.196-.165-.15-.255-.15Zm12.651-2.965c-.075-.18-.105-.361-.24-.542.105.18.15.376.24.542Zm1.98-6.578c-.09.196-.24.241-.39.241.15.015.3-.045.39-.24Zm3.433-8.911-.03-.03c.06.076.12.15.135.226.075-.06.15-.135.255-.18-.105-.016-.24.045-.36-.016Zm-.075-.075-.015-.015.015.015Zm.001 0c.015.015.03.03.06.046-.03-.016-.045-.046-.06-.046 0-.015 0-.015 0 0Zm.193.271c-.03.03-.06.06-.104.075h-.015l.09.135a.273.273 0 0 0 .03-.21Zm.599 1.008c.015-.03.03-.075.06-.105-.15.075-.27.15-.165.346.016-.03.03-.06.046-.075-.12-.135-.046-.15.06-.166Zm4.364 16.227c.015 0 .045.015.06.03-.03-.015-.045-.03-.06-.03Zm2.802-7.361c.09-.015.18-.015.27-.03-.105-.045-.195-.045-.27.03ZM19.083 70.7a1.62 1.62 0 0 0-.165.15c.18.016.345-.06.525-.03-.03-.06-.06-.09-.075-.12-.105.015-.195.03-.285 0Zm23.971 2.559c.045-.06.06-.12.06-.196a.43.43 0 0 1-.12.211c.015.015.045.015.06-.015Zm-8.816-2.845v-.09c-.075.09-.075.195.015.27v-.044c-.03-.046-.045-.09-.015-.136Zm21.799-40.761c.33-.903.644-1.791 1.11-2.65.644-1.204 1.138-2.483 1.693-3.732.075-.15.165-.302.045-.452-.315-.421-.33-.451.165-.557.33-.075.345-.316.45-.542.255-.572.48-1.174.794-1.716.165-.27.18-.421-.06-.632-.12-.105-.42-.27-.225-.451.27-.271.225.18.375.24.135.06.315.06.36-.075.405-1.038.81-2.077 1.2-3.116-.286.045-.33-.105-.316-.346-.224.03-.374-.075-.48-.256.226.09.375-.527.645-.09l.18.045c.33-.075.555-.27.66-.572.18-.527.18-1.114.674-1.52.24-.196.105-.301-.194-.346-.375-.06-.42-.497-.135-.783-.195-.392-.525-.241-.825-.226 0 .06 0 .136-.015.196-.09.165-.15.421-.285.466-.78.256-.764.949-.884 1.55.285.03.554.03.854-.074-.27.18-.315.556-.674.587-.285-.016-.255.602-.66.36-.45.964-.93 1.912-1.32 2.906-.194.512-.659.978-.374 1.61-.57.211-.705.768-.884 1.22-.315.858-1.035 1.595-.855 2.619-.195-.15-.315.03-.375.135-.27.557-.51 1.114-.764 1.686.345-.256.69-.527 1.14.136-1.05-.542-.496.617-.9.722-.36-.12-.03-.512-.21-.662a.726.726 0 0 1-.165-.06 42.847 42.847 0 0 1-2.324 5.313c-.315.602 0 .978.18 1.4.135.286.72.256.63.828-.03.15.3.15.405-.09.374-.949.75-1.897 1.124-2.86.06-.06.21-.121.24-.211Zm1.004-6.322s.015 0 .015.015c.225-.075.465-.166.405-.482-.045-.286.105-.482.345-.406.255.075.165.421.09.587-.15.361-.435.572-.84.316-.015 0-.015 0-.03.015 0-.03.015-.045.015-.045Zm-1.304 6.563v-.03c-.495-.196-.585-.648-.645-1.1-.015-.12.075-.225.195-.195.09.03.225.12.24.196.09.36.135.737.195 1.098.015 0 .015.015.03.015 0-.015-.015.015-.015.015Zm-2.639-2.845c.39-.076.405-.407.57-.648.674-1.053.899-2.303 1.514-3.401.84-1.506 1.499-3.131 2.143-4.742.105-.256.63-.798-.15-1.053-.104-.03-.134-.181-.03-.271.045-.046.18-.076.195-.046.285.377.48.256.66-.09.09-.196-.075-.24-.18-.3-.105-.076-.27.225-.39-.031.585-.21.585-.21.36-.617.195-.346.405.466.6 0 .12-.271.224-.557.344-.843-.3-.105-.105-1.069-.824-.497-.18.15-.3.106-.42-.045-.12-.135-.045-.196.105-.18.405.014.465-.392.435-.573-.075-.421-.525.572-.66-.12-.015-.045-.12.196-.195.286-.314.406-.33.933-.57 1.4-1.258 2.408-2.278 4.937-3.432 7.496.674-.196.914.482 1.589.632-.555.045-.915.136-1.274.075-.585-.105-.765.256-.93.678-.375.858-.645 1.776-1.17 2.559-.09.135-.104.3.016.376.27.18.255.18-.06.27-.435.136-.645.663-.525.98.18.436.51.842.675 1.339-.36-.075-.39-.377-.585-.527-.21-.18-.285.015-.405.12-.135.12-.285.317-.03.377.405.105.33.542.645.677-.36.271-.57-.301-.974-.015.374.421.794.723 1.379.888.045-.376-.405-.316-.24-.707.195-.452.345-.181.54-.106.044.015.15-.06.18-.12.404-.903.794-1.806 1.169-2.71.015-.045-.03-.195-.075-.21-.375-.06-.225-.256 0-.301Zm5.157-12.463c-.03.436-.3.511-.465.752-.105-.512.195-.512.465-.752Zm-2.159 4.063c.015-.045.105-.12.165-.12.09-.015.18.03.375.06-.165.136-.255.226-.345.256-.09.015-.225-.045-.195-.195ZM38.332 22.97c.06-.06.105-.12.165-.181.18-.166.404-.18.464.045.195.632.66.647 1.185.632 2.113-.015 4.227-.09 6.326.015 1.05.045 1.559-.376 1.934-1.249.24-.557.045-.813-.495-.813-2.953 0-5.906 0-8.86.03-.75 0-1.394 1.19-1.064 1.852-.045-.271.075-.377.345-.331Zm2.938-.964c.06-.12.15-.24.315-.21.075.015.15.045.15.045-.06.316-.21.286-.33.286-.06-.015-.195 0-.135-.12Zm-.69.346c.015-.015.165.106.24.166-.09.196-.18.301-.374.286-.105 0-.24.015-.255-.12-.03-.302.27-.226.39-.332Zm30.568 6.172c-.03-.361.315-.136.48-.226-.075-.391-.435-.482-.705-.647-.434-.256-.914-.422-1.304-.723-.51-.391-.93-.918-1.679-.647-.06.015-.18 0-.15-.196-.015-.225.345-.03.39-.195-1.08-.723-2.159-1.43-3.223-2.153-.255-.165-.54-.496-.78-.346-.495.316-.81.873-.944 1.445-.09.391.345.587.644.783 1.934 1.28 3.868 2.559 5.802 3.823 1.38.903 1.484.873 1.964-.798-.18-.03-.465.136-.495-.12Zm-2.788-.392a.478.478 0 0 1-.27-.27c-.045-.09 0-.211.15-.211.18 0 .195.15.27.27 0 .106-.015.242-.15.212Zm1.649.873c-.105 0-.21-.015-.24-.15-.015-.136.06-.196.165-.196.15.015.285.045.285.211.03.15-.105.136-.21.136Zm-30.194-7.902c2.564 0 5.127-.06 7.676 0 1.02.03 1.574-.286 1.934-1.234.225-.602.165-.828-.465-.828-.72 0-1.454.015-2.174.015-.075 0-.165.03-.15.135.21 1.114-.584.798-1.124.828.3-.36-.375-.24-.255-.542.09-.24.18-.466-.285-.451-.794.015-.78-.015-.944.451-.015.076-.105.15-.165.166-.06.015-.21-.06-.21-.09 0-.768-.57-.467-.93-.482-.674-.03-1.349.03-2.023-.015-.795-.045-1.29.196-1.59.993-.404 1.009-.419 1.054.705 1.054Zm5.682-1.054s-.015 0-.015-.015c-.015 0 .015 0 .015.015.225.12.39.271.24.542-.03.06-.285.06-.36 0-.27-.24-.12-.406.12-.542Zm-3.088-.466c.165.045.285.15.315.316-.015.165-.135.21-.225.165a.669.669 0 0 1-.255-.285c-.06-.121.03-.226.165-.196Zm.21.843c.03 0 .09.075.09.105 0 .286-.255.271-.495.407.015-.362.15-.497.405-.512Zm26.325 12.312c-.78-.451-1.529-.963-2.308-1.415-.195-.12-.3-.481-.57-.36-.3.135.15.436-.045.631h.015c.27-.075.495.03.705.211-.345.241-.495-.105-.705-.21h-.03s0-.016.015-.016c-.36-.135-.87-.09-.914-.617-.03-.421.494.045.63-.361-.93-.452-1.635-1.355-2.804-1.46-.195-.015-.015-.15-.03-.166a1.122 1.122 0 0 0-.87-.662c-.42-.075-.48.256-.54.572-.03.15-.164.286-.254.421-.285.467-.3.798.255 1.16 2.248 1.43 4.467 2.935 6.7 4.41.15.105.33.286.525.15.51-.36.6-.978.765-1.505.09-.27-.21-.587-.54-.783Zm-4.617-.933a.208.208 0 0 1-.255-.195c0-.06.135-.196.21-.196.075-.015.165.09.3.18-.105.09-.165.196-.255.211Zm-.87-.828c.3-.195.345-.692.72-.572.36.12.615.482.66.949-.345-.497-.87-.211-1.38-.377Zm3.134 2.092c-.195.016-.21-.135-.21-.27 0-.12.045-.226.195-.211.135.015.165.12.165.24 0 .106-.015.226-.15.241Zm.345.512c-.06 0-.165-.06-.18-.105-.045-.18.09-.24.225-.271.03 0 .09.09.104.12.015.15-.015.256-.15.256Zm-25.89-18.017c-.06.256.105.346.255.467.195.18.344.015.36-.12 0-.317.134-.302.24-.091.194.406.48.331.824.316.99-.045 1.994-.075 2.983-.06 1.544.015 3.103.09 4.647.075.975-.015 1.275-.572.84-1.43.15-.24.675.166.614-.316-.044-.376-.42-.271-.69-.271-2.443 0-4.886.045-7.33-.015-.465-.015-.614.482-1.064.376-.96-.21-1.484.166-1.68 1.069Zm9.37-1.039c.224-.135.404-.045.584.211-.27.136-.48.12-.675-.015 0-.015.045-.165.09-.196Zm.12.738c-.406.391-.63.06-.885-.166.36-.165.554.196.884.166Zm-2.64-.963c.09-.046.21 0 .226.195-.075.12-.165.301-.3.407-.09.075-.18-.045-.21-.166-.06-.24.12-.346.285-.436Zm-.569.888c.075.12.165.226.27.376-.075.06-.15.18-.225.18-.165-.014-.3-.135-.255-.316.015-.09.135-.165.21-.24Zm-.39-.467c.165-.015.165.12.18.226.015.12-.045.21-.18.21-.134 0-.194-.105-.194-.21-.016-.12.06-.21.194-.226Zm-.18.647c-.194.15-.254.407-.54.452-.044-.422.09-.602.54-.452ZM40.55 18.53c1.44.014 2.879-.151 4.333-.061.255.015.584-.15.884.03.06-.045.12-.075.18-.12-.285-.332.915-.648 0-.979.03-.06.06-.15.105-.18.54-.286 1.71.36 1.68.963-.016.331.119.376.359.361 1.559-.045 1.679.286 2.503-1.294.36-.708-.015-.903-.494-.708-.585.256-1.035-.06-1.544-.045-2.16.03-4.333.09-6.492 0-1.034-.045-1.589.286-1.963 1.25-.21.587.045.782.45.782Zm9.565-1.024H49.02c.51-.587.78-.09 1.095 0Zm18.228 18.649c-.045-.256-.285-.165-.465-.06-.09.045-.225.045-.285-.075.72-.542.72-.632-.135-1.144-.164-.09-.314-.256-.48-.301-.314-.075-.509-.226-.749-.422-.93-.692-1.874-1.37-2.878-1.986-.66-.407-1.5-.573-1.979-1.295-.135-.196-.51-.436-.81-.015.27.286.78.12 1.005.647-.18.015-.315.075-.405.03-.465-.165-.854-.3-1.094.362-.225.647.165.812.585 1.083 1.094.693 2.158 1.4 3.223 2.123.824.542 1.634 1.114 2.443 1.67.105.076.195.226.345.076.06-.06.15-.136.03-.196-.555-.24-.105-.21.06-.24.405-.061.63.39 1.034.376.135 0 .435.195.375-.03-.075-.287.21-.437.18-.603Zm-4.258-2.017c0-.06.12-.15.165-.135.09.03.165.105.255.18-.06.03-.105.076-.15.106-.135-.045-.285.03-.27-.15Zm.705 1.114c.105-.903-.69-.18-.84-.587.345-.481.855-.24 1.17.015.33.271-.255.346-.33.572Zm2.054.196c-.15 0-.315-.015-.465-.03v.015h-.015c.12.165.675.196.195.572-.21.165-.42.481-.66.15-.135-.195-.075-.526.285-.602.075-.015.12-.09.18-.135 0-.015-.015-.015-.015-.03h.03c.015-.181-.3-.166-.24-.211.195-.166.435-.286.72-.271.18 0 .225.105.225.27 0 .212-.075.287-.24.272Zm5.592-10.115c-1.005-.557-1.844-1.385-2.939-1.806-.524-.678-1.349-.934-1.993-1.43-.135-.106-.255.015-.345.12-.09.09-.165.21-.33.045-.18-.18 0-.24.075-.316.15-.15.09-.21-.06-.286-.435-.21-.765-.677-1.32-.632-.044.06-.09.12-.134.196-.6.075-.87.557-1.02 1.023-.135.407.315.647.585.828 1.47.918 2.953 1.806 4.347 2.83.255.18.645.24.93.361.615.271 1.244-.346 1.844.166.18.15.63-.226.764-.497.165-.316-.225-.497-.404-.602Zm-5.637-1.972c-.255-.24-.525-.497-.735-.768-.075-.09.09-.18.315-.18.18.21.42.481.645.752 0 0-.21.196-.225.196Zm2.698.18-.015-.014c0-.015.03 0 .015.015.015 0 .015 0 0 0 .18.18.15.316-.105.36-.075.016-.254.061-.24-.104 0-.226.21-.211.345-.256Zm-.584.723c-.225 0-.465.045-.6-.195-.03-.046.015-.166.06-.196.24-.196.375.075.555.15.09.046.165.136.24.211.584-.06 1.139-.03 1.604.467-.72.15-1.305-.076-1.86-.437ZM43.578 13.427c1.77-.12 3.568.42 5.292-.302.09-.045.255-.045.24.12-.03.452.24.182.405.197.675.075 1.364-.076 2.054.03.494.075 1.529-1.16 1.424-1.671-.06-.256-.3-.407-.555-.422-.33-.015-.66-.03-.96.166-.18.12-.39.286-.599.12-.615-.496-1.14-.3-1.634.196-.195.196-.495.391-.615.09-.24-.602-.854-.21-1.169-.542a.147.147 0 0 0-.225.09c-.12.482-.195.467-.614.242-.315-.166-.645-.512-1.05-.181.15.24.12.286-.27.346-.15.271-.33.21-.524.03-.015-.075-.015-.15-.03-.226-.48.723-1.125.12-1.68.181-.09.015-.18-.135-.344.045-.54.587-.03.813.345 1.024-.225.451-.585 0-.825.18.315.783.9.317 1.334.287Zm6.671-.858c-.48-.362-.974.602-1.394-.06.435-.332.915-.558 1.394.06Zm-2.938-.287c.225-.18.405-.481.765-.195.135.12.075.15 0 .24-.24.257-.405.678-.87.332-.06-.045-.15-.06-.285-.12.165-.106.285-.166.39-.256Zm-2.069.136c.03-.196.165-.166.3-.09.105.06.225.135.345.21-.15.12-.18.316-.345.226-.15-.06-.315-.15-.3-.346Zm26.251 9.242c-.615-.436-1.304-.752-1.934-1.144-.765-.466-1.214-1.475-2.369-1.189-.075.015-.195-.21-.3-.316h-.18c-.18.256.12.617-.18.843.076.196.375.376.06.617-.12.09-.24.12-.36 0-.299-.301.196-.376.166-.602-.09 0-.165 0-.255-.015-.195-.015-.255-.602-.615-.09-.3.421.045.436.225.587 1.364 1.159 2.998 1.941 4.422 3.025.51-.376 1.29 1.295 1.665-.21.015-.046.194-.09.194-.076.24.361.87.286.945.828.06 0 .135 0 .195.015.9-.226.884-.196.315-.843-.57-.662-1.335-.963-1.994-1.43Zm-4.662-.768c.044-.24.134-.481.39-.436.06.015.09.12.134.18-.18.076-.36.166-.525.256Zm3.807.783c-.18.045-.24-.09-.285-.226 0-.015.105-.075.165-.09.105-.015.225-.03.24.18-.03.03-.06.121-.12.136Zm-34.315 6.728c1.125 0 2.234 0 3.358-.015.015-.165-.33-.316-.045-.481.165-.09.405-.09.525.09.165.286-.315.15-.285.391h1.08c1.154 0 2.308-.165 3.447.15-.105-.165-.21-.315-.314-.48v-.377c-.36-.286-.81-.482-.87-1.009-.3.12-.51-.105-.75-.21-.659-.286-1.559-.06-1.753.391-.93-.677-2.01-.391-3.029-.482-.989-.09-1.514.211-1.933 1.205-.36.888 0 .827.57.827Zm5.592-1.806c.24-.03.405.09.51.361-.315.166-.435-.135-.63-.165.03-.075.06-.196.12-.196Zm-1.184.271v.015c.24-.045.434 0 .494.271.015.12-.03.24-.18.21-.24-.06-.36-.225-.314-.48h-.015c-.015 0 .015-.016.015-.016Zm2.488-.226v.03h.015c.015-.014-.015-.03-.015-.03Zm-7.885 4.471c1.589-.03 3.193-.12 4.962.03-.585-.512-.3-1.009-.255-1.49.03-.256.18-.407-.3-.482-1.124-.18-2.234.03-3.328-.135-.9-.136-1.41.135-1.77.948-.344.888-.239 1.144.69 1.129Zm31.196-3.267c-.959-.526-1.888-1.143-2.788-1.776-.42-.3-.734-.527-1.094.03-.645.994-.63 1.385.03 1.807 1.11.722 2.219 1.46 3.313 2.182.39-.27.195-1.069.915-1.099h.164c.195-.556-.014-.858-.54-1.144Zm-2.234 8.309c-1.394-.918-2.818-1.806-4.213-2.724-.374-.24-.674-.226-.749.21-.075.437-.974.798-.09 1.37.285.196.165.377.405.301.465 0 .45.377.51.678.15.27.48.24.72.436.329.271.989.467 1.318.316.645-.3 1.095 0 1.5.286.57.422.464-.286.734-.376.315-.12.03-.391-.135-.497ZM43.053 25.71c.435-.151.72.06 1.095.195.734.27 1.559.165 2.323.06.51-.075.465-.753.72-1.129.45-.632-.03-.843-.465-.828a48.23 48.23 0 0 1-3.628.015c-.495-.015-.63.106-.57.362.09.346-.57.496-.224.888.314.075.404.557.75.436Zm-.374-.874c.36-.12.614.106.884.271.015 0-.045.18-.09.196-.405.135-.54-.286-.84-.392.03-.03.03-.06.045-.075Zm-5.876 7.511c.72-.09 1.35.497 2.069.256-.345-.407-.345-.407.75-1.16-1.515 0-2.909.016-4.288.016-1.334 0-1.32-.015-1.56 1.34-.044.27-.284.572.136.677.3.075.69.166.9-.226.194-.361.284-.376.314.06.015.286.15.12.21.03.165-.21.405-.225.615-.165.54.165.674-.12.6-.542-.046-.286-.03-.256.254-.286ZM73.696 20.32c-.075-.24.495-.346.075-.602-.374-.24-.72-.512-1.109-.707-.195-.106-.45-.136-.585.24-.105.317-.464.467-.764.437-.3-.03-.21.482-.585.376-.66-.195.345-.33 0-.496-.03-.015-.06-.06-.06-.046-.435.317-.794-.511-1.29-.014.93.27 1.425 1.189 2.4 1.384.839.166 1.648.497 2.473.753-.075.24-.465-.105-.555.21.345.046.63.527.96.09.24-.315.554-.692.435-1.098-.195-.768-.885-.512-1.395-.527Z"/><path d="m42.35 25.288-.016-.015s0 .015.015.015Zm-5.248-.753c-.12.256-.18.527-.315.768-.33.572-.12.782.465.722 1.26-.12 2.578.316 3.793-.33.075-.151.194-.181.344-.181.24.03.465-.016.72.09.36.15.315-.09.225-.316-.735-.046-1.364-.316-1.754-.979-.195-.33-.48-.346-.795-.33-.42.014-.84.074-1.274.014-.555-.06-.33.256-.18.512.81-.346 1.35.421 2.069.512.18.03 0 .165-.015.24-.015.106-.075.302-.165.226-.555-.421-1.32-.06-1.844-.527-.045-.045-.045-.15-.075-.24-.15-.046-.345-.06-.45-.166-.12-.12.285-.466-.12-.482-.254 0-.51.196-.63.467Zm32.651-6.156c.045.361.39.391.584.346.42-.075.69-.03.78.421.045.256.345.211.375.136.12-.286.39-.557.254-.903-.044-.12-.12-.241-.36-.136-.584.271-.809-.165-1.154-.286-.614-.226-.45-.813-.81-1.084-.509-.376-1.034-.707-1.558-1.068-.285-.196-.525-.136-.72.12-.704.948-.6 1.596.405 2.258.135.09.195.286.54.256-.465-.888.674-.692.78-1.22 0-.014.224.091.18.332-.06.316-.466 1.023.464.602.15-.06.21.06.24.226Zm.361 11.816c-.375-.316-.855-.497-1.215-.813-.57-.497-.464-.015-.494.286-.21-.03-.345.12-.495.226v.15c.105.407-.42.301-.465.587.045.256.705-.12.42.331-.225.392.015.392.21.512.21.136.405.286.6.422 1.034.737 1.319.617 1.859-.512.314-.647-.076-.903-.42-1.19Zm-1.484-.196c-.255.03-.195-.15-.195-.301h-.03l.03-.03v.03l.45.045c-.09.09-.165.241-.255.256ZM49.02 22.85c-.36.722-.66 1.474-.99 2.227-.135.331-.06.542.345.436.69-.18 1.38-.36 2.039-.587.165-.06.48-.09.375-.572-.3-.436-.675-1.008-1.065-1.565-.27-.422-.54-.286-.704.06Zm2.488-5.39c-.464.934-.929 1.822-1.319 2.74-.195.467.27.421.495.361.69-.18 1.364-.421 2.024-.662.33-.12.554-.271.225-.708-.435-.587-.81-1.189-1.425-1.73Zm7.646 13.457c-.84.256-1.574.452-2.293.693-.3.105-.315.36-.195.692.225.602.75.963 1.08 1.475.18.286.434.286.599-.12a33.98 33.98 0 0 1 1.034-2.243c.21-.422-.075-.437-.225-.497Zm16.1-12.644c-.09-.03-.165-.135-.24-.21.15-.106.3-.211.465-.301-.105-.271-.375-.12-.57-.256-.93-.708-1.05-.693-1.034.36.015.468-.57.994 0 1.446.3.24.615.482.93.677.374.241.614.241.899-.24.39-.648.075-1.175 0-1.762-.015.286-.195.377-.45.286Zm-22.051-3.176c-.15.377-.615 0-.75.617.975-.376 1.919-.436 2.728-.978.105-.075.24-.196.076-.406-.39-.497-.72-1.024-1.095-1.52-.255-.332-.525-.392-.72.09-.15.391-.33.752-.51 1.128-.209.467-.569.934.27 1.07Zm7.39 13.503c.255-.738.63-1.4.945-2.108.195-.437-.075-.467-.3-.527-.525.15-.99.286-1.454.437-1.275.421-1.29.451-.465 1.55.165.226.315.451.465.677.3.467.66.422.81-.03Zm.135-.723c-.39.782-.72.602-1.064.165.315-.045.63-.09 1.064-.165Zm-7.749 6.472c-.36-.045-.495-.135-.57-.527-.03-.15.36-.361-.03-.436-.18-.03-.285.135-.36.36-.225.648-.57 1.25-.794 1.897-.09.256-.555.452-.165.843.24.241.554.166.81.256.569.211 1.873-1.31 1.828-2.032-.225-.105-.465-.33-.72-.361Zm-.99 1.987c-.06-.03-.24.045-.21-.105a.72.72 0 0 1 .24-.392c.09-.075.195.03.195.166 0 .15.045.33-.225.33Zm.9-1.114c-.03.09-.135.166-.24.286-.045-.105-.09-.15-.09-.226-.015-.12.03-.226.15-.256.165-.045.195.09.18.196Zm15.126-19.914c.524 0 .75-.256 1.094.015.39.316.285-.466.705-.421.51.06-.15.451.27.496.12-.3.42-.842.344-.918-.374-.316-.854-.542-1.334-.722-.195-.076-.24.12-.18.3-.135-.03-.165-.15-.21-.27-.045-.136.315-.286-.015-.361-.165-.03-.374-.106-.51.135-.194.331-.044.813-.464 1.039.255.36-.06.993.57 1.174.764.225 1.274.903 2.053 1.098-.33-1.008-1.274-1.174-2.323-1.565Zm.93-1.22h-.016l.03-.014c-.015 0-.015 0-.015.015.465 0 .375.3.135.436-.225.12-.48.392-.825.196.09-.376.57-.316.69-.632Zm-6.778 9.272c-.33.287-.135.437.105.558.24.105.435-.03.555-.256.39-.813.63-1.656.45-2.68-.33.272-.66.317-1.02.377-.45.075-1.05.09-1.259.617-.165.422.33.678.495 1.009.09.195.255.36.54.18.15-.075.314.03.134.196Zm-.12-1.233c.33-.256.6-.377.945-.256-.27.15-.48.466-.945.256ZM47.385 32.422c.195-.526.795-1.189.51-1.55-.36-.436-.96.15-1.44.407-.15.075-.374.03-.569.015-.27-.015-.33.225-.375.376-.075.195 1.05 1.61 1.32 1.64.404-.12.434-.572.554-.888Zm12.233-2.784c-.33-.422-.69-.934-1.094-1.415-.105-.12-.315-.045-.405.15-.285.678-.6 1.355-.87 2.047-.074.196.06.362.255.301.66-.195 1.29-.421 1.934-.647.18-.06.21-.18.18-.436Zm1.769-5.509c-.24-.316-.36-.783-.93-.903-.269.21-.404.587-.494.918-.15.542-.81 1.069-.42 1.55.195.241.9-.226 1.38-.376 1.079-.301 1.109-.361.464-1.19Zm-7.674-6.051c.285-.602.57-1.19.81-1.807.074-.195.104-.466-.15-.466-.735.21-1.365.36-1.964.587-.105.045-.405.361-.135.617.33.316.51.722.764 1.084.195.316.465.421.675-.015Zm-8.725 14.405c-.495.33-.69.918-.87 1.445a.927.927 0 0 0 .84 1.249c.434 0 1.379-.678 1.379-.978-.015-.256-1.214-1.807-1.35-1.716Zm.75 1.219c-.465.09-.585.376-.795.587v.015c.165-.03.27.165.255.21-.135.302-.36.076-.57.136.045-.226.33-.135.315-.346h-.015l.015-.015c-.21-.045-.42-.286-.315-.377.255-.18.54-.421 1.11-.21Zm-4.694-3.598-.015.015c.015 0 .015.016.03.016-.014-.016-.014-.03-.014-.03Z"/><path d="M44.028 31.128c.555-.226.81-.617.9-1.385-.465.512-.735.557-.945-.015-.09-.24-.345-.466-.69-.27-.15.09-.224.18-.39-.046-.314-.482-.314-.452-.689.03-.285.391-.524.933-1.17.677.15.587.646.467 1.065.482.045-.256.195-.391.45-.361-.015-.346.18-.391.465-.331.345.075.18.21.09.406-.12.256-.24.602.12.753.344.135.464-.18.57-.437.03-.075.104-.195.15-.18.374.255-.03.421.074.677ZM38.99 33.1c-.224-.181-.404-.06-.404.15.015.196.24.271.555.226.66.12 1.184-.482 1.873-.662.345-.09.36-.527.42-.813.03-.15-.3-.512-.465-.512-.524.015-1.094.136-1.409.602-.09.15-.6.196-.285.512.57.602-.164.346-.284.497Zm11.05-11.23c.284.437.6.859.914 1.265.15.196.375.241.54 0 .15-.24.164-.421-.165-.542-.345-.12-.72-.286-.63-.858.39.076.525.347.72.527.105.09.255.256.345.12.254-.436.72-.902.554-1.414-.165-.482-.584-.015-.884.045-.375.075-.735.256-1.11.346-.3.075-.464.226-.285.512Zm5.26-8.79c.196.422.526.301.72-.075.24-.497.48-.994.66-1.505.045-.136.315-.286.075-.482-.18-.15-.39-.196-.525-.045-.15.18-.39-.06-.524.18.15.181.314.347.554.618-.36-.06-.644.09-.824-.136-.12-.15.015-.527-.405-.346-.33.136-.375.376-.435.707-.075.588.525.678.705 1.084Zm3.66-.632c.104-.135.24-.361.464-.105.195.226.15.406-.075.557-.24.15-.27.406-.315.647.33.226.435-.09.525-.286.21-.436.36-.903.54-1.34 0-.06-.015-.135-.015-.195-.165.015-.345.376-.465.075-.09-.256.105-.467.45-.361.18-.271.195-.693.644-.738-.015-.045-.015-.12-.03-.135-.57-.256-1.109.12-1.694.075-.33-.03-.69.602-.284.858.66.406.254.512-.06.753-.12.09-.255.195-.21.39.18-.06.39-.014.524-.195Z"/><path d="M58.45 12.674v-.03h-.015l.016.03Zm.584.873c0-.015-.015-.015-.03-.015l.03.015ZM49.68 25.86c-.524.045-1.034.3-1.559.481-.33.106-.51.467-.254.617.54.347.45 1.295 1.289 1.28.03 0 .06-.03.075-.045.33-.497.27-1.174.884-1.61-.434-.151-.15-.738-.434-.723Zm-.779 1.836c-.39.045.015-.452-.3-.467.03-.376.435-.18.63-.36-.03.315.255.767-.33.827ZM59.873 8.79c-.03.076-.06.15-.09.211h.315c.75.196 1.62-.376 1.784-1.294-.615.722-1.004.03-1.41-.181-.134-.075-.104-.557-.464-.21-.225.225-.18.48-.045.797.165.361.63-.226.6.21-.015.287-.555.151-.69.467Zm5.188 9.754c.255-.707.54-1.4.945-2.047.075-.12.225-.346-.015-.497-.285-.18-.465.332-.75.136.015.391-.54.647-.48.813.18.436.045.767-.164 1.068-.33.467.33.467.3.768.15 0 .134-.15.164-.24Zm-1.35 1.806c-.465-.571-1.14-.797-1.319-1.655-.285.647-.435 1.084-.645 1.49-.27.542.06.602.42.512.48-.12.914-.407 1.544-.346ZM47.372 10.175c.105.015.24-.226.39.03-.06.286-.6.226-.48.633.48-.136.765.677 1.32.255.134-.105.24-.255.15-.3-.436-.256-.45-.783-.75-1.114-.3-.347-.735.21-1.02-.166-.015.075-.075.166-.06.226.075.225.24.406.45.436ZM44.103 31.91c.18-.316-.06-.24-.225-.316-.75-.36-1.53-.18-2.339-.09.375.106.75.211 1.184.346-.33.196-.69.422-.404.708.224.24.33-.21.494-.346.24-.196.57-.332.87-.09.345.285.33-.046.42-.211Zm14.047 7.963c-.045-.406-.015-.798.195-1.385-.54.542-1.499.693-.554 1.641-.495-.361-.87-.632-1.35-.12.405.316.675.963 1.35.406.24-.12.36-.301.36-.542Zm12.727-25.769h.046c-.016 0-.016-.015-.03-.015 0 0-.016.03-.016.015Zm1.259-.316c-.255-1.204-.54-.437-.854-.045-.105.135-.165.33-.36.36.51.452 1.08.648 1.739.287a.527.527 0 0 0 .3-.542c0-.105.015-.24-.135-.271-.375-.06.12.286-.18.391-.315.136-.465.015-.51-.18ZM55.677 9.874l.195-.196c.27-.36.465-.812.93-.978.21-.075.194-.165.074-.27-.27-.212-.374-.663-.84-.588-.03.542-.284.316-.509.15.195.618.435 1.22-.12 1.807-.03.045.18.045.27.075Zm8.903-3.522c-.42.24-.42.978-.06 1.31.21.195.315.511.45.737-.27.361-.045.738.09.722.375-.03.12-.376.165-.571.195-.753-.51-1.34-.3-2.093.015-.09-.18-.195-.344-.105Zm14.018 4.215c.075-.452-.645-.076-.855-.422-.045-.06-.135-.15-.195-.15-.165.015-.27-.256-.434-.12-.285.225.105.3.12.45.03.257 0 .528 0 .784l.224.18c.015.015.03.015.045.045.465-.12 1.02-.33 1.095-.767ZM41.33 33.988c-.24 0-.33.165-.465.3-.105.106-.045.227.03.287.15.135.12-.09.18-.12.24-.121.525-.347.674.135.06.196-.284.451.075.557.3.09.405-.226.57-.392.195-.18.36-.39.69-.767H41.33Zm-3-9.483c-.014.075-.014.15-.03.226.526.27 1.095.346 1.665.36-.48-.36-1.08-.375-1.634-.586Zm18.395 12.222c-.03-.045-.21-.03-.3.015-.464.256-.06.693-.21 1.084-.45-.03-.66-.527-1.094-.542-.165 0-.345.06-.39.241-.03.105 0 .301.135.196.42-.316.525.105.735.27.375.302.69.588.914-.18.12-.376.45-.677.21-1.084ZM76.83 15.94c-.57.211-.945-.466-1.515-.33-.21.044-.494.12-.24.27.465.271.135.406-.014.527-.12.105-.345.135-.18.331.15.15.36.15.434-.12.105-.331.3-.512.675-.331l.18.18c.33.075.42-.27.66-.361.03-.075.03-.12 0-.166Zm-3.824-.677c.24.512.674.602.99.843.21.15.314.06.464-.09.18-.166.105-.241-.015-.407-.165-.24-.27-.527-.405-.783-.375.076-.405.813-1.034.437ZM45.693 27.53c.345-.03.51-.286.6-.602.105-.406-.21-.541-.45-.541-.285-.016-.63-.151-.99.12.315.331.795.24 1.05.587-.21.331-.555-.256-.675.135-.045.106.24.332.465.301ZM68.104 9.679c.06-.136.165-.271-.015-.332-.15-.045-.33 0-.495.015.165.648-.735.512-.735 1.1.51-.091 1.155-.543 1.245-.783Z"/><path d="M74.58 15.037c.24.03.57.256.705-.135.12-.377.03-.708-.33-.949-.254-.165-.45.15-.45.166.6.738-.3.497-.464.722.225-.03.36.181.54.196ZM46.322 30.54c.3-.165.72-.135.945-.556-.36-.21-.69-.286-1.14-.12-.36.135-.164.27-.18.436-.014.301.165.346.375.24Zm29.667-14.269c-.075.302-.645.422-.315.858.18.241.45.362.78.317.18-.03.345-.12.375-.286.045-.271-.18-.226-.33-.211-.435.03-.33-.271-.315-.512-.12-.015-.15-.105-.195-.166ZM41.78 29.11c-.54-.074-.99.031-1.454-.074.48.225.255.858.72 1.053.15-.346.404-.662.734-.978Zm-.734.994c-.015-.015-.015 0 0 0-.015 0-.015.016-.03.016l.03-.016Zm29.292-13.23c.016-.016.016-.016 0 0Z"/><path d="M71.838 17.19c.15.06.315.195.404-.03.06-.121.045-.287.015-.407-.105-.286-.27.03-.374-.015-.54-.24-1.02.045-1.53.12.315.046.54.362.9.271h.195c.135.015.27.015.39.06ZM55.842 34.349c-.15.105-.09.226.045.316.255.18.6.196.854.437.105.105.48.21.525-.12.045-.242.345-.723-.315-.678-.27.135-.495.511-.84.18-.104-.06-.24-.165-.27-.135Zm9.264 2.454c-.015 1.068-.015 1.068 1.215.752-.36-.452-.78-.587-1.215-.752ZM51.6 38.383c.044-.015.09-.15.075-.18-.045-.09-.135-.166-.27-.09-.15.09-.315.165-.48.255.015.331-.375.467-.39.813.27.075.54.15.795.21.18-.36-.36-.842.27-1.008Zm-.692-.015c.015 0 .015-.015.03-.015v-.015l-.03.03Zm22.908-21.585c-.285-.421-.72-.466-.975-.722-.24-.256-.3 0-.42.135-.21.226.03.241.12.346.33.362.765.196 1.275.241Zm-.945 1.912c.03.045.135.06.21.09-.105-.873-.405-1.114-1.484-1.159 0 .135-.045.316.135.331.524.045.9.271 1.139.738Zm-1.289-1.069h.015v-.015l-.015.015ZM56.847 34.093a.782.782 0 0 0-.015-.316c-.075-.09-.135-.21-.225-.24-.18-.076-.24-.542-.48-.272-.12.12-.405.106-.375.362.045.451.525-.136.615.316-.3 0-.165.21-.15.376.21-.09.555-.015.63-.226Zm-10.18-5.991c-.09.06-.09.422 0 .527.45.512.72-.075 1.304-.3-.614.06-.854-.513-1.304-.227Zm15.831-9.542c.18.27.24.692.614.722.165.015.225-.286.24-.542-.045-.301-.315-.482-.615-.542-.09-.03-.344.21-.24.361Zm-4.078-5.901c.015 0 .015 0 .03.015l-.03-.015c.015 0 .015-.015 0 0Zm-.646-.256c-.18.196-.39.632-.12.813.345.226.45-.271.66-.452l.105-.105c-.225-.106-.315-.632-.645-.256Zm-2.038 12.885c.075.015.135.03.165.06.24.045.45-.045.57-.316-.18-.09-.36.3-.585.105-.045.06-.105.106-.15.15Zm-10.478 4.154c-.165-.692-.795-.286-1.17-.482-.12-.075-.36-.09-.3.06.226.588.93.151 1.29.527 0 .015.18-.075.18-.105Zm2.127 7.105c-.374 0-.494.3-.554.587-.03.135-.12.406.12.406.404 0 .33-.512.614-.677.03-.166-.06-.316-.18-.316Zm19.805-6.849h.015v-.015l-.016.015Z"/><path d="M67.848 29.939c.015-.03.045-.045.06-.045-.345-.316.39-.557.015-.949-.27.226-.345.663-.734.753-.06.707.434.301.704.331-.045-.03-.06-.06-.045-.09Zm.975-20.983c.21-.226.615-.196.72-.421.03-.271-.046-.437-.21-.377-.285.12-.555.286-.78.497-.075.06.225.346.27.301ZM58.72 39.948c-.194-.03-.39-.045-.584-.075.15.346.045.542-.345.527.015.497.165.527.54.196.135-.12.105-.377.344-.392.016-.075.03-.165.046-.256Z"/><path d="M58.689 40.204c.015 0 .015 0 0 0h-.015v.016c0 .015.03-.016.015-.016Zm.031-.27-.015-.046.015.061v-.015Zm4.467-23.045c-.195.421.18.632.42.933.135-.271.03-.497.135-.708.105-.24-.435-.466-.555-.225ZM58.12 37.164c-.18-.286-.36-.181-.464.06-.105.24.12.346.255.482.135.135.225.346.524.3.09-.39-.224-.42-.39-.571-.03-.03.106-.211.076-.271ZM46.351 10.928c-.12-.376.42-.241.405-.527-.015-.286-.315-.165-.48-.21-.27-.06-.315.225-.33.406-.045.165.135.27.405.33Zm22.173-3.402c.045-.226-.09-.24-.24-.24-.24 0-.42.105-.45.375-.015.181.045.362.24.362.33 0 .285-.362.45-.497Zm-5.277 1.882c.12-.076-.03-.226-.135-.332-.105-.105-.165.015-.18.046-.09.33-.63.647-.045 1.008.015-.09.06-.15.105-.18.06-.196.06-.407.255-.542ZM41.045 25.694c.24.677.75.18 1.17.346-.21-.391-.645-.226-.825-.527-.09.106-.195.181-.345.181Zm31.916-1.791c-.404.226-.6-.437-1.004-.166.405.03.615 1.069 1.2.18-.076.061-.136.061-.196-.014ZM60.159 11.455c-.03.03-.06.045-.075.075v.135c.015.016.03.046.06.06a.17.17 0 0 1-.045.166c.405-.3.435-.798.615-1.204-.27.21-.33.542-.555.768Zm1.56-5.675c.194-.03.374.316.584.06.045-.045.15-.12.03-.18-.21-.12-.404-.256-.674-.226-.18.03-.3.105-.405.361.21 0 .345 0 .465-.015Z"/><path d="M62.962 10.13h-.045c.314.106.165.286.075.482-.09.165.12.316.18.226.15-.196.21-.467.3-.723.03-.09.09-.24-.076-.256-.15-.015-.3-.015-.404.076a.28.28 0 0 1-.105.18l.075.015Zm6.716 1.22c.18.03.21-.136.225-.272.015-.225-.045-.376-.36-.391-.075.045-.285.105-.255.271.045.165.165.361.39.391Zm1.874 15.638c-.045.016-.105.151-.075.196.18.346.465.331.9.196-.3-.256-.48-.497-.825-.392Zm7.24-15.338c-.03-.135.075-.346-.195-.36-.135.044-.09.18-.09.27-.015.361.345.512.48.783 0 .015.135 0 .15-.03.18-.362-.285-.407-.345-.663ZM53.398 39.226c-.195.015-.33.135-.315.331.015.226.165.346.405.346.135 0 .285-.03.195-.286-.225-.015.045-.421-.285-.391Zm23.82-28.118c-.18-.075-.36-.15-.54-.24-.315.466-.135.617.36.572.15-.015.3-.076.45-.12l-.045-.046c-.075-.03-.225 0-.225-.165Zm-16.279 2.996c-.45.12-.345.542-.48.843.195-.166.36-.362.57-.497a.626.626 0 0 1-.09-.346Zm5.935 4.892c-.225-.256-.21-.888-.944-.542.314.18.374.542.75.557.074-.075.134-.09.194-.015Zm9.595-5.359c.03-.045-.015-.196-.045-.21-.36-.106-.555.135-.78.451.36-.015.66.06.825-.24Zm-6.432-.361c.135.527.54.587.84.783.045-.557-.36-.633-.84-.783Zm.84.798v.046l.03-.031c-.015 0-.03-.015-.03-.015Zm-34.899 20.41v.03l.031-.03h-.03Zm-.105-.451c-.285-.015-.48.256-.555.557.285.195.435-.166.66-.106 0-.18.12-.436-.105-.451ZM51.75 7.571h.03c.03-.256.494-.135.434-.481-.75-.046-.764-.03-.57.436l.016.015c.03.015.06.03.09.03Zm-6.836 4.245c.09-.075.18-.12.27-.015.015 0 .044-.015.06-.015.12-.045.254-.075.3-.21-.21.375-.705-.663-.825.165.06.015.12.045.165.06.015.015.03.015.03.015Zm23.61 6.849c-.06.015-.09.12-.12.18.24.166.48.316.72.467a.113.113 0 0 0 .06-.03c-.285-.12-.18-.753-.66-.617Zm3.058-2.499c.06-.06.015-.361-.03-.376-.345-.12-.405.33-.675.36.27.392.51.212.705.016ZM56.111 34.485c.016 0 .03-.016.061-.016h-.015c-.03 0-.046 0-.046.016Zm.106-.166c-.06.03-.12.075-.135.15h.045c.075-.03.105-.09.09-.15Zm-.121.151c.015.015.015.015 0 0Zm.854-.166c0-.18.046-.377-.12-.512.046.15.046.24.016.316a.451.451 0 0 1-.09.21c.06-.014.12-.03.195-.014Z"/><path d="M56.156 34.47c.255 0 .48-.03.6-.166-.18.03-.36.105-.54.15-.015 0-.045.015-.06.015Zm7.257-21.751c.075-.105.24-.135.194-.331-.09-.331-.33-.377-.614-.301-.03.316.21.466.42.632Z"/><path d="M62.963 12.102h.03v-.015c-.015-.015-.03.015-.03.015l.03-.03a.032.032 0 0 0-.03.03Zm-8.681 26.612c-.225 0-.36.045-.375.21-.015.212.12.332.315.287.12-.03.315-.136.315-.226.015-.18-.15-.27-.255-.27Zm-10.058-1.67c-.105 0-.255-.016-.27.12-.015.226.135.346.345.391.12.015.285.045.315-.165-.06-.211-.165-.331-.39-.346Zm-5.997-2.063c-.09.136.075.271.195.316.345.136.405-.12.465-.391-.255-.06-.495-.18-.66.075Zm-2.295 3.056c-.09.135.075.27.195.316.345.135.405-.12.465-.391-.24-.06-.495-.181-.66.075ZM66.41 20.004c.136.015.06-.12.106-.165-.045 0-.09 0-.135.015.03.045.03.09.03.15Zm9.534-9.332c.06-.09.045-.361.015-.376-.27-.09-.48.03-.734.36.314-.074.45.422.72.016Zm1.906 3.025h-.016v.016l.015-.015Zm-.497-.451c-.015-.015-.15.105-.135.15.06.316.285.347.555.316.015 0 .045 0 .06-.014.09-.392-.285-.347-.48-.452ZM58.719 39.888v.046c.015 0 .015-.03 0-.046Zm.376-.511c-.195.03-.45-.12-.6.09-.12.196.18.256.225.421.03-.225.525-.12.375-.511Zm-22.368-6.112c.374.076.764.15.78-.481-.36.09-.45.496-.78.481Zm.63 1.46c-.015.045.075.166.135.18.345.106.36-.225.525-.406-.225.09-.555-.165-.66.226ZM49.426 8.49c-.21-.136-.27-.452-.585-.422-.03 0-.09.15-.075.21.09.407.405.211.66.211Zm-12.728 26.4c0 .121.165.151.255.106.3-.135.24-.391.15-.707-.18.21-.42.316-.405.602Zm22.95.422c-.03.377.045.678.51.678-.24-.181-.315-.482-.51-.678Zm-19.966-6.924h.194c-.06-.165-.12-.15-.194 0Zm27.388.618c-.06.06-.12.06-.164 0 .06.24-.36.707.284.677.03-.24.21-.497-.12-.677Z"/><path d="M67.205 29.683h-.016v.015l.016-.015Zm8.379-16.332c.09-.075.105-.226-.015-.27-.225-.106-.435-.06-.585.24.21.06.39.226.6.03Zm-16.55.196-.03-.015c.015 0 .03.015.03.015Zm-.449.391c.03.136.12.211.225.15.18-.12.45-.24.225-.526-.195.06-.525-.045-.45.376Zm-8.306-3.974c0-.015-.09-.075-.12-.075-.3.09-.285.361-.45.783.465-.21.54-.452.57-.708Zm16.267 1.746c.15 0 .285-.045.3-.21.015-.15-.075-.286-.24-.24-.12.03-.27.09-.27.27 0 .136.09.18.21.18Zm-4.799 3.688c-.03.046-.045.106-.075.15l.015.016c.105.12.18.27.255.406l.045-.632a.738.738 0 0 1-.195.06c-.015-.015-.03-.015-.045 0ZM75.63 11.47c-.256-.331-.48-.407-.78-.15.225.225.464.225.78.15Zm-19.774-1.069c-.21-.105-.33-.497-.81-.166.346.09.466.392.81.166ZM43.983 26.567c-.51-.21-.51-.21-.735.09.24.106.45.06.735-.09Z"/><path d="M43.25 26.658c-.016 0-.016 0-.031-.016l.03.016Zm-1.006 4.124c.015.15.12.33.225.27.27-.15.27-.481.39-.737l-.285-.045c.03.256-.12.406-.33.512Zm-3.703 3.296c.285.361.525.376.81-.015-.285-.075-.525-.166-.81.015Zm13.807 3.327c-.12.03-.27.12-.255.286 0 .135.12.21.225.195.135-.015.24-.12.24-.286 0-.15-.09-.225-.21-.195Zm-1.438.963.03-.03h-.045c0 .015 0 .015.015.03Zm-.466-.467c-.09.03-.15.15-.21.241.09.075.18.211.285.241.105.03.24 0 .36-.03-.06-.075-.135-.15-.165-.24-.045-.166-.105-.272-.27-.212Zm13.074 4.185c.36-.075.6.18.734-.18-.18-.212-.375-.212-.734.18ZM57.25 9.709c.136-.015.3-.06.3-.271 0-.106 0-.241-.134-.241-.195-.015-.3.135-.345.286-.045.105 0 .21.18.226Zm2.533-.708c-.015.241-.39.09-.374.346 0 .136.105.181.21.196.284.045.254-.18.33-.346.03-.075.104-.12.15-.18-.106.09-.21.09-.316-.016Zm-14.855-.692c.225.105.285-.075.315-.24-.015-.076-.015-.151-.03-.227-.165.045-.435-.09-.465.211 0 .075.09.21.18.256Zm10.599-.301c.15-.106.345-.09.51-.15-.27-.302-.435-.242-.51.15Zm19.923 9.979c.074.106.18.015.27 0a3.015 3.015 0 0 0-.24-.21c-.03.06-.09.15-.03.21Zm-29.698.513c.165.014.33.044.495.044.12 0 .315.046.315-.165 0-.271-.225-.18-.36-.166-.105.015-.195.106-.285.15-.03.076-.075.121-.165.136Zm25.875 10.16c.195-.121.015-.241 0-.362-.12.12-.105.24 0 .361ZM58.689 40.234c-.06.166-.09.347.15.316.165-.015.404-.165.24-.39-.135-.212-.255.014-.39.074Zm-.015.001.015-.016-.015.016Zm-8.409-9.483c-.075.195-.135.36-.21.511-.075.136.045.15.105.15.24-.014.315-.21.33-.39.015-.06-.12-.151-.225-.271Zm21.333-13.126c-.016 0-.016 0 0 0 0-.015 0-.015 0 0Z"/><path d="M71.446 17.13c-.06.09-.12.09-.18.014.105.166-.524.873.33.482.12-.226-.195-.3-.15-.497ZM51.823 38.579c-.09.09-.225.165-.255.27-.06.181.09.211.24.211.135-.03.285-.06.225-.24-.045-.106-.15-.166-.21-.241Zm2.639-2.002c-.03.015-.06.12-.03.135.195.226.405.136.645.045-.15-.316-.36-.3-.615-.18Zm-18.484-2.062h.031V34.5c-.015-.016-.03.015-.03.015Z"/><path d="M35.994 34.514c-.015.271.09.467.39.497.03 0 .104-.075.104-.105-.03-.316-.21-.407-.494-.392Zm38.182-12.026c-.285-.286-.285-.286-.824-.452.344.241.404.587.824.452ZM54.132 8.444c.27.045.435-.075.525-.346-.3-.15-.465.03-.6.226-.03.015.03.105.075.12Zm-12.398 30.24c.27.045.434-.075.524-.346-.3-.15-.465.03-.6.226-.014 0 .046.105.076.12Zm10.39-34.138c.135.045.27.015.375-.196-.09-.06-.18-.165-.3-.21-.15-.046-.285.06-.3.21-.014.06.135.15.225.196Zm-3.628 5.388c.105.226.21.407.435.362.09-.015.225-.106.135-.241-.135-.226-.33-.196-.57-.12Zm25.83.723c-.105-.015-.255.09-.135.18.135.121-.03.422.255.407.105 0 .21-.075.165-.24-.075-.136-.09-.332-.285-.347Zm3.508 3.056s.015 0 .03.015v-.03c-.015 0-.03.015-.03.015Z"/><path d="M77.849 13.728c.03.195-.15.466.18.527.165.03.165-.196.18-.317.044-.346-.21-.195-.36-.21ZM40.776 30.691c-.03.03-.06.12-.045.15.18.181.39.151.794.016-.375-.06-.51-.331-.75-.166Zm1.334-.09.134.18c.045-.12.09-.225.15-.33-.075.06-.18.105-.285.15Zm.479-.361h-.03v.03l.03-.03Z"/><path d="M42.589 30.27v-.03c-.015 0-.015.015-.03.015.015.015.015.015.03.015Zm-.091.09c.015-.03.03-.06.06-.09-.06.06-.105.12-.15.18a.256.256 0 0 0 .09-.09Zm5.832-.963c-.15 0-.21.105-.165.21.03.076.15.136.24.151.09.015.225 0 .225-.195-.06-.106-.15-.166-.3-.166Zm-9.085 6.623c-.09.06-.09.421 0 .527.45.511.72-.076 1.304-.301-.614.06-.854-.527-1.304-.226Zm1.665 1.28c-.15 0-.21.105-.165.21.03.075.15.136.24.15.09.016.225 0 .225-.195-.06-.106-.15-.166-.3-.166Zm3.509-8.746c.3.03.315-.105.195-.331-.105 0-.18-.09-.27-.15.075.15.165.285.075.48Zm28.827-3.808c-.09.015-.225.06-.27.12-.045.09 0 .211.15.226.134 0 .27-.03.33-.196.014-.15-.106-.165-.21-.15Zm-27.81 3.1c-.015-.105-.105-.135-.224-.135-.105 0-.24 0-.27.12-.03.181.105.226.255.211.12 0 .224-.015.24-.196Z"/><path d="M44.283 27.967c.135-.015.225.135.315.256.03-.361-.165-.527-.495-.542.06.09.12.18.18.286Zm.045.105c-.015-.03-.045-.075-.045-.105-.06 0-.12.03-.18.105.09-.06.165-.045.225 0Zm19.504 13.366c.12-.015.21-.06.194-.18-.044-.15-.134-.166-.254-.166-.12.015-.21.075-.18.211.015.136.12.15.24.136Zm13.852-28.403c.12 0 .21-.045.165-.18-.03-.12-.105-.166-.255-.166-.075.03-.225 0-.21.15.03.166.165.211.3.196Zm-17.93 26.673c-.12.015-.21.045-.24.165-.03.15.09.18.195.196.105 0 .21-.045.225-.166.03-.165-.09-.165-.18-.195Zm17.884-27.681c.105 0 .224-.03.194-.301 0-.03-.104-.06-.224-.046-.12.016-.225.076-.225.211.015.136.165.136.255.136ZM48.945 36.17c-.105-.015-.24 0-.255.12-.03.181.09.227.24.212.105-.016.21-.03.24-.181 0-.136-.12-.136-.225-.15Zm10.135-.24c.044-.016.06-.181.03-.211a.516.516 0 0 0-.6 0c.18.135.315.331.57.21Zm-8.606-2.047c-.014-.076-.18-.106-.254-.151-.165.015-.21.105-.21.226.015.135.09.18.225.18.165-.015.3-.09.24-.255Zm.435-1.4c.03 0 .075-.106.15-.196-.105-.075-.165-.136-.255-.18-.075-.03-.165.014-.15.105.015.165.105.27.255.27ZM51 31.49c-.285-.151-.48-.061-.615.195.27.165.465.06.614-.196ZM65.285 7.06c0 .15.075.27.255.225.06-.015.09-.105.12-.135-.015-.18-.12-.226-.225-.226-.045 0-.15.09-.15.136Zm.255 13.953c-.105-.166-.24-.467-.45-.211-.24.316.33.15.315.406.015-.09.06-.15.135-.195ZM50.37 4.711c-.12 0-.196.106-.18.226 0 .06.09.15.15.15.12 0 .18-.09.194-.24-.045-.045-.105-.136-.165-.136Zm25.979 5.449c-.015.361.15.542.344.723-.12-.211.09-.572-.344-.723ZM57.715 7.21c-.03.045-.09.12-.135.18.105.076.21.151.315.211.015.015.135-.105.135-.15-.015-.136-.12-.226-.315-.241Zm13.372 8.309c-.105-.076-.135-.256-.3-.211-.105.03-.195.135-.135.24.045.091.15.181.24.196.105.015.165-.105.195-.225Zm-32.755 7.556v.226c.135-.015.33.015.375-.045.105-.211-.21-.271-.21-.452-.06.09-.075.196-.165.27Z"/><path d="M38.272 23.135c-.09.06-.165.136-.27.18.12.242.24.136.345-.014-.06-.06-.075-.105-.075-.166Zm.058-.06v-.105c-.044.06-.074.105-.074.165a.329.329 0 0 0 .075-.06ZM51.733 7.933c.15-.09.06-.241.045-.362h-.075l-.03-.03-.015-.015c-.135.09-.27.21-.12.376.03.046.15.06.195.03Zm15.637.361c-.09.015-.255 0-.24.135a.28.28 0 0 0 .285.256c.105 0 .21 0 .24-.15-.105-.076-.105-.256-.285-.241Zm-19.055.316c.09-.045.18-.12.27-.166-.09-.09-.195-.18-.255-.24-.21 0-.24.105-.24.225.015.12.015.301.225.18Zm3.33-3.522c.06.03.15-.015.27-.03a2.31 2.31 0 0 0-.21-.196c-.03-.015-.09.03-.15.045.03.06.045.166.09.18Zm.404 4.019c-.09.045-.225.12-.225.195-.015.09.09.196.12.256.224-.09.3-.18.27-.286-.015-.09-.135-.18-.165-.165ZM51.36 4.5c.03-.06.074-.135.074-.18-.015-.06-.09-.105-.165-.196-.03.106-.09.18-.06.241.015.06.09.09.15.136Zm-.766-.346c-.21-.105-.315.06-.45.166.225.165.48.346.45-.166ZM35.26 39.075h.03c.03-.255.494-.135.434-.481-.75-.045-.764-.03-.57.436l.015.015c.03.03.06.045.09.03Zm2.366.873c.27.045.435-.075.525-.346-.3-.15-.465.03-.6.226-.015.015.045.12.075.12Zm-2.008-3.883c.135.045.27.015.375-.196-.09-.06-.18-.165-.3-.21-.15-.046-.284.06-.3.21-.014.045.136.15.225.196Zm-1.738.165c-.12 0-.196.106-.18.226 0 .06.09.15.15.15.119 0 .179-.09.194-.24-.06-.045-.12-.136-.165-.136Z"/><path d="M35.243 39.452c.15-.09.06-.241.045-.361h-.075l-.03-.03-.015-.016c-.135.09-.27.211-.12.377.015.045.15.06.195.03Zm-.091-2.845c.06.03.15-.015.27-.03a2.31 2.31 0 0 0-.21-.196c-.03-.015-.09.03-.15.045.03.06.046.15.09.18Zm-.283-.587c.03-.06.075-.136.075-.18-.015-.061-.09-.106-.165-.196-.03.105-.09.18-.06.24.015.06.09.09.15.136Zm-.765-.346c-.21-.106-.315.06-.45.165.225.15.465.346.45-.165ZM76.828 15.94c.06.03.075.06.06.09s-.03.046-.06.046c.12.03.24.18.375.03.06-.076.075-.136 0-.211-.135-.12-.255 0-.375.045ZM57.22 7.872c0 .076.03.166.15.136.09-.015.18-.06.345-.106-.135-.12-.21-.225-.3-.24-.12 0-.21.09-.195.21Zm-11.977.196c.15-.105.3-.196.45-.301-.045-.06-.09-.166-.15-.18-.195-.046-.255.12-.33.255.09.06.105.136.03.226Zm2.217-.437c.06 0 .12-.075.18-.105.015-.15-.06-.18-.15-.166-.06.015-.12.076-.18.12.045.061.105.151.15.151Zm30.898 4.411c-.06 0-.165.06-.165.105-.045.166.075.256.21.286.045.015.12-.06.12-.06.015-.226-.045-.331-.165-.331ZM43.863 37.781c.03.06.12.105.18.136.06.03.15.045.195-.106-.075-.045-.15-.105-.24-.135-.105-.046-.18 0-.135.105Zm23.207-.557c0 .12.06.21.27.15.03-.03.09-.105.15-.18-.09-.06-.165-.166-.27-.18-.18-.046-.15.12-.15.21ZM60.503 6.126c-.105.15-.15.362.105.316.27-.045.135-.3.09-.481-.06.06-.15.105-.195.165Zm13.388 8.114c-.09 0-.24.014-.21.18.016.06.09.105.166.196.09-.09.194-.136.224-.226.075-.18-.09-.166-.18-.15ZM47.836 36.667c-.015.136.06.196.195.196.09 0 .18-.03.33-.06-.135-.12-.195-.211-.285-.256-.12-.06-.225-.015-.24.12ZM72.751 17.61c.09.031.225 0 .21-.165-.015-.135-.12-.165-.24-.165-.06.045-.24-.06-.194.12.015.09.135.18.224.21ZM46.533 29.562c.06 0 .12-.045.255-.105-.15-.09-.24-.166-.33-.196-.12-.03-.135.076-.15.15-.015.181.12.166.225.151Zm18.064-14.63c.03-.045.135-.12.135-.196.015-.135-.135-.135-.225-.135-.105 0-.21.03-.195.18.015.12.105.166.285.15Zm-2.519-2.996c.015-.045.045-.06.06-.06-.015-.12.045-.3-.15-.316-.06 0-.165.06-.18.105-.045.241.135.332.315.392-.045-.03-.06-.075-.045-.12Zm-12.188-.722c.105.06.194.015.24-.15-.016-.09-.06-.181-.196-.151-.09.015-.18.06-.254.075.06.075.12.18.21.226ZM32.784 34.153c.015.136.12.181.225.136.06-.015.09-.12.165-.21-.105-.061-.18-.151-.27-.166-.135.015-.135.15-.12.24Zm16.55-.843c-.134.015-.194.12-.18.241.016.136.135.166.24.136.09-.03.225-.03.24.015-.09-.346-.18-.407-.3-.392ZM34.51 37.525c-.015-.075-.18-.105-.255-.15-.165.015-.21.105-.21.225.015.136.09.18.225.18.165-.014.3-.09.24-.255Z"/><path d="M34.944 36.125c.03 0 .075-.105.15-.196-.105-.075-.165-.135-.255-.18-.075-.03-.165.015-.15.105.015.166.105.256.255.271Zm-1.59.813c-.135.015-.195.12-.18.24.015.136.135.166.24.136.09-.03.225-.03.24.015-.09-.33-.165-.406-.3-.39Zm4.932-3.673c.06-.12-.075-.105-.12-.105-.12-.015-.27-.045-.314.18.03.046.075.121.135.136.15.03.254-.09.3-.21ZM60.953 9.363c-.165-.03-.165.09-.195.24.06.06.105.166.195.196.165.06.165-.075.15-.18 0-.106-.015-.226-.15-.256Zm-5.277.511c.15.241.39.256.494.045.105-.21-.15-.21-.3-.24.046.165 0 .255-.194.195ZM42.963 32.633c-.105 0-.225.015-.21.18.015.136.105.197.225.151.09-.045.165-.12.24-.18-.045-.196-.165-.15-.255-.15Zm12.654-2.965c-.075-.18-.105-.361-.24-.542.09.18.15.376.24.542Zm1.964-6.563c-.09.196-.24.24-.39.24.165 0 .315-.044.39-.24Zm3.447-8.926-.03-.03c.06.075.12.15.135.226.075-.06.15-.136.255-.18-.12-.016-.24.044-.36-.016Zm-.075-.075-.016-.015s0 .015.016.015Zm.194.286c-.03.03-.06.06-.105.075h-.015l.09.136a.273.273 0 0 0 .03-.211Zm.601 1.008c.015-.03.03-.075.06-.105-.15.075-.27.15-.165.346a.33.33 0 0 1 .045-.075c-.12-.15-.045-.166.06-.166ZM66.11 31.61c.015 0 .045.015.06.03-.03-.015-.045-.015-.06-.03Zm2.804-7.346c.09-.015.18-.015.27-.03-.105-.06-.195-.045-.27.03ZM44.913 11.816c-.06.045-.12.105-.165.15.18.016.345-.06.525-.03-.03-.06-.06-.09-.075-.12a.373.373 0 0 1-.285 0Zm23.985 2.574c.045-.06.06-.12.06-.196a.429.429 0 0 1-.12.21c.015 0 .045 0 .06-.014Zm-8.814-2.86v-.09c-.075.09-.075.195.015.27v-.045c-.045-.045-.045-.09-.015-.135Z"/></g><defs><clipPath id="a"><path fill="#fff" d="M0 0h85v101H0z"/></clipPath></defs></svg>