<svg width="30" height="30" fill="none" xmlns="http://www.w3.org/2000/svg"><path fill-rule="evenodd" clip-rule="evenodd" d="M1.19 12.81 12.81 1.19a3.097 3.097 0 0 1 4.38 0l11.62 11.62a3.097 3.097 0 0 1 0 4.38L17.19 28.81a3.097 3.097 0 0 1-4.38 0L1.19 17.19a3.097 3.097 0 0 1 0-4.38ZM24.199 15a9.163 9.163 0 1 1-18.327 0A9.163 9.163 0 0 1 24.2 15Z" fill="#6F6F6F"/><path fill-rule="evenodd" clip-rule="evenodd" d="M12.405 9.273h5.342a3.097 3.097 0 0 1 3.096 3.097v5.342a3.097 3.097 0 0 1-3.096 3.097h-5.342a3.097 3.097 0 0 1-3.097-3.097V12.37a3.097 3.097 0 0 1 3.097-3.097Zm6.607 5.712a3.993 3.993 0 1 1-7.985 0 3.993 3.993 0 0 1 7.985 0Z" fill="#6F6F6F"/><path d="m14.42 13.9-.371.37a1.032 1.032 0 0 0 0 1.46l.37.37a1.032 1.032 0 0 0 1.46 0l.37-.37a1.032 1.032 0 0 0 0-1.46l-.37-.37a1.032 1.032 0 0 0-1.46 0Z" fill="#6F6F6F"/></svg>