<svg width="120" height="123" fill="none" xmlns="http://www.w3.org/2000/svg"><path d="M.761 45.72c.64-9.28 3.68-17.28 9.12-24 5.44-6.827 12.64-12.053 21.6-15.68 9.067-3.733 19.307-5.6 30.72-5.6 10.88 0 20.374 1.653 28.48 4.96 8.107 3.307 14.454 7.947 19.04 13.92 4.587 5.973 6.88 12.853 6.88 20.64 0 6.08-1.6 11.733-4.8 16.96-3.2 5.12-8.266 10.24-15.2 15.36-6.933 5.12-16.053 10.56-27.36 16.32l-34.72 18.24-1.6-7.84h87.04v24H2.841v-21.12l51.52-29.6c8.214-4.693 14.614-8.693 19.2-12 4.694-3.413 8-6.56 9.92-9.44s2.88-5.973 2.88-9.28c0-3.413-.96-6.453-2.88-9.12-1.813-2.667-4.586-4.747-8.32-6.24-3.733-1.493-8.426-2.24-14.08-2.24-6.72 0-12.266 1.013-16.64 3.04-4.373 1.92-7.626 4.533-9.76 7.84-2.133 3.307-3.413 6.933-3.84 10.88H.761Z" fill="url(#a)"/><defs><linearGradient id="a" x1="61.001" y1="-77" x2="61.001" y2="117.857" gradientUnits="userSpaceOnUse"><stop stop-color="#6F6F6F"/><stop offset="1" stop-color="#979797" stop-opacity="0"/></linearGradient></defs></svg>