<svg width="122" height="126" fill="none" xmlns="http://www.w3.org/2000/svg"><path d="M4.001 41.4c.534-7.573 3.2-14.453 8-20.64 4.8-6.187 11.627-11.093 20.48-14.72 8.96-3.733 19.734-5.6 32.32-5.6 10.987 0 20.48 1.44 28.48 4.32 8.107 2.773 14.4 6.667 18.88 11.68 4.48 4.907 6.72 10.72 6.72 17.44 0 5.44-1.653 10.4-4.96 14.88-3.2 4.373-8.266 7.893-15.2 10.56-6.933 2.56-15.786 3.787-26.56 3.68v-3.2c10.24-.533 19.04.213 26.4 2.24 7.36 2.027 13.014 5.227 16.96 9.6 3.947 4.373 5.92 9.867 5.92 16.48 0 7.253-2.293 13.707-6.88 19.36-4.586 5.547-11.306 9.973-20.16 13.28-8.746 3.2-19.413 4.8-32 4.8-12.266 0-22.986-1.707-32.16-5.12-9.066-3.52-16.16-8.373-21.28-14.56C3.948 99.587 1.228 92.227.801 83.8h30.08c.854 5.867 3.84 10.4 8.96 13.6 5.227 3.093 12.747 4.64 22.56 4.64 9.28 0 16.32-1.387 21.12-4.16 4.907-2.88 7.36-6.88 7.36-12 0-2.987-.8-5.44-2.4-7.36-1.6-2.027-4.32-3.573-8.16-4.64-3.84-1.067-9.173-1.6-16-1.6h-20.8V51.64h20.8c8.854 0 15.094-1.227 18.72-3.68 3.627-2.56 5.44-5.867 5.44-9.92 0-4.48-2.133-7.947-6.4-10.4-4.16-2.453-10.453-3.68-18.88-3.68-8.746 0-15.573 1.493-20.48 4.48-4.8 2.987-7.68 7.307-8.64 12.96H4.001Z" fill="url(#a)"/><defs><linearGradient id="a" x1="62.501" y1="-77" x2="62.501" y2="117.857" gradientUnits="userSpaceOnUse"><stop stop-color="#6F6F6F"/><stop offset="1" stop-color="#979797" stop-opacity="0"/></linearGradient></defs></svg>