<svg width="71" height="77" fill="none" xmlns="http://www.w3.org/2000/svg"><g filter="url(#a)"><g clip-path="url(#b)"><g filter="url(#c)"><rect y="3" width="66" height="66" rx="33" fill="#fff" fill-opacity=".01"/></g><g filter="url(#d)"><path d="M54 69H11.7c2.598-2.2 10.486-6.6 21.247-6.6 10.76 0 18.518 4.4 21.052 6.6Z" fill="url(#e)"/></g><g clip-path="url(#f)" filter="url(#g)"><g clip-path="url(#h)" filter="url(#i)" stroke="#FF6C01" stroke-width=".925" stroke-linecap="round" stroke-linejoin="round"><path d="M35.83 36.704c3.514 0 6.363-1.266 6.363-2.829 0-1.562-2.849-2.828-6.364-2.828-3.515 0-6.364 1.266-6.364 2.828 0 1.563 2.85 2.829 6.364 2.829Z"/><path d="M29.465 33.876v8.485c0 1.556 2.828 2.829 6.364 2.829s6.364-1.273 6.364-2.829v-8.485"/><path d="M42.193 38.118c0 1.556-2.828 2.829-6.364 2.829s-6.364-1.273-6.364-2.829m6.222-9.898a9.574 9.574 0 0 0-5.516-1.415c-3.522 0-6.364 1.273-6.364 2.829 0 .834.82 1.584 2.121 2.121"/><path d="M25.928 40.24c-1.301-.538-2.121-1.287-2.121-2.122v-8.485"/><path d="M25.928 35.997c-1.301-.538-2.121-1.287-2.121-2.121"/></g></g><g clip-path="url(#j)"><g clip-path="url(#k)" filter="url(#l)" stroke="#FF6C01" stroke-width=".925" stroke-linecap="round" stroke-linejoin="round"><path d="M35.83 36.704c3.514 0 6.363-1.266 6.363-2.829 0-1.562-2.849-2.828-6.364-2.828-3.515 0-6.364 1.266-6.364 2.828 0 1.563 2.85 2.829 6.364 2.829Z"/><path d="M29.465 33.875v8.486c0 1.556 2.828 2.829 6.364 2.829s6.364-1.273 6.364-2.829v-8.486"/><path d="M42.193 38.118c0 1.556-2.828 2.829-6.364 2.829s-6.364-1.273-6.364-2.829m6.222-9.898a9.574 9.574 0 0 0-5.516-1.415c-3.522 0-6.364 1.273-6.364 2.829 0 .834.82 1.584 2.121 2.121"/><path d="M25.928 40.24c-1.301-.538-2.121-1.287-2.121-2.122v-8.485"/><path d="M25.928 35.997c-1.301-.538-2.121-1.287-2.121-2.122"/></g></g></g></g><defs><filter id="a" x="-6.168" y=".533" width="76.336" height="76.336" filterUnits="userSpaceOnUse" color-interpolation-filters="sRGB"><feFlood flood-opacity="0" result="BackgroundImageFix"/><feColorMatrix in="SourceAlpha" values="0 0 0 0 0 0 0 0 0 0 0 0 0 0 0 0 0 0 127 0" result="hardAlpha"/><feOffset dy="3.701"/><feGaussianBlur stdDeviation="3.084"/><feComposite in2="hardAlpha" operator="out"/><feColorMatrix values="0 0 0 0 0 0 0 0 0 0 0 0 0 0 0 0 0 0 0.25 0"/><feBlend in2="BackgroundImageFix" result="effect1_dropShadow_1323_92509"/><feBlend in="SourceGraphic" in2="effect1_dropShadow_1323_92509" result="shape"/></filter><filter id="c" x="-9" y="-6" width="84" height="84" filterUnits="userSpaceOnUse" color-interpolation-filters="sRGB"><feFlood flood-opacity="0" result="BackgroundImageFix"/><feGaussianBlur in="BackgroundImageFix" stdDeviation="4.5"/><feComposite in2="SourceAlpha" operator="in" result="effect1_backgroundBlur_1323_92509"/><feBlend in="SourceGraphic" in2="effect1_backgroundBlur_1323_92509" result="shape"/><feColorMatrix in="SourceAlpha" values="0 0 0 0 0 0 0 0 0 0 0 0 0 0 0 0 0 0 127 0" result="hardAlpha"/><feOffset dx="3" dy="3"/><feGaussianBlur stdDeviation=".75"/><feComposite in2="hardAlpha" operator="arithmetic" k2="-1" k3="1"/><feColorMatrix values="0 0 0 0 1 0 0 0 0 1 0 0 0 0 1 0 0 0 0.1 0"/><feBlend in2="shape" result="effect2_innerShadow_1323_92509"/><feColorMatrix in="SourceAlpha" values="0 0 0 0 0 0 0 0 0 0 0 0 0 0 0 0 0 0 127 0" result="hardAlpha"/><feOffset dy="-1.5"/><feGaussianBlur stdDeviation="3.75"/><feComposite in2="hardAlpha" operator="arithmetic" k2="-1" k3="1"/><feColorMatrix values="0 0 0 0 1 0 0 0 0 0.66 0 0 0 0 0 0 0 0 0.48 0"/><feBlend in2="effect2_innerShadow_1323_92509" result="effect3_innerShadow_1323_92509"/></filter><filter id="d" x="-3.301" y="47.4" width="72.301" height="36.6" filterUnits="userSpaceOnUse" color-interpolation-filters="sRGB"><feFlood flood-opacity="0" result="BackgroundImageFix"/><feBlend in="SourceGraphic" in2="BackgroundImageFix" result="shape"/><feGaussianBlur stdDeviation="7.5" result="effect1_foregroundBlur_1323_92509"/></filter><filter id="g" x="17.334" y="20.33" width="31.335" height="31.334" filterUnits="userSpaceOnUse" color-interpolation-filters="sRGB"><feFlood flood-opacity="0" result="BackgroundImageFix"/><feBlend in="SourceGraphic" in2="BackgroundImageFix" result="shape"/><feGaussianBlur stdDeviation="1.234" result="effect1_foregroundBlur_1323_92509"/></filter><filter id="i" x="20.634" y="26.097" width="24.735" height="24.735" filterUnits="userSpaceOnUse" color-interpolation-filters="sRGB"><feFlood flood-opacity="0" result="BackgroundImageFix"/><feColorMatrix in="SourceAlpha" values="0 0 0 0 0 0 0 0 0 0 0 0 0 0 0 0 0 0 127 0" result="hardAlpha"/><feOffset dy="2.467"/><feGaussianBlur stdDeviation="1.234"/><feComposite in2="hardAlpha" operator="out"/><feColorMatrix values="0 0 0 0 0 0 0 0 0 0 0 0 0 0 0 0 0 0 0.25 0"/><feBlend in2="BackgroundImageFix" result="effect1_dropShadow_1323_92509"/><feBlend in="SourceGraphic" in2="effect1_dropShadow_1323_92509" result="shape"/></filter><filter id="l" x="20.634" y="26.097" width="24.735" height="24.735" filterUnits="userSpaceOnUse" color-interpolation-filters="sRGB"><feFlood flood-opacity="0" result="BackgroundImageFix"/><feColorMatrix in="SourceAlpha" values="0 0 0 0 0 0 0 0 0 0 0 0 0 0 0 0 0 0 127 0" result="hardAlpha"/><feOffset dy="2.467"/><feGaussianBlur stdDeviation="1.234"/><feComposite in2="hardAlpha" operator="out"/><feColorMatrix values="0 0 0 0 0 0 0 0 0 0 0 0 0 0 0 0 0 0 0.25 0"/><feBlend in2="BackgroundImageFix" result="effect1_dropShadow_1323_92509"/><feBlend in="SourceGraphic" in2="effect1_dropShadow_1323_92509" result="shape"/></filter><clipPath id="b"><rect y="3" width="64" height="64" rx="32" fill="#fff"/></clipPath><clipPath id="f"><path fill="#fff" transform="translate(19.8 22.797)" d="M0 0h26.4v26.4H0z"/></clipPath><clipPath id="h"><path fill="#fff" transform="translate(23.102 26.097)" d="M0 0h19.8v19.8H0z"/></clipPath><clipPath id="j"><path fill="#fff" transform="translate(19.8 22.797)" d="M0 0h26.4v26.4H0z"/></clipPath><clipPath id="k"><path fill="#fff" transform="translate(23.102 26.097)" d="M0 0h19.8v19.8H0z"/></clipPath><linearGradient id="e" x1="14.999" y1="65.7" x2="17.783" y2="56.995" gradientUnits="userSpaceOnUse"><stop stop-color="#FF5401"/><stop offset="1" stop-color="#FF8B01"/></linearGradient></defs></svg>