<svg width="464" height="237" viewBox="0 0 464 237" fill="none" xmlns="http://www.w3.org/2000/svg">
<path d="M188.402 218.632C188.352 219.777 189.51 219.541 190.095 219.28C193.22 219.991 188.724 224.383 188.736 224.097C188.749 223.811 185.773 226.262 184.888 226.797C184.181 227.225 183.247 231.506 182.869 233.593C182.645 234.349 181.621 235.891 179.32 236.02C177.019 236.148 177.292 234.305 177.715 233.367C178.857 231.314 180.974 227.084 180.307 226.596C179.473 225.986 180.37 225.164 180.42 224.019C180.461 223.103 181.964 223.704 182.711 224.12C182.815 223.933 183.03 223.388 183.06 222.701C183.09 222.013 185.571 222.141 186.807 222.291C187.36 220.594 188.453 217.486 188.402 218.632Z" fill="#191C20"/>
<path d="M167.694 232.928C167.007 232.897 167.11 230.989 167.247 230.039L166.426 229.143C165.84 229.404 164.605 230.095 164.346 230.773C164.022 231.619 162.118 229.24 162.615 230.984C163.013 232.378 162.507 233.465 162.203 233.834C162.764 234.146 163.993 234.888 164.431 235.366C164.979 235.964 168.553 232.965 167.694 232.928Z" fill="#191C20"/>
<path d="M172.564 226.543C172.713 228.386 173.381 227.535 173.697 226.88C175.31 226.721 175.107 227.42 174.804 227.789C173.846 227.843 171.968 228.353 172.127 229.966C172.286 231.58 171.388 231.56 170.919 231.348C170.728 231.339 170.122 231.198 169.226 230.7C168.33 230.201 169.127 228.592 169.638 227.849L171.183 225.335C171.581 224.97 172.415 224.701 172.564 226.543Z" fill="#191C20"/>
<path d="M175.902 222.387C177.067 221.979 176.255 220.872 175.704 220.37C174.568 220.09 173.662 221.141 173.35 221.701C173.715 222.099 174.737 222.794 175.902 222.387Z" fill="#191C20"/>
<path d="M390.678 11.0012L393.498 3.87476H395.124L391.352 12.759C391.244 13.0081 391.125 13.2498 390.993 13.4841C390.861 13.7136 390.7 13.9187 390.509 14.0994C390.319 14.28 390.082 14.4241 389.799 14.5315C389.521 14.6389 389.174 14.6926 388.759 14.6926C388.642 14.6926 388.502 14.6853 388.341 14.6707C388.18 14.6609 388.075 14.6487 388.026 14.634L388.07 13.5061C388.124 13.5159 388.229 13.5256 388.385 13.5354C388.542 13.5403 388.656 13.5427 388.729 13.5427C389.008 13.5427 389.228 13.4866 389.389 13.3743C389.55 13.262 389.679 13.1204 389.777 12.9495C389.879 12.7737 389.972 12.5955 390.055 12.4148L390.678 11.0012ZM388.283 3.87476L391.249 10.5178L391.601 11.8289L390.414 11.9167L386.701 3.87476H388.283ZM400.976 6.61401V7.73462H397.313V14.5388H395.958V6.61401H400.976ZM407.157 6.61401V7.73462H403.327V6.61401H407.157ZM408.351 6.61401V14.5388H406.996V6.61401H408.351ZM402.997 6.61401H404.359L404.154 10.4373C404.12 11.0281 404.064 11.5505 403.986 12.0046C403.913 12.4539 403.81 12.8396 403.678 13.1619C403.551 13.4841 403.39 13.7478 403.195 13.9529C403.004 14.1531 402.775 14.302 402.506 14.3997C402.238 14.4924 401.928 14.5388 401.576 14.5388H401.151V13.345L401.444 13.323C401.654 13.3083 401.833 13.2595 401.979 13.1765C402.13 13.0935 402.257 12.9714 402.36 12.8103C402.462 12.6443 402.545 12.4319 402.609 12.1731C402.677 11.9143 402.729 11.6067 402.763 11.2502C402.802 10.8938 402.831 10.4788 402.851 10.0051L402.997 6.61401ZM413.822 14.6853C413.271 14.6853 412.77 14.5925 412.321 14.407C411.876 14.2166 411.493 13.9504 411.171 13.6086C410.854 13.2668 410.609 12.8616 410.438 12.3928C410.268 11.9241 410.182 11.4114 410.182 10.8547V10.5471C410.182 9.90259 410.277 9.32886 410.468 8.82593C410.658 8.31812 410.917 7.88843 411.244 7.53687C411.571 7.1853 411.942 6.91919 412.357 6.73853C412.772 6.55786 413.202 6.46753 413.646 6.46753C414.213 6.46753 414.701 6.56519 415.111 6.7605C415.526 6.95581 415.866 7.22925 416.129 7.58081C416.393 7.92749 416.588 8.33765 416.715 8.81128C416.842 9.28003 416.906 9.79272 416.906 10.3494V10.9573H410.988V9.85132H415.551V9.74878C415.531 9.39722 415.458 9.05542 415.331 8.72339C415.209 8.39136 415.014 8.11792 414.745 7.90308C414.477 7.68823 414.11 7.58081 413.646 7.58081C413.339 7.58081 413.056 7.64673 412.797 7.77856C412.538 7.90552 412.316 8.09595 412.13 8.34985C411.945 8.60376 411.801 8.91382 411.698 9.28003C411.596 9.64624 411.544 10.0686 411.544 10.5471V10.8547C411.544 11.2307 411.596 11.5847 411.698 11.9167C411.806 12.2439 411.959 12.532 412.16 12.781C412.365 13.03 412.611 13.2253 412.899 13.3669C413.192 13.5085 413.524 13.5793 413.896 13.5793C414.374 13.5793 414.779 13.4817 415.111 13.2864C415.443 13.0911 415.734 12.8298 415.983 12.5027L416.803 13.1545C416.632 13.4133 416.415 13.6599 416.151 13.8943C415.888 14.1287 415.563 14.3191 415.177 14.4656C414.796 14.6121 414.345 14.6853 413.822 14.6853ZM423.607 6.61401V7.73462H419.945V14.5388H418.59V6.61401H423.607ZM424.281 10.6643V10.4958C424.281 9.92456 424.364 9.39478 424.53 8.90649C424.696 8.41333 424.936 7.98608 425.248 7.62476C425.561 7.25854 425.939 6.97534 426.383 6.77515C426.828 6.57007 427.326 6.46753 427.877 6.46753C428.434 6.46753 428.935 6.57007 429.379 6.77515C429.828 6.97534 430.209 7.25854 430.521 7.62476C430.839 7.98608 431.081 8.41333 431.247 8.90649C431.413 9.39478 431.496 9.92456 431.496 10.4958V10.6643C431.496 11.2356 431.413 11.7654 431.247 12.2537C431.081 12.7419 430.839 13.1692 430.521 13.5354C430.209 13.8967 429.831 14.1799 429.386 14.385C428.947 14.5852 428.449 14.6853 427.892 14.6853C427.335 14.6853 426.835 14.5852 426.391 14.385C425.946 14.1799 425.565 13.8967 425.248 13.5354C424.936 13.1692 424.696 12.7419 424.53 12.2537C424.364 11.7654 424.281 11.2356 424.281 10.6643ZM425.636 10.4958V10.6643C425.636 11.0598 425.683 11.4333 425.775 11.7849C425.868 12.1316 426.007 12.4392 426.193 12.7078C426.383 12.9763 426.62 13.1887 426.903 13.345C427.187 13.4963 427.516 13.572 427.892 13.572C428.263 13.572 428.588 13.4963 428.866 13.345C429.149 13.1887 429.384 12.9763 429.569 12.7078C429.755 12.4392 429.894 12.1316 429.987 11.7849C430.084 11.4333 430.133 11.0598 430.133 10.6643V10.4958C430.133 10.1052 430.084 9.73657 429.987 9.38989C429.894 9.03833 429.752 8.72827 429.562 8.45972C429.376 8.18628 429.142 7.97144 428.859 7.81519C428.581 7.65894 428.253 7.58081 427.877 7.58081C427.506 7.58081 427.179 7.65894 426.896 7.81519C426.618 7.97144 426.383 8.18628 426.193 8.45972C426.007 8.72827 425.868 9.03833 425.775 9.38989C425.683 9.73657 425.636 10.1052 425.636 10.4958ZM434.55 8.13745V17.5857H433.188V6.61401H434.433L434.55 8.13745ZM439.889 10.5105V10.6643C439.889 11.2405 439.821 11.7751 439.684 12.2683C439.547 12.7566 439.347 13.1814 439.083 13.5427C438.825 13.9041 438.505 14.1848 438.124 14.385C437.743 14.5852 437.306 14.6853 436.813 14.6853C436.31 14.6853 435.866 14.6023 435.48 14.4363C435.094 14.2703 434.767 14.0286 434.499 13.7112C434.23 13.3938 434.015 13.0129 433.854 12.5686C433.698 12.1243 433.59 11.6238 433.532 11.0671V10.2468C433.59 9.66089 433.7 9.13599 433.861 8.67212C434.022 8.20825 434.235 7.81274 434.499 7.4856C434.767 7.15356 435.092 6.9021 435.473 6.7312C435.854 6.55542 436.293 6.46753 436.791 6.46753C437.289 6.46753 437.731 6.56519 438.117 6.7605C438.502 6.95093 438.827 7.22437 439.091 7.58081C439.354 7.93726 439.552 8.3645 439.684 8.86255C439.821 9.35571 439.889 9.90503 439.889 10.5105ZM438.527 10.6643V10.5105C438.527 10.115 438.485 9.7439 438.402 9.39722C438.319 9.04565 438.19 8.73804 438.014 8.47437C437.843 8.20581 437.624 7.99585 437.355 7.84448C437.086 7.68823 436.767 7.61011 436.396 7.61011C436.054 7.61011 435.756 7.6687 435.502 7.78589C435.253 7.90308 435.041 8.06177 434.865 8.26196C434.689 8.45728 434.545 8.68188 434.433 8.93579C434.325 9.18481 434.245 9.4436 434.191 9.71216V11.6091C434.289 11.9509 434.425 12.2732 434.601 12.5759C434.777 12.8738 435.011 13.1155 435.304 13.301C435.597 13.4817 435.966 13.572 436.41 13.572C436.776 13.572 437.091 13.4963 437.355 13.345C437.624 13.1887 437.843 12.9763 438.014 12.7078C438.19 12.4392 438.319 12.1316 438.402 11.7849C438.485 11.4333 438.527 11.0598 438.527 10.6643ZM444.789 13.572C445.111 13.572 445.409 13.5061 445.683 13.3743C445.956 13.2424 446.181 13.0618 446.356 12.8323C446.532 12.5979 446.632 12.3318 446.657 12.0339H447.946C447.921 12.5027 447.763 12.9397 447.47 13.345C447.182 13.7454 446.803 14.0701 446.334 14.3191C445.866 14.5632 445.351 14.6853 444.789 14.6853C444.193 14.6853 443.673 14.5803 443.229 14.3704C442.79 14.1604 442.423 13.8723 442.13 13.5061C441.842 13.1399 441.625 12.72 441.479 12.2463C441.337 11.7678 441.266 11.2625 441.266 10.7302V10.4226C441.266 9.89038 441.337 9.38745 441.479 8.91382C441.625 8.4353 441.842 8.01294 442.13 7.64673C442.423 7.28052 442.79 6.99243 443.229 6.78247C443.673 6.57251 444.193 6.46753 444.789 6.46753C445.409 6.46753 445.951 6.59448 446.415 6.84839C446.879 7.09741 447.243 7.43921 447.506 7.87378C447.775 8.30347 447.921 8.79175 447.946 9.33862H446.657C446.632 9.01147 446.54 8.71606 446.378 8.45239C446.222 8.18872 446.007 7.97876 445.734 7.82251C445.465 7.66138 445.15 7.58081 444.789 7.58081C444.374 7.58081 444.025 7.66382 443.742 7.82983C443.463 7.99097 443.241 8.21069 443.075 8.48901C442.914 8.76245 442.797 9.06763 442.724 9.40454C442.655 9.73657 442.621 10.0759 442.621 10.4226V10.7302C442.621 11.0769 442.655 11.4187 442.724 11.7556C442.792 12.0925 442.907 12.3977 443.068 12.6711C443.234 12.9446 443.456 13.1643 443.734 13.3303C444.018 13.4915 444.369 13.572 444.789 13.572ZM450.941 6.61401V14.5388H449.586V6.61401H450.941ZM456.142 6.61401L452.384 11.155H450.487L450.282 9.96851H451.835L454.494 6.61401H456.142ZM454.684 14.5388L451.769 10.95L452.641 9.96851L456.405 14.5388H454.684Z" fill="white"/>
<path d="M396.158 40.9658H397.579V50.48H401.241V40.9658H402.647V50.48H406.288V40.9658H407.701V51.6299H396.158V40.9658ZM414.696 50.2749V46.1953C414.696 45.8828 414.632 45.6118 414.505 45.3823C414.383 45.1479 414.198 44.9673 413.949 44.8403C413.7 44.7134 413.392 44.6499 413.026 44.6499C412.684 44.6499 412.384 44.7085 412.125 44.8257C411.871 44.9429 411.671 45.0967 411.524 45.2871C411.383 45.4775 411.312 45.6826 411.312 45.9023H409.957C409.957 45.6191 410.03 45.3384 410.177 45.0601C410.323 44.7817 410.533 44.5303 410.807 44.3057C411.085 44.0762 411.417 43.8955 411.803 43.7637C412.193 43.627 412.628 43.5586 413.106 43.5586C413.683 43.5586 414.19 43.6562 414.63 43.8516C415.074 44.0469 415.421 44.3423 415.67 44.7378C415.924 45.1284 416.051 45.6191 416.051 46.21V49.9014C416.051 50.165 416.073 50.4458 416.117 50.7437C416.166 51.0415 416.236 51.2979 416.329 51.5127V51.6299H414.916C414.847 51.4736 414.793 51.2661 414.754 51.0073C414.715 50.7437 414.696 50.4995 414.696 50.2749ZM414.93 46.8252L414.945 47.7773H413.575C413.189 47.7773 412.845 47.8091 412.542 47.8726C412.24 47.9312 411.986 48.0215 411.781 48.1436C411.576 48.2656 411.419 48.4194 411.312 48.605C411.205 48.7856 411.151 48.998 411.151 49.2422C411.151 49.4912 411.207 49.7183 411.319 49.9233C411.432 50.1284 411.6 50.292 411.825 50.4141C412.054 50.5312 412.335 50.5898 412.667 50.5898C413.082 50.5898 413.448 50.502 413.766 50.3262C414.083 50.1504 414.334 49.9355 414.52 49.6816C414.71 49.4277 414.813 49.1812 414.828 48.9419L415.406 49.5938C415.372 49.7988 415.279 50.0259 415.128 50.2749C414.977 50.5239 414.774 50.7632 414.52 50.9927C414.271 51.2173 413.973 51.4053 413.626 51.5566C413.285 51.7031 412.899 51.7764 412.469 51.7764C411.932 51.7764 411.461 51.6714 411.056 51.4614C410.655 51.2515 410.343 50.9707 410.118 50.6191C409.898 50.2627 409.789 49.8647 409.789 49.4253C409.789 49.0005 409.872 48.627 410.038 48.3047C410.204 47.9775 410.443 47.7065 410.755 47.4917C411.068 47.272 411.444 47.106 411.883 46.9937C412.323 46.8813 412.813 46.8252 413.355 46.8252H414.93ZM419.098 43.7051L420.833 46.5908L422.591 43.7051H424.181L421.588 47.6162L424.261 51.6299H422.694L420.863 48.6562L419.032 51.6299H417.457L420.123 47.6162L417.538 43.7051H419.098ZM428.854 43.7051V51.6299H427.491V43.7051H428.854ZM431.512 43.7051V44.8037H424.884V43.7051H431.512ZM435.548 51.7764C434.996 51.7764 434.496 51.6836 434.046 51.498C433.602 51.3076 433.219 51.0415 432.896 50.6997C432.579 50.3579 432.335 49.9526 432.164 49.4839C431.993 49.0151 431.908 48.5024 431.908 47.9458V47.6382C431.908 46.9937 432.003 46.4199 432.193 45.917C432.384 45.4092 432.643 44.9795 432.97 44.6279C433.297 44.2764 433.668 44.0103 434.083 43.8296C434.498 43.6489 434.928 43.5586 435.372 43.5586C435.938 43.5586 436.427 43.6562 436.837 43.8516C437.252 44.0469 437.591 44.3203 437.855 44.6719C438.119 45.0186 438.314 45.4287 438.441 45.9023C438.568 46.3711 438.631 46.8838 438.631 47.4404V48.0483H432.713V46.9424H437.276V46.8398C437.257 46.4883 437.184 46.1465 437.057 45.8145C436.935 45.4824 436.739 45.209 436.471 44.9941C436.202 44.7793 435.836 44.6719 435.372 44.6719C435.064 44.6719 434.781 44.7378 434.522 44.8696C434.264 44.9966 434.042 45.187 433.856 45.4409C433.67 45.6948 433.526 46.0049 433.424 46.3711C433.321 46.7373 433.27 47.1597 433.27 47.6382V47.9458C433.27 48.3218 433.321 48.6758 433.424 49.0078C433.531 49.335 433.685 49.623 433.885 49.8721C434.09 50.1211 434.337 50.3164 434.625 50.458C434.918 50.5996 435.25 50.6704 435.621 50.6704C436.1 50.6704 436.505 50.5728 436.837 50.3774C437.169 50.1821 437.459 49.9209 437.708 49.5938L438.529 50.2456C438.358 50.5044 438.141 50.751 437.877 50.9854C437.613 51.2197 437.289 51.4102 436.903 51.5566C436.522 51.7031 436.07 51.7764 435.548 51.7764ZM441.568 45.2285V54.6768H440.206V43.7051H441.451L441.568 45.2285ZM446.908 47.6016V47.7554C446.908 48.3315 446.839 48.8662 446.703 49.3594C446.566 49.8477 446.366 50.2725 446.102 50.6338C445.843 50.9951 445.523 51.2759 445.143 51.4761C444.762 51.6763 444.325 51.7764 443.832 51.7764C443.329 51.7764 442.884 51.6934 442.499 51.5273C442.113 51.3613 441.786 51.1196 441.517 50.8022C441.249 50.4849 441.034 50.104 440.873 49.6597C440.716 49.2153 440.609 48.7148 440.55 48.1582V47.3379C440.609 46.752 440.719 46.2271 440.88 45.7632C441.041 45.2993 441.253 44.9038 441.517 44.5767C441.786 44.2446 442.11 43.9932 442.491 43.8223C442.872 43.6465 443.312 43.5586 443.81 43.5586C444.308 43.5586 444.75 43.6562 445.135 43.8516C445.521 44.042 445.846 44.3154 446.109 44.6719C446.373 45.0283 446.571 45.4556 446.703 45.9536C446.839 46.4468 446.908 46.9961 446.908 47.6016ZM445.545 47.7554V47.6016C445.545 47.2061 445.504 46.835 445.421 46.4883C445.338 46.1367 445.208 45.8291 445.033 45.5654C444.862 45.2969 444.642 45.0869 444.374 44.9355C444.105 44.7793 443.785 44.7012 443.414 44.7012C443.072 44.7012 442.774 44.7598 442.521 44.877C442.271 44.9941 442.059 45.1528 441.883 45.353C441.708 45.5483 441.563 45.7729 441.451 46.0269C441.344 46.2759 441.263 46.5347 441.209 46.8032V48.7002C441.307 49.042 441.444 49.3643 441.62 49.667C441.795 49.9648 442.03 50.2065 442.323 50.3921C442.616 50.5728 442.984 50.6631 443.429 50.6631C443.795 50.6631 444.11 50.5874 444.374 50.436C444.642 50.2798 444.862 50.0674 445.033 49.7988C445.208 49.5303 445.338 49.2227 445.421 48.876C445.504 48.5244 445.545 48.1509 445.545 47.7554ZM451.808 50.6631C452.13 50.6631 452.428 50.5972 452.701 50.4653C452.975 50.3335 453.199 50.1528 453.375 49.9233C453.551 49.689 453.651 49.4229 453.675 49.125H454.964C454.94 49.5938 454.781 50.0308 454.488 50.436C454.2 50.8364 453.822 51.1611 453.353 51.4102C452.884 51.6543 452.369 51.7764 451.808 51.7764C451.212 51.7764 450.692 51.6714 450.248 51.4614C449.808 51.2515 449.442 50.9634 449.149 50.5972C448.861 50.231 448.644 49.811 448.497 49.3374C448.355 48.8589 448.285 48.3535 448.285 47.8213V47.5137C448.285 46.9814 448.355 46.4785 448.497 46.0049C448.644 45.5264 448.861 45.104 449.149 44.7378C449.442 44.3716 449.808 44.0835 450.248 43.8735C450.692 43.6636 451.212 43.5586 451.808 43.5586C452.428 43.5586 452.97 43.6855 453.434 43.9395C453.897 44.1885 454.261 44.5303 454.525 44.9648C454.793 45.3945 454.94 45.8828 454.964 46.4297H453.675C453.651 46.1025 453.558 45.8071 453.397 45.5435C453.241 45.2798 453.026 45.0698 452.752 44.9136C452.484 44.7524 452.169 44.6719 451.808 44.6719C451.393 44.6719 451.043 44.7549 450.76 44.9209C450.482 45.082 450.26 45.3018 450.094 45.5801C449.933 45.8535 449.815 46.1587 449.742 46.4956C449.674 46.8276 449.64 47.167 449.64 47.5137V47.8213C449.64 48.168 449.674 48.5098 449.742 48.8467C449.811 49.1836 449.925 49.4888 450.086 49.7622C450.252 50.0356 450.475 50.2554 450.753 50.4214C451.036 50.5825 451.388 50.6631 451.808 50.6631ZM457.96 43.7051V51.6299H456.605V43.7051H457.96ZM463.16 43.7051L459.403 48.2461H457.506L457.301 47.0596H458.854L461.512 43.7051H463.16ZM461.703 51.6299L458.788 48.041L459.659 47.0596L463.424 51.6299H461.703Z" fill="white"/>
<path d="M143.074 167.513V178.177H141.661V167.513H143.074ZM145.521 172.398V173.511H142.986V172.398H145.521ZM153.174 172.508V173.182C153.174 173.983 153.074 174.7 152.874 175.335C152.674 175.97 152.386 176.51 152.01 176.954C151.634 177.398 151.182 177.738 150.655 177.972C150.132 178.206 149.546 178.323 148.897 178.323C148.267 178.323 147.688 178.206 147.161 177.972C146.639 177.738 146.185 177.398 145.799 176.954C145.418 176.51 145.123 175.97 144.913 175.335C144.703 174.7 144.598 173.983 144.598 173.182V172.508C144.598 171.707 144.7 170.992 144.905 170.362C145.115 169.727 145.411 169.188 145.792 168.743C146.172 168.294 146.624 167.952 147.146 167.718C147.674 167.484 148.252 167.366 148.882 167.366C149.532 167.366 150.118 167.484 150.64 167.718C151.167 167.952 151.619 168.294 151.995 168.743C152.376 169.188 152.667 169.727 152.867 170.362C153.072 170.992 153.174 171.707 153.174 172.508ZM151.775 173.182V172.493C151.775 171.859 151.709 171.297 151.578 170.809C151.451 170.321 151.263 169.91 151.014 169.578C150.765 169.246 150.459 168.995 150.098 168.824C149.742 168.653 149.336 168.568 148.882 168.568C148.443 168.568 148.045 168.653 147.688 168.824C147.337 168.995 147.034 169.246 146.78 169.578C146.531 169.91 146.338 170.321 146.202 170.809C146.065 171.297 145.997 171.859 145.997 172.493V173.182C145.997 173.822 146.065 174.388 146.202 174.881C146.338 175.369 146.534 175.782 146.788 176.119C147.046 176.451 147.352 176.702 147.703 176.873C148.06 177.044 148.458 177.13 148.897 177.13C149.356 177.13 149.764 177.044 150.12 176.873C150.477 176.702 150.777 176.451 151.021 176.119C151.27 175.782 151.458 175.369 151.585 174.881C151.712 174.388 151.775 173.822 151.775 173.182ZM157.173 174.727L154.17 170.252H155.804L157.854 173.533H159.437L159.239 174.727H157.173ZM157.913 174.588L155.613 178.177H153.899L157.056 173.607L157.913 174.588ZM160.132 170.252V178.177H158.777V170.252H160.132ZM164.754 170.252L161.751 174.727H159.686L159.473 173.533H161.062L163.113 170.252H164.754ZM163.304 178.177L160.997 174.588L161.868 173.607L165.018 178.177H163.304ZM171.646 173.687V174.786H167.457V173.687H171.646ZM167.742 170.252V178.177H166.387V170.252H167.742ZM172.745 170.252V178.177H171.382V170.252H172.745ZM174.568 174.302V174.134C174.568 173.563 174.651 173.033 174.817 172.545C174.983 172.052 175.223 171.624 175.535 171.263C175.848 170.897 176.226 170.614 176.67 170.413C177.115 170.208 177.613 170.106 178.165 170.106C178.721 170.106 179.222 170.208 179.666 170.413C180.115 170.614 180.496 170.897 180.809 171.263C181.126 171.624 181.368 172.052 181.534 172.545C181.7 173.033 181.783 173.563 181.783 174.134V174.302C181.783 174.874 181.7 175.404 181.534 175.892C181.368 176.38 181.126 176.807 180.809 177.174C180.496 177.535 180.118 177.818 179.673 178.023C179.234 178.223 178.736 178.323 178.179 178.323C177.623 178.323 177.122 178.223 176.678 178.023C176.233 177.818 175.853 177.535 175.535 177.174C175.223 176.807 174.983 176.38 174.817 175.892C174.651 175.404 174.568 174.874 174.568 174.302ZM175.923 174.134V174.302C175.923 174.698 175.97 175.072 176.062 175.423C176.155 175.77 176.294 176.077 176.48 176.346C176.67 176.615 176.907 176.827 177.19 176.983C177.474 177.135 177.803 177.21 178.179 177.21C178.55 177.21 178.875 177.135 179.153 176.983C179.437 176.827 179.671 176.615 179.856 176.346C180.042 176.077 180.181 175.77 180.274 175.423C180.372 175.072 180.42 174.698 180.42 174.302V174.134C180.42 173.743 180.372 173.375 180.274 173.028C180.181 172.677 180.04 172.366 179.849 172.098C179.664 171.824 179.429 171.61 179.146 171.453C178.868 171.297 178.541 171.219 178.165 171.219C177.793 171.219 177.466 171.297 177.183 171.453C176.905 171.61 176.67 171.824 176.48 172.098C176.294 172.366 176.155 172.677 176.062 173.028C175.97 173.375 175.923 173.743 175.923 174.134ZM186.302 173.087V174.2H182.728V173.087H186.302ZM194.271 174.786H195.677C195.604 175.46 195.411 176.063 195.098 176.595C194.786 177.127 194.344 177.55 193.772 177.862C193.201 178.17 192.488 178.323 191.634 178.323C191.009 178.323 190.44 178.206 189.927 177.972C189.419 177.738 188.982 177.406 188.616 176.976C188.25 176.541 187.967 176.021 187.767 175.416C187.571 174.805 187.474 174.127 187.474 173.38V172.318C187.474 171.571 187.571 170.894 187.767 170.289C187.967 169.678 188.252 169.156 188.624 168.721C189 168.287 189.451 167.952 189.979 167.718C190.506 167.484 191.099 167.366 191.758 167.366C192.564 167.366 193.245 167.518 193.802 167.821C194.358 168.123 194.791 168.543 195.098 169.08C195.411 169.613 195.604 170.23 195.677 170.933H194.271C194.202 170.435 194.075 170.008 193.89 169.652C193.704 169.29 193.44 169.012 193.099 168.817C192.757 168.621 192.31 168.524 191.758 168.524C191.285 168.524 190.867 168.614 190.506 168.795C190.149 168.975 189.849 169.232 189.605 169.564C189.366 169.896 189.185 170.294 189.063 170.758C188.941 171.221 188.88 171.737 188.88 172.303V173.38C188.88 173.902 188.934 174.393 189.041 174.852C189.153 175.311 189.322 175.714 189.546 176.06C189.771 176.407 190.057 176.68 190.403 176.881C190.75 177.076 191.16 177.174 191.634 177.174C192.234 177.174 192.713 177.078 193.069 176.888C193.426 176.698 193.694 176.424 193.875 176.068C194.061 175.711 194.192 175.284 194.271 174.786ZM202.071 176.822V172.742C202.071 172.43 202.007 172.159 201.88 171.929C201.758 171.695 201.573 171.514 201.324 171.387C201.075 171.26 200.767 171.197 200.401 171.197C200.059 171.197 199.759 171.256 199.5 171.373C199.246 171.49 199.046 171.644 198.899 171.834C198.758 172.025 198.687 172.23 198.687 172.449H197.332C197.332 172.166 197.405 171.885 197.552 171.607C197.698 171.329 197.908 171.077 198.182 170.853C198.46 170.623 198.792 170.443 199.178 170.311C199.568 170.174 200.003 170.106 200.481 170.106C201.058 170.106 201.565 170.203 202.005 170.399C202.449 170.594 202.796 170.889 203.045 171.285C203.299 171.676 203.426 172.166 203.426 172.757V176.448C203.426 176.712 203.448 176.993 203.492 177.291C203.541 177.589 203.611 177.845 203.704 178.06V178.177H202.291C202.222 178.021 202.168 177.813 202.129 177.554C202.09 177.291 202.071 177.047 202.071 176.822ZM202.305 173.372L202.32 174.324H200.95C200.564 174.324 200.22 174.356 199.917 174.42C199.615 174.478 199.361 174.569 199.156 174.691C198.951 174.813 198.794 174.967 198.687 175.152C198.58 175.333 198.526 175.545 198.526 175.789C198.526 176.038 198.582 176.265 198.694 176.47C198.807 176.676 198.975 176.839 199.2 176.961C199.429 177.078 199.71 177.137 200.042 177.137C200.457 177.137 200.823 177.049 201.141 176.873C201.458 176.698 201.709 176.483 201.895 176.229C202.085 175.975 202.188 175.728 202.203 175.489L202.781 176.141C202.747 176.346 202.654 176.573 202.503 176.822C202.352 177.071 202.149 177.31 201.895 177.54C201.646 177.764 201.348 177.952 201.001 178.104C200.66 178.25 200.274 178.323 199.844 178.323C199.307 178.323 198.836 178.219 198.431 178.009C198.03 177.799 197.718 177.518 197.493 177.166C197.273 176.81 197.164 176.412 197.164 175.972C197.164 175.548 197.247 175.174 197.413 174.852C197.579 174.525 197.818 174.254 198.13 174.039C198.443 173.819 198.819 173.653 199.258 173.541C199.698 173.428 200.188 173.372 200.73 173.372H202.305ZM206.473 170.252L208.208 173.138L209.966 170.252H211.556L208.963 174.163L211.636 178.177H210.069L208.238 175.203L206.407 178.177H204.832L207.498 174.163L204.913 170.252H206.473ZM217.671 176.822V172.742C217.671 172.43 217.608 172.159 217.481 171.929C217.359 171.695 217.173 171.514 216.924 171.387C216.675 171.26 216.368 171.197 216.001 171.197C215.66 171.197 215.359 171.256 215.101 171.373C214.847 171.49 214.646 171.644 214.5 171.834C214.358 172.025 214.288 172.23 214.288 172.449H212.933C212.933 172.166 213.006 171.885 213.152 171.607C213.299 171.329 213.509 171.077 213.782 170.853C214.061 170.623 214.393 170.443 214.778 170.311C215.169 170.174 215.604 170.106 216.082 170.106C216.658 170.106 217.166 170.203 217.605 170.399C218.05 170.594 218.396 170.889 218.646 171.285C218.899 171.676 219.026 172.166 219.026 172.757V176.448C219.026 176.712 219.048 176.993 219.092 177.291C219.141 177.589 219.212 177.845 219.305 178.06V178.177H217.891C217.823 178.021 217.769 177.813 217.73 177.554C217.691 177.291 217.671 177.047 217.671 176.822ZM217.906 173.372L217.92 174.324H216.551C216.165 174.324 215.821 174.356 215.518 174.42C215.215 174.478 214.961 174.569 214.756 174.691C214.551 174.813 214.395 174.967 214.288 175.152C214.18 175.333 214.126 175.545 214.126 175.789C214.126 176.038 214.183 176.265 214.295 176.47C214.407 176.676 214.576 176.839 214.8 176.961C215.03 177.078 215.311 177.137 215.643 177.137C216.058 177.137 216.424 177.049 216.741 176.873C217.059 176.698 217.31 176.483 217.496 176.229C217.686 175.975 217.789 175.728 217.803 175.489L218.382 176.141C218.348 176.346 218.255 176.573 218.104 176.822C217.952 177.071 217.75 177.31 217.496 177.54C217.247 177.764 216.949 177.952 216.602 178.104C216.26 178.25 215.875 178.323 215.445 178.323C214.908 178.323 214.437 178.219 214.031 178.009C213.631 177.799 213.318 177.518 213.094 177.166C212.874 176.81 212.764 176.412 212.764 175.972C212.764 175.548 212.847 175.174 213.013 174.852C213.179 174.525 213.418 174.254 213.731 174.039C214.043 173.819 214.419 173.653 214.859 173.541C215.298 173.428 215.789 173.372 216.331 173.372H217.906ZM226.453 170.252V171.373H222.623V170.252H226.453ZM227.647 170.252V178.177H226.292V170.252H227.647ZM222.293 170.252H223.655L223.45 174.075C223.416 174.666 223.36 175.189 223.282 175.643C223.208 176.092 223.106 176.478 222.974 176.8C222.847 177.122 222.686 177.386 222.491 177.591C222.3 177.791 222.071 177.94 221.802 178.038C221.534 178.131 221.224 178.177 220.872 178.177H220.447V176.983L220.74 176.961C220.95 176.947 221.128 176.898 221.275 176.815C221.426 176.732 221.553 176.61 221.656 176.448C221.758 176.282 221.841 176.07 221.905 175.811C221.973 175.552 222.024 175.245 222.059 174.888C222.098 174.532 222.127 174.117 222.146 173.643L222.293 170.252ZM231.294 176.031L234.949 170.252H236.312V178.177H234.949V172.398L231.294 178.177H229.947V170.252H231.294V176.031ZM243.863 173.687V174.786H239.673V173.687H243.863ZM239.959 170.252V178.177H238.604V170.252H239.959ZM244.961 170.252V178.177H243.599V170.252H244.961ZM250.315 177.21C250.638 177.21 250.936 177.144 251.209 177.012C251.482 176.881 251.707 176.7 251.883 176.47C252.059 176.236 252.159 175.97 252.183 175.672H253.472C253.448 176.141 253.289 176.578 252.996 176.983C252.708 177.384 252.33 177.708 251.861 177.957C251.392 178.201 250.877 178.323 250.315 178.323C249.72 178.323 249.2 178.219 248.755 178.009C248.316 177.799 247.95 177.51 247.657 177.144C247.369 176.778 247.151 176.358 247.005 175.885C246.863 175.406 246.792 174.901 246.792 174.368V174.061C246.792 173.529 246.863 173.026 247.005 172.552C247.151 172.073 247.369 171.651 247.657 171.285C247.95 170.919 248.316 170.631 248.755 170.421C249.2 170.211 249.72 170.106 250.315 170.106C250.936 170.106 251.478 170.233 251.941 170.487C252.405 170.736 252.769 171.077 253.033 171.512C253.301 171.942 253.448 172.43 253.472 172.977H252.183C252.159 172.65 252.066 172.354 251.905 172.091C251.749 171.827 251.534 171.617 251.26 171.461C250.992 171.3 250.677 171.219 250.315 171.219C249.9 171.219 249.551 171.302 249.268 171.468C248.99 171.629 248.768 171.849 248.602 172.127C248.44 172.401 248.323 172.706 248.25 173.043C248.182 173.375 248.147 173.714 248.147 174.061V174.368C248.147 174.715 248.182 175.057 248.25 175.394C248.318 175.731 248.433 176.036 248.594 176.309C248.76 176.583 248.982 176.802 249.261 176.969C249.544 177.13 249.896 177.21 250.315 177.21ZM256.468 170.252V178.177H255.113V170.252H256.468ZM261.668 170.252L257.911 174.793H256.014L255.809 173.607H257.361L260.02 170.252H261.668ZM260.21 178.177L257.295 174.588L258.167 173.607L261.932 178.177H260.21Z" fill="white"/>
<path d="M182.472 121.695L185.035 125.781L187.599 121.695H189.247L185.877 126.975L189.327 132.359H187.665L185.035 128.191L182.406 132.359H180.743L184.193 126.975L180.824 121.695H182.472ZM190.235 128.484V128.316C190.235 127.744 190.318 127.215 190.484 126.726C190.65 126.233 190.89 125.806 191.202 125.445C191.515 125.078 191.893 124.795 192.337 124.595C192.782 124.39 193.28 124.287 193.832 124.287C194.388 124.287 194.889 124.39 195.333 124.595C195.782 124.795 196.163 125.078 196.476 125.445C196.793 125.806 197.035 126.233 197.201 126.726C197.367 127.215 197.45 127.744 197.45 128.316V128.484C197.45 129.055 197.367 129.585 197.201 130.073C197.035 130.562 196.793 130.989 196.476 131.355C196.163 131.717 195.785 132 195.34 132.205C194.901 132.405 194.403 132.505 193.846 132.505C193.29 132.505 192.789 132.405 192.345 132.205C191.9 132 191.52 131.717 191.202 131.355C190.89 130.989 190.65 130.562 190.484 130.073C190.318 129.585 190.235 129.055 190.235 128.484ZM191.59 128.316V128.484C191.59 128.88 191.637 129.253 191.729 129.605C191.822 129.951 191.961 130.259 192.147 130.528C192.337 130.796 192.574 131.009 192.857 131.165C193.141 131.316 193.47 131.392 193.846 131.392C194.217 131.392 194.542 131.316 194.82 131.165C195.104 131.009 195.338 130.796 195.523 130.528C195.709 130.259 195.848 129.951 195.941 129.605C196.039 129.253 196.087 128.88 196.087 128.484V128.316C196.087 127.925 196.039 127.556 195.941 127.21C195.848 126.858 195.707 126.548 195.516 126.28C195.331 126.006 195.096 125.791 194.813 125.635C194.535 125.479 194.208 125.401 193.832 125.401C193.46 125.401 193.133 125.479 192.85 125.635C192.572 125.791 192.337 126.006 192.147 126.28C191.961 126.548 191.822 126.858 191.729 127.21C191.637 127.556 191.59 127.925 191.59 128.316ZM204.327 124.434V125.554H200.497V124.434H204.327ZM205.521 124.434V132.359H204.166V124.434H205.521ZM200.167 124.434H201.529L201.324 128.257C201.29 128.848 201.234 129.37 201.156 129.824C201.083 130.274 200.98 130.659 200.848 130.982C200.721 131.304 200.56 131.568 200.365 131.773C200.174 131.973 199.945 132.122 199.676 132.219C199.408 132.312 199.098 132.359 198.746 132.359H198.321V131.165L198.614 131.143C198.824 131.128 199.002 131.079 199.149 130.996C199.3 130.913 199.427 130.791 199.53 130.63C199.632 130.464 199.715 130.252 199.779 129.993C199.847 129.734 199.898 129.427 199.933 129.07C199.972 128.714 200.001 128.299 200.021 127.825L200.167 124.434ZM212.259 130.557L214.955 124.434H216.258L212.728 132.359H211.791L208.275 124.434H209.579L212.259 130.557ZM209.183 124.434V132.359H207.828V124.434H209.183ZM215.292 132.359V124.434H216.654V132.359H215.292ZM222.008 131.392C222.33 131.392 222.628 131.326 222.901 131.194C223.175 131.062 223.399 130.882 223.575 130.652C223.751 130.418 223.851 130.152 223.875 129.854H225.165C225.14 130.323 224.981 130.76 224.688 131.165C224.4 131.565 224.022 131.89 223.553 132.139C223.084 132.383 222.569 132.505 222.008 132.505C221.412 132.505 220.892 132.4 220.448 132.19C220.008 131.98 219.642 131.692 219.349 131.326C219.061 130.96 218.844 130.54 218.697 130.066C218.556 129.588 218.485 129.082 218.485 128.55V128.242C218.485 127.71 218.556 127.207 218.697 126.734C218.844 126.255 219.061 125.833 219.349 125.467C219.642 125.1 220.008 124.812 220.448 124.602C220.892 124.392 221.412 124.287 222.008 124.287C222.628 124.287 223.17 124.414 223.634 124.668C224.098 124.917 224.461 125.259 224.725 125.694C224.994 126.123 225.14 126.612 225.165 127.158H223.875C223.851 126.831 223.758 126.536 223.597 126.272C223.441 126.009 223.226 125.799 222.953 125.642C222.684 125.481 222.369 125.401 222.008 125.401C221.593 125.401 221.244 125.484 220.96 125.65C220.682 125.811 220.46 126.031 220.294 126.309C220.133 126.582 220.016 126.887 219.942 127.224C219.874 127.556 219.84 127.896 219.84 128.242V128.55C219.84 128.897 219.874 129.239 219.942 129.575C220.011 129.912 220.125 130.218 220.287 130.491C220.453 130.764 220.675 130.984 220.953 131.15C221.236 131.311 221.588 131.392 222.008 131.392ZM228.16 124.434V132.359H226.805V124.434H228.16ZM233.36 124.434L229.603 128.975H227.706L227.501 127.788H229.054L231.712 124.434H233.36ZM231.903 132.359L228.988 128.77L229.859 127.788L233.624 132.359H231.903Z" fill="white"/>
<path d="M68.5884 81.095L71.2837 74.9719H72.5874L69.0571 82.8967H68.1196L64.604 74.9719H65.9077L68.5884 81.095ZM65.5122 74.9719V82.8967H64.1572V74.9719H65.5122ZM71.6206 82.8967V74.9719H72.9829V82.8967H71.6206ZM76.2788 77.6965H78.6592C79.2988 77.6965 79.8384 77.8088 80.2778 78.0334C80.7173 78.2532 81.0493 78.5583 81.2739 78.949C81.5034 79.3347 81.6182 79.7742 81.6182 80.2673C81.6182 80.6335 81.5547 80.9778 81.4277 81.3C81.3008 81.6174 81.1104 81.8958 80.8564 82.135C80.6074 82.3743 80.2974 82.5623 79.9263 82.699C79.5601 82.8308 79.1377 82.8967 78.6592 82.8967H75.29V74.9719H76.645V81.7834H78.6592C79.0498 81.7834 79.3623 81.7126 79.5967 81.571C79.8311 81.4294 79.9995 81.2463 80.1021 81.0217C80.2046 80.7971 80.2559 80.5627 80.2559 80.3186C80.2559 80.0793 80.2046 79.845 80.1021 79.6155C79.9995 79.386 79.8311 79.1956 79.5967 79.0442C79.3623 78.8879 79.0498 78.8098 78.6592 78.8098H76.2788V77.6965ZM84.438 74.9719V82.8967H83.083V74.9719H84.438ZM89.9824 81.9299C90.3047 81.9299 90.6025 81.864 90.876 81.7322C91.1494 81.6003 91.374 81.4197 91.5498 81.1902C91.7256 80.9558 91.8257 80.6897 91.8501 80.3918H93.1392C93.1147 80.8606 92.9561 81.2976 92.6631 81.7029C92.375 82.1033 91.9966 82.428 91.5278 82.677C91.0591 82.9211 90.5439 83.0432 89.9824 83.0432C89.3867 83.0432 88.8667 82.9382 88.4224 82.7283C87.9829 82.5183 87.6167 82.2302 87.3237 81.864C87.0356 81.4978 86.8184 81.0779 86.6719 80.6042C86.5303 80.1257 86.4595 79.6204 86.4595 79.0881V78.7805C86.4595 78.2483 86.5303 77.7454 86.6719 77.2717C86.8184 76.7932 87.0356 76.3708 87.3237 76.0046C87.6167 75.6384 87.9829 75.3503 88.4224 75.1404C88.8667 74.9304 89.3867 74.8254 89.9824 74.8254C90.6025 74.8254 91.1445 74.9524 91.6084 75.2063C92.0723 75.4553 92.436 75.7971 92.6997 76.2317C92.9683 76.6614 93.1147 77.1497 93.1392 77.6965H91.8501C91.8257 77.3694 91.7329 77.074 91.5718 76.8103C91.4155 76.5466 91.2007 76.3367 90.9272 76.1804C90.6587 76.0193 90.3438 75.9387 89.9824 75.9387C89.5674 75.9387 89.2183 76.0217 88.9351 76.1877C88.6567 76.3489 88.4346 76.5686 88.2686 76.8469C88.1074 77.1204 87.9902 77.4255 87.917 77.7625C87.8486 78.0945 87.8145 78.4338 87.8145 78.7805V79.0881C87.8145 79.4348 87.8486 79.7766 87.917 80.1135C87.9854 80.4504 88.1001 80.7556 88.2612 81.0291C88.4272 81.3025 88.6494 81.5222 88.9277 81.6882C89.2109 81.8494 89.5625 81.9299 89.9824 81.9299ZM105.026 79.5056H106.433C106.359 80.1794 106.167 80.7825 105.854 81.3147C105.542 81.8469 105.1 82.2693 104.528 82.5818C103.957 82.8894 103.244 83.0432 102.39 83.0432C101.765 83.0432 101.196 82.926 100.683 82.6917C100.175 82.4573 99.7383 82.1252 99.3721 81.6956C99.0059 81.261 98.7227 80.741 98.5225 80.1355C98.3271 79.5251 98.2295 78.8464 98.2295 78.0994V77.0374C98.2295 76.2903 98.3271 75.614 98.5225 75.0085C98.7227 74.3982 99.0083 73.8757 99.3794 73.4412C99.7554 73.0066 100.207 72.6721 100.734 72.4377C101.262 72.2034 101.855 72.0862 102.514 72.0862C103.32 72.0862 104.001 72.2375 104.558 72.5403C105.114 72.843 105.546 73.2629 105.854 73.8C106.167 74.3323 106.359 74.95 106.433 75.6531H105.026C104.958 75.155 104.831 74.7278 104.646 74.3713C104.46 74.01 104.196 73.7317 103.854 73.5364C103.513 73.3411 103.066 73.2434 102.514 73.2434C102.041 73.2434 101.623 73.3337 101.262 73.5144C100.905 73.6951 100.605 73.9514 100.361 74.2834C100.122 74.6155 99.9409 75.0134 99.8188 75.4773C99.6968 75.9412 99.6357 76.4563 99.6357 77.0227V78.0994C99.6357 78.6218 99.6895 79.1125 99.7969 79.5715C99.9092 80.0305 100.078 80.4333 100.302 80.78C100.527 81.1267 100.812 81.4001 101.159 81.6003C101.506 81.7957 101.916 81.8933 102.39 81.8933C102.99 81.8933 103.469 81.7981 103.825 81.6077C104.182 81.4172 104.45 81.1438 104.631 80.7874C104.816 80.4309 104.948 80.0037 105.026 79.5056ZM113.449 74.9719V76.0925H109.619V74.9719H113.449ZM114.643 74.9719V82.8967H113.288V74.9719H114.643ZM109.289 74.9719H110.651L110.446 78.7952C110.412 79.386 110.356 79.9084 110.278 80.3625C110.205 80.8118 110.102 81.1975 109.97 81.5198C109.843 81.842 109.682 82.1057 109.487 82.3108C109.296 82.511 109.067 82.6599 108.798 82.7576C108.53 82.8503 108.22 82.8967 107.868 82.8967H107.443V81.7029L107.736 81.6809C107.946 81.6663 108.125 81.6174 108.271 81.5344C108.422 81.4514 108.549 81.3293 108.652 81.1682C108.754 81.0022 108.837 80.7898 108.901 80.531C108.969 80.2722 109.021 79.9646 109.055 79.6082C109.094 79.2517 109.123 78.8367 109.143 78.363L109.289 74.9719ZM120.114 83.0432C119.562 83.0432 119.062 82.9504 118.613 82.7649C118.168 82.5745 117.785 82.3083 117.463 81.9666C117.146 81.6248 116.901 81.2195 116.73 80.7507C116.56 80.282 116.474 79.7693 116.474 79.2126V78.905C116.474 78.2605 116.569 77.6868 116.76 77.1838C116.95 76.676 117.209 76.2463 117.536 75.8948C117.863 75.5432 118.234 75.2771 118.649 75.0964C119.064 74.9158 119.494 74.8254 119.938 74.8254C120.505 74.8254 120.993 74.9231 121.403 75.1184C121.818 75.3137 122.158 75.5872 122.421 75.9387C122.685 76.2854 122.88 76.6956 123.007 77.1692C123.134 77.6379 123.198 78.1506 123.198 78.7073V79.3152H117.28V78.2092H121.843V78.1067C121.823 77.7551 121.75 77.4133 121.623 77.0813C121.501 76.7493 121.306 76.4758 121.037 76.261C120.769 76.0461 120.402 75.9387 119.938 75.9387C119.631 75.9387 119.348 76.0046 119.089 76.1365C118.83 76.2634 118.608 76.4539 118.422 76.7078C118.237 76.9617 118.093 77.2717 117.99 77.6379C117.888 78.0042 117.836 78.4265 117.836 78.905V79.2126C117.836 79.5886 117.888 79.9426 117.99 80.2747C118.098 80.6018 118.251 80.8899 118.452 81.1389C118.657 81.3879 118.903 81.5833 119.191 81.7249C119.484 81.8665 119.816 81.9373 120.188 81.9373C120.666 81.9373 121.071 81.8396 121.403 81.6443C121.735 81.449 122.026 81.1877 122.275 80.8606L123.095 81.5125C122.924 81.7712 122.707 82.0178 122.443 82.2522C122.18 82.4866 121.855 82.677 121.469 82.8235C121.088 82.97 120.637 83.0432 120.114 83.0432ZM130.061 74.9719V76.0925H126.054V74.9719H130.061ZM126.252 74.9719V82.8967H124.897V74.9719H126.252ZM131.262 74.9719V82.8967H129.899V74.9719H131.262ZM134.902 80.7507L138.557 74.9719H139.919V82.8967H138.557V77.1179L134.902 82.8967H133.554V74.9719H134.902V80.7507ZM143.566 74.9719V82.8967H142.211V74.9719H143.566ZM148.767 74.9719L145.009 79.5129H143.112L142.907 78.3264H144.46L147.119 74.9719H148.767ZM147.309 82.8967L144.394 79.3079L145.266 78.3264L149.03 82.8967H147.309ZM149.689 79.0222V78.8538C149.689 78.2825 149.772 77.7527 149.938 77.2644C150.104 76.7712 150.344 76.344 150.656 75.9827C150.969 75.6165 151.347 75.3333 151.792 75.1331C152.236 74.928 152.734 74.8254 153.286 74.8254C153.842 74.8254 154.343 74.928 154.787 75.1331C155.236 75.3333 155.617 75.6165 155.93 75.9827C156.247 76.344 156.489 76.7712 156.655 77.2644C156.821 77.7527 156.904 78.2825 156.904 78.8538V79.0222C156.904 79.5935 156.821 80.1233 156.655 80.6116C156.489 81.0999 156.247 81.5271 155.93 81.8933C155.617 82.2546 155.239 82.5378 154.794 82.7429C154.355 82.9431 153.857 83.0432 153.3 83.0432C152.744 83.0432 152.243 82.9431 151.799 82.7429C151.354 82.5378 150.974 82.2546 150.656 81.8933C150.344 81.5271 150.104 81.0999 149.938 80.6116C149.772 80.1233 149.689 79.5935 149.689 79.0222ZM151.044 78.8538V79.0222C151.044 79.4177 151.091 79.7913 151.184 80.1428C151.276 80.4895 151.416 80.7971 151.601 81.0657C151.792 81.3342 152.028 81.5466 152.312 81.7029C152.595 81.8542 152.924 81.9299 153.3 81.9299C153.671 81.9299 153.996 81.8542 154.274 81.7029C154.558 81.5466 154.792 81.3342 154.978 81.0657C155.163 80.7971 155.302 80.4895 155.395 80.1428C155.493 79.7913 155.542 79.4177 155.542 79.0222V78.8538C155.542 78.4631 155.493 78.0945 155.395 77.7478C155.302 77.3962 155.161 77.0862 154.97 76.8176C154.785 76.5442 154.55 76.3293 154.267 76.1731C153.989 76.0168 153.662 75.9387 153.286 75.9387C152.915 75.9387 152.587 76.0168 152.304 76.1731C152.026 76.3293 151.792 76.5442 151.601 76.8176C151.416 77.0862 151.276 77.3962 151.184 77.7478C151.091 78.0945 151.044 78.4631 151.044 78.8538ZM163.979 78.407V79.5056H159.79V78.407H163.979ZM160.075 74.9719V82.8967H158.72V74.9719H160.075ZM165.078 74.9719V82.8967H163.715V74.9719H165.078ZM170.432 81.9299C170.754 81.9299 171.052 81.864 171.325 81.7322C171.599 81.6003 171.823 81.4197 171.999 81.1902C172.175 80.9558 172.275 80.6897 172.299 80.3918H173.588C173.564 80.8606 173.405 81.2976 173.112 81.7029C172.824 82.1033 172.446 82.428 171.977 82.677C171.508 82.9211 170.993 83.0432 170.432 83.0432C169.836 83.0432 169.316 82.9382 168.872 82.7283C168.432 82.5183 168.066 82.2302 167.773 81.864C167.485 81.4978 167.268 81.0779 167.121 80.6042C166.979 80.1257 166.909 79.6204 166.909 79.0881V78.7805C166.909 78.2483 166.979 77.7454 167.121 77.2717C167.268 76.7932 167.485 76.3708 167.773 76.0046C168.066 75.6384 168.432 75.3503 168.872 75.1404C169.316 74.9304 169.836 74.8254 170.432 74.8254C171.052 74.8254 171.594 74.9524 172.058 75.2063C172.521 75.4553 172.885 75.7971 173.149 76.2317C173.417 76.6614 173.564 77.1497 173.588 77.6965H172.299C172.275 77.3694 172.182 77.074 172.021 76.8103C171.865 76.5466 171.65 76.3367 171.376 76.1804C171.108 76.0193 170.793 75.9387 170.432 75.9387C170.017 75.9387 169.667 76.0217 169.384 76.1877C169.106 76.3489 168.884 76.5686 168.718 76.8469C168.557 77.1204 168.439 77.4255 168.366 77.7625C168.298 78.0945 168.264 78.4338 168.264 78.7805V79.0881C168.264 79.4348 168.298 79.7766 168.366 80.1135C168.435 80.4504 168.549 80.7556 168.71 81.0291C168.876 81.3025 169.099 81.5222 169.377 81.6882C169.66 81.8494 170.012 81.9299 170.432 81.9299ZM176.584 74.9719V82.8967H175.229V74.9719H176.584ZM181.784 74.9719L178.027 79.5129H176.13L175.925 78.3264H177.478L180.136 74.9719H181.784ZM180.327 82.8967L177.412 79.3079L178.283 78.3264L182.048 82.8967H180.327ZM182.707 79.0222V78.8538C182.707 78.2825 182.79 77.7527 182.956 77.2644C183.122 76.7712 183.361 76.344 183.674 75.9827C183.986 75.6165 184.365 75.3333 184.809 75.1331C185.253 74.928 185.751 74.8254 186.303 74.8254C186.86 74.8254 187.36 74.928 187.805 75.1331C188.254 75.3333 188.635 75.6165 188.947 75.9827C189.265 76.344 189.506 76.7712 189.672 77.2644C189.838 77.7527 189.921 78.2825 189.921 78.8538V79.0222C189.921 79.5935 189.838 80.1233 189.672 80.6116C189.506 81.0999 189.265 81.5271 188.947 81.8933C188.635 82.2546 188.256 82.5378 187.812 82.7429C187.373 82.9431 186.875 83.0432 186.318 83.0432C185.761 83.0432 185.261 82.9431 184.816 82.7429C184.372 82.5378 183.991 82.2546 183.674 81.8933C183.361 81.5271 183.122 81.0999 182.956 80.6116C182.79 80.1233 182.707 79.5935 182.707 79.0222ZM184.062 78.8538V79.0222C184.062 79.4177 184.108 79.7913 184.201 80.1428C184.294 80.4895 184.433 80.7971 184.619 81.0657C184.809 81.3342 185.046 81.5466 185.329 81.7029C185.612 81.8542 185.942 81.9299 186.318 81.9299C186.689 81.9299 187.014 81.8542 187.292 81.7029C187.575 81.5466 187.81 81.3342 187.995 81.0657C188.181 80.7971 188.32 80.4895 188.413 80.1428C188.51 79.7913 188.559 79.4177 188.559 79.0222V78.8538C188.559 78.4631 188.51 78.0945 188.413 77.7478C188.32 77.3962 188.178 77.0862 187.988 76.8176C187.802 76.5442 187.568 76.3293 187.285 76.1731C187.006 76.0168 186.679 75.9387 186.303 75.9387C185.932 75.9387 185.605 76.0168 185.322 76.1731C185.043 76.3293 184.809 76.5442 184.619 76.8176C184.433 77.0862 184.294 77.3962 184.201 77.7478C184.108 78.0945 184.062 78.4631 184.062 78.8538ZM196.74 74.9719V76.0925H193.078V82.8967H191.723V74.9719H196.74ZM197.414 79.0222V78.8538C197.414 78.2825 197.497 77.7527 197.663 77.2644C197.829 76.7712 198.068 76.344 198.381 75.9827C198.693 75.6165 199.072 75.3333 199.516 75.1331C199.96 74.928 200.458 74.8254 201.01 74.8254C201.567 74.8254 202.067 74.928 202.512 75.1331C202.961 75.3333 203.342 75.6165 203.654 75.9827C203.972 76.344 204.213 76.7712 204.379 77.2644C204.545 77.7527 204.628 78.2825 204.628 78.8538V79.0222C204.628 79.5935 204.545 80.1233 204.379 80.6116C204.213 81.0999 203.972 81.5271 203.654 81.8933C203.342 82.2546 202.963 82.5378 202.519 82.7429C202.08 82.9431 201.582 83.0432 201.025 83.0432C200.468 83.0432 199.968 82.9431 199.523 82.7429C199.079 82.5378 198.698 82.2546 198.381 81.8933C198.068 81.5271 197.829 81.0999 197.663 80.6116C197.497 80.1233 197.414 79.5935 197.414 79.0222ZM198.769 78.8538V79.0222C198.769 79.4177 198.815 79.7913 198.908 80.1428C199.001 80.4895 199.14 80.7971 199.326 81.0657C199.516 81.3342 199.753 81.5466 200.036 81.7029C200.319 81.8542 200.649 81.9299 201.025 81.9299C201.396 81.9299 201.721 81.8542 201.999 81.7029C202.282 81.5466 202.517 81.3342 202.702 81.0657C202.888 80.7971 203.027 80.4895 203.12 80.1428C203.217 79.7913 203.266 79.4177 203.266 79.0222V78.8538C203.266 78.4631 203.217 78.0945 203.12 77.7478C203.027 77.3962 202.885 77.0862 202.695 76.8176C202.509 76.5442 202.275 76.3293 201.992 76.1731C201.713 76.0168 201.386 75.9387 201.01 75.9387C200.639 75.9387 200.312 76.0168 200.029 76.1731C199.75 76.3293 199.516 76.5442 199.326 76.8176C199.14 77.0862 199.001 77.3962 198.908 77.7478C198.815 78.0945 198.769 78.4631 198.769 78.8538Z" fill="white"/>
<path d="M212.178 57.2327V67.8967H210.787V57.2327H212.178ZM215.606 57.2327V58.3899H207.366V57.2327H215.606ZM215.892 64.0222V63.8538C215.892 63.2825 215.975 62.7527 216.141 62.2644C216.307 61.7712 216.546 61.344 216.858 60.9827C217.171 60.6165 217.549 60.3333 217.994 60.1331C218.438 59.928 218.936 59.8254 219.488 59.8254C220.044 59.8254 220.545 59.928 220.989 60.1331C221.438 60.3333 221.819 60.6165 222.132 60.9827C222.449 61.344 222.691 61.7712 222.857 62.2644C223.023 62.7527 223.106 63.2825 223.106 63.8538V64.0222C223.106 64.5935 223.023 65.1233 222.857 65.6116C222.691 66.0999 222.449 66.5271 222.132 66.8933C221.819 67.2546 221.441 67.5378 220.997 67.7429C220.557 67.9431 220.059 68.0432 219.502 68.0432C218.946 68.0432 218.445 67.9431 218.001 67.7429C217.557 67.5378 217.176 67.2546 216.858 66.8933C216.546 66.5271 216.307 66.0999 216.141 65.6116C215.975 65.1233 215.892 64.5935 215.892 64.0222ZM217.247 63.8538V64.0222C217.247 64.4177 217.293 64.7913 217.386 65.1428C217.479 65.4895 217.618 65.7971 217.803 66.0657C217.994 66.3342 218.23 66.5466 218.514 66.7029C218.797 66.8542 219.126 66.9299 219.502 66.9299C219.874 66.9299 220.198 66.8542 220.477 66.7029C220.76 66.5466 220.994 66.3342 221.18 66.0657C221.365 65.7971 221.504 65.4895 221.597 65.1428C221.695 64.7913 221.744 64.4177 221.744 64.0222V63.8538C221.744 63.4631 221.695 63.0945 221.597 62.7478C221.504 62.3962 221.363 62.0862 221.172 61.8176C220.987 61.5442 220.752 61.3293 220.469 61.1731C220.191 61.0168 219.864 60.9387 219.488 60.9387C219.117 60.9387 218.79 61.0168 218.506 61.1731C218.228 61.3293 217.994 61.5442 217.803 61.8176C217.618 62.0862 217.479 62.3962 217.386 62.7478C217.293 63.0945 217.247 63.4631 217.247 63.8538ZM229.361 66.095L232.056 59.9719H233.36L229.83 67.8967H228.892L225.376 59.9719H226.68L229.361 66.095ZM226.285 59.9719V67.8967H224.93V59.9719H226.285ZM232.393 67.8967V59.9719H233.755V67.8967H232.393ZM240.611 66.5417V62.4622C240.611 62.1497 240.547 61.8787 240.42 61.6492C240.298 61.4148 240.113 61.2341 239.864 61.1072C239.615 60.9802 239.307 60.9167 238.941 60.9167C238.599 60.9167 238.299 60.9753 238.04 61.0925C237.786 61.2097 237.586 61.3635 237.439 61.554C237.298 61.7444 237.227 61.9495 237.227 62.1692H235.872C235.872 61.886 235.945 61.6052 236.092 61.3269C236.238 61.0486 236.448 60.7971 236.722 60.5725C237 60.343 237.332 60.1624 237.718 60.0305C238.108 59.8938 238.543 59.8254 239.021 59.8254C239.598 59.8254 240.105 59.9231 240.545 60.1184C240.989 60.3137 241.336 60.6091 241.585 61.0046C241.839 61.3953 241.966 61.886 241.966 62.4768V66.1682C241.966 66.4319 241.988 66.7126 242.032 67.0105C242.081 67.3083 242.151 67.5647 242.244 67.7795V67.8967H240.831C240.762 67.7405 240.708 67.533 240.669 67.2742C240.63 67.0105 240.611 66.7664 240.611 66.5417ZM240.845 63.092L240.86 64.0442H239.49C239.104 64.0442 238.76 64.0759 238.458 64.1394C238.155 64.198 237.901 64.2883 237.696 64.4104C237.491 64.5325 237.334 64.6863 237.227 64.8718C237.12 65.0525 237.066 65.2649 237.066 65.509C237.066 65.7581 237.122 65.9851 237.234 66.1902C237.347 66.3953 237.515 66.5588 237.74 66.6809C237.969 66.7981 238.25 66.8567 238.582 66.8567C238.997 66.8567 239.363 66.7688 239.681 66.593C239.998 66.4172 240.25 66.2024 240.435 65.9485C240.625 65.6946 240.728 65.448 240.743 65.2087L241.321 65.8606C241.287 66.0657 241.194 66.2927 241.043 66.5417C240.892 66.7908 240.689 67.03 240.435 67.2595C240.186 67.4841 239.888 67.6721 239.542 67.8235C239.2 67.97 238.814 68.0432 238.384 68.0432C237.847 68.0432 237.376 67.9382 236.971 67.7283C236.57 67.5183 236.258 67.2375 236.033 66.886C235.813 66.5295 235.704 66.1316 235.704 65.6921C235.704 65.2673 235.787 64.8938 235.953 64.5715C236.119 64.2444 236.358 63.9734 236.67 63.7585C236.983 63.5388 237.359 63.3728 237.798 63.2605C238.238 63.1482 238.729 63.092 239.271 63.092H240.845ZM245.452 61.4954V70.9436H244.09V59.9719H245.335L245.452 61.4954ZM250.792 63.8684V64.0222C250.792 64.5984 250.723 65.1331 250.586 65.6262C250.45 66.1145 250.25 66.5393 249.986 66.9006C249.727 67.262 249.407 67.5427 249.026 67.7429C248.646 67.9431 248.208 68.0432 247.715 68.0432C247.212 68.0432 246.768 67.9602 246.382 67.7942C245.997 67.6282 245.669 67.3865 245.401 67.0691C245.132 66.7517 244.917 66.3708 244.756 65.9265C244.6 65.4822 244.493 64.9817 244.434 64.425V63.6047C244.493 63.0188 244.603 62.4939 244.764 62.03C244.925 61.5662 245.137 61.1707 245.401 60.8435C245.669 60.5115 245.994 60.26 246.375 60.0891C246.756 59.9133 247.195 59.8254 247.693 59.8254C248.191 59.8254 248.633 59.9231 249.019 60.1184C249.405 60.3088 249.729 60.5823 249.993 60.9387C250.257 61.2952 250.455 61.7224 250.586 62.2205C250.723 62.7136 250.792 63.2629 250.792 63.8684ZM249.429 64.0222V63.8684C249.429 63.4729 249.388 63.1018 249.305 62.7551C249.222 62.4036 249.092 62.0959 248.917 61.8323C248.746 61.5637 248.526 61.3538 248.257 61.2024C247.989 61.0461 247.669 60.968 247.298 60.968C246.956 60.968 246.658 61.0266 246.404 61.1438C246.155 61.261 245.943 61.4197 245.767 61.6199C245.591 61.8152 245.447 62.0398 245.335 62.2937C245.228 62.5427 245.147 62.8015 245.093 63.0701V64.967C245.191 65.3088 245.328 65.6311 245.503 65.9338C245.679 66.2317 245.914 66.4734 246.207 66.6589C246.5 66.8396 246.868 66.9299 247.312 66.9299C247.679 66.9299 247.994 66.8542 248.257 66.7029C248.526 66.5466 248.746 66.3342 248.917 66.0657C249.092 65.7971 249.222 65.4895 249.305 65.1428C249.388 64.7913 249.429 64.4177 249.429 64.0222ZM253.985 65.7507L257.64 59.9719H259.002V67.8967H257.64V62.1179L253.985 67.8967H252.637V59.9719H253.985V65.7507Z" fill="white"/>
<path d="M285.71 99.4504L290.961 91.2327H292.375V101.897H290.961V93.6716L285.71 101.897H284.304V91.2327H285.71V99.4504ZM300.168 93.9719V95.0925H296.337V93.9719H300.168ZM301.362 93.9719V101.897H300.007V93.9719H301.362ZM296.008 93.9719H297.37L297.165 97.7952C297.131 98.386 297.075 98.9084 296.997 99.3625C296.923 99.8118 296.821 100.198 296.689 100.52C296.562 100.842 296.401 101.106 296.206 101.311C296.015 101.511 295.786 101.66 295.517 101.758C295.249 101.85 294.938 101.897 294.587 101.897H294.162V100.703L294.455 100.681C294.665 100.666 294.843 100.617 294.99 100.534C295.141 100.451 295.268 100.329 295.371 100.168C295.473 100.002 295.556 99.7898 295.62 99.531C295.688 99.2722 295.739 98.9646 295.773 98.6082C295.812 98.2517 295.842 97.8367 295.861 97.363L296.008 93.9719ZM304.658 96.6965H307.038C307.678 96.6965 308.217 96.8088 308.657 97.0334C309.096 97.2532 309.428 97.5583 309.653 97.949C309.882 98.3347 309.997 98.7742 309.997 99.2673C309.997 99.6335 309.934 99.9778 309.807 100.3C309.68 100.617 309.489 100.896 309.235 101.135C308.986 101.374 308.676 101.562 308.305 101.699C307.939 101.831 307.517 101.897 307.038 101.897H303.669V93.9719H305.024V100.783H307.038C307.429 100.783 307.741 100.713 307.976 100.571C308.21 100.429 308.378 100.246 308.481 100.022C308.583 99.7971 308.635 99.5627 308.635 99.3186C308.635 99.0793 308.583 98.845 308.481 98.6155C308.378 98.386 308.21 98.1956 307.976 98.0442C307.741 97.8879 307.429 97.8098 307.038 97.8098H304.658V96.6965ZM313.154 99.7507L316.809 93.9719H318.171V101.897H316.809V96.1179L313.154 101.897H311.806V93.9719H313.154V99.7507ZM325.722 97.407V98.5056H321.533V97.407H325.722ZM321.818 93.9719V101.897H320.463V93.9719H321.818ZM326.821 93.9719V101.897H325.458V93.9719H326.821ZM332.175 100.93C332.497 100.93 332.795 100.864 333.068 100.732C333.342 100.6 333.566 100.42 333.742 100.19C333.918 99.9558 334.018 99.6897 334.042 99.3918H335.332C335.307 99.8606 335.148 100.298 334.855 100.703C334.567 101.103 334.189 101.428 333.72 101.677C333.251 101.921 332.736 102.043 332.175 102.043C331.579 102.043 331.059 101.938 330.615 101.728C330.175 101.518 329.809 101.23 329.516 100.864C329.228 100.498 329.011 100.078 328.864 99.6042C328.723 99.1257 328.652 98.6204 328.652 98.0881V97.7805C328.652 97.2483 328.723 96.7454 328.864 96.2717C329.011 95.7932 329.228 95.3708 329.516 95.0046C329.809 94.6384 330.175 94.3503 330.615 94.1404C331.059 93.9304 331.579 93.8254 332.175 93.8254C332.795 93.8254 333.337 93.9524 333.801 94.2063C334.265 94.4553 334.628 94.7971 334.892 95.2317C335.161 95.6614 335.307 96.1497 335.332 96.6965H334.042C334.018 96.3694 333.925 96.074 333.764 95.8103C333.608 95.5466 333.393 95.3367 333.12 95.1804C332.851 95.0193 332.536 94.9387 332.175 94.9387C331.76 94.9387 331.411 95.0217 331.127 95.1877C330.849 95.3489 330.627 95.5686 330.461 95.8469C330.3 96.1204 330.183 96.4255 330.109 96.7625C330.041 97.0945 330.007 97.4338 330.007 97.7805V98.0881C330.007 98.4348 330.041 98.7766 330.109 99.1135C330.178 99.4504 330.292 99.7556 330.454 100.029C330.62 100.302 330.842 100.522 331.12 100.688C331.403 100.849 331.755 100.93 332.175 100.93ZM338.327 93.9719V101.897H336.972V93.9719H338.327ZM343.527 93.9719L339.77 98.5129H337.873L337.668 97.3264H339.221L341.879 93.9719H343.527ZM342.07 101.897L339.155 98.3079L340.026 97.3264L343.791 101.897H342.07ZM344.45 98.0222V97.8538C344.45 97.2825 344.533 96.7527 344.699 96.2644C344.865 95.7712 345.104 95.344 345.417 94.9827C345.729 94.6165 346.108 94.3333 346.552 94.1331C346.997 93.928 347.495 93.8254 348.046 93.8254C348.603 93.8254 349.104 93.928 349.548 94.1331C349.997 94.3333 350.378 94.6165 350.69 94.9827C351.008 95.344 351.25 95.7712 351.416 96.2644C351.582 96.7527 351.665 97.2825 351.665 97.8538V98.0222C351.665 98.5935 351.582 99.1233 351.416 99.6116C351.25 100.1 351.008 100.527 350.69 100.893C350.378 101.255 350 101.538 349.555 101.743C349.116 101.943 348.618 102.043 348.061 102.043C347.504 102.043 347.004 101.943 346.56 101.743C346.115 101.538 345.734 101.255 345.417 100.893C345.104 100.527 344.865 100.1 344.699 99.6116C344.533 99.1233 344.45 98.5935 344.45 98.0222ZM345.805 97.8538V98.0222C345.805 98.4177 345.852 98.7913 345.944 99.1428C346.037 99.4895 346.176 99.7971 346.362 100.066C346.552 100.334 346.789 100.547 347.072 100.703C347.355 100.854 347.685 100.93 348.061 100.93C348.432 100.93 348.757 100.854 349.035 100.703C349.318 100.547 349.553 100.334 349.738 100.066C349.924 99.7971 350.063 99.4895 350.156 99.1428C350.253 98.7913 350.302 98.4177 350.302 98.0222V97.8538C350.302 97.4631 350.253 97.0945 350.156 96.7478C350.063 96.3962 349.921 96.0862 349.731 95.8176C349.545 95.5442 349.311 95.3293 349.028 95.1731C348.75 95.0168 348.422 94.9387 348.046 94.9387C347.675 94.9387 347.348 95.0168 347.065 95.1731C346.787 95.3293 346.552 95.5442 346.362 95.8176C346.176 96.0862 346.037 96.3962 345.944 96.7478C345.852 97.0945 345.805 97.4631 345.805 97.8538ZM356.652 102.043C356.101 102.043 355.6 101.95 355.151 101.765C354.707 101.574 354.323 101.308 354.001 100.967C353.684 100.625 353.439 100.219 353.269 99.7507C353.098 99.282 353.012 98.7693 353.012 98.2126V97.905C353.012 97.2605 353.107 96.6868 353.298 96.1838C353.488 95.676 353.747 95.2463 354.074 94.8948C354.401 94.5432 354.772 94.2771 355.188 94.0964C355.603 93.9158 356.032 93.8254 356.477 93.8254C357.043 93.8254 357.531 93.9231 357.941 94.1184C358.356 94.3137 358.696 94.5872 358.959 94.9387C359.223 95.2854 359.418 95.6956 359.545 96.1692C359.672 96.6379 359.736 97.1506 359.736 97.7073V98.3152H353.818V97.2092H358.381V97.1067C358.361 96.7551 358.288 96.4133 358.161 96.0813C358.039 95.7493 357.844 95.4758 357.575 95.261C357.307 95.0461 356.94 94.9387 356.477 94.9387C356.169 94.9387 355.886 95.0046 355.627 95.1365C355.368 95.2634 355.146 95.4539 354.96 95.7078C354.775 95.9617 354.631 96.2717 354.528 96.6379C354.426 97.0042 354.375 97.4265 354.375 97.905V98.2126C354.375 98.5886 354.426 98.9426 354.528 99.2747C354.636 99.6018 354.79 99.8899 354.99 100.139C355.195 100.388 355.441 100.583 355.729 100.725C356.022 100.866 356.354 100.937 356.726 100.937C357.204 100.937 357.609 100.84 357.941 100.644C358.273 100.449 358.564 100.188 358.813 99.8606L359.633 100.512C359.462 100.771 359.245 101.018 358.981 101.252C358.718 101.487 358.393 101.677 358.007 101.823C357.626 101.97 357.175 102.043 356.652 102.043Z" fill="white"/>
<path d="M89.2031 101.818V102.968H83.4316V101.818H89.2031ZM83.6514 97.2327V107.897H82.2378V97.2327H83.6514ZM90.4336 97.2327V107.897H89.0273V97.2327H90.4336ZM96.0293 108.043C95.4775 108.043 94.9771 107.95 94.5278 107.765C94.0835 107.574 93.7002 107.308 93.3779 106.967C93.0605 106.625 92.8164 106.219 92.6455 105.751C92.4746 105.282 92.3892 104.769 92.3892 104.213V103.905C92.3892 103.26 92.4844 102.687 92.6748 102.184C92.8652 101.676 93.124 101.246 93.4512 100.895C93.7783 100.543 94.1494 100.277 94.5645 100.096C94.9795 99.9158 95.4092 99.8254 95.8535 99.8254C96.4199 99.8254 96.9082 99.9231 97.3184 100.118C97.7334 100.314 98.0728 100.587 98.3364 100.939C98.6001 101.285 98.7954 101.696 98.9224 102.169C99.0493 102.638 99.1128 103.151 99.1128 103.707V104.315H93.1948V103.209H97.7578V103.107C97.7383 102.755 97.665 102.413 97.5381 102.081C97.416 101.749 97.2207 101.476 96.9521 101.261C96.6836 101.046 96.3174 100.939 95.8535 100.939C95.5459 100.939 95.2627 101.005 95.0039 101.136C94.7451 101.263 94.5229 101.454 94.3374 101.708C94.1519 101.962 94.0078 102.272 93.9053 102.638C93.8027 103.004 93.7515 103.427 93.7515 103.905V104.213C93.7515 104.589 93.8027 104.943 93.9053 105.275C94.0127 105.602 94.1665 105.89 94.3667 106.139C94.5718 106.388 94.8184 106.583 95.1064 106.725C95.3994 106.866 95.7314 106.937 96.1025 106.937C96.5811 106.937 96.9863 106.84 97.3184 106.644C97.6504 106.449 97.9409 106.188 98.1899 105.861L99.0103 106.512C98.8394 106.771 98.6221 107.018 98.3584 107.252C98.0947 107.487 97.77 107.677 97.3843 107.823C97.0034 107.97 96.5518 108.043 96.0293 108.043ZM104.416 104.41H101.815L101.801 103.326H103.925C104.345 103.326 104.694 103.285 104.972 103.202C105.255 103.119 105.468 102.994 105.609 102.828C105.751 102.662 105.822 102.457 105.822 102.213C105.822 102.023 105.78 101.857 105.697 101.715C105.619 101.569 105.5 101.449 105.338 101.356C105.177 101.259 104.977 101.188 104.738 101.144C104.503 101.095 104.228 101.071 103.91 101.071H102.174V107.897H100.819V99.9719H103.91C104.413 99.9719 104.865 100.016 105.265 100.104C105.67 100.192 106.015 100.326 106.298 100.507C106.586 100.682 106.806 100.907 106.957 101.18C107.108 101.454 107.184 101.776 107.184 102.147C107.184 102.386 107.135 102.614 107.038 102.828C106.94 103.043 106.796 103.234 106.605 103.4C106.415 103.566 106.181 103.702 105.902 103.81C105.624 103.912 105.304 103.978 104.943 104.008L104.416 104.41ZM104.416 107.897H101.325L101.999 106.798H104.416C104.792 106.798 105.104 106.752 105.353 106.659C105.602 106.561 105.788 106.425 105.91 106.249C106.037 106.068 106.1 105.853 106.1 105.604C106.1 105.355 106.037 105.143 105.91 104.967C105.788 104.786 105.602 104.65 105.353 104.557C105.104 104.459 104.792 104.41 104.416 104.41H102.357L102.372 103.326H104.943L105.434 103.737C105.868 103.771 106.237 103.878 106.54 104.059C106.842 104.24 107.072 104.469 107.228 104.747C107.384 105.021 107.462 105.319 107.462 105.641C107.462 106.012 107.392 106.339 107.25 106.622C107.113 106.906 106.913 107.142 106.649 107.333C106.386 107.518 106.066 107.66 105.69 107.758C105.314 107.85 104.889 107.897 104.416 107.897ZM112.567 108.043C112.016 108.043 111.515 107.95 111.066 107.765C110.622 107.574 110.238 107.308 109.916 106.967C109.599 106.625 109.354 106.219 109.184 105.751C109.013 105.282 108.927 104.769 108.927 104.213V103.905C108.927 103.26 109.022 102.687 109.213 102.184C109.403 101.676 109.662 101.246 109.989 100.895C110.316 100.543 110.688 100.277 111.103 100.096C111.518 99.9158 111.947 99.8254 112.392 99.8254C112.958 99.8254 113.446 99.9231 113.856 100.118C114.271 100.314 114.611 100.587 114.875 100.939C115.138 101.285 115.333 101.696 115.46 102.169C115.587 102.638 115.651 103.151 115.651 103.707V104.315H109.733V103.209H114.296V103.107C114.276 102.755 114.203 102.413 114.076 102.081C113.954 101.749 113.759 101.476 113.49 101.261C113.222 101.046 112.855 100.939 112.392 100.939C112.084 100.939 111.801 101.005 111.542 101.136C111.283 101.263 111.061 101.454 110.875 101.708C110.69 101.962 110.546 102.272 110.443 102.638C110.341 103.004 110.29 103.427 110.29 103.905V104.213C110.29 104.589 110.341 104.943 110.443 105.275C110.551 105.602 110.705 105.89 110.905 106.139C111.11 106.388 111.356 106.583 111.645 106.725C111.938 106.866 112.27 106.937 112.641 106.937C113.119 106.937 113.524 106.84 113.856 106.644C114.188 106.449 114.479 106.188 114.728 105.861L115.548 106.512C115.377 106.771 115.16 107.018 114.896 107.252C114.633 107.487 114.308 107.677 113.922 107.823C113.542 107.97 113.09 108.043 112.567 108.043ZM122.528 99.9719V101.093H118.698V99.9719H122.528ZM123.722 99.9719V107.897H122.367V99.9719H123.722ZM118.368 99.9719H119.73L119.525 103.795C119.491 104.386 119.435 104.908 119.357 105.363C119.284 105.812 119.181 106.198 119.049 106.52C118.922 106.842 118.761 107.106 118.566 107.311C118.375 107.511 118.146 107.66 117.877 107.758C117.609 107.85 117.299 107.897 116.947 107.897H116.522V106.703L116.815 106.681C117.025 106.666 117.204 106.617 117.35 106.534C117.501 106.451 117.628 106.329 117.731 106.168C117.833 106.002 117.917 105.79 117.98 105.531C118.048 105.272 118.1 104.965 118.134 104.608C118.173 104.252 118.202 103.837 118.222 103.363L118.368 99.9719ZM127.018 102.697H129.398C130.038 102.697 130.578 102.809 131.017 103.033C131.457 103.253 131.789 103.558 132.013 103.949C132.243 104.335 132.357 104.774 132.357 105.267C132.357 105.634 132.294 105.978 132.167 106.3C132.04 106.617 131.85 106.896 131.596 107.135C131.347 107.374 131.037 107.562 130.666 107.699C130.299 107.831 129.877 107.897 129.398 107.897H126.029V99.9719H127.384V106.783H129.398C129.789 106.783 130.102 106.713 130.336 106.571C130.57 106.429 130.739 106.246 130.841 106.022C130.944 105.797 130.995 105.563 130.995 105.319C130.995 105.079 130.944 104.845 130.841 104.615C130.739 104.386 130.57 104.196 130.336 104.044C130.102 103.888 129.789 103.81 129.398 103.81H127.018V102.697ZM137.221 106.93C137.543 106.93 137.841 106.864 138.114 106.732C138.388 106.6 138.612 106.42 138.788 106.19C138.964 105.956 139.064 105.69 139.088 105.392H140.377C140.353 105.861 140.194 106.298 139.901 106.703C139.613 107.103 139.235 107.428 138.766 107.677C138.297 107.921 137.782 108.043 137.221 108.043C136.625 108.043 136.105 107.938 135.661 107.728C135.221 107.518 134.855 107.23 134.562 106.864C134.274 106.498 134.057 106.078 133.91 105.604C133.769 105.126 133.698 104.62 133.698 104.088V103.781C133.698 103.248 133.769 102.745 133.91 102.272C134.057 101.793 134.274 101.371 134.562 101.005C134.855 100.638 135.221 100.35 135.661 100.14C136.105 99.9304 136.625 99.8254 137.221 99.8254C137.841 99.8254 138.383 99.9524 138.847 100.206C139.311 100.455 139.674 100.797 139.938 101.232C140.207 101.661 140.353 102.15 140.377 102.697H139.088C139.064 102.369 138.971 102.074 138.81 101.81C138.654 101.547 138.439 101.337 138.166 101.18C137.897 101.019 137.582 100.939 137.221 100.939C136.806 100.939 136.457 101.022 136.173 101.188C135.895 101.349 135.673 101.569 135.507 101.847C135.346 102.12 135.229 102.426 135.155 102.762C135.087 103.094 135.053 103.434 135.053 103.781V104.088C135.053 104.435 135.087 104.777 135.155 105.114C135.224 105.45 135.338 105.756 135.5 106.029C135.666 106.302 135.888 106.522 136.166 106.688C136.449 106.849 136.801 106.93 137.221 106.93ZM143.373 99.9719V107.897H142.018V99.9719H143.373ZM148.573 99.9719L144.816 104.513H142.919L142.714 103.326H144.267L146.925 99.9719H148.573ZM147.116 107.897L144.201 104.308L145.072 103.326L148.837 107.897H147.116Z" fill="white"/>
<path d="M7.85156 114.233V115.39H2.70996V124.897H1.30371V114.233H7.85156ZM7.64648 121.022V120.854C7.64648 120.282 7.72949 119.753 7.89551 119.264C8.06152 118.771 8.30078 118.344 8.61328 117.983C8.92578 117.616 9.3042 117.333 9.74854 117.133C10.1929 116.928 10.6909 116.825 11.2427 116.825C11.7993 116.825 12.2998 116.928 12.7441 117.133C13.1934 117.333 13.5742 117.616 13.8867 117.983C14.2041 118.344 14.4458 118.771 14.6118 119.264C14.7778 119.753 14.8608 120.282 14.8608 120.854V121.022C14.8608 121.594 14.7778 122.123 14.6118 122.612C14.4458 123.1 14.2041 123.527 13.8867 123.893C13.5742 124.255 13.1958 124.538 12.7515 124.743C12.312 124.943 11.814 125.043 11.2573 125.043C10.7007 125.043 10.2002 124.943 9.75586 124.743C9.31152 124.538 8.93066 124.255 8.61328 123.893C8.30078 123.527 8.06152 123.1 7.89551 122.612C7.72949 122.123 7.64648 121.594 7.64648 121.022ZM9.00146 120.854V121.022C9.00146 121.418 9.04785 121.791 9.14062 122.143C9.2334 122.49 9.37256 122.797 9.55811 123.066C9.74854 123.334 9.98535 123.547 10.2686 123.703C10.5518 123.854 10.8813 123.93 11.2573 123.93C11.6284 123.93 11.9531 123.854 12.2314 123.703C12.5146 123.547 12.749 123.334 12.9346 123.066C13.1201 122.797 13.2593 122.49 13.3521 122.143C13.4497 121.791 13.4985 121.418 13.4985 121.022V120.854C13.4985 120.463 13.4497 120.094 13.3521 119.748C13.2593 119.396 13.1177 119.086 12.9272 118.818C12.7417 118.544 12.5073 118.329 12.2241 118.173C11.9458 118.017 11.6187 117.939 11.2427 117.939C10.8716 117.939 10.5444 118.017 10.2612 118.173C9.98291 118.329 9.74854 118.544 9.55811 118.818C9.37256 119.086 9.2334 119.396 9.14062 119.748C9.04785 120.094 9.00146 120.463 9.00146 120.854ZM17.915 118.495V127.944H16.5527V116.972H17.7979L17.915 118.495ZM23.2544 120.868V121.022C23.2544 121.598 23.186 122.133 23.0493 122.626C22.9126 123.115 22.7124 123.539 22.4487 123.901C22.1899 124.262 21.8701 124.543 21.4893 124.743C21.1084 124.943 20.6714 125.043 20.1782 125.043C19.6753 125.043 19.231 124.96 18.8452 124.794C18.4595 124.628 18.1323 124.386 17.8638 124.069C17.5952 123.752 17.3804 123.371 17.2192 122.927C17.063 122.482 16.9556 121.982 16.897 121.425V120.605C16.9556 120.019 17.0654 119.494 17.2266 119.03C17.3877 118.566 17.6001 118.171 17.8638 117.844C18.1323 117.511 18.457 117.26 18.8379 117.089C19.2188 116.913 19.6582 116.825 20.1562 116.825C20.6543 116.825 21.0962 116.923 21.4819 117.118C21.8677 117.309 22.1924 117.582 22.4561 117.939C22.7197 118.295 22.9175 118.722 23.0493 119.22C23.186 119.714 23.2544 120.263 23.2544 120.868ZM21.8921 121.022V120.868C21.8921 120.473 21.8506 120.102 21.7676 119.755C21.6846 119.404 21.5552 119.096 21.3794 118.832C21.2085 118.564 20.9888 118.354 20.7202 118.202C20.4517 118.046 20.1318 117.968 19.7607 117.968C19.4189 117.968 19.1211 118.027 18.8672 118.144C18.6182 118.261 18.4058 118.42 18.23 118.62C18.0542 118.815 17.9102 119.04 17.7979 119.294C17.6904 119.543 17.6099 119.802 17.5562 120.07V121.967C17.6538 122.309 17.7905 122.631 17.9663 122.934C18.1421 123.232 18.3765 123.473 18.6694 123.659C18.9624 123.84 19.3311 123.93 19.7754 123.93C20.1416 123.93 20.4565 123.854 20.7202 123.703C20.9888 123.547 21.2085 123.334 21.3794 123.066C21.5552 122.797 21.6846 122.49 21.7676 122.143C21.8506 121.791 21.8921 121.418 21.8921 121.022ZM30.3589 120.407V121.506H26.1694V120.407H30.3589ZM26.4551 116.972V124.897H25.1001V116.972H26.4551ZM31.4575 116.972V124.897H30.0952V116.972H31.4575ZM33.2812 121.022V120.854C33.2812 120.282 33.3643 119.753 33.5303 119.264C33.6963 118.771 33.9355 118.344 34.248 117.983C34.5605 117.616 34.939 117.333 35.3833 117.133C35.8276 116.928 36.3257 116.825 36.8774 116.825C37.4341 116.825 37.9346 116.928 38.3789 117.133C38.8281 117.333 39.209 117.616 39.5215 117.983C39.8389 118.344 40.0806 118.771 40.2466 119.264C40.4126 119.753 40.4956 120.282 40.4956 120.854V121.022C40.4956 121.594 40.4126 122.123 40.2466 122.612C40.0806 123.1 39.8389 123.527 39.5215 123.893C39.209 124.255 38.8306 124.538 38.3862 124.743C37.9468 124.943 37.4487 125.043 36.8921 125.043C36.3354 125.043 35.835 124.943 35.3906 124.743C34.9463 124.538 34.5654 124.255 34.248 123.893C33.9355 123.527 33.6963 123.1 33.5303 122.612C33.3643 122.123 33.2812 121.594 33.2812 121.022ZM34.6362 120.854V121.022C34.6362 121.418 34.6826 121.791 34.7754 122.143C34.8682 122.49 35.0073 122.797 35.1929 123.066C35.3833 123.334 35.6201 123.547 35.9033 123.703C36.1865 123.854 36.5161 123.93 36.8921 123.93C37.2632 123.93 37.5879 123.854 37.8662 123.703C38.1494 123.547 38.3838 123.334 38.5693 123.066C38.7549 122.797 38.894 122.49 38.9868 122.143C39.0845 121.791 39.1333 121.418 39.1333 121.022V120.854C39.1333 120.463 39.0845 120.094 38.9868 119.748C38.894 119.396 38.7524 119.086 38.562 118.818C38.3765 118.544 38.1421 118.329 37.8589 118.173C37.5806 118.017 37.2534 117.939 36.8774 117.939C36.5063 117.939 36.1792 118.017 35.896 118.173C35.6177 118.329 35.3833 118.544 35.1929 118.818C35.0073 119.086 34.8682 119.396 34.7754 119.748C34.6826 120.094 34.6362 120.463 34.6362 120.854ZM45.1538 121.11H43.6963V120.275H45.0439C45.4199 120.275 45.7178 120.229 45.9375 120.136C46.1572 120.038 46.3135 119.904 46.4062 119.733C46.499 119.562 46.5454 119.362 46.5454 119.133C46.5454 118.927 46.4917 118.735 46.3843 118.554C46.2817 118.368 46.1157 118.219 45.8862 118.107C45.6567 117.99 45.3491 117.931 44.9634 117.931C44.6509 117.931 44.3677 117.988 44.1138 118.1C43.8599 118.207 43.6572 118.356 43.5059 118.547C43.3594 118.732 43.2861 118.942 43.2861 119.177H41.9312C41.9312 118.693 42.0679 118.278 42.3413 117.931C42.6196 117.58 42.9883 117.309 43.4473 117.118C43.9111 116.928 44.4165 116.833 44.9634 116.833C45.4224 116.833 45.8325 116.884 46.1938 116.987C46.5601 117.084 46.8701 117.231 47.124 117.426C47.3779 117.616 47.5708 117.856 47.7026 118.144C47.8394 118.427 47.9077 118.757 47.9077 119.133C47.9077 119.401 47.8442 119.655 47.7173 119.894C47.5903 120.134 47.4072 120.346 47.168 120.531C46.9287 120.712 46.6382 120.854 46.2964 120.956C45.9595 121.059 45.5786 121.11 45.1538 121.11ZM43.6963 120.597H45.1538C45.6274 120.597 46.0449 120.644 46.4062 120.737C46.7676 120.824 47.0703 120.956 47.3145 121.132C47.5586 121.308 47.7417 121.525 47.8638 121.784C47.9907 122.038 48.0542 122.331 48.0542 122.663C48.0542 123.034 47.9785 123.368 47.8271 123.666C47.6807 123.959 47.4707 124.208 47.1973 124.413C46.9238 124.618 46.5967 124.775 46.2158 124.882C45.8398 124.99 45.4224 125.043 44.9634 125.043C44.4507 125.043 43.9526 124.955 43.4692 124.78C42.9858 124.604 42.5879 124.333 42.2754 123.967C41.9629 123.595 41.8066 123.124 41.8066 122.553H43.1616C43.1616 122.792 43.2373 123.019 43.3887 123.234C43.54 123.449 43.75 123.622 44.0186 123.754C44.292 123.886 44.6069 123.952 44.9634 123.952C45.3442 123.952 45.6616 123.893 45.9155 123.776C46.1694 123.659 46.3599 123.503 46.4868 123.307C46.6187 123.112 46.6846 122.9 46.6846 122.67C46.6846 122.372 46.626 122.133 46.5088 121.952C46.3916 121.772 46.2109 121.64 45.9668 121.557C45.7275 121.469 45.4199 121.425 45.0439 121.425H43.6963V120.597ZM54.4849 123.542V119.462C54.4849 119.15 54.4214 118.879 54.2944 118.649C54.1724 118.415 53.9868 118.234 53.7378 118.107C53.4888 117.98 53.1812 117.917 52.8149 117.917C52.4731 117.917 52.1729 117.975 51.9141 118.093C51.6602 118.21 51.46 118.364 51.3135 118.554C51.1719 118.744 51.1011 118.949 51.1011 119.169H49.7461C49.7461 118.886 49.8193 118.605 49.9658 118.327C50.1123 118.049 50.3223 117.797 50.5957 117.573C50.874 117.343 51.2061 117.162 51.5918 117.031C51.9824 116.894 52.417 116.825 52.8955 116.825C53.4717 116.825 53.9795 116.923 54.4189 117.118C54.8633 117.314 55.21 117.609 55.459 118.005C55.7129 118.395 55.8398 118.886 55.8398 119.477V123.168C55.8398 123.432 55.8618 123.713 55.9058 124.01C55.9546 124.308 56.0254 124.565 56.1182 124.78V124.897H54.7046C54.6362 124.74 54.5825 124.533 54.5435 124.274C54.5044 124.01 54.4849 123.766 54.4849 123.542ZM54.7192 120.092L54.7339 121.044H53.3643C52.9785 121.044 52.6343 121.076 52.3315 121.139C52.0288 121.198 51.7749 121.288 51.5698 121.41C51.3647 121.532 51.2085 121.686 51.1011 121.872C50.9937 122.052 50.9399 122.265 50.9399 122.509C50.9399 122.758 50.9961 122.985 51.1084 123.19C51.2207 123.395 51.3892 123.559 51.6138 123.681C51.8433 123.798 52.124 123.857 52.4561 123.857C52.8711 123.857 53.2373 123.769 53.5547 123.593C53.8721 123.417 54.1235 123.202 54.3091 122.948C54.4995 122.695 54.6021 122.448 54.6167 122.209L55.1953 122.861C55.1611 123.066 55.0684 123.293 54.917 123.542C54.7656 123.791 54.563 124.03 54.3091 124.26C54.0601 124.484 53.7622 124.672 53.4155 124.823C53.0737 124.97 52.688 125.043 52.2583 125.043C51.7212 125.043 51.25 124.938 50.8447 124.728C50.4443 124.518 50.1318 124.238 49.9072 123.886C49.6875 123.53 49.5776 123.132 49.5776 122.692C49.5776 122.267 49.6606 121.894 49.8267 121.572C49.9927 121.244 50.2319 120.973 50.5444 120.759C50.8569 120.539 51.2329 120.373 51.6724 120.26C52.1118 120.148 52.6025 120.092 53.1445 120.092H54.7192ZM61.6919 121.41H59.0918L59.0771 120.326H61.2012C61.6211 120.326 61.9702 120.285 62.2485 120.202C62.5317 120.119 62.7441 119.994 62.8857 119.828C63.0273 119.662 63.0981 119.457 63.0981 119.213C63.0981 119.023 63.0566 118.857 62.9736 118.715C62.8955 118.569 62.7759 118.449 62.6147 118.356C62.4536 118.259 62.2534 118.188 62.0142 118.144C61.7798 118.095 61.5039 118.071 61.1865 118.071H59.4507V124.897H58.0957V116.972H61.1865C61.6895 116.972 62.1411 117.016 62.5415 117.104C62.9468 117.192 63.291 117.326 63.5742 117.507C63.8623 117.682 64.082 117.907 64.2334 118.18C64.3848 118.454 64.4604 118.776 64.4604 119.147C64.4604 119.386 64.4116 119.614 64.314 119.828C64.2163 120.043 64.0723 120.234 63.8818 120.4C63.6914 120.566 63.457 120.702 63.1787 120.81C62.9004 120.912 62.5806 120.978 62.2192 121.008L61.6919 121.41ZM61.6919 124.897H58.6011L59.2749 123.798H61.6919C62.0679 123.798 62.3804 123.752 62.6294 123.659C62.8784 123.561 63.064 123.425 63.186 123.249C63.313 123.068 63.3765 122.853 63.3765 122.604C63.3765 122.355 63.313 122.143 63.186 121.967C63.064 121.786 62.8784 121.65 62.6294 121.557C62.3804 121.459 62.0679 121.41 61.6919 121.41H59.6338L59.6484 120.326H62.2192L62.71 120.737C63.1445 120.771 63.5132 120.878 63.8159 121.059C64.1187 121.24 64.3481 121.469 64.5044 121.747C64.6606 122.021 64.7388 122.319 64.7388 122.641C64.7388 123.012 64.668 123.339 64.5264 123.622C64.3896 123.906 64.1895 124.142 63.9258 124.333C63.6621 124.518 63.3423 124.66 62.9663 124.758C62.5903 124.85 62.1655 124.897 61.6919 124.897ZM66.1963 121.022V120.854C66.1963 120.282 66.2793 119.753 66.4453 119.264C66.6113 118.771 66.8506 118.344 67.1631 117.983C67.4756 117.616 67.854 117.333 68.2983 117.133C68.7427 116.928 69.2407 116.825 69.7925 116.825C70.3491 116.825 70.8496 116.928 71.2939 117.133C71.7432 117.333 72.124 117.616 72.4365 117.983C72.7539 118.344 72.9956 118.771 73.1616 119.264C73.3276 119.753 73.4106 120.282 73.4106 120.854V121.022C73.4106 121.594 73.3276 122.123 73.1616 122.612C72.9956 123.1 72.7539 123.527 72.4365 123.893C72.124 124.255 71.7456 124.538 71.3013 124.743C70.8618 124.943 70.3638 125.043 69.8071 125.043C69.2505 125.043 68.75 124.943 68.3057 124.743C67.8613 124.538 67.4805 124.255 67.1631 123.893C66.8506 123.527 66.6113 123.1 66.4453 122.612C66.2793 122.123 66.1963 121.594 66.1963 121.022ZM67.5513 120.854V121.022C67.5513 121.418 67.5977 121.791 67.6904 122.143C67.7832 122.49 67.9224 122.797 68.1079 123.066C68.2983 123.334 68.5352 123.547 68.8184 123.703C69.1016 123.854 69.4312 123.93 69.8071 123.93C70.1782 123.93 70.5029 123.854 70.7812 123.703C71.0645 123.547 71.2988 123.334 71.4844 123.066C71.6699 122.797 71.8091 122.49 71.9019 122.143C71.9995 121.791 72.0483 121.418 72.0483 121.022V120.854C72.0483 120.463 71.9995 120.094 71.9019 119.748C71.8091 119.396 71.6675 119.086 71.4771 118.818C71.2915 118.544 71.0571 118.329 70.7739 118.173C70.4956 118.017 70.1685 117.939 69.7925 117.939C69.4214 117.939 69.0942 118.017 68.811 118.173C68.5327 118.329 68.2983 118.544 68.1079 118.818C67.9224 119.086 67.7832 119.396 67.6904 119.748C67.5977 120.094 67.5513 120.463 67.5513 120.854ZM76.0107 116.972H77.3657L77.2485 119.938C77.2192 120.69 77.1338 121.34 76.9922 121.886C76.8506 122.433 76.6699 122.9 76.4502 123.285C76.2305 123.666 75.9839 123.986 75.7104 124.245C75.4419 124.504 75.1636 124.721 74.8755 124.897H74.2017L74.2383 123.791L74.5166 123.783C74.6777 123.593 74.834 123.398 74.9854 123.198C75.1367 122.992 75.2759 122.751 75.4028 122.472C75.5298 122.189 75.6348 121.845 75.7178 121.44C75.8057 121.03 75.8618 120.529 75.8862 119.938L76.0107 116.972ZM76.3477 116.972H81.1157V124.897H79.7607V118.224H76.3477V116.972ZM73.894 123.783H82.1338V127.233H80.7788V124.897H75.249V127.233H73.8867L73.894 123.783ZM86.8066 123.93C87.1289 123.93 87.4268 123.864 87.7002 123.732C87.9736 123.6 88.1982 123.42 88.374 123.19C88.5498 122.956 88.6499 122.69 88.6743 122.392H89.9634C89.939 122.861 89.7803 123.298 89.4873 123.703C89.1992 124.103 88.8208 124.428 88.3521 124.677C87.8833 124.921 87.3682 125.043 86.8066 125.043C86.2109 125.043 85.6909 124.938 85.2466 124.728C84.8071 124.518 84.4409 124.23 84.1479 123.864C83.8599 123.498 83.6426 123.078 83.4961 122.604C83.3545 122.126 83.2837 121.62 83.2837 121.088V120.781C83.2837 120.248 83.3545 119.745 83.4961 119.272C83.6426 118.793 83.8599 118.371 84.1479 118.005C84.4409 117.638 84.8071 117.35 85.2466 117.14C85.6909 116.93 86.2109 116.825 86.8066 116.825C87.4268 116.825 87.9688 116.952 88.4326 117.206C88.8965 117.455 89.2603 117.797 89.5239 118.232C89.7925 118.661 89.939 119.15 89.9634 119.697H88.6743C88.6499 119.369 88.5571 119.074 88.396 118.81C88.2397 118.547 88.0249 118.337 87.7515 118.18C87.4829 118.019 87.168 117.939 86.8066 117.939C86.3916 117.939 86.0425 118.022 85.7593 118.188C85.481 118.349 85.2588 118.569 85.0928 118.847C84.9316 119.12 84.8145 119.426 84.7412 119.762C84.6729 120.094 84.6387 120.434 84.6387 120.781V121.088C84.6387 121.435 84.6729 121.777 84.7412 122.114C84.8096 122.45 84.9243 122.756 85.0854 123.029C85.2515 123.302 85.4736 123.522 85.752 123.688C86.0352 123.849 86.3867 123.93 86.8066 123.93ZM92.959 116.972V124.897H91.604V116.972H92.959ZM98.1592 116.972L94.4019 121.513H92.5049L92.2998 120.326H93.8525L96.5112 116.972H98.1592ZM96.7017 124.897L93.7866 121.308L94.6582 120.326L98.4229 124.897H96.7017Z" fill="white"/>
<path d="M18.6973 160.241H20.1182V169.755H23.7803V160.241H25.1865V169.755H28.8267V160.241H30.2402V170.905H18.6973V160.241ZM35.8506 171.051C35.2988 171.051 34.7983 170.958 34.3491 170.773C33.9048 170.583 33.5215 170.316 33.1992 169.975C32.8818 169.633 32.6377 169.228 32.4668 168.759C32.2959 168.29 32.2104 167.777 32.2104 167.221V166.913C32.2104 166.269 32.3057 165.695 32.4961 165.192C32.6865 164.684 32.9453 164.254 33.2725 163.903C33.5996 163.551 33.9707 163.285 34.3857 163.104C34.8008 162.924 35.2305 162.833 35.6748 162.833C36.2412 162.833 36.7295 162.931 37.1396 163.126C37.5547 163.322 37.894 163.595 38.1577 163.947C38.4214 164.293 38.6167 164.704 38.7437 165.177C38.8706 165.646 38.9341 166.159 38.9341 166.715V167.323H33.0161V166.217H37.5791V166.115C37.5596 165.763 37.4863 165.421 37.3594 165.089C37.2373 164.757 37.042 164.484 36.7734 164.269C36.5049 164.054 36.1387 163.947 35.6748 163.947C35.3672 163.947 35.084 164.013 34.8252 164.145C34.5664 164.271 34.3442 164.462 34.1587 164.716C33.9731 164.97 33.8291 165.28 33.7266 165.646C33.624 166.012 33.5728 166.435 33.5728 166.913V167.221C33.5728 167.597 33.624 167.951 33.7266 168.283C33.834 168.61 33.9878 168.898 34.188 169.147C34.3931 169.396 34.6396 169.591 34.9277 169.733C35.2207 169.875 35.5527 169.945 35.9238 169.945C36.4023 169.945 36.8076 169.848 37.1396 169.652C37.4717 169.457 37.7622 169.196 38.0112 168.869L38.8315 169.521C38.6606 169.779 38.4434 170.026 38.1797 170.26C37.916 170.495 37.5913 170.685 37.2056 170.832C36.8247 170.978 36.373 171.051 35.8506 171.051ZM45.5991 159.53H46.7124C46.7124 160.009 46.6392 160.39 46.4927 160.673C46.3462 160.951 46.146 161.166 45.8921 161.317C45.6431 161.469 45.3599 161.583 45.0425 161.662C44.73 161.74 44.4053 161.815 44.0684 161.889C43.6484 161.977 43.2578 162.116 42.8965 162.306C42.54 162.492 42.2324 162.755 41.9736 163.097C41.7197 163.439 41.5317 163.883 41.4097 164.43C41.2925 164.977 41.2607 165.653 41.3145 166.459V167.133H40.2012V166.459C40.2012 165.556 40.2866 164.767 40.4575 164.093C40.6333 163.419 40.8799 162.851 41.1973 162.387C41.5146 161.923 41.8906 161.554 42.3252 161.281C42.7646 161.007 43.248 160.819 43.7754 160.717C44.1562 160.644 44.4834 160.565 44.7568 160.482C45.0303 160.395 45.2378 160.277 45.3794 160.131C45.5259 159.984 45.5991 159.784 45.5991 159.53ZM43.9951 163.434C44.5127 163.434 44.9741 163.524 45.3794 163.705C45.7847 163.886 46.1289 164.137 46.4121 164.459C46.6953 164.782 46.9102 165.163 47.0566 165.602C47.208 166.037 47.2837 166.51 47.2837 167.023V167.184C47.2837 167.736 47.2031 168.249 47.042 168.722C46.8857 169.191 46.6538 169.601 46.3462 169.953C46.0435 170.299 45.6724 170.57 45.2329 170.766C44.7983 170.961 44.3027 171.059 43.7461 171.059C43.1895 171.059 42.6914 170.961 42.252 170.766C41.8174 170.57 41.4463 170.299 41.1387 169.953C40.8311 169.601 40.5967 169.191 40.4355 168.722C40.2793 168.249 40.2012 167.736 40.2012 167.184V167.023C40.2012 166.901 40.2231 166.781 40.2671 166.664C40.311 166.547 40.3647 166.427 40.4282 166.305C40.4966 166.183 40.5576 166.054 40.6113 165.917C40.792 165.478 41.0386 165.07 41.3511 164.694C41.6685 164.318 42.0469 164.015 42.4863 163.786C42.9307 163.551 43.4336 163.434 43.9951 163.434ZM43.7314 164.54C43.2334 164.54 42.8232 164.655 42.501 164.884C42.1836 165.114 41.9468 165.419 41.7905 165.8C41.6343 166.176 41.5562 166.583 41.5562 167.023V167.184C41.5562 167.555 41.6001 167.907 41.688 168.239C41.7759 168.571 41.9077 168.866 42.0835 169.125C42.2642 169.379 42.4912 169.579 42.7646 169.726C43.043 169.872 43.3701 169.945 43.7461 169.945C44.1221 169.945 44.4468 169.872 44.7202 169.726C44.9937 169.579 45.2183 169.379 45.394 169.125C45.5698 168.866 45.7017 168.571 45.7896 168.239C45.8774 167.907 45.9214 167.555 45.9214 167.184V167.023C45.9214 166.691 45.8774 166.376 45.7896 166.078C45.7017 165.78 45.5674 165.517 45.3867 165.287C45.2109 165.058 44.9839 164.877 44.7056 164.745C44.4321 164.608 44.1074 164.54 43.7314 164.54ZM51.0483 170.084L53.2529 162.98H54.7031L51.5244 172.128C51.4512 172.323 51.3535 172.533 51.2314 172.758C51.1143 172.987 50.9629 173.205 50.7773 173.41C50.5918 173.615 50.3672 173.781 50.1035 173.908C49.8447 174.04 49.5347 174.105 49.1733 174.105C49.0659 174.105 48.9292 174.091 48.7632 174.062C48.5972 174.032 48.48 174.008 48.4116 173.988L48.4043 172.89C48.4434 172.895 48.5044 172.899 48.5874 172.904C48.6753 172.914 48.7363 172.919 48.7705 172.919C49.0781 172.919 49.3394 172.877 49.5542 172.794C49.769 172.716 49.9497 172.582 50.0962 172.392C50.2476 172.206 50.377 171.95 50.4844 171.623L51.0483 170.084ZM49.4297 162.98L51.4878 169.132L51.8394 170.561L50.8652 171.059L47.9502 162.98H49.4297ZM61.3022 166.415V167.514H57.1128V166.415H61.3022ZM57.3984 162.98V170.905H56.0435V162.98H57.3984ZM62.4009 162.98V170.905H61.0386V162.98H62.4009ZM66.0483 168.759L69.7031 162.98H71.0654V170.905H69.7031V165.126L66.0483 170.905H64.7007V162.98H66.0483V168.759ZM78.6167 166.415V167.514H74.4272V166.415H78.6167ZM74.7129 162.98V170.905H73.3579V162.98H74.7129ZM79.7153 162.98V170.905H78.353V162.98H79.7153ZM81.5391 167.03V166.862C81.5391 166.291 81.6221 165.761 81.7881 165.272C81.9541 164.779 82.1934 164.352 82.5059 163.991C82.8184 163.625 83.1968 163.341 83.6411 163.141C84.0854 162.936 84.5835 162.833 85.1353 162.833C85.6919 162.833 86.1924 162.936 86.6367 163.141C87.0859 163.341 87.4668 163.625 87.7793 163.991C88.0967 164.352 88.3384 164.779 88.5044 165.272C88.6704 165.761 88.7534 166.291 88.7534 166.862V167.03C88.7534 167.602 88.6704 168.131 88.5044 168.62C88.3384 169.108 88.0967 169.535 87.7793 169.901C87.4668 170.263 87.0884 170.546 86.644 170.751C86.2046 170.951 85.7065 171.051 85.1499 171.051C84.5933 171.051 84.0928 170.951 83.6484 170.751C83.2041 170.546 82.8232 170.263 82.5059 169.901C82.1934 169.535 81.9541 169.108 81.7881 168.62C81.6221 168.131 81.5391 167.602 81.5391 167.03ZM82.894 166.862V167.03C82.894 167.426 82.9404 167.799 83.0332 168.151C83.126 168.498 83.2651 168.805 83.4507 169.074C83.6411 169.342 83.8779 169.555 84.1611 169.711C84.4443 169.862 84.7739 169.938 85.1499 169.938C85.521 169.938 85.8457 169.862 86.124 169.711C86.4072 169.555 86.6416 169.342 86.8271 169.074C87.0127 168.805 87.1519 168.498 87.2446 168.151C87.3423 167.799 87.3911 167.426 87.3911 167.03V166.862C87.3911 166.471 87.3423 166.103 87.2446 165.756C87.1519 165.404 87.0103 165.094 86.8198 164.826C86.6343 164.552 86.3999 164.337 86.1167 164.181C85.8384 164.025 85.5112 163.947 85.1353 163.947C84.7642 163.947 84.437 164.025 84.1538 164.181C83.8755 164.337 83.6411 164.552 83.4507 164.826C83.2651 165.094 83.126 165.404 83.0332 165.756C82.9404 166.103 82.894 166.471 82.894 166.862Z" fill="white"/>
<path d="M90.8632 135.086L71.2258 144.905C69.7711 145.874 67.5892 147.959 70.4985 148.541" stroke="white" stroke-width="2"/>
<path d="M216.319 103.449C213.409 103.086 206.718 101.267 204.682 98.3582" stroke="#6F6F6F" stroke-width="2"/>
<path d="M412.319 27.4483L418.137 22.3573C420.319 21.0239 423.665 20.6845 419.592 29.9937C418.38 32.2967 409.992 36.3937 386.137 34.3573L373.409 43.4483L368.682 49.2666L356.682 50.3575C355.349 53.9939 350.791 59.594 343.227 52.903L323.954 64.1759L321.045 70.7214H306.863C302.863 74.479 293.772 82.2852 289.408 83.4489C283.954 84.9034 284.681 84.9034 273.408 86.7216L275.226 94.3581L271.59 113.267C273.772 114.48 276.463 116.758 269.772 116.177L266.499 121.631C258.984 124.055 242.28 131.595 235.589 142.359C234.498 143.813 232.098 147.304 231.226 149.632L193.771 148.904C192.558 146.48 190.134 143.231 190.134 149.632C182.498 153.147 163.079 160.032 146.497 159.45M146.497 159.45C143.952 153.632 136.679 147.813 123.951 143.086C124.194 137.753 123.151 125.849 117.042 120.904L115.588 118.722L91.951 134.359L90.1328 135.45L90.4965 143.086M146.497 159.45L157.043 136.177C159.346 135.813 159.225 131.086 159.588 131.086L170.134 128.54C170.619 129.025 171.661 127.013 171.952 115.086" stroke="#FF6C01" stroke-width="2"/>
<path d="M412.32 27.4483L418.138 22.3573C420.32 21.0239 423.665 20.6845 419.593 29.9937M373.41 43.4483L368.683 49.2666L356.683 50.3575C355.349 53.9939 350.792 59.594 343.228 52.903L323.955 64.1759L321.046 70.7214H306.864C302.864 74.479 293.773 82.2852 289.409 83.4488C283.954 84.9034 284.682 84.9034 273.409 86.7216M273.409 86.7216L275.227 94.3581L271.591 113.267M273.409 86.7216C267.348 86.7216 253.19 85.558 245.045 80.9034C236.899 76.2487 222.378 99.3279 213.044 106.722C205.044 112.783 181.117 115.231 174.135 114.358" stroke="white" stroke-width="2"/>
<circle cx="411.957" cy="26.3574" r="4" fill="white"/>
<circle cx="172.684" cy="115.086" r="4" fill="#FF6C01"/>
<circle cx="204.682" cy="97.6313" r="4" fill="#6F6F6F"/>
<circle cx="115.229" cy="119.45" r="4" fill="#FF6C01"/>
<circle cx="91.2246" cy="144.177" r="4" fill="#FF6C01"/>
<circle cx="72.3184" cy="150.722" r="4" fill="white"/>
<circle cx="273.047" cy="85.9944" r="4" fill="white"/>
<circle cx="234.5" cy="83.0852" r="4" fill="white"/>
<circle cx="184.318" cy="150.722" r="4" fill="#FF6C01"/>
</svg>
