<svg width="756" height="405" viewBox="0 0 756 405" fill="none" xmlns="http://www.w3.org/2000/svg">
<g clip-path="url(#clip0_1024_200209)">
<circle cx="749.168" cy="39.375" r="6" fill="white"/>
<circle cx="455.668" cy="146.875" r="5.5" fill="white"/>
<circle cx="87.668" cy="361.875" r="5.5" fill="#FF6C01"/>
<circle cx="235.668" cy="295.875" r="5.5" fill="#FF6C01"/>
<circle cx="193.668" cy="306.875" r="5.5" fill="#FF6C01"/>
<circle cx="179.668" cy="311.875" r="5.5" fill="#FF6C01"/>
<circle cx="165.668" cy="319.875" r="5.5" fill="#FF6C01"/>
<circle cx="149.668" cy="330.875" r="5.5" fill="#FF6C01"/>
<path d="M749.168 38.875C743.835 46.875 732.268 63.075 728.668 63.875C725.068 64.675 716.168 66.2083 712.168 66.875C702.668 73.5417 682.068 88.375 675.668 94.375C667.668 101.875 670.668 117.375 601.668 129.375L577.168 139.875L515.668 147.875L476.668 158.875C478.001 163.708 478.168 171.575 468.168 164.375C466.591 163.114 463.485 162.106 459.168 163.003M87.668 361.875C104.868 365.475 121.168 356.708 127.168 351.875C143.835 333.875 189.368 297.475 238.168 295.875C286.968 294.275 290.835 291.542 286.668 290.375C292.268 281.575 301.668 279.375 305.668 279.375L326.668 285.375L331.668 283.375L336.668 263.875L361.168 246.875C379.668 188.375 423.168 194.375 440.668 175.375C448.045 167.365 454.358 164.002 459.168 163.003M459.168 163.003L448.168 156.375C446.668 154.208 445.768 149.475 454.168 147.875" stroke="white" stroke-width="3"/>
<path d="M468.168 164.375C466.591 163.114 463.485 162.106 459.168 163.003C454.358 164.002 448.045 167.365 440.668 175.375C423.168 194.375 379.668 188.375 361.168 246.875L336.668 263.875L331.668 283.375L326.668 285.375L305.668 279.375C301.668 279.375 292.268 281.575 286.668 290.375C290.835 291.542 286.968 294.275 238.168 295.875C189.368 297.475 143.835 333.875 127.168 351.875C121.168 356.708 104.868 365.475 87.668 361.875" stroke="#FF6C01" stroke-width="3"/>
<path d="M336.668 263.875L361.168 246.875C365.663 232.662 371.633 222.257 378.347 214.375M87.668 361.875C104.868 365.475 121.168 356.708 127.168 351.875C133.722 344.796 144.741 334.872 158.668 325.337" stroke="#FF6C01" stroke-width="3"/>
<circle cx="339.668" cy="261.875" r="5.5" fill="#FF6C01"/>
<circle cx="468.5" cy="163.5" r="5.5" fill="#FF6C01"/>
<path d="M3.47266 387.578V400.375H1.77637V387.578H3.47266ZM6.4082 393.44V394.776H3.36719V393.44H6.4082ZM15.5928 393.572V394.381C15.5928 395.342 15.4727 396.203 15.2324 396.965C14.9922 397.727 14.6465 398.374 14.1953 398.907C13.7441 399.44 13.2021 399.848 12.5693 400.129C11.9424 400.41 11.2393 400.551 10.46 400.551C9.7041 400.551 9.00977 400.41 8.37695 400.129C7.75 399.848 7.20508 399.44 6.74219 398.907C6.28516 398.374 5.93066 397.727 5.67871 396.965C5.42676 396.203 5.30078 395.342 5.30078 394.381V393.572C5.30078 392.611 5.42383 391.753 5.66992 390.997C5.92188 390.235 6.27637 389.588 6.7334 389.055C7.19043 388.516 7.73242 388.105 8.35938 387.824C8.99219 387.543 9.68652 387.402 10.4424 387.402C11.2217 387.402 11.9248 387.543 12.5518 387.824C13.1846 388.105 13.7266 388.516 14.1777 389.055C14.6348 389.588 14.9834 390.235 15.2236 390.997C15.4697 391.753 15.5928 392.611 15.5928 393.572ZM13.9141 394.381V393.555C13.9141 392.793 13.835 392.119 13.6768 391.533C13.5244 390.947 13.2988 390.455 13 390.057C12.7012 389.658 12.335 389.356 11.9014 389.151C11.4736 388.946 10.9873 388.844 10.4424 388.844C9.91504 388.844 9.4375 388.946 9.00977 389.151C8.58789 389.356 8.22461 389.658 7.91992 390.057C7.62109 390.455 7.38965 390.947 7.22559 391.533C7.06152 392.119 6.97949 392.793 6.97949 393.555V394.381C6.97949 395.148 7.06152 395.828 7.22559 396.42C7.38965 397.006 7.62402 397.501 7.92871 397.905C8.23926 398.304 8.60547 398.605 9.02734 398.811C9.45508 399.016 9.93262 399.118 10.46 399.118C11.0107 399.118 11.5 399.016 11.9277 398.811C12.3555 398.605 12.7158 398.304 13.0088 397.905C13.3076 397.501 13.5332 397.006 13.6855 396.42C13.8379 395.828 13.9141 395.148 13.9141 394.381ZM20.3916 396.235L16.7881 390.865H18.748L21.209 394.803H23.1074L22.8701 396.235H20.3916ZM21.2793 396.068L18.5195 400.375H16.4629L20.251 394.891L21.2793 396.068ZM23.9424 390.865V400.375H22.3164V390.865H23.9424ZM29.4883 390.865L25.8848 396.235H23.4062L23.1514 394.803H25.0586L27.5195 390.865H29.4883ZM27.748 400.375L24.9795 396.068L26.0254 394.891L29.8047 400.375H27.748ZM37.7588 394.987V396.306H32.7314V394.987H37.7588ZM33.0742 390.865V400.375H31.4482V390.865H33.0742ZM39.0771 390.865V400.375H37.4424V390.865H39.0771ZM41.2656 395.726V395.523C41.2656 394.838 41.3652 394.202 41.5645 393.616C41.7637 393.024 42.0508 392.512 42.4258 392.078C42.8008 391.639 43.2549 391.299 43.7881 391.059C44.3213 390.812 44.9189 390.689 45.5811 390.689C46.249 390.689 46.8496 390.812 47.3828 391.059C47.9219 391.299 48.3789 391.639 48.7539 392.078C49.1348 392.512 49.4248 393.024 49.624 393.616C49.8232 394.202 49.9229 394.838 49.9229 395.523V395.726C49.9229 396.411 49.8232 397.047 49.624 397.633C49.4248 398.219 49.1348 398.731 48.7539 399.171C48.3789 399.604 47.9248 399.944 47.3916 400.19C46.8643 400.431 46.2666 400.551 45.5986 400.551C44.9307 400.551 44.3301 400.431 43.7969 400.19C43.2637 399.944 42.8066 399.604 42.4258 399.171C42.0508 398.731 41.7637 398.219 41.5645 397.633C41.3652 397.047 41.2656 396.411 41.2656 395.726ZM42.8916 395.523V395.726C42.8916 396.2 42.9473 396.648 43.0586 397.07C43.1699 397.486 43.3369 397.855 43.5596 398.178C43.7881 398.5 44.0723 398.755 44.4121 398.942C44.752 399.124 45.1475 399.215 45.5986 399.215C46.0439 399.215 46.4336 399.124 46.7676 398.942C47.1074 398.755 47.3887 398.5 47.6113 398.178C47.834 397.855 48.001 397.486 48.1123 397.07C48.2295 396.648 48.2881 396.2 48.2881 395.726V395.523C48.2881 395.055 48.2295 394.612 48.1123 394.196C48.001 393.774 47.8311 393.402 47.6025 393.08C47.3799 392.752 47.0986 392.494 46.7588 392.307C46.4248 392.119 46.0322 392.025 45.5811 392.025C45.1357 392.025 44.7432 392.119 44.4033 392.307C44.0693 392.494 43.7881 392.752 43.5596 393.08C43.3369 393.402 43.1699 393.774 43.0586 394.196C42.9473 394.612 42.8916 395.055 42.8916 395.523ZM55.3457 394.267V395.603H51.0566V394.267H55.3457ZM64.9082 396.306H66.5957C66.5078 397.114 66.2764 397.838 65.9014 398.477C65.5264 399.115 64.9961 399.622 64.3105 399.997C63.625 400.366 62.7695 400.551 61.7441 400.551C60.9941 400.551 60.3115 400.41 59.6963 400.129C59.0869 399.848 58.5625 399.449 58.123 398.934C57.6836 398.412 57.3438 397.788 57.1035 397.062C56.8691 396.329 56.752 395.515 56.752 394.618V393.344C56.752 392.447 56.8691 391.636 57.1035 390.909C57.3438 390.177 57.6865 389.55 58.1318 389.028C58.583 388.507 59.125 388.105 59.7578 387.824C60.3906 387.543 61.1025 387.402 61.8936 387.402C62.8604 387.402 63.6777 387.584 64.3457 387.947C65.0137 388.311 65.5322 388.814 65.9014 389.459C66.2764 390.098 66.5078 390.839 66.5957 391.683H64.9082C64.8262 391.085 64.6738 390.572 64.4512 390.145C64.2285 389.711 63.9121 389.377 63.502 389.143C63.0918 388.908 62.5557 388.791 61.8936 388.791C61.3252 388.791 60.8242 388.899 60.3906 389.116C59.9629 389.333 59.6025 389.641 59.3096 390.039C59.0225 390.438 58.8057 390.915 58.6592 391.472C58.5127 392.028 58.4395 392.646 58.4395 393.326V394.618C58.4395 395.245 58.5039 395.834 58.6328 396.385C58.7676 396.936 58.9697 397.419 59.2393 397.835C59.5088 398.251 59.8516 398.579 60.2676 398.819C60.6836 399.054 61.1758 399.171 61.7441 399.171C62.4648 399.171 63.0391 399.057 63.4668 398.828C63.8945 398.6 64.2168 398.271 64.4336 397.844C64.6562 397.416 64.8145 396.903 64.9082 396.306ZM74.2686 398.749V393.854C74.2686 393.479 74.1924 393.153 74.04 392.878C73.8936 392.597 73.6709 392.38 73.3721 392.228C73.0732 392.075 72.7041 391.999 72.2646 391.999C71.8545 391.999 71.4941 392.069 71.1836 392.21C70.8789 392.351 70.6387 392.535 70.4629 392.764C70.293 392.992 70.208 393.238 70.208 393.502H68.582C68.582 393.162 68.6699 392.825 68.8457 392.491C69.0215 392.157 69.2734 391.855 69.6016 391.586C69.9355 391.311 70.334 391.094 70.7969 390.936C71.2656 390.771 71.7871 390.689 72.3613 390.689C73.0527 390.689 73.6621 390.807 74.1895 391.041C74.7227 391.275 75.1387 391.63 75.4375 392.104C75.7422 392.573 75.8945 393.162 75.8945 393.871V398.301C75.8945 398.617 75.9209 398.954 75.9736 399.312C76.0322 399.669 76.1172 399.977 76.2285 400.234V400.375H74.5322C74.4502 400.188 74.3857 399.938 74.3389 399.628C74.292 399.312 74.2686 399.019 74.2686 398.749ZM74.5498 394.609L74.5674 395.752H72.9238C72.4609 395.752 72.0479 395.79 71.6846 395.866C71.3213 395.937 71.0166 396.045 70.7705 396.191C70.5244 396.338 70.3369 396.522 70.208 396.745C70.0791 396.962 70.0146 397.217 70.0146 397.51C70.0146 397.809 70.082 398.081 70.2168 398.327C70.3516 398.573 70.5537 398.77 70.8232 398.916C71.0986 399.057 71.4355 399.127 71.834 399.127C72.332 399.127 72.7715 399.021 73.1523 398.811C73.5332 398.6 73.835 398.342 74.0576 398.037C74.2861 397.732 74.4092 397.437 74.4268 397.149L75.1211 397.932C75.0801 398.178 74.9688 398.45 74.7871 398.749C74.6055 399.048 74.3623 399.335 74.0576 399.61C73.7588 399.88 73.4014 400.105 72.9854 400.287C72.5752 400.463 72.1123 400.551 71.5967 400.551C70.9521 400.551 70.3867 400.425 69.9004 400.173C69.4199 399.921 69.0449 399.584 68.7754 399.162C68.5117 398.734 68.3799 398.257 68.3799 397.729C68.3799 397.22 68.4795 396.771 68.6787 396.385C68.8779 395.992 69.165 395.667 69.54 395.409C69.915 395.146 70.3662 394.946 70.8936 394.812C71.4209 394.677 72.0098 394.609 72.6602 394.609H74.5498ZM79.5508 390.865L81.6338 394.328L83.7432 390.865H85.6504L82.5391 395.559L85.7471 400.375H83.8662L81.6689 396.807L79.4717 400.375H77.582L80.7812 395.559L77.6787 390.865H79.5508ZM92.9893 398.749V393.854C92.9893 393.479 92.9131 393.153 92.7607 392.878C92.6143 392.597 92.3916 392.38 92.0928 392.228C91.7939 392.075 91.4248 391.999 90.9854 391.999C90.5752 391.999 90.2148 392.069 89.9043 392.21C89.5996 392.351 89.3594 392.535 89.1836 392.764C89.0137 392.992 88.9287 393.238 88.9287 393.502H87.3027C87.3027 393.162 87.3906 392.825 87.5664 392.491C87.7422 392.157 87.9941 391.855 88.3223 391.586C88.6562 391.311 89.0547 391.094 89.5176 390.936C89.9863 390.771 90.5078 390.689 91.082 390.689C91.7734 390.689 92.3828 390.807 92.9102 391.041C93.4434 391.275 93.8594 391.63 94.1582 392.104C94.4629 392.573 94.6152 393.162 94.6152 393.871V398.301C94.6152 398.617 94.6416 398.954 94.6943 399.312C94.7529 399.669 94.8379 399.977 94.9492 400.234V400.375H93.2529C93.1709 400.188 93.1064 399.938 93.0596 399.628C93.0127 399.312 92.9893 399.019 92.9893 398.749ZM93.2705 394.609L93.2881 395.752H91.6445C91.1816 395.752 90.7686 395.79 90.4053 395.866C90.042 395.937 89.7373 396.045 89.4912 396.191C89.2451 396.338 89.0576 396.522 88.9287 396.745C88.7998 396.962 88.7354 397.217 88.7354 397.51C88.7354 397.809 88.8027 398.081 88.9375 398.327C89.0723 398.573 89.2744 398.77 89.5439 398.916C89.8193 399.057 90.1562 399.127 90.5547 399.127C91.0527 399.127 91.4922 399.021 91.873 398.811C92.2539 398.6 92.5557 398.342 92.7783 398.037C93.0068 397.732 93.1299 397.437 93.1475 397.149L93.8418 397.932C93.8008 398.178 93.6895 398.45 93.5078 398.749C93.3262 399.048 93.083 399.335 92.7783 399.61C92.4795 399.88 92.1221 400.105 91.7061 400.287C91.2959 400.463 90.833 400.551 90.3174 400.551C89.6729 400.551 89.1074 400.425 88.6211 400.173C88.1406 399.921 87.7656 399.584 87.4961 399.162C87.2324 398.734 87.1006 398.257 87.1006 397.729C87.1006 397.22 87.2002 396.771 87.3994 396.385C87.5986 395.992 87.8857 395.667 88.2607 395.409C88.6357 395.146 89.0869 394.946 89.6143 394.812C90.1416 394.677 90.7305 394.609 91.3809 394.609H93.2705ZM103.527 390.865V392.21H98.9307V390.865H103.527ZM104.96 390.865V400.375H103.334V390.865H104.96ZM98.5352 390.865H100.17L99.9238 395.453C99.8828 396.162 99.8154 396.789 99.7217 397.334C99.6338 397.873 99.5107 398.336 99.3525 398.723C99.2002 399.109 99.0068 399.426 98.7725 399.672C98.5439 399.912 98.2686 400.091 97.9463 400.208C97.624 400.319 97.252 400.375 96.8301 400.375H96.3203V398.942L96.6719 398.916C96.9238 398.898 97.1377 398.84 97.3135 398.74C97.4951 398.641 97.6475 398.494 97.7705 398.301C97.8936 398.102 97.9932 397.847 98.0693 397.536C98.1514 397.226 98.2129 396.856 98.2539 396.429C98.3008 396.001 98.3359 395.503 98.3594 394.935L98.5352 390.865ZM109.337 397.8L113.723 390.865H115.357V400.375H113.723V393.44L109.337 400.375H107.72V390.865H109.337V397.8ZM124.419 394.987V396.306H119.392V394.987H124.419ZM119.734 390.865V400.375H118.108V390.865H119.734ZM125.737 390.865V400.375H124.103V390.865H125.737ZM132.162 399.215C132.549 399.215 132.906 399.136 133.234 398.978C133.562 398.819 133.832 398.603 134.043 398.327C134.254 398.046 134.374 397.727 134.403 397.369H135.95C135.921 397.932 135.73 398.456 135.379 398.942C135.033 399.423 134.579 399.812 134.017 400.111C133.454 400.404 132.836 400.551 132.162 400.551C131.447 400.551 130.823 400.425 130.29 400.173C129.763 399.921 129.323 399.575 128.972 399.136C128.626 398.696 128.365 398.192 128.189 397.624C128.02 397.05 127.935 396.443 127.935 395.805V395.436C127.935 394.797 128.02 394.193 128.189 393.625C128.365 393.051 128.626 392.544 128.972 392.104C129.323 391.665 129.763 391.319 130.29 391.067C130.823 390.815 131.447 390.689 132.162 390.689C132.906 390.689 133.557 390.842 134.113 391.146C134.67 391.445 135.106 391.855 135.423 392.377C135.745 392.893 135.921 393.479 135.95 394.135H134.403C134.374 393.742 134.263 393.388 134.069 393.071C133.882 392.755 133.624 392.503 133.296 392.315C132.974 392.122 132.596 392.025 132.162 392.025C131.664 392.025 131.245 392.125 130.905 392.324C130.571 392.518 130.305 392.781 130.105 393.115C129.912 393.443 129.771 393.81 129.684 394.214C129.602 394.612 129.561 395.02 129.561 395.436V395.805C129.561 396.221 129.602 396.631 129.684 397.035C129.766 397.439 129.903 397.806 130.097 398.134C130.296 398.462 130.562 398.726 130.896 398.925C131.236 399.118 131.658 399.215 132.162 399.215ZM139.545 390.865V400.375H137.919V390.865H139.545ZM145.785 390.865L141.276 396.314H139L138.754 394.891H140.617L143.808 390.865H145.785ZM144.036 400.375L140.538 396.068L141.584 394.891L146.102 400.375H144.036Z" fill="white"/>
<path d="M387.379 121.306H389.066C388.979 122.114 388.747 122.838 388.372 123.477C387.997 124.115 387.467 124.622 386.781 124.997C386.096 125.366 385.24 125.551 384.215 125.551C383.465 125.551 382.782 125.41 382.167 125.129C381.558 124.848 381.033 124.449 380.594 123.934C380.154 123.412 379.814 122.788 379.574 122.062C379.34 121.329 379.223 120.515 379.223 119.618V118.344C379.223 117.447 379.34 116.636 379.574 115.909C379.814 115.177 380.157 114.55 380.603 114.028C381.054 113.507 381.596 113.105 382.229 112.824C382.861 112.543 383.573 112.402 384.364 112.402C385.331 112.402 386.148 112.584 386.816 112.947C387.484 113.311 388.003 113.814 388.372 114.459C388.747 115.098 388.979 115.839 389.066 116.683H387.379C387.297 116.085 387.145 115.572 386.922 115.145C386.699 114.711 386.383 114.377 385.973 114.143C385.562 113.908 385.026 113.791 384.364 113.791C383.796 113.791 383.295 113.899 382.861 114.116C382.434 114.333 382.073 114.641 381.78 115.039C381.493 115.438 381.276 115.915 381.13 116.472C380.983 117.028 380.91 117.646 380.91 118.326V119.618C380.91 120.245 380.975 120.834 381.104 121.385C381.238 121.936 381.44 122.419 381.71 122.835C381.979 123.251 382.322 123.579 382.738 123.819C383.154 124.054 383.646 124.171 384.215 124.171C384.936 124.171 385.51 124.057 385.938 123.828C386.365 123.6 386.688 123.271 386.904 122.844C387.127 122.416 387.285 121.903 387.379 121.306ZM392.898 115.865V125.375H391.272V115.865H392.898ZM399.139 115.865L394.63 121.314H392.354L392.107 119.891H393.971L397.161 115.865H399.139ZM397.39 125.375L393.892 121.068L394.938 119.891L399.455 125.375H397.39ZM406.478 123.749V118.854C406.478 118.479 406.401 118.153 406.249 117.878C406.103 117.597 405.88 117.38 405.581 117.228C405.282 117.075 404.913 116.999 404.474 116.999C404.063 116.999 403.703 117.069 403.393 117.21C403.088 117.351 402.848 117.535 402.672 117.764C402.502 117.992 402.417 118.238 402.417 118.502H400.791C400.791 118.162 400.879 117.825 401.055 117.491C401.23 117.157 401.482 116.855 401.811 116.586C402.145 116.311 402.543 116.094 403.006 115.936C403.475 115.771 403.996 115.689 404.57 115.689C405.262 115.689 405.871 115.807 406.398 116.041C406.932 116.275 407.348 116.63 407.646 117.104C407.951 117.573 408.104 118.162 408.104 118.871V123.301C408.104 123.617 408.13 123.954 408.183 124.312C408.241 124.669 408.326 124.977 408.438 125.234V125.375H406.741C406.659 125.188 406.595 124.938 406.548 124.628C406.501 124.312 406.478 124.019 406.478 123.749ZM406.759 119.609L406.776 120.752H405.133C404.67 120.752 404.257 120.79 403.894 120.866C403.53 120.937 403.226 121.045 402.979 121.191C402.733 121.338 402.546 121.522 402.417 121.745C402.288 121.962 402.224 122.217 402.224 122.51C402.224 122.809 402.291 123.081 402.426 123.327C402.561 123.573 402.763 123.77 403.032 123.916C403.308 124.057 403.645 124.127 404.043 124.127C404.541 124.127 404.98 124.021 405.361 123.811C405.742 123.6 406.044 123.342 406.267 123.037C406.495 122.732 406.618 122.437 406.636 122.149L407.33 122.932C407.289 123.178 407.178 123.45 406.996 123.749C406.814 124.048 406.571 124.335 406.267 124.61C405.968 124.88 405.61 125.105 405.194 125.287C404.784 125.463 404.321 125.551 403.806 125.551C403.161 125.551 402.596 125.425 402.109 125.173C401.629 124.921 401.254 124.584 400.984 124.162C400.721 123.734 400.589 123.257 400.589 122.729C400.589 122.22 400.688 121.771 400.888 121.385C401.087 120.992 401.374 120.667 401.749 120.409C402.124 120.146 402.575 119.946 403.103 119.812C403.63 119.677 404.219 119.609 404.869 119.609H406.759ZM417.016 115.865V117.21H412.419V115.865H417.016ZM418.448 115.865V125.375H416.822V115.865H418.448ZM412.023 115.865H413.658L413.412 120.453C413.371 121.162 413.304 121.789 413.21 122.334C413.122 122.873 412.999 123.336 412.841 123.723C412.688 124.109 412.495 124.426 412.261 124.672C412.032 124.912 411.757 125.091 411.435 125.208C411.112 125.319 410.74 125.375 410.318 125.375H409.809V123.942L410.16 123.916C410.412 123.898 410.626 123.84 410.802 123.74C410.983 123.641 411.136 123.494 411.259 123.301C411.382 123.102 411.481 122.847 411.558 122.536C411.64 122.226 411.701 121.856 411.742 121.429C411.789 121.001 411.824 120.503 411.848 119.935L412.023 115.865ZM422.403 119.135H425.26C426.027 119.135 426.675 119.27 427.202 119.539C427.729 119.803 428.128 120.169 428.397 120.638C428.673 121.101 428.811 121.628 428.811 122.22C428.811 122.659 428.734 123.072 428.582 123.459C428.43 123.84 428.201 124.174 427.896 124.461C427.598 124.748 427.226 124.974 426.78 125.138C426.341 125.296 425.834 125.375 425.26 125.375H421.217V115.865H422.843V124.039H425.26C425.729 124.039 426.104 123.954 426.385 123.784C426.666 123.614 426.868 123.395 426.991 123.125C427.114 122.855 427.176 122.574 427.176 122.281C427.176 121.994 427.114 121.713 426.991 121.438C426.868 121.162 426.666 120.934 426.385 120.752C426.104 120.564 425.729 120.471 425.26 120.471H422.403V119.135ZM432.194 115.865V125.375H430.568V115.865H432.194ZM444.13 112.578V125.375H442.46V112.578H444.13ZM448.243 112.578V113.967H438.355V112.578H448.243ZM450.555 117.693V129.031H448.92V115.865H450.414L450.555 117.693ZM456.962 120.541V120.726C456.962 121.417 456.88 122.059 456.716 122.65C456.552 123.236 456.312 123.746 455.995 124.18C455.685 124.613 455.301 124.95 454.844 125.19C454.387 125.431 453.862 125.551 453.271 125.551C452.667 125.551 452.134 125.451 451.671 125.252C451.208 125.053 450.815 124.763 450.493 124.382C450.171 124.001 449.913 123.544 449.72 123.011C449.532 122.478 449.403 121.877 449.333 121.209V120.225C449.403 119.521 449.535 118.892 449.729 118.335C449.922 117.778 450.177 117.304 450.493 116.911C450.815 116.513 451.205 116.211 451.662 116.006C452.119 115.795 452.646 115.689 453.244 115.689C453.842 115.689 454.372 115.807 454.835 116.041C455.298 116.27 455.688 116.598 456.004 117.025C456.32 117.453 456.558 117.966 456.716 118.563C456.88 119.155 456.962 119.814 456.962 120.541ZM455.327 120.726V120.541C455.327 120.066 455.277 119.621 455.178 119.205C455.078 118.783 454.923 118.414 454.712 118.098C454.507 117.775 454.243 117.523 453.921 117.342C453.599 117.154 453.215 117.061 452.77 117.061C452.359 117.061 452.002 117.131 451.697 117.271C451.398 117.412 451.144 117.603 450.933 117.843C450.722 118.077 450.549 118.347 450.414 118.651C450.285 118.95 450.188 119.261 450.124 119.583V121.859C450.241 122.27 450.405 122.656 450.616 123.02C450.827 123.377 451.108 123.667 451.46 123.89C451.812 124.106 452.254 124.215 452.787 124.215C453.227 124.215 453.604 124.124 453.921 123.942C454.243 123.755 454.507 123.5 454.712 123.178C454.923 122.855 455.078 122.486 455.178 122.07C455.277 121.648 455.327 121.2 455.327 120.726ZM460.794 122.8L465.18 115.865H466.814V125.375H465.18V118.44L460.794 125.375H459.177V115.865H460.794V122.8ZM479.989 111.726H481.325C481.325 112.3 481.237 112.757 481.062 113.097C480.886 113.431 480.646 113.688 480.341 113.87C480.042 114.052 479.702 114.189 479.321 114.283C478.946 114.377 478.557 114.468 478.152 114.556C477.648 114.661 477.18 114.828 476.746 115.057C476.318 115.279 475.949 115.596 475.639 116.006C475.334 116.416 475.108 116.949 474.962 117.605C474.821 118.262 474.783 119.073 474.848 120.04V120.849H473.512V120.04C473.512 118.956 473.614 118.01 473.819 117.201C474.03 116.393 474.326 115.71 474.707 115.153C475.088 114.597 475.539 114.154 476.061 113.826C476.588 113.498 477.168 113.272 477.801 113.149C478.258 113.062 478.65 112.968 478.979 112.868C479.307 112.763 479.556 112.622 479.726 112.446C479.901 112.271 479.989 112.03 479.989 111.726ZM478.064 116.41C478.686 116.41 479.239 116.519 479.726 116.735C480.212 116.952 480.625 117.254 480.965 117.641C481.305 118.027 481.562 118.484 481.738 119.012C481.92 119.533 482.011 120.102 482.011 120.717V120.91C482.011 121.572 481.914 122.188 481.721 122.756C481.533 123.318 481.255 123.811 480.886 124.232C480.522 124.648 480.077 124.974 479.55 125.208C479.028 125.442 478.434 125.56 477.766 125.56C477.098 125.56 476.5 125.442 475.973 125.208C475.451 124.974 475.006 124.648 474.637 124.232C474.268 123.811 473.986 123.318 473.793 122.756C473.605 122.188 473.512 121.572 473.512 120.91V120.717C473.512 120.57 473.538 120.427 473.591 120.286C473.644 120.146 473.708 120.002 473.784 119.855C473.866 119.709 473.939 119.554 474.004 119.39C474.221 118.862 474.517 118.373 474.892 117.922C475.272 117.471 475.727 117.107 476.254 116.832C476.787 116.551 477.391 116.41 478.064 116.41ZM477.748 117.737C477.15 117.737 476.658 117.875 476.271 118.15C475.891 118.426 475.606 118.792 475.419 119.249C475.231 119.7 475.138 120.189 475.138 120.717V120.91C475.138 121.355 475.19 121.777 475.296 122.176C475.401 122.574 475.56 122.929 475.771 123.239C475.987 123.544 476.26 123.784 476.588 123.96C476.922 124.136 477.314 124.224 477.766 124.224C478.217 124.224 478.606 124.136 478.935 123.96C479.263 123.784 479.532 123.544 479.743 123.239C479.954 122.929 480.112 122.574 480.218 122.176C480.323 121.777 480.376 121.355 480.376 120.91V120.717C480.376 120.318 480.323 119.94 480.218 119.583C480.112 119.226 479.951 118.909 479.734 118.634C479.523 118.358 479.251 118.142 478.917 117.983C478.589 117.819 478.199 117.737 477.748 117.737ZM485.324 117.693V129.031H483.689V115.865H485.184L485.324 117.693ZM491.731 120.541V120.726C491.731 121.417 491.649 122.059 491.485 122.65C491.321 123.236 491.081 123.746 490.765 124.18C490.454 124.613 490.07 124.95 489.613 125.19C489.156 125.431 488.632 125.551 488.04 125.551C487.437 125.551 486.903 125.451 486.44 125.252C485.978 125.053 485.585 124.763 485.263 124.382C484.94 124.001 484.683 123.544 484.489 123.011C484.302 122.478 484.173 121.877 484.103 121.209V120.225C484.173 119.521 484.305 118.892 484.498 118.335C484.691 117.778 484.946 117.304 485.263 116.911C485.585 116.513 485.975 116.211 486.432 116.006C486.889 115.795 487.416 115.689 488.014 115.689C488.611 115.689 489.142 115.807 489.604 116.041C490.067 116.27 490.457 116.598 490.773 117.025C491.09 117.453 491.327 117.966 491.485 118.563C491.649 119.155 491.731 119.814 491.731 120.541ZM490.097 120.726V120.541C490.097 120.066 490.047 119.621 489.947 119.205C489.848 118.783 489.692 118.414 489.481 118.098C489.276 117.775 489.013 117.523 488.69 117.342C488.368 117.154 487.984 117.061 487.539 117.061C487.129 117.061 486.771 117.131 486.467 117.271C486.168 117.412 485.913 117.603 485.702 117.843C485.491 118.077 485.318 118.347 485.184 118.651C485.055 118.95 484.958 119.261 484.894 119.583V121.859C485.011 122.27 485.175 122.656 485.386 123.02C485.597 123.377 485.878 123.667 486.229 123.89C486.581 124.106 487.023 124.215 487.557 124.215C487.996 124.215 488.374 124.124 488.69 123.942C489.013 123.755 489.276 123.5 489.481 123.178C489.692 122.855 489.848 122.486 489.947 122.07C490.047 121.648 490.097 121.2 490.097 120.726ZM499.413 123.749V118.854C499.413 118.479 499.337 118.153 499.185 117.878C499.038 117.597 498.815 117.38 498.517 117.228C498.218 117.075 497.849 116.999 497.409 116.999C496.999 116.999 496.639 117.069 496.328 117.21C496.023 117.351 495.783 117.535 495.607 117.764C495.438 117.992 495.353 118.238 495.353 118.502H493.727C493.727 118.162 493.814 117.825 493.99 117.491C494.166 117.157 494.418 116.855 494.746 116.586C495.08 116.311 495.479 116.094 495.941 115.936C496.41 115.771 496.932 115.689 497.506 115.689C498.197 115.689 498.807 115.807 499.334 116.041C499.867 116.275 500.283 116.63 500.582 117.104C500.887 117.573 501.039 118.162 501.039 118.871V123.301C501.039 123.617 501.065 123.954 501.118 124.312C501.177 124.669 501.262 124.977 501.373 125.234V125.375H499.677C499.595 125.188 499.53 124.938 499.483 124.628C499.437 124.312 499.413 124.019 499.413 123.749ZM499.694 119.609L499.712 120.752H498.068C497.605 120.752 497.192 120.79 496.829 120.866C496.466 120.937 496.161 121.045 495.915 121.191C495.669 121.338 495.481 121.522 495.353 121.745C495.224 121.962 495.159 122.217 495.159 122.51C495.159 122.809 495.227 123.081 495.361 123.327C495.496 123.573 495.698 123.77 495.968 123.916C496.243 124.057 496.58 124.127 496.979 124.127C497.477 124.127 497.916 124.021 498.297 123.811C498.678 123.6 498.979 123.342 499.202 123.037C499.431 122.732 499.554 122.437 499.571 122.149L500.266 122.932C500.225 123.178 500.113 123.45 499.932 123.749C499.75 124.048 499.507 124.335 499.202 124.61C498.903 124.88 498.546 125.105 498.13 125.287C497.72 125.463 497.257 125.551 496.741 125.551C496.097 125.551 495.531 125.425 495.045 125.173C494.564 124.921 494.189 124.584 493.92 124.162C493.656 123.734 493.524 123.257 493.524 122.729C493.524 122.22 493.624 121.771 493.823 121.385C494.022 120.992 494.31 120.667 494.685 120.409C495.06 120.146 495.511 119.946 496.038 119.812C496.565 119.677 497.154 119.609 497.805 119.609H499.694ZM507.332 115.865V125.375H505.697V115.865H507.332ZM510.522 115.865V117.184H502.568V115.865H510.522ZM517.589 123.749V118.854C517.589 118.479 517.513 118.153 517.36 117.878C517.214 117.597 516.991 117.38 516.692 117.228C516.394 117.075 516.024 116.999 515.585 116.999C515.175 116.999 514.814 117.069 514.504 117.21C514.199 117.351 513.959 117.535 513.783 117.764C513.613 117.992 513.528 118.238 513.528 118.502H511.902C511.902 118.162 511.99 117.825 512.166 117.491C512.342 117.157 512.594 116.855 512.922 116.586C513.256 116.311 513.654 116.094 514.117 115.936C514.586 115.771 515.107 115.689 515.682 115.689C516.373 115.689 516.982 115.807 517.51 116.041C518.043 116.275 518.459 116.63 518.758 117.104C519.062 117.573 519.215 118.162 519.215 118.871V123.301C519.215 123.617 519.241 123.954 519.294 124.312C519.353 124.669 519.438 124.977 519.549 125.234V125.375H517.853C517.771 125.188 517.706 124.938 517.659 124.628C517.612 124.312 517.589 124.019 517.589 123.749ZM517.87 119.609L517.888 120.752H516.244C515.781 120.752 515.368 120.79 515.005 120.866C514.642 120.937 514.337 121.045 514.091 121.191C513.845 121.338 513.657 121.522 513.528 121.745C513.399 121.962 513.335 122.217 513.335 122.51C513.335 122.809 513.402 123.081 513.537 123.327C513.672 123.573 513.874 123.77 514.144 123.916C514.419 124.057 514.756 124.127 515.154 124.127C515.652 124.127 516.092 124.021 516.473 123.811C516.854 123.6 517.155 123.342 517.378 123.037C517.606 122.732 517.729 122.437 517.747 122.149L518.441 122.932C518.4 123.178 518.289 123.45 518.107 123.749C517.926 124.048 517.683 124.335 517.378 124.61C517.079 124.88 516.722 125.105 516.306 125.287C515.896 125.463 515.433 125.551 514.917 125.551C514.272 125.551 513.707 125.425 513.221 125.173C512.74 124.921 512.365 124.584 512.096 124.162C511.832 123.734 511.7 123.257 511.7 122.729C511.7 122.22 511.8 121.771 511.999 121.385C512.198 120.992 512.485 120.667 512.86 120.409C513.235 120.146 513.687 119.946 514.214 119.812C514.741 119.677 515.33 119.609 515.98 119.609H517.87Z" fill="white"/>
<path d="M464.259 176.203V189H462.571V177.592H456.261V189H454.564V176.203H464.259ZM475.271 176.203V177.592H469.102V189H467.414V176.203H475.271ZM482.153 176.203V189H480.483V176.203H482.153ZM486.267 176.203V177.592H476.379V176.203H486.267ZM496.655 176.203V189H494.985V176.203H496.655ZM500.769 176.203V177.592H490.881V176.203H500.769ZM502.597 182.76H505.453C506.221 182.76 506.868 182.895 507.396 183.164C507.923 183.428 508.321 183.794 508.591 184.263C508.866 184.726 509.004 185.253 509.004 185.845C509.004 186.284 508.928 186.697 508.775 187.084C508.623 187.465 508.395 187.799 508.09 188.086C507.791 188.373 507.419 188.599 506.974 188.763C506.534 188.921 506.027 189 505.453 189H501.41V179.49H503.036V187.664H505.453C505.922 187.664 506.297 187.579 506.578 187.409C506.859 187.239 507.062 187.02 507.185 186.75C507.308 186.48 507.369 186.199 507.369 185.906C507.369 185.619 507.308 185.338 507.185 185.062C507.062 184.787 506.859 184.559 506.578 184.377C506.297 184.189 505.922 184.096 505.453 184.096H502.597V182.76ZM512.388 179.49V189H510.762V179.49H512.388ZM520.702 186.838L523.937 179.49H525.501L521.265 189H520.14L515.921 179.49H517.485L520.702 186.838ZM517.011 179.49V189H515.385V179.49H517.011ZM524.341 189V179.49H525.976V189H524.341ZM528.164 184.351V184.148C528.164 183.463 528.264 182.827 528.463 182.241C528.662 181.649 528.949 181.137 529.324 180.703C529.699 180.264 530.153 179.924 530.687 179.684C531.22 179.438 531.817 179.314 532.479 179.314C533.147 179.314 533.748 179.438 534.281 179.684C534.82 179.924 535.277 180.264 535.652 180.703C536.033 181.137 536.323 181.649 536.522 182.241C536.722 182.827 536.821 183.463 536.821 184.148V184.351C536.821 185.036 536.722 185.672 536.522 186.258C536.323 186.844 536.033 187.356 535.652 187.796C535.277 188.229 534.823 188.569 534.29 188.815C533.763 189.056 533.165 189.176 532.497 189.176C531.829 189.176 531.229 189.056 530.695 188.815C530.162 188.569 529.705 188.229 529.324 187.796C528.949 187.356 528.662 186.844 528.463 186.258C528.264 185.672 528.164 185.036 528.164 184.351ZM529.79 184.148V184.351C529.79 184.825 529.846 185.273 529.957 185.695C530.068 186.111 530.235 186.48 530.458 186.803C530.687 187.125 530.971 187.38 531.311 187.567C531.65 187.749 532.046 187.84 532.497 187.84C532.942 187.84 533.332 187.749 533.666 187.567C534.006 187.38 534.287 187.125 534.51 186.803C534.732 186.48 534.899 186.111 535.011 185.695C535.128 185.273 535.187 184.825 535.187 184.351V184.148C535.187 183.68 535.128 183.237 535.011 182.821C534.899 182.399 534.729 182.027 534.501 181.705C534.278 181.377 533.997 181.119 533.657 180.932C533.323 180.744 532.931 180.65 532.479 180.65C532.034 180.65 531.642 180.744 531.302 180.932C530.968 181.119 530.687 181.377 530.458 181.705C530.235 182.027 530.068 182.399 529.957 182.821C529.846 183.237 529.79 183.68 529.79 184.148ZM543.325 184.816H540.205L540.188 183.516H542.736C543.24 183.516 543.659 183.466 543.993 183.366C544.333 183.267 544.588 183.117 544.758 182.918C544.928 182.719 545.013 182.473 545.013 182.18C545.013 181.951 544.963 181.752 544.863 181.582C544.77 181.406 544.626 181.263 544.433 181.151C544.239 181.034 543.999 180.949 543.712 180.896C543.431 180.838 543.1 180.809 542.719 180.809H540.636V189H539.01V179.49H542.719C543.322 179.49 543.864 179.543 544.345 179.648C544.831 179.754 545.244 179.915 545.584 180.132C545.93 180.343 546.193 180.612 546.375 180.94C546.557 181.269 546.647 181.655 546.647 182.101C546.647 182.388 546.589 182.66 546.472 182.918C546.354 183.176 546.182 183.404 545.953 183.604C545.725 183.803 545.443 183.967 545.109 184.096C544.775 184.219 544.392 184.298 543.958 184.333L543.325 184.816ZM543.325 189H539.616L540.425 187.682H543.325C543.776 187.682 544.151 187.626 544.45 187.515C544.749 187.397 544.972 187.233 545.118 187.022C545.271 186.806 545.347 186.548 545.347 186.249C545.347 185.95 545.271 185.695 545.118 185.484C544.972 185.268 544.749 185.104 544.45 184.992C544.151 184.875 543.776 184.816 543.325 184.816H540.855L540.873 183.516H543.958L544.547 184.008C545.068 184.049 545.511 184.178 545.874 184.395C546.237 184.611 546.513 184.887 546.7 185.221C546.888 185.549 546.981 185.906 546.981 186.293C546.981 186.738 546.896 187.131 546.727 187.471C546.562 187.811 546.322 188.095 546.006 188.323C545.689 188.546 545.306 188.716 544.854 188.833C544.403 188.944 543.894 189 543.325 189ZM552.967 187.84C553.354 187.84 553.711 187.761 554.039 187.603C554.367 187.444 554.637 187.228 554.848 186.952C555.059 186.671 555.179 186.352 555.208 185.994H556.755C556.726 186.557 556.535 187.081 556.184 187.567C555.838 188.048 555.384 188.438 554.821 188.736C554.259 189.029 553.641 189.176 552.967 189.176C552.252 189.176 551.628 189.05 551.095 188.798C550.567 188.546 550.128 188.2 549.776 187.761C549.431 187.321 549.17 186.817 548.994 186.249C548.824 185.675 548.739 185.068 548.739 184.43V184.061C548.739 183.422 548.824 182.818 548.994 182.25C549.17 181.676 549.431 181.169 549.776 180.729C550.128 180.29 550.567 179.944 551.095 179.692C551.628 179.44 552.252 179.314 552.967 179.314C553.711 179.314 554.361 179.467 554.918 179.771C555.475 180.07 555.911 180.48 556.228 181.002C556.55 181.518 556.726 182.104 556.755 182.76H555.208C555.179 182.367 555.067 182.013 554.874 181.696C554.687 181.38 554.429 181.128 554.101 180.94C553.778 180.747 553.4 180.65 552.967 180.65C552.469 180.65 552.05 180.75 551.71 180.949C551.376 181.143 551.109 181.406 550.91 181.74C550.717 182.068 550.576 182.435 550.488 182.839C550.406 183.237 550.365 183.645 550.365 184.061V184.43C550.365 184.846 550.406 185.256 550.488 185.66C550.57 186.064 550.708 186.431 550.901 186.759C551.101 187.087 551.367 187.351 551.701 187.55C552.041 187.743 552.463 187.84 552.967 187.84ZM560.35 179.49V189H558.724V179.49H560.35ZM566.59 179.49L562.081 184.939H559.805L559.559 183.516H561.422L564.612 179.49H566.59ZM564.841 189L561.343 184.693L562.389 183.516L566.906 189H564.841ZM567.697 184.351V184.148C567.697 183.463 567.797 182.827 567.996 182.241C568.195 181.649 568.482 181.137 568.857 180.703C569.232 180.264 569.687 179.924 570.22 179.684C570.753 179.438 571.351 179.314 572.013 179.314C572.681 179.314 573.281 179.438 573.814 179.684C574.354 179.924 574.811 180.264 575.186 180.703C575.566 181.137 575.856 181.649 576.056 182.241C576.255 182.827 576.354 183.463 576.354 184.148V184.351C576.354 185.036 576.255 185.672 576.056 186.258C575.856 186.844 575.566 187.356 575.186 187.796C574.811 188.229 574.356 188.569 573.823 188.815C573.296 189.056 572.698 189.176 572.03 189.176C571.362 189.176 570.762 189.056 570.229 188.815C569.695 188.569 569.238 188.229 568.857 187.796C568.482 187.356 568.195 186.844 567.996 186.258C567.797 185.672 567.697 185.036 567.697 184.351ZM569.323 184.148V184.351C569.323 184.825 569.379 185.273 569.49 185.695C569.602 186.111 569.769 186.48 569.991 186.803C570.22 187.125 570.504 187.38 570.844 187.567C571.184 187.749 571.579 187.84 572.03 187.84C572.476 187.84 572.865 187.749 573.199 187.567C573.539 187.38 573.82 187.125 574.043 186.803C574.266 186.48 574.433 186.111 574.544 185.695C574.661 185.273 574.72 184.825 574.72 184.351V184.148C574.72 183.68 574.661 183.237 574.544 182.821C574.433 182.399 574.263 182.027 574.034 181.705C573.812 181.377 573.53 181.119 573.19 180.932C572.856 180.744 572.464 180.65 572.013 180.65C571.567 180.65 571.175 180.744 570.835 180.932C570.501 181.119 570.22 181.377 569.991 181.705C569.769 182.027 569.602 182.399 569.49 182.821C569.379 183.237 569.323 183.68 569.323 184.148ZM582.34 189.176C581.678 189.176 581.077 189.064 580.538 188.842C580.005 188.613 579.545 188.294 579.158 187.884C578.777 187.474 578.484 186.987 578.279 186.425C578.074 185.862 577.972 185.247 577.972 184.579V184.21C577.972 183.437 578.086 182.748 578.314 182.145C578.543 181.535 578.854 181.02 579.246 180.598C579.639 180.176 580.084 179.856 580.582 179.64C581.08 179.423 581.596 179.314 582.129 179.314C582.809 179.314 583.395 179.432 583.887 179.666C584.385 179.9 584.792 180.229 585.108 180.65C585.425 181.066 585.659 181.559 585.812 182.127C585.964 182.689 586.04 183.305 586.04 183.973V184.702H578.938V183.375H584.414V183.252C584.391 182.83 584.303 182.42 584.15 182.021C584.004 181.623 583.77 181.295 583.447 181.037C583.125 180.779 582.686 180.65 582.129 180.65C581.76 180.65 581.42 180.729 581.109 180.888C580.799 181.04 580.532 181.269 580.31 181.573C580.087 181.878 579.914 182.25 579.791 182.689C579.668 183.129 579.606 183.636 579.606 184.21V184.579C579.606 185.03 579.668 185.455 579.791 185.854C579.92 186.246 580.104 186.592 580.345 186.891C580.591 187.189 580.887 187.424 581.232 187.594C581.584 187.764 581.982 187.849 582.428 187.849C583.002 187.849 583.488 187.731 583.887 187.497C584.285 187.263 584.634 186.949 584.933 186.557L585.917 187.339C585.712 187.649 585.451 187.945 585.135 188.227C584.818 188.508 584.429 188.736 583.966 188.912C583.509 189.088 582.967 189.176 582.34 189.176Z" fill="white"/>
<path d="M283.391 228.712L279.154 240.375H277.423L282.301 227.578H283.417L283.391 228.712ZM286.941 240.375L282.696 228.712L282.67 227.578H283.786L288.682 240.375H286.941ZM286.722 235.638V237.026H279.532V235.638H286.722ZM293.48 232.025C293.123 232.025 292.78 232.104 292.452 232.263C292.13 232.421 291.863 232.641 291.652 232.922C291.447 233.197 291.345 233.517 291.345 233.88H289.789C289.789 233.312 289.965 232.787 290.316 232.307C290.668 231.82 291.125 231.431 291.688 231.138C292.25 230.839 292.848 230.689 293.48 230.689C294.148 230.689 294.74 230.815 295.256 231.067C295.771 231.319 296.205 231.665 296.557 232.104C296.914 232.544 297.184 233.051 297.365 233.625C297.547 234.193 297.638 234.797 297.638 235.436V235.805C297.638 236.443 297.544 237.05 297.356 237.624C297.175 238.192 296.905 238.699 296.548 239.145C296.196 239.584 295.763 239.93 295.247 240.182C294.737 240.434 294.151 240.56 293.489 240.56C292.78 240.56 292.145 240.407 291.582 240.103C291.025 239.798 290.586 239.388 290.264 238.872C289.947 238.351 289.789 237.765 289.789 237.114H291.345C291.345 237.507 291.438 237.864 291.626 238.187C291.819 238.503 292.077 238.755 292.399 238.942C292.722 239.13 293.085 239.224 293.489 239.224C293.929 239.224 294.307 239.124 294.623 238.925C294.945 238.726 295.209 238.462 295.414 238.134C295.619 237.806 295.769 237.439 295.862 237.035C295.962 236.625 296.012 236.215 296.012 235.805V235.436C296.012 235.02 295.962 234.609 295.862 234.205C295.769 233.801 295.619 233.435 295.414 233.106C295.215 232.778 294.954 232.518 294.632 232.324C294.315 232.125 293.932 232.025 293.48 232.025ZM296.803 234.864V236.191H292.417V234.864H296.803ZM301.461 232.693V244.031H299.826V230.865H301.32L301.461 232.693ZM307.868 235.541V235.726C307.868 236.417 307.786 237.059 307.622 237.65C307.458 238.236 307.218 238.746 306.901 239.18C306.591 239.613 306.207 239.95 305.75 240.19C305.293 240.431 304.769 240.551 304.177 240.551C303.573 240.551 303.04 240.451 302.577 240.252C302.114 240.053 301.722 239.763 301.399 239.382C301.077 239.001 300.819 238.544 300.626 238.011C300.438 237.478 300.31 236.877 300.239 236.209V235.225C300.31 234.521 300.441 233.892 300.635 233.335C300.828 232.778 301.083 232.304 301.399 231.911C301.722 231.513 302.111 231.211 302.568 231.006C303.025 230.795 303.553 230.689 304.15 230.689C304.748 230.689 305.278 230.807 305.741 231.041C306.204 231.27 306.594 231.598 306.91 232.025C307.227 232.453 307.464 232.966 307.622 233.563C307.786 234.155 307.868 234.814 307.868 235.541ZM306.233 235.726V235.541C306.233 235.066 306.184 234.621 306.084 234.205C305.984 233.783 305.829 233.414 305.618 233.098C305.413 232.775 305.149 232.523 304.827 232.342C304.505 232.154 304.121 232.061 303.676 232.061C303.266 232.061 302.908 232.131 302.604 232.271C302.305 232.412 302.05 232.603 301.839 232.843C301.628 233.077 301.455 233.347 301.32 233.651C301.191 233.95 301.095 234.261 301.03 234.583V236.859C301.147 237.27 301.312 237.656 301.522 238.02C301.733 238.377 302.015 238.667 302.366 238.89C302.718 239.106 303.16 239.215 303.693 239.215C304.133 239.215 304.511 239.124 304.827 238.942C305.149 238.755 305.413 238.5 305.618 238.178C305.829 237.855 305.984 237.486 306.084 237.07C306.184 236.648 306.233 236.2 306.233 235.726ZM309.512 235.726V235.523C309.512 234.838 309.611 234.202 309.811 233.616C310.01 233.024 310.297 232.512 310.672 232.078C311.047 231.639 311.501 231.299 312.034 231.059C312.567 230.812 313.165 230.689 313.827 230.689C314.495 230.689 315.096 230.812 315.629 231.059C316.168 231.299 316.625 231.639 317 232.078C317.381 232.512 317.671 233.024 317.87 233.616C318.069 234.202 318.169 234.838 318.169 235.523V235.726C318.169 236.411 318.069 237.047 317.87 237.633C317.671 238.219 317.381 238.731 317 239.171C316.625 239.604 316.171 239.944 315.638 240.19C315.11 240.431 314.513 240.551 313.845 240.551C313.177 240.551 312.576 240.431 312.043 240.19C311.51 239.944 311.053 239.604 310.672 239.171C310.297 238.731 310.01 238.219 309.811 237.633C309.611 237.047 309.512 236.411 309.512 235.726ZM311.138 235.523V235.726C311.138 236.2 311.193 236.648 311.305 237.07C311.416 237.486 311.583 237.855 311.806 238.178C312.034 238.5 312.318 238.755 312.658 238.942C312.998 239.124 313.394 239.215 313.845 239.215C314.29 239.215 314.68 239.124 315.014 238.942C315.354 238.755 315.635 238.5 315.857 238.178C316.08 237.855 316.247 237.486 316.358 237.07C316.476 236.648 316.534 236.2 316.534 235.726V235.523C316.534 235.055 316.476 234.612 316.358 234.196C316.247 233.774 316.077 233.402 315.849 233.08C315.626 232.752 315.345 232.494 315.005 232.307C314.671 232.119 314.278 232.025 313.827 232.025C313.382 232.025 312.989 232.119 312.649 232.307C312.315 232.494 312.034 232.752 311.806 233.08C311.583 233.402 311.416 233.774 311.305 234.196C311.193 234.612 311.138 235.055 311.138 235.523ZM321.289 230.865H322.915L322.774 234.425C322.739 235.327 322.637 236.106 322.467 236.763C322.297 237.419 322.08 237.979 321.816 238.441C321.553 238.898 321.257 239.282 320.929 239.593C320.606 239.903 320.272 240.164 319.927 240.375H319.118L319.162 239.048L319.496 239.039C319.689 238.811 319.877 238.576 320.059 238.336C320.24 238.09 320.407 237.8 320.56 237.466C320.712 237.126 320.838 236.713 320.938 236.227C321.043 235.734 321.11 235.134 321.14 234.425L321.289 230.865ZM321.693 230.865H327.415V240.375H325.789V232.368H321.693V230.865ZM318.749 239.039H328.637V243.179H327.011V240.375H320.375V243.179H318.74L318.749 239.039ZM332.064 232.693V244.031H330.43V230.865H331.924L332.064 232.693ZM338.472 235.541V235.726C338.472 236.417 338.39 237.059 338.226 237.65C338.062 238.236 337.821 238.746 337.505 239.18C337.194 239.613 336.811 239.95 336.354 240.19C335.896 240.431 335.372 240.551 334.78 240.551C334.177 240.551 333.644 240.451 333.181 240.252C332.718 240.053 332.325 239.763 332.003 239.382C331.681 239.001 331.423 238.544 331.229 238.011C331.042 237.478 330.913 236.877 330.843 236.209V235.225C330.913 234.521 331.045 233.892 331.238 233.335C331.432 232.778 331.687 232.304 332.003 231.911C332.325 231.513 332.715 231.211 333.172 231.006C333.629 230.795 334.156 230.689 334.754 230.689C335.352 230.689 335.882 230.807 336.345 231.041C336.808 231.27 337.197 231.598 337.514 232.025C337.83 232.453 338.067 232.966 338.226 233.563C338.39 234.155 338.472 234.814 338.472 235.541ZM336.837 235.726V235.541C336.837 235.066 336.787 234.621 336.688 234.205C336.588 233.783 336.433 233.414 336.222 233.098C336.017 232.775 335.753 232.523 335.431 232.342C335.108 232.154 334.725 232.061 334.279 232.061C333.869 232.061 333.512 232.131 333.207 232.271C332.908 232.412 332.653 232.603 332.442 232.843C332.231 233.077 332.059 233.347 331.924 233.651C331.795 233.95 331.698 234.261 331.634 234.583V236.859C331.751 237.27 331.915 237.656 332.126 238.02C332.337 238.377 332.618 238.667 332.97 238.89C333.321 239.106 333.764 239.215 334.297 239.215C334.736 239.215 335.114 239.124 335.431 238.942C335.753 238.755 336.017 238.5 336.222 238.178C336.433 237.855 336.588 237.486 336.688 237.07C336.787 236.648 336.837 236.2 336.837 235.726ZM340.115 235.726V235.523C340.115 234.838 340.215 234.202 340.414 233.616C340.613 233.024 340.9 232.512 341.275 232.078C341.65 231.639 342.104 231.299 342.638 231.059C343.171 230.812 343.769 230.689 344.431 230.689C345.099 230.689 345.699 230.812 346.232 231.059C346.771 231.299 347.229 231.639 347.604 232.078C347.984 232.512 348.274 233.024 348.474 233.616C348.673 234.202 348.772 234.838 348.772 235.523V235.726C348.772 236.411 348.673 237.047 348.474 237.633C348.274 238.219 347.984 238.731 347.604 239.171C347.229 239.604 346.774 239.944 346.241 240.19C345.714 240.431 345.116 240.551 344.448 240.551C343.78 240.551 343.18 240.431 342.646 240.19C342.113 239.944 341.656 239.604 341.275 239.171C340.9 238.731 340.613 238.219 340.414 237.633C340.215 237.047 340.115 236.411 340.115 235.726ZM341.741 235.523V235.726C341.741 236.2 341.797 236.648 341.908 237.07C342.02 237.486 342.187 237.855 342.409 238.178C342.638 238.5 342.922 238.755 343.262 238.942C343.602 239.124 343.997 239.215 344.448 239.215C344.894 239.215 345.283 239.124 345.617 238.942C345.957 238.755 346.238 238.5 346.461 238.178C346.684 237.855 346.851 237.486 346.962 237.07C347.079 236.648 347.138 236.2 347.138 235.726V235.523C347.138 235.055 347.079 234.612 346.962 234.196C346.851 233.774 346.681 233.402 346.452 233.08C346.229 232.752 345.948 232.494 345.608 232.307C345.274 232.119 344.882 232.025 344.431 232.025C343.985 232.025 343.593 232.119 343.253 232.307C342.919 232.494 342.638 232.752 342.409 233.08C342.187 233.402 342.02 233.774 341.908 234.196C341.797 234.612 341.741 235.055 341.741 235.523ZM356.278 238.213L359.513 230.865H361.077L356.841 240.375H355.716L351.497 230.865H353.062L356.278 238.213ZM352.587 230.865V240.375H350.961V230.865H352.587ZM359.917 240.375V230.865H361.552V240.375H359.917ZM376.607 236.306H378.295C378.207 237.114 377.976 237.838 377.601 238.477C377.226 239.115 376.695 239.622 376.01 239.997C375.324 240.366 374.469 240.551 373.443 240.551C372.693 240.551 372.011 240.41 371.396 240.129C370.786 239.848 370.262 239.449 369.822 238.934C369.383 238.412 369.043 237.788 368.803 237.062C368.568 236.329 368.451 235.515 368.451 234.618V233.344C368.451 232.447 368.568 231.636 368.803 230.909C369.043 230.177 369.386 229.55 369.831 229.028C370.282 228.507 370.824 228.105 371.457 227.824C372.09 227.543 372.802 227.402 373.593 227.402C374.56 227.402 375.377 227.584 376.045 227.947C376.713 228.311 377.231 228.814 377.601 229.459C377.976 230.098 378.207 230.839 378.295 231.683H376.607C376.525 231.085 376.373 230.572 376.15 230.145C375.928 229.711 375.611 229.377 375.201 229.143C374.791 228.908 374.255 228.791 373.593 228.791C373.024 228.791 372.523 228.899 372.09 229.116C371.662 229.333 371.302 229.641 371.009 230.039C370.722 230.438 370.505 230.915 370.358 231.472C370.212 232.028 370.139 232.646 370.139 233.326V234.618C370.139 235.245 370.203 235.834 370.332 236.385C370.467 236.936 370.669 237.419 370.938 237.835C371.208 238.251 371.551 238.579 371.967 238.819C372.383 239.054 372.875 239.171 373.443 239.171C374.164 239.171 374.738 239.057 375.166 238.828C375.594 238.6 375.916 238.271 376.133 237.844C376.355 237.416 376.514 236.903 376.607 236.306ZM385.827 238.213L389.062 230.865H390.626L386.39 240.375H385.265L381.046 230.865H382.61L385.827 238.213ZM382.136 230.865V240.375H380.51V230.865H382.136ZM389.466 240.375V230.865H391.101V240.375H389.466ZM395.478 237.8L399.863 230.865H401.498V240.375H399.863V233.44L395.478 240.375H393.86V230.865H395.478V237.8ZM405.734 232.693V244.031H404.1V230.865H405.594L405.734 232.693ZM412.142 235.541V235.726C412.142 236.417 412.06 237.059 411.896 237.65C411.731 238.236 411.491 238.746 411.175 239.18C410.864 239.613 410.48 239.95 410.023 240.19C409.566 240.431 409.042 240.551 408.45 240.551C407.847 240.551 407.313 240.451 406.851 240.252C406.388 240.053 405.995 239.763 405.673 239.382C405.351 239.001 405.093 238.544 404.899 238.011C404.712 237.478 404.583 236.877 404.513 236.209V235.225C404.583 234.521 404.715 233.892 404.908 233.335C405.102 232.778 405.356 232.304 405.673 231.911C405.995 231.513 406.385 231.211 406.842 231.006C407.299 230.795 407.826 230.689 408.424 230.689C409.021 230.689 409.552 230.807 410.015 231.041C410.478 231.27 410.867 231.598 411.184 232.025C411.5 232.453 411.737 232.966 411.896 233.563C412.06 234.155 412.142 234.814 412.142 235.541ZM410.507 235.726V235.541C410.507 235.066 410.457 234.621 410.357 234.205C410.258 233.783 410.103 233.414 409.892 233.098C409.687 232.775 409.423 232.523 409.101 232.342C408.778 232.154 408.395 232.061 407.949 232.061C407.539 232.061 407.182 232.131 406.877 232.271C406.578 232.412 406.323 232.603 406.112 232.843C405.901 233.077 405.729 233.347 405.594 233.651C405.465 233.95 405.368 234.261 405.304 234.583V236.859C405.421 237.27 405.585 237.656 405.796 238.02C406.007 238.377 406.288 238.667 406.64 238.89C406.991 239.106 407.434 239.215 407.967 239.215C408.406 239.215 408.784 239.124 409.101 238.942C409.423 238.755 409.687 238.5 409.892 238.178C410.103 237.855 410.258 237.486 410.357 237.07C410.457 236.648 410.507 236.2 410.507 235.726ZM420.667 234.987V236.306H415.64V234.987H420.667ZM415.982 230.865V240.375H414.356V230.865H415.982ZM421.985 230.865V240.375H420.351V230.865H421.985ZM425.94 234.135H428.797C429.564 234.135 430.212 234.27 430.739 234.539C431.267 234.803 431.665 235.169 431.935 235.638C432.21 236.101 432.348 236.628 432.348 237.22C432.348 237.659 432.271 238.072 432.119 238.459C431.967 238.84 431.738 239.174 431.434 239.461C431.135 239.748 430.763 239.974 430.317 240.138C429.878 240.296 429.371 240.375 428.797 240.375H424.754V230.865H426.38V239.039H428.797C429.266 239.039 429.641 238.954 429.922 238.784C430.203 238.614 430.405 238.395 430.528 238.125C430.651 237.855 430.713 237.574 430.713 237.281C430.713 236.994 430.651 236.713 430.528 236.438C430.405 236.162 430.203 235.934 429.922 235.752C429.641 235.564 429.266 235.471 428.797 235.471H425.94V234.135ZM435.731 230.865V240.375H434.105V230.865H435.731ZM439.678 230.865L441.761 234.328L443.87 230.865H445.777L442.666 235.559L445.874 240.375H443.993L441.796 236.807L439.599 240.375H437.709L440.908 235.559L437.806 230.865H439.678Z" fill="white"/>
<path d="M734.506 10.5723V11.3809C734.506 12.3418 734.386 13.2031 734.146 13.9648C733.905 14.7266 733.56 15.374 733.108 15.9072C732.657 16.4404 732.115 16.8477 731.482 17.1289C730.855 17.4102 730.152 17.5508 729.373 17.5508C728.617 17.5508 727.923 17.4102 727.29 17.1289C726.663 16.8477 726.118 16.4404 725.655 15.9072C725.198 15.374 724.844 14.7266 724.592 13.9648C724.34 13.2031 724.214 12.3418 724.214 11.3809V10.5723C724.214 9.61133 724.337 8.75293 724.583 7.99707C724.835 7.23535 725.189 6.58789 725.646 6.05469C726.104 5.51563 726.646 5.10547 727.272 4.82422C727.905 4.54297 728.6 4.40234 729.355 4.40234C730.135 4.40234 730.838 4.54297 731.465 4.82422C732.098 5.10547 732.64 5.51563 733.091 6.05469C733.548 6.58789 733.896 7.23535 734.137 7.99707C734.383 8.75293 734.506 9.61133 734.506 10.5723ZM732.827 11.3809V10.5547C732.827 9.79297 732.748 9.11914 732.59 8.5332C732.438 7.94727 732.212 7.45508 731.913 7.05664C731.614 6.6582 731.248 6.35645 730.814 6.15137C730.387 5.94629 729.9 5.84375 729.355 5.84375C728.828 5.84375 728.351 5.94629 727.923 6.15137C727.501 6.35645 727.138 6.6582 726.833 7.05664C726.534 7.45508 726.303 7.94727 726.139 8.5332C725.975 9.11914 725.893 9.79297 725.893 10.5547V11.3809C725.893 12.1484 725.975 12.8281 726.139 13.4199C726.303 14.0059 726.537 14.501 726.842 14.9053C727.152 15.3037 727.519 15.6055 727.94 15.8105C728.368 16.0156 728.846 16.1182 729.373 16.1182C729.924 16.1182 730.413 16.0156 730.841 15.8105C731.269 15.6055 731.629 15.3037 731.922 14.9053C732.221 14.501 732.446 14.0059 732.599 13.4199C732.751 12.8281 732.827 12.1484 732.827 11.3809ZM737.898 7.86523L739.981 11.3281L742.091 7.86523H743.998L740.887 12.5586L744.095 17.375H742.214L740.017 13.8066L737.819 17.375H735.93L739.129 12.5586L736.026 7.86523H737.898ZM751.337 15.749V10.8535C751.337 10.4785 751.261 10.1533 751.108 9.87793C750.962 9.59668 750.739 9.37988 750.44 9.22754C750.142 9.0752 749.772 8.99902 749.333 8.99902C748.923 8.99902 748.562 9.06934 748.252 9.20996C747.947 9.35059 747.707 9.53516 747.531 9.76367C747.361 9.99219 747.276 10.2383 747.276 10.502H745.65C745.65 10.1621 745.738 9.8252 745.914 9.49121C746.09 9.15723 746.342 8.85547 746.67 8.58594C747.004 8.31055 747.402 8.09375 747.865 7.93555C748.334 7.77148 748.855 7.68945 749.43 7.68945C750.121 7.68945 750.73 7.80664 751.258 8.04102C751.791 8.27539 752.207 8.62988 752.506 9.10449C752.811 9.57324 752.963 10.1621 752.963 10.8711V15.3008C752.963 15.6172 752.989 15.9541 753.042 16.3115C753.101 16.6689 753.186 16.9766 753.297 17.2344V17.375H751.601C751.519 17.1875 751.454 16.9385 751.407 16.6279C751.36 16.3115 751.337 16.0186 751.337 15.749ZM751.618 11.6094L751.636 12.752H749.992C749.529 12.752 749.116 12.79 748.753 12.8662C748.39 12.9365 748.085 13.0449 747.839 13.1914C747.593 13.3379 747.405 13.5225 747.276 13.7451C747.147 13.9619 747.083 14.2168 747.083 14.5098C747.083 14.8086 747.15 15.0811 747.285 15.3271C747.42 15.5732 747.622 15.7695 747.892 15.916C748.167 16.0566 748.504 16.127 748.902 16.127C749.4 16.127 749.84 16.0215 750.221 15.8105C750.602 15.5996 750.903 15.3418 751.126 15.0371C751.354 14.7324 751.478 14.4365 751.495 14.1494L752.189 14.9316C752.148 15.1777 752.037 15.4502 751.855 15.749C751.674 16.0479 751.431 16.335 751.126 16.6104C750.827 16.8799 750.47 17.1055 750.054 17.2871C749.644 17.4629 749.181 17.5508 748.665 17.5508C748.021 17.5508 747.455 17.4248 746.969 17.1729C746.488 16.9209 746.113 16.584 745.844 16.1621C745.58 15.7344 745.448 15.2568 745.448 14.7295C745.448 14.2197 745.548 13.7715 745.747 13.3848C745.946 12.9922 746.233 12.667 746.608 12.4092C746.983 12.1455 747.435 11.9463 747.962 11.8115C748.489 11.6768 749.078 11.6094 749.729 11.6094H751.618Z" fill="white"/>
</g>
<defs>
<clipPath id="clip0_1024_200209">
<rect width="755" height="404" fill="white" transform="translate(0.167969 0.375)"/>
</clipPath>
</defs>
</svg>
