<svg width="623" height="325" viewBox="0 0 623 325" fill="none" xmlns="http://www.w3.org/2000/svg">
<path d="M256.112 299.874C256.043 301.449 257.635 301.124 258.44 300.765C262.736 301.742 256.554 307.782 256.572 307.388C256.589 306.995 252.497 310.365 251.281 311.1C250.309 311.689 249.025 317.575 248.505 320.445C248.196 321.483 246.788 323.604 243.625 323.781C240.462 323.958 240.836 321.423 241.419 320.134C242.989 317.31 245.9 311.495 244.982 310.824C243.836 309.985 245.069 308.856 245.138 307.281C245.193 306.021 247.26 306.848 248.287 307.419C248.43 307.163 248.726 306.413 248.767 305.468C248.809 304.523 252.219 304.699 253.92 304.905C254.679 302.572 256.182 298.299 256.112 299.874Z" fill="#191C20"/>
<path d="M227.64 319.53C226.695 319.488 226.836 316.865 227.025 315.558L225.896 314.325C225.091 314.685 223.393 315.636 223.037 316.567C222.591 317.73 219.974 314.46 220.657 316.857C221.204 318.774 220.508 320.268 220.091 320.776C220.861 321.204 222.552 322.225 223.154 322.883C223.907 323.704 228.821 319.581 227.64 319.53Z" fill="#191C20"/>
<path d="M234.336 310.751C234.54 313.285 235.459 312.115 235.893 311.214C238.112 310.996 237.833 311.957 237.416 312.464C236.098 312.538 233.517 313.24 233.735 315.458C233.953 317.677 232.718 317.649 232.074 317.357C231.811 317.346 230.978 317.152 229.746 316.467C228.514 315.781 229.611 313.568 230.313 312.547L232.437 309.09C232.985 308.589 234.131 308.218 234.336 310.751Z" fill="#191C20"/>
<path d="M238.925 305.036C240.528 304.476 239.411 302.954 238.653 302.263C237.092 301.879 235.845 303.323 235.417 304.093C235.919 304.641 237.323 305.597 238.925 305.036Z" fill="#191C20"/>
<path d="M533.449 12.7549L536.833 4.20312H538.784L534.258 14.8643C534.129 15.1631 533.985 15.4531 533.827 15.7344C533.669 16.0098 533.476 16.2559 533.247 16.4727C533.019 16.6895 532.734 16.8623 532.395 16.9912C532.061 17.1201 531.645 17.1846 531.146 17.1846C531.006 17.1846 530.839 17.1758 530.646 17.1582C530.452 17.1465 530.326 17.1318 530.268 17.1143L530.32 15.7607C530.385 15.7725 530.511 15.7842 530.698 15.7959C530.886 15.8018 531.023 15.8047 531.111 15.8047C531.445 15.8047 531.709 15.7373 531.902 15.6025C532.096 15.4678 532.251 15.2979 532.368 15.0928C532.491 14.8818 532.603 14.668 532.702 14.4512L533.449 12.7549ZM530.575 4.20312L534.135 12.1748L534.557 13.748L533.133 13.8535L528.677 4.20312H530.575ZM545.807 7.49023V8.83496H541.412V17H539.786V7.49023H545.807ZM553.225 7.49023V8.83496H548.628V7.49023H553.225ZM554.657 7.49023V17H553.031V7.49023H554.657ZM548.232 7.49023H549.867L549.621 12.0781C549.58 12.7871 549.513 13.4141 549.419 13.959C549.331 14.498 549.208 14.9609 549.05 15.3477C548.897 15.7344 548.704 16.0508 548.47 16.2969C548.241 16.5371 547.966 16.7158 547.644 16.833C547.321 16.9443 546.949 17 546.527 17H546.018V15.5674L546.369 15.541C546.621 15.5234 546.835 15.4648 547.011 15.3652C547.192 15.2656 547.345 15.1191 547.468 14.9258C547.591 14.7266 547.69 14.4717 547.767 14.1611C547.849 13.8506 547.91 13.4814 547.951 13.0537C547.998 12.626 548.033 12.1279 548.057 11.5596L548.232 7.49023ZM561.223 17.1758C560.561 17.1758 559.96 17.0645 559.421 16.8418C558.888 16.6133 558.428 16.2939 558.041 15.8838C557.66 15.4736 557.367 14.9873 557.162 14.4248C556.957 13.8623 556.854 13.2471 556.854 12.5791V12.21C556.854 11.4365 556.969 10.748 557.197 10.1445C557.426 9.53516 557.736 9.01953 558.129 8.59766C558.521 8.17578 558.967 7.85645 559.465 7.63965C559.963 7.42285 560.479 7.31445 561.012 7.31445C561.691 7.31445 562.277 7.43164 562.77 7.66602C563.268 7.90039 563.675 8.22852 563.991 8.65039C564.308 9.06641 564.542 9.55859 564.694 10.127C564.847 10.6895 564.923 11.3047 564.923 11.9727V12.7021H557.821V11.375H563.297V11.252C563.273 10.8301 563.186 10.4199 563.033 10.0215C562.887 9.62305 562.652 9.29492 562.33 9.03711C562.008 8.7793 561.568 8.65039 561.012 8.65039C560.643 8.65039 560.303 8.72949 559.992 8.8877C559.682 9.04004 559.415 9.26855 559.192 9.57324C558.97 9.87793 558.797 10.25 558.674 10.6895C558.551 11.1289 558.489 11.6357 558.489 12.21V12.5791C558.489 13.0303 558.551 13.4551 558.674 13.8535C558.803 14.2461 558.987 14.5918 559.228 14.8906C559.474 15.1895 559.77 15.4238 560.115 15.5938C560.467 15.7637 560.865 15.8486 561.311 15.8486C561.885 15.8486 562.371 15.7314 562.77 15.4971C563.168 15.2627 563.517 14.9492 563.815 14.5566L564.8 15.3389C564.595 15.6494 564.334 15.9453 564.018 16.2266C563.701 16.5078 563.312 16.7363 562.849 16.9121C562.392 17.0879 561.85 17.1758 561.223 17.1758ZM572.965 7.49023V8.83496H568.57V17H566.944V7.49023H572.965ZM573.773 12.3506V12.1484C573.773 11.4629 573.873 10.8271 574.072 10.2412C574.271 9.64941 574.559 9.13672 574.934 8.70312C575.309 8.26367 575.763 7.92383 576.296 7.68359C576.829 7.4375 577.427 7.31445 578.089 7.31445C578.757 7.31445 579.357 7.4375 579.891 7.68359C580.43 7.92383 580.887 8.26367 581.262 8.70312C581.643 9.13672 581.933 9.64941 582.132 10.2412C582.331 10.8271 582.431 11.4629 582.431 12.1484V12.3506C582.431 13.0361 582.331 13.6719 582.132 14.2578C581.933 14.8438 581.643 15.3564 581.262 15.7959C580.887 16.2295 580.433 16.5693 579.899 16.8154C579.372 17.0557 578.774 17.1758 578.106 17.1758C577.438 17.1758 576.838 17.0557 576.305 16.8154C575.771 16.5693 575.314 16.2295 574.934 15.7959C574.559 15.3564 574.271 14.8438 574.072 14.2578C573.873 13.6719 573.773 13.0361 573.773 12.3506ZM575.399 12.1484V12.3506C575.399 12.8252 575.455 13.2734 575.566 13.6953C575.678 14.1113 575.845 14.4805 576.067 14.8027C576.296 15.125 576.58 15.3799 576.92 15.5674C577.26 15.749 577.655 15.8398 578.106 15.8398C578.552 15.8398 578.941 15.749 579.275 15.5674C579.615 15.3799 579.896 15.125 580.119 14.8027C580.342 14.4805 580.509 14.1113 580.62 13.6953C580.737 13.2734 580.796 12.8252 580.796 12.3506V12.1484C580.796 11.6797 580.737 11.2373 580.62 10.8213C580.509 10.3994 580.339 10.0273 580.11 9.70508C579.888 9.37695 579.606 9.11914 579.267 8.93164C578.933 8.74414 578.54 8.65039 578.089 8.65039C577.644 8.65039 577.251 8.74414 576.911 8.93164C576.577 9.11914 576.296 9.37695 576.067 9.70508C575.845 10.0273 575.678 10.3994 575.566 10.8213C575.455 11.2373 575.399 11.6797 575.399 12.1484ZM586.096 9.31836V20.6562H584.461V7.49023H585.955L586.096 9.31836ZM592.503 12.166V12.3506C592.503 13.042 592.421 13.6836 592.257 14.2754C592.093 14.8613 591.853 15.3711 591.536 15.8047C591.226 16.2383 590.842 16.5752 590.385 16.8154C589.928 17.0557 589.403 17.1758 588.812 17.1758C588.208 17.1758 587.675 17.0762 587.212 16.877C586.749 16.6777 586.356 16.3877 586.034 16.0068C585.712 15.626 585.454 15.1689 585.261 14.6357C585.073 14.1025 584.944 13.502 584.874 12.834V11.8496C584.944 11.1465 585.076 10.5166 585.27 9.95996C585.463 9.40332 585.718 8.92871 586.034 8.53613C586.356 8.1377 586.746 7.83594 587.203 7.63086C587.66 7.41992 588.188 7.31445 588.785 7.31445C589.383 7.31445 589.913 7.43164 590.376 7.66602C590.839 7.89453 591.229 8.22266 591.545 8.65039C591.861 9.07812 592.099 9.59082 592.257 10.1885C592.421 10.7803 592.503 11.4395 592.503 12.166ZM590.868 12.3506V12.166C590.868 11.6914 590.818 11.2461 590.719 10.8301C590.619 10.4082 590.464 10.0391 590.253 9.72266C590.048 9.40039 589.784 9.14844 589.462 8.9668C589.14 8.7793 588.756 8.68555 588.311 8.68555C587.9 8.68555 587.543 8.75586 587.238 8.89648C586.939 9.03711 586.685 9.22754 586.474 9.46777C586.263 9.70215 586.09 9.97168 585.955 10.2764C585.826 10.5752 585.729 10.8857 585.665 11.208V13.4844C585.782 13.8945 585.946 14.2812 586.157 14.6445C586.368 15.002 586.649 15.292 587.001 15.5146C587.353 15.7314 587.795 15.8398 588.328 15.8398C588.768 15.8398 589.146 15.749 589.462 15.5674C589.784 15.3799 590.048 15.125 590.253 14.8027C590.464 14.4805 590.619 14.1113 590.719 13.6953C590.818 13.2734 590.868 12.8252 590.868 12.3506ZM598.383 15.8398C598.77 15.8398 599.127 15.7607 599.455 15.6025C599.783 15.4443 600.053 15.2275 600.264 14.9521C600.475 14.6709 600.595 14.3516 600.624 13.9941H602.171C602.142 14.5566 601.951 15.0811 601.6 15.5674C601.254 16.0479 600.8 16.4375 600.237 16.7363C599.675 17.0293 599.057 17.1758 598.383 17.1758C597.668 17.1758 597.044 17.0498 596.511 16.7979C595.983 16.5459 595.544 16.2002 595.192 15.7607C594.847 15.3213 594.586 14.8174 594.41 14.249C594.24 13.6748 594.155 13.0684 594.155 12.4297V12.0605C594.155 11.4219 594.24 10.8184 594.41 10.25C594.586 9.67578 594.847 9.16895 595.192 8.72949C595.544 8.29004 595.983 7.94434 596.511 7.69238C597.044 7.44043 597.668 7.31445 598.383 7.31445C599.127 7.31445 599.777 7.4668 600.334 7.77148C600.891 8.07031 601.327 8.48047 601.644 9.00195C601.966 9.51758 602.142 10.1035 602.171 10.7598H600.624C600.595 10.3672 600.483 10.0127 600.29 9.69629C600.103 9.37988 599.845 9.12793 599.517 8.94043C599.194 8.74707 598.816 8.65039 598.383 8.65039C597.885 8.65039 597.466 8.75 597.126 8.94922C596.792 9.14258 596.525 9.40625 596.326 9.74023C596.133 10.0684 595.992 10.4346 595.904 10.8389C595.822 11.2373 595.781 11.6445 595.781 12.0605V12.4297C595.781 12.8457 595.822 13.2559 595.904 13.6602C595.986 14.0645 596.124 14.4307 596.317 14.7588C596.517 15.0869 596.783 15.3506 597.117 15.5498C597.457 15.7432 597.879 15.8398 598.383 15.8398ZM605.766 7.49023V17H604.14V7.49023H605.766ZM612.006 7.49023L607.497 12.9395H605.221L604.975 11.5156H606.838L610.028 7.49023H612.006ZM610.257 17L606.759 12.6934L607.805 11.5156L612.322 17H610.257Z" fill="white"/>
<path d="M541.547 55.2031H543.252V66.6201H547.646V55.2031H549.334V66.6201H553.702V55.2031H555.398V68H541.547V55.2031ZM563.792 66.374V61.4785C563.792 61.1035 563.716 60.7783 563.563 60.5029C563.417 60.2217 563.194 60.0049 562.896 59.8525C562.597 59.7002 562.228 59.624 561.788 59.624C561.378 59.624 561.018 59.6943 560.707 59.835C560.402 59.9756 560.162 60.1602 559.986 60.3887C559.816 60.6172 559.731 60.8633 559.731 61.127H558.105C558.105 60.7871 558.193 60.4502 558.369 60.1162C558.545 59.7822 558.797 59.4805 559.125 59.2109C559.459 58.9355 559.857 58.7188 560.32 58.5605C560.789 58.3965 561.311 58.3145 561.885 58.3145C562.576 58.3145 563.186 58.4316 563.713 58.666C564.246 58.9004 564.662 59.2549 564.961 59.7295C565.266 60.1982 565.418 60.7871 565.418 61.4961V65.9258C565.418 66.2422 565.444 66.5791 565.497 66.9365C565.556 67.2939 565.641 67.6016 565.752 67.8594V68H564.056C563.974 67.8125 563.909 67.5635 563.862 67.2529C563.815 66.9365 563.792 66.6436 563.792 66.374ZM564.073 62.2344L564.091 63.377H562.447C561.984 63.377 561.571 63.415 561.208 63.4912C560.845 63.5615 560.54 63.6699 560.294 63.8164C560.048 63.9629 559.86 64.1475 559.731 64.3701C559.603 64.5869 559.538 64.8418 559.538 65.1348C559.538 65.4336 559.605 65.7061 559.74 65.9521C559.875 66.1982 560.077 66.3945 560.347 66.541C560.622 66.6816 560.959 66.752 561.357 66.752C561.855 66.752 562.295 66.6465 562.676 66.4355C563.057 66.2246 563.358 65.9668 563.581 65.6621C563.81 65.3574 563.933 65.0615 563.95 64.7744L564.645 65.5566C564.604 65.8027 564.492 66.0752 564.311 66.374C564.129 66.6729 563.886 66.96 563.581 67.2354C563.282 67.5049 562.925 67.7305 562.509 67.9121C562.099 68.0879 561.636 68.1758 561.12 68.1758C560.476 68.1758 559.91 68.0498 559.424 67.7979C558.943 67.5459 558.568 67.209 558.299 66.7871C558.035 66.3594 557.903 65.8818 557.903 65.3545C557.903 64.8447 558.003 64.3965 558.202 64.0098C558.401 63.6172 558.688 63.292 559.063 63.0342C559.438 62.7705 559.89 62.5713 560.417 62.4365C560.944 62.3018 561.533 62.2344 562.184 62.2344H564.073ZM569.074 58.4902L571.157 61.9531L573.267 58.4902H575.174L572.062 63.1836L575.271 68H573.39L571.192 64.4316L568.995 68H567.105L570.305 63.1836L567.202 58.4902H569.074ZM580.781 58.4902V68H579.146V58.4902H580.781ZM583.972 58.4902V59.8086H576.018V58.4902H583.972ZM588.814 68.1758C588.152 68.1758 587.552 68.0645 587.013 67.8418C586.479 67.6133 586.02 67.2939 585.633 66.8838C585.252 66.4736 584.959 65.9873 584.754 65.4248C584.549 64.8623 584.446 64.2471 584.446 63.5791V63.21C584.446 62.4365 584.561 61.748 584.789 61.1445C585.018 60.5352 585.328 60.0195 585.721 59.5977C586.113 59.1758 586.559 58.8564 587.057 58.6396C587.555 58.4229 588.07 58.3145 588.604 58.3145C589.283 58.3145 589.869 58.4316 590.361 58.666C590.859 58.9004 591.267 59.2285 591.583 59.6504C591.899 60.0664 592.134 60.5586 592.286 61.127C592.438 61.6895 592.515 62.3047 592.515 62.9727V63.7021H585.413V62.375H590.889V62.252C590.865 61.8301 590.777 61.4199 590.625 61.0215C590.479 60.623 590.244 60.2949 589.922 60.0371C589.6 59.7793 589.16 59.6504 588.604 59.6504C588.234 59.6504 587.895 59.7295 587.584 59.8877C587.273 60.04 587.007 60.2686 586.784 60.5732C586.562 60.8779 586.389 61.25 586.266 61.6895C586.143 62.1289 586.081 62.6357 586.081 63.21V63.5791C586.081 64.0303 586.143 64.4551 586.266 64.8535C586.395 65.2461 586.579 65.5918 586.819 65.8906C587.065 66.1895 587.361 66.4238 587.707 66.5938C588.059 66.7637 588.457 66.8486 588.902 66.8486C589.477 66.8486 589.963 66.7314 590.361 66.4971C590.76 66.2627 591.108 65.9492 591.407 65.5566L592.392 66.3389C592.187 66.6494 591.926 66.9453 591.609 67.2266C591.293 67.5078 590.903 67.7363 590.44 67.9121C589.983 68.0879 589.441 68.1758 588.814 68.1758ZM596.039 60.3184V71.6562H594.404V58.4902H595.898L596.039 60.3184ZM602.446 63.166V63.3506C602.446 64.042 602.364 64.6836 602.2 65.2754C602.036 65.8613 601.796 66.3711 601.479 66.8047C601.169 67.2383 600.785 67.5752 600.328 67.8154C599.871 68.0557 599.347 68.1758 598.755 68.1758C598.151 68.1758 597.618 68.0762 597.155 67.877C596.692 67.6777 596.3 67.3877 595.978 67.0068C595.655 66.626 595.397 66.1689 595.204 65.6357C595.017 65.1025 594.888 64.502 594.817 63.834V62.8496C594.888 62.1465 595.02 61.5166 595.213 60.96C595.406 60.4033 595.661 59.9287 595.978 59.5361C596.3 59.1377 596.689 58.8359 597.146 58.6309C597.604 58.4199 598.131 58.3145 598.729 58.3145C599.326 58.3145 599.856 58.4316 600.319 58.666C600.782 58.8945 601.172 59.2227 601.488 59.6504C601.805 60.0781 602.042 60.5908 602.2 61.1885C602.364 61.7803 602.446 62.4395 602.446 63.166ZM600.812 63.3506V63.166C600.812 62.6914 600.762 62.2461 600.662 61.8301C600.562 61.4082 600.407 61.0391 600.196 60.7227C599.991 60.4004 599.728 60.1484 599.405 59.9668C599.083 59.7793 598.699 59.6855 598.254 59.6855C597.844 59.6855 597.486 59.7559 597.182 59.8965C596.883 60.0371 596.628 60.2275 596.417 60.4678C596.206 60.7021 596.033 60.9717 595.898 61.2764C595.77 61.5752 595.673 61.8857 595.608 62.208V64.4844C595.726 64.8945 595.89 65.2812 596.101 65.6445C596.312 66.002 596.593 66.292 596.944 66.5146C597.296 66.7314 597.738 66.8398 598.271 66.8398C598.711 66.8398 599.089 66.749 599.405 66.5674C599.728 66.3799 599.991 66.125 600.196 65.8027C600.407 65.4805 600.562 65.1113 600.662 64.6953C600.762 64.2734 600.812 63.8252 600.812 63.3506ZM608.326 66.8398C608.713 66.8398 609.07 66.7607 609.398 66.6025C609.727 66.4443 609.996 66.2275 610.207 65.9521C610.418 65.6709 610.538 65.3516 610.567 64.9941H612.114C612.085 65.5566 611.895 66.0811 611.543 66.5674C611.197 67.0479 610.743 67.4375 610.181 67.7363C609.618 68.0293 609 68.1758 608.326 68.1758C607.611 68.1758 606.987 68.0498 606.454 67.7979C605.927 67.5459 605.487 67.2002 605.136 66.7607C604.79 66.3213 604.529 65.8174 604.354 65.249C604.184 64.6748 604.099 64.0684 604.099 63.4297V63.0605C604.099 62.4219 604.184 61.8184 604.354 61.25C604.529 60.6758 604.79 60.1689 605.136 59.7295C605.487 59.29 605.927 58.9443 606.454 58.6924C606.987 58.4404 607.611 58.3145 608.326 58.3145C609.07 58.3145 609.721 58.4668 610.277 58.7715C610.834 59.0703 611.271 59.4805 611.587 60.002C611.909 60.5176 612.085 61.1035 612.114 61.7598H610.567C610.538 61.3672 610.427 61.0127 610.233 60.6963C610.046 60.3799 609.788 60.1279 609.46 59.9404C609.138 59.7471 608.76 59.6504 608.326 59.6504C607.828 59.6504 607.409 59.75 607.069 59.9492C606.735 60.1426 606.469 60.4062 606.27 60.7402C606.076 61.0684 605.936 61.4346 605.848 61.8389C605.766 62.2373 605.725 62.6445 605.725 63.0605V63.4297C605.725 63.8457 605.766 64.2559 605.848 64.6602C605.93 65.0645 606.067 65.4307 606.261 65.7588C606.46 66.0869 606.727 66.3506 607.061 66.5498C607.4 66.7432 607.822 66.8398 608.326 66.8398ZM615.709 58.4902V68H614.083V58.4902H615.709ZM621.949 58.4902L617.44 63.9395H615.164L614.918 62.5156H616.781L619.972 58.4902H621.949ZM620.2 68L616.702 63.6934L617.748 62.5156L622.266 68H620.2Z" fill="white"/>
<path d="M193.305 229.203V242H191.608V229.203H193.305ZM196.24 235.065V236.401H193.199V235.065H196.24ZM205.425 235.197V236.006C205.425 236.967 205.305 237.828 205.064 238.59C204.824 239.352 204.479 239.999 204.027 240.532C203.576 241.065 203.034 241.473 202.401 241.754C201.774 242.035 201.071 242.176 200.292 242.176C199.536 242.176 198.842 242.035 198.209 241.754C197.582 241.473 197.037 241.065 196.574 240.532C196.117 239.999 195.763 239.352 195.511 238.59C195.259 237.828 195.133 236.967 195.133 236.006V235.197C195.133 234.236 195.256 233.378 195.502 232.622C195.754 231.86 196.108 231.213 196.565 230.68C197.022 230.141 197.564 229.73 198.191 229.449C198.824 229.168 199.519 229.027 200.274 229.027C201.054 229.027 201.757 229.168 202.384 229.449C203.017 229.73 203.559 230.141 204.01 230.68C204.467 231.213 204.815 231.86 205.056 232.622C205.302 233.378 205.425 234.236 205.425 235.197ZM203.746 236.006V235.18C203.746 234.418 203.667 233.744 203.509 233.158C203.356 232.572 203.131 232.08 202.832 231.682C202.533 231.283 202.167 230.981 201.733 230.776C201.306 230.571 200.819 230.469 200.274 230.469C199.747 230.469 199.27 230.571 198.842 230.776C198.42 230.981 198.057 231.283 197.752 231.682C197.453 232.08 197.222 232.572 197.058 233.158C196.894 233.744 196.812 234.418 196.812 235.18V236.006C196.812 236.773 196.894 237.453 197.058 238.045C197.222 238.631 197.456 239.126 197.761 239.53C198.071 239.929 198.438 240.23 198.859 240.436C199.287 240.641 199.765 240.743 200.292 240.743C200.843 240.743 201.332 240.641 201.76 240.436C202.188 240.23 202.548 239.929 202.841 239.53C203.14 239.126 203.365 238.631 203.518 238.045C203.67 237.453 203.746 236.773 203.746 236.006ZM210.224 237.86L206.62 232.49H208.58L211.041 236.428H212.939L212.702 237.86H210.224ZM211.111 237.693L208.352 242H206.295L210.083 236.516L211.111 237.693ZM213.774 232.49V242H212.148V232.49H213.774ZM219.32 232.49L215.717 237.86H213.238L212.983 236.428H214.891L217.352 232.49H219.32ZM217.58 242L214.812 237.693L215.857 236.516L219.637 242H217.58ZM227.591 236.612V237.931H222.563V236.612H227.591ZM222.906 232.49V242H221.28V232.49H222.906ZM228.909 232.49V242H227.274V232.49H228.909ZM231.098 237.351V237.148C231.098 236.463 231.197 235.827 231.396 235.241C231.596 234.649 231.883 234.137 232.258 233.703C232.633 233.264 233.087 232.924 233.62 232.684C234.153 232.438 234.751 232.314 235.413 232.314C236.081 232.314 236.682 232.438 237.215 232.684C237.754 232.924 238.211 233.264 238.586 233.703C238.967 234.137 239.257 234.649 239.456 235.241C239.655 235.827 239.755 236.463 239.755 237.148V237.351C239.755 238.036 239.655 238.672 239.456 239.258C239.257 239.844 238.967 240.356 238.586 240.796C238.211 241.229 237.757 241.569 237.224 241.815C236.696 242.056 236.099 242.176 235.431 242.176C234.763 242.176 234.162 242.056 233.629 241.815C233.096 241.569 232.639 241.229 232.258 240.796C231.883 240.356 231.596 239.844 231.396 239.258C231.197 238.672 231.098 238.036 231.098 237.351ZM232.724 237.148V237.351C232.724 237.825 232.779 238.273 232.891 238.695C233.002 239.111 233.169 239.48 233.392 239.803C233.62 240.125 233.904 240.38 234.244 240.567C234.584 240.749 234.979 240.84 235.431 240.84C235.876 240.84 236.266 240.749 236.6 240.567C236.939 240.38 237.221 240.125 237.443 239.803C237.666 239.48 237.833 239.111 237.944 238.695C238.062 238.273 238.12 237.825 238.12 237.351V237.148C238.12 236.68 238.062 236.237 237.944 235.821C237.833 235.399 237.663 235.027 237.435 234.705C237.212 234.377 236.931 234.119 236.591 233.932C236.257 233.744 235.864 233.65 235.413 233.65C234.968 233.65 234.575 233.744 234.235 233.932C233.901 234.119 233.62 234.377 233.392 234.705C233.169 235.027 233.002 235.399 232.891 235.821C232.779 236.237 232.724 236.68 232.724 237.148ZM245.178 235.892V237.228H240.889V235.892H245.178ZM254.74 237.931H256.428C256.34 238.739 256.108 239.463 255.733 240.102C255.358 240.74 254.828 241.247 254.143 241.622C253.457 241.991 252.602 242.176 251.576 242.176C250.826 242.176 250.144 242.035 249.528 241.754C248.919 241.473 248.395 241.074 247.955 240.559C247.516 240.037 247.176 239.413 246.936 238.687C246.701 237.954 246.584 237.14 246.584 236.243V234.969C246.584 234.072 246.701 233.261 246.936 232.534C247.176 231.802 247.519 231.175 247.964 230.653C248.415 230.132 248.957 229.73 249.59 229.449C250.223 229.168 250.935 229.027 251.726 229.027C252.692 229.027 253.51 229.209 254.178 229.572C254.846 229.936 255.364 230.439 255.733 231.084C256.108 231.723 256.34 232.464 256.428 233.308H254.74C254.658 232.71 254.506 232.197 254.283 231.77C254.061 231.336 253.744 231.002 253.334 230.768C252.924 230.533 252.388 230.416 251.726 230.416C251.157 230.416 250.656 230.524 250.223 230.741C249.795 230.958 249.435 231.266 249.142 231.664C248.854 232.062 248.638 232.54 248.491 233.097C248.345 233.653 248.271 234.271 248.271 234.951V236.243C248.271 236.87 248.336 237.459 248.465 238.01C248.6 238.561 248.802 239.044 249.071 239.46C249.341 239.876 249.684 240.204 250.1 240.444C250.516 240.679 251.008 240.796 251.576 240.796C252.297 240.796 252.871 240.682 253.299 240.453C253.727 240.225 254.049 239.896 254.266 239.469C254.488 239.041 254.646 238.528 254.74 237.931ZM264.101 240.374V235.479C264.101 235.104 264.024 234.778 263.872 234.503C263.726 234.222 263.503 234.005 263.204 233.853C262.905 233.7 262.536 233.624 262.097 233.624C261.687 233.624 261.326 233.694 261.016 233.835C260.711 233.976 260.471 234.16 260.295 234.389C260.125 234.617 260.04 234.863 260.04 235.127H258.414C258.414 234.787 258.502 234.45 258.678 234.116C258.854 233.782 259.105 233.48 259.434 233.211C259.768 232.936 260.166 232.719 260.629 232.561C261.098 232.396 261.619 232.314 262.193 232.314C262.885 232.314 263.494 232.432 264.021 232.666C264.555 232.9 264.971 233.255 265.27 233.729C265.574 234.198 265.727 234.787 265.727 235.496V239.926C265.727 240.242 265.753 240.579 265.806 240.937C265.864 241.294 265.949 241.602 266.061 241.859V242H264.364C264.282 241.812 264.218 241.563 264.171 241.253C264.124 240.937 264.101 240.644 264.101 240.374ZM264.382 236.234L264.399 237.377H262.756C262.293 237.377 261.88 237.415 261.517 237.491C261.153 237.562 260.849 237.67 260.603 237.816C260.356 237.963 260.169 238.147 260.04 238.37C259.911 238.587 259.847 238.842 259.847 239.135C259.847 239.434 259.914 239.706 260.049 239.952C260.184 240.198 260.386 240.395 260.655 240.541C260.931 240.682 261.268 240.752 261.666 240.752C262.164 240.752 262.604 240.646 262.984 240.436C263.365 240.225 263.667 239.967 263.89 239.662C264.118 239.357 264.241 239.062 264.259 238.774L264.953 239.557C264.912 239.803 264.801 240.075 264.619 240.374C264.438 240.673 264.194 240.96 263.89 241.235C263.591 241.505 263.233 241.73 262.817 241.912C262.407 242.088 261.944 242.176 261.429 242.176C260.784 242.176 260.219 242.05 259.732 241.798C259.252 241.546 258.877 241.209 258.607 240.787C258.344 240.359 258.212 239.882 258.212 239.354C258.212 238.845 258.312 238.396 258.511 238.01C258.71 237.617 258.997 237.292 259.372 237.034C259.747 236.771 260.198 236.571 260.726 236.437C261.253 236.302 261.842 236.234 262.492 236.234H264.382ZM269.383 232.49L271.466 235.953L273.575 232.49H275.482L272.371 237.184L275.579 242H273.698L271.501 238.432L269.304 242H267.414L270.613 237.184L267.511 232.49H269.383ZM282.821 240.374V235.479C282.821 235.104 282.745 234.778 282.593 234.503C282.446 234.222 282.224 234.005 281.925 233.853C281.626 233.7 281.257 233.624 280.817 233.624C280.407 233.624 280.047 233.694 279.736 233.835C279.432 233.976 279.191 234.16 279.016 234.389C278.846 234.617 278.761 234.863 278.761 235.127H277.135C277.135 234.787 277.223 234.45 277.398 234.116C277.574 233.782 277.826 233.48 278.154 233.211C278.488 232.936 278.887 232.719 279.35 232.561C279.818 232.396 280.34 232.314 280.914 232.314C281.605 232.314 282.215 232.432 282.742 232.666C283.275 232.9 283.691 233.255 283.99 233.729C284.295 234.198 284.447 234.787 284.447 235.496V239.926C284.447 240.242 284.474 240.579 284.526 240.937C284.585 241.294 284.67 241.602 284.781 241.859V242H283.085C283.003 241.812 282.938 241.563 282.892 241.253C282.845 240.937 282.821 240.644 282.821 240.374ZM283.103 236.234L283.12 237.377H281.477C281.014 237.377 280.601 237.415 280.237 237.491C279.874 237.562 279.569 237.67 279.323 237.816C279.077 237.963 278.89 238.147 278.761 238.37C278.632 238.587 278.567 238.842 278.567 239.135C278.567 239.434 278.635 239.706 278.77 239.952C278.904 240.198 279.106 240.395 279.376 240.541C279.651 240.682 279.988 240.752 280.387 240.752C280.885 240.752 281.324 240.646 281.705 240.436C282.086 240.225 282.388 239.967 282.61 239.662C282.839 239.357 282.962 239.062 282.979 238.774L283.674 239.557C283.633 239.803 283.521 240.075 283.34 240.374C283.158 240.673 282.915 240.96 282.61 241.235C282.312 241.505 281.954 241.73 281.538 241.912C281.128 242.088 280.665 242.176 280.149 242.176C279.505 242.176 278.939 242.05 278.453 241.798C277.973 241.546 277.598 241.209 277.328 240.787C277.064 240.359 276.933 239.882 276.933 239.354C276.933 238.845 277.032 238.396 277.231 238.01C277.431 237.617 277.718 237.292 278.093 237.034C278.468 236.771 278.919 236.571 279.446 236.437C279.974 236.302 280.562 236.234 281.213 236.234H283.103ZM293.359 232.49V233.835H288.763V232.49H293.359ZM294.792 232.49V242H293.166V232.49H294.792ZM288.367 232.49H290.002L289.756 237.078C289.715 237.787 289.647 238.414 289.554 238.959C289.466 239.498 289.343 239.961 289.185 240.348C289.032 240.734 288.839 241.051 288.604 241.297C288.376 241.537 288.101 241.716 287.778 241.833C287.456 241.944 287.084 242 286.662 242H286.152V240.567L286.504 240.541C286.756 240.523 286.97 240.465 287.146 240.365C287.327 240.266 287.479 240.119 287.603 239.926C287.726 239.727 287.825 239.472 287.901 239.161C287.983 238.851 288.045 238.481 288.086 238.054C288.133 237.626 288.168 237.128 288.191 236.56L288.367 232.49ZM299.169 239.425L303.555 232.49H305.189V242H303.555V235.065L299.169 242H297.552V232.49H299.169V239.425ZM314.251 236.612V237.931H309.224V236.612H314.251ZM309.566 232.49V242H307.94V232.49H309.566ZM315.569 232.49V242H313.935V232.49H315.569ZM321.994 240.84C322.381 240.84 322.738 240.761 323.066 240.603C323.395 240.444 323.664 240.228 323.875 239.952C324.086 239.671 324.206 239.352 324.235 238.994H325.782C325.753 239.557 325.562 240.081 325.211 240.567C324.865 241.048 324.411 241.438 323.849 241.736C323.286 242.029 322.668 242.176 321.994 242.176C321.279 242.176 320.655 242.05 320.122 241.798C319.595 241.546 319.155 241.2 318.804 240.761C318.458 240.321 318.197 239.817 318.021 239.249C317.852 238.675 317.767 238.068 317.767 237.43V237.061C317.767 236.422 317.852 235.818 318.021 235.25C318.197 234.676 318.458 234.169 318.804 233.729C319.155 233.29 319.595 232.944 320.122 232.692C320.655 232.44 321.279 232.314 321.994 232.314C322.738 232.314 323.389 232.467 323.945 232.771C324.502 233.07 324.938 233.48 325.255 234.002C325.577 234.518 325.753 235.104 325.782 235.76H324.235C324.206 235.367 324.095 235.013 323.901 234.696C323.714 234.38 323.456 234.128 323.128 233.94C322.806 233.747 322.428 233.65 321.994 233.65C321.496 233.65 321.077 233.75 320.737 233.949C320.403 234.143 320.137 234.406 319.938 234.74C319.744 235.068 319.604 235.435 319.516 235.839C319.434 236.237 319.393 236.645 319.393 237.061V237.43C319.393 237.846 319.434 238.256 319.516 238.66C319.598 239.064 319.735 239.431 319.929 239.759C320.128 240.087 320.395 240.351 320.729 240.55C321.068 240.743 321.49 240.84 321.994 240.84ZM329.377 232.49V242H327.751V232.49H329.377ZM335.617 232.49L331.108 237.939H328.832L328.586 236.516H330.449L333.64 232.49H335.617ZM333.868 242L330.37 237.693L331.416 236.516L335.934 242H333.868Z" fill="white"/>
<path d="M203.584 125.203L206.66 130.107L209.736 125.203H211.714L207.671 131.54L211.811 138H209.815L206.66 132.999L203.505 138H201.51L205.649 131.54L201.606 125.203H203.584ZM212.9 133.351V133.148C212.9 132.463 213 131.827 213.199 131.241C213.398 130.649 213.686 130.137 214.061 129.703C214.436 129.264 214.89 128.924 215.423 128.684C215.956 128.438 216.554 128.314 217.216 128.314C217.884 128.314 218.484 128.438 219.018 128.684C219.557 128.924 220.014 129.264 220.389 129.703C220.77 130.137 221.06 130.649 221.259 131.241C221.458 131.827 221.558 132.463 221.558 133.148V133.351C221.558 134.036 221.458 134.672 221.259 135.258C221.06 135.844 220.77 136.356 220.389 136.796C220.014 137.229 219.56 137.569 219.026 137.815C218.499 138.056 217.901 138.176 217.233 138.176C216.565 138.176 215.965 138.056 215.432 137.815C214.898 137.569 214.441 137.229 214.061 136.796C213.686 136.356 213.398 135.844 213.199 135.258C213 134.672 212.9 134.036 212.9 133.351ZM214.526 133.148V133.351C214.526 133.825 214.582 134.273 214.693 134.695C214.805 135.111 214.972 135.48 215.194 135.803C215.423 136.125 215.707 136.38 216.047 136.567C216.387 136.749 216.782 136.84 217.233 136.84C217.679 136.84 218.068 136.749 218.402 136.567C218.742 136.38 219.023 136.125 219.246 135.803C219.469 135.48 219.636 135.111 219.747 134.695C219.864 134.273 219.923 133.825 219.923 133.351V133.148C219.923 132.68 219.864 132.237 219.747 131.821C219.636 131.399 219.466 131.027 219.237 130.705C219.015 130.377 218.733 130.119 218.394 129.932C218.06 129.744 217.667 129.65 217.216 129.65C216.771 129.65 216.378 129.744 216.038 129.932C215.704 130.119 215.423 130.377 215.194 130.705C214.972 131.027 214.805 131.399 214.693 131.821C214.582 132.237 214.526 132.68 214.526 133.148ZM229.811 128.49V129.835H225.214V128.49H229.811ZM231.243 128.49V138H229.617V128.49H231.243ZM224.818 128.49H226.453L226.207 133.078C226.166 133.787 226.099 134.414 226.005 134.959C225.917 135.498 225.794 135.961 225.636 136.348C225.483 136.734 225.29 137.051 225.056 137.297C224.827 137.537 224.552 137.716 224.229 137.833C223.907 137.944 223.535 138 223.113 138H222.604V136.567L222.955 136.541C223.207 136.523 223.421 136.465 223.597 136.365C223.778 136.266 223.931 136.119 224.054 135.926C224.177 135.727 224.276 135.472 224.353 135.161C224.435 134.851 224.496 134.481 224.537 134.054C224.584 133.626 224.619 133.128 224.643 132.56L224.818 128.49ZM239.329 135.838L242.563 128.49H244.128L239.892 138H238.767L234.548 128.49H236.112L239.329 135.838ZM235.638 128.49V138H234.012V128.49H235.638ZM242.968 138V128.49H244.603V138H242.968ZM251.027 136.84C251.414 136.84 251.771 136.761 252.1 136.603C252.428 136.444 252.697 136.228 252.908 135.952C253.119 135.671 253.239 135.352 253.269 134.994H254.815C254.786 135.557 254.596 136.081 254.244 136.567C253.898 137.048 253.444 137.438 252.882 137.736C252.319 138.029 251.701 138.176 251.027 138.176C250.312 138.176 249.688 138.05 249.155 137.798C248.628 137.546 248.188 137.2 247.837 136.761C247.491 136.321 247.23 135.817 247.055 135.249C246.885 134.675 246.8 134.068 246.8 133.43V133.061C246.8 132.422 246.885 131.818 247.055 131.25C247.23 130.676 247.491 130.169 247.837 129.729C248.188 129.29 248.628 128.944 249.155 128.692C249.688 128.44 250.312 128.314 251.027 128.314C251.771 128.314 252.422 128.467 252.979 128.771C253.535 129.07 253.972 129.48 254.288 130.002C254.61 130.518 254.786 131.104 254.815 131.76H253.269C253.239 131.367 253.128 131.013 252.935 130.696C252.747 130.38 252.489 130.128 252.161 129.94C251.839 129.747 251.461 129.65 251.027 129.65C250.529 129.65 250.11 129.75 249.771 129.949C249.437 130.143 249.17 130.406 248.971 130.74C248.777 131.068 248.637 131.435 248.549 131.839C248.467 132.237 248.426 132.645 248.426 133.061V133.43C248.426 133.846 248.467 134.256 248.549 134.66C248.631 135.064 248.769 135.431 248.962 135.759C249.161 136.087 249.428 136.351 249.762 136.55C250.102 136.743 250.523 136.84 251.027 136.84ZM258.41 128.49V138H256.784V128.49H258.41ZM264.65 128.49L260.142 133.939H257.865L257.619 132.516H259.482L262.673 128.49H264.65ZM262.901 138L259.403 133.693L260.449 132.516L264.967 138H262.901Z" fill="white"/>
<path d="M257.214 95.2031V108H255.544V95.2031H257.214ZM261.327 95.2031V96.5918H251.439V95.2031H261.327ZM261.67 103.351V103.148C261.67 102.463 261.77 101.827 261.969 101.241C262.168 100.649 262.455 100.137 262.83 99.7031C263.205 99.2637 263.659 98.9238 264.192 98.6836C264.726 98.4375 265.323 98.3145 265.985 98.3145C266.653 98.3145 267.254 98.4375 267.787 98.6836C268.326 98.9238 268.783 99.2637 269.158 99.7031C269.539 100.137 269.829 100.649 270.028 101.241C270.228 101.827 270.327 102.463 270.327 103.148V103.351C270.327 104.036 270.228 104.672 270.028 105.258C269.829 105.844 269.539 106.356 269.158 106.796C268.783 107.229 268.329 107.569 267.796 107.815C267.269 108.056 266.671 108.176 266.003 108.176C265.335 108.176 264.734 108.056 264.201 107.815C263.668 107.569 263.211 107.229 262.83 106.796C262.455 106.356 262.168 105.844 261.969 105.258C261.77 104.672 261.67 104.036 261.67 103.351ZM263.296 103.148V103.351C263.296 103.825 263.352 104.273 263.463 104.695C263.574 105.111 263.741 105.48 263.964 105.803C264.192 106.125 264.477 106.38 264.816 106.567C265.156 106.749 265.552 106.84 266.003 106.84C266.448 106.84 266.838 106.749 267.172 106.567C267.512 106.38 267.793 106.125 268.016 105.803C268.238 105.48 268.405 105.111 268.517 104.695C268.634 104.273 268.692 103.825 268.692 103.351V103.148C268.692 102.68 268.634 102.237 268.517 101.821C268.405 101.399 268.235 101.027 268.007 100.705C267.784 100.377 267.503 100.119 267.163 99.9316C266.829 99.7441 266.437 99.6504 265.985 99.6504C265.54 99.6504 265.147 99.7441 264.808 99.9316C264.474 100.119 264.192 100.377 263.964 100.705C263.741 101.027 263.574 101.399 263.463 101.821C263.352 102.237 263.296 102.68 263.296 103.148ZM277.833 105.838L281.067 98.4902H282.632L278.396 108H277.271L273.052 98.4902H274.616L277.833 105.838ZM274.142 98.4902V108H272.516V98.4902H274.142ZM281.472 108V98.4902H283.106V108H281.472ZM291.333 106.374V101.479C291.333 101.104 291.257 100.778 291.104 100.503C290.958 100.222 290.735 100.005 290.437 99.8525C290.138 99.7002 289.769 99.624 289.329 99.624C288.919 99.624 288.559 99.6943 288.248 99.835C287.943 99.9756 287.703 100.16 287.527 100.389C287.357 100.617 287.272 100.863 287.272 101.127H285.646C285.646 100.787 285.734 100.45 285.91 100.116C286.086 99.7822 286.338 99.4805 286.666 99.2109C287 98.9355 287.398 98.7188 287.861 98.5605C288.33 98.3965 288.852 98.3145 289.426 98.3145C290.117 98.3145 290.727 98.4316 291.254 98.666C291.787 98.9004 292.203 99.2549 292.502 99.7295C292.807 100.198 292.959 100.787 292.959 101.496V105.926C292.959 106.242 292.985 106.579 293.038 106.937C293.097 107.294 293.182 107.602 293.293 107.859V108H291.597C291.515 107.812 291.45 107.563 291.403 107.253C291.356 106.937 291.333 106.644 291.333 106.374ZM291.614 102.234L291.632 103.377H289.988C289.525 103.377 289.112 103.415 288.749 103.491C288.386 103.562 288.081 103.67 287.835 103.816C287.589 103.963 287.401 104.147 287.272 104.37C287.144 104.587 287.079 104.842 287.079 105.135C287.079 105.434 287.146 105.706 287.281 105.952C287.416 106.198 287.618 106.395 287.888 106.541C288.163 106.682 288.5 106.752 288.898 106.752C289.396 106.752 289.836 106.646 290.217 106.436C290.598 106.225 290.899 105.967 291.122 105.662C291.351 105.357 291.474 105.062 291.491 104.774L292.186 105.557C292.145 105.803 292.033 106.075 291.852 106.374C291.67 106.673 291.427 106.96 291.122 107.235C290.823 107.505 290.466 107.73 290.05 107.912C289.64 108.088 289.177 108.176 288.661 108.176C288.017 108.176 287.451 108.05 286.965 107.798C286.484 107.546 286.109 107.209 285.84 106.787C285.576 106.359 285.444 105.882 285.444 105.354C285.444 104.845 285.544 104.396 285.743 104.01C285.942 103.617 286.229 103.292 286.604 103.034C286.979 102.771 287.431 102.571 287.958 102.437C288.485 102.302 289.074 102.234 289.725 102.234H291.614ZM297.143 100.318V111.656H295.508V98.4902H297.002L297.143 100.318ZM303.55 103.166V103.351C303.55 104.042 303.468 104.684 303.304 105.275C303.14 105.861 302.899 106.371 302.583 106.805C302.272 107.238 301.889 107.575 301.432 107.815C300.975 108.056 300.45 108.176 299.858 108.176C299.255 108.176 298.722 108.076 298.259 107.877C297.796 107.678 297.403 107.388 297.081 107.007C296.759 106.626 296.501 106.169 296.308 105.636C296.12 105.103 295.991 104.502 295.921 103.834V102.85C295.991 102.146 296.123 101.517 296.316 100.96C296.51 100.403 296.765 99.9287 297.081 99.5361C297.403 99.1377 297.793 98.8359 298.25 98.6309C298.707 98.4199 299.234 98.3145 299.832 98.3145C300.43 98.3145 300.96 98.4316 301.423 98.666C301.886 98.8945 302.275 99.2227 302.592 99.6504C302.908 100.078 303.146 100.591 303.304 101.188C303.468 101.78 303.55 102.439 303.55 103.166ZM301.915 103.351V103.166C301.915 102.691 301.865 102.246 301.766 101.83C301.666 101.408 301.511 101.039 301.3 100.723C301.095 100.4 300.831 100.148 300.509 99.9668C300.187 99.7793 299.803 99.6855 299.357 99.6855C298.947 99.6855 298.59 99.7559 298.285 99.8965C297.986 100.037 297.731 100.228 297.521 100.468C297.31 100.702 297.137 100.972 297.002 101.276C296.873 101.575 296.776 101.886 296.712 102.208V104.484C296.829 104.895 296.993 105.281 297.204 105.645C297.415 106.002 297.696 106.292 298.048 106.515C298.399 106.731 298.842 106.84 299.375 106.84C299.814 106.84 300.192 106.749 300.509 106.567C300.831 106.38 301.095 106.125 301.3 105.803C301.511 105.48 301.666 105.111 301.766 104.695C301.865 104.273 301.915 103.825 301.915 103.351ZM307.382 105.425L311.768 98.4902H313.402V108H311.768V101.065L307.382 108H305.765V98.4902H307.382V105.425Z" fill="white"/>
<path d="M324.252 90.0645L330.554 80.2031H332.25V93H330.554V83.1299L324.252 93H322.564V80.2031H324.252V90.0645ZM341.602 83.4902V84.835H337.005V83.4902H341.602ZM343.034 83.4902V93H341.408V83.4902H343.034ZM336.609 83.4902H338.244L337.998 88.0781C337.957 88.7871 337.89 89.4141 337.796 89.959C337.708 90.498 337.585 90.9609 337.427 91.3477C337.274 91.7344 337.081 92.0508 336.847 92.2969C336.618 92.5371 336.343 92.7158 336.021 92.833C335.698 92.9443 335.326 93 334.904 93H334.395V91.5674L334.746 91.541C334.998 91.5234 335.212 91.4648 335.388 91.3652C335.569 91.2656 335.722 91.1191 335.845 90.9258C335.968 90.7266 336.067 90.4717 336.144 90.1611C336.226 89.8506 336.287 89.4814 336.328 89.0537C336.375 88.626 336.41 88.1279 336.434 87.5596L336.609 83.4902ZM346.989 86.7598H349.846C350.613 86.7598 351.261 86.8945 351.788 87.1641C352.315 87.4277 352.714 87.7939 352.983 88.2627C353.259 88.7256 353.396 89.2529 353.396 89.8447C353.396 90.2842 353.32 90.6973 353.168 91.084C353.016 91.4648 352.787 91.7988 352.482 92.0859C352.184 92.373 351.812 92.5986 351.366 92.7627C350.927 92.9209 350.42 93 349.846 93H345.803V83.4902H347.429V91.6641H349.846C350.314 91.6641 350.689 91.5791 350.971 91.4092C351.252 91.2393 351.454 91.0195 351.577 90.75C351.7 90.4805 351.762 90.1992 351.762 89.9062C351.762 89.6191 351.7 89.3379 351.577 89.0625C351.454 88.7871 351.252 88.5586 350.971 88.377C350.689 88.1895 350.314 88.0957 349.846 88.0957H346.989V86.7598ZM357.185 90.4248L361.57 83.4902H363.205V93H361.57V86.0654L357.185 93H355.567V83.4902H357.185V90.4248ZM372.267 87.6123V88.9307H367.239V87.6123H372.267ZM367.582 83.4902V93H365.956V83.4902H367.582ZM373.585 83.4902V93H371.95V83.4902H373.585ZM380.01 91.8398C380.396 91.8398 380.754 91.7607 381.082 91.6025C381.41 91.4443 381.68 91.2275 381.891 90.9521C382.102 90.6709 382.222 90.3516 382.251 89.9941H383.798C383.769 90.5566 383.578 91.0811 383.227 91.5674C382.881 92.0479 382.427 92.4375 381.864 92.7363C381.302 93.0293 380.684 93.1758 380.01 93.1758C379.295 93.1758 378.671 93.0498 378.138 92.7979C377.61 92.5459 377.171 92.2002 376.819 91.7607C376.474 91.3213 376.213 90.8174 376.037 90.249C375.867 89.6748 375.782 89.0684 375.782 88.4297V88.0605C375.782 87.4219 375.867 86.8184 376.037 86.25C376.213 85.6758 376.474 85.1689 376.819 84.7295C377.171 84.29 377.61 83.9443 378.138 83.6924C378.671 83.4404 379.295 83.3145 380.01 83.3145C380.754 83.3145 381.404 83.4668 381.961 83.7715C382.518 84.0703 382.954 84.4805 383.271 85.002C383.593 85.5176 383.769 86.1035 383.798 86.7598H382.251C382.222 86.3672 382.11 86.0127 381.917 85.6963C381.729 85.3799 381.472 85.1279 381.144 84.9404C380.821 84.7471 380.443 84.6504 380.01 84.6504C379.512 84.6504 379.093 84.75 378.753 84.9492C378.419 85.1426 378.152 85.4062 377.953 85.7402C377.76 86.0684 377.619 86.4346 377.531 86.8389C377.449 87.2373 377.408 87.6445 377.408 88.0605V88.4297C377.408 88.8457 377.449 89.2559 377.531 89.6602C377.613 90.0645 377.751 90.4307 377.944 90.7588C378.144 91.0869 378.41 91.3506 378.744 91.5498C379.084 91.7432 379.506 91.8398 380.01 91.8398ZM387.393 83.4902V93H385.767V83.4902H387.393ZM393.633 83.4902L389.124 88.9395H386.848L386.602 87.5156H388.465L391.655 83.4902H393.633ZM391.884 93L388.386 88.6934L389.432 87.5156L393.949 93H391.884ZM394.74 88.3506V88.1484C394.74 87.4629 394.84 86.8271 395.039 86.2412C395.238 85.6494 395.525 85.1367 395.9 84.7031C396.275 84.2637 396.729 83.9238 397.263 83.6836C397.796 83.4375 398.394 83.3145 399.056 83.3145C399.724 83.3145 400.324 83.4375 400.857 83.6836C401.396 83.9238 401.854 84.2637 402.229 84.7031C402.609 85.1367 402.899 85.6494 403.099 86.2412C403.298 86.8271 403.397 87.4629 403.397 88.1484V88.3506C403.397 89.0361 403.298 89.6719 403.099 90.2578C402.899 90.8438 402.609 91.3564 402.229 91.7959C401.854 92.2295 401.399 92.5693 400.866 92.8154C400.339 93.0557 399.741 93.1758 399.073 93.1758C398.405 93.1758 397.805 93.0557 397.271 92.8154C396.738 92.5693 396.281 92.2295 395.9 91.7959C395.525 91.3564 395.238 90.8438 395.039 90.2578C394.84 89.6719 394.74 89.0361 394.74 88.3506ZM396.366 88.1484V88.3506C396.366 88.8252 396.422 89.2734 396.533 89.6953C396.645 90.1113 396.812 90.4805 397.034 90.8027C397.263 91.125 397.547 91.3799 397.887 91.5674C398.227 91.749 398.622 91.8398 399.073 91.8398C399.519 91.8398 399.908 91.749 400.242 91.5674C400.582 91.3799 400.863 91.125 401.086 90.8027C401.309 90.4805 401.476 90.1113 401.587 89.6953C401.704 89.2734 401.763 88.8252 401.763 88.3506V88.1484C401.763 87.6797 401.704 87.2373 401.587 86.8213C401.476 86.3994 401.306 86.0273 401.077 85.7051C400.854 85.377 400.573 85.1191 400.233 84.9316C399.899 84.7441 399.507 84.6504 399.056 84.6504C398.61 84.6504 398.218 84.7441 397.878 84.9316C397.544 85.1191 397.263 85.377 397.034 85.7051C396.812 86.0273 396.645 86.3994 396.533 86.8213C396.422 87.2373 396.366 87.6797 396.366 88.1484ZM409.383 93.1758C408.721 93.1758 408.12 93.0645 407.581 92.8418C407.048 92.6133 406.588 92.2939 406.201 91.8838C405.82 91.4736 405.527 90.9873 405.322 90.4248C405.117 89.8623 405.015 89.2471 405.015 88.5791V88.21C405.015 87.4365 405.129 86.748 405.357 86.1445C405.586 85.5352 405.896 85.0195 406.289 84.5977C406.682 84.1758 407.127 83.8564 407.625 83.6396C408.123 83.4229 408.639 83.3145 409.172 83.3145C409.852 83.3145 410.438 83.4316 410.93 83.666C411.428 83.9004 411.835 84.2285 412.151 84.6504C412.468 85.0664 412.702 85.5586 412.854 86.127C413.007 86.6895 413.083 87.3047 413.083 87.9727V88.7021H405.981V87.375H411.457V87.252C411.434 86.8301 411.346 86.4199 411.193 86.0215C411.047 85.623 410.812 85.2949 410.49 85.0371C410.168 84.7793 409.729 84.6504 409.172 84.6504C408.803 84.6504 408.463 84.7295 408.152 84.8877C407.842 85.04 407.575 85.2686 407.353 85.5732C407.13 85.8779 406.957 86.25 406.834 86.6895C406.711 87.1289 406.649 87.6357 406.649 88.21V88.5791C406.649 89.0303 406.711 89.4551 406.834 89.8535C406.963 90.2461 407.147 90.5918 407.388 90.8906C407.634 91.1895 407.93 91.4238 408.275 91.5938C408.627 91.7637 409.025 91.8486 409.471 91.8486C410.045 91.8486 410.531 91.7314 410.93 91.4971C411.328 91.2627 411.677 90.9492 411.976 90.5566L412.96 91.3389C412.755 91.6494 412.494 91.9453 412.178 92.2266C411.861 92.5078 411.472 92.7363 411.009 92.9121C410.552 93.0879 410.01 93.1758 409.383 93.1758Z" fill="white"/>
<path d="M117.844 134.705V136.085H110.918V134.705H117.844ZM111.182 129.203V142H109.485V129.203H111.182ZM119.32 129.203V142H117.633V129.203H119.32ZM126.035 142.176C125.373 142.176 124.772 142.064 124.233 141.842C123.7 141.613 123.24 141.294 122.854 140.884C122.473 140.474 122.18 139.987 121.975 139.425C121.77 138.862 121.667 138.247 121.667 137.579V137.21C121.667 136.437 121.781 135.748 122.01 135.145C122.238 134.535 122.549 134.02 122.941 133.598C123.334 133.176 123.779 132.856 124.277 132.64C124.775 132.423 125.291 132.314 125.824 132.314C126.504 132.314 127.09 132.432 127.582 132.666C128.08 132.9 128.487 133.229 128.804 133.65C129.12 134.066 129.354 134.559 129.507 135.127C129.659 135.689 129.735 136.305 129.735 136.973V137.702H122.634V136.375H128.109V136.252C128.086 135.83 127.998 135.42 127.846 135.021C127.699 134.623 127.465 134.295 127.143 134.037C126.82 133.779 126.381 133.65 125.824 133.65C125.455 133.65 125.115 133.729 124.805 133.888C124.494 134.04 124.228 134.269 124.005 134.573C123.782 134.878 123.609 135.25 123.486 135.689C123.363 136.129 123.302 136.636 123.302 137.21V137.579C123.302 138.03 123.363 138.455 123.486 138.854C123.615 139.246 123.8 139.592 124.04 139.891C124.286 140.189 124.582 140.424 124.928 140.594C125.279 140.764 125.678 140.849 126.123 140.849C126.697 140.849 127.184 140.731 127.582 140.497C127.98 140.263 128.329 139.949 128.628 139.557L129.612 140.339C129.407 140.649 129.146 140.945 128.83 141.227C128.514 141.508 128.124 141.736 127.661 141.912C127.204 142.088 126.662 142.176 126.035 142.176ZM136.099 137.816H132.979L132.961 136.516H135.51C136.014 136.516 136.433 136.466 136.767 136.366C137.106 136.267 137.361 136.117 137.531 135.918C137.701 135.719 137.786 135.473 137.786 135.18C137.786 134.951 137.736 134.752 137.637 134.582C137.543 134.406 137.399 134.263 137.206 134.151C137.013 134.034 136.772 133.949 136.485 133.896C136.204 133.838 135.873 133.809 135.492 133.809H133.409V142H131.783V132.49H135.492C136.096 132.49 136.638 132.543 137.118 132.648C137.604 132.754 138.018 132.915 138.357 133.132C138.703 133.343 138.967 133.612 139.148 133.94C139.33 134.269 139.421 134.655 139.421 135.101C139.421 135.388 139.362 135.66 139.245 135.918C139.128 136.176 138.955 136.404 138.727 136.604C138.498 136.803 138.217 136.967 137.883 137.096C137.549 137.219 137.165 137.298 136.731 137.333L136.099 137.816ZM136.099 142H132.39L133.198 140.682H136.099C136.55 140.682 136.925 140.626 137.224 140.515C137.522 140.397 137.745 140.233 137.892 140.022C138.044 139.806 138.12 139.548 138.12 139.249C138.12 138.95 138.044 138.695 137.892 138.484C137.745 138.268 137.522 138.104 137.224 137.992C136.925 137.875 136.55 137.816 136.099 137.816H133.629L133.646 136.516H136.731L137.32 137.008C137.842 137.049 138.284 137.178 138.647 137.395C139.011 137.611 139.286 137.887 139.474 138.221C139.661 138.549 139.755 138.906 139.755 139.293C139.755 139.738 139.67 140.131 139.5 140.471C139.336 140.811 139.096 141.095 138.779 141.323C138.463 141.546 138.079 141.716 137.628 141.833C137.177 141.944 136.667 142 136.099 142ZM145.881 142.176C145.219 142.176 144.618 142.064 144.079 141.842C143.546 141.613 143.086 141.294 142.699 140.884C142.318 140.474 142.025 139.987 141.82 139.425C141.615 138.862 141.513 138.247 141.513 137.579V137.21C141.513 136.437 141.627 135.748 141.855 135.145C142.084 134.535 142.395 134.02 142.787 133.598C143.18 133.176 143.625 132.856 144.123 132.64C144.621 132.423 145.137 132.314 145.67 132.314C146.35 132.314 146.936 132.432 147.428 132.666C147.926 132.9 148.333 133.229 148.649 133.65C148.966 134.066 149.2 134.559 149.353 135.127C149.505 135.689 149.581 136.305 149.581 136.973V137.702H142.479V136.375H147.955V136.252C147.932 135.83 147.844 135.42 147.691 135.021C147.545 134.623 147.311 134.295 146.988 134.037C146.666 133.779 146.227 133.65 145.67 133.65C145.301 133.65 144.961 133.729 144.65 133.888C144.34 134.04 144.073 134.269 143.851 134.573C143.628 134.878 143.455 135.25 143.332 135.689C143.209 136.129 143.147 136.636 143.147 137.21V137.579C143.147 138.03 143.209 138.455 143.332 138.854C143.461 139.246 143.646 139.592 143.886 139.891C144.132 140.189 144.428 140.424 144.773 140.594C145.125 140.764 145.523 140.849 145.969 140.849C146.543 140.849 147.029 140.731 147.428 140.497C147.826 140.263 148.175 139.949 148.474 139.557L149.458 140.339C149.253 140.649 148.992 140.945 148.676 141.227C148.359 141.508 147.97 141.736 147.507 141.912C147.05 142.088 146.508 142.176 145.881 142.176ZM157.834 132.49V133.835H153.237V132.49H157.834ZM159.267 132.49V142H157.641V132.49H159.267ZM152.842 132.49H154.477L154.23 137.078C154.189 137.787 154.122 138.414 154.028 138.959C153.94 139.498 153.817 139.961 153.659 140.348C153.507 140.734 153.313 141.051 153.079 141.297C152.851 141.537 152.575 141.716 152.253 141.833C151.931 141.944 151.559 142 151.137 142H150.627V140.567L150.979 140.541C151.23 140.523 151.444 140.465 151.62 140.365C151.802 140.266 151.954 140.119 152.077 139.926C152.2 139.727 152.3 139.472 152.376 139.161C152.458 138.851 152.52 138.481 152.561 138.054C152.607 137.626 152.643 137.128 152.666 136.56L152.842 132.49ZM163.222 135.76H166.078C166.846 135.76 167.493 135.895 168.021 136.164C168.548 136.428 168.946 136.794 169.216 137.263C169.491 137.726 169.629 138.253 169.629 138.845C169.629 139.284 169.553 139.697 169.4 140.084C169.248 140.465 169.02 140.799 168.715 141.086C168.416 141.373 168.044 141.599 167.599 141.763C167.159 141.921 166.652 142 166.078 142H162.035V132.49H163.661V140.664H166.078C166.547 140.664 166.922 140.579 167.203 140.409C167.484 140.239 167.687 140.02 167.81 139.75C167.933 139.48 167.994 139.199 167.994 138.906C167.994 138.619 167.933 138.338 167.81 138.062C167.687 137.787 167.484 137.559 167.203 137.377C166.922 137.189 166.547 137.096 166.078 137.096H163.222V135.76ZM175.465 140.84C175.852 140.84 176.209 140.761 176.537 140.603C176.865 140.444 177.135 140.228 177.346 139.952C177.557 139.671 177.677 139.352 177.706 138.994H179.253C179.224 139.557 179.033 140.081 178.682 140.567C178.336 141.048 177.882 141.438 177.319 141.736C176.757 142.029 176.139 142.176 175.465 142.176C174.75 142.176 174.126 142.05 173.593 141.798C173.065 141.546 172.626 141.2 172.274 140.761C171.929 140.321 171.668 139.817 171.492 139.249C171.322 138.675 171.237 138.068 171.237 137.43V137.061C171.237 136.422 171.322 135.818 171.492 135.25C171.668 134.676 171.929 134.169 172.274 133.729C172.626 133.29 173.065 132.944 173.593 132.692C174.126 132.44 174.75 132.314 175.465 132.314C176.209 132.314 176.859 132.467 177.416 132.771C177.973 133.07 178.409 133.48 178.726 134.002C179.048 134.518 179.224 135.104 179.253 135.76H177.706C177.677 135.367 177.565 135.013 177.372 134.696C177.185 134.38 176.927 134.128 176.599 133.94C176.276 133.747 175.898 133.65 175.465 133.65C174.967 133.65 174.548 133.75 174.208 133.949C173.874 134.143 173.607 134.406 173.408 134.74C173.215 135.068 173.074 135.435 172.986 135.839C172.904 136.237 172.863 136.645 172.863 137.061V137.43C172.863 137.846 172.904 138.256 172.986 138.66C173.068 139.064 173.206 139.431 173.399 139.759C173.599 140.087 173.865 140.351 174.199 140.55C174.539 140.743 174.961 140.84 175.465 140.84ZM182.848 132.49V142H181.222V132.49H182.848ZM189.088 132.49L184.579 137.939H182.303L182.057 136.516H183.92L187.11 132.49H189.088ZM187.339 142L183.841 137.693L184.887 136.516L189.404 142H187.339Z" fill="white"/>
<path d="M19.4219 157.203V158.592H13.252V170H11.5645V157.203H19.4219ZM19.1758 165.351V165.148C19.1758 164.463 19.2754 163.827 19.4746 163.241C19.6738 162.649 19.9609 162.137 20.3359 161.703C20.7109 161.264 21.165 160.924 21.6982 160.684C22.2314 160.438 22.8291 160.314 23.4912 160.314C24.1592 160.314 24.7598 160.438 25.293 160.684C25.832 160.924 26.2891 161.264 26.6641 161.703C27.0449 162.137 27.335 162.649 27.5342 163.241C27.7334 163.827 27.833 164.463 27.833 165.148V165.351C27.833 166.036 27.7334 166.672 27.5342 167.258C27.335 167.844 27.0449 168.356 26.6641 168.796C26.2891 169.229 25.835 169.569 25.3018 169.815C24.7744 170.056 24.1768 170.176 23.5088 170.176C22.8408 170.176 22.2402 170.056 21.707 169.815C21.1738 169.569 20.7168 169.229 20.3359 168.796C19.9609 168.356 19.6738 167.844 19.4746 167.258C19.2754 166.672 19.1758 166.036 19.1758 165.351ZM20.8018 165.148V165.351C20.8018 165.825 20.8574 166.273 20.9688 166.695C21.0801 167.111 21.2471 167.48 21.4697 167.803C21.6982 168.125 21.9824 168.38 22.3223 168.567C22.6621 168.749 23.0576 168.84 23.5088 168.84C23.9541 168.84 24.3438 168.749 24.6777 168.567C25.0176 168.38 25.2988 168.125 25.5215 167.803C25.7441 167.48 25.9111 167.111 26.0225 166.695C26.1396 166.273 26.1982 165.825 26.1982 165.351V165.148C26.1982 164.68 26.1396 164.237 26.0225 163.821C25.9111 163.399 25.7412 163.027 25.5127 162.705C25.29 162.377 25.0088 162.119 24.6689 161.932C24.335 161.744 23.9424 161.65 23.4912 161.65C23.0459 161.65 22.6533 161.744 22.3135 161.932C21.9795 162.119 21.6982 162.377 21.4697 162.705C21.2471 163.027 21.0801 163.399 20.9688 163.821C20.8574 164.237 20.8018 164.68 20.8018 165.148ZM31.498 162.318V173.656H29.8633V160.49H31.3574L31.498 162.318ZM37.9053 165.166V165.351C37.9053 166.042 37.8232 166.684 37.6592 167.275C37.4951 167.861 37.2549 168.371 36.9385 168.805C36.6279 169.238 36.2441 169.575 35.7871 169.815C35.3301 170.056 34.8057 170.176 34.2139 170.176C33.6104 170.176 33.0771 170.076 32.6143 169.877C32.1514 169.678 31.7588 169.388 31.4365 169.007C31.1143 168.626 30.8564 168.169 30.6631 167.636C30.4756 167.103 30.3467 166.502 30.2764 165.834V164.85C30.3467 164.146 30.4785 163.517 30.6719 162.96C30.8652 162.403 31.1201 161.929 31.4365 161.536C31.7588 161.138 32.1484 160.836 32.6055 160.631C33.0625 160.42 33.5898 160.314 34.1875 160.314C34.7852 160.314 35.3154 160.432 35.7783 160.666C36.2412 160.895 36.6309 161.223 36.9473 161.65C37.2637 162.078 37.501 162.591 37.6592 163.188C37.8232 163.78 37.9053 164.439 37.9053 165.166ZM36.2705 165.351V165.166C36.2705 164.691 36.2207 164.246 36.1211 163.83C36.0215 163.408 35.8662 163.039 35.6553 162.723C35.4502 162.4 35.1865 162.148 34.8643 161.967C34.542 161.779 34.1582 161.686 33.7129 161.686C33.3027 161.686 32.9453 161.756 32.6406 161.896C32.3418 162.037 32.0869 162.228 31.876 162.468C31.665 162.702 31.4922 162.972 31.3574 163.276C31.2285 163.575 31.1318 163.886 31.0674 164.208V166.484C31.1846 166.895 31.3486 167.281 31.5596 167.645C31.7705 168.002 32.0518 168.292 32.4033 168.515C32.7549 168.731 33.1973 168.84 33.7305 168.84C34.1699 168.84 34.5479 168.749 34.8643 168.567C35.1865 168.38 35.4502 168.125 35.6553 167.803C35.8662 167.48 36.0215 167.111 36.1211 166.695C36.2207 166.273 36.2705 165.825 36.2705 165.351ZM46.4307 164.612V165.931H41.4033V164.612H46.4307ZM41.7461 160.49V170H40.1201V160.49H41.7461ZM47.749 160.49V170H46.1143V160.49H47.749ZM49.9375 165.351V165.148C49.9375 164.463 50.0371 163.827 50.2363 163.241C50.4355 162.649 50.7227 162.137 51.0977 161.703C51.4727 161.264 51.9268 160.924 52.46 160.684C52.9932 160.438 53.5908 160.314 54.2529 160.314C54.9209 160.314 55.5215 160.438 56.0547 160.684C56.5938 160.924 57.0508 161.264 57.4258 161.703C57.8066 162.137 58.0967 162.649 58.2959 163.241C58.4951 163.827 58.5947 164.463 58.5947 165.148V165.351C58.5947 166.036 58.4951 166.672 58.2959 167.258C58.0967 167.844 57.8066 168.356 57.4258 168.796C57.0508 169.229 56.5967 169.569 56.0635 169.815C55.5361 170.056 54.9385 170.176 54.2705 170.176C53.6025 170.176 53.002 170.056 52.4688 169.815C51.9355 169.569 51.4785 169.229 51.0977 168.796C50.7227 168.356 50.4355 167.844 50.2363 167.258C50.0371 166.672 49.9375 166.036 49.9375 165.351ZM51.5635 165.148V165.351C51.5635 165.825 51.6191 166.273 51.7305 166.695C51.8418 167.111 52.0088 167.48 52.2314 167.803C52.46 168.125 52.7441 168.38 53.084 168.567C53.4238 168.749 53.8193 168.84 54.2705 168.84C54.7158 168.84 55.1055 168.749 55.4395 168.567C55.7793 168.38 56.0605 168.125 56.2832 167.803C56.5059 167.48 56.6729 167.111 56.7842 166.695C56.9014 166.273 56.96 165.825 56.96 165.351V165.148C56.96 164.68 56.9014 164.237 56.7842 163.821C56.6729 163.399 56.5029 163.027 56.2744 162.705C56.0518 162.377 55.7705 162.119 55.4307 161.932C55.0967 161.744 54.7041 161.65 54.2529 161.65C53.8076 161.65 53.415 161.744 53.0752 161.932C52.7412 162.119 52.46 162.377 52.2314 162.705C52.0088 163.027 51.8418 163.399 51.7305 163.821C51.6191 164.237 51.5635 164.68 51.5635 165.148ZM64.1846 165.456H62.4355V164.454H64.0527C64.5039 164.454 64.8613 164.398 65.125 164.287C65.3887 164.17 65.5762 164.009 65.6875 163.804C65.7988 163.599 65.8545 163.358 65.8545 163.083C65.8545 162.837 65.79 162.605 65.6611 162.389C65.5381 162.166 65.3389 161.987 65.0635 161.853C64.7881 161.712 64.4189 161.642 63.9561 161.642C63.5811 161.642 63.2412 161.709 62.9365 161.844C62.6318 161.973 62.3887 162.151 62.207 162.38C62.0312 162.603 61.9434 162.854 61.9434 163.136H60.3174C60.3174 162.556 60.4814 162.058 60.8096 161.642C61.1436 161.22 61.5859 160.895 62.1367 160.666C62.6934 160.438 63.2998 160.323 63.9561 160.323C64.5068 160.323 64.999 160.385 65.4326 160.508C65.8721 160.625 66.2441 160.801 66.5488 161.035C66.8535 161.264 67.085 161.551 67.2432 161.896C67.4072 162.236 67.4893 162.632 67.4893 163.083C67.4893 163.405 67.4131 163.71 67.2607 163.997C67.1084 164.284 66.8887 164.539 66.6016 164.762C66.3145 164.979 65.9658 165.148 65.5557 165.271C65.1514 165.395 64.6943 165.456 64.1846 165.456ZM62.4355 164.841H64.1846C64.7529 164.841 65.2539 164.896 65.6875 165.008C66.1211 165.113 66.4844 165.271 66.7773 165.482C67.0703 165.693 67.29 165.954 67.4365 166.265C67.5889 166.569 67.665 166.921 67.665 167.319C67.665 167.765 67.5742 168.166 67.3926 168.523C67.2168 168.875 66.9648 169.174 66.6367 169.42C66.3086 169.666 65.916 169.854 65.459 169.982C65.0078 170.111 64.5068 170.176 63.9561 170.176C63.3408 170.176 62.7432 170.07 62.1631 169.859C61.583 169.648 61.1055 169.323 60.7305 168.884C60.3555 168.438 60.168 167.873 60.168 167.188H61.7939C61.7939 167.475 61.8848 167.747 62.0664 168.005C62.248 168.263 62.5 168.471 62.8223 168.629C63.1504 168.787 63.5283 168.866 63.9561 168.866C64.4131 168.866 64.7939 168.796 65.0986 168.655C65.4033 168.515 65.6318 168.327 65.7842 168.093C65.9424 167.858 66.0215 167.604 66.0215 167.328C66.0215 166.971 65.9512 166.684 65.8105 166.467C65.6699 166.25 65.4531 166.092 65.1602 165.992C64.873 165.887 64.5039 165.834 64.0527 165.834H62.4355V164.841ZM75.3818 168.374V163.479C75.3818 163.104 75.3057 162.778 75.1533 162.503C75.0068 162.222 74.7842 162.005 74.4854 161.853C74.1865 161.7 73.8174 161.624 73.3779 161.624C72.9678 161.624 72.6074 161.694 72.2969 161.835C71.9922 161.976 71.752 162.16 71.5762 162.389C71.4062 162.617 71.3213 162.863 71.3213 163.127H69.6953C69.6953 162.787 69.7832 162.45 69.959 162.116C70.1348 161.782 70.3867 161.48 70.7148 161.211C71.0488 160.936 71.4473 160.719 71.9102 160.561C72.3789 160.396 72.9004 160.314 73.4746 160.314C74.166 160.314 74.7754 160.432 75.3027 160.666C75.8359 160.9 76.252 161.255 76.5508 161.729C76.8555 162.198 77.0078 162.787 77.0078 163.496V167.926C77.0078 168.242 77.0342 168.579 77.0869 168.937C77.1455 169.294 77.2305 169.602 77.3418 169.859V170H75.6455C75.5635 169.812 75.499 169.563 75.4521 169.253C75.4053 168.937 75.3818 168.644 75.3818 168.374ZM75.6631 164.234L75.6807 165.377H74.0371C73.5742 165.377 73.1611 165.415 72.7979 165.491C72.4346 165.562 72.1299 165.67 71.8838 165.816C71.6377 165.963 71.4502 166.147 71.3213 166.37C71.1924 166.587 71.1279 166.842 71.1279 167.135C71.1279 167.434 71.1953 167.706 71.3301 167.952C71.4648 168.198 71.667 168.395 71.9365 168.541C72.2119 168.682 72.5488 168.752 72.9473 168.752C73.4453 168.752 73.8848 168.646 74.2656 168.436C74.6465 168.225 74.9482 167.967 75.1709 167.662C75.3994 167.357 75.5225 167.062 75.54 166.774L76.2344 167.557C76.1934 167.803 76.082 168.075 75.9004 168.374C75.7188 168.673 75.4756 168.96 75.1709 169.235C74.8721 169.505 74.5146 169.73 74.0986 169.912C73.6885 170.088 73.2256 170.176 72.71 170.176C72.0654 170.176 71.5 170.05 71.0137 169.798C70.5332 169.546 70.1582 169.209 69.8887 168.787C69.625 168.359 69.4932 167.882 69.4932 167.354C69.4932 166.845 69.5928 166.396 69.792 166.01C69.9912 165.617 70.2783 165.292 70.6533 165.034C71.0283 164.771 71.4795 164.571 72.0068 164.437C72.5342 164.302 73.123 164.234 73.7734 164.234H75.6631ZM84.0303 165.816H80.9102L80.8926 164.516H83.4414C83.9453 164.516 84.3643 164.466 84.6982 164.366C85.0381 164.267 85.293 164.117 85.4629 163.918C85.6328 163.719 85.7178 163.473 85.7178 163.18C85.7178 162.951 85.668 162.752 85.5684 162.582C85.4746 162.406 85.3311 162.263 85.1377 162.151C84.9443 162.034 84.7041 161.949 84.417 161.896C84.1357 161.838 83.8047 161.809 83.4238 161.809H81.3408V170H79.7148V160.49H83.4238C84.0273 160.49 84.5693 160.543 85.0498 160.648C85.5361 160.754 85.9492 160.915 86.2891 161.132C86.6348 161.343 86.8984 161.612 87.0801 161.94C87.2617 162.269 87.3525 162.655 87.3525 163.101C87.3525 163.388 87.2939 163.66 87.1768 163.918C87.0596 164.176 86.8867 164.404 86.6582 164.604C86.4297 164.803 86.1484 164.967 85.8145 165.096C85.4805 165.219 85.0967 165.298 84.6631 165.333L84.0303 165.816ZM84.0303 170H80.3213L81.1299 168.682H84.0303C84.4814 168.682 84.8564 168.626 85.1553 168.515C85.4541 168.397 85.6768 168.233 85.8232 168.022C85.9756 167.806 86.0518 167.548 86.0518 167.249C86.0518 166.95 85.9756 166.695 85.8232 166.484C85.6768 166.268 85.4541 166.104 85.1553 165.992C84.8564 165.875 84.4814 165.816 84.0303 165.816H81.5605L81.5781 164.516H84.6631L85.252 165.008C85.7734 165.049 86.2158 165.178 86.5791 165.395C86.9424 165.611 87.2178 165.887 87.4053 166.221C87.5928 166.549 87.6865 166.906 87.6865 167.293C87.6865 167.738 87.6016 168.131 87.4316 168.471C87.2676 168.811 87.0273 169.095 86.7109 169.323C86.3945 169.546 86.0107 169.716 85.5596 169.833C85.1084 169.944 84.5986 170 84.0303 170ZM89.4355 165.351V165.148C89.4355 164.463 89.5352 163.827 89.7344 163.241C89.9336 162.649 90.2207 162.137 90.5957 161.703C90.9707 161.264 91.4248 160.924 91.958 160.684C92.4912 160.438 93.0889 160.314 93.751 160.314C94.4189 160.314 95.0195 160.438 95.5527 160.684C96.0918 160.924 96.5488 161.264 96.9238 161.703C97.3047 162.137 97.5947 162.649 97.7939 163.241C97.9932 163.827 98.0928 164.463 98.0928 165.148V165.351C98.0928 166.036 97.9932 166.672 97.7939 167.258C97.5947 167.844 97.3047 168.356 96.9238 168.796C96.5488 169.229 96.0947 169.569 95.5615 169.815C95.0342 170.056 94.4365 170.176 93.7686 170.176C93.1006 170.176 92.5 170.056 91.9668 169.815C91.4336 169.569 90.9766 169.229 90.5957 168.796C90.2207 168.356 89.9336 167.844 89.7344 167.258C89.5352 166.672 89.4355 166.036 89.4355 165.351ZM91.0615 165.148V165.351C91.0615 165.825 91.1172 166.273 91.2285 166.695C91.3398 167.111 91.5068 167.48 91.7295 167.803C91.958 168.125 92.2422 168.38 92.582 168.567C92.9219 168.749 93.3174 168.84 93.7686 168.84C94.2139 168.84 94.6035 168.749 94.9375 168.567C95.2773 168.38 95.5586 168.125 95.7812 167.803C96.0039 167.48 96.1709 167.111 96.2822 166.695C96.3994 166.273 96.458 165.825 96.458 165.351V165.148C96.458 164.68 96.3994 164.237 96.2822 163.821C96.1709 163.399 96.001 163.027 95.7725 162.705C95.5498 162.377 95.2686 162.119 94.9287 161.932C94.5947 161.744 94.2021 161.65 93.751 161.65C93.3057 161.65 92.9131 161.744 92.5732 161.932C92.2393 162.119 91.958 162.377 91.7295 162.705C91.5068 163.027 91.3398 163.399 91.2285 163.821C91.1172 164.237 91.0615 164.68 91.0615 165.148ZM101.213 160.49H102.839L102.698 164.05C102.663 164.952 102.561 165.731 102.391 166.388C102.221 167.044 102.004 167.604 101.74 168.066C101.477 168.523 101.181 168.907 100.853 169.218C100.53 169.528 100.196 169.789 99.8506 170H99.042L99.0859 168.673L99.4199 168.664C99.6133 168.436 99.8008 168.201 99.9824 167.961C100.164 167.715 100.331 167.425 100.483 167.091C100.636 166.751 100.762 166.338 100.861 165.852C100.967 165.359 101.034 164.759 101.063 164.05L101.213 160.49ZM101.617 160.49H107.339V170H105.713V161.993H101.617V160.49ZM98.6729 168.664H108.561V172.804H106.935V170H100.299V172.804H98.6641L98.6729 168.664ZM114.168 168.84C114.555 168.84 114.912 168.761 115.24 168.603C115.568 168.444 115.838 168.228 116.049 167.952C116.26 167.671 116.38 167.352 116.409 166.994H117.956C117.927 167.557 117.736 168.081 117.385 168.567C117.039 169.048 116.585 169.438 116.022 169.736C115.46 170.029 114.842 170.176 114.168 170.176C113.453 170.176 112.829 170.05 112.296 169.798C111.769 169.546 111.329 169.2 110.978 168.761C110.632 168.321 110.371 167.817 110.195 167.249C110.025 166.675 109.94 166.068 109.94 165.43V165.061C109.94 164.422 110.025 163.818 110.195 163.25C110.371 162.676 110.632 162.169 110.978 161.729C111.329 161.29 111.769 160.944 112.296 160.692C112.829 160.44 113.453 160.314 114.168 160.314C114.912 160.314 115.562 160.467 116.119 160.771C116.676 161.07 117.112 161.48 117.429 162.002C117.751 162.518 117.927 163.104 117.956 163.76H116.409C116.38 163.367 116.269 163.013 116.075 162.696C115.888 162.38 115.63 162.128 115.302 161.94C114.979 161.747 114.602 161.65 114.168 161.65C113.67 161.65 113.251 161.75 112.911 161.949C112.577 162.143 112.311 162.406 112.111 162.74C111.918 163.068 111.777 163.435 111.689 163.839C111.607 164.237 111.566 164.645 111.566 165.061V165.43C111.566 165.846 111.607 166.256 111.689 166.66C111.771 167.064 111.909 167.431 112.103 167.759C112.302 168.087 112.568 168.351 112.902 168.55C113.242 168.743 113.664 168.84 114.168 168.84ZM121.551 160.49V170H119.925V160.49H121.551ZM127.791 160.49L123.282 165.939H121.006L120.76 164.516H122.623L125.813 160.49H127.791ZM126.042 170L122.544 165.693L123.59 164.516L128.107 170H126.042Z" fill="white"/>
<path d="M1.54688 209.203H3.25195V220.62H7.64648V209.203H9.33398V220.62H13.7021V209.203H15.3984V222H1.54688V209.203ZM22.1309 222.176C21.4688 222.176 20.8682 222.064 20.3291 221.842C19.7959 221.613 19.3359 221.294 18.9492 220.884C18.5684 220.474 18.2754 219.987 18.0703 219.425C17.8652 218.862 17.7627 218.247 17.7627 217.579V217.21C17.7627 216.437 17.877 215.748 18.1055 215.145C18.334 214.535 18.6445 214.02 19.0371 213.598C19.4297 213.176 19.875 212.856 20.373 212.64C20.8711 212.423 21.3867 212.314 21.9199 212.314C22.5996 212.314 23.1855 212.432 23.6777 212.666C24.1758 212.9 24.583 213.229 24.8994 213.65C25.2158 214.066 25.4502 214.559 25.6025 215.127C25.7549 215.689 25.8311 216.305 25.8311 216.973V217.702H18.7295V216.375H24.2051V216.252C24.1816 215.83 24.0938 215.42 23.9414 215.021C23.7949 214.623 23.5605 214.295 23.2383 214.037C22.916 213.779 22.4766 213.65 21.9199 213.65C21.5508 213.65 21.2109 213.729 20.9004 213.888C20.5898 214.04 20.3232 214.269 20.1006 214.573C19.8779 214.878 19.7051 215.25 19.582 215.689C19.459 216.129 19.3975 216.636 19.3975 217.21V217.579C19.3975 218.03 19.459 218.455 19.582 218.854C19.7109 219.246 19.8955 219.592 20.1357 219.891C20.3818 220.189 20.6777 220.424 21.0234 220.594C21.375 220.764 21.7734 220.849 22.2188 220.849C22.793 220.849 23.2793 220.731 23.6777 220.497C24.0762 220.263 24.4248 219.949 24.7236 219.557L25.708 220.339C25.5029 220.649 25.2422 220.945 24.9258 221.227C24.6094 221.508 24.2197 221.736 23.7568 221.912C23.2998 222.088 22.7578 222.176 22.1309 222.176ZM33.8291 208.351H35.165C35.165 208.925 35.0771 209.382 34.9014 209.722C34.7256 210.056 34.4854 210.313 34.1807 210.495C33.8818 210.677 33.542 210.814 33.1611 210.908C32.7861 211.002 32.3965 211.093 31.9922 211.181C31.4883 211.286 31.0195 211.453 30.5859 211.682C30.1582 211.904 29.7891 212.221 29.4785 212.631C29.1738 213.041 28.9482 213.574 28.8018 214.23C28.6611 214.887 28.623 215.698 28.6875 216.665V217.474H27.3516V216.665C27.3516 215.581 27.4541 214.635 27.6592 213.826C27.8701 213.018 28.166 212.335 28.5469 211.778C28.9277 211.222 29.3789 210.779 29.9004 210.451C30.4277 210.123 31.0078 209.897 31.6406 209.774C32.0977 209.687 32.4902 209.593 32.8184 209.493C33.1465 209.388 33.3955 209.247 33.5654 209.071C33.7412 208.896 33.8291 208.655 33.8291 208.351ZM31.9043 213.035C32.5254 213.035 33.0791 213.144 33.5654 213.36C34.0518 213.577 34.4648 213.879 34.8047 214.266C35.1445 214.652 35.4023 215.109 35.5781 215.637C35.7598 216.158 35.8506 216.727 35.8506 217.342V217.535C35.8506 218.197 35.7539 218.812 35.5605 219.381C35.373 219.943 35.0947 220.436 34.7256 220.857C34.3623 221.273 33.917 221.599 33.3896 221.833C32.8682 222.067 32.2734 222.185 31.6055 222.185C30.9375 222.185 30.3398 222.067 29.8125 221.833C29.291 221.599 28.8457 221.273 28.4766 220.857C28.1074 220.436 27.8262 219.943 27.6328 219.381C27.4453 218.812 27.3516 218.197 27.3516 217.535V217.342C27.3516 217.195 27.3779 217.052 27.4307 216.911C27.4834 216.771 27.5479 216.627 27.624 216.48C27.7061 216.334 27.7793 216.179 27.8438 216.015C28.0605 215.487 28.3564 214.998 28.7314 214.547C29.1123 214.096 29.5664 213.732 30.0938 213.457C30.627 213.176 31.2305 213.035 31.9043 213.035ZM31.5879 214.362C30.9902 214.362 30.498 214.5 30.1113 214.775C29.7305 215.051 29.4463 215.417 29.2588 215.874C29.0713 216.325 28.9775 216.814 28.9775 217.342V217.535C28.9775 217.98 29.0303 218.402 29.1357 218.801C29.2412 219.199 29.3994 219.554 29.6104 219.864C29.8271 220.169 30.0996 220.409 30.4277 220.585C30.7617 220.761 31.1543 220.849 31.6055 220.849C32.0566 220.849 32.4463 220.761 32.7744 220.585C33.1025 220.409 33.3721 220.169 33.583 219.864C33.7939 219.554 33.9521 219.199 34.0576 218.801C34.1631 218.402 34.2158 217.98 34.2158 217.535V217.342C34.2158 216.943 34.1631 216.565 34.0576 216.208C33.9521 215.851 33.791 215.534 33.5742 215.259C33.3633 214.983 33.0908 214.767 32.7568 214.608C32.4287 214.444 32.0391 214.362 31.5879 214.362ZM40.3682 221.016L43.0137 212.49H44.7539L40.9395 223.468C40.8516 223.702 40.7344 223.954 40.5879 224.224C40.4473 224.499 40.2656 224.76 40.043 225.006C39.8203 225.252 39.5508 225.451 39.2344 225.604C38.9238 225.762 38.5518 225.841 38.1182 225.841C37.9893 225.841 37.8252 225.823 37.626 225.788C37.4268 225.753 37.2861 225.724 37.2041 225.7L37.1953 224.382C37.2422 224.388 37.3154 224.394 37.415 224.399C37.5205 224.411 37.5938 224.417 37.6348 224.417C38.0039 224.417 38.3174 224.367 38.5752 224.268C38.833 224.174 39.0498 224.013 39.2256 223.784C39.4072 223.562 39.5625 223.254 39.6914 222.861L40.3682 221.016ZM38.4258 212.49L40.8955 219.873L41.3174 221.587L40.1484 222.185L36.6504 212.49H38.4258ZM52.6729 216.612V217.931H47.6455V216.612H52.6729ZM47.9883 212.49V222H46.3623V212.49H47.9883ZM53.9912 212.49V222H52.3564V212.49H53.9912ZM58.3682 219.425L62.7539 212.49H64.3887V222H62.7539V215.065L58.3682 222H56.751V212.49H58.3682V219.425ZM73.4502 216.612V217.931H68.4229V216.612H73.4502ZM68.7656 212.49V222H67.1396V212.49H68.7656ZM74.7686 212.49V222H73.1338V212.49H74.7686ZM76.957 217.351V217.148C76.957 216.463 77.0566 215.827 77.2559 215.241C77.4551 214.649 77.7422 214.137 78.1172 213.703C78.4922 213.264 78.9463 212.924 79.4795 212.684C80.0127 212.438 80.6104 212.314 81.2725 212.314C81.9404 212.314 82.541 212.438 83.0742 212.684C83.6133 212.924 84.0703 213.264 84.4453 213.703C84.8262 214.137 85.1162 214.649 85.3154 215.241C85.5146 215.827 85.6143 216.463 85.6143 217.148V217.351C85.6143 218.036 85.5146 218.672 85.3154 219.258C85.1162 219.844 84.8262 220.356 84.4453 220.796C84.0703 221.229 83.6162 221.569 83.083 221.815C82.5557 222.056 81.958 222.176 81.29 222.176C80.6221 222.176 80.0215 222.056 79.4883 221.815C78.9551 221.569 78.498 221.229 78.1172 220.796C77.7422 220.356 77.4551 219.844 77.2559 219.258C77.0566 218.672 76.957 218.036 76.957 217.351ZM78.583 217.148V217.351C78.583 217.825 78.6387 218.273 78.75 218.695C78.8613 219.111 79.0283 219.48 79.251 219.803C79.4795 220.125 79.7637 220.38 80.1035 220.567C80.4434 220.749 80.8389 220.84 81.29 220.84C81.7354 220.84 82.125 220.749 82.459 220.567C82.7988 220.38 83.0801 220.125 83.3027 219.803C83.5254 219.48 83.6924 219.111 83.8037 218.695C83.9209 218.273 83.9795 217.825 83.9795 217.351V217.148C83.9795 216.68 83.9209 216.237 83.8037 215.821C83.6924 215.399 83.5225 215.027 83.2939 214.705C83.0713 214.377 82.79 214.119 82.4502 213.932C82.1162 213.744 81.7236 213.65 81.2725 213.65C80.8271 213.65 80.4346 213.744 80.0947 213.932C79.7607 214.119 79.4795 214.377 79.251 214.705C79.0283 215.027 78.8613 215.399 78.75 215.821C78.6387 216.237 78.583 216.68 78.583 217.148Z" fill="white"/>
<path d="M121.999 185L94.999 198.5C92.999 199.833 89.999 202.7 93.999 203.5" stroke="white" stroke-width="3"/>
<path d="M564 37.0002L572 30.0002C575 28.1669 579.6 27.7002 574 40.5002C572.333 43.6668 560.8 49.3 528 46.5L510.5 59L504 67L487.5 68.5C485.667 73.5 479.4 81.2 469 72L442.5 87.5L438.5 96.5H419C413.5 101.667 401 112.4 395 114C387.5 116 388.5 116 373 118.5L375.5 129L370.5 155C373.5 156.667 377.2 159.8 368 159L363.5 166.5C353.167 169.833 330.2 180.2 321 195C319.5 197 316.2 201.8 315 205L263.5 204C261.833 200.667 258.5 196.2 258.5 205C248 209.833 221.3 219.3 198.5 218.5M198.5 218.5C195 210.5 185 202.5 167.5 196C167.833 188.667 166.4 172.3 158 165.5L156 162.5L123.5 184L121 185.5L121.5 196M198.5 218.5L213 186.5C216.167 186 216 179.5 216.5 179.5L231 176C231.667 176.667 233.1 173.9 233.5 157.5" stroke="#FF6C01" stroke-width="3"/>
<path d="M564 37.0002L572 30.0002C575 28.1669 579.6 27.7002 574 40.5002M510.5 59L504 67L487.5 68.5C485.667 73.5 479.4 81.2 469 72L442.5 87.5L438.5 96.5H419C413.5 101.667 401 112.4 395 114C387.5 116 388.5 116 373 118.5M373 118.5L375.5 129L370.5 155M373 118.5C364.667 118.5 345.2 116.9 334 110.5C322.8 104.1 294.333 122.833 281.5 133C270.5 141.333 246.1 157.7 236.5 156.5" stroke="white" stroke-width="3"/>
<circle cx="564" cy="36" r="6" fill="white"/>
<circle cx="235" cy="158" r="6" fill="#FF6C01"/>
<circle cx="156" cy="164" r="6" fill="#FF6C01"/>
<circle cx="123" cy="198" r="6" fill="#FF6C01"/>
<circle cx="97" cy="207" r="6" fill="white"/>
<circle cx="373" cy="118" r="6" fill="white"/>
<circle cx="293" cy="124" r="6" fill="white"/>
<circle cx="251" cy="207" r="6" fill="#FF6C01"/>
</svg>
