<svg width="228" height="383" viewBox="0 0 228 383" fill="none" xmlns="http://www.w3.org/2000/svg">
<path d="M86.9328 287.993C86.7856 291.347 90.1771 290.656 91.8913 289.891C101.043 291.973 87.8742 304.84 87.911 304.001C87.9478 303.163 79.2299 310.343 76.6403 311.91C74.5686 313.163 71.8337 325.703 70.7252 331.817C70.0679 334.029 67.0687 338.547 60.3299 338.923C53.5911 339.3 54.3882 333.901 55.6291 331.155C58.9741 325.139 65.1755 312.751 63.2216 311.321C60.7792 309.533 63.4056 307.127 63.5528 303.773C63.6705 301.089 68.0747 302.851 70.2621 304.067C70.5662 303.52 71.1965 301.923 71.2848 299.911C71.3731 297.898 78.6391 298.272 82.2611 298.711C83.8797 293.741 87.08 284.638 86.9328 287.993Z" fill="#191C20"/>
<path d="M26.2753 329.867C24.2625 329.778 24.5637 324.19 24.966 321.406L22.5603 318.78C20.8462 319.545 17.2281 321.571 16.4689 323.554C15.5198 326.034 9.94347 319.067 11.4 324.172C12.5653 328.257 11.0811 331.441 10.1934 332.522C11.8339 333.434 15.4358 335.609 16.7188 337.01C18.3225 338.761 28.7913 329.977 26.2753 329.867Z" fill="#191C20"/>
<path d="M40.5404 311.166C40.9758 316.563 42.9338 314.072 43.8583 312.152C48.5843 311.687 47.9903 313.734 47.1026 314.815C44.2947 314.972 38.7953 316.467 39.2602 321.193C39.725 325.919 37.0947 325.86 35.7215 325.239C35.1624 325.215 33.3879 324.801 30.7631 323.341C28.1382 321.882 30.4738 317.166 31.9697 314.991L36.4942 307.627C37.6615 306.558 40.105 305.769 40.5404 311.166Z" fill="#191C20"/>
<path d="M50.3177 298.991C53.7313 297.796 51.3527 294.555 49.7366 293.083C46.4114 292.265 43.7556 295.341 42.8433 296.982C43.9125 298.149 46.9042 300.185 50.3177 298.991Z" fill="#191C20"/>
<path d="M83.3047 4.20312V17H81.6084V4.20312H83.3047ZM86.2402 10.0654V11.4014H83.1992V10.0654H86.2402ZM95.4248 10.1973V11.0059C95.4248 11.9668 95.3047 12.8281 95.0645 13.5898C94.8242 14.3516 94.4785 14.999 94.0273 15.5322C93.5762 16.0654 93.0342 16.4727 92.4014 16.7539C91.7744 17.0352 91.0713 17.1758 90.292 17.1758C89.5361 17.1758 88.8418 17.0352 88.209 16.7539C87.582 16.4727 87.0371 16.0654 86.5742 15.5322C86.1172 14.999 85.7627 14.3516 85.5107 13.5898C85.2588 12.8281 85.1328 11.9668 85.1328 11.0059V10.1973C85.1328 9.23633 85.2559 8.37793 85.502 7.62207C85.7539 6.86035 86.1084 6.21289 86.5654 5.67969C87.0225 5.14063 87.5645 4.73047 88.1914 4.44922C88.8242 4.16797 89.5186 4.02734 90.2744 4.02734C91.0537 4.02734 91.7568 4.16797 92.3838 4.44922C93.0166 4.73047 93.5586 5.14063 94.0098 5.67969C94.4668 6.21289 94.8154 6.86035 95.0557 7.62207C95.3018 8.37793 95.4248 9.23633 95.4248 10.1973ZM93.7461 11.0059V10.1797C93.7461 9.41797 93.667 8.74414 93.5088 8.1582C93.3564 7.57227 93.1309 7.08008 92.832 6.68164C92.5332 6.2832 92.167 5.98145 91.7334 5.77637C91.3057 5.57129 90.8193 5.46875 90.2744 5.46875C89.7471 5.46875 89.2695 5.57129 88.8418 5.77637C88.4199 5.98145 88.0566 6.2832 87.752 6.68164C87.4531 7.08008 87.2217 7.57227 87.0576 8.1582C86.8936 8.74414 86.8115 9.41797 86.8115 10.1797V11.0059C86.8115 11.7734 86.8936 12.4531 87.0576 13.0449C87.2217 13.6309 87.4561 14.126 87.7607 14.5303C88.0713 14.9287 88.4375 15.2305 88.8594 15.4355C89.2871 15.6406 89.7646 15.7432 90.292 15.7432C90.8428 15.7432 91.332 15.6406 91.7598 15.4355C92.1875 15.2305 92.5479 14.9287 92.8408 14.5303C93.1396 14.126 93.3652 13.6309 93.5176 13.0449C93.6699 12.4531 93.7461 11.7734 93.7461 11.0059ZM100.224 12.8604L96.6201 7.49023H98.5801L101.041 11.4277H102.939L102.702 12.8604H100.224ZM101.111 12.6934L98.3516 17H96.2949L100.083 11.5156L101.111 12.6934ZM103.774 7.49023V17H102.148V7.49023H103.774ZM109.32 7.49023L105.717 12.8604H103.238L102.983 11.4277H104.891L107.352 7.49023H109.32ZM107.58 17L104.812 12.6934L105.857 11.5156L109.637 17H107.58ZM117.591 11.6123V12.9307H112.563V11.6123H117.591ZM112.906 7.49023V17H111.28V7.49023H112.906ZM118.909 7.49023V17H117.274V7.49023H118.909ZM121.098 12.3506V12.1484C121.098 11.4629 121.197 10.8271 121.396 10.2412C121.596 9.64941 121.883 9.13672 122.258 8.70312C122.633 8.26367 123.087 7.92383 123.62 7.68359C124.153 7.4375 124.751 7.31445 125.413 7.31445C126.081 7.31445 126.682 7.4375 127.215 7.68359C127.754 7.92383 128.211 8.26367 128.586 8.70312C128.967 9.13672 129.257 9.64941 129.456 10.2412C129.655 10.8271 129.755 11.4629 129.755 12.1484V12.3506C129.755 13.0361 129.655 13.6719 129.456 14.2578C129.257 14.8438 128.967 15.3564 128.586 15.7959C128.211 16.2295 127.757 16.5693 127.224 16.8154C126.696 17.0557 126.099 17.1758 125.431 17.1758C124.763 17.1758 124.162 17.0557 123.629 16.8154C123.096 16.5693 122.639 16.2295 122.258 15.7959C121.883 15.3564 121.596 14.8438 121.396 14.2578C121.197 13.6719 121.098 13.0361 121.098 12.3506ZM122.724 12.1484V12.3506C122.724 12.8252 122.779 13.2734 122.891 13.6953C123.002 14.1113 123.169 14.4805 123.392 14.8027C123.62 15.125 123.904 15.3799 124.244 15.5674C124.584 15.749 124.979 15.8398 125.431 15.8398C125.876 15.8398 126.266 15.749 126.6 15.5674C126.939 15.3799 127.221 15.125 127.443 14.8027C127.666 14.4805 127.833 14.1113 127.944 13.6953C128.062 13.2734 128.12 12.8252 128.12 12.3506V12.1484C128.12 11.6797 128.062 11.2373 127.944 10.8213C127.833 10.3994 127.663 10.0273 127.435 9.70508C127.212 9.37695 126.931 9.11914 126.591 8.93164C126.257 8.74414 125.864 8.65039 125.413 8.65039C124.968 8.65039 124.575 8.74414 124.235 8.93164C123.901 9.11914 123.62 9.37695 123.392 9.70508C123.169 10.0273 123.002 10.3994 122.891 10.8213C122.779 11.2373 122.724 11.6797 122.724 12.1484ZM135.178 10.8916V12.2275H130.889V10.8916H135.178ZM144.74 12.9307H146.428C146.34 13.7393 146.108 14.4629 145.733 15.1016C145.358 15.7402 144.828 16.2471 144.143 16.6221C143.457 16.9912 142.602 17.1758 141.576 17.1758C140.826 17.1758 140.144 17.0352 139.528 16.7539C138.919 16.4727 138.395 16.0742 137.955 15.5586C137.516 15.0371 137.176 14.4131 136.936 13.6865C136.701 12.9541 136.584 12.1396 136.584 11.2432V9.96875C136.584 9.07227 136.701 8.26074 136.936 7.53418C137.176 6.80176 137.519 6.1748 137.964 5.65332C138.415 5.13184 138.957 4.73047 139.59 4.44922C140.223 4.16797 140.935 4.02734 141.726 4.02734C142.692 4.02734 143.51 4.20898 144.178 4.57227C144.846 4.93555 145.364 5.43945 145.733 6.08398C146.108 6.72266 146.34 7.46387 146.428 8.30762H144.74C144.658 7.70996 144.506 7.19727 144.283 6.76953C144.061 6.33594 143.744 6.00195 143.334 5.76758C142.924 5.5332 142.388 5.41602 141.726 5.41602C141.157 5.41602 140.656 5.52441 140.223 5.74121C139.795 5.95801 139.435 6.26563 139.142 6.66406C138.854 7.0625 138.638 7.54004 138.491 8.09668C138.345 8.65332 138.271 9.27148 138.271 9.95117V11.2432C138.271 11.8701 138.336 12.459 138.465 13.0098C138.6 13.5605 138.802 14.0439 139.071 14.46C139.341 14.876 139.684 15.2041 140.1 15.4443C140.516 15.6787 141.008 15.7959 141.576 15.7959C142.297 15.7959 142.871 15.6816 143.299 15.4531C143.727 15.2246 144.049 14.8965 144.266 14.4688C144.488 14.041 144.646 13.5283 144.74 12.9307ZM154.101 15.374V10.4785C154.101 10.1035 154.024 9.77832 153.872 9.50293C153.726 9.22168 153.503 9.00488 153.204 8.85254C152.905 8.7002 152.536 8.62402 152.097 8.62402C151.687 8.62402 151.326 8.69434 151.016 8.83496C150.711 8.97559 150.471 9.16016 150.295 9.38867C150.125 9.61719 150.04 9.86328 150.04 10.127H148.414C148.414 9.78711 148.502 9.4502 148.678 9.11621C148.854 8.78223 149.105 8.48047 149.434 8.21094C149.768 7.93555 150.166 7.71875 150.629 7.56055C151.098 7.39648 151.619 7.31445 152.193 7.31445C152.885 7.31445 153.494 7.43164 154.021 7.66602C154.555 7.90039 154.971 8.25488 155.27 8.72949C155.574 9.19824 155.727 9.78711 155.727 10.4961V14.9258C155.727 15.2422 155.753 15.5791 155.806 15.9365C155.864 16.2939 155.949 16.6016 156.061 16.8594V17H154.364C154.282 16.8125 154.218 16.5635 154.171 16.2529C154.124 15.9365 154.101 15.6436 154.101 15.374ZM154.382 11.2344L154.399 12.377H152.756C152.293 12.377 151.88 12.415 151.517 12.4912C151.153 12.5615 150.849 12.6699 150.603 12.8164C150.356 12.9629 150.169 13.1475 150.04 13.3701C149.911 13.5869 149.847 13.8418 149.847 14.1348C149.847 14.4336 149.914 14.7061 150.049 14.9521C150.184 15.1982 150.386 15.3945 150.655 15.541C150.931 15.6816 151.268 15.752 151.666 15.752C152.164 15.752 152.604 15.6465 152.984 15.4355C153.365 15.2246 153.667 14.9668 153.89 14.6621C154.118 14.3574 154.241 14.0615 154.259 13.7744L154.953 14.5566C154.912 14.8027 154.801 15.0752 154.619 15.374C154.438 15.6729 154.194 15.96 153.89 16.2354C153.591 16.5049 153.233 16.7305 152.817 16.9121C152.407 17.0879 151.944 17.1758 151.429 17.1758C150.784 17.1758 150.219 17.0498 149.732 16.7979C149.252 16.5459 148.877 16.209 148.607 15.7871C148.344 15.3594 148.212 14.8818 148.212 14.3545C148.212 13.8447 148.312 13.3965 148.511 13.0098C148.71 12.6172 148.997 12.292 149.372 12.0342C149.747 11.7705 150.198 11.5713 150.726 11.4365C151.253 11.3018 151.842 11.2344 152.492 11.2344H154.382ZM159.383 7.49023L161.466 10.9531L163.575 7.49023H165.482L162.371 12.1836L165.579 17H163.698L161.501 13.4316L159.304 17H157.414L160.613 12.1836L157.511 7.49023H159.383ZM172.821 15.374V10.4785C172.821 10.1035 172.745 9.77832 172.593 9.50293C172.446 9.22168 172.224 9.00488 171.925 8.85254C171.626 8.7002 171.257 8.62402 170.817 8.62402C170.407 8.62402 170.047 8.69434 169.736 8.83496C169.432 8.97559 169.191 9.16016 169.016 9.38867C168.846 9.61719 168.761 9.86328 168.761 10.127H167.135C167.135 9.78711 167.223 9.4502 167.398 9.11621C167.574 8.78223 167.826 8.48047 168.154 8.21094C168.488 7.93555 168.887 7.71875 169.35 7.56055C169.818 7.39648 170.34 7.31445 170.914 7.31445C171.605 7.31445 172.215 7.43164 172.742 7.66602C173.275 7.90039 173.691 8.25488 173.99 8.72949C174.295 9.19824 174.447 9.78711 174.447 10.4961V14.9258C174.447 15.2422 174.474 15.5791 174.526 15.9365C174.585 16.2939 174.67 16.6016 174.781 16.8594V17H173.085C173.003 16.8125 172.938 16.5635 172.892 16.2529C172.845 15.9365 172.821 15.6436 172.821 15.374ZM173.103 11.2344L173.12 12.377H171.477C171.014 12.377 170.601 12.415 170.237 12.4912C169.874 12.5615 169.569 12.6699 169.323 12.8164C169.077 12.9629 168.89 13.1475 168.761 13.3701C168.632 13.5869 168.567 13.8418 168.567 14.1348C168.567 14.4336 168.635 14.7061 168.77 14.9521C168.904 15.1982 169.106 15.3945 169.376 15.541C169.651 15.6816 169.988 15.752 170.387 15.752C170.885 15.752 171.324 15.6465 171.705 15.4355C172.086 15.2246 172.388 14.9668 172.61 14.6621C172.839 14.3574 172.962 14.0615 172.979 13.7744L173.674 14.5566C173.633 14.8027 173.521 15.0752 173.34 15.374C173.158 15.6729 172.915 15.96 172.61 16.2354C172.312 16.5049 171.954 16.7305 171.538 16.9121C171.128 17.0879 170.665 17.1758 170.149 17.1758C169.505 17.1758 168.939 17.0498 168.453 16.7979C167.973 16.5459 167.598 16.209 167.328 15.7871C167.064 15.3594 166.933 14.8818 166.933 14.3545C166.933 13.8447 167.032 13.3965 167.231 13.0098C167.431 12.6172 167.718 12.292 168.093 12.0342C168.468 11.7705 168.919 11.5713 169.446 11.4365C169.974 11.3018 170.562 11.2344 171.213 11.2344H173.103ZM183.359 7.49023V8.83496H178.763V7.49023H183.359ZM184.792 7.49023V17H183.166V7.49023H184.792ZM178.367 7.49023H180.002L179.756 12.0781C179.715 12.7871 179.647 13.4141 179.554 13.959C179.466 14.498 179.343 14.9609 179.185 15.3477C179.032 15.7344 178.839 16.0508 178.604 16.2969C178.376 16.5371 178.101 16.7158 177.778 16.833C177.456 16.9443 177.084 17 176.662 17H176.152V15.5674L176.504 15.541C176.756 15.5234 176.97 15.4648 177.146 15.3652C177.327 15.2656 177.479 15.1191 177.603 14.9258C177.726 14.7266 177.825 14.4717 177.901 14.1611C177.983 13.8506 178.045 13.4814 178.086 13.0537C178.133 12.626 178.168 12.1279 178.191 11.5596L178.367 7.49023ZM189.169 14.4248L193.555 7.49023H195.189V17H193.555V10.0654L189.169 17H187.552V7.49023H189.169V14.4248ZM204.251 11.6123V12.9307H199.224V11.6123H204.251ZM199.566 7.49023V17H197.94V7.49023H199.566ZM205.569 7.49023V17H203.935V7.49023H205.569ZM211.994 15.8398C212.381 15.8398 212.738 15.7607 213.066 15.6025C213.395 15.4443 213.664 15.2275 213.875 14.9521C214.086 14.6709 214.206 14.3516 214.235 13.9941H215.782C215.753 14.5566 215.562 15.0811 215.211 15.5674C214.865 16.0479 214.411 16.4375 213.849 16.7363C213.286 17.0293 212.668 17.1758 211.994 17.1758C211.279 17.1758 210.655 17.0498 210.122 16.7979C209.595 16.5459 209.155 16.2002 208.804 15.7607C208.458 15.3213 208.197 14.8174 208.021 14.249C207.852 13.6748 207.767 13.0684 207.767 12.4297V12.0605C207.767 11.4219 207.852 10.8184 208.021 10.25C208.197 9.67578 208.458 9.16895 208.804 8.72949C209.155 8.29004 209.595 7.94434 210.122 7.69238C210.655 7.44043 211.279 7.31445 211.994 7.31445C212.738 7.31445 213.389 7.4668 213.945 7.77148C214.502 8.07031 214.938 8.48047 215.255 9.00195C215.577 9.51758 215.753 10.1035 215.782 10.7598H214.235C214.206 10.3672 214.095 10.0127 213.901 9.69629C213.714 9.37988 213.456 9.12793 213.128 8.94043C212.806 8.74707 212.428 8.65039 211.994 8.65039C211.496 8.65039 211.077 8.75 210.737 8.94922C210.403 9.14258 210.137 9.40625 209.938 9.74023C209.744 10.0684 209.604 10.4346 209.516 10.8389C209.434 11.2373 209.393 11.6445 209.393 12.0605V12.4297C209.393 12.8457 209.434 13.2559 209.516 13.6602C209.598 14.0645 209.735 14.4307 209.929 14.7588C210.128 15.0869 210.395 15.3506 210.729 15.5498C211.068 15.7432 211.49 15.8398 211.994 15.8398ZM219.377 7.49023V17H217.751V7.49023H219.377ZM225.617 7.49023L221.108 12.9395H218.832L218.586 11.5156H220.449L223.64 7.49023H225.617ZM223.868 17L220.37 12.6934L221.416 11.5156L225.934 17H223.868Z" fill="white"/>
<path d="M115.338 282.197V283.006C115.338 283.967 115.218 284.828 114.978 285.59C114.737 286.352 114.392 286.999 113.94 287.532C113.489 288.065 112.947 288.473 112.314 288.754C111.688 289.035 110.984 289.176 110.205 289.176C109.449 289.176 108.755 289.035 108.122 288.754C107.495 288.473 106.95 288.065 106.487 287.532C106.03 286.999 105.676 286.352 105.424 285.59C105.172 284.828 105.046 283.967 105.046 283.006V282.197C105.046 281.236 105.169 280.378 105.415 279.622C105.667 278.86 106.021 278.213 106.479 277.68C106.936 277.141 107.478 276.73 108.104 276.449C108.737 276.168 109.432 276.027 110.188 276.027C110.967 276.027 111.67 276.168 112.297 276.449C112.93 276.73 113.472 277.141 113.923 277.68C114.38 278.213 114.729 278.86 114.969 279.622C115.215 280.378 115.338 281.236 115.338 282.197ZM113.659 283.006V282.18C113.659 281.418 113.58 280.744 113.422 280.158C113.27 279.572 113.044 279.08 112.745 278.682C112.446 278.283 112.08 277.981 111.646 277.776C111.219 277.571 110.732 277.469 110.188 277.469C109.66 277.469 109.183 277.571 108.755 277.776C108.333 277.981 107.97 278.283 107.665 278.682C107.366 279.08 107.135 279.572 106.971 280.158C106.807 280.744 106.725 281.418 106.725 282.18V283.006C106.725 283.773 106.807 284.453 106.971 285.045C107.135 285.631 107.369 286.126 107.674 286.53C107.984 286.929 108.351 287.23 108.772 287.436C109.2 287.641 109.678 287.743 110.205 287.743C110.756 287.743 111.245 287.641 111.673 287.436C112.101 287.23 112.461 286.929 112.754 286.53C113.053 286.126 113.278 285.631 113.431 285.045C113.583 284.453 113.659 283.773 113.659 283.006ZM118.73 279.49L120.813 282.953L122.923 279.49H124.83L121.719 284.184L124.927 289H123.046L120.849 285.432L118.651 289H116.762L119.961 284.184L116.858 279.49H118.73ZM125.955 284.351V284.148C125.955 283.463 126.055 282.827 126.254 282.241C126.453 281.649 126.74 281.137 127.115 280.703C127.49 280.264 127.944 279.924 128.478 279.684C129.011 279.438 129.608 279.314 130.271 279.314C130.938 279.314 131.539 279.438 132.072 279.684C132.611 279.924 133.068 280.264 133.443 280.703C133.824 281.137 134.114 281.649 134.313 282.241C134.513 282.827 134.612 283.463 134.612 284.148V284.351C134.612 285.036 134.513 285.672 134.313 286.258C134.114 286.844 133.824 287.356 133.443 287.796C133.068 288.229 132.614 288.569 132.081 288.815C131.554 289.056 130.956 289.176 130.288 289.176C129.62 289.176 129.02 289.056 128.486 288.815C127.953 288.569 127.496 288.229 127.115 287.796C126.74 287.356 126.453 286.844 126.254 286.258C126.055 285.672 125.955 285.036 125.955 284.351ZM127.581 284.148V284.351C127.581 284.825 127.637 285.273 127.748 285.695C127.859 286.111 128.026 286.48 128.249 286.803C128.478 287.125 128.762 287.38 129.102 287.567C129.441 287.749 129.837 287.84 130.288 287.84C130.733 287.84 131.123 287.749 131.457 287.567C131.797 287.38 132.078 287.125 132.301 286.803C132.523 286.48 132.69 286.111 132.802 285.695C132.919 285.273 132.978 284.825 132.978 284.351V284.148C132.978 283.68 132.919 283.237 132.802 282.821C132.69 282.399 132.521 282.027 132.292 281.705C132.069 281.377 131.788 281.119 131.448 280.932C131.114 280.744 130.722 280.65 130.271 280.65C129.825 280.65 129.433 280.744 129.093 280.932C128.759 281.119 128.478 281.377 128.249 281.705C128.026 282.027 127.859 282.399 127.748 282.821C127.637 283.237 127.581 283.68 127.581 284.148ZM140.334 279.49V289H138.699V279.49H140.334ZM143.524 279.49V280.809H135.57V279.49H143.524ZM148.227 287.84C148.613 287.84 148.971 287.761 149.299 287.603C149.627 287.444 149.896 287.228 150.107 286.952C150.318 286.671 150.438 286.352 150.468 285.994H152.015C151.985 286.557 151.795 287.081 151.443 287.567C151.098 288.048 150.644 288.438 150.081 288.736C149.519 289.029 148.9 289.176 148.227 289.176C147.512 289.176 146.888 289.05 146.354 288.798C145.827 288.546 145.388 288.2 145.036 287.761C144.69 287.321 144.43 286.817 144.254 286.249C144.084 285.675 143.999 285.068 143.999 284.43V284.061C143.999 283.422 144.084 282.818 144.254 282.25C144.43 281.676 144.69 281.169 145.036 280.729C145.388 280.29 145.827 279.944 146.354 279.692C146.888 279.44 147.512 279.314 148.227 279.314C148.971 279.314 149.621 279.467 150.178 279.771C150.734 280.07 151.171 280.48 151.487 281.002C151.81 281.518 151.985 282.104 152.015 282.76H150.468C150.438 282.367 150.327 282.013 150.134 281.696C149.946 281.38 149.688 281.128 149.36 280.94C149.038 280.747 148.66 280.65 148.227 280.65C147.729 280.65 147.31 280.75 146.97 280.949C146.636 281.143 146.369 281.406 146.17 281.74C145.977 282.068 145.836 282.435 145.748 282.839C145.666 283.237 145.625 283.645 145.625 284.061V284.43C145.625 284.846 145.666 285.256 145.748 285.66C145.83 286.064 145.968 286.431 146.161 286.759C146.36 287.087 146.627 287.351 146.961 287.55C147.301 287.743 147.723 287.84 148.227 287.84ZM155.609 279.49V289H153.983V279.49H155.609ZM161.85 279.49L157.341 284.939H155.064L154.818 283.516H156.682L159.872 279.49H161.85ZM160.101 289L156.603 284.693L157.648 283.516L162.166 289H160.101ZM162.957 284.351V284.148C162.957 283.463 163.057 282.827 163.256 282.241C163.455 281.649 163.742 281.137 164.117 280.703C164.492 280.264 164.946 279.924 165.479 279.684C166.013 279.438 166.61 279.314 167.272 279.314C167.94 279.314 168.541 279.438 169.074 279.684C169.613 279.924 170.07 280.264 170.445 280.703C170.826 281.137 171.116 281.649 171.315 282.241C171.515 282.827 171.614 283.463 171.614 284.148V284.351C171.614 285.036 171.515 285.672 171.315 286.258C171.116 286.844 170.826 287.356 170.445 287.796C170.07 288.229 169.616 288.569 169.083 288.815C168.556 289.056 167.958 289.176 167.29 289.176C166.622 289.176 166.021 289.056 165.488 288.815C164.955 288.569 164.498 288.229 164.117 287.796C163.742 287.356 163.455 286.844 163.256 286.258C163.057 285.672 162.957 285.036 162.957 284.351ZM164.583 284.148V284.351C164.583 284.825 164.639 285.273 164.75 285.695C164.861 286.111 165.028 286.48 165.251 286.803C165.479 287.125 165.764 287.38 166.104 287.567C166.443 287.749 166.839 287.84 167.29 287.84C167.735 287.84 168.125 287.749 168.459 287.567C168.799 287.38 169.08 287.125 169.303 286.803C169.525 286.48 169.692 286.111 169.804 285.695C169.921 285.273 169.979 284.825 169.979 284.351V284.148C169.979 283.68 169.921 283.237 169.804 282.821C169.692 282.399 169.522 282.027 169.294 281.705C169.071 281.377 168.79 281.119 168.45 280.932C168.116 280.744 167.724 280.65 167.272 280.65C166.827 280.65 166.435 280.744 166.095 280.932C165.761 281.119 165.479 281.377 165.251 281.705C165.028 282.027 164.861 282.399 164.75 282.821C164.639 283.237 164.583 283.68 164.583 284.148ZM177.6 289.176C176.938 289.176 176.337 289.064 175.798 288.842C175.265 288.613 174.805 288.294 174.418 287.884C174.037 287.474 173.744 286.987 173.539 286.425C173.334 285.862 173.231 285.247 173.231 284.579V284.21C173.231 283.437 173.346 282.748 173.574 282.145C173.803 281.535 174.113 281.02 174.506 280.598C174.898 280.176 175.344 279.856 175.842 279.64C176.34 279.423 176.855 279.314 177.389 279.314C178.068 279.314 178.654 279.432 179.146 279.666C179.645 279.9 180.052 280.229 180.368 280.65C180.685 281.066 180.919 281.559 181.071 282.127C181.224 282.689 181.3 283.305 181.3 283.973V284.702H174.198V283.375H179.674V283.252C179.65 282.83 179.562 282.42 179.41 282.021C179.264 281.623 179.029 281.295 178.707 281.037C178.385 280.779 177.945 280.65 177.389 280.65C177.02 280.65 176.68 280.729 176.369 280.888C176.059 281.04 175.792 281.269 175.569 281.573C175.347 281.878 175.174 282.25 175.051 282.689C174.928 283.129 174.866 283.636 174.866 284.21V284.579C174.866 285.03 174.928 285.455 175.051 285.854C175.18 286.246 175.364 286.592 175.604 286.891C175.851 287.189 176.146 287.424 176.492 287.594C176.844 287.764 177.242 287.849 177.688 287.849C178.262 287.849 178.748 287.731 179.146 287.497C179.545 287.263 179.894 286.949 180.192 286.557L181.177 287.339C180.972 287.649 180.711 287.945 180.395 288.227C180.078 288.508 179.688 288.736 179.226 288.912C178.769 289.088 178.227 289.176 177.6 289.176Z" fill="white"/>
<path d="M144.211 312.931H145.898C145.811 313.739 145.579 314.463 145.204 315.102C144.829 315.74 144.299 316.247 143.613 316.622C142.928 316.991 142.072 317.176 141.047 317.176C140.297 317.176 139.614 317.035 138.999 316.754C138.39 316.473 137.865 316.074 137.426 315.559C136.986 315.037 136.646 314.413 136.406 313.687C136.172 312.954 136.055 312.14 136.055 311.243V309.969C136.055 309.072 136.172 308.261 136.406 307.534C136.646 306.802 136.989 306.175 137.435 305.653C137.886 305.132 138.428 304.73 139.061 304.449C139.693 304.168 140.405 304.027 141.196 304.027C142.163 304.027 142.98 304.209 143.648 304.572C144.316 304.936 144.835 305.439 145.204 306.084C145.579 306.723 145.811 307.464 145.898 308.308H144.211C144.129 307.71 143.977 307.197 143.754 306.77C143.531 306.336 143.215 306.002 142.805 305.768C142.395 305.533 141.858 305.416 141.196 305.416C140.628 305.416 140.127 305.524 139.693 305.741C139.266 305.958 138.905 306.266 138.612 306.664C138.325 307.062 138.108 307.54 137.962 308.097C137.815 308.653 137.742 309.271 137.742 309.951V311.243C137.742 311.87 137.807 312.459 137.936 313.01C138.07 313.561 138.272 314.044 138.542 314.46C138.812 314.876 139.154 315.204 139.57 315.444C139.986 315.679 140.479 315.796 141.047 315.796C141.768 315.796 142.342 315.682 142.77 315.453C143.197 315.225 143.52 314.896 143.736 314.469C143.959 314.041 144.117 313.528 144.211 312.931ZM152.429 312.816H149.309L149.291 311.516H151.84C152.344 311.516 152.763 311.466 153.097 311.366C153.437 311.267 153.691 311.117 153.861 310.918C154.031 310.719 154.116 310.473 154.116 310.18C154.116 309.951 154.066 309.752 153.967 309.582C153.873 309.406 153.729 309.263 153.536 309.151C153.343 309.034 153.103 308.949 152.815 308.896C152.534 308.838 152.203 308.809 151.822 308.809H149.739V317H148.113V307.49H151.822C152.426 307.49 152.968 307.543 153.448 307.648C153.935 307.754 154.348 307.915 154.688 308.132C155.033 308.343 155.297 308.612 155.479 308.94C155.66 309.269 155.751 309.655 155.751 310.101C155.751 310.388 155.692 310.66 155.575 310.918C155.458 311.176 155.285 311.404 155.057 311.604C154.828 311.803 154.547 311.967 154.213 312.096C153.879 312.219 153.495 312.298 153.062 312.333L152.429 312.816ZM152.429 317H148.72L149.528 315.682H152.429C152.88 315.682 153.255 315.626 153.554 315.515C153.853 315.397 154.075 315.233 154.222 315.022C154.374 314.806 154.45 314.548 154.45 314.249C154.45 313.95 154.374 313.695 154.222 313.484C154.075 313.268 153.853 313.104 153.554 312.992C153.255 312.875 152.88 312.816 152.429 312.816H149.959L149.977 311.516H153.062L153.65 312.008C154.172 312.049 154.614 312.178 154.978 312.395C155.341 312.611 155.616 312.887 155.804 313.221C155.991 313.549 156.085 313.906 156.085 314.293C156.085 314.738 156 315.131 155.83 315.471C155.666 315.811 155.426 316.095 155.109 316.323C154.793 316.546 154.409 316.716 153.958 316.833C153.507 316.944 152.997 317 152.429 317ZM157.834 312.351V312.148C157.834 311.463 157.934 310.827 158.133 310.241C158.332 309.649 158.619 309.137 158.994 308.703C159.369 308.264 159.823 307.924 160.356 307.684C160.89 307.438 161.487 307.314 162.149 307.314C162.817 307.314 163.418 307.438 163.951 307.684C164.49 307.924 164.947 308.264 165.322 308.703C165.703 309.137 165.993 309.649 166.192 310.241C166.392 310.827 166.491 311.463 166.491 312.148V312.351C166.491 313.036 166.392 313.672 166.192 314.258C165.993 314.844 165.703 315.356 165.322 315.796C164.947 316.229 164.493 316.569 163.96 316.815C163.433 317.056 162.835 317.176 162.167 317.176C161.499 317.176 160.898 317.056 160.365 316.815C159.832 316.569 159.375 316.229 158.994 315.796C158.619 315.356 158.332 314.844 158.133 314.258C157.934 313.672 157.834 313.036 157.834 312.351ZM159.46 312.148V312.351C159.46 312.825 159.516 313.273 159.627 313.695C159.738 314.111 159.905 314.48 160.128 314.803C160.356 315.125 160.641 315.38 160.98 315.567C161.32 315.749 161.716 315.84 162.167 315.84C162.612 315.84 163.002 315.749 163.336 315.567C163.676 315.38 163.957 315.125 164.18 314.803C164.402 314.48 164.569 314.111 164.681 313.695C164.798 313.273 164.856 312.825 164.856 312.351V312.148C164.856 311.68 164.798 311.237 164.681 310.821C164.569 310.399 164.399 310.027 164.171 309.705C163.948 309.377 163.667 309.119 163.327 308.932C162.993 308.744 162.601 308.65 162.149 308.65C161.704 308.65 161.312 308.744 160.972 308.932C160.638 309.119 160.356 309.377 160.128 309.705C159.905 310.027 159.738 310.399 159.627 310.821C159.516 311.237 159.46 311.68 159.46 312.148ZM174.63 303.351H175.966C175.966 303.925 175.878 304.382 175.702 304.722C175.526 305.056 175.286 305.313 174.981 305.495C174.683 305.677 174.343 305.814 173.962 305.908C173.587 306.002 173.197 306.093 172.793 306.181C172.289 306.286 171.82 306.453 171.387 306.682C170.959 306.904 170.59 307.221 170.279 307.631C169.975 308.041 169.749 308.574 169.603 309.23C169.462 309.887 169.424 310.698 169.488 311.665V312.474H168.152V311.665C168.152 310.581 168.255 309.635 168.46 308.826C168.671 308.018 168.967 307.335 169.348 306.778C169.729 306.222 170.18 305.779 170.701 305.451C171.229 305.123 171.809 304.897 172.441 304.774C172.898 304.687 173.291 304.593 173.619 304.493C173.947 304.388 174.196 304.247 174.366 304.071C174.542 303.896 174.63 303.655 174.63 303.351ZM172.705 308.035C173.326 308.035 173.88 308.144 174.366 308.36C174.853 308.577 175.266 308.879 175.605 309.266C175.945 309.652 176.203 310.109 176.379 310.637C176.561 311.158 176.651 311.727 176.651 312.342V312.535C176.651 313.197 176.555 313.812 176.361 314.381C176.174 314.943 175.896 315.436 175.526 315.857C175.163 316.273 174.718 316.599 174.19 316.833C173.669 317.067 173.074 317.185 172.406 317.185C171.738 317.185 171.141 317.067 170.613 316.833C170.092 316.599 169.646 316.273 169.277 315.857C168.908 315.436 168.627 314.943 168.434 314.381C168.246 313.812 168.152 313.197 168.152 312.535V312.342C168.152 312.195 168.179 312.052 168.231 311.911C168.284 311.771 168.349 311.627 168.425 311.48C168.507 311.334 168.58 311.179 168.645 311.015C168.861 310.487 169.157 309.998 169.532 309.547C169.913 309.096 170.367 308.732 170.895 308.457C171.428 308.176 172.031 308.035 172.705 308.035ZM172.389 309.362C171.791 309.362 171.299 309.5 170.912 309.775C170.531 310.051 170.247 310.417 170.06 310.874C169.872 311.325 169.778 311.814 169.778 312.342V312.535C169.778 312.98 169.831 313.402 169.937 313.801C170.042 314.199 170.2 314.554 170.411 314.864C170.628 315.169 170.9 315.409 171.229 315.585C171.562 315.761 171.955 315.849 172.406 315.849C172.857 315.849 173.247 315.761 173.575 315.585C173.903 315.409 174.173 315.169 174.384 314.864C174.595 314.554 174.753 314.199 174.858 313.801C174.964 313.402 175.017 312.98 175.017 312.535V312.342C175.017 311.943 174.964 311.565 174.858 311.208C174.753 310.851 174.592 310.534 174.375 310.259C174.164 309.983 173.892 309.767 173.558 309.608C173.229 309.444 172.84 309.362 172.389 309.362ZM178.066 312.351V312.148C178.066 311.463 178.166 310.827 178.365 310.241C178.564 309.649 178.852 309.137 179.227 308.703C179.602 308.264 180.056 307.924 180.589 307.684C181.122 307.438 181.72 307.314 182.382 307.314C183.05 307.314 183.65 307.438 184.184 307.684C184.723 307.924 185.18 308.264 185.555 308.703C185.936 309.137 186.226 309.649 186.425 310.241C186.624 310.827 186.724 311.463 186.724 312.148V312.351C186.724 313.036 186.624 313.672 186.425 314.258C186.226 314.844 185.936 315.356 185.555 315.796C185.18 316.229 184.726 316.569 184.192 316.815C183.665 317.056 183.067 317.176 182.399 317.176C181.731 317.176 181.131 317.056 180.598 316.815C180.064 316.569 179.607 316.229 179.227 315.796C178.852 315.356 178.564 314.844 178.365 314.258C178.166 313.672 178.066 313.036 178.066 312.351ZM179.692 312.148V312.351C179.692 312.825 179.748 313.273 179.859 313.695C179.971 314.111 180.138 314.48 180.36 314.803C180.589 315.125 180.873 315.38 181.213 315.567C181.553 315.749 181.948 315.84 182.399 315.84C182.845 315.84 183.234 315.749 183.568 315.567C183.908 315.38 184.189 315.125 184.412 314.803C184.635 314.48 184.802 314.111 184.913 313.695C185.03 313.273 185.089 312.825 185.089 312.351V312.148C185.089 311.68 185.03 311.237 184.913 310.821C184.802 310.399 184.632 310.027 184.403 309.705C184.181 309.377 183.899 309.119 183.56 308.932C183.226 308.744 182.833 308.65 182.382 308.65C181.937 308.65 181.544 308.744 181.204 308.932C180.87 309.119 180.589 309.377 180.36 309.705C180.138 310.027 179.971 310.399 179.859 310.821C179.748 311.237 179.692 311.68 179.692 312.148ZM189.844 307.49H191.47L191.329 311.05C191.294 311.952 191.191 312.731 191.021 313.388C190.852 314.044 190.635 314.604 190.371 315.066C190.107 315.523 189.812 315.907 189.483 316.218C189.161 316.528 188.827 316.789 188.481 317H187.673L187.717 315.673L188.051 315.664C188.244 315.436 188.432 315.201 188.613 314.961C188.795 314.715 188.962 314.425 189.114 314.091C189.267 313.751 189.393 313.338 189.492 312.852C189.598 312.359 189.665 311.759 189.694 311.05L189.844 307.49ZM190.248 307.49H195.97V317H194.344V308.993H190.248V307.49ZM187.304 315.664H197.191V319.804H195.565V317H188.93V319.804H187.295L187.304 315.664ZM205.444 311.612V312.931H200.417V311.612H205.444ZM200.76 307.49V317H199.134V307.49H200.76ZM206.763 307.49V317H205.128V307.49H206.763ZM208.951 312.351V312.148C208.951 311.463 209.051 310.827 209.25 310.241C209.449 309.649 209.736 309.137 210.111 308.703C210.486 308.264 210.94 307.924 211.474 307.684C212.007 307.438 212.604 307.314 213.267 307.314C213.935 307.314 214.535 307.438 215.068 307.684C215.607 307.924 216.064 308.264 216.439 308.703C216.82 309.137 217.11 309.649 217.31 310.241C217.509 310.827 217.608 311.463 217.608 312.148V312.351C217.608 313.036 217.509 313.672 217.31 314.258C217.11 314.844 216.82 315.356 216.439 315.796C216.064 316.229 215.61 316.569 215.077 316.815C214.55 317.056 213.952 317.176 213.284 317.176C212.616 317.176 212.016 317.056 211.482 316.815C210.949 316.569 210.492 316.229 210.111 315.796C209.736 315.356 209.449 314.844 209.25 314.258C209.051 313.672 208.951 313.036 208.951 312.351ZM210.577 312.148V312.351C210.577 312.825 210.633 313.273 210.744 313.695C210.855 314.111 211.022 314.48 211.245 314.803C211.474 315.125 211.758 315.38 212.098 315.567C212.438 315.749 212.833 315.84 213.284 315.84C213.729 315.84 214.119 315.749 214.453 315.567C214.793 315.38 215.074 315.125 215.297 314.803C215.52 314.48 215.687 314.111 215.798 313.695C215.915 313.273 215.974 312.825 215.974 312.351V312.148C215.974 311.68 215.915 311.237 215.798 310.821C215.687 310.399 215.517 310.027 215.288 309.705C215.065 309.377 214.784 309.119 214.444 308.932C214.11 308.744 213.718 308.65 213.267 308.65C212.821 308.65 212.429 308.744 212.089 308.932C211.755 309.119 211.474 309.377 211.245 309.705C211.022 310.027 210.855 310.399 210.744 310.821C210.633 311.237 210.577 311.68 210.577 312.148ZM223.594 317.176C222.932 317.176 222.331 317.064 221.792 316.842C221.259 316.613 220.799 316.294 220.412 315.884C220.031 315.474 219.738 314.987 219.533 314.425C219.328 313.862 219.226 313.247 219.226 312.579V312.21C219.226 311.437 219.34 310.748 219.568 310.145C219.797 309.535 220.107 309.02 220.5 308.598C220.893 308.176 221.338 307.856 221.836 307.64C222.334 307.423 222.85 307.314 223.383 307.314C224.062 307.314 224.648 307.432 225.141 307.666C225.639 307.9 226.046 308.229 226.362 308.65C226.679 309.066 226.913 309.559 227.065 310.127C227.218 310.689 227.294 311.305 227.294 311.973V312.702H220.192V311.375H225.668V311.252C225.645 310.83 225.557 310.42 225.404 310.021C225.258 309.623 225.023 309.295 224.701 309.037C224.379 308.779 223.939 308.65 223.383 308.65C223.014 308.65 222.674 308.729 222.363 308.888C222.053 309.04 221.786 309.269 221.563 309.573C221.341 309.878 221.168 310.25 221.045 310.689C220.922 311.129 220.86 311.636 220.86 312.21V312.579C220.86 313.03 220.922 313.455 221.045 313.854C221.174 314.246 221.358 314.592 221.599 314.891C221.845 315.189 222.141 315.424 222.486 315.594C222.838 315.764 223.236 315.849 223.682 315.849C224.256 315.849 224.742 315.731 225.141 315.497C225.539 315.263 225.888 314.949 226.187 314.557L227.171 315.339C226.966 315.649 226.705 315.945 226.389 316.227C226.072 316.508 225.683 316.736 225.22 316.912C224.763 317.088 224.221 317.176 223.594 317.176Z" fill="white"/>
<path d="M2.02148 366.203H3.66504L7.85742 376.636L12.041 366.203H13.6934L8.49023 379H7.20703L2.02148 366.203ZM1.48535 366.203H2.93555L3.17285 374.008V379H1.48535V366.203ZM12.7705 366.203H14.2207V379H12.5332V374.008L12.7705 366.203ZM18.29 372.76H21.1465C21.9141 372.76 22.5615 372.895 23.0889 373.164C23.6162 373.428 24.0146 373.794 24.2842 374.263C24.5596 374.726 24.6973 375.253 24.6973 375.845C24.6973 376.284 24.6211 376.697 24.4688 377.084C24.3164 377.465 24.0879 377.799 23.7832 378.086C23.4844 378.373 23.1123 378.599 22.667 378.763C22.2275 378.921 21.7207 379 21.1465 379H17.1035V369.49H18.7295V377.664H21.1465C21.6152 377.664 21.9902 377.579 22.2715 377.409C22.5527 377.239 22.7549 377.02 22.8779 376.75C23.001 376.48 23.0625 376.199 23.0625 375.906C23.0625 375.619 23.001 375.338 22.8779 375.062C22.7549 374.787 22.5527 374.559 22.2715 374.377C21.9902 374.189 21.6152 374.096 21.1465 374.096H18.29V372.76ZM28.0811 369.49V379H26.4551V369.49H28.0811ZM34.7344 377.84C35.1211 377.84 35.4785 377.761 35.8066 377.603C36.1348 377.444 36.4043 377.228 36.6152 376.952C36.8262 376.671 36.9463 376.352 36.9756 375.994H38.5225C38.4932 376.557 38.3027 377.081 37.9512 377.567C37.6055 378.048 37.1514 378.438 36.5889 378.736C36.0264 379.029 35.4082 379.176 34.7344 379.176C34.0195 379.176 33.3955 379.05 32.8623 378.798C32.335 378.546 31.8955 378.2 31.5439 377.761C31.1982 377.321 30.9375 376.817 30.7617 376.249C30.5918 375.675 30.5068 375.068 30.5068 374.43V374.061C30.5068 373.422 30.5918 372.818 30.7617 372.25C30.9375 371.676 31.1982 371.169 31.5439 370.729C31.8955 370.29 32.335 369.944 32.8623 369.692C33.3955 369.44 34.0195 369.314 34.7344 369.314C35.4785 369.314 36.1289 369.467 36.6855 369.771C37.2422 370.07 37.6787 370.48 37.9951 371.002C38.3174 371.518 38.4932 372.104 38.5225 372.76H36.9756C36.9463 372.367 36.835 372.013 36.6416 371.696C36.4541 371.38 36.1963 371.128 35.8682 370.94C35.5459 370.747 35.168 370.65 34.7344 370.65C34.2363 370.65 33.8174 370.75 33.4775 370.949C33.1436 371.143 32.877 371.406 32.6777 371.74C32.4844 372.068 32.3438 372.435 32.2559 372.839C32.1738 373.237 32.1328 373.645 32.1328 374.061V374.43C32.1328 374.846 32.1738 375.256 32.2559 375.66C32.3379 376.064 32.4756 376.431 32.6689 376.759C32.8682 377.087 33.1348 377.351 33.4688 377.55C33.8086 377.743 34.2305 377.84 34.7344 377.84ZM49.623 373.015H46.3799L46.3623 371.652H49.3066C49.793 371.652 50.2178 371.57 50.5811 371.406C50.9443 371.242 51.2256 371.008 51.4248 370.703C51.6299 370.393 51.7324 370.023 51.7324 369.596C51.7324 369.127 51.6416 368.746 51.46 368.453C51.2842 368.154 51.0117 367.938 50.6426 367.803C50.2793 367.662 49.8164 367.592 49.2539 367.592H46.7578V379H45.0615V366.203H49.2539C49.9102 366.203 50.4961 366.271 51.0117 366.405C51.5273 366.534 51.9639 366.739 52.3213 367.021C52.6846 367.296 52.96 367.647 53.1475 368.075C53.335 368.503 53.4287 369.016 53.4287 369.613C53.4287 370.141 53.2939 370.618 53.0244 371.046C52.7549 371.468 52.3799 371.813 51.8994 372.083C51.4248 372.353 50.8682 372.525 50.2295 372.602L49.623 373.015ZM49.5439 379H45.7119L46.6699 377.62H49.5439C50.083 377.62 50.54 377.526 50.915 377.339C51.2959 377.151 51.5859 376.888 51.7852 376.548C51.9844 376.202 52.084 375.795 52.084 375.326C52.084 374.852 51.999 374.441 51.8291 374.096C51.6592 373.75 51.3926 373.483 51.0293 373.296C50.666 373.108 50.1973 373.015 49.623 373.015H47.2061L47.2236 371.652H50.5283L50.8887 372.145C51.5039 372.197 52.0254 372.373 52.4531 372.672C52.8809 372.965 53.2061 373.34 53.4287 373.797C53.6572 374.254 53.7715 374.758 53.7715 375.309C53.7715 376.105 53.5957 376.779 53.2441 377.33C52.8984 377.875 52.4092 378.291 51.7764 378.578C51.1436 378.859 50.3994 379 49.5439 379ZM59.9766 379.176C59.3145 379.176 58.7139 379.064 58.1748 378.842C57.6416 378.613 57.1816 378.294 56.7949 377.884C56.4141 377.474 56.1211 376.987 55.916 376.425C55.7109 375.862 55.6084 375.247 55.6084 374.579V374.21C55.6084 373.437 55.7227 372.748 55.9512 372.145C56.1797 371.535 56.4902 371.02 56.8828 370.598C57.2754 370.176 57.7207 369.856 58.2188 369.64C58.7168 369.423 59.2324 369.314 59.7656 369.314C60.4453 369.314 61.0312 369.432 61.5234 369.666C62.0215 369.9 62.4287 370.229 62.7451 370.65C63.0615 371.066 63.2959 371.559 63.4482 372.127C63.6006 372.689 63.6768 373.305 63.6768 373.973V374.702H56.5752V373.375H62.0508V373.252C62.0273 372.83 61.9395 372.42 61.7871 372.021C61.6406 371.623 61.4062 371.295 61.084 371.037C60.7617 370.779 60.3223 370.65 59.7656 370.65C59.3965 370.65 59.0566 370.729 58.7461 370.888C58.4355 371.04 58.1689 371.269 57.9463 371.573C57.7236 371.878 57.5508 372.25 57.4277 372.689C57.3047 373.129 57.2432 373.636 57.2432 374.21V374.579C57.2432 375.03 57.3047 375.455 57.4277 375.854C57.5566 376.246 57.7412 376.592 57.9814 376.891C58.2275 377.189 58.5234 377.424 58.8691 377.594C59.2207 377.764 59.6191 377.849 60.0645 377.849C60.6387 377.849 61.125 377.731 61.5234 377.497C61.9219 377.263 62.2705 376.949 62.5693 376.557L63.5537 377.339C63.3486 377.649 63.0879 377.945 62.7715 378.227C62.4551 378.508 62.0654 378.736 61.6025 378.912C61.1455 379.088 60.6035 379.176 59.9766 379.176ZM71.9297 369.49V370.835H67.333V369.49H71.9297ZM73.3623 369.49V379H71.7363V369.49H73.3623ZM66.9375 369.49H68.5723L68.3262 374.078C68.2852 374.787 68.2178 375.414 68.124 375.959C68.0361 376.498 67.9131 376.961 67.7549 377.348C67.6025 377.734 67.4092 378.051 67.1748 378.297C66.9463 378.537 66.6709 378.716 66.3486 378.833C66.0264 378.944 65.6543 379 65.2324 379H64.7227V377.567L65.0742 377.541C65.3262 377.523 65.54 377.465 65.7158 377.365C65.8975 377.266 66.0498 377.119 66.1729 376.926C66.2959 376.727 66.3955 376.472 66.4717 376.161C66.5537 375.851 66.6152 375.481 66.6562 375.054C66.7031 374.626 66.7383 374.128 66.7617 373.56L66.9375 369.49ZM77.7393 376.425L82.125 369.49H83.7598V379H82.125V372.065L77.7393 379H76.1221V369.49H77.7393V376.425ZM88.1367 369.49V379H86.5107V369.49H88.1367ZM94.377 369.49L89.8682 374.939H87.5918L87.3457 373.516H89.209L92.3994 369.49H94.377ZM92.6279 379L89.1299 374.693L90.1758 373.516L94.6934 379H92.6279ZM101.716 377.374V372.479C101.716 372.104 101.64 371.778 101.487 371.503C101.341 371.222 101.118 371.005 100.819 370.853C100.521 370.7 100.151 370.624 99.7119 370.624C99.3018 370.624 98.9414 370.694 98.6309 370.835C98.3262 370.976 98.0859 371.16 97.9102 371.389C97.7402 371.617 97.6553 371.863 97.6553 372.127H96.0293C96.0293 371.787 96.1172 371.45 96.293 371.116C96.4688 370.782 96.7207 370.48 97.0488 370.211C97.3828 369.936 97.7812 369.719 98.2441 369.561C98.7129 369.396 99.2344 369.314 99.8086 369.314C100.5 369.314 101.109 369.432 101.637 369.666C102.17 369.9 102.586 370.255 102.885 370.729C103.189 371.198 103.342 371.787 103.342 372.496V376.926C103.342 377.242 103.368 377.579 103.421 377.937C103.479 378.294 103.564 378.602 103.676 378.859V379H101.979C101.897 378.812 101.833 378.563 101.786 378.253C101.739 377.937 101.716 377.644 101.716 377.374ZM101.997 373.234L102.015 374.377H100.371C99.9082 374.377 99.4951 374.415 99.1318 374.491C98.7686 374.562 98.4639 374.67 98.2178 374.816C97.9717 374.963 97.7842 375.147 97.6553 375.37C97.5264 375.587 97.4619 375.842 97.4619 376.135C97.4619 376.434 97.5293 376.706 97.6641 376.952C97.7988 377.198 98.001 377.395 98.2705 377.541C98.5459 377.682 98.8828 377.752 99.2812 377.752C99.7793 377.752 100.219 377.646 100.6 377.436C100.98 377.225 101.282 376.967 101.505 376.662C101.733 376.357 101.856 376.062 101.874 375.774L102.568 376.557C102.527 376.803 102.416 377.075 102.234 377.374C102.053 377.673 101.81 377.96 101.505 378.235C101.206 378.505 100.849 378.73 100.433 378.912C100.022 379.088 99.5596 379.176 99.0439 379.176C98.3994 379.176 97.834 379.05 97.3477 378.798C96.8672 378.546 96.4922 378.209 96.2227 377.787C95.959 377.359 95.8271 376.882 95.8271 376.354C95.8271 375.845 95.9268 375.396 96.126 375.01C96.3252 374.617 96.6123 374.292 96.9873 374.034C97.3623 373.771 97.8135 373.571 98.3408 373.437C98.8682 373.302 99.457 373.234 100.107 373.234H101.997ZM112.351 373.612V374.931H107.323V373.612H112.351ZM107.666 369.49V379H106.04V369.49H107.666ZM113.669 369.49V379H112.034V369.49H113.669Z" fill="white"/>
<circle cx="148" cy="35" r="6" fill="#FF6C01"/>
<path d="M98 306C103.667 309 116.2 314.4 121 312" stroke="white" stroke-width="3"/>
<path d="M146 37L72.5 103L81 141L72.5 180.5L58.5 220.5L81 261.5L85 281.5C92 282.167 103.5 288.5 95.5 304.5" stroke="white" stroke-width="3"/>
<path d="M95.5 309.5C97.1667 313.667 99.5 323.2 95.5 328C91.5 332.8 87.5 336.667 86 338L69 347.5L54.5 355.5" stroke="#828282" stroke-width="3"/>
<path d="M146 37L72.5 103L81 141L72.5 180.5L58.5 220.5L81 261.5L85 281.5C92 282.167 103.5 288.5 95.5 304.5" stroke="#FF6C01" stroke-width="3"/>
<path d="M146 37L72.5 103" stroke="#FF6C01" stroke-width="3"/>
<circle cx="96" cy="306" r="6" fill="#FF6C01"/>
<circle cx="52" cy="356" r="6" fill="#828282"/>
<circle cx="124" cy="312" r="6" fill="white"/>
</svg>
