<svg width="584" height="276" viewBox="0 0 584 276" fill="none" xmlns="http://www.w3.org/2000/svg">
<circle cx="566.486" cy="43.5913" r="4" transform="rotate(5.25948 566.486 43.5913)" fill="white"/>
<circle cx="349.716" cy="101.571" r="4" transform="rotate(5.25948 349.716 101.571)" fill="white"/>
<circle cx="435.232" cy="104.122" r="4" transform="rotate(5.25948 435.232 104.122)" fill="white"/>
<circle cx="72.2298" cy="231.175" r="4" transform="rotate(5.25948 72.2298 231.175)" fill="#FF6C01"/>
<circle cx="99.138" cy="227.609" r="4" transform="rotate(5.25948 99.138 227.609)" fill="#FF6C01"/>
<circle cx="182.48" cy="193.697" r="4" transform="rotate(5.25948 182.48 193.697)" fill="#FF6C01"/>
<circle cx="221.55" cy="191.251" r="4" transform="rotate(5.25948 221.55 191.251)" fill="#FF6C01"/>
<circle cx="151.702" cy="198.802" r="4" transform="rotate(5.25948 151.702 198.802)" fill="#FF6C01"/>
<path d="M566.801 43.5727C562.458 48.9458 553.114 59.7758 550.485 60.1112C547.857 60.4465 541.387 60.9574 538.481 61.171C531.244 65.3156 515.527 74.5727 510.552 78.4444C504.334 83.2841 505.459 94.5728 455.296 98.6144L437.073 104.514L392.54 106.187L363.909 111.49C364.544 115.036 364.145 120.676 357.464 114.865C356.419 113.859 354.263 112.933 351.114 113.29M72.187 231.123C84.2574 234.832 96.4984 229.633 101.11 226.57C114.222 214.788 149.201 191.741 184.225 193.81C219.249 195.88 222.196 194.179 219.292 193.069C223.878 187.141 230.75 186.186 233.612 186.45L248.243 192.126L251.953 191.025L256.815 177.401L275.466 166.85C292.557 126.209 323.288 133.368 337.062 120.925C342.868 115.679 347.607 113.689 351.114 113.29M351.114 113.29L343.68 107.823C342.749 106.174 342.417 102.728 348.533 102.136" stroke="white" stroke-width="2"/>
<path d="M357.463 114.865C356.418 113.859 354.262 112.933 351.114 113.29C347.606 113.689 342.868 115.679 337.061 120.925C323.287 133.368 292.556 126.209 275.465 166.85L256.814 177.401L251.952 191.025L248.242 192.126L233.611 186.45C230.749 186.186 223.878 187.141 219.291 193.069C222.196 194.179 219.249 195.88 184.224 193.81C149.2 191.741 114.221 214.788 101.109 226.57C96.4978 229.633 84.2568 234.832 72.1864 231.123" stroke="#FF6C01" stroke-width="2"/>
<path d="M256.814 177.4L275.465 166.85C279.618 156.976 284.575 149.923 289.899 144.726M72.1866 231.123C84.257 234.832 96.4979 229.632 101.11 226.569C106.266 221.936 114.804 215.56 125.398 209.655" stroke="#FF6C01" stroke-width="2"/>
<circle cx="259.136" cy="176.219" r="4" transform="rotate(5.25948 259.136 176.219)" fill="#FF6C01"/>
<circle cx="300.917" cy="136.498" r="4" transform="rotate(5.25948 300.917 136.498)" fill="#FF6C01"/>
<circle cx="357.804" cy="114.313" r="4" transform="rotate(5.25948 357.804 114.313)" fill="#FF6C01"/>
<path d="M2.75391 240.196V250.86H1.34033V240.196H2.75391ZM5.2002 245.081V246.194H2.66602V245.081H5.2002ZM12.854 245.191V245.865C12.854 246.665 12.7539 247.383 12.5537 248.018C12.3535 248.653 12.0654 249.192 11.6895 249.636C11.3135 250.081 10.8618 250.42 10.3345 250.655C9.81201 250.889 9.22607 251.006 8.57666 251.006C7.94678 251.006 7.36816 250.889 6.84082 250.655C6.31836 250.42 5.86426 250.081 5.47852 249.636C5.09766 249.192 4.80225 248.653 4.59229 248.018C4.38232 247.383 4.27734 246.665 4.27734 245.865V245.191C4.27734 244.39 4.37988 243.675 4.58496 243.045C4.79492 242.41 5.09033 241.87 5.47119 241.426C5.85205 240.977 6.30371 240.635 6.82617 240.401C7.35352 240.166 7.93213 240.049 8.56201 240.049C9.21143 240.049 9.79736 240.166 10.3198 240.401C10.8472 240.635 11.2988 240.977 11.6748 241.426C12.0557 241.87 12.3462 242.41 12.5464 243.045C12.7515 243.675 12.854 244.39 12.854 245.191ZM11.4551 245.865V245.176C11.4551 244.541 11.3892 243.98 11.2573 243.491C11.1304 243.003 10.9424 242.593 10.6934 242.261C10.4443 241.929 10.1392 241.677 9.77783 241.507C9.42139 241.336 9.01611 241.25 8.56201 241.25C8.12256 241.25 7.72461 241.336 7.36816 241.507C7.0166 241.677 6.71387 241.929 6.45996 242.261C6.21094 242.593 6.01807 243.003 5.88135 243.491C5.74463 243.98 5.67627 244.541 5.67627 245.176V245.865C5.67627 246.504 5.74463 247.071 5.88135 247.564C6.01807 248.052 6.21338 248.465 6.46729 248.802C6.72607 249.134 7.03125 249.385 7.38281 249.556C7.73926 249.727 8.13721 249.812 8.57666 249.812C9.03564 249.812 9.44336 249.727 9.7998 249.556C10.1562 249.385 10.4565 249.134 10.7007 248.802C10.9497 248.465 11.1377 248.052 11.2646 247.564C11.3916 247.071 11.4551 246.504 11.4551 245.865ZM16.853 247.41L13.8501 242.935H15.4834L17.5342 246.216H19.1162L18.9185 247.41H16.853ZM17.5928 247.271L15.293 250.86H13.5791L16.7358 246.289L17.5928 247.271ZM19.812 242.935V250.86H18.457V242.935H19.812ZM24.4336 242.935L21.4307 247.41H19.3652L19.1528 246.216H20.7422L22.793 242.935H24.4336ZM22.9834 250.86L20.6763 247.271L21.5479 246.289L24.6973 250.86H22.9834ZM31.3257 246.37V247.469H27.1362V246.37H31.3257ZM27.4219 242.935V250.86H26.0669V242.935H27.4219ZM32.4243 242.935V250.86H31.062V242.935H32.4243ZM34.248 246.985V246.817C34.248 246.245 34.3311 245.716 34.4971 245.227C34.6631 244.734 34.9023 244.307 35.2148 243.946C35.5273 243.579 35.9058 243.296 36.3501 243.096C36.7944 242.891 37.2925 242.788 37.8442 242.788C38.4009 242.788 38.9014 242.891 39.3457 243.096C39.7949 243.296 40.1758 243.579 40.4883 243.946C40.8057 244.307 41.0474 244.734 41.2134 245.227C41.3794 245.716 41.4624 246.245 41.4624 246.817V246.985C41.4624 247.556 41.3794 248.086 41.2134 248.574C41.0474 249.063 40.8057 249.49 40.4883 249.856C40.1758 250.218 39.7974 250.501 39.353 250.706C38.9136 250.906 38.4155 251.006 37.8589 251.006C37.3022 251.006 36.8018 250.906 36.3574 250.706C35.9131 250.501 35.5322 250.218 35.2148 249.856C34.9023 249.49 34.6631 249.063 34.4971 248.574C34.3311 248.086 34.248 247.556 34.248 246.985ZM35.603 246.817V246.985C35.603 247.381 35.6494 247.754 35.7422 248.106C35.835 248.452 35.9741 248.76 36.1597 249.029C36.3501 249.297 36.5869 249.51 36.8701 249.666C37.1533 249.817 37.4829 249.893 37.8589 249.893C38.23 249.893 38.5547 249.817 38.833 249.666C39.1162 249.51 39.3506 249.297 39.5361 249.029C39.7217 248.76 39.8608 248.452 39.9536 248.106C40.0513 247.754 40.1001 247.381 40.1001 246.985V246.817C40.1001 246.426 40.0513 246.057 39.9536 245.711C39.8608 245.359 39.7192 245.049 39.5288 244.781C39.3433 244.507 39.1089 244.292 38.8257 244.136C38.5474 243.98 38.2202 243.902 37.8442 243.902C37.4731 243.902 37.146 243.98 36.8628 244.136C36.5845 244.292 36.3501 244.507 36.1597 244.781C35.9741 245.049 35.835 245.359 35.7422 245.711C35.6494 246.057 35.603 246.426 35.603 246.817ZM45.9814 245.769V246.883H42.4072V245.769H45.9814ZM53.9502 247.469H55.3564C55.2832 248.142 55.0903 248.745 54.7778 249.278C54.4653 249.81 54.0234 250.232 53.4521 250.545C52.8809 250.852 52.168 251.006 51.3135 251.006C50.6885 251.006 50.1196 250.889 49.6069 250.655C49.0991 250.42 48.6621 250.088 48.2959 249.658C47.9297 249.224 47.6465 248.704 47.4463 248.098C47.251 247.488 47.1533 246.809 47.1533 246.062V245C47.1533 244.253 47.251 243.577 47.4463 242.971C47.6465 242.361 47.9321 241.839 48.3032 241.404C48.6792 240.969 49.1309 240.635 49.6582 240.401C50.1855 240.166 50.7788 240.049 51.438 240.049C52.2437 240.049 52.9248 240.2 53.4814 240.503C54.0381 240.806 54.4702 241.226 54.7778 241.763C55.0903 242.295 55.2832 242.913 55.3564 243.616H53.9502C53.8818 243.118 53.7549 242.691 53.5693 242.334C53.3838 241.973 53.1201 241.695 52.7783 241.499C52.4365 241.304 51.9897 241.206 51.438 241.206C50.9644 241.206 50.5469 241.297 50.1855 241.477C49.8291 241.658 49.5288 241.914 49.2847 242.246C49.0454 242.578 48.8647 242.976 48.7427 243.44C48.6206 243.904 48.5596 244.419 48.5596 244.986V246.062C48.5596 246.585 48.6133 247.075 48.7207 247.534C48.833 247.993 49.0015 248.396 49.2261 248.743C49.4507 249.09 49.7363 249.363 50.083 249.563C50.4297 249.759 50.8398 249.856 51.3135 249.856C51.9141 249.856 52.3926 249.761 52.749 249.571C53.1055 249.38 53.374 249.107 53.5547 248.75C53.7402 248.394 53.8721 247.967 53.9502 247.469ZM61.7505 249.505V245.425C61.7505 245.113 61.687 244.842 61.5601 244.612C61.438 244.378 61.2524 244.197 61.0034 244.07C60.7544 243.943 60.4468 243.88 60.0806 243.88C59.7388 243.88 59.4385 243.938 59.1797 244.055C58.9258 244.173 58.7256 244.326 58.5791 244.517C58.4375 244.707 58.3667 244.912 58.3667 245.132H57.0117C57.0117 244.849 57.085 244.568 57.2314 244.29C57.3779 244.011 57.5879 243.76 57.8613 243.535C58.1396 243.306 58.4717 243.125 58.8574 242.993C59.248 242.857 59.6826 242.788 60.1611 242.788C60.7373 242.788 61.2451 242.886 61.6846 243.081C62.1289 243.277 62.4756 243.572 62.7246 243.968C62.9785 244.358 63.1055 244.849 63.1055 245.44V249.131C63.1055 249.395 63.1274 249.676 63.1714 249.973C63.2202 250.271 63.291 250.528 63.3838 250.742V250.86H61.9702C61.9019 250.703 61.8481 250.496 61.8091 250.237C61.77 249.973 61.7505 249.729 61.7505 249.505ZM61.9849 246.055L61.9995 247.007H60.6299C60.2441 247.007 59.8999 247.039 59.5972 247.102C59.2944 247.161 59.0405 247.251 58.8354 247.373C58.6304 247.495 58.4741 247.649 58.3667 247.835C58.2593 248.015 58.2056 248.228 58.2056 248.472C58.2056 248.721 58.2617 248.948 58.374 249.153C58.4863 249.358 58.6548 249.522 58.8794 249.644C59.1089 249.761 59.3896 249.82 59.7217 249.82C60.1367 249.82 60.5029 249.732 60.8203 249.556C61.1377 249.38 61.3892 249.165 61.5747 248.911C61.7651 248.657 61.8677 248.411 61.8823 248.172L62.4609 248.823C62.4268 249.029 62.334 249.256 62.1826 249.505C62.0312 249.754 61.8286 249.993 61.5747 250.222C61.3257 250.447 61.0278 250.635 60.6812 250.786C60.3394 250.933 59.9536 251.006 59.5239 251.006C58.9868 251.006 58.5156 250.901 58.1104 250.691C57.71 250.481 57.3975 250.2 57.1729 249.849C56.9531 249.492 56.8433 249.094 56.8433 248.655C56.8433 248.23 56.9263 247.857 57.0923 247.534C57.2583 247.207 57.4976 246.936 57.8101 246.721C58.1226 246.502 58.4985 246.336 58.938 246.223C59.3774 246.111 59.8682 246.055 60.4102 246.055H61.9849ZM66.1523 242.935L67.8882 245.821L69.646 242.935H71.2354L68.6426 246.846L71.3159 250.86H69.7485L67.9175 247.886L66.0864 250.86H64.5117L67.1777 246.846L64.5923 242.935H66.1523ZM77.3511 249.505V245.425C77.3511 245.113 77.2876 244.842 77.1606 244.612C77.0386 244.378 76.853 244.197 76.604 244.07C76.355 243.943 76.0474 243.88 75.6812 243.88C75.3394 243.88 75.0391 243.938 74.7803 244.055C74.5264 244.173 74.3262 244.326 74.1797 244.517C74.0381 244.707 73.9673 244.912 73.9673 245.132H72.6123C72.6123 244.849 72.6855 244.568 72.832 244.29C72.9785 244.011 73.1885 243.76 73.4619 243.535C73.7402 243.306 74.0723 243.125 74.458 242.993C74.8486 242.857 75.2832 242.788 75.7617 242.788C76.3379 242.788 76.8457 242.886 77.2852 243.081C77.7295 243.277 78.0762 243.572 78.3252 243.968C78.5791 244.358 78.7061 244.849 78.7061 245.44V249.131C78.7061 249.395 78.728 249.676 78.772 249.973C78.8208 250.271 78.8916 250.528 78.9844 250.742V250.86H77.5708C77.5024 250.703 77.4487 250.496 77.4097 250.237C77.3706 249.973 77.3511 249.729 77.3511 249.505ZM77.5854 246.055L77.6001 247.007H76.2305C75.8447 247.007 75.5005 247.039 75.1978 247.102C74.895 247.161 74.6411 247.251 74.436 247.373C74.231 247.495 74.0747 247.649 73.9673 247.835C73.8599 248.015 73.8062 248.228 73.8062 248.472C73.8062 248.721 73.8623 248.948 73.9746 249.153C74.0869 249.358 74.2554 249.522 74.48 249.644C74.7095 249.761 74.9902 249.82 75.3223 249.82C75.7373 249.82 76.1035 249.732 76.4209 249.556C76.7383 249.38 76.9897 249.165 77.1753 248.911C77.3657 248.657 77.4683 248.411 77.4829 248.172L78.0615 248.823C78.0273 249.029 77.9346 249.256 77.7832 249.505C77.6318 249.754 77.4292 249.993 77.1753 250.222C76.9263 250.447 76.6284 250.635 76.2817 250.786C75.9399 250.933 75.5542 251.006 75.1245 251.006C74.5874 251.006 74.1162 250.901 73.7109 250.691C73.3105 250.481 72.998 250.2 72.7734 249.849C72.5537 249.492 72.4438 249.094 72.4438 248.655C72.4438 248.23 72.5269 247.857 72.6929 247.534C72.8589 247.207 73.0981 246.936 73.4106 246.721C73.7231 246.502 74.0991 246.336 74.5386 246.223C74.978 246.111 75.4688 246.055 76.0107 246.055H77.5854ZM86.1328 242.935V244.055H82.3022V242.935H86.1328ZM87.3267 242.935V250.86H85.9717V242.935H87.3267ZM81.9727 242.935H83.335L83.1299 246.758C83.0957 247.349 83.0396 247.871 82.9614 248.325C82.8882 248.775 82.7856 249.16 82.6538 249.483C82.5269 249.805 82.3657 250.069 82.1704 250.274C81.98 250.474 81.7505 250.623 81.4819 250.72C81.2134 250.813 80.9033 250.86 80.5518 250.86H80.127V249.666L80.4199 249.644C80.6299 249.629 80.8081 249.58 80.9546 249.497C81.106 249.414 81.2329 249.292 81.3354 249.131C81.438 248.965 81.521 248.753 81.5845 248.494C81.6528 248.235 81.7041 247.927 81.7383 247.571C81.7773 247.215 81.8066 246.8 81.8262 246.326L81.9727 242.935ZM90.9741 248.714L94.6289 242.935H95.9912V250.86H94.6289V245.081L90.9741 250.86H89.6265V242.935H90.9741V248.714ZM103.542 246.37V247.469H99.353V246.37H103.542ZM99.6387 242.935V250.86H98.2837V242.935H99.6387ZM104.641 242.935V250.86H103.279V242.935H104.641ZM109.995 249.893C110.317 249.893 110.615 249.827 110.889 249.695C111.162 249.563 111.387 249.383 111.562 249.153C111.738 248.919 111.838 248.653 111.863 248.355H113.152C113.127 248.823 112.969 249.26 112.676 249.666C112.388 250.066 112.009 250.391 111.541 250.64C111.072 250.884 110.557 251.006 109.995 251.006C109.399 251.006 108.879 250.901 108.435 250.691C107.996 250.481 107.629 250.193 107.336 249.827C107.048 249.461 106.831 249.041 106.685 248.567C106.543 248.089 106.472 247.583 106.472 247.051V246.743C106.472 246.211 106.543 245.708 106.685 245.235C106.831 244.756 107.048 244.334 107.336 243.968C107.629 243.601 107.996 243.313 108.435 243.103C108.879 242.893 109.399 242.788 109.995 242.788C110.615 242.788 111.157 242.915 111.621 243.169C112.085 243.418 112.449 243.76 112.712 244.195C112.981 244.624 113.127 245.113 113.152 245.659H111.863C111.838 245.332 111.746 245.037 111.584 244.773C111.428 244.51 111.213 244.3 110.94 244.143C110.671 243.982 110.356 243.902 109.995 243.902C109.58 243.902 109.231 243.985 108.948 244.151C108.669 244.312 108.447 244.531 108.281 244.81C108.12 245.083 108.003 245.388 107.93 245.725C107.861 246.057 107.827 246.397 107.827 246.743V247.051C107.827 247.398 107.861 247.74 107.93 248.076C107.998 248.413 108.113 248.719 108.274 248.992C108.44 249.265 108.662 249.485 108.94 249.651C109.224 249.812 109.575 249.893 109.995 249.893ZM116.147 242.935V250.86H114.792V242.935H116.147ZM121.348 242.935L117.59 247.476H115.693L115.488 246.289H117.041L119.7 242.935H121.348ZM119.89 250.86L116.975 247.271L117.847 246.289L121.611 250.86H119.89Z" fill="white"/>
<path d="M258.186 72.1409L254.655 81.8601H253.212L257.277 71.196H258.208L258.186 72.1409ZM261.145 81.8601L257.607 72.1409L257.585 71.196H258.515L262.595 81.8601H261.145ZM260.961 77.9124V79.0696H254.97V77.9124H260.961ZM269.245 73.9353V75.0559H265.415V73.9353H269.245ZM270.439 73.9353V81.8601H269.084V73.9353H270.439ZM265.085 73.9353H266.447L266.242 77.7585C266.208 78.3494 266.152 78.8718 266.074 79.3259C266 79.7751 265.898 80.1609 265.766 80.4832C265.639 80.8054 265.478 81.0691 265.283 81.2742C265.092 81.4744 264.863 81.6233 264.594 81.7209C264.326 81.8137 264.016 81.8601 263.664 81.8601H263.239V80.6663L263.532 80.6443C263.742 80.6296 263.92 80.5808 264.067 80.4978C264.218 80.4148 264.345 80.2927 264.448 80.1316C264.55 79.9656 264.633 79.7532 264.697 79.4944C264.765 79.2356 264.816 78.928 264.851 78.5715C264.89 78.2151 264.919 77.8 264.938 77.3264L265.085 73.9353ZM275.91 82.0066C275.358 82.0066 274.858 81.9138 274.409 81.7283C273.964 81.5378 273.581 81.2717 273.259 80.9299C272.941 80.5881 272.697 80.1829 272.526 79.7141C272.355 79.2454 272.27 78.7327 272.27 78.176V77.8684C272.27 77.2239 272.365 76.6501 272.556 76.1472C272.746 75.6394 273.005 75.2097 273.332 74.8582C273.659 74.5066 274.03 74.2405 274.445 74.0598C274.86 73.8792 275.29 73.7888 275.734 73.7888C276.301 73.7888 276.789 73.8865 277.199 74.0818C277.614 74.2771 277.954 74.5505 278.217 74.9021C278.481 75.2488 278.676 75.6589 278.803 76.1326C278.93 76.6013 278.994 77.114 278.994 77.6707V78.2786H273.076V77.1726H277.639V77.0701C277.619 76.7185 277.546 76.3767 277.419 76.0447C277.297 75.7126 277.102 75.4392 276.833 75.2244C276.564 75.0095 276.198 74.9021 275.734 74.9021C275.427 74.9021 275.144 74.968 274.885 75.0999C274.626 75.2268 274.404 75.4172 274.218 75.6711C274.033 75.925 273.889 76.2351 273.786 76.6013C273.684 76.9675 273.632 77.3899 273.632 77.8684V78.176C273.632 78.552 273.684 78.906 273.786 79.238C273.894 79.5652 274.047 79.8533 274.248 80.1023C274.453 80.3513 274.699 80.5466 274.987 80.6882C275.28 80.8298 275.612 80.9006 275.983 80.9006C276.462 80.9006 276.867 80.803 277.199 80.6077C277.531 80.4124 277.822 80.1511 278.071 79.824L278.891 80.4758C278.72 80.7346 278.503 80.9812 278.239 81.2156C277.976 81.45 277.651 81.6404 277.265 81.7869C276.884 81.9333 276.433 82.0066 275.91 82.0066ZM282.048 73.9353V81.8601H280.693V73.9353H282.048ZM287.248 73.9353L283.491 78.4763H281.594L281.389 77.2898H282.941L285.6 73.9353H287.248ZM285.791 81.8601L282.875 78.2712L283.747 77.2898L287.512 81.8601H285.791ZM291.745 80.8933C292.067 80.8933 292.365 80.8274 292.639 80.6956C292.912 80.5637 293.137 80.3831 293.312 80.1536C293.488 79.9192 293.588 79.6531 293.613 79.3552H294.902C294.877 79.824 294.719 80.261 294.426 80.6663C294.138 81.0667 293.759 81.3914 293.291 81.6404C292.822 81.8845 292.307 82.0066 291.745 82.0066C291.149 82.0066 290.629 81.9016 290.185 81.6917C289.746 81.4817 289.379 81.1936 289.086 80.8274C288.798 80.4612 288.581 80.0413 288.435 79.5676C288.293 79.0891 288.222 78.5837 288.222 78.0515V77.7439C288.222 77.2117 288.293 76.7087 288.435 76.2351C288.581 75.7566 288.798 75.3342 289.086 74.968C289.379 74.6018 289.746 74.3137 290.185 74.1038C290.629 73.8938 291.149 73.7888 291.745 73.7888C292.365 73.7888 292.907 73.9158 293.371 74.1697C293.835 74.4187 294.199 74.7605 294.462 75.1951C294.731 75.6248 294.877 76.113 294.902 76.6599H293.613C293.588 76.3328 293.496 76.0374 293.334 75.7737C293.178 75.51 292.963 75.3 292.69 75.1438C292.421 74.9827 292.106 74.9021 291.745 74.9021C291.33 74.9021 290.981 74.9851 290.698 75.1511C290.419 75.3123 290.197 75.532 290.031 75.8103C289.87 76.0837 289.753 76.3889 289.68 76.7258C289.611 77.0579 289.577 77.3972 289.577 77.7439V78.0515C289.577 78.3982 289.611 78.74 289.68 79.0769C289.748 79.4138 289.863 79.719 290.024 79.9924C290.19 80.2659 290.412 80.4856 290.69 80.6516C290.974 80.8127 291.325 80.8933 291.745 80.8933ZM301.098 80.5051V76.4255C301.098 76.113 301.035 75.842 300.908 75.6125C300.786 75.3782 300.6 75.1975 300.351 75.0706C300.102 74.9436 299.794 74.8801 299.428 74.8801C299.086 74.8801 298.786 74.9387 298.527 75.0559C298.273 75.1731 298.073 75.3269 297.927 75.5173C297.785 75.7078 297.714 75.9128 297.714 76.1326H296.359C296.359 75.8494 296.433 75.5686 296.579 75.2903C296.726 75.012 296.936 74.7605 297.209 74.5359C297.487 74.3064 297.819 74.1257 298.205 73.9939C298.596 73.8572 299.03 73.7888 299.509 73.7888C300.085 73.7888 300.593 73.8865 301.032 74.0818C301.477 74.2771 301.823 74.5725 302.072 74.968C302.326 75.3586 302.453 75.8494 302.453 76.4402V80.1316C302.453 80.3953 302.475 80.676 302.519 80.9739C302.568 81.2717 302.639 81.5281 302.731 81.7429V81.8601H301.318C301.25 81.7039 301.196 81.4963 301.157 81.2375C301.118 80.9739 301.098 80.7297 301.098 80.5051ZM301.333 77.0554L301.347 78.0076H299.978C299.592 78.0076 299.248 78.0393 298.945 78.1028C298.642 78.1614 298.388 78.2517 298.183 78.3738C297.978 78.4958 297.822 78.6497 297.714 78.8352C297.607 79.0159 297.553 79.2283 297.553 79.4724C297.553 79.7214 297.609 79.9485 297.722 80.1536C297.834 80.3586 298.002 80.5222 298.227 80.6443C298.457 80.7615 298.737 80.8201 299.069 80.8201C299.484 80.8201 299.851 80.7322 300.168 80.5564C300.485 80.3806 300.737 80.1658 300.922 79.9119C301.113 79.658 301.215 79.4114 301.23 79.1721L301.809 79.824C301.774 80.0291 301.682 80.2561 301.53 80.5051C301.379 80.7542 301.176 80.9934 300.922 81.2229C300.673 81.4475 300.375 81.6355 300.029 81.7869C299.687 81.9333 299.301 82.0066 298.872 82.0066C298.334 82.0066 297.863 81.9016 297.458 81.6917C297.058 81.4817 296.745 81.2009 296.521 80.8494C296.301 80.4929 296.191 80.095 296.191 79.6555C296.191 79.2307 296.274 78.8572 296.44 78.5349C296.606 78.2078 296.845 77.9368 297.158 77.7219C297.47 77.5022 297.846 77.3362 298.286 77.2239C298.725 77.1116 299.216 77.0554 299.758 77.0554H301.333ZM309.96 77.3704V78.469H305.771V77.3704H309.96ZM306.057 73.9353V81.8601H304.702V73.9353H306.057ZM311.059 73.9353V81.8601H309.697V73.9353H311.059ZM314.67 73.9353H316.025L315.908 76.9016C315.878 77.6536 315.793 78.303 315.651 78.8499C315.51 79.3967 315.329 79.863 315.109 80.2488C314.89 80.6296 314.643 80.9495 314.37 81.2083C314.101 81.467 313.823 81.6843 313.535 81.8601H312.861L312.897 80.7542L313.176 80.7468C313.337 80.5564 313.493 80.3611 313.645 80.1609C313.796 79.9558 313.935 79.7141 314.062 79.4358C314.189 79.1526 314.294 78.8083 314.377 78.4031C314.465 77.9929 314.521 77.4924 314.545 76.9016L314.67 73.9353ZM315.007 73.9353H319.775V81.8601H318.42V75.1877H315.007V73.9353ZM312.553 80.7468H320.793V84.1965H319.438V81.8601H313.908V84.1965H312.546L312.553 80.7468ZM323.649 75.4587V84.907H322.287V73.9353H323.532L323.649 75.4587ZM328.989 77.8318V77.9856C328.989 78.5618 328.92 79.0964 328.784 79.5896C328.647 80.0779 328.447 80.5027 328.183 80.864C327.924 81.2253 327.604 81.5061 327.224 81.7063C326.843 81.9065 326.406 82.0066 325.913 82.0066C325.41 82.0066 324.965 81.9236 324.58 81.7576C324.194 81.5916 323.867 81.3499 323.598 81.0325C323.33 80.7151 323.115 80.3342 322.954 79.8899C322.797 79.4456 322.69 78.9451 322.631 78.3884V77.5681C322.69 76.9822 322.8 76.4573 322.961 75.9934C323.122 75.5295 323.334 75.134 323.598 74.8069C323.867 74.4749 324.191 74.2234 324.572 74.0525C324.953 73.8767 325.393 73.7888 325.891 73.7888C326.389 73.7888 326.831 73.8865 327.216 74.0818C327.602 74.2722 327.927 74.5457 328.19 74.9021C328.454 75.2585 328.652 75.6858 328.784 76.1838C328.92 76.677 328.989 77.2263 328.989 77.8318ZM327.626 77.9856V77.8318C327.626 77.4363 327.585 77.0652 327.502 76.7185C327.419 76.3669 327.29 76.0593 327.114 75.7957C326.943 75.5271 326.723 75.3171 326.455 75.1658C326.186 75.0095 325.866 74.9314 325.495 74.9314C325.153 74.9314 324.855 74.99 324.602 75.1072C324.353 75.2244 324.14 75.3831 323.964 75.5833C323.789 75.7786 323.645 76.0032 323.532 76.2571C323.425 76.5061 323.344 76.7649 323.291 77.0334V78.9304C323.388 79.2722 323.525 79.5945 323.701 79.8972C323.876 80.1951 324.111 80.4368 324.404 80.6223C324.697 80.803 325.065 80.8933 325.51 80.8933C325.876 80.8933 326.191 80.8176 326.455 80.6663C326.723 80.51 326.943 80.2976 327.114 80.0291C327.29 79.7605 327.419 79.4529 327.502 79.1062C327.585 78.7546 327.626 78.3811 327.626 77.9856ZM330.358 77.9856V77.8171C330.358 77.2458 330.441 76.7161 330.607 76.2278C330.773 75.7346 331.013 75.3074 331.325 74.946C331.638 74.5798 332.016 74.2966 332.46 74.0964C332.905 73.8914 333.403 73.7888 333.955 73.7888C334.511 73.7888 335.012 73.8914 335.456 74.0964C335.905 74.2966 336.286 74.5798 336.599 74.946C336.916 75.3074 337.158 75.7346 337.324 76.2278C337.49 76.7161 337.573 77.2458 337.573 77.8171V77.9856C337.573 78.5569 337.49 79.0867 337.324 79.575C337.158 80.0632 336.916 80.4905 336.599 80.8567C336.286 81.218 335.908 81.5012 335.463 81.7063C335.024 81.9065 334.526 82.0066 333.969 82.0066C333.413 82.0066 332.912 81.9065 332.468 81.7063C332.023 81.5012 331.643 81.218 331.325 80.8567C331.013 80.4905 330.773 80.0632 330.607 79.575C330.441 79.0867 330.358 78.5569 330.358 77.9856ZM331.713 77.8171V77.9856C331.713 78.3811 331.76 78.7546 331.853 79.1062C331.945 79.4529 332.084 79.7605 332.27 80.0291C332.46 80.2976 332.697 80.51 332.98 80.6663C333.264 80.8176 333.593 80.8933 333.969 80.8933C334.34 80.8933 334.665 80.8176 334.943 80.6663C335.227 80.51 335.461 80.2976 335.646 80.0291C335.832 79.7605 335.971 79.4529 336.064 79.1062C336.162 78.7546 336.21 78.3811 336.21 77.9856V77.8171C336.21 77.4265 336.162 77.0579 336.064 76.7112C335.971 76.3596 335.83 76.0496 335.639 75.781C335.454 75.5076 335.219 75.2927 334.936 75.1365C334.658 74.9802 334.331 74.9021 333.955 74.9021C333.583 74.9021 333.256 74.9802 332.973 75.1365C332.695 75.2927 332.46 75.5076 332.27 75.781C332.084 76.0496 331.945 76.3596 331.853 76.7112C331.76 77.0579 331.713 77.4265 331.713 77.8171ZM342.993 78.3738H340.393L340.378 77.2898H342.502C342.922 77.2898 343.271 77.2483 343.549 77.1653C343.833 77.0823 344.045 76.9578 344.187 76.7917C344.328 76.6257 344.399 76.4207 344.399 76.1765C344.399 75.9861 344.357 75.8201 344.274 75.6785C344.196 75.532 344.077 75.4124 343.916 75.3196C343.754 75.2219 343.554 75.1511 343.315 75.1072C343.081 75.0583 342.805 75.0339 342.487 75.0339H340.751V81.8601H339.396V73.9353H342.487C342.99 73.9353 343.442 73.9792 343.842 74.0671C344.248 74.155 344.592 74.2893 344.875 74.47C345.163 74.6458 345.383 74.8704 345.534 75.1438C345.686 75.4172 345.761 75.7395 345.761 76.1106C345.761 76.3499 345.712 76.5769 345.615 76.7917C345.517 77.0066 345.373 77.197 345.183 77.363C344.992 77.5291 344.758 77.6658 344.479 77.7732C344.201 77.8757 343.881 77.9417 343.52 77.9709L342.993 78.3738ZM342.993 81.8601H339.902L340.576 80.7615H342.993C343.369 80.7615 343.681 80.7151 343.93 80.6223C344.179 80.5247 344.365 80.3879 344.487 80.2122C344.614 80.0315 344.677 79.8167 344.677 79.5676C344.677 79.3186 344.614 79.1062 344.487 78.9304C344.365 78.7498 344.179 78.613 343.93 78.5203C343.681 78.4226 343.369 78.3738 342.993 78.3738H340.935L340.949 77.2898H343.52L344.011 77.7C344.445 77.7341 344.814 77.8416 345.117 78.0222C345.419 78.2029 345.649 78.4324 345.805 78.7107C345.961 78.9841 346.04 79.282 346.04 79.6042C346.04 79.9753 345.969 80.3025 345.827 80.5857C345.69 80.8689 345.49 81.1057 345.227 81.2961C344.963 81.4817 344.643 81.6233 344.267 81.7209C343.891 81.8137 343.466 81.8601 342.993 81.8601ZM351.027 80.8933C351.35 80.8933 351.647 80.8274 351.921 80.6956C352.194 80.5637 352.419 80.3831 352.595 80.1536C352.771 79.9192 352.871 79.6531 352.895 79.3552H354.184C354.16 79.824 354.001 80.261 353.708 80.6663C353.42 81.0667 353.042 81.3914 352.573 81.6404C352.104 81.8845 351.589 82.0066 351.027 82.0066C350.432 82.0066 349.912 81.9016 349.467 81.6917C349.028 81.4817 348.662 81.1936 348.369 80.8274C348.081 80.4612 347.863 80.0413 347.717 79.5676C347.575 79.0891 347.504 78.5837 347.504 78.0515V77.7439C347.504 77.2117 347.575 76.7087 347.717 76.2351C347.863 75.7566 348.081 75.3342 348.369 74.968C348.662 74.6018 349.028 74.3137 349.467 74.1038C349.912 73.8938 350.432 73.7888 351.027 73.7888C351.647 73.7888 352.189 73.9158 352.653 74.1697C353.117 74.4187 353.481 74.7605 353.745 75.1951C354.013 75.6248 354.16 76.113 354.184 76.6599H352.895C352.871 76.3328 352.778 76.0374 352.617 75.7737C352.46 75.51 352.246 75.3 351.972 75.1438C351.704 74.9827 351.389 74.9021 351.027 74.9021C350.612 74.9021 350.263 74.9851 349.98 75.1511C349.702 75.3123 349.479 75.532 349.313 75.8103C349.152 76.0837 349.035 76.3889 348.962 76.7258C348.894 77.0579 348.859 77.3972 348.859 77.7439V78.0515C348.859 78.3982 348.894 78.74 348.962 79.0769C349.03 79.4138 349.145 79.719 349.306 79.9924C349.472 80.2659 349.694 80.4856 349.973 80.6516C350.256 80.8127 350.607 80.8933 351.027 80.8933ZM357.18 73.9353V81.8601H355.825V73.9353H357.18ZM362.38 73.9353L358.623 78.4763H356.726L356.521 77.2898H358.073L360.732 73.9353H362.38ZM360.922 81.8601L358.007 78.2712L358.879 77.2898L362.644 81.8601H360.922ZM366.643 76.7698V77.8831H363.068V76.7698H366.643ZM374.611 78.469H376.018C375.944 79.1428 375.751 79.7458 375.439 80.2781C375.126 80.8103 374.685 81.2327 374.113 81.5452C373.542 81.8528 372.829 82.0066 371.975 82.0066C371.35 82.0066 370.781 81.8894 370.268 81.655C369.76 81.4207 369.323 81.0886 368.957 80.6589C368.591 80.2244 368.308 79.7043 368.107 79.0989C367.912 78.4885 367.814 77.8098 367.814 77.0627V76.0007C367.814 75.2537 367.912 74.5774 368.107 73.9719C368.308 73.3616 368.593 72.8391 368.964 72.4045C369.34 71.97 369.792 71.6355 370.319 71.4011C370.847 71.1667 371.44 71.0496 372.099 71.0496C372.905 71.0496 373.586 71.2009 374.143 71.5037C374.699 71.8064 375.131 72.2263 375.439 72.7634C375.751 73.2957 375.944 73.9133 376.018 74.6165H374.611C374.543 74.1184 374.416 73.6912 374.23 73.3347C374.045 72.9734 373.781 72.6951 373.439 72.4998C373.098 72.3044 372.651 72.2068 372.099 72.2068C371.625 72.2068 371.208 72.2971 370.847 72.4778C370.49 72.6584 370.19 72.9148 369.946 73.2468C369.707 73.5789 369.526 73.9768 369.404 74.4407C369.282 74.9045 369.221 75.4197 369.221 75.9861V77.0627C369.221 77.5852 369.274 78.0759 369.382 78.5349C369.494 78.9939 369.663 79.3967 369.887 79.7434C370.112 80.0901 370.397 80.3635 370.744 80.5637C371.091 80.759 371.501 80.8567 371.975 80.8567C372.575 80.8567 373.054 80.7615 373.41 80.571C373.767 80.3806 374.035 80.1072 374.216 79.7507C374.401 79.3943 374.533 78.967 374.611 78.469ZM382.412 80.5051V76.4255C382.412 76.113 382.348 75.842 382.221 75.6125C382.099 75.3782 381.914 75.1975 381.665 75.0706C381.416 74.9436 381.108 74.8801 380.742 74.8801C380.4 74.8801 380.1 74.9387 379.841 75.0559C379.587 75.1731 379.387 75.3269 379.24 75.5173C379.099 75.7078 379.028 75.9128 379.028 76.1326H377.673C377.673 75.8494 377.746 75.5686 377.893 75.2903C378.039 75.012 378.249 74.7605 378.522 74.5359C378.801 74.3064 379.133 74.1257 379.519 73.9939C379.909 73.8572 380.344 73.7888 380.822 73.7888C381.398 73.7888 381.906 73.8865 382.346 74.0818C382.79 74.2771 383.137 74.5725 383.386 74.968C383.64 75.3586 383.767 75.8494 383.767 76.4402V80.1316C383.767 80.3953 383.789 80.676 383.833 80.9739C383.881 81.2717 383.952 81.5281 384.045 81.7429V81.8601H382.631C382.563 81.7039 382.509 81.4963 382.47 81.2375C382.431 80.9739 382.412 80.7297 382.412 80.5051ZM382.646 77.0554L382.661 78.0076H381.291C380.905 78.0076 380.561 78.0393 380.258 78.1028C379.956 78.1614 379.702 78.2517 379.497 78.3738C379.292 78.4958 379.135 78.6497 379.028 78.8352C378.92 79.0159 378.867 79.2283 378.867 79.4724C378.867 79.7214 378.923 79.9485 379.035 80.1536C379.147 80.3586 379.316 80.5222 379.541 80.6443C379.77 80.7615 380.051 80.8201 380.383 80.8201C380.798 80.8201 381.164 80.7322 381.481 80.5564C381.799 80.3806 382.05 80.1658 382.236 79.9119C382.426 79.658 382.529 79.4114 382.543 79.1721L383.122 79.824C383.088 80.0291 382.995 80.2561 382.844 80.5051C382.692 80.7542 382.49 80.9934 382.236 81.2229C381.987 81.4475 381.689 81.6355 381.342 81.7869C381 81.9333 380.615 82.0066 380.185 82.0066C379.648 82.0066 379.177 81.9016 378.771 81.6917C378.371 81.4817 378.059 81.2009 377.834 80.8494C377.614 80.4929 377.504 80.095 377.504 79.6555C377.504 79.2307 377.587 78.8572 377.753 78.5349C377.919 78.2078 378.159 77.9368 378.471 77.7219C378.784 77.5022 379.16 77.3362 379.599 77.2239C380.039 77.1116 380.529 77.0554 381.071 77.0554H382.646ZM386.813 73.9353L388.549 76.821L390.307 73.9353H391.896L389.304 77.8464L391.977 81.8601H390.41L388.579 78.8865L386.748 81.8601H385.173L387.839 77.8464L385.253 73.9353H386.813ZM398.012 80.5051V76.4255C398.012 76.113 397.949 75.842 397.822 75.6125C397.7 75.3782 397.514 75.1975 397.265 75.0706C397.016 74.9436 396.708 74.8801 396.342 74.8801C396 74.8801 395.7 74.9387 395.441 75.0559C395.188 75.1731 394.987 75.3269 394.841 75.5173C394.699 75.7078 394.628 75.9128 394.628 76.1326H393.273C393.273 75.8494 393.347 75.5686 393.493 75.2903C393.64 75.012 393.85 74.7605 394.123 74.5359C394.401 74.3064 394.733 74.1257 395.119 73.9939C395.51 73.8572 395.944 73.7888 396.423 73.7888C396.999 73.7888 397.507 73.8865 397.946 74.0818C398.391 74.2771 398.737 74.5725 398.986 74.968C399.24 75.3586 399.367 75.8494 399.367 76.4402V80.1316C399.367 80.3953 399.389 80.676 399.433 80.9739C399.482 81.2717 399.553 81.5281 399.646 81.7429V81.8601H398.232C398.164 81.7039 398.11 81.4963 398.071 81.2375C398.032 80.9739 398.012 80.7297 398.012 80.5051ZM398.247 77.0554L398.261 78.0076H396.892C396.506 78.0076 396.162 78.0393 395.859 78.1028C395.556 78.1614 395.302 78.2517 395.097 78.3738C394.892 78.4958 394.736 78.6497 394.628 78.8352C394.521 79.0159 394.467 79.2283 394.467 79.4724C394.467 79.7214 394.523 79.9485 394.636 80.1536C394.748 80.3586 394.917 80.5222 395.141 80.6443C395.371 80.7615 395.651 80.8201 395.983 80.8201C396.398 80.8201 396.765 80.7322 397.082 80.5564C397.399 80.3806 397.651 80.1658 397.836 79.9119C398.027 79.658 398.129 79.4114 398.144 79.1721L398.723 79.824C398.688 80.0291 398.596 80.2561 398.444 80.5051C398.293 80.7542 398.09 80.9934 397.836 81.2229C397.587 81.4475 397.29 81.6355 396.943 81.7869C396.601 81.9333 396.215 82.0066 395.786 82.0066C395.249 82.0066 394.777 81.9016 394.372 81.6917C393.972 81.4817 393.659 81.2009 393.435 80.8494C393.215 80.4929 393.105 80.095 393.105 79.6555C393.105 79.2307 393.188 78.8572 393.354 78.5349C393.52 78.2078 393.759 77.9368 394.072 77.7219C394.384 77.5022 394.76 77.3362 395.2 77.2239C395.639 77.1116 396.13 77.0554 396.672 77.0554H398.247ZM406.794 73.9353V75.0559H402.963V73.9353H406.794ZM407.988 73.9353V81.8601H406.633V73.9353H407.988ZM402.634 73.9353H403.996L403.791 77.7585C403.757 78.3494 403.701 78.8718 403.623 79.3259C403.549 79.7751 403.447 80.1609 403.315 80.4832C403.188 80.8054 403.027 81.0691 402.832 81.2742C402.641 81.4744 402.412 81.6233 402.143 81.7209C401.875 81.8137 401.564 81.8601 401.213 81.8601H400.788V80.6663L401.081 80.6443C401.291 80.6296 401.469 80.5808 401.616 80.4978C401.767 80.4148 401.894 80.2927 401.997 80.1316C402.099 79.9656 402.182 79.7532 402.246 79.4944C402.314 79.2356 402.365 78.928 402.399 78.5715C402.438 78.2151 402.468 77.8 402.487 77.3264L402.634 73.9353ZM411.635 79.7141L415.29 73.9353H416.652V81.8601H415.29V76.0813L411.635 81.8601H410.288V73.9353H411.635V79.7141ZM424.204 77.3704V78.469H420.014V77.3704H424.204ZM420.3 73.9353V81.8601H418.945V73.9353H420.3ZM425.302 73.9353V81.8601H423.94V73.9353H425.302ZM430.656 80.8933C430.979 80.8933 431.276 80.8274 431.55 80.6956C431.823 80.5637 432.048 80.3831 432.224 80.1536C432.399 79.9192 432.5 79.6531 432.524 79.3552H433.813C433.789 79.824 433.63 80.261 433.337 80.6663C433.049 81.0667 432.67 81.3914 432.202 81.6404C431.733 81.8845 431.218 82.0066 430.656 82.0066C430.061 82.0066 429.541 81.9016 429.096 81.6917C428.657 81.4817 428.291 81.1936 427.998 80.8274C427.709 80.4612 427.492 80.0413 427.346 79.5676C427.204 79.0891 427.133 78.5837 427.133 78.0515V77.7439C427.133 77.2117 427.204 76.7087 427.346 76.2351C427.492 75.7566 427.709 75.3342 427.998 74.968C428.291 74.6018 428.657 74.3137 429.096 74.1038C429.541 73.8938 430.061 73.7888 430.656 73.7888C431.276 73.7888 431.818 73.9158 432.282 74.1697C432.746 74.4187 433.11 74.7605 433.374 75.1951C433.642 75.6248 433.789 76.113 433.813 76.6599H432.524C432.5 76.3328 432.407 76.0374 432.246 75.7737C432.089 75.51 431.875 75.3 431.601 75.1438C431.333 74.9827 431.018 74.9021 430.656 74.9021C430.241 74.9021 429.892 74.9851 429.609 75.1511C429.331 75.3123 429.108 75.532 428.942 75.8103C428.781 76.0837 428.664 76.3889 428.591 76.7258C428.522 77.0579 428.488 77.3972 428.488 77.7439V78.0515C428.488 78.3982 428.522 78.74 428.591 79.0769C428.659 79.4138 428.774 79.719 428.935 79.9924C429.101 80.2659 429.323 80.4856 429.602 80.6516C429.885 80.8127 430.236 80.8933 430.656 80.8933ZM436.809 73.9353V81.8601H435.454V73.9353H436.809ZM442.009 73.9353L438.251 78.4763H436.354L436.149 77.2898H437.702L440.361 73.9353H442.009ZM440.551 81.8601L437.636 78.2712L438.508 77.2898L442.272 81.8601H440.551ZM444.917 79.7141L448.571 73.9353H449.934V81.8601H448.571V76.0813L444.917 81.8601H443.569V73.9353H444.917V79.7141ZM453.574 79.7141L457.229 73.9353H458.591V81.8601H457.229V76.0813L453.574 81.8601H452.226V73.9353H453.574V79.7141ZM456.489 71.0642H457.587C457.587 71.4451 457.5 71.7844 457.324 72.0823C457.148 72.3752 456.896 72.6047 456.569 72.7708C456.242 72.9368 455.854 73.0198 455.405 73.0198C454.726 73.0198 454.189 72.8391 453.793 72.4778C453.403 72.1116 453.208 71.6404 453.208 71.0642H454.306C454.306 71.3523 454.389 71.6062 454.555 71.8259C454.721 72.0457 455.004 72.1555 455.405 72.1555C455.795 72.1555 456.074 72.0457 456.24 71.8259C456.406 71.6062 456.489 71.3523 456.489 71.0642Z" fill="white"/>
<path d="M347.25 120.996V131.66H345.859V120.996H347.25ZM350.678 120.996V122.153H342.438V120.996H350.678ZM352.202 126.46H354.582C355.222 126.46 355.761 126.572 356.201 126.797C356.64 127.016 356.972 127.322 357.197 127.712C357.426 128.098 357.541 128.537 357.541 129.031C357.541 129.397 357.478 129.741 357.351 130.063C357.224 130.381 357.033 130.659 356.779 130.898C356.53 131.138 356.22 131.326 355.849 131.462C355.483 131.594 355.061 131.66 354.582 131.66H351.213V123.735H352.568V130.547H354.582C354.973 130.547 355.285 130.476 355.52 130.334C355.754 130.193 355.922 130.01 356.025 129.785C356.127 129.56 356.179 129.326 356.179 129.082C356.179 128.843 356.127 128.608 356.025 128.379C355.922 128.149 355.754 127.959 355.52 127.807C355.285 127.651 354.973 127.573 354.582 127.573H352.202V126.46ZM360.361 123.735V131.66H359.006V123.735H360.361ZM367.29 129.858L369.985 123.735H371.289L367.758 131.66H366.821L363.305 123.735H364.609L367.29 129.858ZM364.213 123.735V131.66H362.858V123.735H364.213ZM370.322 131.66V123.735H371.684V131.66H370.322ZM373.508 127.786V127.617C373.508 127.046 373.591 126.516 373.757 126.028C373.923 125.535 374.162 125.107 374.475 124.746C374.787 124.38 375.166 124.097 375.61 123.896C376.054 123.691 376.552 123.589 377.104 123.589C377.661 123.589 378.161 123.691 378.605 123.896C379.055 124.097 379.436 124.38 379.748 124.746C380.065 125.107 380.307 125.535 380.473 126.028C380.639 126.516 380.722 127.046 380.722 127.617V127.786C380.722 128.357 380.639 128.887 380.473 129.375C380.307 129.863 380.065 130.29 379.748 130.657C379.436 131.018 379.057 131.301 378.613 131.506C378.173 131.706 377.675 131.807 377.119 131.807C376.562 131.807 376.062 131.706 375.617 131.506C375.173 131.301 374.792 131.018 374.475 130.657C374.162 130.29 373.923 129.863 373.757 129.375C373.591 128.887 373.508 128.357 373.508 127.786ZM374.863 127.617V127.786C374.863 128.181 374.909 128.555 375.002 128.906C375.095 129.253 375.234 129.56 375.419 129.829C375.61 130.098 375.847 130.31 376.13 130.466C376.413 130.618 376.743 130.693 377.119 130.693C377.49 130.693 377.814 130.618 378.093 130.466C378.376 130.31 378.61 130.098 378.796 129.829C378.981 129.56 379.121 129.253 379.213 128.906C379.311 128.555 379.36 128.181 379.36 127.786V127.617C379.36 127.226 379.311 126.858 379.213 126.511C379.121 126.16 378.979 125.849 378.789 125.581C378.603 125.307 378.369 125.093 378.085 124.936C377.807 124.78 377.48 124.702 377.104 124.702C376.733 124.702 376.406 124.78 376.123 124.936C375.844 125.093 375.61 125.307 375.419 125.581C375.234 125.849 375.095 126.16 375.002 126.511C374.909 126.858 374.863 127.226 374.863 127.617ZM386.142 128.174H383.542L383.527 127.09H385.651C386.071 127.09 386.42 127.048 386.699 126.965C386.982 126.882 387.194 126.758 387.336 126.592C387.478 126.426 387.548 126.221 387.548 125.976C387.548 125.786 387.507 125.62 387.424 125.478C387.346 125.332 387.226 125.212 387.065 125.12C386.904 125.022 386.704 124.951 386.464 124.907C386.23 124.858 385.954 124.834 385.637 124.834H383.901V131.66H382.546V123.735H385.637C386.14 123.735 386.591 123.779 386.992 123.867C387.397 123.955 387.741 124.089 388.024 124.27C388.312 124.446 388.532 124.67 388.684 124.944C388.835 125.217 388.911 125.539 388.911 125.911C388.911 126.15 388.862 126.377 388.764 126.592C388.667 126.807 388.522 126.997 388.332 127.163C388.142 127.329 387.907 127.466 387.629 127.573C387.351 127.676 387.031 127.742 386.669 127.771L386.142 128.174ZM386.142 131.66H383.051L383.725 130.561H386.142C386.518 130.561 386.831 130.515 387.08 130.422C387.329 130.325 387.514 130.188 387.636 130.012C387.763 129.831 387.827 129.617 387.827 129.368C387.827 129.119 387.763 128.906 387.636 128.73C387.514 128.55 387.329 128.413 387.08 128.32C386.831 128.223 386.518 128.174 386.142 128.174H384.084L384.099 127.09H386.669L387.16 127.5C387.595 127.534 387.963 127.641 388.266 127.822C388.569 128.003 388.798 128.232 388.955 128.511C389.111 128.784 389.189 129.082 389.189 129.404C389.189 129.775 389.118 130.102 388.977 130.386C388.84 130.669 388.64 130.906 388.376 131.096C388.112 131.282 387.792 131.423 387.417 131.521C387.041 131.614 386.616 131.66 386.142 131.66ZM394.177 130.693C394.499 130.693 394.797 130.627 395.07 130.495C395.344 130.364 395.568 130.183 395.744 129.953C395.92 129.719 396.02 129.453 396.044 129.155H397.333C397.309 129.624 397.15 130.061 396.857 130.466C396.569 130.867 396.191 131.191 395.722 131.44C395.253 131.684 394.738 131.807 394.177 131.807C393.581 131.807 393.061 131.702 392.617 131.492C392.177 131.282 391.811 130.994 391.518 130.627C391.23 130.261 391.013 129.841 390.866 129.368C390.725 128.889 390.654 128.384 390.654 127.851V127.544C390.654 127.012 390.725 126.509 390.866 126.035C391.013 125.557 391.23 125.134 391.518 124.768C391.811 124.402 392.177 124.114 392.617 123.904C393.061 123.694 393.581 123.589 394.177 123.589C394.797 123.589 395.339 123.716 395.803 123.97C396.267 124.219 396.63 124.56 396.894 124.995C397.163 125.425 397.309 125.913 397.333 126.46H396.044C396.02 126.133 395.927 125.837 395.766 125.574C395.61 125.31 395.395 125.1 395.122 124.944C394.853 124.783 394.538 124.702 394.177 124.702C393.762 124.702 393.413 124.785 393.129 124.951C392.851 125.112 392.629 125.332 392.463 125.61C392.302 125.884 392.185 126.189 392.111 126.526C392.043 126.858 392.009 127.197 392.009 127.544V127.851C392.009 128.198 392.043 128.54 392.111 128.877C392.18 129.214 392.294 129.519 392.456 129.792C392.622 130.066 392.844 130.286 393.122 130.452C393.405 130.613 393.757 130.693 394.177 130.693ZM400.329 123.735V131.66H398.974V123.735H400.329ZM405.529 123.735L401.772 128.276H399.875L399.67 127.09H401.223L403.881 123.735H405.529ZM404.072 131.66L401.157 128.071L402.028 127.09L405.793 131.66H404.072ZM406.452 127.786V127.617C406.452 127.046 406.535 126.516 406.701 126.028C406.867 125.535 407.106 125.107 407.419 124.746C407.731 124.38 408.11 124.097 408.554 123.896C408.999 123.691 409.497 123.589 410.048 123.589C410.605 123.589 411.105 123.691 411.55 123.896C411.999 124.097 412.38 124.38 412.692 124.746C413.01 125.107 413.251 125.535 413.417 126.028C413.583 126.516 413.667 127.046 413.667 127.617V127.786C413.667 128.357 413.583 128.887 413.417 129.375C413.251 129.863 413.01 130.29 412.692 130.657C412.38 131.018 412.001 131.301 411.557 131.506C411.118 131.706 410.62 131.807 410.063 131.807C409.506 131.807 409.006 131.706 408.562 131.506C408.117 131.301 407.736 131.018 407.419 130.657C407.106 130.29 406.867 129.863 406.701 129.375C406.535 128.887 406.452 128.357 406.452 127.786ZM407.807 127.617V127.786C407.807 128.181 407.854 128.555 407.946 128.906C408.039 129.253 408.178 129.56 408.364 129.829C408.554 130.098 408.791 130.31 409.074 130.466C409.357 130.618 409.687 130.693 410.063 130.693C410.434 130.693 410.759 130.618 411.037 130.466C411.32 130.31 411.555 130.098 411.74 129.829C411.926 129.56 412.065 129.253 412.158 128.906C412.255 128.555 412.304 128.181 412.304 127.786V127.617C412.304 127.226 412.255 126.858 412.158 126.511C412.065 126.16 411.923 125.849 411.733 125.581C411.547 125.307 411.313 125.093 411.03 124.936C410.751 124.78 410.424 124.702 410.048 124.702C409.677 124.702 409.35 124.78 409.067 124.936C408.789 125.093 408.554 125.307 408.364 125.581C408.178 125.849 408.039 126.16 407.946 126.511C407.854 126.858 407.807 127.226 407.807 127.617ZM418.654 131.807C418.103 131.807 417.602 131.714 417.153 131.528C416.708 131.338 416.325 131.072 416.003 130.73C415.686 130.388 415.441 129.983 415.271 129.514C415.1 129.045 415.014 128.533 415.014 127.976V127.668C415.014 127.024 415.109 126.45 415.3 125.947C415.49 125.439 415.749 125.01 416.076 124.658C416.403 124.307 416.774 124.04 417.189 123.86C417.604 123.679 418.034 123.589 418.479 123.589C419.045 123.589 419.533 123.686 419.943 123.882C420.358 124.077 420.698 124.35 420.961 124.702C421.225 125.049 421.42 125.459 421.547 125.932C421.674 126.401 421.738 126.914 421.738 127.471V128.078H415.82V126.973H420.383V126.87C420.363 126.518 420.29 126.177 420.163 125.845C420.041 125.513 419.846 125.239 419.577 125.024C419.309 124.809 418.942 124.702 418.479 124.702C418.171 124.702 417.888 124.768 417.629 124.9C417.37 125.027 417.148 125.217 416.962 125.471C416.777 125.725 416.633 126.035 416.53 126.401C416.428 126.767 416.376 127.19 416.376 127.668V127.976C416.376 128.352 416.428 128.706 416.53 129.038C416.638 129.365 416.792 129.653 416.992 129.902C417.197 130.151 417.443 130.347 417.731 130.488C418.024 130.63 418.356 130.701 418.728 130.701C419.206 130.701 419.611 130.603 419.943 130.408C420.275 130.212 420.566 129.951 420.815 129.624L421.635 130.276C421.464 130.535 421.247 130.781 420.983 131.016C420.72 131.25 420.395 131.44 420.009 131.587C419.628 131.733 419.177 131.807 418.654 131.807Z" fill="white"/>
<path d="M443.203 118.781V119.93H437.432V118.781H443.203ZM437.651 114.196V124.86H436.238V114.196H437.651ZM444.434 114.196V124.86H443.027V114.196H444.434ZM446.382 120.985V120.817C446.382 120.245 446.465 119.716 446.631 119.227C446.797 118.734 447.036 118.307 447.349 117.946C447.661 117.579 448.04 117.296 448.484 117.096C448.928 116.891 449.426 116.788 449.978 116.788C450.535 116.788 451.035 116.891 451.479 117.096C451.929 117.296 452.31 117.579 452.622 117.946C452.939 118.307 453.181 118.734 453.347 119.227C453.513 119.716 453.596 120.245 453.596 120.817V120.985C453.596 121.556 453.513 122.086 453.347 122.574C453.181 123.063 452.939 123.49 452.622 123.856C452.31 124.218 451.931 124.501 451.487 124.706C451.047 124.906 450.549 125.006 449.993 125.006C449.436 125.006 448.936 124.906 448.491 124.706C448.047 124.501 447.666 124.218 447.349 123.856C447.036 123.49 446.797 123.063 446.631 122.574C446.465 122.086 446.382 121.556 446.382 120.985ZM447.737 120.817V120.985C447.737 121.381 447.783 121.754 447.876 122.106C447.969 122.452 448.108 122.76 448.293 123.029C448.484 123.297 448.721 123.51 449.004 123.666C449.287 123.817 449.617 123.893 449.993 123.893C450.364 123.893 450.688 123.817 450.967 123.666C451.25 123.51 451.484 123.297 451.67 123.029C451.855 122.76 451.995 122.452 452.087 122.106C452.185 121.754 452.234 121.381 452.234 120.985V120.817C452.234 120.426 452.185 120.057 452.087 119.711C451.995 119.359 451.853 119.049 451.663 118.781C451.477 118.507 451.243 118.292 450.959 118.136C450.681 117.98 450.354 117.902 449.978 117.902C449.607 117.902 449.28 117.98 448.997 118.136C448.718 118.292 448.484 118.507 448.293 118.781C448.108 119.049 447.969 119.359 447.876 119.711C447.783 120.057 447.737 120.426 447.737 120.817ZM460.415 116.935V118.055H456.753V124.86H455.398V116.935H460.415ZM466.597 116.935V118.055H462.766V116.935H466.597ZM467.791 116.935V124.86H466.436V116.935H467.791ZM462.437 116.935H463.799L463.594 120.758C463.56 121.349 463.503 121.871 463.425 122.325C463.352 122.775 463.25 123.16 463.118 123.483C462.991 123.805 462.83 124.069 462.634 124.274C462.444 124.474 462.214 124.623 461.946 124.72C461.677 124.813 461.367 124.86 461.016 124.86H460.591V123.666L460.884 123.644C461.094 123.629 461.272 123.58 461.418 123.497C461.57 123.414 461.697 123.292 461.799 123.131C461.902 122.965 461.985 122.753 462.048 122.494C462.117 122.235 462.168 121.927 462.202 121.571C462.241 121.215 462.271 120.8 462.29 120.326L462.437 116.935ZM471.438 122.714L475.093 116.935H476.455V124.86H475.093V119.081L471.438 124.86H470.09V116.935H471.438V122.714ZM480.103 116.935V124.86H478.748V116.935H480.103ZM485.303 116.935L481.545 121.476H479.648L479.443 120.289H480.996L483.655 116.935H485.303ZM483.845 124.86L480.93 121.271L481.802 120.289L485.566 124.86H483.845ZM488.21 122.714L491.865 116.935H493.228V124.86H491.865V119.081L488.21 124.86H486.863V116.935H488.21V122.714Z" fill="white"/>
<path d="M211.676 156.469H213.082C213.009 157.142 212.816 157.745 212.503 158.278C212.191 158.81 211.749 159.232 211.178 159.545C210.606 159.852 209.894 160.006 209.039 160.006C208.414 160.006 207.845 159.889 207.333 159.655C206.825 159.42 206.388 159.088 206.021 158.658C205.655 158.224 205.372 157.704 205.172 157.098C204.977 156.488 204.879 155.809 204.879 155.062V154C204.879 153.253 204.977 152.577 205.172 151.971C205.372 151.361 205.658 150.839 206.029 150.404C206.405 149.969 206.856 149.635 207.384 149.401C207.911 149.166 208.504 149.049 209.164 149.049C209.969 149.049 210.65 149.2 211.207 149.503C211.764 149.806 212.196 150.226 212.503 150.763C212.816 151.295 213.009 151.913 213.082 152.616H211.676C211.607 152.118 211.48 151.691 211.295 151.334C211.109 150.973 210.846 150.695 210.504 150.499C210.162 150.304 209.715 150.206 209.164 150.206C208.69 150.206 208.272 150.297 207.911 150.477C207.555 150.658 207.254 150.914 207.01 151.246C206.771 151.578 206.59 151.976 206.468 152.44C206.346 152.904 206.285 153.419 206.285 153.986V155.062C206.285 155.585 206.339 156.075 206.446 156.534C206.559 156.993 206.727 157.396 206.952 157.743C207.176 158.09 207.462 158.363 207.809 158.563C208.155 158.759 208.565 158.856 209.039 158.856C209.64 158.856 210.118 158.761 210.475 158.571C210.831 158.38 211.1 158.107 211.28 157.75C211.466 157.394 211.598 156.967 211.676 156.469ZM219.359 158.058L222.054 151.935H223.358L219.828 159.86H218.89L215.375 151.935H216.678L219.359 158.058ZM216.283 151.935V159.86H214.928V151.935H216.283ZM222.391 159.86V151.935H223.753V159.86H222.391ZM227.401 157.714L231.056 151.935H232.418V159.86H231.056V154.081L227.401 159.86H226.053V151.935H227.401V157.714ZM235.948 153.458V162.906H234.586V151.935H235.831L235.948 153.458ZM241.288 155.831V155.985C241.288 156.561 241.219 157.096 241.083 157.589C240.946 158.077 240.746 158.502 240.482 158.864C240.223 159.225 239.903 159.506 239.522 159.706C239.142 159.906 238.705 160.006 238.211 160.006C237.708 160.006 237.264 159.923 236.878 159.757C236.493 159.591 236.166 159.349 235.897 159.032C235.628 158.715 235.414 158.334 235.252 157.889C235.096 157.445 234.989 156.945 234.93 156.388V155.568C234.989 154.982 235.099 154.457 235.26 153.993C235.421 153.529 235.633 153.134 235.897 152.806C236.166 152.474 236.49 152.223 236.871 152.052C237.252 151.876 237.691 151.788 238.189 151.788C238.688 151.788 239.129 151.886 239.515 152.081C239.901 152.272 240.226 152.545 240.489 152.902C240.753 153.258 240.951 153.685 241.083 154.183C241.219 154.677 241.288 155.226 241.288 155.831ZM239.925 155.985V155.831C239.925 155.436 239.884 155.065 239.801 154.718C239.718 154.366 239.588 154.059 239.413 153.795C239.242 153.527 239.022 153.317 238.753 153.165C238.485 153.009 238.165 152.931 237.794 152.931C237.452 152.931 237.154 152.99 236.9 153.107C236.651 153.224 236.439 153.383 236.263 153.583C236.087 153.778 235.943 154.003 235.831 154.257C235.724 154.506 235.643 154.764 235.589 155.033V156.93C235.687 157.272 235.824 157.594 236 157.897C236.175 158.195 236.41 158.436 236.703 158.622C236.996 158.802 237.364 158.893 237.809 158.893C238.175 158.893 238.49 158.817 238.753 158.666C239.022 158.51 239.242 158.297 239.413 158.029C239.588 157.76 239.718 157.452 239.801 157.106C239.884 156.754 239.925 156.381 239.925 155.985ZM248.392 155.37V156.469H244.203V155.37H248.392ZM244.488 151.935V159.86H243.133V151.935H244.488ZM249.491 151.935V159.86H248.128V151.935H249.491ZM252.787 154.659H255.167C255.807 154.659 256.346 154.772 256.786 154.996C257.225 155.216 257.557 155.521 257.782 155.912C258.011 156.298 258.126 156.737 258.126 157.23C258.126 157.596 258.062 157.941 257.936 158.263C257.809 158.58 257.618 158.859 257.364 159.098C257.115 159.337 256.805 159.525 256.434 159.662C256.068 159.794 255.646 159.86 255.167 159.86H251.798V151.935H253.153V158.746H255.167C255.558 158.746 255.87 158.676 256.104 158.534C256.339 158.392 256.507 158.209 256.61 157.985C256.712 157.76 256.764 157.526 256.764 157.281C256.764 157.042 256.712 156.808 256.61 156.578C256.507 156.349 256.339 156.158 256.104 156.007C255.87 155.851 255.558 155.773 255.167 155.773H252.787V154.659ZM260.946 151.935V159.86H259.591V151.935H260.946ZM264.234 151.935L265.97 154.821L267.728 151.935H269.317L266.725 155.846L269.398 159.86H267.831L266 156.886L264.168 159.86H262.594L265.26 155.846L262.674 151.935H264.234Z" fill="white"/>
<path d="M213.382 202.196V212.86H211.976V203.353H206.717V212.86H205.304V202.196H213.382ZM215.382 208.985V208.817C215.382 208.245 215.465 207.716 215.631 207.227C215.797 206.734 216.036 206.307 216.349 205.946C216.661 205.579 217.04 205.296 217.484 205.096C217.928 204.891 218.426 204.788 218.978 204.788C219.535 204.788 220.035 204.891 220.479 205.096C220.929 205.296 221.31 205.579 221.622 205.946C221.939 206.307 222.181 206.734 222.347 207.227C222.513 207.716 222.596 208.245 222.596 208.817V208.985C222.596 209.556 222.513 210.086 222.347 210.574C222.181 211.063 221.939 211.49 221.622 211.856C221.31 212.218 220.931 212.501 220.487 212.706C220.047 212.906 219.549 213.006 218.993 213.006C218.436 213.006 217.936 212.906 217.491 212.706C217.047 212.501 216.666 212.218 216.349 211.856C216.036 211.49 215.797 211.063 215.631 210.574C215.465 210.086 215.382 209.556 215.382 208.985ZM216.737 208.817V208.985C216.737 209.381 216.783 209.754 216.876 210.106C216.969 210.452 217.108 210.76 217.293 211.029C217.484 211.297 217.721 211.51 218.004 211.666C218.287 211.817 218.617 211.893 218.993 211.893C219.364 211.893 219.688 211.817 219.967 211.666C220.25 211.51 220.484 211.297 220.67 211.029C220.855 210.76 220.995 210.452 221.087 210.106C221.185 209.754 221.234 209.381 221.234 208.985V208.817C221.234 208.426 221.185 208.057 221.087 207.711C220.995 207.359 220.853 207.049 220.663 206.781C220.477 206.507 220.243 206.292 219.959 206.136C219.681 205.98 219.354 205.902 218.978 205.902C218.607 205.902 218.28 205.98 217.997 206.136C217.718 206.292 217.484 206.507 217.293 206.781C217.108 207.049 216.969 207.359 216.876 207.711C216.783 208.057 216.737 208.426 216.737 208.817ZM225.65 206.458V215.906H224.288V204.935H225.533L225.65 206.458ZM230.99 208.831V208.985C230.99 209.561 230.921 210.096 230.785 210.589C230.648 211.077 230.448 211.502 230.184 211.864C229.925 212.225 229.605 212.506 229.225 212.706C228.844 212.906 228.407 213.006 227.914 213.006C227.411 213.006 226.966 212.923 226.581 212.757C226.195 212.591 225.868 212.349 225.599 212.032C225.331 211.715 225.116 211.334 224.955 210.889C224.798 210.445 224.691 209.945 224.632 209.388V208.568C224.691 207.982 224.801 207.457 224.962 206.993C225.123 206.529 225.335 206.134 225.599 205.806C225.868 205.474 226.192 205.223 226.573 205.052C226.954 204.876 227.394 204.788 227.892 204.788C228.39 204.788 228.832 204.886 229.217 205.081C229.603 205.272 229.928 205.545 230.191 205.902C230.455 206.258 230.653 206.685 230.785 207.183C230.921 207.677 230.99 208.226 230.99 208.831ZM229.627 208.985V208.831C229.627 208.436 229.586 208.065 229.503 207.718C229.42 207.366 229.291 207.059 229.115 206.795C228.944 206.527 228.724 206.317 228.456 206.165C228.187 206.009 227.867 205.931 227.496 205.931C227.154 205.931 226.856 205.99 226.603 206.107C226.354 206.224 226.141 206.383 225.965 206.583C225.79 206.778 225.646 207.003 225.533 207.257C225.426 207.506 225.345 207.764 225.292 208.033V209.93C225.389 210.272 225.526 210.594 225.702 210.897C225.877 211.195 226.112 211.436 226.405 211.622C226.698 211.802 227.066 211.893 227.511 211.893C227.877 211.893 228.192 211.817 228.456 211.666C228.724 211.51 228.944 211.297 229.115 211.029C229.291 210.76 229.42 210.452 229.503 210.106C229.586 209.754 229.627 209.381 229.627 208.985ZM232.359 208.985V208.817C232.359 208.245 232.442 207.716 232.608 207.227C232.774 206.734 233.014 206.307 233.326 205.946C233.639 205.579 234.017 205.296 234.461 205.096C234.906 204.891 235.404 204.788 235.956 204.788C236.512 204.788 237.013 204.891 237.457 205.096C237.906 205.296 238.287 205.579 238.6 205.946C238.917 206.307 239.159 206.734 239.325 207.227C239.491 207.716 239.574 208.245 239.574 208.817V208.985C239.574 209.556 239.491 210.086 239.325 210.574C239.159 211.063 238.917 211.49 238.6 211.856C238.287 212.218 237.909 212.501 237.464 212.706C237.025 212.906 236.527 213.006 235.97 213.006C235.414 213.006 234.913 212.906 234.469 212.706C234.024 212.501 233.644 212.218 233.326 211.856C233.014 211.49 232.774 211.063 232.608 210.574C232.442 210.086 232.359 209.556 232.359 208.985ZM233.714 208.817V208.985C233.714 209.381 233.761 209.754 233.854 210.106C233.946 210.452 234.085 210.76 234.271 211.029C234.461 211.297 234.698 211.51 234.981 211.666C235.265 211.817 235.594 211.893 235.97 211.893C236.341 211.893 236.666 211.817 236.944 211.666C237.228 211.51 237.462 211.297 237.647 211.029C237.833 210.76 237.972 210.452 238.065 210.106C238.163 209.754 238.211 209.381 238.211 208.985V208.817C238.211 208.426 238.163 208.057 238.065 207.711C237.972 207.359 237.831 207.049 237.64 206.781C237.455 206.507 237.22 206.292 236.937 206.136C236.659 205.98 236.332 205.902 235.956 205.902C235.584 205.902 235.257 205.98 234.974 206.136C234.696 206.292 234.461 206.507 234.271 206.781C234.085 207.049 233.946 207.359 233.854 207.711C233.761 208.057 233.714 208.426 233.714 208.817ZM246.649 208.37V209.469H242.459V208.37H246.649ZM242.745 204.935V212.86H241.39V204.935H242.745ZM247.748 204.935V212.86H246.385V204.935H247.748ZM254.603 211.505V207.425C254.603 207.113 254.54 206.842 254.413 206.612C254.291 206.378 254.105 206.197 253.856 206.07C253.607 205.943 253.299 205.88 252.933 205.88C252.591 205.88 252.291 205.938 252.032 206.055C251.778 206.173 251.578 206.326 251.432 206.517C251.29 206.707 251.219 206.912 251.219 207.132H249.864C249.864 206.849 249.938 206.568 250.084 206.29C250.23 206.011 250.44 205.76 250.714 205.535C250.992 205.306 251.324 205.125 251.71 204.993C252.101 204.857 252.535 204.788 253.014 204.788C253.59 204.788 254.098 204.886 254.537 205.081C254.981 205.277 255.328 205.572 255.577 205.968C255.831 206.358 255.958 206.849 255.958 207.44V211.131C255.958 211.395 255.98 211.676 256.024 211.973C256.073 212.271 256.144 212.528 256.236 212.742V212.86H254.823C254.754 212.703 254.701 212.496 254.662 212.237C254.623 211.973 254.603 211.729 254.603 211.505ZM254.837 208.055L254.852 209.007H253.482C253.097 209.007 252.752 209.039 252.45 209.102C252.147 209.161 251.893 209.251 251.688 209.373C251.483 209.495 251.327 209.649 251.219 209.835C251.112 210.015 251.058 210.228 251.058 210.472C251.058 210.721 251.114 210.948 251.227 211.153C251.339 211.358 251.507 211.522 251.732 211.644C251.961 211.761 252.242 211.82 252.574 211.82C252.989 211.82 253.355 211.732 253.673 211.556C253.99 211.38 254.242 211.165 254.427 210.911C254.618 210.657 254.72 210.411 254.735 210.172L255.313 210.823C255.279 211.029 255.187 211.256 255.035 211.505C254.884 211.754 254.681 211.993 254.427 212.222C254.178 212.447 253.88 212.635 253.534 212.786C253.192 212.933 252.806 213.006 252.376 213.006C251.839 213.006 251.368 212.901 250.963 212.691C250.562 212.481 250.25 212.2 250.025 211.849C249.806 211.492 249.696 211.094 249.696 210.655C249.696 210.23 249.779 209.857 249.945 209.534C250.111 209.207 250.35 208.936 250.663 208.721C250.975 208.502 251.351 208.336 251.791 208.223C252.23 208.111 252.721 208.055 253.263 208.055H254.837ZM259.554 210.714L263.209 204.935H264.571V212.86H263.209V207.081L259.554 212.86H258.207V204.935H259.554V210.714ZM262.469 202.064H263.568C263.568 202.445 263.48 202.784 263.304 203.082C263.128 203.375 262.877 203.604 262.55 203.77C262.223 203.936 261.834 204.019 261.385 204.019C260.707 204.019 260.169 203.839 259.774 203.477C259.383 203.111 259.188 202.64 259.188 202.064H260.287C260.287 202.352 260.37 202.606 260.536 202.825C260.702 203.045 260.985 203.155 261.385 203.155C261.776 203.155 262.054 203.045 262.22 202.825C262.386 202.606 262.469 202.352 262.469 202.064ZM269.918 211.893C270.24 211.893 270.538 211.827 270.812 211.695C271.085 211.563 271.31 211.383 271.485 211.153C271.661 210.919 271.761 210.653 271.786 210.355H273.075C273.05 210.823 272.892 211.26 272.599 211.666C272.311 212.066 271.932 212.391 271.463 212.64C270.995 212.884 270.479 213.006 269.918 213.006C269.322 213.006 268.802 212.901 268.358 212.691C267.918 212.481 267.552 212.193 267.259 211.827C266.971 211.461 266.754 211.041 266.607 210.567C266.466 210.089 266.395 209.583 266.395 209.051V208.743C266.395 208.211 266.466 207.708 266.607 207.235C266.754 206.756 266.971 206.334 267.259 205.968C267.552 205.601 267.918 205.313 268.358 205.103C268.802 204.893 269.322 204.788 269.918 204.788C270.538 204.788 271.08 204.915 271.544 205.169C272.008 205.418 272.372 205.76 272.635 206.195C272.904 206.624 273.05 207.113 273.075 207.659H271.786C271.761 207.332 271.668 207.037 271.507 206.773C271.351 206.51 271.136 206.3 270.863 206.143C270.594 205.982 270.279 205.902 269.918 205.902C269.503 205.902 269.154 205.985 268.871 206.151C268.592 206.312 268.37 206.531 268.204 206.81C268.043 207.083 267.926 207.388 267.853 207.725C267.784 208.057 267.75 208.397 267.75 208.743V209.051C267.75 209.398 267.784 209.74 267.853 210.076C267.921 210.413 268.036 210.719 268.197 210.992C268.363 211.265 268.585 211.485 268.863 211.651C269.146 211.812 269.498 211.893 269.918 211.893ZM276.07 204.935V212.86H274.715V204.935H276.07ZM281.271 204.935L277.513 209.476H275.616L275.411 208.289H276.964L279.623 204.935H281.271ZM279.813 212.86L276.898 209.271L277.77 208.289L281.534 212.86H279.813Z" fill="white"/>
<path d="M145.685 170.196H147.054L150.548 178.889L154.034 170.196H155.411L151.075 180.86H150.006L145.685 170.196ZM145.238 170.196H146.446L146.644 176.699V180.86H145.238V170.196ZM154.642 170.196H155.851V180.86H154.444V176.699L154.642 170.196ZM162.801 179.505V175.425C162.801 175.113 162.738 174.842 162.611 174.612C162.489 174.378 162.303 174.197 162.054 174.07C161.805 173.943 161.498 173.88 161.131 173.88C160.79 173.88 160.489 173.938 160.23 174.055C159.977 174.173 159.776 174.326 159.63 174.517C159.488 174.707 159.417 174.912 159.417 175.132H158.062C158.062 174.849 158.136 174.568 158.282 174.29C158.429 174.011 158.639 173.76 158.912 173.535C159.19 173.306 159.522 173.125 159.908 172.993C160.299 172.857 160.733 172.788 161.212 172.788C161.788 172.788 162.296 172.886 162.735 173.081C163.18 173.277 163.526 173.572 163.775 173.968C164.029 174.358 164.156 174.849 164.156 175.44V179.131C164.156 179.395 164.178 179.676 164.222 179.973C164.271 180.271 164.342 180.528 164.435 180.742V180.86H163.021C162.953 180.703 162.899 180.496 162.86 180.237C162.821 179.973 162.801 179.729 162.801 179.505ZM163.036 176.055L163.05 177.007H161.681C161.295 177.007 160.951 177.039 160.648 177.102C160.345 177.161 160.091 177.251 159.886 177.373C159.681 177.495 159.525 177.649 159.417 177.835C159.31 178.015 159.256 178.228 159.256 178.472C159.256 178.721 159.312 178.948 159.425 179.153C159.537 179.358 159.706 179.522 159.93 179.644C160.16 179.761 160.44 179.82 160.772 179.82C161.188 179.82 161.554 179.732 161.871 179.556C162.188 179.38 162.44 179.165 162.625 178.911C162.816 178.657 162.918 178.411 162.933 178.172L163.512 178.823C163.478 179.029 163.385 179.256 163.233 179.505C163.082 179.754 162.879 179.993 162.625 180.222C162.376 180.447 162.079 180.635 161.732 180.786C161.39 180.933 161.004 181.006 160.575 181.006C160.038 181.006 159.566 180.901 159.161 180.691C158.761 180.481 158.448 180.2 158.224 179.849C158.004 179.492 157.894 179.094 157.894 178.655C157.894 178.23 157.977 177.857 158.143 177.534C158.309 177.207 158.548 176.936 158.861 176.721C159.173 176.502 159.549 176.336 159.989 176.223C160.428 176.111 160.919 176.055 161.461 176.055H163.036ZM167.76 172.935V180.86H166.405V172.935H167.76ZM172.96 172.935L169.203 177.476H167.306L167.101 176.289H168.653L171.312 172.935H172.96ZM171.502 180.86L168.587 177.271L169.459 176.289L173.224 180.86H171.502ZM179.076 179.505V175.425C179.076 175.113 179.012 174.842 178.885 174.612C178.763 174.378 178.578 174.197 178.329 174.07C178.08 173.943 177.772 173.88 177.406 173.88C177.064 173.88 176.764 173.938 176.505 174.055C176.251 174.173 176.051 174.326 175.904 174.517C175.763 174.707 175.692 174.912 175.692 175.132H174.337C174.337 174.849 174.41 174.568 174.557 174.29C174.703 174.011 174.913 173.76 175.187 173.535C175.465 173.306 175.797 173.125 176.183 172.993C176.573 172.857 177.008 172.788 177.486 172.788C178.062 172.788 178.57 172.886 179.01 173.081C179.454 173.277 179.801 173.572 180.05 173.968C180.304 174.358 180.431 174.849 180.431 175.44V179.131C180.431 179.395 180.453 179.676 180.497 179.973C180.545 180.271 180.616 180.528 180.709 180.742V180.86H179.295C179.227 180.703 179.173 180.496 179.134 180.237C179.095 179.973 179.076 179.729 179.076 179.505ZM179.31 176.055L179.325 177.007H177.955C177.569 177.007 177.225 177.039 176.922 177.102C176.62 177.161 176.366 177.251 176.161 177.373C175.956 177.495 175.799 177.649 175.692 177.835C175.584 178.015 175.531 178.228 175.531 178.472C175.531 178.721 175.587 178.948 175.699 179.153C175.812 179.358 175.98 179.522 176.205 179.644C176.434 179.761 176.715 179.82 177.047 179.82C177.462 179.82 177.828 179.732 178.146 179.556C178.463 179.38 178.714 179.165 178.9 178.911C179.09 178.657 179.193 178.411 179.208 178.172L179.786 178.823C179.752 179.029 179.659 179.256 179.508 179.505C179.356 179.754 179.154 179.993 178.9 180.222C178.651 180.447 178.353 180.635 178.006 180.786C177.665 180.933 177.279 181.006 176.849 181.006C176.312 181.006 175.841 180.901 175.436 180.691C175.035 180.481 174.723 180.2 174.498 179.849C174.278 179.492 174.168 179.094 174.168 178.655C174.168 178.23 174.251 177.857 174.417 177.534C174.583 177.207 174.823 176.936 175.135 176.721C175.448 176.502 175.824 176.336 176.263 176.223C176.703 176.111 177.193 176.055 177.735 176.055H179.31ZM183.917 174.458V183.906H182.555V172.935H183.8L183.917 174.458ZM189.256 176.831V176.985C189.256 177.561 189.188 178.096 189.051 178.589C188.915 179.077 188.714 179.502 188.451 179.864C188.192 180.225 187.872 180.506 187.491 180.706C187.11 180.906 186.673 181.006 186.18 181.006C185.677 181.006 185.233 180.923 184.847 180.757C184.461 180.591 184.134 180.349 183.866 180.032C183.597 179.715 183.382 179.334 183.221 178.889C183.065 178.445 182.958 177.945 182.899 177.388V176.568C182.958 175.982 183.067 175.457 183.229 174.993C183.39 174.529 183.602 174.134 183.866 173.806C184.134 173.474 184.459 173.223 184.84 173.052C185.221 172.876 185.66 172.788 186.158 172.788C186.656 172.788 187.098 172.886 187.484 173.081C187.87 173.272 188.194 173.545 188.458 173.902C188.722 174.258 188.919 174.685 189.051 175.183C189.188 175.677 189.256 176.226 189.256 176.831ZM187.894 176.985V176.831C187.894 176.436 187.853 176.065 187.77 175.718C187.687 175.366 187.557 175.059 187.381 174.795C187.21 174.527 186.991 174.317 186.722 174.165C186.454 174.009 186.134 173.931 185.763 173.931C185.421 173.931 185.123 173.99 184.869 174.107C184.62 174.224 184.408 174.383 184.232 174.583C184.056 174.778 183.912 175.003 183.8 175.257C183.692 175.506 183.612 175.764 183.558 176.033V177.93C183.656 178.272 183.792 178.594 183.968 178.897C184.144 179.195 184.378 179.436 184.671 179.622C184.964 179.802 185.333 179.893 185.777 179.893C186.144 179.893 186.458 179.817 186.722 179.666C186.991 179.51 187.21 179.297 187.381 179.029C187.557 178.76 187.687 178.452 187.77 178.106C187.853 177.754 187.894 177.381 187.894 176.985ZM190.626 176.985V176.817C190.626 176.245 190.709 175.716 190.875 175.227C191.041 174.734 191.28 174.307 191.593 173.946C191.905 173.579 192.284 173.296 192.728 173.096C193.172 172.891 193.67 172.788 194.222 172.788C194.779 172.788 195.279 172.891 195.724 173.096C196.173 173.296 196.554 173.579 196.866 173.946C197.184 174.307 197.425 174.734 197.591 175.227C197.757 175.716 197.84 176.245 197.84 176.817V176.985C197.84 177.556 197.757 178.086 197.591 178.574C197.425 179.063 197.184 179.49 196.866 179.856C196.554 180.218 196.175 180.501 195.731 180.706C195.292 180.906 194.793 181.006 194.237 181.006C193.68 181.006 193.18 180.906 192.735 180.706C192.291 180.501 191.91 180.218 191.593 179.856C191.28 179.49 191.041 179.063 190.875 178.574C190.709 178.086 190.626 177.556 190.626 176.985ZM191.981 176.817V176.985C191.981 177.381 192.027 177.754 192.12 178.106C192.213 178.452 192.352 178.76 192.538 179.029C192.728 179.297 192.965 179.51 193.248 179.666C193.531 179.817 193.861 179.893 194.237 179.893C194.608 179.893 194.933 179.817 195.211 179.666C195.494 179.51 195.729 179.297 195.914 179.029C196.1 178.76 196.239 178.452 196.332 178.106C196.429 177.754 196.478 177.381 196.478 176.985V176.817C196.478 176.426 196.429 176.057 196.332 175.711C196.239 175.359 196.097 175.049 195.907 174.781C195.721 174.507 195.487 174.292 195.204 174.136C194.925 173.98 194.598 173.902 194.222 173.902C193.851 173.902 193.524 173.98 193.241 174.136C192.962 174.292 192.728 174.507 192.538 174.781C192.352 175.049 192.213 175.359 192.12 175.711C192.027 176.057 191.981 176.426 191.981 176.817ZM203.26 177.373H200.66L200.646 176.289H202.77C203.189 176.289 203.539 176.248 203.817 176.165C204.1 176.082 204.312 175.957 204.454 175.791C204.596 175.625 204.667 175.42 204.667 175.176C204.667 174.986 204.625 174.82 204.542 174.678C204.464 174.531 204.344 174.412 204.183 174.319C204.022 174.221 203.822 174.151 203.583 174.107C203.348 174.058 203.072 174.033 202.755 174.033H201.019V180.86H199.664V172.935H202.755C203.258 172.935 203.709 172.979 204.11 173.067C204.515 173.155 204.859 173.289 205.143 173.469C205.431 173.645 205.65 173.87 205.802 174.143C205.953 174.417 206.029 174.739 206.029 175.11C206.029 175.349 205.98 175.576 205.882 175.791C205.785 176.006 205.641 176.197 205.45 176.363C205.26 176.529 205.025 176.665 204.747 176.773C204.469 176.875 204.149 176.941 203.788 176.97L203.26 177.373ZM203.26 180.86H200.169L200.843 179.761H203.26C203.636 179.761 203.949 179.715 204.198 179.622C204.447 179.524 204.632 179.387 204.754 179.212C204.881 179.031 204.945 178.816 204.945 178.567C204.945 178.318 204.881 178.106 204.754 177.93C204.632 177.749 204.447 177.613 204.198 177.52C203.949 177.422 203.636 177.373 203.26 177.373H201.202L201.217 176.289H203.788L204.278 176.699C204.713 176.734 205.082 176.841 205.384 177.022C205.687 177.202 205.917 177.432 206.073 177.71C206.229 177.984 206.307 178.281 206.307 178.604C206.307 178.975 206.236 179.302 206.095 179.585C205.958 179.868 205.758 180.105 205.494 180.296C205.23 180.481 204.911 180.623 204.535 180.72C204.159 180.813 203.734 180.86 203.26 180.86Z" fill="white"/>
<path d="M131.039 221.872H128.336L128.322 220.737H130.775C131.181 220.737 131.535 220.668 131.837 220.531C132.14 220.395 132.375 220.199 132.541 219.946C132.711 219.687 132.797 219.379 132.797 219.023C132.797 218.632 132.721 218.315 132.57 218.071C132.423 217.822 132.196 217.641 131.889 217.529C131.586 217.411 131.2 217.353 130.731 217.353H128.651V226.86H127.238V216.196H130.731C131.278 216.196 131.767 216.252 132.196 216.364C132.626 216.471 132.99 216.642 133.288 216.877C133.59 217.106 133.82 217.399 133.976 217.756C134.132 218.112 134.21 218.539 134.21 219.037C134.21 219.477 134.098 219.875 133.874 220.231C133.649 220.583 133.336 220.871 132.936 221.095C132.541 221.32 132.077 221.464 131.544 221.528L131.039 221.872ZM130.973 226.86H127.78L128.578 225.71H130.973C131.422 225.71 131.803 225.632 132.116 225.475C132.433 225.319 132.675 225.099 132.841 224.816C133.007 224.528 133.09 224.189 133.09 223.798C133.09 223.403 133.019 223.061 132.877 222.773C132.736 222.485 132.514 222.262 132.211 222.106C131.908 221.95 131.518 221.872 131.039 221.872H129.025L129.04 220.737H131.793L132.094 221.147C132.606 221.191 133.041 221.337 133.397 221.586C133.754 221.83 134.025 222.143 134.21 222.524C134.401 222.905 134.496 223.324 134.496 223.783C134.496 224.448 134.35 225.009 134.057 225.468C133.769 225.922 133.361 226.269 132.833 226.508C132.306 226.742 131.686 226.86 130.973 226.86ZM139.337 223.073H137.88V222.238H139.228C139.604 222.238 139.901 222.192 140.121 222.099C140.341 222.001 140.497 221.867 140.59 221.696C140.683 221.525 140.729 221.325 140.729 221.095C140.729 220.89 140.675 220.698 140.568 220.517C140.465 220.331 140.299 220.182 140.07 220.07C139.84 219.953 139.533 219.894 139.147 219.894C138.834 219.894 138.551 219.95 138.297 220.063C138.043 220.17 137.841 220.319 137.689 220.51C137.543 220.695 137.47 220.905 137.47 221.139H136.115C136.115 220.656 136.251 220.241 136.525 219.894C136.803 219.543 137.172 219.272 137.631 219.081C138.095 218.891 138.6 218.796 139.147 218.796C139.606 218.796 140.016 218.847 140.377 218.949C140.744 219.047 141.054 219.194 141.308 219.389C141.562 219.579 141.754 219.819 141.886 220.107C142.023 220.39 142.091 220.719 142.091 221.095C142.091 221.364 142.028 221.618 141.901 221.857C141.774 222.096 141.591 222.309 141.352 222.494C141.112 222.675 140.822 222.817 140.48 222.919C140.143 223.022 139.762 223.073 139.337 223.073ZM137.88 222.56H139.337C139.811 222.56 140.229 222.607 140.59 222.699C140.951 222.787 141.254 222.919 141.498 223.095C141.742 223.271 141.925 223.488 142.047 223.747C142.174 224.001 142.238 224.294 142.238 224.626C142.238 224.997 142.162 225.331 142.011 225.629C141.864 225.922 141.654 226.171 141.381 226.376C141.107 226.581 140.78 226.738 140.399 226.845C140.023 226.952 139.606 227.006 139.147 227.006C138.634 227.006 138.136 226.918 137.653 226.742C137.169 226.567 136.771 226.296 136.459 225.929C136.146 225.558 135.99 225.087 135.99 224.516H137.345C137.345 224.755 137.421 224.982 137.572 225.197C137.724 225.412 137.934 225.585 138.202 225.717C138.476 225.849 138.791 225.915 139.147 225.915C139.528 225.915 139.845 225.856 140.099 225.739C140.353 225.622 140.543 225.466 140.67 225.27C140.802 225.075 140.868 224.863 140.868 224.633C140.868 224.335 140.81 224.096 140.692 223.915C140.575 223.735 140.395 223.603 140.15 223.52C139.911 223.432 139.604 223.388 139.228 223.388H137.88V222.56ZM148.551 225.058L151.247 218.935H152.55L149.02 226.86H148.083L144.567 218.935H145.871L148.551 225.058ZM145.475 218.935V226.86H144.12V218.935H145.475ZM151.583 226.86V218.935H152.946V226.86H151.583ZM154.77 222.985V222.817C154.77 222.245 154.853 221.716 155.019 221.227C155.185 220.734 155.424 220.307 155.736 219.946C156.049 219.579 156.427 219.296 156.872 219.096C157.316 218.891 157.814 218.788 158.366 218.788C158.922 218.788 159.423 218.891 159.867 219.096C160.316 219.296 160.697 219.579 161.01 219.946C161.327 220.307 161.569 220.734 161.735 221.227C161.901 221.716 161.984 222.245 161.984 222.817V222.985C161.984 223.556 161.901 224.086 161.735 224.574C161.569 225.063 161.327 225.49 161.01 225.856C160.697 226.218 160.319 226.501 159.875 226.706C159.435 226.906 158.937 227.006 158.38 227.006C157.824 227.006 157.323 226.906 156.879 226.706C156.435 226.501 156.054 226.218 155.736 225.856C155.424 225.49 155.185 225.063 155.019 224.574C154.853 224.086 154.77 223.556 154.77 222.985ZM156.125 222.817V222.985C156.125 223.381 156.171 223.754 156.264 224.106C156.356 224.452 156.496 224.76 156.681 225.029C156.872 225.297 157.108 225.51 157.392 225.666C157.675 225.817 158.004 225.893 158.38 225.893C158.751 225.893 159.076 225.817 159.354 225.666C159.638 225.51 159.872 225.297 160.058 225.029C160.243 224.76 160.382 224.452 160.475 224.106C160.573 223.754 160.622 223.381 160.622 222.985V222.817C160.622 222.426 160.573 222.057 160.475 221.711C160.382 221.359 160.241 221.049 160.05 220.781C159.865 220.507 159.63 220.292 159.347 220.136C159.069 219.98 158.742 219.902 158.366 219.902C157.995 219.902 157.667 219.98 157.384 220.136C157.106 220.292 156.872 220.507 156.681 220.781C156.496 221.049 156.356 221.359 156.264 221.711C156.171 222.057 156.125 222.426 156.125 222.817ZM165.038 220.458V229.906H163.676V218.935H164.921L165.038 220.458ZM170.377 222.831V222.985C170.377 223.561 170.309 224.096 170.172 224.589C170.036 225.077 169.835 225.502 169.572 225.864C169.313 226.225 168.993 226.506 168.612 226.706C168.231 226.906 167.794 227.006 167.301 227.006C166.798 227.006 166.354 226.923 165.968 226.757C165.583 226.591 165.255 226.349 164.987 226.032C164.718 225.715 164.503 225.334 164.342 224.889C164.186 224.445 164.079 223.945 164.02 223.388V222.568C164.079 221.982 164.188 221.457 164.35 220.993C164.511 220.529 164.723 220.134 164.987 219.806C165.255 219.474 165.58 219.223 165.961 219.052C166.342 218.876 166.781 218.788 167.279 218.788C167.777 218.788 168.219 218.886 168.605 219.081C168.991 219.272 169.315 219.545 169.579 219.902C169.843 220.258 170.041 220.685 170.172 221.183C170.309 221.677 170.377 222.226 170.377 222.831ZM169.015 222.985V222.831C169.015 222.436 168.974 222.065 168.891 221.718C168.808 221.366 168.678 221.059 168.502 220.795C168.332 220.527 168.112 220.317 167.843 220.165C167.575 220.009 167.255 219.931 166.884 219.931C166.542 219.931 166.244 219.99 165.99 220.107C165.741 220.224 165.529 220.383 165.353 220.583C165.177 220.778 165.033 221.003 164.921 221.257C164.813 221.506 164.733 221.764 164.679 222.033V223.93C164.777 224.272 164.914 224.594 165.089 224.897C165.265 225.195 165.5 225.436 165.792 225.622C166.085 225.802 166.454 225.893 166.898 225.893C167.265 225.893 167.58 225.817 167.843 225.666C168.112 225.51 168.332 225.297 168.502 225.029C168.678 224.76 168.808 224.452 168.891 224.106C168.974 223.754 169.015 223.381 169.015 222.985ZM173.219 221.659H175.6C176.239 221.659 176.779 221.772 177.218 221.996C177.658 222.216 177.99 222.521 178.214 222.912C178.444 223.298 178.559 223.737 178.559 224.23C178.559 224.596 178.495 224.941 178.368 225.263C178.241 225.58 178.051 225.859 177.797 226.098C177.548 226.337 177.238 226.525 176.867 226.662C176.5 226.794 176.078 226.86 175.6 226.86H172.23V218.935H173.585V225.746H175.6C175.99 225.746 176.303 225.676 176.537 225.534C176.771 225.392 176.94 225.209 177.042 224.985C177.145 224.76 177.196 224.526 177.196 224.281C177.196 224.042 177.145 223.808 177.042 223.578C176.94 223.349 176.771 223.158 176.537 223.007C176.303 222.851 175.99 222.773 175.6 222.773H173.219V221.659ZM183.539 227.006C182.987 227.006 182.487 226.913 182.038 226.728C181.593 226.537 181.21 226.271 180.888 225.929C180.57 225.588 180.326 225.182 180.155 224.714C179.984 224.245 179.899 223.732 179.899 223.176V222.868C179.899 222.223 179.994 221.65 180.185 221.147C180.375 220.639 180.634 220.209 180.961 219.858C181.288 219.506 181.659 219.24 182.074 219.059C182.489 218.879 182.919 218.788 183.363 218.788C183.93 218.788 184.418 218.886 184.828 219.081C185.243 219.277 185.583 219.55 185.846 219.902C186.11 220.248 186.305 220.658 186.432 221.132C186.559 221.601 186.623 222.114 186.623 222.67V223.278H180.705V222.172H185.268V222.07C185.248 221.718 185.175 221.376 185.048 221.044C184.926 220.712 184.73 220.439 184.462 220.224C184.193 220.009 183.827 219.902 183.363 219.902C183.056 219.902 182.772 219.968 182.514 220.099C182.255 220.226 182.033 220.417 181.847 220.671C181.662 220.925 181.518 221.235 181.415 221.601C181.312 221.967 181.261 222.389 181.261 222.868V223.176C181.261 223.552 181.312 223.906 181.415 224.238C181.522 224.565 181.676 224.853 181.876 225.102C182.082 225.351 182.328 225.546 182.616 225.688C182.909 225.829 183.241 225.9 183.612 225.9C184.091 225.9 184.496 225.802 184.828 225.607C185.16 225.412 185.451 225.151 185.7 224.823L186.52 225.475C186.349 225.734 186.132 225.981 185.868 226.215C185.604 226.449 185.28 226.64 184.894 226.786C184.513 226.933 184.062 227.006 183.539 227.006Z" fill="white"/>
<path d="M64.624 208.71V209.86H56.5527V208.71H64.624ZM56.7798 208.71V212.482H55.3809L55.3735 208.71H56.7798ZM65.8545 208.71L65.8398 212.474H64.4409V208.71H65.8545ZM63.2397 199.196V200.353H58.5669V199.196H63.2397ZM64.4556 199.196V209.86H63.0493V199.196H64.4556ZM58.0835 199.196H59.4971L59.2773 203.488C59.248 204.132 59.187 204.728 59.0942 205.275C59.0015 205.817 58.8867 206.312 58.75 206.761C58.6133 207.211 58.457 207.614 58.2812 207.97C58.1055 208.322 57.9175 208.627 57.7173 208.885C57.5171 209.139 57.3071 209.349 57.0874 209.515C56.8726 209.677 56.6553 209.791 56.4355 209.86H55.791V208.71H56.2451C56.3721 208.573 56.5161 208.375 56.6772 208.116C56.8433 207.858 57.0068 207.523 57.168 207.113C57.334 206.698 57.478 206.193 57.6001 205.597C57.7271 205.001 57.8125 204.298 57.8564 203.488L58.0835 199.196ZM66.9531 205.985V205.817C66.9531 205.245 67.0361 204.716 67.2021 204.227C67.3682 203.734 67.6074 203.307 67.9199 202.946C68.2324 202.579 68.6108 202.296 69.0552 202.096C69.4995 201.891 69.9976 201.788 70.5493 201.788C71.106 201.788 71.6064 201.891 72.0508 202.096C72.5 202.296 72.8809 202.579 73.1934 202.946C73.5107 203.307 73.7524 203.734 73.9185 204.227C74.0845 204.716 74.1675 205.245 74.1675 205.817V205.985C74.1675 206.556 74.0845 207.086 73.9185 207.574C73.7524 208.063 73.5107 208.49 73.1934 208.856C72.8809 209.218 72.5024 209.501 72.0581 209.706C71.6187 209.906 71.1206 210.006 70.564 210.006C70.0073 210.006 69.5068 209.906 69.0625 209.706C68.6182 209.501 68.2373 209.218 67.9199 208.856C67.6074 208.49 67.3682 208.063 67.2021 207.574C67.0361 207.086 66.9531 206.556 66.9531 205.985ZM68.3081 205.817V205.985C68.3081 206.381 68.3545 206.754 68.4473 207.106C68.54 207.452 68.6792 207.76 68.8647 208.029C69.0552 208.297 69.292 208.51 69.5752 208.666C69.8584 208.817 70.188 208.893 70.564 208.893C70.9351 208.893 71.2598 208.817 71.5381 208.666C71.8213 208.51 72.0557 208.297 72.2412 208.029C72.4268 207.76 72.5659 207.452 72.6587 207.106C72.7563 206.754 72.8052 206.381 72.8052 205.985V205.817C72.8052 205.426 72.7563 205.057 72.6587 204.711C72.5659 204.359 72.4243 204.049 72.2339 203.781C72.0483 203.507 71.814 203.292 71.5308 203.136C71.2524 202.98 70.9253 202.902 70.5493 202.902C70.1782 202.902 69.8511 202.98 69.5679 203.136C69.2896 203.292 69.0552 203.507 68.8647 203.781C68.6792 204.049 68.54 204.359 68.4473 204.711C68.3545 205.057 68.3081 205.426 68.3081 205.817ZM81.0449 201.935V203.055H77.2144V201.935H81.0449ZM82.2388 201.935V209.86H80.8838V201.935H82.2388ZM76.8848 201.935H78.2471L78.042 205.758C78.0078 206.349 77.9517 206.871 77.8735 207.325C77.8003 207.775 77.6978 208.16 77.5659 208.483C77.439 208.805 77.2778 209.069 77.0825 209.274C76.8921 209.474 76.6626 209.623 76.394 209.72C76.1255 209.813 75.8154 209.86 75.4639 209.86H75.0391V208.666L75.332 208.644C75.542 208.629 75.7202 208.58 75.8667 208.497C76.0181 208.414 76.145 208.292 76.2476 208.131C76.3501 207.965 76.4331 207.753 76.4966 207.494C76.5649 207.235 76.6162 206.927 76.6504 206.571C76.6895 206.215 76.7188 205.8 76.7383 205.326L76.8848 201.935ZM85.8862 207.714L89.541 201.935H90.9033V209.86H89.541V204.081L85.8862 209.86H84.5386V201.935H85.8862V207.714ZM98.4546 205.37V206.469H94.2651V205.37H98.4546ZM94.5508 201.935V209.86H93.1958V201.935H94.5508ZM99.5532 201.935V209.86H98.1909V201.935H99.5532ZM104.907 208.893C105.229 208.893 105.527 208.827 105.801 208.695C106.074 208.563 106.299 208.383 106.475 208.153C106.65 207.919 106.75 207.653 106.775 207.355H108.064C108.04 207.823 107.881 208.26 107.588 208.666C107.3 209.066 106.921 209.391 106.453 209.64C105.984 209.884 105.469 210.006 104.907 210.006C104.312 210.006 103.792 209.901 103.347 209.691C102.908 209.481 102.542 209.193 102.249 208.827C101.96 208.461 101.743 208.041 101.597 207.567C101.455 207.089 101.384 206.583 101.384 206.051V205.743C101.384 205.211 101.455 204.708 101.597 204.235C101.743 203.756 101.96 203.334 102.249 202.968C102.542 202.601 102.908 202.313 103.347 202.103C103.792 201.893 104.312 201.788 104.907 201.788C105.527 201.788 106.069 201.915 106.533 202.169C106.997 202.418 107.361 202.76 107.625 203.195C107.893 203.624 108.04 204.113 108.064 204.659H106.775C106.75 204.332 106.658 204.037 106.497 203.773C106.34 203.51 106.125 203.3 105.852 203.143C105.583 202.982 105.269 202.902 104.907 202.902C104.492 202.902 104.143 202.985 103.86 203.151C103.582 203.312 103.359 203.531 103.193 203.81C103.032 204.083 102.915 204.388 102.842 204.725C102.773 205.057 102.739 205.397 102.739 205.743V206.051C102.739 206.398 102.773 206.74 102.842 207.076C102.91 207.413 103.025 207.719 103.186 207.992C103.352 208.265 103.574 208.485 103.853 208.651C104.136 208.812 104.487 208.893 104.907 208.893ZM111.06 201.935V209.86H109.705V201.935H111.06ZM116.26 201.935L112.502 206.476H110.605L110.4 205.289H111.953L114.612 201.935H116.26ZM114.802 209.86L111.887 206.271L112.759 205.289L116.523 209.86H114.802Z" fill="white"/>
<path d="M281.448 121.191V121.865C281.448 122.666 281.348 123.384 281.148 124.018C280.948 124.653 280.66 125.193 280.284 125.637C279.908 126.081 279.456 126.421 278.929 126.655C278.406 126.889 277.82 127.007 277.171 127.007C276.541 127.007 275.962 126.889 275.435 126.655C274.913 126.421 274.458 126.081 274.073 125.637C273.692 125.193 273.396 124.653 273.187 124.018C272.977 123.384 272.872 122.666 272.872 121.865V121.191C272.872 120.39 272.974 119.675 273.179 119.045C273.389 118.41 273.685 117.871 274.065 117.427C274.446 116.977 274.898 116.635 275.42 116.401C275.948 116.167 276.526 116.05 277.156 116.05C277.806 116.05 278.392 116.167 278.914 116.401C279.441 116.635 279.893 116.977 280.269 117.427C280.65 117.871 280.94 118.41 281.141 119.045C281.346 119.675 281.448 120.39 281.448 121.191ZM280.049 121.865V121.177C280.049 120.542 279.983 119.98 279.852 119.492C279.725 119.004 279.537 118.594 279.288 118.261C279.039 117.929 278.733 117.678 278.372 117.507C278.016 117.336 277.61 117.251 277.156 117.251C276.717 117.251 276.319 117.336 275.962 117.507C275.611 117.678 275.308 117.929 275.054 118.261C274.805 118.594 274.612 119.004 274.476 119.492C274.339 119.98 274.271 120.542 274.271 121.177V121.865C274.271 122.505 274.339 123.071 274.476 123.564C274.612 124.052 274.808 124.465 275.062 124.802C275.32 125.134 275.625 125.385 275.977 125.556C276.333 125.727 276.731 125.813 277.171 125.813C277.63 125.813 278.038 125.727 278.394 125.556C278.75 125.385 279.051 125.134 279.295 124.802C279.544 124.465 279.732 124.052 279.859 123.564C279.986 123.071 280.049 122.505 280.049 121.865ZM288.736 122.37V123.469H284.546V122.37H288.736ZM284.832 118.935V126.86H283.477V118.935H284.832ZM289.834 118.935V126.86H288.472V118.935H289.834ZM291.658 122.986V122.817C291.658 122.246 291.741 121.716 291.907 121.228C292.073 120.735 292.312 120.307 292.625 119.946C292.938 119.58 293.316 119.297 293.76 119.096C294.205 118.891 294.703 118.789 295.254 118.789C295.811 118.789 296.312 118.891 296.756 119.096C297.205 119.297 297.586 119.58 297.898 119.946C298.216 120.307 298.458 120.735 298.624 121.228C298.79 121.716 298.873 122.246 298.873 122.817V122.986C298.873 123.557 298.79 124.087 298.624 124.575C298.458 125.063 298.216 125.49 297.898 125.857C297.586 126.218 297.208 126.501 296.763 126.706C296.324 126.906 295.826 127.007 295.269 127.007C294.712 127.007 294.212 126.906 293.768 126.706C293.323 126.501 292.942 126.218 292.625 125.857C292.312 125.49 292.073 125.063 291.907 124.575C291.741 124.087 291.658 123.557 291.658 122.986ZM293.013 122.817V122.986C293.013 123.381 293.06 123.755 293.152 124.106C293.245 124.453 293.384 124.76 293.57 125.029C293.76 125.298 293.997 125.51 294.28 125.666C294.563 125.818 294.893 125.893 295.269 125.893C295.64 125.893 295.965 125.818 296.243 125.666C296.526 125.51 296.761 125.298 296.946 125.029C297.132 124.76 297.271 124.453 297.364 124.106C297.461 123.755 297.51 123.381 297.51 122.986V122.817C297.51 122.427 297.461 122.058 297.364 121.711C297.271 121.36 297.129 121.05 296.939 120.781C296.753 120.508 296.519 120.293 296.236 120.136C295.958 119.98 295.63 119.902 295.254 119.902C294.883 119.902 294.556 119.98 294.273 120.136C293.995 120.293 293.76 120.508 293.57 120.781C293.384 121.05 293.245 121.36 293.152 121.711C293.06 122.058 293.013 122.427 293.013 122.817ZM301.927 120.459V129.907H300.564V118.935H301.81L301.927 120.459ZM307.266 122.832V122.986C307.266 123.562 307.198 124.096 307.061 124.59C306.924 125.078 306.724 125.503 306.46 125.864C306.202 126.225 305.882 126.506 305.501 126.706C305.12 126.906 304.683 127.007 304.19 127.007C303.687 127.007 303.243 126.924 302.857 126.758C302.471 126.592 302.144 126.35 301.875 126.032C301.607 125.715 301.392 125.334 301.231 124.89C301.075 124.446 300.967 123.945 300.909 123.388V122.568C300.967 121.982 301.077 121.457 301.238 120.993C301.399 120.53 301.612 120.134 301.875 119.807C302.144 119.475 302.469 119.223 302.85 119.052C303.23 118.877 303.67 118.789 304.168 118.789C304.666 118.789 305.108 118.886 305.494 119.082C305.879 119.272 306.204 119.546 306.468 119.902C306.731 120.259 306.929 120.686 307.061 121.184C307.198 121.677 307.266 122.226 307.266 122.832ZM305.904 122.986V122.832C305.904 122.436 305.862 122.065 305.779 121.719C305.696 121.367 305.567 121.059 305.391 120.796C305.22 120.527 305 120.317 304.732 120.166C304.463 120.01 304.144 119.931 303.772 119.931C303.431 119.931 303.133 119.99 302.879 120.107C302.63 120.224 302.417 120.383 302.242 120.583C302.066 120.779 301.922 121.003 301.81 121.257C301.702 121.506 301.622 121.765 301.568 122.033V123.93C301.666 124.272 301.802 124.594 301.978 124.897C302.154 125.195 302.388 125.437 302.681 125.622C302.974 125.803 303.343 125.893 303.787 125.893C304.153 125.893 304.468 125.818 304.732 125.666C305 125.51 305.22 125.298 305.391 125.029C305.567 124.76 305.696 124.453 305.779 124.106C305.862 123.755 305.904 123.381 305.904 122.986Z" fill="white"/>
<path d="M567.448 24.1909V24.8647C567.448 25.6655 567.348 26.3833 567.148 27.0181C566.948 27.6528 566.66 28.1924 566.284 28.6367C565.908 29.0811 565.456 29.4204 564.929 29.6548C564.406 29.8892 563.82 30.0063 563.171 30.0063C562.541 30.0063 561.962 29.8892 561.435 29.6548C560.913 29.4204 560.458 29.0811 560.073 28.6367C559.692 28.1924 559.396 27.6528 559.187 27.0181C558.977 26.3833 558.872 25.6655 558.872 24.8647V24.1909C558.872 23.3901 558.974 22.6748 559.179 22.0449C559.389 21.4102 559.685 20.8706 560.065 20.4263C560.446 19.9771 560.898 19.6353 561.42 19.4009C561.948 19.1665 562.526 19.0493 563.156 19.0493C563.806 19.0493 564.392 19.1665 564.914 19.4009C565.441 19.6353 565.893 19.9771 566.269 20.4263C566.65 20.8706 566.94 21.4102 567.141 22.0449C567.346 22.6748 567.448 23.3901 567.448 24.1909ZM566.049 24.8647V24.1763C566.049 23.5415 565.983 22.98 565.852 22.4917C565.725 22.0034 565.537 21.5933 565.288 21.2612C565.039 20.9292 564.733 20.6777 564.372 20.5068C564.016 20.3359 563.61 20.2505 563.156 20.2505C562.717 20.2505 562.319 20.3359 561.962 20.5068C561.611 20.6777 561.308 20.9292 561.054 21.2612C560.805 21.5933 560.612 22.0034 560.476 22.4917C560.339 22.98 560.271 23.5415 560.271 24.1763V24.8647C560.271 25.5044 560.339 26.0708 560.476 26.564C560.612 27.0522 560.808 27.4648 561.062 27.8018C561.32 28.1338 561.625 28.3853 561.977 28.5562C562.333 28.7271 562.731 28.8125 563.171 28.8125C563.63 28.8125 564.038 28.7271 564.394 28.5562C564.75 28.3853 565.051 28.1338 565.295 27.8018C565.544 27.4648 565.732 27.0522 565.859 26.564C565.986 26.0708 566.049 25.5044 566.049 24.8647ZM570.275 21.9351L572.011 24.8208L573.769 21.9351H575.358L572.766 25.8462L575.439 29.8599H573.872L572.041 26.8862L570.209 29.8599H568.635L571.301 25.8462L568.715 21.9351H570.275ZM581.474 28.5049V24.4253C581.474 24.1128 581.411 23.8418 581.284 23.6123C581.162 23.3779 580.976 23.1973 580.727 23.0703C580.478 22.9434 580.17 22.8799 579.804 22.8799C579.462 22.8799 579.162 22.9385 578.903 23.0557C578.649 23.1729 578.449 23.3267 578.303 23.5171C578.161 23.7075 578.09 23.9126 578.09 24.1323H576.735C576.735 23.8491 576.809 23.5684 576.955 23.29C577.102 23.0117 577.312 22.7603 577.585 22.5356C577.863 22.3062 578.195 22.1255 578.581 21.9937C578.972 21.8569 579.406 21.7886 579.885 21.7886C580.461 21.7886 580.969 21.8862 581.408 22.0815C581.853 22.2769 582.199 22.5723 582.448 22.9678C582.702 23.3584 582.829 23.8491 582.829 24.4399V28.1313C582.829 28.395 582.851 28.6758 582.895 28.9736C582.944 29.2715 583.015 29.5278 583.107 29.7427V29.8599H581.694C581.625 29.7036 581.572 29.4961 581.533 29.2373C581.494 28.9736 581.474 28.7295 581.474 28.5049ZM581.708 25.0552L581.723 26.0073H580.354C579.968 26.0073 579.624 26.0391 579.321 26.1025C579.018 26.1611 578.764 26.2515 578.559 26.3735C578.354 26.4956 578.198 26.6494 578.09 26.835C577.983 27.0156 577.929 27.228 577.929 27.4722C577.929 27.7212 577.985 27.9482 578.098 28.1533C578.21 28.3584 578.378 28.522 578.603 28.644C578.833 28.7612 579.113 28.8198 579.445 28.8198C579.86 28.8198 580.227 28.7319 580.544 28.5562C580.861 28.3804 581.113 28.1655 581.298 27.9116C581.489 27.6577 581.591 27.4111 581.606 27.1719L582.185 27.8237C582.15 28.0288 582.058 28.2559 581.906 28.5049C581.755 28.7539 581.552 28.9932 581.298 29.2227C581.049 29.4473 580.751 29.6353 580.405 29.7866C580.063 29.9331 579.677 30.0063 579.248 30.0063C578.71 30.0063 578.239 29.9014 577.834 29.6914C577.434 29.4814 577.121 29.2007 576.896 28.8491C576.677 28.4927 576.567 28.0947 576.567 27.6553C576.567 27.2305 576.65 26.8569 576.816 26.5347C576.982 26.2075 577.221 25.9365 577.534 25.7217C577.846 25.502 578.222 25.3359 578.662 25.2236C579.101 25.1113 579.592 25.0552 580.134 25.0552H581.708Z" fill="white"/>
</svg>
