<svg width="375" height="420" viewBox="0 0 375 420" fill="none" xmlns="http://www.w3.org/2000/svg">
<path d="M207.296 310.563C207.222 312.263 208.94 311.912 209.808 311.525C214.445 312.58 207.773 319.098 207.792 318.674C207.81 318.249 203.394 321.886 202.082 322.68C201.032 323.315 199.646 329.669 199.085 332.766C198.752 333.887 197.232 336.176 193.818 336.366C190.404 336.557 190.808 333.822 191.437 332.43C193.131 329.383 196.273 323.107 195.283 322.382C194.046 321.476 195.376 320.257 195.451 318.558C195.511 317.198 197.742 318.091 198.85 318.707C199.004 318.43 199.324 317.621 199.368 316.601C199.413 315.581 203.094 315.771 204.929 315.994C205.749 313.475 207.371 308.863 207.296 310.563Z" fill="#191C20"/>
<path d="M176.565 331.778C175.545 331.733 175.698 328.902 175.902 327.492L174.683 326.161C173.814 326.549 171.981 327.575 171.597 328.58C171.116 329.836 168.291 326.306 169.029 328.893C169.619 330.962 168.867 332.575 168.417 333.123C169.248 333.585 171.073 334.687 171.723 335.397C172.536 336.284 177.84 331.834 176.565 331.778Z" fill="#191C20"/>
<path d="M183.792 322.303C184.013 325.038 185.005 323.776 185.473 322.803C187.867 322.567 187.567 323.604 187.117 324.152C185.694 324.232 182.908 324.989 183.144 327.384C183.379 329.778 182.046 329.748 181.351 329.434C181.067 329.421 180.168 329.211 178.839 328.472C177.509 327.732 178.692 325.344 179.45 324.242L181.742 320.511C182.334 319.969 183.572 319.569 183.792 322.303Z" fill="#191C20"/>
<path d="M188.746 316.135C190.475 315.53 189.27 313.888 188.451 313.142C186.767 312.728 185.421 314.286 184.959 315.117C185.501 315.709 187.016 316.74 188.746 316.135Z" fill="#191C20"/>
<path d="M125.754 157.336V168H124.34V157.336H125.754ZM128.2 162.221V163.334H125.666V162.221H128.2ZM135.854 162.331V163.005C135.854 163.806 135.754 164.523 135.554 165.158C135.354 165.793 135.065 166.333 134.689 166.777C134.313 167.221 133.862 167.561 133.334 167.795C132.812 168.029 132.226 168.146 131.577 168.146C130.947 168.146 130.368 168.029 129.841 167.795C129.318 167.561 128.864 167.221 128.479 166.777C128.098 166.333 127.802 165.793 127.592 165.158C127.382 164.523 127.277 163.806 127.277 163.005V162.331C127.277 161.53 127.38 160.815 127.585 160.185C127.795 159.55 128.09 159.011 128.471 158.566C128.852 158.117 129.304 157.775 129.826 157.541C130.354 157.307 130.932 157.189 131.562 157.189C132.211 157.189 132.797 157.307 133.32 157.541C133.847 157.775 134.299 158.117 134.675 158.566C135.056 159.011 135.346 159.55 135.546 160.185C135.751 160.815 135.854 161.53 135.854 162.331ZM134.455 163.005V162.316C134.455 161.682 134.389 161.12 134.257 160.632C134.13 160.144 133.942 159.733 133.693 159.401C133.444 159.069 133.139 158.818 132.778 158.647C132.421 158.476 132.016 158.391 131.562 158.391C131.123 158.391 130.725 158.476 130.368 158.647C130.017 158.818 129.714 159.069 129.46 159.401C129.211 159.733 129.018 160.144 128.881 160.632C128.745 161.12 128.676 161.682 128.676 162.316V163.005C128.676 163.645 128.745 164.211 128.881 164.704C129.018 165.192 129.213 165.605 129.467 165.942C129.726 166.274 130.031 166.525 130.383 166.696C130.739 166.867 131.137 166.953 131.577 166.953C132.036 166.953 132.443 166.867 132.8 166.696C133.156 166.525 133.457 166.274 133.701 165.942C133.95 165.605 134.138 165.192 134.265 164.704C134.392 164.211 134.455 163.645 134.455 163.005ZM139.853 164.55L136.85 160.075H138.483L140.534 163.356H142.116L141.918 164.55H139.853ZM140.593 164.411L138.293 168H136.579L139.736 163.43L140.593 164.411ZM142.812 160.075V168H141.457V160.075H142.812ZM147.434 160.075L144.431 164.55H142.365L142.153 163.356H143.742L145.793 160.075H147.434ZM145.983 168L143.676 164.411L144.548 163.43L147.697 168H145.983ZM154.326 163.51V164.609H150.136V163.51H154.326ZM150.422 160.075V168H149.067V160.075H150.422ZM155.424 160.075V168H154.062V160.075H155.424ZM157.248 164.125V163.957C157.248 163.386 157.331 162.856 157.497 162.368C157.663 161.875 157.902 161.447 158.215 161.086C158.527 160.72 158.906 160.437 159.35 160.236C159.794 160.031 160.292 159.929 160.844 159.929C161.401 159.929 161.901 160.031 162.346 160.236C162.795 160.437 163.176 160.72 163.488 161.086C163.806 161.447 164.047 161.875 164.213 162.368C164.379 162.856 164.462 163.386 164.462 163.957V164.125C164.462 164.697 164.379 165.227 164.213 165.715C164.047 166.203 163.806 166.63 163.488 166.997C163.176 167.358 162.797 167.641 162.353 167.846C161.914 168.046 161.416 168.146 160.859 168.146C160.302 168.146 159.802 168.046 159.357 167.846C158.913 167.641 158.532 167.358 158.215 166.997C157.902 166.63 157.663 166.203 157.497 165.715C157.331 165.227 157.248 164.697 157.248 164.125ZM158.603 163.957V164.125C158.603 164.521 158.649 164.895 158.742 165.246C158.835 165.593 158.974 165.9 159.16 166.169C159.35 166.438 159.587 166.65 159.87 166.806C160.153 166.958 160.483 167.033 160.859 167.033C161.23 167.033 161.555 166.958 161.833 166.806C162.116 166.65 162.351 166.438 162.536 166.169C162.722 165.9 162.861 165.593 162.954 165.246C163.051 164.895 163.1 164.521 163.1 164.125V163.957C163.1 163.566 163.051 163.198 162.954 162.851C162.861 162.5 162.719 162.189 162.529 161.921C162.343 161.647 162.109 161.433 161.826 161.276C161.547 161.12 161.22 161.042 160.844 161.042C160.473 161.042 160.146 161.12 159.863 161.276C159.584 161.433 159.35 161.647 159.16 161.921C158.974 162.189 158.835 162.5 158.742 162.851C158.649 163.198 158.603 163.566 158.603 163.957ZM168.981 162.91V164.023H165.407V162.91H168.981ZM176.95 164.609H178.356C178.283 165.283 178.09 165.886 177.778 166.418C177.465 166.95 177.023 167.373 176.452 167.685C175.881 167.993 175.168 168.146 174.313 168.146C173.688 168.146 173.12 168.029 172.607 167.795C172.099 167.561 171.662 167.229 171.296 166.799C170.93 166.364 170.646 165.844 170.446 165.239C170.251 164.628 170.153 163.95 170.153 163.203V162.141C170.153 161.394 170.251 160.717 170.446 160.112C170.646 159.501 170.932 158.979 171.303 158.544C171.679 158.11 172.131 157.775 172.658 157.541C173.186 157.307 173.779 157.189 174.438 157.189C175.244 157.189 175.925 157.341 176.481 157.644C177.038 157.946 177.47 158.366 177.778 158.903C178.09 159.436 178.283 160.053 178.356 160.756H176.95C176.882 160.258 176.755 159.831 176.569 159.475C176.384 159.113 176.12 158.835 175.778 158.64C175.437 158.444 174.99 158.347 174.438 158.347C173.964 158.347 173.547 158.437 173.186 158.618C172.829 158.798 172.529 159.055 172.285 159.387C172.045 159.719 171.865 160.117 171.743 160.581C171.621 161.044 171.56 161.56 171.56 162.126V163.203C171.56 163.725 171.613 164.216 171.721 164.675C171.833 165.134 172.001 165.537 172.226 165.883C172.451 166.23 172.736 166.503 173.083 166.704C173.43 166.899 173.84 166.997 174.313 166.997C174.914 166.997 175.393 166.901 175.749 166.711C176.105 166.521 176.374 166.247 176.555 165.891C176.74 165.534 176.872 165.107 176.95 164.609ZM184.75 166.645V162.565C184.75 162.253 184.687 161.982 184.56 161.752C184.438 161.518 184.252 161.337 184.003 161.21C183.754 161.083 183.447 161.02 183.081 161.02C182.739 161.02 182.438 161.079 182.18 161.196C181.926 161.313 181.726 161.467 181.579 161.657C181.438 161.848 181.367 162.053 181.367 162.272H180.012C180.012 161.989 180.085 161.708 180.231 161.43C180.378 161.152 180.588 160.9 180.861 160.676C181.14 160.446 181.472 160.266 181.857 160.134C182.248 159.997 182.683 159.929 183.161 159.929C183.737 159.929 184.245 160.026 184.685 160.222C185.129 160.417 185.476 160.712 185.725 161.108C185.979 161.499 186.105 161.989 186.105 162.58V166.271C186.105 166.535 186.127 166.816 186.171 167.114C186.22 167.412 186.291 167.668 186.384 167.883V168H184.97C184.902 167.844 184.848 167.636 184.809 167.377C184.77 167.114 184.75 166.87 184.75 166.645ZM184.985 163.195L185 164.147H183.63C183.244 164.147 182.9 164.179 182.597 164.243C182.294 164.301 182.041 164.392 181.835 164.514C181.63 164.636 181.474 164.79 181.367 164.975C181.259 165.156 181.206 165.368 181.206 165.612C181.206 165.861 181.262 166.088 181.374 166.293C181.486 166.499 181.655 166.662 181.879 166.784C182.109 166.901 182.39 166.96 182.722 166.96C183.137 166.96 183.503 166.872 183.82 166.696C184.138 166.521 184.389 166.306 184.575 166.052C184.765 165.798 184.868 165.551 184.882 165.312L185.461 165.964C185.427 166.169 185.334 166.396 185.183 166.645C185.031 166.894 184.829 167.133 184.575 167.363C184.326 167.587 184.028 167.775 183.681 167.927C183.339 168.073 182.954 168.146 182.524 168.146C181.987 168.146 181.516 168.042 181.11 167.832C180.71 167.622 180.397 167.341 180.173 166.989C179.953 166.633 179.843 166.235 179.843 165.795C179.843 165.371 179.926 164.997 180.092 164.675C180.258 164.348 180.498 164.077 180.81 163.862C181.123 163.642 181.499 163.476 181.938 163.364C182.377 163.251 182.868 163.195 183.41 163.195H184.985ZM189.152 160.075L190.888 162.961L192.646 160.075H194.235L191.643 163.986L194.316 168H192.749L190.917 165.026L189.086 168H187.512L190.178 163.986L187.592 160.075H189.152ZM200.351 166.645V162.565C200.351 162.253 200.288 161.982 200.161 161.752C200.039 161.518 199.853 161.337 199.604 161.21C199.355 161.083 199.047 161.02 198.681 161.02C198.339 161.02 198.039 161.079 197.78 161.196C197.526 161.313 197.326 161.467 197.18 161.657C197.038 161.848 196.967 162.053 196.967 162.272H195.612C195.612 161.989 195.686 161.708 195.832 161.43C195.979 161.152 196.188 160.9 196.462 160.676C196.74 160.446 197.072 160.266 197.458 160.134C197.849 159.997 198.283 159.929 198.762 159.929C199.338 159.929 199.846 160.026 200.285 160.222C200.729 160.417 201.076 160.712 201.325 161.108C201.579 161.499 201.706 161.989 201.706 162.58V166.271C201.706 166.535 201.728 166.816 201.772 167.114C201.821 167.412 201.892 167.668 201.984 167.883V168H200.571C200.502 167.844 200.449 167.636 200.41 167.377C200.371 167.114 200.351 166.87 200.351 166.645ZM200.585 163.195L200.6 164.147H199.23C198.845 164.147 198.5 164.179 198.198 164.243C197.895 164.301 197.641 164.392 197.436 164.514C197.231 164.636 197.075 164.79 196.967 164.975C196.86 165.156 196.806 165.368 196.806 165.612C196.806 165.861 196.862 166.088 196.975 166.293C197.087 166.499 197.255 166.662 197.48 166.784C197.709 166.901 197.99 166.96 198.322 166.96C198.737 166.96 199.104 166.872 199.421 166.696C199.738 166.521 199.99 166.306 200.175 166.052C200.366 165.798 200.468 165.551 200.483 165.312L201.062 165.964C201.027 166.169 200.935 166.396 200.783 166.645C200.632 166.894 200.429 167.133 200.175 167.363C199.926 167.587 199.628 167.775 199.282 167.927C198.94 168.073 198.554 168.146 198.125 168.146C197.587 168.146 197.116 168.042 196.711 167.832C196.311 167.622 195.998 167.341 195.773 166.989C195.554 166.633 195.444 166.235 195.444 165.795C195.444 165.371 195.527 164.997 195.693 164.675C195.859 164.348 196.098 164.077 196.411 163.862C196.723 163.642 197.099 163.476 197.539 163.364C197.978 163.251 198.469 163.195 199.011 163.195H200.585ZM209.133 160.075V161.196H205.302V160.075H209.133ZM210.327 160.075V168H208.972V160.075H210.327ZM204.973 160.075H206.335L206.13 163.898C206.096 164.489 206.04 165.012 205.961 165.466C205.888 165.915 205.786 166.301 205.654 166.623C205.527 166.945 205.366 167.209 205.17 167.414C204.98 167.614 204.75 167.763 204.482 167.861C204.213 167.954 203.903 168 203.552 168H203.127V166.806L203.42 166.784C203.63 166.77 203.808 166.721 203.955 166.638C204.106 166.555 204.233 166.433 204.335 166.271C204.438 166.105 204.521 165.893 204.584 165.634C204.653 165.375 204.704 165.068 204.738 164.711C204.777 164.355 204.807 163.94 204.826 163.466L204.973 160.075ZM213.974 165.854L217.629 160.075H218.991V168H217.629V162.221L213.974 168H212.626V160.075H213.974V165.854ZM226.542 163.51V164.609H222.353V163.51H226.542ZM222.639 160.075V168H221.284V160.075H222.639ZM227.641 160.075V168H226.279V160.075H227.641ZM232.995 167.033C233.317 167.033 233.615 166.967 233.889 166.835C234.162 166.704 234.387 166.523 234.562 166.293C234.738 166.059 234.838 165.793 234.863 165.495H236.152C236.127 165.964 235.969 166.401 235.676 166.806C235.388 167.207 235.009 167.531 234.541 167.78C234.072 168.024 233.557 168.146 232.995 168.146C232.399 168.146 231.879 168.042 231.435 167.832C230.996 167.622 230.629 167.333 230.336 166.967C230.048 166.601 229.831 166.181 229.685 165.708C229.543 165.229 229.472 164.724 229.472 164.191V163.884C229.472 163.352 229.543 162.849 229.685 162.375C229.831 161.896 230.048 161.474 230.336 161.108C230.629 160.742 230.996 160.454 231.435 160.244C231.879 160.034 232.399 159.929 232.995 159.929C233.615 159.929 234.157 160.056 234.621 160.31C235.085 160.559 235.449 160.9 235.712 161.335C235.981 161.765 236.127 162.253 236.152 162.8H234.863C234.838 162.473 234.746 162.177 234.584 161.914C234.428 161.65 234.213 161.44 233.94 161.284C233.671 161.123 233.356 161.042 232.995 161.042C232.58 161.042 232.231 161.125 231.948 161.291C231.669 161.452 231.447 161.672 231.281 161.95C231.12 162.224 231.003 162.529 230.93 162.866C230.861 163.198 230.827 163.537 230.827 163.884V164.191C230.827 164.538 230.861 164.88 230.93 165.217C230.998 165.554 231.113 165.859 231.274 166.132C231.44 166.406 231.662 166.625 231.94 166.792C232.224 166.953 232.575 167.033 232.995 167.033ZM239.147 160.075V168H237.792V160.075H239.147ZM244.348 160.075L240.59 164.616H238.693L238.488 163.43H240.041L242.7 160.075H244.348ZM242.89 168L239.975 164.411L240.847 163.43L244.611 168H242.89Z" fill="white"/>
<path d="M281.624 132.85V134H273.553V132.85H281.624ZM273.78 132.85V136.622H272.381L272.374 132.85H273.78ZM282.854 132.85L282.84 136.615H281.441V132.85H282.854ZM280.24 123.336V124.493H275.567V123.336H280.24ZM281.456 123.336V134H280.049V123.336H281.456ZM275.083 123.336H276.497L276.277 127.628C276.248 128.272 276.187 128.868 276.094 129.415C276.001 129.957 275.887 130.453 275.75 130.902C275.613 131.351 275.457 131.754 275.281 132.11C275.105 132.462 274.917 132.767 274.717 133.026C274.517 133.28 274.307 133.49 274.087 133.656C273.873 133.817 273.655 133.932 273.436 134H272.791V132.85H273.245C273.372 132.713 273.516 132.516 273.677 132.257C273.843 131.998 274.007 131.664 274.168 131.253C274.334 130.838 274.478 130.333 274.6 129.737C274.727 129.142 274.812 128.438 274.856 127.628L275.083 123.336ZM283.953 130.125V129.957C283.953 129.386 284.036 128.856 284.202 128.368C284.368 127.875 284.607 127.447 284.92 127.086C285.232 126.72 285.611 126.437 286.055 126.236C286.5 126.031 286.998 125.929 287.549 125.929C288.106 125.929 288.606 126.031 289.051 126.236C289.5 126.437 289.881 126.72 290.193 127.086C290.511 127.447 290.752 127.875 290.918 128.368C291.084 128.856 291.167 129.386 291.167 129.957V130.125C291.167 130.697 291.084 131.227 290.918 131.715C290.752 132.203 290.511 132.63 290.193 132.997C289.881 133.358 289.502 133.641 289.058 133.846C288.619 134.046 288.121 134.146 287.564 134.146C287.007 134.146 286.507 134.046 286.062 133.846C285.618 133.641 285.237 133.358 284.92 132.997C284.607 132.63 284.368 132.203 284.202 131.715C284.036 131.227 283.953 130.697 283.953 130.125ZM285.308 129.957V130.125C285.308 130.521 285.354 130.895 285.447 131.246C285.54 131.593 285.679 131.9 285.865 132.169C286.055 132.438 286.292 132.65 286.575 132.806C286.858 132.958 287.188 133.033 287.564 133.033C287.935 133.033 288.26 132.958 288.538 132.806C288.821 132.65 289.056 132.438 289.241 132.169C289.427 131.9 289.566 131.593 289.659 131.246C289.756 130.895 289.805 130.521 289.805 130.125V129.957C289.805 129.566 289.756 129.198 289.659 128.851C289.566 128.5 289.424 128.189 289.234 127.921C289.048 127.647 288.814 127.433 288.531 127.276C288.252 127.12 287.925 127.042 287.549 127.042C287.178 127.042 286.851 127.12 286.568 127.276C286.29 127.433 286.055 127.647 285.865 127.921C285.679 128.189 285.54 128.5 285.447 128.851C285.354 129.198 285.308 129.566 285.308 129.957ZM298.045 126.075V127.196H294.214V126.075H298.045ZM299.239 126.075V134H297.884V126.075H299.239ZM293.885 126.075H295.247L295.042 129.898C295.008 130.489 294.952 131.012 294.874 131.466C294.8 131.915 294.698 132.301 294.566 132.623C294.439 132.945 294.278 133.209 294.083 133.414C293.892 133.614 293.663 133.763 293.394 133.861C293.125 133.954 292.815 134 292.464 134H292.039V132.806L292.332 132.784C292.542 132.77 292.72 132.721 292.867 132.638C293.018 132.555 293.145 132.433 293.248 132.271C293.35 132.105 293.433 131.893 293.497 131.634C293.565 131.375 293.616 131.068 293.65 130.711C293.689 130.355 293.719 129.94 293.738 129.466L293.885 126.075ZM302.886 131.854L306.541 126.075H307.903V134H306.541V128.221L302.886 134H301.539V126.075H302.886V131.854ZM315.455 129.51V130.609H311.265V129.51H315.455ZM311.551 126.075V134H310.196V126.075H311.551ZM316.553 126.075V134H315.191V126.075H316.553ZM321.907 133.033C322.229 133.033 322.527 132.967 322.801 132.835C323.074 132.704 323.299 132.523 323.475 132.293C323.65 132.059 323.75 131.793 323.775 131.495H325.064C325.04 131.964 324.881 132.401 324.588 132.806C324.3 133.207 323.921 133.531 323.453 133.78C322.984 134.024 322.469 134.146 321.907 134.146C321.312 134.146 320.792 134.042 320.347 133.832C319.908 133.622 319.542 133.333 319.249 132.967C318.96 132.601 318.743 132.181 318.597 131.708C318.455 131.229 318.384 130.724 318.384 130.191V129.884C318.384 129.352 318.455 128.849 318.597 128.375C318.743 127.896 318.96 127.474 319.249 127.108C319.542 126.742 319.908 126.454 320.347 126.244C320.792 126.034 321.312 125.929 321.907 125.929C322.527 125.929 323.069 126.056 323.533 126.31C323.997 126.559 324.361 126.9 324.625 127.335C324.893 127.765 325.04 128.253 325.064 128.8H323.775C323.75 128.473 323.658 128.177 323.497 127.914C323.34 127.65 323.125 127.44 322.852 127.284C322.583 127.123 322.269 127.042 321.907 127.042C321.492 127.042 321.143 127.125 320.86 127.291C320.582 127.452 320.359 127.672 320.193 127.95C320.032 128.224 319.915 128.529 319.842 128.866C319.773 129.198 319.739 129.537 319.739 129.884V130.191C319.739 130.538 319.773 130.88 319.842 131.217C319.91 131.554 320.025 131.859 320.186 132.132C320.352 132.406 320.574 132.625 320.853 132.792C321.136 132.953 321.487 133.033 321.907 133.033ZM328.06 126.075V134H326.705V126.075H328.06ZM333.26 126.075L329.502 130.616H327.605L327.4 129.43H328.953L331.612 126.075H333.26ZM331.802 134L328.887 130.411L329.759 129.43L333.523 134H331.802Z" fill="white"/>
<path d="M281.588 190.198L284.284 184.075H285.587L282.057 192H281.12L277.604 184.075H278.908L281.588 190.198ZM278.512 184.075V192H277.157V184.075H278.512ZM284.621 192V184.075H285.983V192H284.621ZM289.279 186.8H291.659C292.299 186.8 292.838 186.912 293.278 187.137C293.717 187.356 294.049 187.662 294.274 188.052C294.503 188.438 294.618 188.877 294.618 189.371C294.618 189.737 294.555 190.081 294.428 190.403C294.301 190.721 294.11 190.999 293.856 191.238C293.607 191.478 293.297 191.666 292.926 191.802C292.56 191.934 292.138 192 291.659 192H288.29V184.075H289.645V190.887H291.659C292.05 190.887 292.362 190.816 292.597 190.674C292.831 190.533 293 190.35 293.102 190.125C293.205 189.9 293.256 189.666 293.256 189.422C293.256 189.183 293.205 188.948 293.102 188.719C293 188.489 292.831 188.299 292.597 188.147C292.362 187.991 292.05 187.913 291.659 187.913H289.279V186.8ZM297.438 184.075V192H296.083V184.075H297.438ZM302.982 191.033C303.305 191.033 303.603 190.967 303.876 190.835C304.149 190.704 304.374 190.523 304.55 190.293C304.726 190.059 304.826 189.793 304.85 189.495H306.139C306.115 189.964 305.956 190.401 305.663 190.806C305.375 191.207 304.997 191.531 304.528 191.78C304.059 192.024 303.544 192.146 302.982 192.146C302.387 192.146 301.867 192.042 301.422 191.832C300.983 191.622 300.617 191.333 300.324 190.967C300.036 190.601 299.818 190.181 299.672 189.708C299.53 189.229 299.459 188.724 299.459 188.191V187.884C299.459 187.352 299.53 186.849 299.672 186.375C299.818 185.896 300.036 185.474 300.324 185.108C300.617 184.742 300.983 184.454 301.422 184.244C301.867 184.034 302.387 183.929 302.982 183.929C303.603 183.929 304.145 184.056 304.608 184.31C305.072 184.559 305.436 184.9 305.7 185.335C305.968 185.765 306.115 186.253 306.139 186.8H304.85C304.826 186.473 304.733 186.177 304.572 185.914C304.416 185.65 304.201 185.44 303.927 185.284C303.659 185.123 303.344 185.042 302.982 185.042C302.567 185.042 302.218 185.125 301.935 185.291C301.657 185.452 301.435 185.672 301.269 185.95C301.107 186.224 300.99 186.529 300.917 186.866C300.849 187.198 300.814 187.537 300.814 187.884V188.191C300.814 188.538 300.849 188.88 300.917 189.217C300.985 189.554 301.1 189.859 301.261 190.132C301.427 190.406 301.649 190.625 301.928 190.792C302.211 190.953 302.562 191.033 302.982 191.033ZM319.799 186.331V187.005C319.799 187.806 319.699 188.523 319.499 189.158C319.298 189.793 319.01 190.333 318.634 190.777C318.258 191.221 317.807 191.561 317.279 191.795C316.757 192.029 316.171 192.146 315.521 192.146C314.892 192.146 314.313 192.029 313.786 191.795C313.263 191.561 312.809 191.221 312.423 190.777C312.042 190.333 311.747 189.793 311.537 189.158C311.327 188.523 311.222 187.806 311.222 187.005V186.331C311.222 185.53 311.325 184.815 311.53 184.185C311.74 183.55 312.035 183.011 312.416 182.566C312.797 182.117 313.249 181.775 313.771 181.541C314.298 181.307 314.877 181.189 315.507 181.189C316.156 181.189 316.742 181.307 317.265 181.541C317.792 181.775 318.244 182.117 318.62 182.566C319 183.011 319.291 183.55 319.491 184.185C319.696 184.815 319.799 185.53 319.799 186.331ZM318.4 187.005V186.316C318.4 185.682 318.334 185.12 318.202 184.632C318.075 184.144 317.887 183.733 317.638 183.401C317.389 183.069 317.084 182.818 316.723 182.647C316.366 182.476 315.961 182.391 315.507 182.391C315.067 182.391 314.669 182.476 314.313 182.647C313.961 182.818 313.659 183.069 313.405 183.401C313.156 183.733 312.963 184.144 312.826 184.632C312.689 185.12 312.621 185.682 312.621 186.316V187.005C312.621 187.645 312.689 188.211 312.826 188.704C312.963 189.192 313.158 189.605 313.412 189.942C313.671 190.274 313.976 190.525 314.328 190.696C314.684 190.867 315.082 190.953 315.521 190.953C315.98 190.953 316.388 190.867 316.745 190.696C317.101 190.525 317.401 190.274 317.646 189.942C317.895 189.605 318.083 189.192 318.209 188.704C318.336 188.211 318.4 187.645 318.4 187.005ZM324.882 191.033C325.204 191.033 325.502 190.967 325.775 190.835C326.049 190.704 326.273 190.523 326.449 190.293C326.625 190.059 326.725 189.793 326.75 189.495H328.039C328.014 189.964 327.855 190.401 327.562 190.806C327.274 191.207 326.896 191.531 326.427 191.78C325.958 192.024 325.443 192.146 324.882 192.146C324.286 192.146 323.766 192.042 323.322 191.832C322.882 191.622 322.516 191.333 322.223 190.967C321.935 190.601 321.718 190.181 321.571 189.708C321.43 189.229 321.359 188.724 321.359 188.191V187.884C321.359 187.352 321.43 186.849 321.571 186.375C321.718 185.896 321.935 185.474 322.223 185.108C322.516 184.742 322.882 184.454 323.322 184.244C323.766 184.034 324.286 183.929 324.882 183.929C325.502 183.929 326.044 184.056 326.508 184.31C326.972 184.559 327.335 184.9 327.599 185.335C327.868 185.765 328.014 186.253 328.039 186.8H326.75C326.725 186.473 326.632 186.177 326.471 185.914C326.315 185.65 326.1 185.44 325.827 185.284C325.558 185.123 325.243 185.042 324.882 185.042C324.467 185.042 324.118 185.125 323.834 185.291C323.556 185.452 323.334 185.672 323.168 185.95C323.007 186.224 322.89 186.529 322.816 186.866C322.748 187.198 322.714 187.537 322.714 187.884V188.191C322.714 188.538 322.748 188.88 322.816 189.217C322.885 189.554 323 189.859 323.161 190.132C323.327 190.406 323.549 190.625 323.827 190.792C324.11 190.953 324.462 191.033 324.882 191.033ZM332.792 184.075V192H331.43V184.075H332.792ZM335.451 184.075V185.174H328.822V184.075H335.451ZM338.139 185.599V195.047H336.776V184.075H338.021L338.139 185.599ZM343.478 187.972V188.125C343.478 188.702 343.41 189.236 343.273 189.729C343.136 190.218 342.936 190.643 342.672 191.004C342.414 191.365 342.094 191.646 341.713 191.846C341.332 192.046 340.895 192.146 340.402 192.146C339.899 192.146 339.455 192.063 339.069 191.897C338.683 191.731 338.356 191.49 338.087 191.172C337.819 190.855 337.604 190.474 337.443 190.03C337.287 189.585 337.179 189.085 337.121 188.528V187.708C337.179 187.122 337.289 186.597 337.45 186.133C337.611 185.669 337.824 185.274 338.087 184.947C338.356 184.615 338.681 184.363 339.062 184.192C339.442 184.017 339.882 183.929 340.38 183.929C340.878 183.929 341.32 184.026 341.706 184.222C342.091 184.412 342.416 184.686 342.68 185.042C342.943 185.398 343.141 185.826 343.273 186.324C343.41 186.817 343.478 187.366 343.478 187.972ZM342.116 188.125V187.972C342.116 187.576 342.074 187.205 341.991 186.858C341.908 186.507 341.779 186.199 341.603 185.936C341.432 185.667 341.212 185.457 340.944 185.306C340.675 185.149 340.355 185.071 339.984 185.071C339.643 185.071 339.345 185.13 339.091 185.247C338.842 185.364 338.629 185.523 338.454 185.723C338.278 185.918 338.134 186.143 338.021 186.397C337.914 186.646 337.833 186.905 337.78 187.173V189.07C337.877 189.412 338.014 189.734 338.19 190.037C338.366 190.335 338.6 190.577 338.893 190.762C339.186 190.943 339.555 191.033 339.999 191.033C340.365 191.033 340.68 190.958 340.944 190.806C341.212 190.65 341.432 190.438 341.603 190.169C341.779 189.9 341.908 189.593 341.991 189.246C342.074 188.895 342.116 188.521 342.116 188.125ZM346.32 186.8H348.7C349.34 186.8 349.879 186.912 350.319 187.137C350.758 187.356 351.09 187.662 351.315 188.052C351.544 188.438 351.659 188.877 351.659 189.371C351.659 189.737 351.596 190.081 351.469 190.403C351.342 190.721 351.151 190.999 350.897 191.238C350.648 191.478 350.338 191.666 349.967 191.802C349.601 191.934 349.179 192 348.7 192H345.331V184.075H346.686V190.887H348.7C349.091 190.887 349.403 190.816 349.638 190.674C349.872 190.533 350.041 190.35 350.143 190.125C350.246 189.9 350.297 189.666 350.297 189.422C350.297 189.183 350.246 188.948 350.143 188.719C350.041 188.489 349.872 188.299 349.638 188.147C349.403 187.991 349.091 187.913 348.7 187.913H346.32V186.8ZM354.479 184.075V192H353.124V184.075H354.479ZM358.317 189.854L361.972 184.075H363.334V192H361.972V186.221L358.317 192H356.969V184.075H358.317V189.854ZM361.232 181.204H362.331C362.331 181.585 362.243 181.924 362.067 182.222C361.891 182.515 361.64 182.745 361.312 182.911C360.985 183.077 360.597 183.16 360.148 183.16C359.469 183.16 358.932 182.979 358.537 182.618C358.146 182.251 357.951 181.78 357.951 181.204H359.049C359.049 181.492 359.132 181.746 359.298 181.966C359.464 182.186 359.748 182.295 360.148 182.295C360.539 182.295 360.817 182.186 360.983 181.966C361.149 181.746 361.232 181.492 361.232 181.204Z" fill="white"/>
<path d="M230.448 303.331V304.005C230.448 304.806 230.348 305.523 230.148 306.158C229.948 306.793 229.66 307.333 229.284 307.777C228.908 308.221 228.456 308.561 227.929 308.795C227.406 309.029 226.82 309.146 226.171 309.146C225.541 309.146 224.962 309.029 224.435 308.795C223.913 308.561 223.458 308.221 223.073 307.777C222.692 307.333 222.396 306.793 222.187 306.158C221.977 305.523 221.872 304.806 221.872 304.005V303.331C221.872 302.53 221.974 301.815 222.179 301.185C222.389 300.55 222.685 300.011 223.065 299.566C223.446 299.117 223.898 298.775 224.42 298.541C224.948 298.307 225.526 298.189 226.156 298.189C226.806 298.189 227.392 298.307 227.914 298.541C228.441 298.775 228.893 299.117 229.269 299.566C229.65 300.011 229.94 300.55 230.141 301.185C230.346 301.815 230.448 302.53 230.448 303.331ZM229.049 304.005V303.316C229.049 302.682 228.983 302.12 228.852 301.632C228.725 301.144 228.537 300.733 228.288 300.401C228.039 300.069 227.733 299.818 227.372 299.647C227.016 299.476 226.61 299.391 226.156 299.391C225.717 299.391 225.319 299.476 224.962 299.647C224.611 299.818 224.308 300.069 224.054 300.401C223.805 300.733 223.612 301.144 223.476 301.632C223.339 302.12 223.271 302.682 223.271 303.316V304.005C223.271 304.645 223.339 305.211 223.476 305.704C223.612 306.192 223.808 306.605 224.062 306.942C224.32 307.274 224.625 307.525 224.977 307.696C225.333 307.867 225.731 307.953 226.171 307.953C226.63 307.953 227.038 307.867 227.394 307.696C227.75 307.525 228.051 307.274 228.295 306.942C228.544 306.605 228.732 306.192 228.859 305.704C228.986 305.211 229.049 304.645 229.049 304.005ZM233.275 301.075L235.011 303.961L236.769 301.075H238.358L235.766 304.986L238.439 309H236.872L235.041 306.026L233.209 309H231.635L234.301 304.986L231.715 301.075H233.275ZM239.296 305.125V304.957C239.296 304.386 239.379 303.856 239.545 303.368C239.711 302.875 239.95 302.447 240.263 302.086C240.575 301.72 240.954 301.437 241.398 301.236C241.842 301.031 242.34 300.929 242.892 300.929C243.449 300.929 243.949 301.031 244.394 301.236C244.843 301.437 245.224 301.72 245.536 302.086C245.854 302.447 246.095 302.875 246.261 303.368C246.427 303.856 246.51 304.386 246.51 304.957V305.125C246.51 305.697 246.427 306.227 246.261 306.715C246.095 307.203 245.854 307.63 245.536 307.997C245.224 308.358 244.845 308.641 244.401 308.846C243.961 309.046 243.463 309.146 242.907 309.146C242.35 309.146 241.85 309.046 241.405 308.846C240.961 308.641 240.58 308.358 240.263 307.997C239.95 307.63 239.711 307.203 239.545 306.715C239.379 306.227 239.296 305.697 239.296 305.125ZM240.651 304.957V305.125C240.651 305.521 240.697 305.895 240.79 306.246C240.883 306.593 241.022 306.9 241.208 307.169C241.398 307.438 241.635 307.65 241.918 307.806C242.201 307.958 242.531 308.033 242.907 308.033C243.278 308.033 243.603 307.958 243.881 307.806C244.164 307.65 244.398 307.438 244.584 307.169C244.77 306.9 244.909 306.593 245.001 306.246C245.099 305.895 245.148 305.521 245.148 305.125V304.957C245.148 304.566 245.099 304.198 245.001 303.851C244.909 303.5 244.767 303.189 244.577 302.921C244.391 302.647 244.157 302.433 243.874 302.276C243.595 302.12 243.268 302.042 242.892 302.042C242.521 302.042 242.194 302.12 241.911 302.276C241.632 302.433 241.398 302.647 241.208 302.921C241.022 303.189 240.883 303.5 240.79 303.851C240.697 304.198 240.651 304.566 240.651 304.957ZM251.278 301.075V309H249.916V301.075H251.278ZM253.937 301.075V302.174H247.309V301.075H253.937ZM257.855 308.033C258.178 308.033 258.476 307.967 258.749 307.835C259.022 307.704 259.247 307.523 259.423 307.293C259.599 307.059 259.699 306.793 259.723 306.495H261.012C260.988 306.964 260.829 307.401 260.536 307.806C260.248 308.207 259.87 308.531 259.401 308.78C258.932 309.024 258.417 309.146 257.855 309.146C257.26 309.146 256.74 309.042 256.295 308.832C255.856 308.622 255.49 308.333 255.197 307.967C254.909 307.601 254.691 307.181 254.545 306.708C254.403 306.229 254.333 305.724 254.333 305.191V304.884C254.333 304.352 254.403 303.849 254.545 303.375C254.691 302.896 254.909 302.474 255.197 302.108C255.49 301.742 255.856 301.454 256.295 301.244C256.74 301.034 257.26 300.929 257.855 300.929C258.476 300.929 259.018 301.056 259.481 301.31C259.945 301.559 260.309 301.9 260.573 302.335C260.841 302.765 260.988 303.253 261.012 303.8H259.723C259.699 303.473 259.606 303.177 259.445 302.914C259.289 302.65 259.074 302.44 258.8 302.284C258.532 302.123 258.217 302.042 257.855 302.042C257.44 302.042 257.091 302.125 256.808 302.291C256.53 302.452 256.308 302.672 256.142 302.95C255.98 303.224 255.863 303.529 255.79 303.866C255.722 304.198 255.688 304.537 255.688 304.884V305.191C255.688 305.538 255.722 305.88 255.79 306.217C255.858 306.554 255.973 306.859 256.134 307.132C256.3 307.406 256.522 307.625 256.801 307.792C257.084 307.953 257.436 308.033 257.855 308.033ZM264.008 301.075V309H262.653V301.075H264.008ZM269.208 301.075L265.451 305.616H263.554L263.349 304.43H264.901L267.56 301.075H269.208ZM267.75 309L264.835 305.411L265.707 304.43L269.472 309H267.75ZM270.131 305.125V304.957C270.131 304.386 270.214 303.856 270.38 303.368C270.546 302.875 270.785 302.447 271.098 302.086C271.41 301.72 271.789 301.437 272.233 301.236C272.677 301.031 273.175 300.929 273.727 300.929C274.284 300.929 274.784 301.031 275.229 301.236C275.678 301.437 276.059 301.72 276.371 302.086C276.688 302.447 276.93 302.875 277.096 303.368C277.262 303.856 277.345 304.386 277.345 304.957V305.125C277.345 305.697 277.262 306.227 277.096 306.715C276.93 307.203 276.688 307.63 276.371 307.997C276.059 308.358 275.68 308.641 275.236 308.846C274.796 309.046 274.298 309.146 273.742 309.146C273.185 309.146 272.685 309.046 272.24 308.846C271.796 308.641 271.415 308.358 271.098 307.997C270.785 307.63 270.546 307.203 270.38 306.715C270.214 306.227 270.131 305.697 270.131 305.125ZM271.486 304.957V305.125C271.486 305.521 271.532 305.895 271.625 306.246C271.718 306.593 271.857 306.9 272.042 307.169C272.233 307.438 272.47 307.65 272.753 307.806C273.036 307.958 273.366 308.033 273.742 308.033C274.113 308.033 274.438 307.958 274.716 307.806C274.999 307.65 275.233 307.438 275.419 307.169C275.604 306.9 275.744 306.593 275.836 306.246C275.934 305.895 275.983 305.521 275.983 305.125V304.957C275.983 304.566 275.934 304.198 275.836 303.851C275.744 303.5 275.602 303.189 275.412 302.921C275.226 302.647 274.992 302.433 274.708 302.276C274.43 302.12 274.103 302.042 273.727 302.042C273.356 302.042 273.029 302.12 272.746 302.276C272.467 302.433 272.233 302.647 272.042 302.921C271.857 303.189 271.718 303.5 271.625 303.851C271.532 304.198 271.486 304.566 271.486 304.957ZM282.333 309.146C281.781 309.146 281.281 309.054 280.832 308.868C280.387 308.678 280.004 308.412 279.682 308.07C279.364 307.728 279.12 307.323 278.949 306.854C278.778 306.385 278.693 305.873 278.693 305.316V305.008C278.693 304.364 278.788 303.79 278.979 303.287C279.169 302.779 279.428 302.35 279.755 301.998C280.082 301.646 280.453 301.38 280.868 301.2C281.283 301.019 281.713 300.929 282.157 300.929C282.724 300.929 283.212 301.026 283.622 301.222C284.037 301.417 284.376 301.69 284.64 302.042C284.904 302.389 285.099 302.799 285.226 303.272C285.353 303.741 285.417 304.254 285.417 304.811V305.418H279.499V304.312H284.062V304.21C284.042 303.858 283.969 303.517 283.842 303.185C283.72 302.853 283.524 302.579 283.256 302.364C282.987 302.149 282.621 302.042 282.157 302.042C281.85 302.042 281.566 302.108 281.308 302.24C281.049 302.367 280.827 302.557 280.641 302.811C280.456 303.065 280.312 303.375 280.209 303.741C280.106 304.107 280.055 304.53 280.055 305.008V305.316C280.055 305.692 280.106 306.046 280.209 306.378C280.316 306.705 280.47 306.993 280.67 307.242C280.875 307.491 281.122 307.687 281.41 307.828C281.703 307.97 282.035 308.041 282.406 308.041C282.885 308.041 283.29 307.943 283.622 307.748C283.954 307.552 284.245 307.291 284.494 306.964L285.314 307.616C285.143 307.875 284.926 308.121 284.662 308.355C284.398 308.59 284.074 308.78 283.688 308.927C283.307 309.073 282.855 309.146 282.333 309.146Z" fill="white"/>
<path d="M230.676 343.609H232.082C232.009 344.283 231.816 344.886 231.503 345.418C231.191 345.95 230.749 346.373 230.178 346.685C229.606 346.993 228.894 347.146 228.039 347.146C227.414 347.146 226.845 347.029 226.333 346.795C225.825 346.561 225.388 346.229 225.021 345.799C224.655 345.364 224.372 344.844 224.172 344.239C223.977 343.628 223.879 342.95 223.879 342.203V341.141C223.879 340.394 223.977 339.717 224.172 339.112C224.372 338.501 224.658 337.979 225.029 337.544C225.405 337.11 225.856 336.775 226.384 336.541C226.911 336.307 227.504 336.189 228.164 336.189C228.969 336.189 229.65 336.341 230.207 336.644C230.764 336.946 231.196 337.366 231.503 337.903C231.816 338.436 232.009 339.053 232.082 339.756H230.676C230.607 339.258 230.48 338.831 230.295 338.475C230.109 338.113 229.846 337.835 229.504 337.64C229.162 337.444 228.715 337.347 228.164 337.347C227.69 337.347 227.272 337.437 226.911 337.618C226.555 337.798 226.254 338.055 226.01 338.387C225.771 338.719 225.59 339.117 225.468 339.581C225.346 340.044 225.285 340.56 225.285 341.126V342.203C225.285 342.725 225.339 343.216 225.446 343.675C225.559 344.134 225.727 344.537 225.952 344.883C226.176 345.23 226.462 345.503 226.809 345.704C227.155 345.899 227.565 345.997 228.039 345.997C228.64 345.997 229.118 345.901 229.475 345.711C229.831 345.521 230.1 345.247 230.28 344.891C230.466 344.534 230.598 344.107 230.676 343.609ZM237.524 343.514H234.924L234.909 342.43H237.033C237.453 342.43 237.802 342.388 238.081 342.305C238.364 342.222 238.576 342.098 238.718 341.932C238.859 341.766 238.93 341.561 238.93 341.316C238.93 341.126 238.889 340.96 238.806 340.818C238.728 340.672 238.608 340.552 238.447 340.459C238.286 340.362 238.085 340.291 237.846 340.247C237.612 340.198 237.336 340.174 237.019 340.174H235.283V347H233.928V339.075H237.019C237.521 339.075 237.973 339.119 238.374 339.207C238.779 339.295 239.123 339.429 239.406 339.61C239.694 339.786 239.914 340.01 240.065 340.284C240.217 340.557 240.292 340.879 240.292 341.25C240.292 341.49 240.244 341.717 240.146 341.932C240.048 342.146 239.904 342.337 239.714 342.503C239.523 342.669 239.289 342.806 239.011 342.913C238.732 343.016 238.413 343.082 238.051 343.111L237.524 343.514ZM237.524 347H234.433L235.107 345.901H237.524C237.9 345.901 238.212 345.855 238.461 345.762C238.71 345.665 238.896 345.528 239.018 345.352C239.145 345.171 239.208 344.957 239.208 344.708C239.208 344.458 239.145 344.246 239.018 344.07C238.896 343.89 238.71 343.753 238.461 343.66C238.212 343.562 237.9 343.514 237.524 343.514H235.466L235.48 342.43H238.051L238.542 342.84C238.977 342.874 239.345 342.981 239.648 343.162C239.951 343.343 240.18 343.572 240.336 343.851C240.493 344.124 240.571 344.422 240.571 344.744C240.571 345.115 240.5 345.442 240.358 345.726C240.222 346.009 240.021 346.246 239.758 346.436C239.494 346.622 239.174 346.763 238.798 346.861C238.422 346.954 237.998 347 237.524 347ZM242.028 343.125V342.957C242.028 342.386 242.111 341.856 242.277 341.368C242.443 340.875 242.683 340.447 242.995 340.086C243.308 339.72 243.686 339.437 244.13 339.236C244.575 339.031 245.073 338.929 245.625 338.929C246.181 338.929 246.682 339.031 247.126 339.236C247.575 339.437 247.956 339.72 248.269 340.086C248.586 340.447 248.828 340.875 248.994 341.368C249.16 341.856 249.243 342.386 249.243 342.957V343.125C249.243 343.697 249.16 344.227 248.994 344.715C248.828 345.203 248.586 345.63 248.269 345.997C247.956 346.358 247.578 346.641 247.133 346.846C246.694 347.046 246.196 347.146 245.639 347.146C245.083 347.146 244.582 347.046 244.138 346.846C243.693 346.641 243.312 346.358 242.995 345.997C242.683 345.63 242.443 345.203 242.277 344.715C242.111 344.227 242.028 343.697 242.028 343.125ZM243.383 342.957V343.125C243.383 343.521 243.43 343.895 243.522 344.246C243.615 344.593 243.754 344.9 243.94 345.169C244.13 345.438 244.367 345.65 244.65 345.806C244.934 345.958 245.263 346.033 245.639 346.033C246.01 346.033 246.335 345.958 246.613 345.806C246.896 345.65 247.131 345.438 247.316 345.169C247.502 344.9 247.641 344.593 247.734 344.246C247.832 343.895 247.88 343.521 247.88 343.125V342.957C247.88 342.566 247.832 342.198 247.734 341.851C247.641 341.5 247.5 341.189 247.309 340.921C247.124 340.647 246.889 340.433 246.606 340.276C246.328 340.12 246 340.042 245.625 340.042C245.253 340.042 244.926 340.12 244.643 340.276C244.365 340.433 244.13 340.647 243.94 340.921C243.754 341.189 243.615 341.5 243.522 341.851C243.43 342.198 243.383 342.566 243.383 342.957ZM256.025 335.625H257.138C257.138 336.104 257.065 336.485 256.918 336.768C256.772 337.046 256.572 337.261 256.318 337.413C256.069 337.564 255.786 337.679 255.468 337.757C255.156 337.835 254.831 337.911 254.494 337.984C254.074 338.072 253.684 338.211 253.322 338.401C252.966 338.587 252.658 338.851 252.399 339.192C252.146 339.534 251.958 339.979 251.835 340.525C251.718 341.072 251.687 341.749 251.74 342.554V343.228H250.627V342.554C250.627 341.651 250.712 340.862 250.883 340.188C251.059 339.515 251.306 338.946 251.623 338.482C251.94 338.018 252.316 337.649 252.751 337.376C253.19 337.103 253.674 336.915 254.201 336.812C254.582 336.739 254.909 336.661 255.183 336.578C255.456 336.49 255.664 336.373 255.805 336.226C255.952 336.08 256.025 335.879 256.025 335.625ZM254.421 339.529C254.938 339.529 255.4 339.62 255.805 339.8C256.21 339.981 256.555 340.232 256.838 340.555C257.121 340.877 257.336 341.258 257.482 341.697C257.634 342.132 257.709 342.605 257.709 343.118V343.279C257.709 343.831 257.629 344.344 257.468 344.817C257.312 345.286 257.08 345.696 256.772 346.048C256.469 346.395 256.098 346.666 255.659 346.861C255.224 347.056 254.729 347.154 254.172 347.154C253.615 347.154 253.117 347.056 252.678 346.861C252.243 346.666 251.872 346.395 251.564 346.048C251.257 345.696 251.022 345.286 250.861 344.817C250.705 344.344 250.627 343.831 250.627 343.279V343.118C250.627 342.996 250.649 342.876 250.693 342.759C250.737 342.642 250.791 342.522 250.854 342.4C250.922 342.278 250.983 342.149 251.037 342.012C251.218 341.573 251.464 341.165 251.777 340.789C252.094 340.413 252.473 340.11 252.912 339.881C253.356 339.646 253.859 339.529 254.421 339.529ZM254.157 340.635C253.659 340.635 253.249 340.75 252.927 340.979C252.609 341.209 252.373 341.514 252.216 341.895C252.06 342.271 251.982 342.679 251.982 343.118V343.279C251.982 343.65 252.026 344.002 252.114 344.334C252.202 344.666 252.333 344.961 252.509 345.22C252.69 345.474 252.917 345.674 253.19 345.821C253.469 345.967 253.796 346.041 254.172 346.041C254.548 346.041 254.873 345.967 255.146 345.821C255.419 345.674 255.644 345.474 255.82 345.22C255.996 344.961 256.127 344.666 256.215 344.334C256.303 344.002 256.347 343.65 256.347 343.279V343.118C256.347 342.786 256.303 342.471 256.215 342.173C256.127 341.875 255.993 341.612 255.812 341.382C255.637 341.153 255.41 340.972 255.131 340.84C254.858 340.704 254.533 340.635 254.157 340.635ZM258.889 343.125V342.957C258.889 342.386 258.972 341.856 259.138 341.368C259.304 340.875 259.543 340.447 259.855 340.086C260.168 339.72 260.546 339.437 260.991 339.236C261.435 339.031 261.933 338.929 262.485 338.929C263.042 338.929 263.542 339.031 263.986 339.236C264.436 339.437 264.816 339.72 265.129 340.086C265.446 340.447 265.688 340.875 265.854 341.368C266.02 341.856 266.103 342.386 266.103 342.957V343.125C266.103 343.697 266.02 344.227 265.854 344.715C265.688 345.203 265.446 345.63 265.129 345.997C264.816 346.358 264.438 346.641 263.994 346.846C263.554 347.046 263.056 347.146 262.5 347.146C261.943 347.146 261.442 347.046 260.998 346.846C260.554 346.641 260.173 346.358 259.855 345.997C259.543 345.63 259.304 345.203 259.138 344.715C258.972 344.227 258.889 343.697 258.889 343.125ZM260.244 342.957V343.125C260.244 343.521 260.29 343.895 260.383 344.246C260.476 344.593 260.615 344.9 260.8 345.169C260.991 345.438 261.228 345.65 261.511 345.806C261.794 345.958 262.124 346.033 262.5 346.033C262.871 346.033 263.195 345.958 263.474 345.806C263.757 345.65 263.991 345.438 264.177 345.169C264.362 344.9 264.501 344.593 264.594 344.246C264.692 343.895 264.741 343.521 264.741 343.125V342.957C264.741 342.566 264.692 342.198 264.594 341.851C264.501 341.5 264.36 341.189 264.169 340.921C263.984 340.647 263.75 340.433 263.466 340.276C263.188 340.12 262.861 340.042 262.485 340.042C262.114 340.042 261.787 340.12 261.503 340.276C261.225 340.433 260.991 340.647 260.8 340.921C260.615 341.189 260.476 341.5 260.383 341.851C260.29 342.198 260.244 342.566 260.244 342.957ZM268.703 339.075H270.058L269.941 342.042C269.912 342.793 269.826 343.443 269.685 343.99C269.543 344.537 269.362 345.003 269.143 345.389C268.923 345.77 268.676 346.089 268.403 346.348C268.134 346.607 267.856 346.824 267.568 347H266.894L266.931 345.894L267.209 345.887C267.37 345.696 267.526 345.501 267.678 345.301C267.829 345.096 267.968 344.854 268.095 344.576C268.222 344.292 268.327 343.948 268.41 343.543C268.498 343.133 268.554 342.632 268.579 342.042L268.703 339.075ZM269.04 339.075H273.808V347H272.453V340.328H269.04V339.075ZM266.586 345.887H274.826V349.336H273.471V347H267.941V349.336H266.579L266.586 345.887ZM281.704 342.51V343.609H277.514V342.51H281.704ZM277.8 339.075V347H276.445V339.075H277.8ZM282.802 339.075V347H281.44V339.075H282.802ZM284.626 343.125V342.957C284.626 342.386 284.709 341.856 284.875 341.368C285.041 340.875 285.28 340.447 285.593 340.086C285.905 339.72 286.284 339.437 286.728 339.236C287.172 339.031 287.67 338.929 288.222 338.929C288.779 338.929 289.279 339.031 289.724 339.236C290.173 339.437 290.554 339.72 290.866 340.086C291.184 340.447 291.425 340.875 291.591 341.368C291.757 341.856 291.84 342.386 291.84 342.957V343.125C291.84 343.697 291.757 344.227 291.591 344.715C291.425 345.203 291.184 345.63 290.866 345.997C290.554 346.358 290.175 346.641 289.731 346.846C289.292 347.046 288.793 347.146 288.237 347.146C287.68 347.146 287.18 347.046 286.735 346.846C286.291 346.641 285.91 346.358 285.593 345.997C285.28 345.63 285.041 345.203 284.875 344.715C284.709 344.227 284.626 343.697 284.626 343.125ZM285.981 342.957V343.125C285.981 343.521 286.027 343.895 286.12 344.246C286.213 344.593 286.352 344.9 286.538 345.169C286.728 345.438 286.965 345.65 287.248 345.806C287.531 345.958 287.861 346.033 288.237 346.033C288.608 346.033 288.933 345.958 289.211 345.806C289.494 345.65 289.729 345.438 289.914 345.169C290.1 344.9 290.239 344.593 290.332 344.246C290.429 343.895 290.478 343.521 290.478 343.125V342.957C290.478 342.566 290.429 342.198 290.332 341.851C290.239 341.5 290.097 341.189 289.907 340.921C289.721 340.647 289.487 340.433 289.204 340.276C288.925 340.12 288.598 340.042 288.222 340.042C287.851 340.042 287.524 340.12 287.241 340.276C286.962 340.433 286.728 340.647 286.538 340.921C286.352 341.189 286.213 341.5 286.12 341.851C286.027 342.198 285.981 342.566 285.981 342.957ZM296.828 347.146C296.276 347.146 295.776 347.054 295.327 346.868C294.882 346.678 294.499 346.412 294.177 346.07C293.859 345.728 293.615 345.323 293.444 344.854C293.273 344.385 293.188 343.873 293.188 343.316V343.008C293.188 342.364 293.283 341.79 293.474 341.287C293.664 340.779 293.923 340.35 294.25 339.998C294.577 339.646 294.948 339.38 295.363 339.2C295.778 339.019 296.208 338.929 296.652 338.929C297.219 338.929 297.707 339.026 298.117 339.222C298.532 339.417 298.872 339.69 299.135 340.042C299.399 340.389 299.594 340.799 299.721 341.272C299.848 341.741 299.912 342.254 299.912 342.811V343.418H293.994V342.312H298.557V342.21C298.537 341.858 298.464 341.517 298.337 341.185C298.215 340.853 298.02 340.579 297.751 340.364C297.482 340.149 297.116 340.042 296.652 340.042C296.345 340.042 296.062 340.108 295.803 340.24C295.544 340.367 295.322 340.557 295.136 340.811C294.951 341.065 294.807 341.375 294.704 341.741C294.602 342.107 294.55 342.53 294.55 343.008V343.316C294.55 343.692 294.602 344.046 294.704 344.378C294.812 344.705 294.965 344.993 295.166 345.242C295.371 345.491 295.617 345.687 295.905 345.828C296.198 345.97 296.53 346.041 296.901 346.041C297.38 346.041 297.785 345.943 298.117 345.748C298.449 345.552 298.74 345.291 298.989 344.964L299.809 345.616C299.638 345.875 299.421 346.121 299.157 346.355C298.894 346.59 298.569 346.78 298.183 346.927C297.802 347.073 297.351 347.146 296.828 347.146Z" fill="white"/>
<path d="M140.685 357.336H142.054L145.548 366.03L149.034 357.336H150.411L146.075 368H145.006L140.685 357.336ZM140.238 357.336H141.446L141.644 363.84V368H140.238V357.336ZM149.642 357.336H150.851V368H149.444V363.84L149.642 357.336ZM154.242 362.8H156.622C157.262 362.8 157.801 362.912 158.241 363.137C158.68 363.356 159.012 363.662 159.237 364.052C159.466 364.438 159.581 364.877 159.581 365.371C159.581 365.737 159.518 366.081 159.391 366.403C159.264 366.721 159.073 366.999 158.819 367.238C158.57 367.478 158.26 367.666 157.889 367.802C157.523 367.934 157.101 368 156.622 368H153.253V360.075H154.608V366.887H156.622C157.013 366.887 157.325 366.816 157.56 366.674C157.794 366.533 157.962 366.35 158.065 366.125C158.167 365.9 158.219 365.666 158.219 365.422C158.219 365.183 158.167 364.948 158.065 364.719C157.962 364.489 157.794 364.299 157.56 364.147C157.325 363.991 157.013 363.913 156.622 363.913H154.242V362.8ZM162.401 360.075V368H161.046V360.075H162.401ZM167.945 367.033C168.268 367.033 168.565 366.967 168.839 366.835C169.112 366.704 169.337 366.523 169.513 366.293C169.688 366.059 169.789 365.793 169.813 365.495H171.102C171.078 365.964 170.919 366.401 170.626 366.806C170.338 367.207 169.959 367.531 169.491 367.78C169.022 368.024 168.507 368.146 167.945 368.146C167.35 368.146 166.83 368.042 166.385 367.832C165.946 367.622 165.58 367.333 165.287 366.967C164.999 366.601 164.781 366.181 164.635 365.708C164.493 365.229 164.422 364.724 164.422 364.191V363.884C164.422 363.352 164.493 362.849 164.635 362.375C164.781 361.896 164.999 361.474 165.287 361.108C165.58 360.742 165.946 360.454 166.385 360.244C166.83 360.034 167.35 359.929 167.945 359.929C168.565 359.929 169.107 360.056 169.571 360.31C170.035 360.559 170.399 360.9 170.663 361.335C170.931 361.765 171.078 362.253 171.102 362.8H169.813C169.789 362.473 169.696 362.177 169.535 361.914C169.378 361.65 169.164 361.44 168.89 361.284C168.622 361.123 168.307 361.042 167.945 361.042C167.53 361.042 167.181 361.125 166.898 361.291C166.62 361.452 166.397 361.672 166.231 361.95C166.07 362.224 165.953 362.529 165.88 362.866C165.812 363.198 165.777 363.537 165.777 363.884V364.191C165.777 364.538 165.812 364.88 165.88 365.217C165.948 365.554 166.063 365.859 166.224 366.132C166.39 366.406 166.612 366.625 166.891 366.792C167.174 366.953 167.525 367.033 167.945 367.033ZM180.353 363.012H177.65L177.635 361.877H180.089C180.494 361.877 180.848 361.809 181.151 361.672C181.454 361.535 181.688 361.34 181.854 361.086C182.025 360.827 182.11 360.52 182.11 360.163C182.11 359.772 182.035 359.455 181.883 359.211C181.737 358.962 181.51 358.781 181.202 358.669C180.899 358.552 180.514 358.493 180.045 358.493H177.965V368H176.551V357.336H180.045C180.592 357.336 181.08 357.392 181.51 357.504C181.939 357.612 182.303 357.783 182.601 358.017C182.904 358.247 183.133 358.54 183.29 358.896C183.446 359.252 183.524 359.68 183.524 360.178C183.524 360.617 183.412 361.015 183.187 361.372C182.962 361.723 182.65 362.011 182.25 362.236C181.854 362.46 181.39 362.604 180.858 362.668L180.353 363.012ZM180.287 368H177.093L177.892 366.85H180.287C180.736 366.85 181.117 366.772 181.429 366.616C181.747 366.459 181.988 366.24 182.154 365.957C182.32 365.668 182.403 365.329 182.403 364.938C182.403 364.543 182.333 364.201 182.191 363.913C182.049 363.625 181.827 363.403 181.524 363.247C181.222 363.09 180.831 363.012 180.353 363.012H178.338L178.353 361.877H181.107L181.407 362.287C181.92 362.331 182.354 362.478 182.711 362.727C183.067 362.971 183.338 363.283 183.524 363.664C183.714 364.045 183.81 364.465 183.81 364.924C183.81 365.588 183.663 366.149 183.37 366.608C183.082 367.062 182.674 367.409 182.147 367.648C181.62 367.883 181 368 180.287 368ZM188.98 368.146C188.429 368.146 187.928 368.054 187.479 367.868C187.035 367.678 186.651 367.412 186.329 367.07C186.012 366.728 185.768 366.323 185.597 365.854C185.426 365.385 185.34 364.873 185.34 364.316V364.008C185.34 363.364 185.436 362.79 185.626 362.287C185.816 361.779 186.075 361.35 186.402 360.998C186.729 360.646 187.101 360.38 187.516 360.2C187.931 360.019 188.36 359.929 188.805 359.929C189.371 359.929 189.859 360.026 190.27 360.222C190.685 360.417 191.024 360.69 191.288 361.042C191.551 361.389 191.747 361.799 191.874 362.272C192 362.741 192.064 363.254 192.064 363.811V364.418H186.146V363.312H190.709V363.21C190.689 362.858 190.616 362.517 190.489 362.185C190.367 361.853 190.172 361.579 189.903 361.364C189.635 361.149 189.269 361.042 188.805 361.042C188.497 361.042 188.214 361.108 187.955 361.24C187.696 361.367 187.474 361.557 187.289 361.811C187.103 362.065 186.959 362.375 186.856 362.741C186.754 363.107 186.703 363.53 186.703 364.008V364.316C186.703 364.692 186.754 365.046 186.856 365.378C186.964 365.705 187.118 365.993 187.318 366.242C187.523 366.491 187.77 366.687 188.058 366.828C188.351 366.97 188.683 367.041 189.054 367.041C189.532 367.041 189.938 366.943 190.27 366.748C190.602 366.552 190.892 366.291 191.141 365.964L191.961 366.616C191.791 366.875 191.573 367.121 191.31 367.355C191.046 367.59 190.721 367.78 190.335 367.927C189.955 368.073 189.503 368.146 188.98 368.146ZM198.941 360.075V361.196H195.111V360.075H198.941ZM200.135 360.075V368H198.78V360.075H200.135ZM194.781 360.075H196.144L195.938 363.898C195.904 364.489 195.848 365.012 195.77 365.466C195.697 365.915 195.594 366.301 195.462 366.623C195.335 366.945 195.174 367.209 194.979 367.414C194.789 367.614 194.559 367.763 194.291 367.861C194.022 367.954 193.712 368 193.36 368H192.936V366.806L193.229 366.784C193.438 366.77 193.617 366.721 193.763 366.638C193.915 366.555 194.042 366.433 194.144 366.271C194.247 366.105 194.33 365.893 194.393 365.634C194.461 365.375 194.513 365.068 194.547 364.711C194.586 364.355 194.615 363.94 194.635 363.466L194.781 360.075ZM203.783 365.854L207.438 360.075H208.8V368H207.438V362.221L203.783 368H202.435V360.075H203.783V365.854ZM212.447 360.075V368H211.092V360.075H212.447ZM217.647 360.075L213.89 364.616H211.993L211.788 363.43H213.341L216 360.075H217.647ZM216.19 368L213.275 364.411L214.146 363.43L217.911 368H216.19ZM223.763 366.645V362.565C223.763 362.253 223.7 361.982 223.573 361.752C223.451 361.518 223.265 361.337 223.016 361.21C222.767 361.083 222.459 361.02 222.093 361.02C221.751 361.02 221.451 361.079 221.192 361.196C220.938 361.313 220.738 361.467 220.592 361.657C220.45 361.848 220.379 362.053 220.379 362.272H219.024C219.024 361.989 219.098 361.708 219.244 361.43C219.391 361.152 219.601 360.9 219.874 360.676C220.152 360.446 220.484 360.266 220.87 360.134C221.261 359.997 221.695 359.929 222.174 359.929C222.75 359.929 223.258 360.026 223.697 360.222C224.142 360.417 224.488 360.712 224.737 361.108C224.991 361.499 225.118 361.989 225.118 362.58V366.271C225.118 366.535 225.14 366.816 225.184 367.114C225.233 367.412 225.304 367.668 225.396 367.883V368H223.983C223.915 367.844 223.861 367.636 223.822 367.377C223.783 367.114 223.763 366.87 223.763 366.645ZM223.998 363.195L224.012 364.147H222.643C222.257 364.147 221.913 364.179 221.61 364.243C221.307 364.301 221.053 364.392 220.848 364.514C220.643 364.636 220.487 364.79 220.379 364.975C220.272 365.156 220.218 365.368 220.218 365.612C220.218 365.861 220.274 366.088 220.387 366.293C220.499 366.499 220.667 366.662 220.892 366.784C221.122 366.901 221.402 366.96 221.734 366.96C222.149 366.96 222.516 366.872 222.833 366.696C223.15 366.521 223.402 366.306 223.587 366.052C223.778 365.798 223.88 365.551 223.895 365.312L224.474 365.964C224.439 366.169 224.347 366.396 224.195 366.645C224.044 366.894 223.841 367.133 223.587 367.363C223.338 367.587 223.041 367.775 222.694 367.927C222.352 368.073 221.966 368.146 221.537 368.146C221 368.146 220.528 368.042 220.123 367.832C219.723 367.622 219.41 367.341 219.186 366.989C218.966 366.633 218.856 366.235 218.856 365.795C218.856 365.371 218.939 364.997 219.105 364.675C219.271 364.348 219.51 364.077 219.823 363.862C220.135 363.642 220.511 363.476 220.951 363.364C221.39 363.251 221.881 363.195 222.423 363.195H223.998ZM232.625 363.51V364.609H228.436V363.51H232.625ZM228.722 360.075V368H227.367V360.075H228.722ZM233.724 360.075V368H232.362V360.075H233.724Z" fill="white"/>
<path d="M303.338 145.911C304.942 153.679 309.114 169.418 312.964 170.229" stroke="#6F6F6F" stroke-width="2"/>
<circle cx="239" cy="182" r="4" fill="#FF6C01"/>
<circle cx="303.031" cy="146.871" r="4" fill="#FF6C01"/>
<circle cx="314.178" cy="171.189" r="4" fill="#6F6F6F"/>
<path d="M212.904 319.686C215.775 321.206 222.125 323.942 224.557 322.726" stroke="white" stroke-width="2"/>
<path d="M237.221 183.402L199.984 216.839L204.29 236.092L199.984 256.104L192.891 276.369L204.29 297.141L206.316 307.274C209.863 307.612 215.689 310.82 211.636 318.926" stroke="white" stroke-width="1.5199"/>
<path d="M211.637 321.459C212.482 323.57 213.664 328.4 211.637 330.832C209.611 333.264 207.584 335.223 206.824 335.899L198.211 340.712L190.865 344.765" stroke="#828282" stroke-width="2"/>
<path d="M237.221 183.402L199.984 216.839L204.29 236.092L199.984 256.104L192.891 276.369L204.29 297.141L206.316 307.274C209.863 307.612 215.689 310.82 211.636 318.926" stroke="#FF6C01" stroke-width="2"/>
<path d="M199.984 216.84L237.222 183.402C255.292 171.496 293.56 147.38 302.071 146.164" stroke="#FF6C01" stroke-width="1.5199"/>
<circle cx="212.85" cy="320.646" r="4" fill="#FF6C01"/>
<circle cx="190.559" cy="345.978" r="4" fill="#828282"/>
<circle cx="227.037" cy="323.686" r="4" fill="white"/>
</svg>
