<svg width="756" height="405" viewBox="0 0 756 405" fill="none" xmlns="http://www.w3.org/2000/svg">
<circle cx="749.168" cy="39.375" r="6" fill="white"/>
<circle cx="455.668" cy="146.875" r="5.5" fill="white"/>
<circle cx="574.5" cy="139.5" r="5.5" fill="white"/>
<circle cx="87.668" cy="361.875" r="5.5" fill="#FF6C01"/>
<circle cx="124.5" cy="353.5" r="5.5" fill="#FF6C01"/>
<circle cx="235.668" cy="295.875" r="5.5" fill="#FF6C01"/>
<circle cx="289.5" cy="287.5" r="5.5" fill="#FF6C01"/>
<circle cx="193.668" cy="306.875" r="5.5" fill="#FF6C01"/>
<path d="M749.168 38.875C743.835 46.875 732.268 63.075 728.668 63.875C725.068 64.675 716.168 66.2083 712.168 66.875C702.668 73.5417 682.068 88.375 675.668 94.375C667.668 101.875 670.668 117.375 601.668 129.375L577.168 139.875L515.668 147.875L476.668 158.875C478.001 163.708 478.168 171.575 468.168 164.375C466.591 163.114 463.485 162.106 459.168 163.003M87.668 361.875C104.868 365.475 121.168 356.708 127.168 351.875C143.835 333.875 189.368 297.475 238.168 295.875C286.968 294.275 290.835 291.542 286.668 290.375C292.268 281.575 301.668 279.375 305.668 279.375L326.668 285.375L331.668 283.375L336.668 263.875L361.168 246.875C379.668 188.375 423.168 194.375 440.668 175.375C448.045 167.365 454.358 164.002 459.168 163.003M459.168 163.003L448.168 156.375C446.668 154.208 445.768 149.475 454.168 147.875" stroke="white" stroke-width="3"/>
<path d="M468.168 164.375C466.591 163.114 463.485 162.106 459.168 163.003C454.358 164.002 448.045 167.365 440.668 175.375C423.168 194.375 379.668 188.375 361.168 246.875L336.668 263.875L331.668 283.375L326.668 285.375L305.668 279.375C301.668 279.375 292.268 281.575 286.668 290.375C290.835 291.542 286.968 294.275 238.168 295.875C189.368 297.475 143.835 333.875 127.168 351.875C121.168 356.708 104.868 365.475 87.668 361.875" stroke="#FF6C01" stroke-width="3"/>
<path d="M336.668 263.875L361.168 246.875C365.663 232.662 371.633 222.257 378.347 214.375M87.668 361.875C104.868 365.475 121.168 356.708 127.168 351.875C133.722 344.796 144.741 334.872 158.668 325.337" stroke="#FF6C01" stroke-width="3"/>
<circle cx="339.668" cy="261.875" r="5.5" fill="#FF6C01"/>
<circle cx="392.5" cy="201.5" r="5.5" fill="#FF6C01"/>
<circle cx="468.5" cy="163.5" r="5.5" fill="#FF6C01"/>
<path d="M3.47266 387.578V400.375H1.77637V387.578H3.47266ZM6.4082 393.44V394.776H3.36719V393.44H6.4082ZM15.5928 393.572V394.381C15.5928 395.342 15.4727 396.203 15.2324 396.965C14.9922 397.727 14.6465 398.374 14.1953 398.907C13.7441 399.44 13.2021 399.848 12.5693 400.129C11.9424 400.41 11.2393 400.551 10.46 400.551C9.7041 400.551 9.00977 400.41 8.37695 400.129C7.75 399.848 7.20508 399.44 6.74219 398.907C6.28516 398.374 5.93066 397.727 5.67871 396.965C5.42676 396.203 5.30078 395.342 5.30078 394.381V393.572C5.30078 392.611 5.42383 391.753 5.66992 390.997C5.92188 390.235 6.27637 389.588 6.7334 389.055C7.19043 388.516 7.73242 388.105 8.35938 387.824C8.99219 387.543 9.68652 387.402 10.4424 387.402C11.2217 387.402 11.9248 387.543 12.5518 387.824C13.1846 388.105 13.7266 388.516 14.1777 389.055C14.6348 389.588 14.9834 390.235 15.2236 390.997C15.4697 391.753 15.5928 392.611 15.5928 393.572ZM13.9141 394.381V393.555C13.9141 392.793 13.835 392.119 13.6768 391.533C13.5244 390.947 13.2988 390.455 13 390.057C12.7012 389.658 12.335 389.356 11.9014 389.151C11.4736 388.946 10.9873 388.844 10.4424 388.844C9.91504 388.844 9.4375 388.946 9.00977 389.151C8.58789 389.356 8.22461 389.658 7.91992 390.057C7.62109 390.455 7.38965 390.947 7.22559 391.533C7.06152 392.119 6.97949 392.793 6.97949 393.555V394.381C6.97949 395.148 7.06152 395.828 7.22559 396.42C7.38965 397.006 7.62402 397.501 7.92871 397.905C8.23926 398.304 8.60547 398.605 9.02734 398.811C9.45508 399.016 9.93262 399.118 10.46 399.118C11.0107 399.118 11.5 399.016 11.9277 398.811C12.3555 398.605 12.7158 398.304 13.0088 397.905C13.3076 397.501 13.5332 397.006 13.6855 396.42C13.8379 395.828 13.9141 395.148 13.9141 394.381ZM20.3916 396.235L16.7881 390.865H18.748L21.209 394.803H23.1074L22.8701 396.235H20.3916ZM21.2793 396.068L18.5195 400.375H16.4629L20.251 394.891L21.2793 396.068ZM23.9424 390.865V400.375H22.3164V390.865H23.9424ZM29.4883 390.865L25.8848 396.235H23.4062L23.1514 394.803H25.0586L27.5195 390.865H29.4883ZM27.748 400.375L24.9795 396.068L26.0254 394.891L29.8047 400.375H27.748ZM37.7588 394.987V396.306H32.7314V394.987H37.7588ZM33.0742 390.865V400.375H31.4482V390.865H33.0742ZM39.0771 390.865V400.375H37.4424V390.865H39.0771ZM41.2656 395.726V395.523C41.2656 394.838 41.3652 394.202 41.5645 393.616C41.7637 393.024 42.0508 392.512 42.4258 392.078C42.8008 391.639 43.2549 391.299 43.7881 391.059C44.3213 390.812 44.9189 390.689 45.5811 390.689C46.249 390.689 46.8496 390.812 47.3828 391.059C47.9219 391.299 48.3789 391.639 48.7539 392.078C49.1348 392.512 49.4248 393.024 49.624 393.616C49.8232 394.202 49.9229 394.838 49.9229 395.523V395.726C49.9229 396.411 49.8232 397.047 49.624 397.633C49.4248 398.219 49.1348 398.731 48.7539 399.171C48.3789 399.604 47.9248 399.944 47.3916 400.19C46.8643 400.431 46.2666 400.551 45.5986 400.551C44.9307 400.551 44.3301 400.431 43.7969 400.19C43.2637 399.944 42.8066 399.604 42.4258 399.171C42.0508 398.731 41.7637 398.219 41.5645 397.633C41.3652 397.047 41.2656 396.411 41.2656 395.726ZM42.8916 395.523V395.726C42.8916 396.2 42.9473 396.648 43.0586 397.07C43.1699 397.486 43.3369 397.855 43.5596 398.178C43.7881 398.5 44.0723 398.755 44.4121 398.942C44.752 399.124 45.1475 399.215 45.5986 399.215C46.0439 399.215 46.4336 399.124 46.7676 398.942C47.1074 398.755 47.3887 398.5 47.6113 398.178C47.834 397.855 48.001 397.486 48.1123 397.07C48.2295 396.648 48.2881 396.2 48.2881 395.726V395.523C48.2881 395.055 48.2295 394.612 48.1123 394.196C48.001 393.774 47.8311 393.402 47.6025 393.08C47.3799 392.752 47.0986 392.494 46.7588 392.307C46.4248 392.119 46.0322 392.025 45.5811 392.025C45.1357 392.025 44.7432 392.119 44.4033 392.307C44.0693 392.494 43.7881 392.752 43.5596 393.08C43.3369 393.402 43.1699 393.774 43.0586 394.196C42.9473 394.612 42.8916 395.055 42.8916 395.523ZM55.3457 394.267V395.603H51.0566V394.267H55.3457ZM64.9082 396.306H66.5957C66.5078 397.114 66.2764 397.838 65.9014 398.477C65.5264 399.115 64.9961 399.622 64.3105 399.997C63.625 400.366 62.7695 400.551 61.7441 400.551C60.9941 400.551 60.3115 400.41 59.6963 400.129C59.0869 399.848 58.5625 399.449 58.123 398.934C57.6836 398.412 57.3438 397.788 57.1035 397.062C56.8691 396.329 56.752 395.515 56.752 394.618V393.344C56.752 392.447 56.8691 391.636 57.1035 390.909C57.3438 390.177 57.6865 389.55 58.1318 389.028C58.583 388.507 59.125 388.105 59.7578 387.824C60.3906 387.543 61.1025 387.402 61.8936 387.402C62.8604 387.402 63.6777 387.584 64.3457 387.947C65.0137 388.311 65.5322 388.814 65.9014 389.459C66.2764 390.098 66.5078 390.839 66.5957 391.683H64.9082C64.8262 391.085 64.6738 390.572 64.4512 390.145C64.2285 389.711 63.9121 389.377 63.502 389.143C63.0918 388.908 62.5557 388.791 61.8936 388.791C61.3252 388.791 60.8242 388.899 60.3906 389.116C59.9629 389.333 59.6025 389.641 59.3096 390.039C59.0225 390.438 58.8057 390.915 58.6592 391.472C58.5127 392.028 58.4395 392.646 58.4395 393.326V394.618C58.4395 395.245 58.5039 395.834 58.6328 396.385C58.7676 396.936 58.9697 397.419 59.2393 397.835C59.5088 398.251 59.8516 398.579 60.2676 398.819C60.6836 399.054 61.1758 399.171 61.7441 399.171C62.4648 399.171 63.0391 399.057 63.4668 398.828C63.8945 398.6 64.2168 398.271 64.4336 397.844C64.6562 397.416 64.8145 396.903 64.9082 396.306ZM74.2686 398.749V393.854C74.2686 393.479 74.1924 393.153 74.04 392.878C73.8936 392.597 73.6709 392.38 73.3721 392.228C73.0732 392.075 72.7041 391.999 72.2646 391.999C71.8545 391.999 71.4941 392.069 71.1836 392.21C70.8789 392.351 70.6387 392.535 70.4629 392.764C70.293 392.992 70.208 393.238 70.208 393.502H68.582C68.582 393.162 68.6699 392.825 68.8457 392.491C69.0215 392.157 69.2734 391.855 69.6016 391.586C69.9355 391.311 70.334 391.094 70.7969 390.936C71.2656 390.771 71.7871 390.689 72.3613 390.689C73.0527 390.689 73.6621 390.807 74.1895 391.041C74.7227 391.275 75.1387 391.63 75.4375 392.104C75.7422 392.573 75.8945 393.162 75.8945 393.871V398.301C75.8945 398.617 75.9209 398.954 75.9736 399.312C76.0322 399.669 76.1172 399.977 76.2285 400.234V400.375H74.5322C74.4502 400.188 74.3857 399.938 74.3389 399.628C74.292 399.312 74.2686 399.019 74.2686 398.749ZM74.5498 394.609L74.5674 395.752H72.9238C72.4609 395.752 72.0479 395.79 71.6846 395.866C71.3213 395.937 71.0166 396.045 70.7705 396.191C70.5244 396.338 70.3369 396.522 70.208 396.745C70.0791 396.962 70.0146 397.217 70.0146 397.51C70.0146 397.809 70.082 398.081 70.2168 398.327C70.3516 398.573 70.5537 398.77 70.8232 398.916C71.0986 399.057 71.4355 399.127 71.834 399.127C72.332 399.127 72.7715 399.021 73.1523 398.811C73.5332 398.6 73.835 398.342 74.0576 398.037C74.2861 397.732 74.4092 397.437 74.4268 397.149L75.1211 397.932C75.0801 398.178 74.9688 398.45 74.7871 398.749C74.6055 399.048 74.3623 399.335 74.0576 399.61C73.7588 399.88 73.4014 400.105 72.9854 400.287C72.5752 400.463 72.1123 400.551 71.5967 400.551C70.9521 400.551 70.3867 400.425 69.9004 400.173C69.4199 399.921 69.0449 399.584 68.7754 399.162C68.5117 398.734 68.3799 398.257 68.3799 397.729C68.3799 397.22 68.4795 396.771 68.6787 396.385C68.8779 395.992 69.165 395.667 69.54 395.409C69.915 395.146 70.3662 394.946 70.8936 394.812C71.4209 394.677 72.0098 394.609 72.6602 394.609H74.5498ZM79.5508 390.865L81.6338 394.328L83.7432 390.865H85.6504L82.5391 395.559L85.7471 400.375H83.8662L81.6689 396.807L79.4717 400.375H77.582L80.7812 395.559L77.6787 390.865H79.5508ZM92.9893 398.749V393.854C92.9893 393.479 92.9131 393.153 92.7607 392.878C92.6143 392.597 92.3916 392.38 92.0928 392.228C91.7939 392.075 91.4248 391.999 90.9854 391.999C90.5752 391.999 90.2148 392.069 89.9043 392.21C89.5996 392.351 89.3594 392.535 89.1836 392.764C89.0137 392.992 88.9287 393.238 88.9287 393.502H87.3027C87.3027 393.162 87.3906 392.825 87.5664 392.491C87.7422 392.157 87.9941 391.855 88.3223 391.586C88.6562 391.311 89.0547 391.094 89.5176 390.936C89.9863 390.771 90.5078 390.689 91.082 390.689C91.7734 390.689 92.3828 390.807 92.9102 391.041C93.4434 391.275 93.8594 391.63 94.1582 392.104C94.4629 392.573 94.6152 393.162 94.6152 393.871V398.301C94.6152 398.617 94.6416 398.954 94.6943 399.312C94.7529 399.669 94.8379 399.977 94.9492 400.234V400.375H93.2529C93.1709 400.188 93.1064 399.938 93.0596 399.628C93.0127 399.312 92.9893 399.019 92.9893 398.749ZM93.2705 394.609L93.2881 395.752H91.6445C91.1816 395.752 90.7686 395.79 90.4053 395.866C90.042 395.937 89.7373 396.045 89.4912 396.191C89.2451 396.338 89.0576 396.522 88.9287 396.745C88.7998 396.962 88.7354 397.217 88.7354 397.51C88.7354 397.809 88.8027 398.081 88.9375 398.327C89.0723 398.573 89.2744 398.77 89.5439 398.916C89.8193 399.057 90.1562 399.127 90.5547 399.127C91.0527 399.127 91.4922 399.021 91.873 398.811C92.2539 398.6 92.5557 398.342 92.7783 398.037C93.0068 397.732 93.1299 397.437 93.1475 397.149L93.8418 397.932C93.8008 398.178 93.6895 398.45 93.5078 398.749C93.3262 399.048 93.083 399.335 92.7783 399.61C92.4795 399.88 92.1221 400.105 91.7061 400.287C91.2959 400.463 90.833 400.551 90.3174 400.551C89.6729 400.551 89.1074 400.425 88.6211 400.173C88.1406 399.921 87.7656 399.584 87.4961 399.162C87.2324 398.734 87.1006 398.257 87.1006 397.729C87.1006 397.22 87.2002 396.771 87.3994 396.385C87.5986 395.992 87.8857 395.667 88.2607 395.409C88.6357 395.146 89.0869 394.946 89.6143 394.812C90.1416 394.677 90.7305 394.609 91.3809 394.609H93.2705ZM103.527 390.865V392.21H98.9307V390.865H103.527ZM104.96 390.865V400.375H103.334V390.865H104.96ZM98.5352 390.865H100.17L99.9238 395.453C99.8828 396.162 99.8154 396.789 99.7217 397.334C99.6338 397.873 99.5107 398.336 99.3525 398.723C99.2002 399.109 99.0068 399.426 98.7725 399.672C98.5439 399.912 98.2686 400.091 97.9463 400.208C97.624 400.319 97.252 400.375 96.8301 400.375H96.3203V398.942L96.6719 398.916C96.9238 398.898 97.1377 398.84 97.3135 398.74C97.4951 398.641 97.6475 398.494 97.7705 398.301C97.8936 398.102 97.9932 397.847 98.0693 397.536C98.1514 397.226 98.2129 396.856 98.2539 396.429C98.3008 396.001 98.3359 395.503 98.3594 394.935L98.5352 390.865ZM109.337 397.8L113.723 390.865H115.357V400.375H113.723V393.44L109.337 400.375H107.72V390.865H109.337V397.8ZM124.419 394.987V396.306H119.392V394.987H124.419ZM119.734 390.865V400.375H118.108V390.865H119.734ZM125.737 390.865V400.375H124.103V390.865H125.737ZM132.162 399.215C132.549 399.215 132.906 399.136 133.234 398.978C133.562 398.819 133.832 398.603 134.043 398.327C134.254 398.046 134.374 397.727 134.403 397.369H135.95C135.921 397.932 135.73 398.456 135.379 398.942C135.033 399.423 134.579 399.812 134.017 400.111C133.454 400.404 132.836 400.551 132.162 400.551C131.447 400.551 130.823 400.425 130.29 400.173C129.763 399.921 129.323 399.575 128.972 399.136C128.626 398.696 128.365 398.192 128.189 397.624C128.02 397.05 127.935 396.443 127.935 395.805V395.436C127.935 394.797 128.02 394.193 128.189 393.625C128.365 393.051 128.626 392.544 128.972 392.104C129.323 391.665 129.763 391.319 130.29 391.067C130.823 390.815 131.447 390.689 132.162 390.689C132.906 390.689 133.557 390.842 134.113 391.146C134.67 391.445 135.106 391.855 135.423 392.377C135.745 392.893 135.921 393.479 135.95 394.135H134.403C134.374 393.742 134.263 393.388 134.069 393.071C133.882 392.755 133.624 392.503 133.296 392.315C132.974 392.122 132.596 392.025 132.162 392.025C131.664 392.025 131.245 392.125 130.905 392.324C130.571 392.518 130.305 392.781 130.105 393.115C129.912 393.443 129.771 393.81 129.684 394.214C129.602 394.612 129.561 395.02 129.561 395.436V395.805C129.561 396.221 129.602 396.631 129.684 397.035C129.766 397.439 129.903 397.806 130.097 398.134C130.296 398.462 130.562 398.726 130.896 398.925C131.236 399.118 131.658 399.215 132.162 399.215ZM139.545 390.865V400.375H137.919V390.865H139.545ZM145.785 390.865L141.276 396.314H139L138.754 394.891H140.617L143.808 390.865H145.785ZM144.036 400.375L140.538 396.068L141.584 394.891L146.102 400.375H144.036Z" fill="white"/>
<path d="M318.223 115.337L313.986 127H312.255L317.133 114.203H318.249L318.223 115.337ZM321.773 127L317.528 115.337L317.502 114.203H318.618L323.514 127H321.773ZM321.554 122.263V123.651H314.364V122.263H321.554ZM331.494 117.49V118.835H326.897V117.49H331.494ZM332.927 117.49V127H331.301V117.49H332.927ZM326.502 117.49H328.137L327.891 122.078C327.85 122.787 327.782 123.414 327.688 123.959C327.601 124.498 327.478 124.961 327.319 125.348C327.167 125.734 326.974 126.051 326.739 126.297C326.511 126.537 326.235 126.716 325.913 126.833C325.591 126.944 325.219 127 324.797 127H324.287V125.567L324.639 125.541C324.891 125.523 325.104 125.465 325.28 125.365C325.462 125.266 325.614 125.119 325.737 124.926C325.86 124.727 325.96 124.472 326.036 124.161C326.118 123.851 326.18 123.481 326.221 123.054C326.268 122.626 326.303 122.128 326.326 121.56L326.502 117.49ZM339.492 127.176C338.83 127.176 338.229 127.064 337.69 126.842C337.157 126.613 336.697 126.294 336.311 125.884C335.93 125.474 335.637 124.987 335.432 124.425C335.227 123.862 335.124 123.247 335.124 122.579V122.21C335.124 121.437 335.238 120.748 335.467 120.145C335.695 119.535 336.006 119.02 336.398 118.598C336.791 118.176 337.236 117.856 337.734 117.64C338.232 117.423 338.748 117.314 339.281 117.314C339.961 117.314 340.547 117.432 341.039 117.666C341.537 117.9 341.944 118.229 342.261 118.65C342.577 119.066 342.812 119.559 342.964 120.127C343.116 120.689 343.192 121.305 343.192 121.973V122.702H336.091V121.375H341.566V121.252C341.543 120.83 341.455 120.42 341.303 120.021C341.156 119.623 340.922 119.295 340.6 119.037C340.277 118.779 339.838 118.65 339.281 118.65C338.912 118.65 338.572 118.729 338.262 118.888C337.951 119.04 337.685 119.269 337.462 119.573C337.239 119.878 337.066 120.25 336.943 120.689C336.82 121.129 336.759 121.636 336.759 122.21V122.579C336.759 123.03 336.82 123.455 336.943 123.854C337.072 124.246 337.257 124.592 337.497 124.891C337.743 125.189 338.039 125.424 338.385 125.594C338.736 125.764 339.135 125.849 339.58 125.849C340.154 125.849 340.641 125.731 341.039 125.497C341.438 125.263 341.786 124.949 342.085 124.557L343.069 125.339C342.864 125.649 342.604 125.945 342.287 126.227C341.971 126.508 341.581 126.736 341.118 126.912C340.661 127.088 340.119 127.176 339.492 127.176ZM346.857 117.49V127H345.231V117.49H346.857ZM353.098 117.49L348.589 122.939H346.312L346.066 121.516H347.93L351.12 117.49H353.098ZM351.349 127L347.851 122.693L348.896 121.516L353.414 127H351.349ZM358.494 125.84C358.881 125.84 359.238 125.761 359.566 125.603C359.895 125.444 360.164 125.228 360.375 124.952C360.586 124.671 360.706 124.352 360.735 123.994H362.282C362.253 124.557 362.062 125.081 361.711 125.567C361.365 126.048 360.911 126.438 360.349 126.736C359.786 127.029 359.168 127.176 358.494 127.176C357.779 127.176 357.155 127.05 356.622 126.798C356.095 126.546 355.655 126.2 355.304 125.761C354.958 125.321 354.697 124.817 354.521 124.249C354.352 123.675 354.267 123.068 354.267 122.43V122.061C354.267 121.422 354.352 120.818 354.521 120.25C354.697 119.676 354.958 119.169 355.304 118.729C355.655 118.29 356.095 117.944 356.622 117.692C357.155 117.44 357.779 117.314 358.494 117.314C359.238 117.314 359.889 117.467 360.445 117.771C361.002 118.07 361.438 118.48 361.755 119.002C362.077 119.518 362.253 120.104 362.282 120.76H360.735C360.706 120.367 360.595 120.013 360.401 119.696C360.214 119.38 359.956 119.128 359.628 118.94C359.306 118.747 358.928 118.65 358.494 118.65C357.996 118.65 357.577 118.75 357.237 118.949C356.903 119.143 356.637 119.406 356.438 119.74C356.244 120.068 356.104 120.435 356.016 120.839C355.934 121.237 355.893 121.645 355.893 122.061V122.43C355.893 122.846 355.934 123.256 356.016 123.66C356.098 124.064 356.235 124.431 356.429 124.759C356.628 125.087 356.895 125.351 357.229 125.55C357.568 125.743 357.99 125.84 358.494 125.84ZM369.718 125.374V120.479C369.718 120.104 369.642 119.778 369.489 119.503C369.343 119.222 369.12 119.005 368.821 118.853C368.522 118.7 368.153 118.624 367.714 118.624C367.304 118.624 366.943 118.694 366.633 118.835C366.328 118.976 366.088 119.16 365.912 119.389C365.742 119.617 365.657 119.863 365.657 120.127H364.031C364.031 119.787 364.119 119.45 364.295 119.116C364.471 118.782 364.723 118.48 365.051 118.211C365.385 117.936 365.783 117.719 366.246 117.561C366.715 117.396 367.236 117.314 367.811 117.314C368.502 117.314 369.111 117.432 369.639 117.666C370.172 117.9 370.588 118.255 370.887 118.729C371.191 119.198 371.344 119.787 371.344 120.496V124.926C371.344 125.242 371.37 125.579 371.423 125.937C371.481 126.294 371.566 126.602 371.678 126.859V127H369.981C369.899 126.812 369.835 126.563 369.788 126.253C369.741 125.937 369.718 125.644 369.718 125.374ZM369.999 121.234L370.017 122.377H368.373C367.91 122.377 367.497 122.415 367.134 122.491C366.771 122.562 366.466 122.67 366.22 122.816C365.974 122.963 365.786 123.147 365.657 123.37C365.528 123.587 365.464 123.842 365.464 124.135C365.464 124.434 365.531 124.706 365.666 124.952C365.801 125.198 366.003 125.395 366.272 125.541C366.548 125.682 366.885 125.752 367.283 125.752C367.781 125.752 368.221 125.646 368.602 125.436C368.982 125.225 369.284 124.967 369.507 124.662C369.735 124.357 369.858 124.062 369.876 123.774L370.57 124.557C370.529 124.803 370.418 125.075 370.236 125.374C370.055 125.673 369.812 125.96 369.507 126.235C369.208 126.505 368.851 126.73 368.435 126.912C368.024 127.088 367.562 127.176 367.046 127.176C366.401 127.176 365.836 127.05 365.35 126.798C364.869 126.546 364.494 126.209 364.225 125.787C363.961 125.359 363.829 124.882 363.829 124.354C363.829 123.845 363.929 123.396 364.128 123.01C364.327 122.617 364.614 122.292 364.989 122.034C365.364 121.771 365.815 121.571 366.343 121.437C366.87 121.302 367.459 121.234 368.109 121.234H369.999ZM380.353 121.612V122.931H375.325V121.612H380.353ZM375.668 117.49V127H374.042V117.49H375.668ZM381.671 117.49V127H380.036V117.49H381.671ZM386.004 117.49H387.63L387.489 121.05C387.454 121.952 387.352 122.731 387.182 123.388C387.012 124.044 386.795 124.604 386.531 125.066C386.268 125.523 385.972 125.907 385.644 126.218C385.321 126.528 384.987 126.789 384.642 127H383.833L383.877 125.673L384.211 125.664C384.404 125.436 384.592 125.201 384.773 124.961C384.955 124.715 385.122 124.425 385.274 124.091C385.427 123.751 385.553 123.338 385.652 122.852C385.758 122.359 385.825 121.759 385.854 121.05L386.004 117.49ZM386.408 117.49H392.13V127H390.504V118.993H386.408V117.49ZM383.464 125.664H393.352V129.804H391.726V127H385.09V129.804H383.455L383.464 125.664ZM396.779 119.318V130.656H395.145V117.49H396.639L396.779 119.318ZM403.187 122.166V122.351C403.187 123.042 403.104 123.684 402.94 124.275C402.776 124.861 402.536 125.371 402.22 125.805C401.909 126.238 401.525 126.575 401.068 126.815C400.611 127.056 400.087 127.176 399.495 127.176C398.892 127.176 398.358 127.076 397.896 126.877C397.433 126.678 397.04 126.388 396.718 126.007C396.396 125.626 396.138 125.169 395.944 124.636C395.757 124.103 395.628 123.502 395.558 122.834V121.85C395.628 121.146 395.76 120.517 395.953 119.96C396.146 119.403 396.401 118.929 396.718 118.536C397.04 118.138 397.43 117.836 397.887 117.631C398.344 117.42 398.871 117.314 399.469 117.314C400.066 117.314 400.597 117.432 401.06 117.666C401.522 117.895 401.912 118.223 402.229 118.65C402.545 119.078 402.782 119.591 402.94 120.188C403.104 120.78 403.187 121.439 403.187 122.166ZM401.552 122.351V122.166C401.552 121.691 401.502 121.246 401.402 120.83C401.303 120.408 401.147 120.039 400.937 119.723C400.731 119.4 400.468 119.148 400.146 118.967C399.823 118.779 399.439 118.686 398.994 118.686C398.584 118.686 398.227 118.756 397.922 118.896C397.623 119.037 397.368 119.228 397.157 119.468C396.946 119.702 396.773 119.972 396.639 120.276C396.51 120.575 396.413 120.886 396.349 121.208V123.484C396.466 123.895 396.63 124.281 396.841 124.645C397.052 125.002 397.333 125.292 397.685 125.515C398.036 125.731 398.479 125.84 399.012 125.84C399.451 125.84 399.829 125.749 400.146 125.567C400.468 125.38 400.731 125.125 400.937 124.803C401.147 124.48 401.303 124.111 401.402 123.695C401.502 123.273 401.552 122.825 401.552 122.351ZM404.83 122.351V122.148C404.83 121.463 404.93 120.827 405.129 120.241C405.328 119.649 405.615 119.137 405.99 118.703C406.365 118.264 406.819 117.924 407.353 117.684C407.886 117.438 408.483 117.314 409.146 117.314C409.813 117.314 410.414 117.438 410.947 117.684C411.486 117.924 411.943 118.264 412.318 118.703C412.699 119.137 412.989 119.649 413.188 120.241C413.388 120.827 413.487 121.463 413.487 122.148V122.351C413.487 123.036 413.388 123.672 413.188 124.258C412.989 124.844 412.699 125.356 412.318 125.796C411.943 126.229 411.489 126.569 410.956 126.815C410.429 127.056 409.831 127.176 409.163 127.176C408.495 127.176 407.895 127.056 407.361 126.815C406.828 126.569 406.371 126.229 405.99 125.796C405.615 125.356 405.328 124.844 405.129 124.258C404.93 123.672 404.83 123.036 404.83 122.351ZM406.456 122.148V122.351C406.456 122.825 406.512 123.273 406.623 123.695C406.734 124.111 406.901 124.48 407.124 124.803C407.353 125.125 407.637 125.38 407.977 125.567C408.316 125.749 408.712 125.84 409.163 125.84C409.608 125.84 409.998 125.749 410.332 125.567C410.672 125.38 410.953 125.125 411.176 124.803C411.398 124.48 411.565 124.111 411.677 123.695C411.794 123.273 411.853 122.825 411.853 122.351V122.148C411.853 121.68 411.794 121.237 411.677 120.821C411.565 120.399 411.396 120.027 411.167 119.705C410.944 119.377 410.663 119.119 410.323 118.932C409.989 118.744 409.597 118.65 409.146 118.65C408.7 118.65 408.308 118.744 407.968 118.932C407.634 119.119 407.353 119.377 407.124 119.705C406.901 120.027 406.734 120.399 406.623 120.821C406.512 121.237 406.456 121.68 406.456 122.148ZM419.991 122.816H416.871L416.854 121.516H419.402C419.906 121.516 420.325 121.466 420.659 121.366C420.999 121.267 421.254 121.117 421.424 120.918C421.594 120.719 421.679 120.473 421.679 120.18C421.679 119.951 421.629 119.752 421.529 119.582C421.436 119.406 421.292 119.263 421.099 119.151C420.905 119.034 420.665 118.949 420.378 118.896C420.097 118.838 419.766 118.809 419.385 118.809H417.302V127H415.676V117.49H419.385C419.988 117.49 420.53 117.543 421.011 117.648C421.497 117.754 421.91 117.915 422.25 118.132C422.596 118.343 422.859 118.612 423.041 118.94C423.223 119.269 423.313 119.655 423.313 120.101C423.313 120.388 423.255 120.66 423.138 120.918C423.021 121.176 422.848 121.404 422.619 121.604C422.391 121.803 422.109 121.967 421.775 122.096C421.441 122.219 421.058 122.298 420.624 122.333L419.991 122.816ZM419.991 127H416.282L417.091 125.682H419.991C420.442 125.682 420.817 125.626 421.116 125.515C421.415 125.397 421.638 125.233 421.784 125.022C421.937 124.806 422.013 124.548 422.013 124.249C422.013 123.95 421.937 123.695 421.784 123.484C421.638 123.268 421.415 123.104 421.116 122.992C420.817 122.875 420.442 122.816 419.991 122.816H417.521L417.539 121.516H420.624L421.213 122.008C421.734 122.049 422.177 122.178 422.54 122.395C422.903 122.611 423.179 122.887 423.366 123.221C423.554 123.549 423.647 123.906 423.647 124.293C423.647 124.738 423.562 125.131 423.393 125.471C423.229 125.811 422.988 126.095 422.672 126.323C422.355 126.546 421.972 126.716 421.521 126.833C421.069 126.944 420.56 127 419.991 127ZM429.633 125.84C430.02 125.84 430.377 125.761 430.705 125.603C431.033 125.444 431.303 125.228 431.514 124.952C431.725 124.671 431.845 124.352 431.874 123.994H433.421C433.392 124.557 433.201 125.081 432.85 125.567C432.504 126.048 432.05 126.438 431.487 126.736C430.925 127.029 430.307 127.176 429.633 127.176C428.918 127.176 428.294 127.05 427.761 126.798C427.233 126.546 426.794 126.2 426.442 125.761C426.097 125.321 425.836 124.817 425.66 124.249C425.49 123.675 425.405 123.068 425.405 122.43V122.061C425.405 121.422 425.49 120.818 425.66 120.25C425.836 119.676 426.097 119.169 426.442 118.729C426.794 118.29 427.233 117.944 427.761 117.692C428.294 117.44 428.918 117.314 429.633 117.314C430.377 117.314 431.027 117.467 431.584 117.771C432.141 118.07 432.577 118.48 432.894 119.002C433.216 119.518 433.392 120.104 433.421 120.76H431.874C431.845 120.367 431.733 120.013 431.54 119.696C431.353 119.38 431.095 119.128 430.767 118.94C430.444 118.747 430.066 118.65 429.633 118.65C429.135 118.65 428.716 118.75 428.376 118.949C428.042 119.143 427.775 119.406 427.576 119.74C427.383 120.068 427.242 120.435 427.154 120.839C427.072 121.237 427.031 121.645 427.031 122.061V122.43C427.031 122.846 427.072 123.256 427.154 123.66C427.236 124.064 427.374 124.431 427.567 124.759C427.767 125.087 428.033 125.351 428.367 125.55C428.707 125.743 429.129 125.84 429.633 125.84ZM437.016 117.49V127H435.39V117.49H437.016ZM443.256 117.49L438.747 122.939H436.471L436.225 121.516H438.088L441.278 117.49H443.256ZM441.507 127L438.009 122.693L439.055 121.516L443.572 127H441.507ZM448.371 120.892V122.228H444.082V120.892H448.371ZM457.934 122.931H459.621C459.533 123.739 459.302 124.463 458.927 125.102C458.552 125.74 458.021 126.247 457.336 126.622C456.65 126.991 455.795 127.176 454.77 127.176C454.02 127.176 453.337 127.035 452.722 126.754C452.112 126.473 451.588 126.074 451.148 125.559C450.709 125.037 450.369 124.413 450.129 123.687C449.895 122.954 449.777 122.14 449.777 121.243V119.969C449.777 119.072 449.895 118.261 450.129 117.534C450.369 116.802 450.712 116.175 451.157 115.653C451.608 115.132 452.15 114.73 452.783 114.449C453.416 114.168 454.128 114.027 454.919 114.027C455.886 114.027 456.703 114.209 457.371 114.572C458.039 114.936 458.558 115.439 458.927 116.084C459.302 116.723 459.533 117.464 459.621 118.308H457.934C457.852 117.71 457.699 117.197 457.477 116.77C457.254 116.336 456.938 116.002 456.527 115.768C456.117 115.533 455.581 115.416 454.919 115.416C454.351 115.416 453.85 115.524 453.416 115.741C452.988 115.958 452.628 116.266 452.335 116.664C452.048 117.062 451.831 117.54 451.685 118.097C451.538 118.653 451.465 119.271 451.465 119.951V121.243C451.465 121.87 451.529 122.459 451.658 123.01C451.793 123.561 451.995 124.044 452.265 124.46C452.534 124.876 452.877 125.204 453.293 125.444C453.709 125.679 454.201 125.796 454.77 125.796C455.49 125.796 456.064 125.682 456.492 125.453C456.92 125.225 457.242 124.896 457.459 124.469C457.682 124.041 457.84 123.528 457.934 122.931ZM467.294 125.374V120.479C467.294 120.104 467.218 119.778 467.065 119.503C466.919 119.222 466.696 119.005 466.397 118.853C466.099 118.7 465.729 118.624 465.29 118.624C464.88 118.624 464.52 118.694 464.209 118.835C463.904 118.976 463.664 119.16 463.488 119.389C463.318 119.617 463.233 119.863 463.233 120.127H461.607C461.607 119.787 461.695 119.45 461.871 119.116C462.047 118.782 462.299 118.48 462.627 118.211C462.961 117.936 463.359 117.719 463.822 117.561C464.291 117.396 464.812 117.314 465.387 117.314C466.078 117.314 466.688 117.432 467.215 117.666C467.748 117.9 468.164 118.255 468.463 118.729C468.768 119.198 468.92 119.787 468.92 120.496V124.926C468.92 125.242 468.946 125.579 468.999 125.937C469.058 126.294 469.143 126.602 469.254 126.859V127H467.558C467.476 126.812 467.411 126.563 467.364 126.253C467.317 125.937 467.294 125.644 467.294 125.374ZM467.575 121.234L467.593 122.377H465.949C465.486 122.377 465.073 122.415 464.71 122.491C464.347 122.562 464.042 122.67 463.796 122.816C463.55 122.963 463.362 123.147 463.233 123.37C463.104 123.587 463.04 123.842 463.04 124.135C463.04 124.434 463.107 124.706 463.242 124.952C463.377 125.198 463.579 125.395 463.849 125.541C464.124 125.682 464.461 125.752 464.859 125.752C465.357 125.752 465.797 125.646 466.178 125.436C466.559 125.225 466.86 124.967 467.083 124.662C467.312 124.357 467.435 124.062 467.452 123.774L468.146 124.557C468.105 124.803 467.994 125.075 467.812 125.374C467.631 125.673 467.388 125.96 467.083 126.235C466.784 126.505 466.427 126.73 466.011 126.912C465.601 127.088 465.138 127.176 464.622 127.176C463.978 127.176 463.412 127.05 462.926 126.798C462.445 126.546 462.07 126.209 461.801 125.787C461.537 125.359 461.405 124.882 461.405 124.354C461.405 123.845 461.505 123.396 461.704 123.01C461.903 122.617 462.19 122.292 462.565 122.034C462.94 121.771 463.392 121.571 463.919 121.437C464.446 121.302 465.035 121.234 465.686 121.234H467.575ZM472.576 117.49L474.659 120.953L476.769 117.49H478.676L475.564 122.184L478.772 127H476.892L474.694 123.432L472.497 127H470.607L473.807 122.184L470.704 117.49H472.576ZM486.015 125.374V120.479C486.015 120.104 485.938 119.778 485.786 119.503C485.64 119.222 485.417 119.005 485.118 118.853C484.819 118.7 484.45 118.624 484.011 118.624C483.601 118.624 483.24 118.694 482.93 118.835C482.625 118.976 482.385 119.16 482.209 119.389C482.039 119.617 481.954 119.863 481.954 120.127H480.328C480.328 119.787 480.416 119.45 480.592 119.116C480.768 118.782 481.02 118.48 481.348 118.211C481.682 117.936 482.08 117.719 482.543 117.561C483.012 117.396 483.533 117.314 484.107 117.314C484.799 117.314 485.408 117.432 485.936 117.666C486.469 117.9 486.885 118.255 487.184 118.729C487.488 119.198 487.641 119.787 487.641 120.496V124.926C487.641 125.242 487.667 125.579 487.72 125.937C487.778 126.294 487.863 126.602 487.975 126.859V127H486.278C486.196 126.812 486.132 126.563 486.085 126.253C486.038 125.937 486.015 125.644 486.015 125.374ZM486.296 121.234L486.313 122.377H484.67C484.207 122.377 483.794 122.415 483.431 122.491C483.067 122.562 482.763 122.67 482.517 122.816C482.271 122.963 482.083 123.147 481.954 123.37C481.825 123.587 481.761 123.842 481.761 124.135C481.761 124.434 481.828 124.706 481.963 124.952C482.098 125.198 482.3 125.395 482.569 125.541C482.845 125.682 483.182 125.752 483.58 125.752C484.078 125.752 484.518 125.646 484.898 125.436C485.279 125.225 485.581 124.967 485.804 124.662C486.032 124.357 486.155 124.062 486.173 123.774L486.867 124.557C486.826 124.803 486.715 125.075 486.533 125.374C486.352 125.673 486.108 125.96 485.804 126.235C485.505 126.505 485.147 126.73 484.731 126.912C484.321 127.088 483.858 127.176 483.343 127.176C482.698 127.176 482.133 127.05 481.646 126.798C481.166 126.546 480.791 126.209 480.521 125.787C480.258 125.359 480.126 124.882 480.126 124.354C480.126 123.845 480.226 123.396 480.425 123.01C480.624 122.617 480.911 122.292 481.286 122.034C481.661 121.771 482.112 121.571 482.64 121.437C483.167 121.302 483.756 121.234 484.406 121.234H486.296ZM496.553 117.49V118.835H491.956V117.49H496.553ZM497.985 117.49V127H496.359V117.49H497.985ZM491.561 117.49H493.195L492.949 122.078C492.908 122.787 492.841 123.414 492.747 123.959C492.659 124.498 492.536 124.961 492.378 125.348C492.226 125.734 492.032 126.051 491.798 126.297C491.569 126.537 491.294 126.716 490.972 126.833C490.649 126.944 490.277 127 489.855 127H489.346V125.567L489.697 125.541C489.949 125.523 490.163 125.465 490.339 125.365C490.521 125.266 490.673 125.119 490.796 124.926C490.919 124.727 491.019 124.472 491.095 124.161C491.177 123.851 491.238 123.481 491.279 123.054C491.326 122.626 491.361 122.128 491.385 121.56L491.561 117.49ZM502.362 124.425L506.748 117.49H508.383V127H506.748V120.065L502.362 127H500.745V117.49H502.362V124.425ZM517.444 121.612V122.931H512.417V121.612H517.444ZM512.76 117.49V127H511.134V117.49H512.76ZM518.763 117.49V127H517.128V117.49H518.763ZM525.188 125.84C525.574 125.84 525.932 125.761 526.26 125.603C526.588 125.444 526.857 125.228 527.068 124.952C527.279 124.671 527.399 124.352 527.429 123.994H528.976C528.946 124.557 528.756 125.081 528.404 125.567C528.059 126.048 527.604 126.438 527.042 126.736C526.479 127.029 525.861 127.176 525.188 127.176C524.473 127.176 523.849 127.05 523.315 126.798C522.788 126.546 522.349 126.2 521.997 125.761C521.651 125.321 521.391 124.817 521.215 124.249C521.045 123.675 520.96 123.068 520.96 122.43V122.061C520.96 121.422 521.045 120.818 521.215 120.25C521.391 119.676 521.651 119.169 521.997 118.729C522.349 118.29 522.788 117.944 523.315 117.692C523.849 117.44 524.473 117.314 525.188 117.314C525.932 117.314 526.582 117.467 527.139 117.771C527.695 118.07 528.132 118.48 528.448 119.002C528.771 119.518 528.946 120.104 528.976 120.76H527.429C527.399 120.367 527.288 120.013 527.095 119.696C526.907 119.38 526.649 119.128 526.321 118.94C525.999 118.747 525.621 118.65 525.188 118.65C524.689 118.65 524.271 118.75 523.931 118.949C523.597 119.143 523.33 119.406 523.131 119.74C522.938 120.068 522.797 120.435 522.709 120.839C522.627 121.237 522.586 121.645 522.586 122.061V122.43C522.586 122.846 522.627 123.256 522.709 123.66C522.791 124.064 522.929 124.431 523.122 124.759C523.321 125.087 523.588 125.351 523.922 125.55C524.262 125.743 524.684 125.84 525.188 125.84ZM532.57 117.49V127H530.944V117.49H532.57ZM538.811 117.49L534.302 122.939H532.025L531.779 121.516H533.643L536.833 117.49H538.811ZM537.062 127L533.563 122.693L534.609 121.516L539.127 127H537.062ZM542.3 124.425L546.686 117.49H548.32V127H546.686V120.065L542.3 127H540.683V117.49H542.3V124.425ZM552.688 124.425L557.074 117.49H558.709V127H557.074V120.065L552.688 127H551.071V117.49H552.688V124.425ZM556.187 114.045H557.505C557.505 114.502 557.399 114.909 557.188 115.267C556.978 115.618 556.676 115.894 556.283 116.093C555.891 116.292 555.425 116.392 554.886 116.392C554.071 116.392 553.427 116.175 552.952 115.741C552.483 115.302 552.249 114.736 552.249 114.045H553.567C553.567 114.391 553.667 114.695 553.866 114.959C554.065 115.223 554.405 115.354 554.886 115.354C555.354 115.354 555.688 115.223 555.888 114.959C556.087 114.695 556.187 114.391 556.187 114.045Z" fill="white"/>
<path d="M459.214 176.203V189H457.544V176.203H459.214ZM463.327 176.203V177.592H453.439V176.203H463.327ZM465.155 182.76H468.012C468.779 182.76 469.427 182.895 469.954 183.164C470.481 183.428 470.88 183.794 471.149 184.263C471.425 184.726 471.562 185.253 471.562 185.845C471.562 186.284 471.486 186.697 471.334 187.084C471.182 187.465 470.953 187.799 470.648 188.086C470.35 188.373 469.978 188.599 469.532 188.763C469.093 188.921 468.586 189 468.012 189H463.969V179.49H465.595V187.664H468.012C468.48 187.664 468.855 187.579 469.137 187.409C469.418 187.239 469.62 187.02 469.743 186.75C469.866 186.48 469.928 186.199 469.928 185.906C469.928 185.619 469.866 185.338 469.743 185.062C469.62 184.787 469.418 184.559 469.137 184.377C468.855 184.189 468.48 184.096 468.012 184.096H465.155V182.76ZM474.946 179.49V189H473.32V179.49H474.946ZM483.261 186.838L486.495 179.49H488.06L483.823 189H482.698L478.479 179.49H480.044L483.261 186.838ZM479.569 179.49V189H477.943V179.49H479.569ZM486.899 189V179.49H488.534V189H486.899ZM490.723 184.351V184.148C490.723 183.463 490.822 182.827 491.021 182.241C491.221 181.649 491.508 181.137 491.883 180.703C492.258 180.264 492.712 179.924 493.245 179.684C493.778 179.438 494.376 179.314 495.038 179.314C495.706 179.314 496.307 179.438 496.84 179.684C497.379 179.924 497.836 180.264 498.211 180.703C498.592 181.137 498.882 181.649 499.081 182.241C499.28 182.827 499.38 183.463 499.38 184.148V184.351C499.38 185.036 499.28 185.672 499.081 186.258C498.882 186.844 498.592 187.356 498.211 187.796C497.836 188.229 497.382 188.569 496.849 188.815C496.321 189.056 495.724 189.176 495.056 189.176C494.388 189.176 493.787 189.056 493.254 188.815C492.721 188.569 492.264 188.229 491.883 187.796C491.508 187.356 491.221 186.844 491.021 186.258C490.822 185.672 490.723 185.036 490.723 184.351ZM492.349 184.148V184.351C492.349 184.825 492.404 185.273 492.516 185.695C492.627 186.111 492.794 186.48 493.017 186.803C493.245 187.125 493.529 187.38 493.869 187.567C494.209 187.749 494.604 187.84 495.056 187.84C495.501 187.84 495.891 187.749 496.225 187.567C496.564 187.38 496.846 187.125 497.068 186.803C497.291 186.48 497.458 186.111 497.569 185.695C497.687 185.273 497.745 184.825 497.745 184.351V184.148C497.745 183.68 497.687 183.237 497.569 182.821C497.458 182.399 497.288 182.027 497.06 181.705C496.837 181.377 496.556 181.119 496.216 180.932C495.882 180.744 495.489 180.65 495.038 180.65C494.593 180.65 494.2 180.744 493.86 180.932C493.526 181.119 493.245 181.377 493.017 181.705C492.794 182.027 492.627 182.399 492.516 182.821C492.404 183.237 492.349 183.68 492.349 184.148ZM505.884 184.816H502.764L502.746 183.516H505.295C505.799 183.516 506.218 183.466 506.552 183.366C506.892 183.267 507.146 183.117 507.316 182.918C507.486 182.719 507.571 182.473 507.571 182.18C507.571 181.951 507.521 181.752 507.422 181.582C507.328 181.406 507.185 181.263 506.991 181.151C506.798 181.034 506.558 180.949 506.271 180.896C505.989 180.838 505.658 180.809 505.277 180.809H503.194V189H501.568V179.49H505.277C505.881 179.49 506.423 179.543 506.903 179.648C507.39 179.754 507.803 179.915 508.143 180.132C508.488 180.343 508.752 180.612 508.934 180.94C509.115 181.269 509.206 181.655 509.206 182.101C509.206 182.388 509.147 182.66 509.03 182.918C508.913 183.176 508.74 183.404 508.512 183.604C508.283 183.803 508.002 183.967 507.668 184.096C507.334 184.219 506.95 184.298 506.517 184.333L505.884 184.816ZM505.884 189H502.175L502.983 187.682H505.884C506.335 187.682 506.71 187.626 507.009 187.515C507.308 187.397 507.53 187.233 507.677 187.022C507.829 186.806 507.905 186.548 507.905 186.249C507.905 185.95 507.829 185.695 507.677 185.484C507.53 185.268 507.308 185.104 507.009 184.992C506.71 184.875 506.335 184.816 505.884 184.816H503.414L503.432 183.516H506.517L507.105 184.008C507.627 184.049 508.069 184.178 508.433 184.395C508.796 184.611 509.071 184.887 509.259 185.221C509.446 185.549 509.54 185.906 509.54 186.293C509.54 186.738 509.455 187.131 509.285 187.471C509.121 187.811 508.881 188.095 508.564 188.323C508.248 188.546 507.864 188.716 507.413 188.833C506.962 188.944 506.452 189 505.884 189ZM515.525 187.84C515.912 187.84 516.27 187.761 516.598 187.603C516.926 187.444 517.195 187.228 517.406 186.952C517.617 186.671 517.737 186.352 517.767 185.994H519.313C519.284 186.557 519.094 187.081 518.742 187.567C518.396 188.048 517.942 188.438 517.38 188.736C516.817 189.029 516.199 189.176 515.525 189.176C514.811 189.176 514.187 189.05 513.653 188.798C513.126 188.546 512.687 188.2 512.335 187.761C511.989 187.321 511.729 186.817 511.553 186.249C511.383 185.675 511.298 185.068 511.298 184.43V184.061C511.298 183.422 511.383 182.818 511.553 182.25C511.729 181.676 511.989 181.169 512.335 180.729C512.687 180.29 513.126 179.944 513.653 179.692C514.187 179.44 514.811 179.314 515.525 179.314C516.27 179.314 516.92 179.467 517.477 179.771C518.033 180.07 518.47 180.48 518.786 181.002C519.108 181.518 519.284 182.104 519.313 182.76H517.767C517.737 182.367 517.626 182.013 517.433 181.696C517.245 181.38 516.987 181.128 516.659 180.94C516.337 180.747 515.959 180.65 515.525 180.65C515.027 180.65 514.608 180.75 514.269 180.949C513.935 181.143 513.668 181.406 513.469 181.74C513.275 182.068 513.135 182.435 513.047 182.839C512.965 183.237 512.924 183.645 512.924 184.061V184.43C512.924 184.846 512.965 185.256 513.047 185.66C513.129 186.064 513.267 186.431 513.46 186.759C513.659 187.087 513.926 187.351 514.26 187.55C514.6 187.743 515.021 187.84 515.525 187.84ZM522.908 179.49V189H521.282V179.49H522.908ZM529.148 179.49L524.64 184.939H522.363L522.117 183.516H523.98L527.171 179.49H529.148ZM527.399 189L523.901 184.693L524.947 183.516L529.465 189H527.399ZM530.256 184.351V184.148C530.256 183.463 530.355 182.827 530.555 182.241C530.754 181.649 531.041 181.137 531.416 180.703C531.791 180.264 532.245 179.924 532.778 179.684C533.312 179.438 533.909 179.314 534.571 179.314C535.239 179.314 535.84 179.438 536.373 179.684C536.912 179.924 537.369 180.264 537.744 180.703C538.125 181.137 538.415 181.649 538.614 182.241C538.813 182.827 538.913 183.463 538.913 184.148V184.351C538.913 185.036 538.813 185.672 538.614 186.258C538.415 186.844 538.125 187.356 537.744 187.796C537.369 188.229 536.915 188.569 536.382 188.815C535.854 189.056 535.257 189.176 534.589 189.176C533.921 189.176 533.32 189.056 532.787 188.815C532.254 188.569 531.797 188.229 531.416 187.796C531.041 187.356 530.754 186.844 530.555 186.258C530.355 185.672 530.256 185.036 530.256 184.351ZM531.882 184.148V184.351C531.882 184.825 531.938 185.273 532.049 185.695C532.16 186.111 532.327 186.48 532.55 186.803C532.778 187.125 533.062 187.38 533.402 187.567C533.742 187.749 534.138 187.84 534.589 187.84C535.034 187.84 535.424 187.749 535.758 187.567C536.098 187.38 536.379 187.125 536.602 186.803C536.824 186.48 536.991 186.111 537.103 185.695C537.22 185.273 537.278 184.825 537.278 184.351V184.148C537.278 183.68 537.22 183.237 537.103 182.821C536.991 182.399 536.821 182.027 536.593 181.705C536.37 181.377 536.089 181.119 535.749 180.932C535.415 180.744 535.022 180.65 534.571 180.65C534.126 180.65 533.733 180.744 533.394 180.932C533.06 181.119 532.778 181.377 532.55 181.705C532.327 182.027 532.16 182.399 532.049 182.821C531.938 183.237 531.882 183.68 531.882 184.148ZM544.898 189.176C544.236 189.176 543.636 189.064 543.097 188.842C542.563 188.613 542.104 188.294 541.717 187.884C541.336 187.474 541.043 186.987 540.838 186.425C540.633 185.862 540.53 185.247 540.53 184.579V184.21C540.53 183.437 540.645 182.748 540.873 182.145C541.102 181.535 541.412 181.02 541.805 180.598C542.197 180.176 542.643 179.856 543.141 179.64C543.639 179.423 544.154 179.314 544.688 179.314C545.367 179.314 545.953 179.432 546.445 179.666C546.943 179.9 547.351 180.229 547.667 180.65C547.983 181.066 548.218 181.559 548.37 182.127C548.522 182.689 548.599 183.305 548.599 183.973V184.702H541.497V183.375H546.973V183.252C546.949 182.83 546.861 182.42 546.709 182.021C546.562 181.623 546.328 181.295 546.006 181.037C545.684 180.779 545.244 180.65 544.688 180.65C544.318 180.65 543.979 180.729 543.668 180.888C543.357 181.04 543.091 181.269 542.868 181.573C542.646 181.878 542.473 182.25 542.35 182.689C542.227 183.129 542.165 183.636 542.165 184.21V184.579C542.165 185.03 542.227 185.455 542.35 185.854C542.479 186.246 542.663 186.592 542.903 186.891C543.149 187.189 543.445 187.424 543.791 187.594C544.143 187.764 544.541 187.849 544.986 187.849C545.561 187.849 546.047 187.731 546.445 187.497C546.844 187.263 547.192 186.949 547.491 186.557L548.476 187.339C548.271 187.649 548.01 187.945 547.693 188.227C547.377 188.508 546.987 188.736 546.524 188.912C546.067 189.088 545.525 189.176 544.898 189.176Z" fill="white"/>
<path d="M584.844 156.705V158.085H577.918V156.705H584.844ZM578.182 151.203V164H576.485V151.203H578.182ZM586.32 151.203V164H584.633V151.203H586.32ZM588.658 159.351V159.148C588.658 158.463 588.758 157.827 588.957 157.241C589.156 156.649 589.443 156.137 589.818 155.703C590.193 155.264 590.647 154.924 591.181 154.684C591.714 154.438 592.312 154.314 592.974 154.314C593.642 154.314 594.242 154.438 594.775 154.684C595.314 154.924 595.771 155.264 596.146 155.703C596.527 156.137 596.817 156.649 597.017 157.241C597.216 157.827 597.315 158.463 597.315 159.148V159.351C597.315 160.036 597.216 160.672 597.017 161.258C596.817 161.844 596.527 162.356 596.146 162.796C595.771 163.229 595.317 163.569 594.784 163.815C594.257 164.056 593.659 164.176 592.991 164.176C592.323 164.176 591.723 164.056 591.189 163.815C590.656 163.569 590.199 163.229 589.818 162.796C589.443 162.356 589.156 161.844 588.957 161.258C588.758 160.672 588.658 160.036 588.658 159.351ZM590.284 159.148V159.351C590.284 159.825 590.34 160.273 590.451 160.695C590.562 161.111 590.729 161.48 590.952 161.803C591.181 162.125 591.465 162.38 591.805 162.567C592.145 162.749 592.54 162.84 592.991 162.84C593.437 162.84 593.826 162.749 594.16 162.567C594.5 162.38 594.781 162.125 595.004 161.803C595.227 161.48 595.394 161.111 595.505 160.695C595.622 160.273 595.681 159.825 595.681 159.351V159.148C595.681 158.68 595.622 158.237 595.505 157.821C595.394 157.399 595.224 157.027 594.995 156.705C594.772 156.377 594.491 156.119 594.151 155.932C593.817 155.744 593.425 155.65 592.974 155.65C592.528 155.65 592.136 155.744 591.796 155.932C591.462 156.119 591.181 156.377 590.952 156.705C590.729 157.027 590.562 157.399 590.451 157.821C590.34 158.237 590.284 158.68 590.284 159.148ZM605.498 154.49V155.835H601.104V164H599.478V154.49H605.498ZM612.916 154.49V155.835H608.319V154.49H612.916ZM614.349 154.49V164H612.723V154.49H614.349ZM607.924 154.49H609.559L609.312 159.078C609.271 159.787 609.204 160.414 609.11 160.959C609.022 161.498 608.899 161.961 608.741 162.348C608.589 162.734 608.396 163.051 608.161 163.297C607.933 163.537 607.657 163.716 607.335 163.833C607.013 163.944 606.641 164 606.219 164H605.709V162.567L606.061 162.541C606.312 162.523 606.526 162.465 606.702 162.365C606.884 162.266 607.036 162.119 607.159 161.926C607.282 161.727 607.382 161.472 607.458 161.161C607.54 160.851 607.602 160.481 607.643 160.054C607.689 159.626 607.725 159.128 607.748 158.56L607.924 154.49ZM618.726 161.425L623.111 154.49H624.746V164H623.111V157.065L618.726 164H617.108V154.49H618.726V161.425ZM629.123 154.49V164H627.497V154.49H629.123ZM635.363 154.49L630.854 159.939H628.578L628.332 158.516H630.195L633.386 154.49H635.363ZM633.614 164L630.116 159.693L631.162 158.516L635.68 164H633.614ZM638.853 161.425L643.238 154.49H644.873V164H643.238V157.065L638.853 164H637.235V154.49H638.853V161.425Z" fill="white"/>
<path d="M296.211 241.931H297.898C297.811 242.739 297.579 243.463 297.204 244.102C296.829 244.74 296.299 245.247 295.613 245.622C294.928 245.991 294.072 246.176 293.047 246.176C292.297 246.176 291.614 246.035 290.999 245.754C290.39 245.473 289.865 245.074 289.426 244.559C288.986 244.037 288.646 243.413 288.406 242.687C288.172 241.954 288.055 241.14 288.055 240.243V238.969C288.055 238.072 288.172 237.261 288.406 236.534C288.646 235.802 288.989 235.175 289.435 234.653C289.886 234.132 290.428 233.73 291.061 233.449C291.693 233.168 292.405 233.027 293.196 233.027C294.163 233.027 294.98 233.209 295.648 233.572C296.316 233.936 296.835 234.439 297.204 235.084C297.579 235.723 297.811 236.464 297.898 237.308H296.211C296.129 236.71 295.977 236.197 295.754 235.77C295.531 235.336 295.215 235.002 294.805 234.768C294.395 234.533 293.858 234.416 293.196 234.416C292.628 234.416 292.127 234.524 291.693 234.741C291.266 234.958 290.905 235.266 290.612 235.664C290.325 236.062 290.108 236.54 289.962 237.097C289.815 237.653 289.742 238.271 289.742 238.951V240.243C289.742 240.87 289.807 241.459 289.936 242.01C290.07 242.561 290.272 243.044 290.542 243.46C290.812 243.876 291.154 244.204 291.57 244.444C291.986 244.679 292.479 244.796 293.047 244.796C293.768 244.796 294.342 244.682 294.77 244.453C295.197 244.225 295.52 243.896 295.736 243.469C295.959 243.041 296.117 242.528 296.211 241.931ZM305.431 243.838L308.665 236.49H310.229L305.993 246H304.868L300.649 236.49H302.214L305.431 243.838ZM301.739 236.49V246H300.113V236.49H301.739ZM309.069 246V236.49H310.704V246H309.069ZM315.081 243.425L319.467 236.49H321.102V246H319.467V239.065L315.081 246H313.464V236.49H315.081V243.425ZM325.338 238.318V249.656H323.703V236.49H325.197L325.338 238.318ZM331.745 241.166V241.351C331.745 242.042 331.663 242.684 331.499 243.275C331.335 243.861 331.095 244.371 330.778 244.805C330.468 245.238 330.084 245.575 329.627 245.815C329.17 246.056 328.646 246.176 328.054 246.176C327.45 246.176 326.917 246.076 326.454 245.877C325.991 245.678 325.599 245.388 325.276 245.007C324.954 244.626 324.696 244.169 324.503 243.636C324.315 243.103 324.187 242.502 324.116 241.834V240.85C324.187 240.146 324.318 239.517 324.512 238.96C324.705 238.403 324.96 237.929 325.276 237.536C325.599 237.138 325.988 236.836 326.445 236.631C326.902 236.42 327.43 236.314 328.027 236.314C328.625 236.314 329.155 236.432 329.618 236.666C330.081 236.895 330.471 237.223 330.787 237.65C331.104 238.078 331.341 238.591 331.499 239.188C331.663 239.78 331.745 240.439 331.745 241.166ZM330.11 241.351V241.166C330.11 240.691 330.061 240.246 329.961 239.83C329.861 239.408 329.706 239.039 329.495 238.723C329.29 238.4 329.026 238.148 328.704 237.967C328.382 237.779 327.998 237.686 327.553 237.686C327.143 237.686 326.785 237.756 326.48 237.896C326.182 238.037 325.927 238.228 325.716 238.468C325.505 238.702 325.332 238.972 325.197 239.276C325.068 239.575 324.972 239.886 324.907 240.208V242.484C325.024 242.895 325.188 243.281 325.399 243.645C325.61 244.002 325.892 244.292 326.243 244.515C326.595 244.731 327.037 244.84 327.57 244.84C328.01 244.84 328.388 244.749 328.704 244.567C329.026 244.38 329.29 244.125 329.495 243.803C329.706 243.48 329.861 243.111 329.961 242.695C330.061 242.273 330.11 241.825 330.11 241.351ZM340.271 240.612V241.931H335.243V240.612H340.271ZM335.586 236.49V246H333.96V236.49H335.586ZM341.589 236.49V246H339.954V236.49H341.589ZM345.544 239.76H348.4C349.168 239.76 349.815 239.895 350.343 240.164C350.87 240.428 351.269 240.794 351.538 241.263C351.813 241.726 351.951 242.253 351.951 242.845C351.951 243.284 351.875 243.697 351.723 244.084C351.57 244.465 351.342 244.799 351.037 245.086C350.738 245.373 350.366 245.599 349.921 245.763C349.481 245.921 348.975 246 348.4 246H344.357V236.49H345.983V244.664H348.4C348.869 244.664 349.244 244.579 349.525 244.409C349.807 244.239 350.009 244.02 350.132 243.75C350.255 243.48 350.316 243.199 350.316 242.906C350.316 242.619 350.255 242.338 350.132 242.062C350.009 241.787 349.807 241.559 349.525 241.377C349.244 241.189 348.869 241.096 348.4 241.096H345.544V239.76ZM355.335 236.49V246H353.709V236.49H355.335ZM359.281 236.49L361.364 239.953L363.474 236.49H365.381L362.27 241.184L365.478 246H363.597L361.399 242.432L359.202 246H357.312L360.512 241.184L357.409 236.49H359.281Z" fill="white"/>
<path d="M281.259 297.203V310H279.571V298.592H273.261V310H271.564V297.203H281.259ZM283.658 305.351V305.148C283.658 304.463 283.758 303.827 283.957 303.241C284.156 302.649 284.443 302.137 284.818 301.703C285.193 301.264 285.647 300.924 286.181 300.684C286.714 300.438 287.312 300.314 287.974 300.314C288.642 300.314 289.242 300.438 289.775 300.684C290.314 300.924 290.771 301.264 291.146 301.703C291.527 302.137 291.817 302.649 292.017 303.241C292.216 303.827 292.315 304.463 292.315 305.148V305.351C292.315 306.036 292.216 306.672 292.017 307.258C291.817 307.844 291.527 308.356 291.146 308.796C290.771 309.229 290.317 309.569 289.784 309.815C289.257 310.056 288.659 310.176 287.991 310.176C287.323 310.176 286.723 310.056 286.189 309.815C285.656 309.569 285.199 309.229 284.818 308.796C284.443 308.356 284.156 307.844 283.957 307.258C283.758 306.672 283.658 306.036 283.658 305.351ZM285.284 305.148V305.351C285.284 305.825 285.34 306.273 285.451 306.695C285.562 307.111 285.729 307.48 285.952 307.803C286.181 308.125 286.465 308.38 286.805 308.567C287.145 308.749 287.54 308.84 287.991 308.84C288.437 308.84 288.826 308.749 289.16 308.567C289.5 308.38 289.781 308.125 290.004 307.803C290.227 307.48 290.394 307.111 290.505 306.695C290.622 306.273 290.681 305.825 290.681 305.351V305.148C290.681 304.68 290.622 304.237 290.505 303.821C290.394 303.399 290.224 303.027 289.995 302.705C289.772 302.377 289.491 302.119 289.151 301.932C288.817 301.744 288.425 301.65 287.974 301.65C287.528 301.65 287.136 301.744 286.796 301.932C286.462 302.119 286.181 302.377 285.952 302.705C285.729 303.027 285.562 303.399 285.451 303.821C285.34 304.237 285.284 304.68 285.284 305.148ZM295.98 302.318V313.656H294.346V300.49H295.84L295.98 302.318ZM302.388 305.166V305.351C302.388 306.042 302.306 306.684 302.142 307.275C301.978 307.861 301.737 308.371 301.421 308.805C301.11 309.238 300.727 309.575 300.27 309.815C299.812 310.056 299.288 310.176 298.696 310.176C298.093 310.176 297.56 310.076 297.097 309.877C296.634 309.678 296.241 309.388 295.919 309.007C295.597 308.626 295.339 308.169 295.146 307.636C294.958 307.103 294.829 306.502 294.759 305.834V304.85C294.829 304.146 294.961 303.517 295.154 302.96C295.348 302.403 295.603 301.929 295.919 301.536C296.241 301.138 296.631 300.836 297.088 300.631C297.545 300.42 298.072 300.314 298.67 300.314C299.268 300.314 299.798 300.432 300.261 300.666C300.724 300.895 301.113 301.223 301.43 301.65C301.746 302.078 301.983 302.591 302.142 303.188C302.306 303.78 302.388 304.439 302.388 305.166ZM300.753 305.351V305.166C300.753 304.691 300.703 304.246 300.604 303.83C300.504 303.408 300.349 303.039 300.138 302.723C299.933 302.4 299.669 302.148 299.347 301.967C299.024 301.779 298.641 301.686 298.195 301.686C297.785 301.686 297.428 301.756 297.123 301.896C296.824 302.037 296.569 302.228 296.358 302.468C296.147 302.702 295.975 302.972 295.84 303.276C295.711 303.575 295.614 303.886 295.55 304.208V306.484C295.667 306.895 295.831 307.281 296.042 307.645C296.253 308.002 296.534 308.292 296.886 308.515C297.237 308.731 297.68 308.84 298.213 308.84C298.652 308.84 299.03 308.749 299.347 308.567C299.669 308.38 299.933 308.125 300.138 307.803C300.349 307.48 300.504 307.111 300.604 306.695C300.703 306.273 300.753 305.825 300.753 305.351ZM304.031 305.351V305.148C304.031 304.463 304.131 303.827 304.33 303.241C304.529 302.649 304.816 302.137 305.191 301.703C305.566 301.264 306.021 300.924 306.554 300.684C307.087 300.438 307.685 300.314 308.347 300.314C309.015 300.314 309.615 300.438 310.148 300.684C310.688 300.924 311.145 301.264 311.52 301.703C311.9 302.137 312.19 302.649 312.39 303.241C312.589 303.827 312.688 304.463 312.688 305.148V305.351C312.688 306.036 312.589 306.672 312.39 307.258C312.19 307.844 311.9 308.356 311.52 308.796C311.145 309.229 310.69 309.569 310.157 309.815C309.63 310.056 309.032 310.176 308.364 310.176C307.696 310.176 307.096 310.056 306.562 309.815C306.029 309.569 305.572 309.229 305.191 308.796C304.816 308.356 304.529 307.844 304.33 307.258C304.131 306.672 304.031 306.036 304.031 305.351ZM305.657 305.148V305.351C305.657 305.825 305.713 306.273 305.824 306.695C305.936 307.111 306.103 307.48 306.325 307.803C306.554 308.125 306.838 308.38 307.178 308.567C307.518 308.749 307.913 308.84 308.364 308.84C308.81 308.84 309.199 308.749 309.533 308.567C309.873 308.38 310.154 308.125 310.377 307.803C310.6 307.48 310.767 307.111 310.878 306.695C310.995 306.273 311.054 305.825 311.054 305.351V305.148C311.054 304.68 310.995 304.237 310.878 303.821C310.767 303.399 310.597 303.027 310.368 302.705C310.146 302.377 309.864 302.119 309.524 301.932C309.19 301.744 308.798 301.65 308.347 301.65C307.901 301.65 307.509 301.744 307.169 301.932C306.835 302.119 306.554 302.377 306.325 302.705C306.103 303.027 305.936 303.399 305.824 303.821C305.713 304.237 305.657 304.68 305.657 305.148ZM321.179 304.612V305.931H316.151V304.612H321.179ZM316.494 300.49V310H314.868V300.49H316.494ZM322.497 300.49V310H320.862V300.49H322.497ZM330.724 308.374V303.479C330.724 303.104 330.647 302.778 330.495 302.503C330.349 302.222 330.126 302.005 329.827 301.853C329.528 301.7 329.159 301.624 328.72 301.624C328.31 301.624 327.949 301.694 327.639 301.835C327.334 301.976 327.094 302.16 326.918 302.389C326.748 302.617 326.663 302.863 326.663 303.127H325.037C325.037 302.787 325.125 302.45 325.301 302.116C325.477 301.782 325.729 301.48 326.057 301.211C326.391 300.936 326.789 300.719 327.252 300.561C327.721 300.396 328.242 300.314 328.816 300.314C329.508 300.314 330.117 300.432 330.645 300.666C331.178 300.9 331.594 301.255 331.893 301.729C332.197 302.198 332.35 302.787 332.35 303.496V307.926C332.35 308.242 332.376 308.579 332.429 308.937C332.487 309.294 332.572 309.602 332.684 309.859V310H330.987C330.905 309.812 330.841 309.563 330.794 309.253C330.747 308.937 330.724 308.644 330.724 308.374ZM331.005 304.234L331.022 305.377H329.379C328.916 305.377 328.503 305.415 328.14 305.491C327.776 305.562 327.472 305.67 327.226 305.816C326.979 305.963 326.792 306.147 326.663 306.37C326.534 306.587 326.47 306.842 326.47 307.135C326.47 307.434 326.537 307.706 326.672 307.952C326.807 308.198 327.009 308.395 327.278 308.541C327.554 308.682 327.891 308.752 328.289 308.752C328.787 308.752 329.227 308.646 329.607 308.436C329.988 308.225 330.29 307.967 330.513 307.662C330.741 307.357 330.864 307.062 330.882 306.774L331.576 307.557C331.535 307.803 331.424 308.075 331.242 308.374C331.061 308.673 330.817 308.96 330.513 309.235C330.214 309.505 329.856 309.73 329.44 309.912C329.03 310.088 328.567 310.176 328.052 310.176C327.407 310.176 326.842 310.05 326.355 309.798C325.875 309.546 325.5 309.209 325.23 308.787C324.967 308.359 324.835 307.882 324.835 307.354C324.835 306.845 324.935 306.396 325.134 306.01C325.333 305.617 325.62 305.292 325.995 305.034C326.37 304.771 326.821 304.571 327.349 304.437C327.876 304.302 328.465 304.234 329.115 304.234H331.005ZM336.665 307.425L341.051 300.49H342.686V310H341.051V303.065L336.665 310H335.048V300.49H336.665V307.425ZM340.163 297.045H341.481C341.481 297.502 341.376 297.909 341.165 298.267C340.954 298.618 340.652 298.894 340.26 299.093C339.867 299.292 339.401 299.392 338.862 299.392C338.048 299.392 337.403 299.175 336.929 298.741C336.46 298.302 336.226 297.736 336.226 297.045H337.544C337.544 297.391 337.644 297.695 337.843 297.959C338.042 298.223 338.382 298.354 338.862 298.354C339.331 298.354 339.665 298.223 339.864 297.959C340.063 297.695 340.163 297.391 340.163 297.045ZM349.102 308.84C349.488 308.84 349.846 308.761 350.174 308.603C350.502 308.444 350.771 308.228 350.982 307.952C351.193 307.671 351.313 307.352 351.343 306.994H352.89C352.86 307.557 352.67 308.081 352.318 308.567C351.973 309.048 351.519 309.438 350.956 309.736C350.394 310.029 349.775 310.176 349.102 310.176C348.387 310.176 347.763 310.05 347.229 309.798C346.702 309.546 346.263 309.2 345.911 308.761C345.565 308.321 345.305 307.817 345.129 307.249C344.959 306.675 344.874 306.068 344.874 305.43V305.061C344.874 304.422 344.959 303.818 345.129 303.25C345.305 302.676 345.565 302.169 345.911 301.729C346.263 301.29 346.702 300.944 347.229 300.692C347.763 300.44 348.387 300.314 349.102 300.314C349.846 300.314 350.496 300.467 351.053 300.771C351.609 301.07 352.046 301.48 352.362 302.002C352.685 302.518 352.86 303.104 352.89 303.76H351.343C351.313 303.367 351.202 303.013 351.009 302.696C350.821 302.38 350.563 302.128 350.235 301.94C349.913 301.747 349.535 301.65 349.102 301.65C348.604 301.65 348.185 301.75 347.845 301.949C347.511 302.143 347.244 302.406 347.045 302.74C346.852 303.068 346.711 303.435 346.623 303.839C346.541 304.237 346.5 304.645 346.5 305.061V305.43C346.5 305.846 346.541 306.256 346.623 306.66C346.705 307.064 346.843 307.431 347.036 307.759C347.235 308.087 347.502 308.351 347.836 308.55C348.176 308.743 348.598 308.84 349.102 308.84ZM356.484 300.49V310H354.858V300.49H356.484ZM362.725 300.49L358.216 305.939H355.939L355.693 304.516H357.557L360.747 300.49H362.725ZM360.976 310L357.478 305.693L358.523 304.516L363.041 310H360.976Z" fill="white"/>
<path d="M204.021 270.203H205.665L209.857 280.636L214.041 270.203H215.693L210.49 283H209.207L204.021 270.203ZM203.485 270.203H204.936L205.173 278.008V283H203.485V270.203ZM214.771 270.203H216.221V283H214.533V278.008L214.771 270.203ZM224.562 281.374V276.479C224.562 276.104 224.485 275.778 224.333 275.503C224.187 275.222 223.964 275.005 223.665 274.853C223.366 274.7 222.997 274.624 222.558 274.624C222.147 274.624 221.787 274.694 221.477 274.835C221.172 274.976 220.932 275.16 220.756 275.389C220.586 275.617 220.501 275.863 220.501 276.127H218.875C218.875 275.787 218.963 275.45 219.139 275.116C219.314 274.782 219.566 274.48 219.895 274.211C220.229 273.936 220.627 273.719 221.09 273.561C221.559 273.396 222.08 273.314 222.654 273.314C223.346 273.314 223.955 273.432 224.482 273.666C225.016 273.9 225.432 274.255 225.73 274.729C226.035 275.198 226.188 275.787 226.188 276.496V280.926C226.188 281.242 226.214 281.579 226.267 281.937C226.325 282.294 226.41 282.602 226.521 282.859V283H224.825C224.743 282.812 224.679 282.563 224.632 282.253C224.585 281.937 224.562 281.644 224.562 281.374ZM224.843 277.234L224.86 278.377H223.217C222.754 278.377 222.341 278.415 221.978 278.491C221.614 278.562 221.31 278.67 221.063 278.816C220.817 278.963 220.63 279.147 220.501 279.37C220.372 279.587 220.308 279.842 220.308 280.135C220.308 280.434 220.375 280.706 220.51 280.952C220.645 281.198 220.847 281.395 221.116 281.541C221.392 281.682 221.729 281.752 222.127 281.752C222.625 281.752 223.064 281.646 223.445 281.436C223.826 281.225 224.128 280.967 224.351 280.662C224.579 280.357 224.702 280.062 224.72 279.774L225.414 280.557C225.373 280.803 225.262 281.075 225.08 281.374C224.898 281.673 224.655 281.96 224.351 282.235C224.052 282.505 223.694 282.73 223.278 282.912C222.868 283.088 222.405 283.176 221.89 283.176C221.245 283.176 220.68 283.05 220.193 282.798C219.713 282.546 219.338 282.209 219.068 281.787C218.805 281.359 218.673 280.882 218.673 280.354C218.673 279.845 218.772 279.396 218.972 279.01C219.171 278.617 219.458 278.292 219.833 278.034C220.208 277.771 220.659 277.571 221.187 277.437C221.714 277.302 222.303 277.234 222.953 277.234H224.843ZM230.512 273.49V283H228.886V273.49H230.512ZM236.752 273.49L232.243 278.939H229.967L229.721 277.516H231.584L234.774 273.49H236.752ZM235.003 283L231.505 278.693L232.551 277.516L237.068 283H235.003ZM244.091 281.374V276.479C244.091 276.104 244.015 275.778 243.862 275.503C243.716 275.222 243.493 275.005 243.194 274.853C242.896 274.7 242.526 274.624 242.087 274.624C241.677 274.624 241.316 274.694 241.006 274.835C240.701 274.976 240.461 275.16 240.285 275.389C240.115 275.617 240.03 275.863 240.03 276.127H238.404C238.404 275.787 238.492 275.45 238.668 275.116C238.844 274.782 239.096 274.48 239.424 274.211C239.758 273.936 240.156 273.719 240.619 273.561C241.088 273.396 241.609 273.314 242.184 273.314C242.875 273.314 243.484 273.432 244.012 273.666C244.545 273.9 244.961 274.255 245.26 274.729C245.564 275.198 245.717 275.787 245.717 276.496V280.926C245.717 281.242 245.743 281.579 245.796 281.937C245.854 282.294 245.939 282.602 246.051 282.859V283H244.354C244.272 282.812 244.208 282.563 244.161 282.253C244.114 281.937 244.091 281.644 244.091 281.374ZM244.372 277.234L244.39 278.377H242.746C242.283 278.377 241.87 278.415 241.507 278.491C241.144 278.562 240.839 278.67 240.593 278.816C240.347 278.963 240.159 279.147 240.03 279.37C239.901 279.587 239.837 279.842 239.837 280.135C239.837 280.434 239.904 280.706 240.039 280.952C240.174 281.198 240.376 281.395 240.646 281.541C240.921 281.682 241.258 281.752 241.656 281.752C242.154 281.752 242.594 281.646 242.975 281.436C243.355 281.225 243.657 280.967 243.88 280.662C244.108 280.357 244.231 280.062 244.249 279.774L244.943 280.557C244.902 280.803 244.791 281.075 244.609 281.374C244.428 281.673 244.185 281.96 243.88 282.235C243.581 282.505 243.224 282.73 242.808 282.912C242.397 283.088 241.935 283.176 241.419 283.176C240.774 283.176 240.209 283.05 239.723 282.798C239.242 282.546 238.867 282.209 238.598 281.787C238.334 281.359 238.202 280.882 238.202 280.354C238.202 279.845 238.302 279.396 238.501 279.01C238.7 278.617 238.987 278.292 239.362 278.034C239.737 277.771 240.188 277.571 240.716 277.437C241.243 277.302 241.832 277.234 242.482 277.234H244.372ZM249.9 275.318V286.656H248.266V273.49H249.76L249.9 275.318ZM256.308 278.166V278.351C256.308 279.042 256.226 279.684 256.062 280.275C255.897 280.861 255.657 281.371 255.341 281.805C255.03 282.238 254.646 282.575 254.189 282.815C253.732 283.056 253.208 283.176 252.616 283.176C252.013 283.176 251.479 283.076 251.017 282.877C250.554 282.678 250.161 282.388 249.839 282.007C249.517 281.626 249.259 281.169 249.065 280.636C248.878 280.103 248.749 279.502 248.679 278.834V277.85C248.749 277.146 248.881 276.517 249.074 275.96C249.268 275.403 249.522 274.929 249.839 274.536C250.161 274.138 250.551 273.836 251.008 273.631C251.465 273.42 251.992 273.314 252.59 273.314C253.188 273.314 253.718 273.432 254.181 273.666C254.644 273.895 255.033 274.223 255.35 274.65C255.666 275.078 255.903 275.591 256.062 276.188C256.226 276.78 256.308 277.439 256.308 278.166ZM254.673 278.351V278.166C254.673 277.691 254.623 277.246 254.523 276.83C254.424 276.408 254.269 276.039 254.058 275.723C253.853 275.4 253.589 275.148 253.267 274.967C252.944 274.779 252.561 274.686 252.115 274.686C251.705 274.686 251.348 274.756 251.043 274.896C250.744 275.037 250.489 275.228 250.278 275.468C250.067 275.702 249.895 275.972 249.76 276.276C249.631 276.575 249.534 276.886 249.47 277.208V279.484C249.587 279.895 249.751 280.281 249.962 280.645C250.173 281.002 250.454 281.292 250.806 281.515C251.157 281.731 251.6 281.84 252.133 281.84C252.572 281.84 252.95 281.749 253.267 281.567C253.589 281.38 253.853 281.125 254.058 280.803C254.269 280.48 254.424 280.111 254.523 279.695C254.623 279.273 254.673 278.825 254.673 278.351ZM257.951 278.351V278.148C257.951 277.463 258.051 276.827 258.25 276.241C258.449 275.649 258.736 275.137 259.111 274.703C259.486 274.264 259.94 273.924 260.474 273.684C261.007 273.438 261.604 273.314 262.267 273.314C262.935 273.314 263.535 273.438 264.068 273.684C264.607 273.924 265.064 274.264 265.439 274.703C265.82 275.137 266.11 275.649 266.31 276.241C266.509 276.827 266.608 277.463 266.608 278.148V278.351C266.608 279.036 266.509 279.672 266.31 280.258C266.11 280.844 265.82 281.356 265.439 281.796C265.064 282.229 264.61 282.569 264.077 282.815C263.55 283.056 262.952 283.176 262.284 283.176C261.616 283.176 261.016 283.056 260.482 282.815C259.949 282.569 259.492 282.229 259.111 281.796C258.736 281.356 258.449 280.844 258.25 280.258C258.051 279.672 257.951 279.036 257.951 278.351ZM259.577 278.148V278.351C259.577 278.825 259.633 279.273 259.744 279.695C259.855 280.111 260.022 280.48 260.245 280.803C260.474 281.125 260.758 281.38 261.098 281.567C261.438 281.749 261.833 281.84 262.284 281.84C262.729 281.84 263.119 281.749 263.453 281.567C263.793 281.38 264.074 281.125 264.297 280.803C264.52 280.48 264.687 280.111 264.798 279.695C264.915 279.273 264.974 278.825 264.974 278.351V278.148C264.974 277.68 264.915 277.237 264.798 276.821C264.687 276.399 264.517 276.027 264.288 275.705C264.065 275.377 263.784 275.119 263.444 274.932C263.11 274.744 262.718 274.65 262.267 274.65C261.821 274.65 261.429 274.744 261.089 274.932C260.755 275.119 260.474 275.377 260.245 275.705C260.022 276.027 259.855 276.399 259.744 276.821C259.633 277.237 259.577 277.68 259.577 278.148ZM273.112 278.816H269.992L269.975 277.516H272.523C273.027 277.516 273.446 277.466 273.78 277.366C274.12 277.267 274.375 277.117 274.545 276.918C274.715 276.719 274.8 276.473 274.8 276.18C274.8 275.951 274.75 275.752 274.65 275.582C274.557 275.406 274.413 275.263 274.22 275.151C274.026 275.034 273.786 274.949 273.499 274.896C273.218 274.838 272.887 274.809 272.506 274.809H270.423V283H268.797V273.49H272.506C273.109 273.49 273.651 273.543 274.132 273.648C274.618 273.754 275.031 273.915 275.371 274.132C275.717 274.343 275.98 274.612 276.162 274.94C276.344 275.269 276.435 275.655 276.435 276.101C276.435 276.388 276.376 276.66 276.259 276.918C276.142 277.176 275.969 277.404 275.74 277.604C275.512 277.803 275.23 277.967 274.896 278.096C274.562 278.219 274.179 278.298 273.745 278.333L273.112 278.816ZM273.112 283H269.403L270.212 281.682H273.112C273.563 281.682 273.938 281.626 274.237 281.515C274.536 281.397 274.759 281.233 274.905 281.022C275.058 280.806 275.134 280.548 275.134 280.249C275.134 279.95 275.058 279.695 274.905 279.484C274.759 279.268 274.536 279.104 274.237 278.992C273.938 278.875 273.563 278.816 273.112 278.816H270.643L270.66 277.516H273.745L274.334 278.008C274.855 278.049 275.298 278.178 275.661 278.395C276.024 278.611 276.3 278.887 276.487 279.221C276.675 279.549 276.769 279.906 276.769 280.293C276.769 280.738 276.684 281.131 276.514 281.471C276.35 281.811 276.109 282.095 275.793 282.323C275.477 282.546 275.093 282.716 274.642 282.833C274.19 282.944 273.681 283 273.112 283Z" fill="white"/>
<path d="M177.047 327.015H173.804L173.786 325.652H176.73C177.217 325.652 177.642 325.57 178.005 325.406C178.368 325.242 178.649 325.008 178.849 324.703C179.054 324.393 179.156 324.023 179.156 323.596C179.156 323.127 179.065 322.746 178.884 322.453C178.708 322.154 178.436 321.938 178.066 321.803C177.703 321.662 177.24 321.592 176.678 321.592H174.182V333H172.485V320.203H176.678C177.334 320.203 177.92 320.271 178.436 320.405C178.951 320.534 179.388 320.739 179.745 321.021C180.108 321.296 180.384 321.647 180.571 322.075C180.759 322.503 180.853 323.016 180.853 323.613C180.853 324.141 180.718 324.618 180.448 325.046C180.179 325.468 179.804 325.813 179.323 326.083C178.849 326.353 178.292 326.525 177.653 326.602L177.047 327.015ZM176.968 333H173.136L174.094 331.62H176.968C177.507 331.62 177.964 331.526 178.339 331.339C178.72 331.151 179.01 330.888 179.209 330.548C179.408 330.202 179.508 329.795 179.508 329.326C179.508 328.852 179.423 328.441 179.253 328.096C179.083 327.75 178.816 327.483 178.453 327.296C178.09 327.108 177.621 327.015 177.047 327.015H174.63L174.647 325.652H177.952L178.312 326.145C178.928 326.197 179.449 326.373 179.877 326.672C180.305 326.965 180.63 327.34 180.853 327.797C181.081 328.254 181.195 328.758 181.195 329.309C181.195 330.105 181.02 330.779 180.668 331.33C180.322 331.875 179.833 332.291 179.2 332.578C178.567 332.859 177.823 333 176.968 333ZM187.005 328.456H185.256V327.454H186.873C187.324 327.454 187.682 327.398 187.945 327.287C188.209 327.17 188.396 327.009 188.508 326.804C188.619 326.599 188.675 326.358 188.675 326.083C188.675 325.837 188.61 325.605 188.481 325.389C188.358 325.166 188.159 324.987 187.884 324.853C187.608 324.712 187.239 324.642 186.776 324.642C186.401 324.642 186.062 324.709 185.757 324.844C185.452 324.973 185.209 325.151 185.027 325.38C184.852 325.603 184.764 325.854 184.764 326.136H183.138C183.138 325.556 183.302 325.058 183.63 324.642C183.964 324.22 184.406 323.895 184.957 323.666C185.514 323.438 186.12 323.323 186.776 323.323C187.327 323.323 187.819 323.385 188.253 323.508C188.692 323.625 189.064 323.801 189.369 324.035C189.674 324.264 189.905 324.551 190.063 324.896C190.228 325.236 190.31 325.632 190.31 326.083C190.31 326.405 190.233 326.71 190.081 326.997C189.929 327.284 189.709 327.539 189.422 327.762C189.135 327.979 188.786 328.148 188.376 328.271C187.972 328.395 187.515 328.456 187.005 328.456ZM185.256 327.841H187.005C187.573 327.841 188.074 327.896 188.508 328.008C188.941 328.113 189.305 328.271 189.598 328.482C189.891 328.693 190.11 328.954 190.257 329.265C190.409 329.569 190.485 329.921 190.485 330.319C190.485 330.765 190.395 331.166 190.213 331.523C190.037 331.875 189.785 332.174 189.457 332.42C189.129 332.666 188.736 332.854 188.279 332.982C187.828 333.111 187.327 333.176 186.776 333.176C186.161 333.176 185.563 333.07 184.983 332.859C184.403 332.648 183.926 332.323 183.551 331.884C183.176 331.438 182.988 330.873 182.988 330.188H184.614C184.614 330.475 184.705 330.747 184.887 331.005C185.068 331.263 185.32 331.471 185.643 331.629C185.971 331.787 186.349 331.866 186.776 331.866C187.233 331.866 187.614 331.796 187.919 331.655C188.224 331.515 188.452 331.327 188.604 331.093C188.763 330.858 188.842 330.604 188.842 330.328C188.842 329.971 188.771 329.684 188.631 329.467C188.49 329.25 188.273 329.092 187.98 328.992C187.693 328.887 187.324 328.834 186.873 328.834H185.256V327.841ZM198.062 330.838L201.296 323.49H202.86L198.624 333H197.499L193.28 323.49H194.845L198.062 330.838ZM194.37 323.49V333H192.744V323.49H194.37ZM201.7 333V323.49H203.335V333H201.7ZM205.523 328.351V328.148C205.523 327.463 205.623 326.827 205.822 326.241C206.021 325.649 206.309 325.137 206.684 324.703C207.059 324.264 207.513 323.924 208.046 323.684C208.579 323.438 209.177 323.314 209.839 323.314C210.507 323.314 211.107 323.438 211.641 323.684C212.18 323.924 212.637 324.264 213.012 324.703C213.393 325.137 213.683 325.649 213.882 326.241C214.081 326.827 214.181 327.463 214.181 328.148V328.351C214.181 329.036 214.081 329.672 213.882 330.258C213.683 330.844 213.393 331.356 213.012 331.796C212.637 332.229 212.183 332.569 211.649 332.815C211.122 333.056 210.524 333.176 209.856 333.176C209.188 333.176 208.588 333.056 208.055 332.815C207.521 332.569 207.064 332.229 206.684 331.796C206.309 331.356 206.021 330.844 205.822 330.258C205.623 329.672 205.523 329.036 205.523 328.351ZM207.149 328.148V328.351C207.149 328.825 207.205 329.273 207.316 329.695C207.428 330.111 207.595 330.48 207.817 330.803C208.046 331.125 208.33 331.38 208.67 331.567C209.01 331.749 209.405 331.84 209.856 331.84C210.302 331.84 210.691 331.749 211.025 331.567C211.365 331.38 211.646 331.125 211.869 330.803C212.092 330.48 212.259 330.111 212.37 329.695C212.487 329.273 212.546 328.825 212.546 328.351V328.148C212.546 327.68 212.487 327.237 212.37 326.821C212.259 326.399 212.089 326.027 211.86 325.705C211.638 325.377 211.356 325.119 211.017 324.932C210.683 324.744 210.29 324.65 209.839 324.65C209.394 324.65 209.001 324.744 208.661 324.932C208.327 325.119 208.046 325.377 207.817 325.705C207.595 326.027 207.428 326.399 207.316 326.821C207.205 327.237 207.149 327.68 207.149 328.148ZM217.846 325.318V336.656H216.211V323.49H217.705L217.846 325.318ZM224.253 328.166V328.351C224.253 329.042 224.171 329.684 224.007 330.275C223.843 330.861 223.603 331.371 223.286 331.805C222.976 332.238 222.592 332.575 222.135 332.815C221.678 333.056 221.153 333.176 220.562 333.176C219.958 333.176 219.425 333.076 218.962 332.877C218.499 332.678 218.106 332.388 217.784 332.007C217.462 331.626 217.204 331.169 217.011 330.636C216.823 330.103 216.694 329.502 216.624 328.834V327.85C216.694 327.146 216.826 326.517 217.02 325.96C217.213 325.403 217.468 324.929 217.784 324.536C218.106 324.138 218.496 323.836 218.953 323.631C219.41 323.42 219.938 323.314 220.535 323.314C221.133 323.314 221.663 323.432 222.126 323.666C222.589 323.895 222.979 324.223 223.295 324.65C223.611 325.078 223.849 325.591 224.007 326.188C224.171 326.78 224.253 327.439 224.253 328.166ZM222.618 328.351V328.166C222.618 327.691 222.568 327.246 222.469 326.83C222.369 326.408 222.214 326.039 222.003 325.723C221.798 325.4 221.534 325.148 221.212 324.967C220.89 324.779 220.506 324.686 220.061 324.686C219.65 324.686 219.293 324.756 218.988 324.896C218.689 325.037 218.435 325.228 218.224 325.468C218.013 325.702 217.84 325.972 217.705 326.276C217.576 326.575 217.479 326.886 217.415 327.208V329.484C217.532 329.895 217.696 330.281 217.907 330.645C218.118 331.002 218.399 331.292 218.751 331.515C219.103 331.731 219.545 331.84 220.078 331.84C220.518 331.84 220.896 331.749 221.212 331.567C221.534 331.38 221.798 331.125 222.003 330.803C222.214 330.48 222.369 330.111 222.469 329.695C222.568 329.273 222.618 328.825 222.618 328.351ZM227.663 326.76H230.52C231.287 326.76 231.935 326.895 232.462 327.164C232.989 327.428 233.388 327.794 233.657 328.263C233.933 328.726 234.07 329.253 234.07 329.845C234.07 330.284 233.994 330.697 233.842 331.084C233.689 331.465 233.461 331.799 233.156 332.086C232.857 332.373 232.485 332.599 232.04 332.763C231.601 332.921 231.094 333 230.52 333H226.477V323.49H228.103V331.664H230.52C230.988 331.664 231.363 331.579 231.645 331.409C231.926 331.239 232.128 331.02 232.251 330.75C232.374 330.48 232.436 330.199 232.436 329.906C232.436 329.619 232.374 329.338 232.251 329.062C232.128 328.787 231.926 328.559 231.645 328.377C231.363 328.189 230.988 328.096 230.52 328.096H227.663V326.76ZM240.047 333.176C239.385 333.176 238.784 333.064 238.245 332.842C237.712 332.613 237.252 332.294 236.865 331.884C236.484 331.474 236.191 330.987 235.986 330.425C235.781 329.862 235.679 329.247 235.679 328.579V328.21C235.679 327.437 235.793 326.748 236.021 326.145C236.25 325.535 236.561 325.02 236.953 324.598C237.346 324.176 237.791 323.856 238.289 323.64C238.787 323.423 239.303 323.314 239.836 323.314C240.516 323.314 241.102 323.432 241.594 323.666C242.092 323.9 242.499 324.229 242.815 324.65C243.132 325.066 243.366 325.559 243.519 326.127C243.671 326.689 243.747 327.305 243.747 327.973V328.702H236.646V327.375H242.121V327.252C242.098 326.83 242.01 326.42 241.857 326.021C241.711 325.623 241.477 325.295 241.154 325.037C240.832 324.779 240.393 324.65 239.836 324.65C239.467 324.65 239.127 324.729 238.816 324.888C238.506 325.04 238.239 325.269 238.017 325.573C237.794 325.878 237.621 326.25 237.498 326.689C237.375 327.129 237.313 327.636 237.313 328.21V328.579C237.313 329.03 237.375 329.455 237.498 329.854C237.627 330.246 237.812 330.592 238.052 330.891C238.298 331.189 238.594 331.424 238.939 331.594C239.291 331.764 239.689 331.849 240.135 331.849C240.709 331.849 241.195 331.731 241.594 331.497C241.992 331.263 242.341 330.949 242.64 330.557L243.624 331.339C243.419 331.649 243.158 331.945 242.842 332.227C242.525 332.508 242.136 332.736 241.673 332.912C241.216 333.088 240.674 333.176 240.047 333.176Z" fill="white"/>
<path d="M75.5488 331.62V333H65.8633V331.62H75.5488ZM66.1357 331.62V336.146H64.457L64.4482 331.62H66.1357ZM77.0254 331.62L77.0078 336.138H75.3291V331.62H77.0254ZM73.8877 320.203V321.592H68.2803V320.203H73.8877ZM75.3467 320.203V333H73.6592V320.203H75.3467ZM67.7002 320.203H69.3965L69.1328 325.354C69.0977 326.127 69.0244 326.842 68.9131 327.498C68.8018 328.148 68.6641 328.743 68.5 329.282C68.3359 329.821 68.1484 330.305 67.9375 330.732C67.7266 331.154 67.501 331.521 67.2607 331.831C67.0205 332.136 66.7686 332.388 66.5049 332.587C66.2471 332.78 65.9863 332.918 65.7227 333H64.9492V331.62H65.4941C65.6465 331.456 65.8193 331.219 66.0127 330.908C66.2119 330.598 66.4082 330.196 66.6016 329.704C66.8008 329.206 66.9736 328.6 67.1201 327.885C67.2725 327.17 67.375 326.326 67.4277 325.354L67.7002 320.203ZM78.3438 328.351V328.148C78.3438 327.463 78.4434 326.827 78.6426 326.241C78.8418 325.649 79.1289 325.137 79.5039 324.703C79.8789 324.264 80.333 323.924 80.8662 323.684C81.3994 323.438 81.9971 323.314 82.6592 323.314C83.3271 323.314 83.9277 323.438 84.4609 323.684C85 323.924 85.457 324.264 85.832 324.703C86.2129 325.137 86.5029 325.649 86.7021 326.241C86.9014 326.827 87.001 327.463 87.001 328.148V328.351C87.001 329.036 86.9014 329.672 86.7021 330.258C86.5029 330.844 86.2129 331.356 85.832 331.796C85.457 332.229 85.0029 332.569 84.4697 332.815C83.9424 333.056 83.3447 333.176 82.6768 333.176C82.0088 333.176 81.4082 333.056 80.875 332.815C80.3418 332.569 79.8848 332.229 79.5039 331.796C79.1289 331.356 78.8418 330.844 78.6426 330.258C78.4434 329.672 78.3438 329.036 78.3438 328.351ZM79.9697 328.148V328.351C79.9697 328.825 80.0254 329.273 80.1367 329.695C80.248 330.111 80.415 330.48 80.6377 330.803C80.8662 331.125 81.1504 331.38 81.4902 331.567C81.8301 331.749 82.2256 331.84 82.6768 331.84C83.1221 331.84 83.5117 331.749 83.8457 331.567C84.1855 331.38 84.4668 331.125 84.6895 330.803C84.9121 330.48 85.0791 330.111 85.1904 329.695C85.3076 329.273 85.3662 328.825 85.3662 328.351V328.148C85.3662 327.68 85.3076 327.237 85.1904 326.821C85.0791 326.399 84.9092 326.027 84.6807 325.705C84.458 325.377 84.1768 325.119 83.8369 324.932C83.5029 324.744 83.1104 324.65 82.6592 324.65C82.2139 324.65 81.8213 324.744 81.4814 324.932C81.1475 325.119 80.8662 325.377 80.6377 325.705C80.415 326.027 80.248 326.399 80.1367 326.821C80.0254 327.237 79.9697 327.68 79.9697 328.148ZM95.2539 323.49V324.835H90.6572V323.49H95.2539ZM96.6865 323.49V333H95.0605V323.49H96.6865ZM90.2617 323.49H91.8965L91.6504 328.078C91.6094 328.787 91.542 329.414 91.4482 329.959C91.3604 330.498 91.2373 330.961 91.0791 331.348C90.9268 331.734 90.7334 332.051 90.499 332.297C90.2705 332.537 89.9951 332.716 89.6729 332.833C89.3506 332.944 88.9785 333 88.5566 333H88.0469V331.567L88.3984 331.541C88.6504 331.523 88.8643 331.465 89.04 331.365C89.2217 331.266 89.374 331.119 89.4971 330.926C89.6201 330.727 89.7197 330.472 89.7959 330.161C89.8779 329.851 89.9395 329.481 89.9805 329.054C90.0273 328.626 90.0625 328.128 90.0859 327.56L90.2617 323.49ZM101.063 330.425L105.449 323.49H107.084V333H105.449V326.065L101.063 333H99.4463V323.49H101.063V330.425ZM116.146 327.612V328.931H111.118V327.612H116.146ZM111.461 323.49V333H109.835V323.49H111.461ZM117.464 323.49V333H115.829V323.49H117.464ZM123.889 331.84C124.275 331.84 124.633 331.761 124.961 331.603C125.289 331.444 125.559 331.228 125.77 330.952C125.98 330.671 126.101 330.352 126.13 329.994H127.677C127.647 330.557 127.457 331.081 127.105 331.567C126.76 332.048 126.306 332.438 125.743 332.736C125.181 333.029 124.562 333.176 123.889 333.176C123.174 333.176 122.55 333.05 122.017 332.798C121.489 332.546 121.05 332.2 120.698 331.761C120.353 331.321 120.092 330.817 119.916 330.249C119.746 329.675 119.661 329.068 119.661 328.43V328.061C119.661 327.422 119.746 326.818 119.916 326.25C120.092 325.676 120.353 325.169 120.698 324.729C121.05 324.29 121.489 323.944 122.017 323.692C122.55 323.44 123.174 323.314 123.889 323.314C124.633 323.314 125.283 323.467 125.84 323.771C126.396 324.07 126.833 324.48 127.149 325.002C127.472 325.518 127.647 326.104 127.677 326.76H126.13C126.101 326.367 125.989 326.013 125.796 325.696C125.608 325.38 125.351 325.128 125.022 324.94C124.7 324.747 124.322 324.65 123.889 324.65C123.391 324.65 122.972 324.75 122.632 324.949C122.298 325.143 122.031 325.406 121.832 325.74C121.639 326.068 121.498 326.435 121.41 326.839C121.328 327.237 121.287 327.645 121.287 328.061V328.43C121.287 328.846 121.328 329.256 121.41 329.66C121.492 330.064 121.63 330.431 121.823 330.759C122.022 331.087 122.289 331.351 122.623 331.55C122.963 331.743 123.385 331.84 123.889 331.84ZM131.271 323.49V333H129.646V323.49H131.271ZM137.512 323.49L133.003 328.939H130.727L130.48 327.516H132.344L135.534 323.49H137.512ZM135.763 333L132.265 328.693L133.311 327.516L137.828 333H135.763Z" fill="white"/>
<path d="M376.338 180.197V181.006C376.338 181.967 376.218 182.828 375.978 183.59C375.737 184.352 375.392 184.999 374.94 185.532C374.489 186.065 373.947 186.473 373.314 186.754C372.688 187.035 371.984 187.176 371.205 187.176C370.449 187.176 369.755 187.035 369.122 186.754C368.495 186.473 367.95 186.065 367.487 185.532C367.03 184.999 366.676 184.352 366.424 183.59C366.172 182.828 366.046 181.967 366.046 181.006V180.197C366.046 179.236 366.169 178.378 366.415 177.622C366.667 176.86 367.021 176.213 367.479 175.68C367.936 175.141 368.478 174.73 369.104 174.449C369.737 174.168 370.432 174.027 371.188 174.027C371.967 174.027 372.67 174.168 373.297 174.449C373.93 174.73 374.472 175.141 374.923 175.68C375.38 176.213 375.729 176.86 375.969 177.622C376.215 178.378 376.338 179.236 376.338 180.197ZM374.659 181.006V180.18C374.659 179.418 374.58 178.744 374.422 178.158C374.27 177.572 374.044 177.08 373.745 176.682C373.446 176.283 373.08 175.981 372.646 175.776C372.219 175.571 371.732 175.469 371.188 175.469C370.66 175.469 370.183 175.571 369.755 175.776C369.333 175.981 368.97 176.283 368.665 176.682C368.366 177.08 368.135 177.572 367.971 178.158C367.807 178.744 367.725 179.418 367.725 180.18V181.006C367.725 181.773 367.807 182.453 367.971 183.045C368.135 183.631 368.369 184.126 368.674 184.53C368.984 184.929 369.351 185.23 369.772 185.436C370.2 185.641 370.678 185.743 371.205 185.743C371.756 185.743 372.245 185.641 372.673 185.436C373.101 185.23 373.461 184.929 373.754 184.53C374.053 184.126 374.278 183.631 374.431 183.045C374.583 182.453 374.659 181.773 374.659 181.006ZM385.083 181.612V182.931H380.056V181.612H385.083ZM380.398 177.49V187H378.772V177.49H380.398ZM386.401 177.49V187H384.767V177.49H386.401ZM388.59 182.351V182.148C388.59 181.463 388.689 180.827 388.889 180.241C389.088 179.649 389.375 179.137 389.75 178.703C390.125 178.264 390.579 177.924 391.112 177.684C391.646 177.438 392.243 177.314 392.905 177.314C393.573 177.314 394.174 177.438 394.707 177.684C395.246 177.924 395.703 178.264 396.078 178.703C396.459 179.137 396.749 179.649 396.948 180.241C397.147 180.827 397.247 181.463 397.247 182.148V182.351C397.247 183.036 397.147 183.672 396.948 184.258C396.749 184.844 396.459 185.356 396.078 185.796C395.703 186.229 395.249 186.569 394.716 186.815C394.188 187.056 393.591 187.176 392.923 187.176C392.255 187.176 391.654 187.056 391.121 186.815C390.588 186.569 390.131 186.229 389.75 185.796C389.375 185.356 389.088 184.844 388.889 184.258C388.689 183.672 388.59 183.036 388.59 182.351ZM390.216 182.148V182.351C390.216 182.825 390.271 183.273 390.383 183.695C390.494 184.111 390.661 184.48 390.884 184.803C391.112 185.125 391.396 185.38 391.736 185.567C392.076 185.749 392.472 185.84 392.923 185.84C393.368 185.84 393.758 185.749 394.092 185.567C394.432 185.38 394.713 185.125 394.936 184.803C395.158 184.48 395.325 184.111 395.437 183.695C395.554 183.273 395.612 182.825 395.612 182.351V182.148C395.612 181.68 395.554 181.237 395.437 180.821C395.325 180.399 395.155 180.027 394.927 179.705C394.704 179.377 394.423 179.119 394.083 178.932C393.749 178.744 393.356 178.65 392.905 178.65C392.46 178.65 392.067 178.744 391.728 178.932C391.394 179.119 391.112 179.377 390.884 179.705C390.661 180.027 390.494 180.399 390.383 180.821C390.271 181.237 390.216 181.68 390.216 182.148ZM400.912 179.318V190.656H399.277V177.49H400.771L400.912 179.318ZM407.319 182.166V182.351C407.319 183.042 407.237 183.684 407.073 184.275C406.909 184.861 406.669 185.371 406.353 185.805C406.042 186.238 405.658 186.575 405.201 186.815C404.744 187.056 404.22 187.176 403.628 187.176C403.024 187.176 402.491 187.076 402.028 186.877C401.565 186.678 401.173 186.388 400.851 186.007C400.528 185.626 400.271 185.169 400.077 184.636C399.89 184.103 399.761 183.502 399.69 182.834V181.85C399.761 181.146 399.893 180.517 400.086 179.96C400.279 179.403 400.534 178.929 400.851 178.536C401.173 178.138 401.562 177.836 402.02 177.631C402.477 177.42 403.004 177.314 403.602 177.314C404.199 177.314 404.729 177.432 405.192 177.666C405.655 177.895 406.045 178.223 406.361 178.65C406.678 179.078 406.915 179.591 407.073 180.188C407.237 180.78 407.319 181.439 407.319 182.166ZM405.685 182.351V182.166C405.685 181.691 405.635 181.246 405.535 180.83C405.436 180.408 405.28 180.039 405.069 179.723C404.864 179.4 404.601 179.148 404.278 178.967C403.956 178.779 403.572 178.686 403.127 178.686C402.717 178.686 402.359 178.756 402.055 178.896C401.756 179.037 401.501 179.228 401.29 179.468C401.079 179.702 400.906 179.972 400.771 180.276C400.643 180.575 400.546 180.886 400.481 181.208V183.484C400.599 183.895 400.763 184.281 400.974 184.645C401.185 185.002 401.466 185.292 401.817 185.515C402.169 185.731 402.611 185.84 403.145 185.84C403.584 185.84 403.962 185.749 404.278 185.567C404.601 185.38 404.864 185.125 405.069 184.803C405.28 184.48 405.436 184.111 405.535 183.695C405.635 183.273 405.685 182.825 405.685 182.351Z" fill="white"/>
<path d="M734.506 10.5723V11.3809C734.506 12.3418 734.386 13.2031 734.146 13.9648C733.905 14.7266 733.56 15.374 733.108 15.9072C732.657 16.4404 732.115 16.8477 731.482 17.1289C730.855 17.4102 730.152 17.5508 729.373 17.5508C728.617 17.5508 727.923 17.4102 727.29 17.1289C726.663 16.8477 726.118 16.4404 725.655 15.9072C725.198 15.374 724.844 14.7266 724.592 13.9648C724.34 13.2031 724.214 12.3418 724.214 11.3809V10.5723C724.214 9.61133 724.337 8.75293 724.583 7.99707C724.835 7.23535 725.189 6.58789 725.646 6.05469C726.104 5.51563 726.646 5.10547 727.272 4.82422C727.905 4.54297 728.6 4.40234 729.355 4.40234C730.135 4.40234 730.838 4.54297 731.465 4.82422C732.098 5.10547 732.64 5.51563 733.091 6.05469C733.548 6.58789 733.896 7.23535 734.137 7.99707C734.383 8.75293 734.506 9.61133 734.506 10.5723ZM732.827 11.3809V10.5547C732.827 9.79297 732.748 9.11914 732.59 8.5332C732.438 7.94727 732.212 7.45508 731.913 7.05664C731.614 6.6582 731.248 6.35645 730.814 6.15137C730.387 5.94629 729.9 5.84375 729.355 5.84375C728.828 5.84375 728.351 5.94629 727.923 6.15137C727.501 6.35645 727.138 6.6582 726.833 7.05664C726.534 7.45508 726.303 7.94727 726.139 8.5332C725.975 9.11914 725.893 9.79297 725.893 10.5547V11.3809C725.893 12.1484 725.975 12.8281 726.139 13.4199C726.303 14.0059 726.537 14.501 726.842 14.9053C727.152 15.3037 727.519 15.6055 727.94 15.8105C728.368 16.0156 728.846 16.1182 729.373 16.1182C729.924 16.1182 730.413 16.0156 730.841 15.8105C731.269 15.6055 731.629 15.3037 731.922 14.9053C732.221 14.501 732.446 14.0059 732.599 13.4199C732.751 12.8281 732.827 12.1484 732.827 11.3809ZM737.898 7.86523L739.981 11.3281L742.091 7.86523H743.998L740.887 12.5586L744.095 17.375H742.214L740.017 13.8066L737.819 17.375H735.93L739.129 12.5586L736.026 7.86523H737.898ZM751.337 15.749V10.8535C751.337 10.4785 751.261 10.1533 751.108 9.87793C750.962 9.59668 750.739 9.37988 750.44 9.22754C750.142 9.0752 749.772 8.99902 749.333 8.99902C748.923 8.99902 748.562 9.06934 748.252 9.20996C747.947 9.35059 747.707 9.53516 747.531 9.76367C747.361 9.99219 747.276 10.2383 747.276 10.502H745.65C745.65 10.1621 745.738 9.8252 745.914 9.49121C746.09 9.15723 746.342 8.85547 746.67 8.58594C747.004 8.31055 747.402 8.09375 747.865 7.93555C748.334 7.77148 748.855 7.68945 749.43 7.68945C750.121 7.68945 750.73 7.80664 751.258 8.04102C751.791 8.27539 752.207 8.62988 752.506 9.10449C752.811 9.57324 752.963 10.1621 752.963 10.8711V15.3008C752.963 15.6172 752.989 15.9541 753.042 16.3115C753.101 16.6689 753.186 16.9766 753.297 17.2344V17.375H751.601C751.519 17.1875 751.454 16.9385 751.407 16.6279C751.36 16.3115 751.337 16.0186 751.337 15.749ZM751.618 11.6094L751.636 12.752H749.992C749.529 12.752 749.116 12.79 748.753 12.8662C748.39 12.9365 748.085 13.0449 747.839 13.1914C747.593 13.3379 747.405 13.5225 747.276 13.7451C747.147 13.9619 747.083 14.2168 747.083 14.5098C747.083 14.8086 747.15 15.0811 747.285 15.3271C747.42 15.5732 747.622 15.7695 747.892 15.916C748.167 16.0566 748.504 16.127 748.902 16.127C749.4 16.127 749.84 16.0215 750.221 15.8105C750.602 15.5996 750.903 15.3418 751.126 15.0371C751.354 14.7324 751.478 14.4365 751.495 14.1494L752.189 14.9316C752.148 15.1777 752.037 15.4502 751.855 15.749C751.674 16.0479 751.431 16.335 751.126 16.6104C750.827 16.8799 750.47 17.1055 750.054 17.2871C749.644 17.4629 749.181 17.5508 748.665 17.5508C748.021 17.5508 747.455 17.4248 746.969 17.1729C746.488 16.9209 746.113 16.584 745.844 16.1621C745.58 15.7344 745.448 15.2568 745.448 14.7295C745.448 14.2197 745.548 13.7715 745.747 13.3848C745.946 12.9922 746.233 12.667 746.608 12.4092C746.983 12.1455 747.435 11.9463 747.962 11.8115C748.489 11.6768 749.078 11.6094 749.729 11.6094H751.618Z" fill="white"/>
</svg>
