<svg width="391" height="397" viewBox="0 0 391 397" fill="none" xmlns="http://www.w3.org/2000/svg">
<path d="M74.8438 320.705V322.085H67.918V320.705H74.8438ZM68.1816 315.203V328H66.4854V315.203H68.1816ZM76.3203 315.203V328H74.6328V315.203H76.3203ZM78.6582 323.351V323.148C78.6582 322.463 78.7578 321.827 78.957 321.241C79.1562 320.649 79.4434 320.137 79.8184 319.703C80.1934 319.264 80.6475 318.924 81.1807 318.684C81.7139 318.438 82.3115 318.314 82.9736 318.314C83.6416 318.314 84.2422 318.438 84.7754 318.684C85.3145 318.924 85.7715 319.264 86.1465 319.703C86.5273 320.137 86.8174 320.649 87.0166 321.241C87.2158 321.827 87.3154 322.463 87.3154 323.148V323.351C87.3154 324.036 87.2158 324.672 87.0166 325.258C86.8174 325.844 86.5273 326.356 86.1465 326.796C85.7715 327.229 85.3174 327.569 84.7842 327.815C84.2568 328.056 83.6592 328.176 82.9912 328.176C82.3232 328.176 81.7227 328.056 81.1895 327.815C80.6562 327.569 80.1992 327.229 79.8184 326.796C79.4434 326.356 79.1562 325.844 78.957 325.258C78.7578 324.672 78.6582 324.036 78.6582 323.351ZM80.2842 323.148V323.351C80.2842 323.825 80.3398 324.273 80.4512 324.695C80.5625 325.111 80.7295 325.48 80.9521 325.803C81.1807 326.125 81.4648 326.38 81.8047 326.567C82.1445 326.749 82.54 326.84 82.9912 326.84C83.4365 326.84 83.8262 326.749 84.1602 326.567C84.5 326.38 84.7812 326.125 85.0039 325.803C85.2266 325.48 85.3936 325.111 85.5049 324.695C85.6221 324.273 85.6807 323.825 85.6807 323.351V323.148C85.6807 322.68 85.6221 322.237 85.5049 321.821C85.3936 321.399 85.2236 321.027 84.9951 320.705C84.7725 320.377 84.4912 320.119 84.1514 319.932C83.8174 319.744 83.4248 319.65 82.9736 319.65C82.5283 319.65 82.1357 319.744 81.7959 319.932C81.4619 320.119 81.1807 320.377 80.9521 320.705C80.7295 321.027 80.5625 321.399 80.4512 321.821C80.3398 322.237 80.2842 322.68 80.2842 323.148ZM93.8193 323.816H90.6992L90.6816 322.516H93.2305C93.7344 322.516 94.1533 322.466 94.4873 322.366C94.8271 322.267 95.082 322.117 95.252 321.918C95.4219 321.719 95.5068 321.473 95.5068 321.18C95.5068 320.951 95.457 320.752 95.3574 320.582C95.2637 320.406 95.1201 320.263 94.9268 320.151C94.7334 320.034 94.4932 319.949 94.2061 319.896C93.9248 319.838 93.5938 319.809 93.2129 319.809H91.1299V328H89.5039V318.49H93.2129C93.8164 318.49 94.3584 318.543 94.8389 318.648C95.3252 318.754 95.7383 318.915 96.0781 319.132C96.4238 319.343 96.6875 319.612 96.8691 319.94C97.0508 320.269 97.1416 320.655 97.1416 321.101C97.1416 321.388 97.083 321.66 96.9658 321.918C96.8486 322.176 96.6758 322.404 96.4473 322.604C96.2188 322.803 95.9375 322.967 95.6035 323.096C95.2695 323.219 94.8857 323.298 94.4521 323.333L93.8193 323.816ZM93.8193 328H90.1104L90.9189 326.682H93.8193C94.2705 326.682 94.6455 326.626 94.9443 326.515C95.2432 326.397 95.4658 326.233 95.6123 326.022C95.7646 325.806 95.8408 325.548 95.8408 325.249C95.8408 324.95 95.7646 324.695 95.6123 324.484C95.4658 324.268 95.2432 324.104 94.9443 323.992C94.6455 323.875 94.2705 323.816 93.8193 323.816H91.3496L91.3672 322.516H94.4521L95.041 323.008C95.5625 323.049 96.0049 323.178 96.3682 323.395C96.7314 323.611 97.0068 323.887 97.1943 324.221C97.3818 324.549 97.4756 324.906 97.4756 325.293C97.4756 325.738 97.3906 326.131 97.2207 326.471C97.0566 326.811 96.8164 327.095 96.5 327.323C96.1836 327.546 95.7998 327.716 95.3486 327.833C94.8975 327.944 94.3877 328 93.8193 328ZM101.413 325.425L105.799 318.49H107.434V328H105.799V321.065L101.413 328H99.7959V318.49H101.413V325.425ZM111.811 318.49V328H110.185V318.49H111.811ZM118.051 318.49L113.542 323.939H111.266L111.02 322.516H112.883L116.073 318.49H118.051ZM116.302 328L112.804 323.693L113.85 322.516L118.367 328H116.302ZM119.158 323.351V323.148C119.158 322.463 119.258 321.827 119.457 321.241C119.656 320.649 119.943 320.137 120.318 319.703C120.693 319.264 121.147 318.924 121.681 318.684C122.214 318.438 122.812 318.314 123.474 318.314C124.142 318.314 124.742 318.438 125.275 318.684C125.814 318.924 126.271 319.264 126.646 319.703C127.027 320.137 127.317 320.649 127.517 321.241C127.716 321.827 127.815 322.463 127.815 323.148V323.351C127.815 324.036 127.716 324.672 127.517 325.258C127.317 325.844 127.027 326.356 126.646 326.796C126.271 327.229 125.817 327.569 125.284 327.815C124.757 328.056 124.159 328.176 123.491 328.176C122.823 328.176 122.223 328.056 121.689 327.815C121.156 327.569 120.699 327.229 120.318 326.796C119.943 326.356 119.656 325.844 119.457 325.258C119.258 324.672 119.158 324.036 119.158 323.351ZM120.784 323.148V323.351C120.784 323.825 120.84 324.273 120.951 324.695C121.062 325.111 121.229 325.48 121.452 325.803C121.681 326.125 121.965 326.38 122.305 326.567C122.645 326.749 123.04 326.84 123.491 326.84C123.937 326.84 124.326 326.749 124.66 326.567C125 326.38 125.281 326.125 125.504 325.803C125.727 325.48 125.894 325.111 126.005 324.695C126.122 324.273 126.181 323.825 126.181 323.351V323.148C126.181 322.68 126.122 322.237 126.005 321.821C125.894 321.399 125.724 321.027 125.495 320.705C125.272 320.377 124.991 320.119 124.651 319.932C124.317 319.744 123.925 319.65 123.474 319.65C123.028 319.65 122.636 319.744 122.296 319.932C121.962 320.119 121.681 320.377 121.452 320.705C121.229 321.027 121.062 321.399 120.951 321.821C120.84 322.237 120.784 322.68 120.784 323.148ZM134.319 323.816H131.199L131.182 322.516H133.73C134.234 322.516 134.653 322.466 134.987 322.366C135.327 322.267 135.582 322.117 135.752 321.918C135.922 321.719 136.007 321.473 136.007 321.18C136.007 320.951 135.957 320.752 135.857 320.582C135.764 320.406 135.62 320.263 135.427 320.151C135.233 320.034 134.993 319.949 134.706 319.896C134.425 319.838 134.094 319.809 133.713 319.809H131.63V328H130.004V318.49H133.713C134.316 318.49 134.858 318.543 135.339 318.648C135.825 318.754 136.238 318.915 136.578 319.132C136.924 319.343 137.188 319.612 137.369 319.94C137.551 320.269 137.642 320.655 137.642 321.101C137.642 321.388 137.583 321.66 137.466 321.918C137.349 322.176 137.176 322.404 136.947 322.604C136.719 322.803 136.438 322.967 136.104 323.096C135.77 323.219 135.386 323.298 134.952 323.333L134.319 323.816ZM134.319 328H130.61L131.419 326.682H134.319C134.771 326.682 135.146 326.626 135.444 326.515C135.743 326.397 135.966 326.233 136.112 326.022C136.265 325.806 136.341 325.548 136.341 325.249C136.341 324.95 136.265 324.695 136.112 324.484C135.966 324.268 135.743 324.104 135.444 323.992C135.146 323.875 134.771 323.816 134.319 323.816H131.85L131.867 322.516H134.952L135.541 323.008C136.062 323.049 136.505 323.178 136.868 323.395C137.231 323.611 137.507 323.887 137.694 324.221C137.882 324.549 137.976 324.906 137.976 325.293C137.976 325.738 137.891 326.131 137.721 326.471C137.557 326.811 137.316 327.095 137 327.323C136.684 327.546 136.3 327.716 135.849 327.833C135.397 327.944 134.888 328 134.319 328ZM139.725 323.351V323.148C139.725 322.463 139.824 321.827 140.023 321.241C140.223 320.649 140.51 320.137 140.885 319.703C141.26 319.264 141.714 318.924 142.247 318.684C142.78 318.438 143.378 318.314 144.04 318.314C144.708 318.314 145.309 318.438 145.842 318.684C146.381 318.924 146.838 319.264 147.213 319.703C147.594 320.137 147.884 320.649 148.083 321.241C148.282 321.827 148.382 322.463 148.382 323.148V323.351C148.382 324.036 148.282 324.672 148.083 325.258C147.884 325.844 147.594 326.356 147.213 326.796C146.838 327.229 146.384 327.569 145.851 327.815C145.323 328.056 144.726 328.176 144.058 328.176C143.39 328.176 142.789 328.056 142.256 327.815C141.723 327.569 141.266 327.229 140.885 326.796C140.51 326.356 140.223 325.844 140.023 325.258C139.824 324.672 139.725 324.036 139.725 323.351ZM141.351 323.148V323.351C141.351 323.825 141.406 324.273 141.518 324.695C141.629 325.111 141.796 325.48 142.019 325.803C142.247 326.125 142.531 326.38 142.871 326.567C143.211 326.749 143.606 326.84 144.058 326.84C144.503 326.84 144.893 326.749 145.227 326.567C145.566 326.38 145.848 326.125 146.07 325.803C146.293 325.48 146.46 325.111 146.571 324.695C146.688 324.273 146.747 323.825 146.747 323.351V323.148C146.747 322.68 146.688 322.237 146.571 321.821C146.46 321.399 146.29 321.027 146.062 320.705C145.839 320.377 145.558 320.119 145.218 319.932C144.884 319.744 144.491 319.65 144.04 319.65C143.595 319.65 143.202 319.744 142.862 319.932C142.528 320.119 142.247 320.377 142.019 320.705C141.796 321.027 141.629 321.399 141.518 321.821C141.406 322.237 141.351 322.68 141.351 323.148Z" fill="white"/>
<path d="M6.22266 61.3369L1.98633 73H0.254883L5.13281 60.2031H6.24902L6.22266 61.3369ZM9.77344 73L5.52832 61.3369L5.50195 60.2031H6.61816L11.5137 73H9.77344ZM9.55371 68.2627V69.6514H2.36426V68.2627H9.55371ZM19.4326 67.6123V68.9307H14.4053V67.6123H19.4326ZM14.748 63.4902V73H13.1221V63.4902H14.748ZM20.751 63.4902V73H19.1162V63.4902H20.751ZM25.1279 70.4248L29.5137 63.4902H31.1484V73H29.5137V66.0654L25.1279 73H23.5107V63.4902H25.1279V70.4248ZM38.2236 68.8164H35.1035L35.0859 67.5156H37.6348C38.1387 67.5156 38.5576 67.4658 38.8916 67.3662C39.2314 67.2666 39.4863 67.1172 39.6562 66.918C39.8262 66.7188 39.9111 66.4727 39.9111 66.1797C39.9111 65.9512 39.8613 65.752 39.7617 65.582C39.668 65.4062 39.5244 65.2627 39.3311 65.1514C39.1377 65.0342 38.8975 64.9492 38.6104 64.8965C38.3291 64.8379 37.998 64.8086 37.6172 64.8086H35.5342V73H33.9082V63.4902H37.6172C38.2207 63.4902 38.7627 63.543 39.2432 63.6484C39.7295 63.7539 40.1426 63.915 40.4824 64.1318C40.8281 64.3428 41.0918 64.6123 41.2734 64.9404C41.4551 65.2686 41.5459 65.6553 41.5459 66.1006C41.5459 66.3877 41.4873 66.6602 41.3701 66.918C41.2529 67.1758 41.0801 67.4043 40.8516 67.6035C40.623 67.8027 40.3418 67.9668 40.0078 68.0957C39.6738 68.2188 39.29 68.2979 38.8564 68.333L38.2236 68.8164ZM38.2236 73H34.5146L35.3232 71.6816H38.2236C38.6748 71.6816 39.0498 71.626 39.3486 71.5146C39.6475 71.3975 39.8701 71.2334 40.0166 71.0225C40.1689 70.8057 40.2451 70.5479 40.2451 70.249C40.2451 69.9502 40.1689 69.6953 40.0166 69.4844C39.8701 69.2676 39.6475 69.1035 39.3486 68.9922C39.0498 68.875 38.6748 68.8164 38.2236 68.8164H35.7539L35.7715 67.5156H38.8564L39.4453 68.0078C39.9668 68.0488 40.4092 68.1777 40.7725 68.3945C41.1357 68.6113 41.4111 68.8867 41.5986 69.2207C41.7861 69.5488 41.8799 69.9062 41.8799 70.293C41.8799 70.7383 41.7949 71.1309 41.625 71.4707C41.4609 71.8105 41.2207 72.0947 40.9043 72.3232C40.5879 72.5459 40.2041 72.7158 39.7529 72.833C39.3018 72.9443 38.792 73 38.2236 73ZM49.667 71.374V66.4785C49.667 66.1035 49.5908 65.7783 49.4385 65.5029C49.292 65.2217 49.0693 65.0049 48.7705 64.8525C48.4717 64.7002 48.1025 64.624 47.6631 64.624C47.2529 64.624 46.8926 64.6943 46.582 64.835C46.2773 64.9756 46.0371 65.1602 45.8613 65.3887C45.6914 65.6172 45.6064 65.8633 45.6064 66.127H43.9805C43.9805 65.7871 44.0684 65.4502 44.2441 65.1162C44.4199 64.7822 44.6719 64.4805 45 64.2109C45.334 63.9355 45.7324 63.7188 46.1953 63.5605C46.6641 63.3965 47.1855 63.3145 47.7598 63.3145C48.4512 63.3145 49.0605 63.4316 49.5879 63.666C50.1211 63.9004 50.5371 64.2549 50.8359 64.7295C51.1406 65.1982 51.293 65.7871 51.293 66.4961V70.9258C51.293 71.2422 51.3193 71.5791 51.3721 71.9365C51.4307 72.2939 51.5156 72.6016 51.627 72.8594V73H49.9307C49.8486 72.8125 49.7842 72.5635 49.7373 72.2529C49.6904 71.9365 49.667 71.6436 49.667 71.374ZM49.9482 67.2344L49.9658 68.377H48.3223C47.8594 68.377 47.4463 68.415 47.083 68.4912C46.7197 68.5615 46.415 68.6699 46.1689 68.8164C45.9229 68.9629 45.7354 69.1475 45.6064 69.3701C45.4775 69.5869 45.4131 69.8418 45.4131 70.1348C45.4131 70.4336 45.4805 70.7061 45.6152 70.9521C45.75 71.1982 45.9521 71.3945 46.2217 71.541C46.4971 71.6816 46.834 71.752 47.2324 71.752C47.7305 71.752 48.1699 71.6465 48.5508 71.4355C48.9316 71.2246 49.2334 70.9668 49.4561 70.6621C49.6846 70.3574 49.8076 70.0615 49.8252 69.7744L50.5195 70.5566C50.4785 70.8027 50.3672 71.0752 50.1855 71.374C50.0039 71.6729 49.7607 71.96 49.4561 72.2354C49.1572 72.5049 48.7998 72.7305 48.3838 72.9121C47.9736 73.0879 47.5107 73.1758 46.9951 73.1758C46.3506 73.1758 45.7852 73.0498 45.2988 72.7979C44.8184 72.5459 44.4434 72.209 44.1738 71.7871C43.9102 71.3594 43.7783 70.8818 43.7783 70.3545C43.7783 69.8447 43.8779 69.3965 44.0771 69.0098C44.2764 68.6172 44.5635 68.292 44.9385 68.0342C45.3135 67.7705 45.7646 67.5713 46.292 67.4365C46.8193 67.3018 47.4082 67.2344 48.0586 67.2344H49.9482Z" fill="white"/>
<path d="M267.021 282.203H268.665L272.857 292.636L277.041 282.203H278.693L273.49 295H272.207L267.021 282.203ZM266.485 282.203H267.936L268.173 290.008V295H266.485V282.203ZM277.771 282.203H279.221V295H277.533V290.008L277.771 282.203ZM283.29 288.76H286.146C286.914 288.76 287.562 288.895 288.089 289.164C288.616 289.428 289.015 289.794 289.284 290.263C289.56 290.726 289.697 291.253 289.697 291.845C289.697 292.284 289.621 292.697 289.469 293.084C289.316 293.465 289.088 293.799 288.783 294.086C288.484 294.373 288.112 294.599 287.667 294.763C287.228 294.921 286.721 295 286.146 295H282.104V285.49H283.729V293.664H286.146C286.615 293.664 286.99 293.579 287.271 293.409C287.553 293.239 287.755 293.02 287.878 292.75C288.001 292.48 288.062 292.199 288.062 291.906C288.062 291.619 288.001 291.338 287.878 291.062C287.755 290.787 287.553 290.559 287.271 290.377C286.99 290.189 286.615 290.096 286.146 290.096H283.29V288.76ZM293.081 285.49V295H291.455V285.49H293.081ZM299.734 293.84C300.121 293.84 300.479 293.761 300.807 293.603C301.135 293.444 301.404 293.228 301.615 292.952C301.826 292.671 301.946 292.352 301.976 291.994H303.522C303.493 292.557 303.303 293.081 302.951 293.567C302.605 294.048 302.151 294.438 301.589 294.736C301.026 295.029 300.408 295.176 299.734 295.176C299.02 295.176 298.396 295.05 297.862 294.798C297.335 294.546 296.896 294.2 296.544 293.761C296.198 293.321 295.938 292.817 295.762 292.249C295.592 291.675 295.507 291.068 295.507 290.43V290.061C295.507 289.422 295.592 288.818 295.762 288.25C295.938 287.676 296.198 287.169 296.544 286.729C296.896 286.29 297.335 285.944 297.862 285.692C298.396 285.44 299.02 285.314 299.734 285.314C300.479 285.314 301.129 285.467 301.686 285.771C302.242 286.07 302.679 286.48 302.995 287.002C303.317 287.518 303.493 288.104 303.522 288.76H301.976C301.946 288.367 301.835 288.013 301.642 287.696C301.454 287.38 301.196 287.128 300.868 286.94C300.546 286.747 300.168 286.65 299.734 286.65C299.236 286.65 298.817 286.75 298.478 286.949C298.144 287.143 297.877 287.406 297.678 287.74C297.484 288.068 297.344 288.435 297.256 288.839C297.174 289.237 297.133 289.645 297.133 290.061V290.43C297.133 290.846 297.174 291.256 297.256 291.66C297.338 292.064 297.476 292.431 297.669 292.759C297.868 293.087 298.135 293.351 298.469 293.55C298.809 293.743 299.23 293.84 299.734 293.84ZM318.191 293.62V295H311.415V293.62H318.191ZM311.758 282.203V295H310.062V282.203H311.758ZM317.295 287.705V289.085H311.415V287.705H317.295ZM318.104 282.203V283.592H311.415V282.203H318.104ZM324.511 290.816H321.391L321.373 289.516H323.922C324.426 289.516 324.845 289.466 325.179 289.366C325.519 289.267 325.773 289.117 325.943 288.918C326.113 288.719 326.198 288.473 326.198 288.18C326.198 287.951 326.148 287.752 326.049 287.582C325.955 287.406 325.812 287.263 325.618 287.151C325.425 287.034 325.185 286.949 324.897 286.896C324.616 286.838 324.285 286.809 323.904 286.809H321.821V295H320.195V285.49H323.904C324.508 285.49 325.05 285.543 325.53 285.648C326.017 285.754 326.43 285.915 326.77 286.132C327.115 286.343 327.379 286.612 327.561 286.94C327.742 287.269 327.833 287.655 327.833 288.101C327.833 288.388 327.774 288.66 327.657 288.918C327.54 289.176 327.367 289.404 327.139 289.604C326.91 289.803 326.629 289.967 326.295 290.096C325.961 290.219 325.577 290.298 325.144 290.333L324.511 290.816ZM324.511 295H320.802L321.61 293.682H324.511C324.962 293.682 325.337 293.626 325.636 293.515C325.935 293.397 326.157 293.233 326.304 293.022C326.456 292.806 326.532 292.548 326.532 292.249C326.532 291.95 326.456 291.695 326.304 291.484C326.157 291.268 325.935 291.104 325.636 290.992C325.337 290.875 324.962 290.816 324.511 290.816H322.041L322.059 289.516H325.144L325.732 290.008C326.254 290.049 326.696 290.178 327.06 290.395C327.423 290.611 327.698 290.887 327.886 291.221C328.073 291.549 328.167 291.906 328.167 292.293C328.167 292.738 328.082 293.131 327.912 293.471C327.748 293.811 327.508 294.095 327.191 294.323C326.875 294.546 326.491 294.716 326.04 294.833C325.589 294.944 325.079 295 324.511 295ZM334.152 293.84C334.539 293.84 334.896 293.761 335.225 293.603C335.553 293.444 335.822 293.228 336.033 292.952C336.244 292.671 336.364 292.352 336.394 291.994H337.94C337.911 292.557 337.721 293.081 337.369 293.567C337.023 294.048 336.569 294.438 336.007 294.736C335.444 295.029 334.826 295.176 334.152 295.176C333.438 295.176 332.813 295.05 332.28 294.798C331.753 294.546 331.313 294.2 330.962 293.761C330.616 293.321 330.355 292.817 330.18 292.249C330.01 291.675 329.925 291.068 329.925 290.43V290.061C329.925 289.422 330.01 288.818 330.18 288.25C330.355 287.676 330.616 287.169 330.962 286.729C331.313 286.29 331.753 285.944 332.28 285.692C332.813 285.44 333.438 285.314 334.152 285.314C334.896 285.314 335.547 285.467 336.104 285.771C336.66 286.07 337.097 286.48 337.413 287.002C337.735 287.518 337.911 288.104 337.94 288.76H336.394C336.364 288.367 336.253 288.013 336.06 287.696C335.872 287.38 335.614 287.128 335.286 286.94C334.964 286.747 334.586 286.65 334.152 286.65C333.654 286.65 333.235 286.75 332.896 286.949C332.562 287.143 332.295 287.406 332.096 287.74C331.902 288.068 331.762 288.435 331.674 288.839C331.592 289.237 331.551 289.645 331.551 290.061V290.43C331.551 290.846 331.592 291.256 331.674 291.66C331.756 292.064 331.894 292.431 332.087 292.759C332.286 293.087 332.553 293.351 332.887 293.55C333.227 293.743 333.648 293.84 334.152 293.84ZM343.645 285.49V295H342.01V285.49H343.645ZM346.835 285.49V286.809H338.881V285.49H346.835ZM353.901 293.374V288.479C353.901 288.104 353.825 287.778 353.673 287.503C353.526 287.222 353.304 287.005 353.005 286.853C352.706 286.7 352.337 286.624 351.897 286.624C351.487 286.624 351.127 286.694 350.816 286.835C350.512 286.976 350.271 287.16 350.096 287.389C349.926 287.617 349.841 287.863 349.841 288.127H348.215C348.215 287.787 348.303 287.45 348.479 287.116C348.654 286.782 348.906 286.48 349.234 286.211C349.568 285.936 349.967 285.719 350.43 285.561C350.898 285.396 351.42 285.314 351.994 285.314C352.686 285.314 353.295 285.432 353.822 285.666C354.355 285.9 354.771 286.255 355.07 286.729C355.375 287.198 355.527 287.787 355.527 288.496V292.926C355.527 293.242 355.554 293.579 355.606 293.937C355.665 294.294 355.75 294.602 355.861 294.859V295H354.165C354.083 294.812 354.019 294.563 353.972 294.253C353.925 293.937 353.901 293.644 353.901 293.374ZM354.183 289.234L354.2 290.377H352.557C352.094 290.377 351.681 290.415 351.317 290.491C350.954 290.562 350.649 290.67 350.403 290.816C350.157 290.963 349.97 291.147 349.841 291.37C349.712 291.587 349.647 291.842 349.647 292.135C349.647 292.434 349.715 292.706 349.85 292.952C349.984 293.198 350.187 293.395 350.456 293.541C350.731 293.682 351.068 293.752 351.467 293.752C351.965 293.752 352.404 293.646 352.785 293.436C353.166 293.225 353.468 292.967 353.69 292.662C353.919 292.357 354.042 292.062 354.06 291.774L354.754 292.557C354.713 292.803 354.602 293.075 354.42 293.374C354.238 293.673 353.995 293.96 353.69 294.235C353.392 294.505 353.034 294.73 352.618 294.912C352.208 295.088 351.745 295.176 351.229 295.176C350.585 295.176 350.02 295.05 349.533 294.798C349.053 294.546 348.678 294.209 348.408 293.787C348.145 293.359 348.013 292.882 348.013 292.354C348.013 291.845 348.112 291.396 348.312 291.01C348.511 290.617 348.798 290.292 349.173 290.034C349.548 289.771 349.999 289.571 350.526 289.437C351.054 289.302 351.643 289.234 352.293 289.234H354.183ZM369.019 290.412V290.597C369.019 291.265 368.945 291.88 368.799 292.442C368.652 292.999 368.433 293.482 368.14 293.893C367.853 294.303 367.495 294.622 367.067 294.851C366.64 295.073 366.145 295.185 365.582 295.185C365.119 295.185 364.712 295.123 364.36 295C364.009 294.871 363.71 294.687 363.464 294.446C363.224 294.206 363.03 293.919 362.884 293.585C362.743 293.245 362.646 292.864 362.594 292.442V288.224C362.646 287.772 362.743 287.368 362.884 287.011C363.03 286.653 363.224 286.349 363.464 286.097C363.71 285.845 364.006 285.651 364.352 285.517C364.697 285.382 365.102 285.314 365.564 285.314C366.021 285.314 366.432 285.396 366.795 285.561C367.164 285.719 367.486 285.947 367.762 286.246C368.043 286.545 368.274 286.905 368.456 287.327C368.644 287.743 368.784 288.212 368.878 288.733C368.972 289.255 369.019 289.814 369.019 290.412ZM367.393 290.597V290.412C367.393 290.002 367.363 289.612 367.305 289.243C367.252 288.868 367.167 288.525 367.05 288.215C366.938 287.898 366.792 287.623 366.61 287.389C366.429 287.154 366.209 286.973 365.951 286.844C365.699 286.715 365.409 286.65 365.081 286.65C364.729 286.65 364.437 286.694 364.202 286.782C363.974 286.87 363.795 286.987 363.666 287.134C363.537 287.274 363.443 287.424 363.385 287.582V293.093C363.455 293.222 363.558 293.345 363.692 293.462C363.827 293.573 364.009 293.667 364.237 293.743C364.466 293.813 364.753 293.849 365.099 293.849C365.509 293.849 365.857 293.767 366.145 293.603C366.438 293.433 366.675 293.198 366.856 292.899C367.044 292.601 367.179 292.255 367.261 291.862C367.349 291.47 367.393 291.048 367.393 290.597ZM357.725 290.597V290.412C357.725 289.814 357.771 289.255 357.865 288.733C357.959 288.212 358.1 287.743 358.287 287.327C358.475 286.905 358.706 286.545 358.981 286.246C359.263 285.947 359.585 285.719 359.948 285.561C360.317 285.396 360.73 285.314 361.188 285.314C361.639 285.314 362.031 285.382 362.365 285.517C362.705 285.651 362.992 285.845 363.227 286.097C363.461 286.349 363.648 286.653 363.789 287.011C363.93 287.368 364.029 287.772 364.088 288.224V292.275C364.035 292.721 363.938 293.122 363.798 293.479C363.657 293.837 363.47 294.145 363.235 294.402C363.001 294.654 362.711 294.848 362.365 294.982C362.025 295.117 361.627 295.185 361.17 295.185C360.607 295.185 360.112 295.073 359.685 294.851C359.257 294.622 358.896 294.303 358.604 293.893C358.316 293.482 358.097 292.999 357.944 292.442C357.798 291.88 357.725 291.265 357.725 290.597ZM359.359 290.412V290.597C359.359 291.048 359.397 291.47 359.474 291.862C359.556 292.255 359.682 292.601 359.852 292.899C360.027 293.198 360.256 293.433 360.537 293.603C360.818 293.767 361.164 293.849 361.574 293.849C361.926 293.849 362.216 293.805 362.444 293.717C362.673 293.629 362.854 293.515 362.989 293.374C363.124 293.233 363.227 293.087 363.297 292.935V287.582C363.238 287.424 363.142 287.274 363.007 287.134C362.878 286.987 362.699 286.87 362.471 286.782C362.242 286.694 361.949 286.65 361.592 286.65C361.182 286.65 360.833 286.75 360.546 286.949C360.259 287.148 360.027 287.421 359.852 287.767C359.682 288.112 359.556 288.514 359.474 288.971C359.397 289.422 359.359 289.902 359.359 290.412ZM362.488 298.656V281.5H364.123V298.656H362.488ZM372.903 292.425L377.289 285.49H378.924V295H377.289V288.065L372.903 295H371.286V285.49H372.903V292.425ZM383.459 290.465H385.217L382.466 295H380.708L383.459 290.465ZM384.821 285.49H388.794V295H387.168V286.809H384.821C384.358 286.809 383.98 286.888 383.688 287.046C383.395 287.198 383.181 287.397 383.046 287.644C382.911 287.89 382.844 288.145 382.844 288.408C382.844 288.666 382.905 288.915 383.028 289.155C383.151 289.39 383.345 289.583 383.608 289.735C383.872 289.888 384.212 289.964 384.628 289.964H387.607V291.3H384.628C384.083 291.3 383.6 291.227 383.178 291.08C382.756 290.934 382.398 290.731 382.105 290.474C381.812 290.21 381.59 289.902 381.438 289.551C381.285 289.193 381.209 288.807 381.209 288.391C381.209 287.975 381.288 287.591 381.446 287.239C381.61 286.888 381.845 286.58 382.149 286.316C382.46 286.053 382.838 285.851 383.283 285.71C383.734 285.563 384.247 285.49 384.821 285.49Z" fill="white"/>
<path d="M234.305 4.20312V17H232.608V4.20312H234.305ZM237.24 10.0654V11.4014H234.199V10.0654H237.24ZM246.425 10.1973V11.0059C246.425 11.9668 246.305 12.8281 246.064 13.5898C245.824 14.3516 245.479 14.999 245.027 15.5322C244.576 16.0654 244.034 16.4727 243.401 16.7539C242.774 17.0352 242.071 17.1758 241.292 17.1758C240.536 17.1758 239.842 17.0352 239.209 16.7539C238.582 16.4727 238.037 16.0654 237.574 15.5322C237.117 14.999 236.763 14.3516 236.511 13.5898C236.259 12.8281 236.133 11.9668 236.133 11.0059V10.1973C236.133 9.23633 236.256 8.37793 236.502 7.62207C236.754 6.86035 237.108 6.21289 237.565 5.67969C238.022 5.14063 238.564 4.73047 239.191 4.44922C239.824 4.16797 240.519 4.02734 241.274 4.02734C242.054 4.02734 242.757 4.16797 243.384 4.44922C244.017 4.73047 244.559 5.14063 245.01 5.67969C245.467 6.21289 245.815 6.86035 246.056 7.62207C246.302 8.37793 246.425 9.23633 246.425 10.1973ZM244.746 11.0059V10.1797C244.746 9.41797 244.667 8.74414 244.509 8.1582C244.356 7.57227 244.131 7.08008 243.832 6.68164C243.533 6.2832 243.167 5.98145 242.733 5.77637C242.306 5.57129 241.819 5.46875 241.274 5.46875C240.747 5.46875 240.27 5.57129 239.842 5.77637C239.42 5.98145 239.057 6.2832 238.752 6.68164C238.453 7.08008 238.222 7.57227 238.058 8.1582C237.894 8.74414 237.812 9.41797 237.812 10.1797V11.0059C237.812 11.7734 237.894 12.4531 238.058 13.0449C238.222 13.6309 238.456 14.126 238.761 14.5303C239.071 14.9287 239.438 15.2305 239.859 15.4355C240.287 15.6406 240.765 15.7432 241.292 15.7432C241.843 15.7432 242.332 15.6406 242.76 15.4355C243.188 15.2305 243.548 14.9287 243.841 14.5303C244.14 14.126 244.365 13.6309 244.518 13.0449C244.67 12.4531 244.746 11.7734 244.746 11.0059ZM251.224 12.8604L247.62 7.49023H249.58L252.041 11.4277H253.939L253.702 12.8604H251.224ZM252.111 12.6934L249.352 17H247.295L251.083 11.5156L252.111 12.6934ZM254.774 7.49023V17H253.148V7.49023H254.774ZM260.32 7.49023L256.717 12.8604H254.238L253.983 11.4277H255.891L258.352 7.49023H260.32ZM258.58 17L255.812 12.6934L256.857 11.5156L260.637 17H258.58ZM268.591 11.6123V12.9307H263.563V11.6123H268.591ZM263.906 7.49023V17H262.28V7.49023H263.906ZM269.909 7.49023V17H268.274V7.49023H269.909ZM272.098 12.3506V12.1484C272.098 11.4629 272.197 10.8271 272.396 10.2412C272.596 9.64941 272.883 9.13672 273.258 8.70312C273.633 8.26367 274.087 7.92383 274.62 7.68359C275.153 7.4375 275.751 7.31445 276.413 7.31445C277.081 7.31445 277.682 7.4375 278.215 7.68359C278.754 7.92383 279.211 8.26367 279.586 8.70312C279.967 9.13672 280.257 9.64941 280.456 10.2412C280.655 10.8271 280.755 11.4629 280.755 12.1484V12.3506C280.755 13.0361 280.655 13.6719 280.456 14.2578C280.257 14.8438 279.967 15.3564 279.586 15.7959C279.211 16.2295 278.757 16.5693 278.224 16.8154C277.696 17.0557 277.099 17.1758 276.431 17.1758C275.763 17.1758 275.162 17.0557 274.629 16.8154C274.096 16.5693 273.639 16.2295 273.258 15.7959C272.883 15.3564 272.596 14.8438 272.396 14.2578C272.197 13.6719 272.098 13.0361 272.098 12.3506ZM273.724 12.1484V12.3506C273.724 12.8252 273.779 13.2734 273.891 13.6953C274.002 14.1113 274.169 14.4805 274.392 14.8027C274.62 15.125 274.904 15.3799 275.244 15.5674C275.584 15.749 275.979 15.8398 276.431 15.8398C276.876 15.8398 277.266 15.749 277.6 15.5674C277.939 15.3799 278.221 15.125 278.443 14.8027C278.666 14.4805 278.833 14.1113 278.944 13.6953C279.062 13.2734 279.12 12.8252 279.12 12.3506V12.1484C279.12 11.6797 279.062 11.2373 278.944 10.8213C278.833 10.3994 278.663 10.0273 278.435 9.70508C278.212 9.37695 277.931 9.11914 277.591 8.93164C277.257 8.74414 276.864 8.65039 276.413 8.65039C275.968 8.65039 275.575 8.74414 275.235 8.93164C274.901 9.11914 274.62 9.37695 274.392 9.70508C274.169 10.0273 274.002 10.3994 273.891 10.8213C273.779 11.2373 273.724 11.6797 273.724 12.1484ZM286.178 10.8916V12.2275H281.889V10.8916H286.178ZM295.74 12.9307H297.428C297.34 13.7393 297.108 14.4629 296.733 15.1016C296.358 15.7402 295.828 16.2471 295.143 16.6221C294.457 16.9912 293.602 17.1758 292.576 17.1758C291.826 17.1758 291.144 17.0352 290.528 16.7539C289.919 16.4727 289.395 16.0742 288.955 15.5586C288.516 15.0371 288.176 14.4131 287.936 13.6865C287.701 12.9541 287.584 12.1396 287.584 11.2432V9.96875C287.584 9.07227 287.701 8.26074 287.936 7.53418C288.176 6.80176 288.519 6.1748 288.964 5.65332C289.415 5.13184 289.957 4.73047 290.59 4.44922C291.223 4.16797 291.935 4.02734 292.726 4.02734C293.692 4.02734 294.51 4.20898 295.178 4.57227C295.846 4.93555 296.364 5.43945 296.733 6.08398C297.108 6.72266 297.34 7.46387 297.428 8.30762H295.74C295.658 7.70996 295.506 7.19727 295.283 6.76953C295.061 6.33594 294.744 6.00195 294.334 5.76758C293.924 5.5332 293.388 5.41602 292.726 5.41602C292.157 5.41602 291.656 5.52441 291.223 5.74121C290.795 5.95801 290.435 6.26563 290.142 6.66406C289.854 7.0625 289.638 7.54004 289.491 8.09668C289.345 8.65332 289.271 9.27148 289.271 9.95117V11.2432C289.271 11.8701 289.336 12.459 289.465 13.0098C289.6 13.5605 289.802 14.0439 290.071 14.46C290.341 14.876 290.684 15.2041 291.1 15.4443C291.516 15.6787 292.008 15.7959 292.576 15.7959C293.297 15.7959 293.871 15.6816 294.299 15.4531C294.727 15.2246 295.049 14.8965 295.266 14.4688C295.488 14.041 295.646 13.5283 295.74 12.9307ZM305.101 15.374V10.4785C305.101 10.1035 305.024 9.77832 304.872 9.50293C304.726 9.22168 304.503 9.00488 304.204 8.85254C303.905 8.7002 303.536 8.62402 303.097 8.62402C302.687 8.62402 302.326 8.69434 302.016 8.83496C301.711 8.97559 301.471 9.16016 301.295 9.38867C301.125 9.61719 301.04 9.86328 301.04 10.127H299.414C299.414 9.78711 299.502 9.4502 299.678 9.11621C299.854 8.78223 300.105 8.48047 300.434 8.21094C300.768 7.93555 301.166 7.71875 301.629 7.56055C302.098 7.39648 302.619 7.31445 303.193 7.31445C303.885 7.31445 304.494 7.43164 305.021 7.66602C305.555 7.90039 305.971 8.25488 306.27 8.72949C306.574 9.19824 306.727 9.78711 306.727 10.4961V14.9258C306.727 15.2422 306.753 15.5791 306.806 15.9365C306.864 16.2939 306.949 16.6016 307.061 16.8594V17H305.364C305.282 16.8125 305.218 16.5635 305.171 16.2529C305.124 15.9365 305.101 15.6436 305.101 15.374ZM305.382 11.2344L305.399 12.377H303.756C303.293 12.377 302.88 12.415 302.517 12.4912C302.153 12.5615 301.849 12.6699 301.603 12.8164C301.356 12.9629 301.169 13.1475 301.04 13.3701C300.911 13.5869 300.847 13.8418 300.847 14.1348C300.847 14.4336 300.914 14.7061 301.049 14.9521C301.184 15.1982 301.386 15.3945 301.655 15.541C301.931 15.6816 302.268 15.752 302.666 15.752C303.164 15.752 303.604 15.6465 303.984 15.4355C304.365 15.2246 304.667 14.9668 304.89 14.6621C305.118 14.3574 305.241 14.0615 305.259 13.7744L305.953 14.5566C305.912 14.8027 305.801 15.0752 305.619 15.374C305.438 15.6729 305.194 15.96 304.89 16.2354C304.591 16.5049 304.233 16.7305 303.817 16.9121C303.407 17.0879 302.944 17.1758 302.429 17.1758C301.784 17.1758 301.219 17.0498 300.732 16.7979C300.252 16.5459 299.877 16.209 299.607 15.7871C299.344 15.3594 299.212 14.8818 299.212 14.3545C299.212 13.8447 299.312 13.3965 299.511 13.0098C299.71 12.6172 299.997 12.292 300.372 12.0342C300.747 11.7705 301.198 11.5713 301.726 11.4365C302.253 11.3018 302.842 11.2344 303.492 11.2344H305.382ZM310.383 7.49023L312.466 10.9531L314.575 7.49023H316.482L313.371 12.1836L316.579 17H314.698L312.501 13.4316L310.304 17H308.414L311.613 12.1836L308.511 7.49023H310.383ZM323.821 15.374V10.4785C323.821 10.1035 323.745 9.77832 323.593 9.50293C323.446 9.22168 323.224 9.00488 322.925 8.85254C322.626 8.7002 322.257 8.62402 321.817 8.62402C321.407 8.62402 321.047 8.69434 320.736 8.83496C320.432 8.97559 320.191 9.16016 320.016 9.38867C319.846 9.61719 319.761 9.86328 319.761 10.127H318.135C318.135 9.78711 318.223 9.4502 318.398 9.11621C318.574 8.78223 318.826 8.48047 319.154 8.21094C319.488 7.93555 319.887 7.71875 320.35 7.56055C320.818 7.39648 321.34 7.31445 321.914 7.31445C322.605 7.31445 323.215 7.43164 323.742 7.66602C324.275 7.90039 324.691 8.25488 324.99 8.72949C325.295 9.19824 325.447 9.78711 325.447 10.4961V14.9258C325.447 15.2422 325.474 15.5791 325.526 15.9365C325.585 16.2939 325.67 16.6016 325.781 16.8594V17H324.085C324.003 16.8125 323.938 16.5635 323.892 16.2529C323.845 15.9365 323.821 15.6436 323.821 15.374ZM324.103 11.2344L324.12 12.377H322.477C322.014 12.377 321.601 12.415 321.237 12.4912C320.874 12.5615 320.569 12.6699 320.323 12.8164C320.077 12.9629 319.89 13.1475 319.761 13.3701C319.632 13.5869 319.567 13.8418 319.567 14.1348C319.567 14.4336 319.635 14.7061 319.77 14.9521C319.904 15.1982 320.106 15.3945 320.376 15.541C320.651 15.6816 320.988 15.752 321.387 15.752C321.885 15.752 322.324 15.6465 322.705 15.4355C323.086 15.2246 323.388 14.9668 323.61 14.6621C323.839 14.3574 323.962 14.0615 323.979 13.7744L324.674 14.5566C324.633 14.8027 324.521 15.0752 324.34 15.374C324.158 15.6729 323.915 15.96 323.61 16.2354C323.312 16.5049 322.954 16.7305 322.538 16.9121C322.128 17.0879 321.665 17.1758 321.149 17.1758C320.505 17.1758 319.939 17.0498 319.453 16.7979C318.973 16.5459 318.598 16.209 318.328 15.7871C318.064 15.3594 317.933 14.8818 317.933 14.3545C317.933 13.8447 318.032 13.3965 318.231 13.0098C318.431 12.6172 318.718 12.292 319.093 12.0342C319.468 11.7705 319.919 11.5713 320.446 11.4365C320.974 11.3018 321.562 11.2344 322.213 11.2344H324.103ZM334.359 7.49023V8.83496H329.763V7.49023H334.359ZM335.792 7.49023V17H334.166V7.49023H335.792ZM329.367 7.49023H331.002L330.756 12.0781C330.715 12.7871 330.647 13.4141 330.554 13.959C330.466 14.498 330.343 14.9609 330.185 15.3477C330.032 15.7344 329.839 16.0508 329.604 16.2969C329.376 16.5371 329.101 16.7158 328.778 16.833C328.456 16.9443 328.084 17 327.662 17H327.152V15.5674L327.504 15.541C327.756 15.5234 327.97 15.4648 328.146 15.3652C328.327 15.2656 328.479 15.1191 328.603 14.9258C328.726 14.7266 328.825 14.4717 328.901 14.1611C328.983 13.8506 329.045 13.4814 329.086 13.0537C329.133 12.626 329.168 12.1279 329.191 11.5596L329.367 7.49023ZM340.169 14.4248L344.555 7.49023H346.189V17H344.555V10.0654L340.169 17H338.552V7.49023H340.169V14.4248ZM355.251 11.6123V12.9307H350.224V11.6123H355.251ZM350.566 7.49023V17H348.94V7.49023H350.566ZM356.569 7.49023V17H354.935V7.49023H356.569ZM362.994 15.8398C363.381 15.8398 363.738 15.7607 364.066 15.6025C364.395 15.4443 364.664 15.2275 364.875 14.9521C365.086 14.6709 365.206 14.3516 365.235 13.9941H366.782C366.753 14.5566 366.562 15.0811 366.211 15.5674C365.865 16.0479 365.411 16.4375 364.849 16.7363C364.286 17.0293 363.668 17.1758 362.994 17.1758C362.279 17.1758 361.655 17.0498 361.122 16.7979C360.595 16.5459 360.155 16.2002 359.804 15.7607C359.458 15.3213 359.197 14.8174 359.021 14.249C358.852 13.6748 358.767 13.0684 358.767 12.4297V12.0605C358.767 11.4219 358.852 10.8184 359.021 10.25C359.197 9.67578 359.458 9.16895 359.804 8.72949C360.155 8.29004 360.595 7.94434 361.122 7.69238C361.655 7.44043 362.279 7.31445 362.994 7.31445C363.738 7.31445 364.389 7.4668 364.945 7.77148C365.502 8.07031 365.938 8.48047 366.255 9.00195C366.577 9.51758 366.753 10.1035 366.782 10.7598H365.235C365.206 10.3672 365.095 10.0127 364.901 9.69629C364.714 9.37988 364.456 9.12793 364.128 8.94043C363.806 8.74707 363.428 8.65039 362.994 8.65039C362.496 8.65039 362.077 8.75 361.737 8.94922C361.403 9.14258 361.137 9.40625 360.938 9.74023C360.744 10.0684 360.604 10.4346 360.516 10.8389C360.434 11.2373 360.393 11.6445 360.393 12.0605V12.4297C360.393 12.8457 360.434 13.2559 360.516 13.6602C360.598 14.0645 360.735 14.4307 360.929 14.7588C361.128 15.0869 361.395 15.3506 361.729 15.5498C362.068 15.7432 362.49 15.8398 362.994 15.8398ZM370.377 7.49023V17H368.751V7.49023H370.377ZM376.617 7.49023L372.108 12.9395H369.832L369.586 11.5156H371.449L374.64 7.49023H376.617ZM374.868 17L371.37 12.6934L372.416 11.5156L376.934 17H374.868Z" fill="white"/>
<path d="M180.211 214.931H181.898C181.811 215.739 181.579 216.463 181.204 217.102C180.829 217.74 180.299 218.247 179.613 218.622C178.928 218.991 178.072 219.176 177.047 219.176C176.297 219.176 175.614 219.035 174.999 218.754C174.39 218.473 173.865 218.074 173.426 217.559C172.986 217.037 172.646 216.413 172.406 215.687C172.172 214.954 172.055 214.14 172.055 213.243V211.969C172.055 211.072 172.172 210.261 172.406 209.534C172.646 208.802 172.989 208.175 173.435 207.653C173.886 207.132 174.428 206.73 175.061 206.449C175.693 206.168 176.405 206.027 177.196 206.027C178.163 206.027 178.98 206.209 179.648 206.572C180.316 206.936 180.835 207.439 181.204 208.084C181.579 208.723 181.811 209.464 181.898 210.308H180.211C180.129 209.71 179.977 209.197 179.754 208.77C179.531 208.336 179.215 208.002 178.805 207.768C178.395 207.533 177.858 207.416 177.196 207.416C176.628 207.416 176.127 207.524 175.693 207.741C175.266 207.958 174.905 208.266 174.612 208.664C174.325 209.062 174.108 209.54 173.962 210.097C173.815 210.653 173.742 211.271 173.742 211.951V213.243C173.742 213.87 173.807 214.459 173.936 215.01C174.07 215.561 174.272 216.044 174.542 216.46C174.812 216.876 175.154 217.204 175.57 217.444C175.986 217.679 176.479 217.796 177.047 217.796C177.768 217.796 178.342 217.682 178.77 217.453C179.197 217.225 179.52 216.896 179.736 216.469C179.959 216.041 180.117 215.528 180.211 214.931ZM193.983 206.203V219H192.296V207.592H185.985V219H184.289V206.203H193.983ZM204.996 206.203V207.592H198.826V219H197.139V206.203H204.996ZM221.317 206.203V219H219.63V207.592H213.319V219H211.623V206.203H221.317ZM225.773 211.318V222.656H224.139V209.49H225.633L225.773 211.318ZM232.181 214.166V214.351C232.181 215.042 232.099 215.684 231.935 216.275C231.771 216.861 231.53 217.371 231.214 217.805C230.903 218.238 230.52 218.575 230.062 218.815C229.605 219.056 229.081 219.176 228.489 219.176C227.886 219.176 227.353 219.076 226.89 218.877C226.427 218.678 226.034 218.388 225.712 218.007C225.39 217.626 225.132 217.169 224.938 216.636C224.751 216.103 224.622 215.502 224.552 214.834V213.85C224.622 213.146 224.754 212.517 224.947 211.96C225.141 211.403 225.396 210.929 225.712 210.536C226.034 210.138 226.424 209.836 226.881 209.631C227.338 209.42 227.865 209.314 228.463 209.314C229.061 209.314 229.591 209.432 230.054 209.666C230.517 209.895 230.906 210.223 231.223 210.65C231.539 211.078 231.776 211.591 231.935 212.188C232.099 212.78 232.181 213.439 232.181 214.166ZM230.546 214.351V214.166C230.546 213.691 230.496 213.246 230.396 212.83C230.297 212.408 230.142 212.039 229.931 211.723C229.726 211.4 229.462 211.148 229.14 210.967C228.817 210.779 228.434 210.686 227.988 210.686C227.578 210.686 227.221 210.756 226.916 210.896C226.617 211.037 226.362 211.228 226.151 211.468C225.94 211.702 225.768 211.972 225.633 212.276C225.504 212.575 225.407 212.886 225.343 213.208V215.484C225.46 215.895 225.624 216.281 225.835 216.645C226.046 217.002 226.327 217.292 226.679 217.515C227.03 217.731 227.473 217.84 228.006 217.84C228.445 217.84 228.823 217.749 229.14 217.567C229.462 217.38 229.726 217.125 229.931 216.803C230.142 216.48 230.297 216.111 230.396 215.695C230.496 215.273 230.546 214.825 230.546 214.351ZM236.013 216.425L240.398 209.49H242.033V219H240.398V212.065L236.013 219H234.396V209.49H236.013V216.425ZM250.787 209.49V210.835H246.393V219H244.767V209.49H250.787ZM251.596 214.351V214.148C251.596 213.463 251.695 212.827 251.895 212.241C252.094 211.649 252.381 211.137 252.756 210.703C253.131 210.264 253.585 209.924 254.118 209.684C254.651 209.438 255.249 209.314 255.911 209.314C256.579 209.314 257.18 209.438 257.713 209.684C258.252 209.924 258.709 210.264 259.084 210.703C259.465 211.137 259.755 211.649 259.954 212.241C260.153 212.827 260.253 213.463 260.253 214.148V214.351C260.253 215.036 260.153 215.672 259.954 216.258C259.755 216.844 259.465 217.356 259.084 217.796C258.709 218.229 258.255 218.569 257.722 218.815C257.194 219.056 256.597 219.176 255.929 219.176C255.261 219.176 254.66 219.056 254.127 218.815C253.594 218.569 253.137 218.229 252.756 217.796C252.381 217.356 252.094 216.844 251.895 216.258C251.695 215.672 251.596 215.036 251.596 214.351ZM253.222 214.148V214.351C253.222 214.825 253.277 215.273 253.389 215.695C253.5 216.111 253.667 216.48 253.89 216.803C254.118 217.125 254.402 217.38 254.742 217.567C255.082 217.749 255.478 217.84 255.929 217.84C256.374 217.84 256.764 217.749 257.098 217.567C257.438 217.38 257.719 217.125 257.941 216.803C258.164 216.48 258.331 216.111 258.442 215.695C258.56 215.273 258.618 214.825 258.618 214.351V214.148C258.618 213.68 258.56 213.237 258.442 212.821C258.331 212.399 258.161 212.027 257.933 211.705C257.71 211.377 257.429 211.119 257.089 210.932C256.755 210.744 256.362 210.65 255.911 210.65C255.466 210.65 255.073 210.744 254.733 210.932C254.399 211.119 254.118 211.377 253.89 211.705C253.667 212.027 253.5 212.399 253.389 212.821C253.277 213.237 253.222 213.68 253.222 214.148ZM263.918 211.318V222.656H262.283V209.49H263.777L263.918 211.318ZM270.325 214.166V214.351C270.325 215.042 270.243 215.684 270.079 216.275C269.915 216.861 269.675 217.371 269.358 217.805C269.048 218.238 268.664 218.575 268.207 218.815C267.75 219.056 267.226 219.176 266.634 219.176C266.03 219.176 265.497 219.076 265.034 218.877C264.571 218.678 264.179 218.388 263.856 218.007C263.534 217.626 263.276 217.169 263.083 216.636C262.896 216.103 262.767 215.502 262.696 214.834V213.85C262.767 213.146 262.898 212.517 263.092 211.96C263.285 211.403 263.54 210.929 263.856 210.536C264.179 210.138 264.568 209.836 265.025 209.631C265.482 209.42 266.01 209.314 266.607 209.314C267.205 209.314 267.735 209.432 268.198 209.666C268.661 209.895 269.051 210.223 269.367 210.65C269.684 211.078 269.921 211.591 270.079 212.188C270.243 212.78 270.325 213.439 270.325 214.166ZM268.69 214.351V214.166C268.69 213.691 268.641 213.246 268.541 212.83C268.441 212.408 268.286 212.039 268.075 211.723C267.87 211.4 267.606 211.148 267.284 210.967C266.962 210.779 266.578 210.686 266.133 210.686C265.723 210.686 265.365 210.756 265.061 210.896C264.762 211.037 264.507 211.228 264.296 211.468C264.085 211.702 263.912 211.972 263.777 212.276C263.648 212.575 263.552 212.886 263.487 213.208V215.484C263.604 215.895 263.769 216.281 263.979 216.645C264.19 217.002 264.472 217.292 264.823 217.515C265.175 217.731 265.617 217.84 266.15 217.84C266.59 217.84 266.968 217.749 267.284 217.567C267.606 217.38 267.87 217.125 268.075 216.803C268.286 216.48 268.441 216.111 268.541 215.695C268.641 215.273 268.69 214.825 268.69 214.351ZM271.969 214.351V214.148C271.969 213.463 272.068 212.827 272.268 212.241C272.467 211.649 272.754 211.137 273.129 210.703C273.504 210.264 273.958 209.924 274.491 209.684C275.024 209.438 275.622 209.314 276.284 209.314C276.952 209.314 277.553 209.438 278.086 209.684C278.625 209.924 279.082 210.264 279.457 210.703C279.838 211.137 280.128 211.649 280.327 212.241C280.526 212.827 280.626 213.463 280.626 214.148V214.351C280.626 215.036 280.526 215.672 280.327 216.258C280.128 216.844 279.838 217.356 279.457 217.796C279.082 218.229 278.628 218.569 278.095 218.815C277.567 219.056 276.97 219.176 276.302 219.176C275.634 219.176 275.033 219.056 274.5 218.815C273.967 218.569 273.51 218.229 273.129 217.796C272.754 217.356 272.467 216.844 272.268 216.258C272.068 215.672 271.969 215.036 271.969 214.351ZM273.595 214.148V214.351C273.595 214.825 273.65 215.273 273.762 215.695C273.873 216.111 274.04 216.48 274.263 216.803C274.491 217.125 274.775 217.38 275.115 217.567C275.455 217.749 275.851 217.84 276.302 217.84C276.747 217.84 277.137 217.749 277.471 217.567C277.811 217.38 278.092 217.125 278.314 216.803C278.537 216.48 278.704 216.111 278.815 215.695C278.933 215.273 278.991 214.825 278.991 214.351V214.148C278.991 213.68 278.933 213.237 278.815 212.821C278.704 212.399 278.534 212.027 278.306 211.705C278.083 211.377 277.802 211.119 277.462 210.932C277.128 210.744 276.735 210.65 276.284 210.65C275.839 210.65 275.446 210.744 275.106 210.932C274.772 211.119 274.491 211.377 274.263 211.705C274.04 212.027 273.873 212.399 273.762 212.821C273.65 213.237 273.595 213.68 273.595 214.148ZM283.746 209.49H285.372L285.231 213.05C285.196 213.952 285.094 214.731 284.924 215.388C284.754 216.044 284.537 216.604 284.273 217.066C284.01 217.523 283.714 217.907 283.386 218.218C283.063 218.528 282.729 218.789 282.384 219H281.575L281.619 217.673L281.953 217.664C282.146 217.436 282.334 217.201 282.516 216.961C282.697 216.715 282.864 216.425 283.017 216.091C283.169 215.751 283.295 215.338 283.395 214.852C283.5 214.359 283.567 213.759 283.597 213.05L283.746 209.49ZM284.15 209.49H289.872V219H288.246V210.993H284.15V209.49ZM281.206 217.664H291.094V221.804H289.468V219H282.832V221.804H281.197L281.206 217.664ZM299.347 213.612V214.931H294.319V213.612H299.347ZM294.662 209.49V219H293.036V209.49H294.662ZM300.665 209.49V219H299.03V209.49H300.665ZM302.854 214.351V214.148C302.854 213.463 302.953 212.827 303.152 212.241C303.352 211.649 303.639 211.137 304.014 210.703C304.389 210.264 304.843 209.924 305.376 209.684C305.909 209.438 306.507 209.314 307.169 209.314C307.837 209.314 308.438 209.438 308.971 209.684C309.51 209.924 309.967 210.264 310.342 210.703C310.723 211.137 311.013 211.649 311.212 212.241C311.411 212.827 311.511 213.463 311.511 214.148V214.351C311.511 215.036 311.411 215.672 311.212 216.258C311.013 216.844 310.723 217.356 310.342 217.796C309.967 218.229 309.513 218.569 308.979 218.815C308.452 219.056 307.854 219.176 307.187 219.176C306.519 219.176 305.918 219.056 305.385 218.815C304.852 218.569 304.395 218.229 304.014 217.796C303.639 217.356 303.352 216.844 303.152 216.258C302.953 215.672 302.854 215.036 302.854 214.351ZM304.479 214.148V214.351C304.479 214.825 304.535 215.273 304.646 215.695C304.758 216.111 304.925 216.48 305.147 216.803C305.376 217.125 305.66 217.38 306 217.567C306.34 217.749 306.735 217.84 307.187 217.84C307.632 217.84 308.021 217.749 308.355 217.567C308.695 217.38 308.977 217.125 309.199 216.803C309.422 216.48 309.589 216.111 309.7 215.695C309.817 215.273 309.876 214.825 309.876 214.351V214.148C309.876 213.68 309.817 213.237 309.7 212.821C309.589 212.399 309.419 212.027 309.19 211.705C308.968 211.377 308.687 211.119 308.347 210.932C308.013 210.744 307.62 210.65 307.169 210.65C306.724 210.65 306.331 210.744 305.991 210.932C305.657 211.119 305.376 211.377 305.147 211.705C304.925 212.027 304.758 212.399 304.646 212.821C304.535 213.237 304.479 213.68 304.479 214.148ZM317.496 219.176C316.834 219.176 316.233 219.064 315.694 218.842C315.161 218.613 314.701 218.294 314.314 217.884C313.934 217.474 313.641 216.987 313.436 216.425C313.23 215.862 313.128 215.247 313.128 214.579V214.21C313.128 213.437 313.242 212.748 313.471 212.145C313.699 211.535 314.01 211.02 314.402 210.598C314.795 210.176 315.24 209.856 315.738 209.64C316.236 209.423 316.752 209.314 317.285 209.314C317.965 209.314 318.551 209.432 319.043 209.666C319.541 209.9 319.948 210.229 320.265 210.65C320.581 211.066 320.815 211.559 320.968 212.127C321.12 212.689 321.196 213.305 321.196 213.973V214.702H314.095V213.375H319.57V213.252C319.547 212.83 319.459 212.42 319.307 212.021C319.16 211.623 318.926 211.295 318.604 211.037C318.281 210.779 317.842 210.65 317.285 210.65C316.916 210.65 316.576 210.729 316.266 210.888C315.955 211.04 315.688 211.269 315.466 211.573C315.243 211.878 315.07 212.25 314.947 212.689C314.824 213.129 314.763 213.636 314.763 214.21V214.579C314.763 215.03 314.824 215.455 314.947 215.854C315.076 216.246 315.261 216.592 315.501 216.891C315.747 217.189 316.043 217.424 316.389 217.594C316.74 217.764 317.139 217.849 317.584 217.849C318.158 217.849 318.645 217.731 319.043 217.497C319.441 217.263 319.79 216.949 320.089 216.557L321.073 217.339C320.868 217.649 320.607 217.945 320.291 218.227C319.975 218.508 319.585 218.736 319.122 218.912C318.665 219.088 318.123 219.176 317.496 219.176Z" fill="white"/>
<path d="M298 37C297.171 51.3838 283.067 59.4056 247.392 82.641L181.02 145.709M181.02 145.709C176.872 151.517 195.954 174.753 170.235 190.52C161.109 193.839 151.983 187.2 156.131 207.946C157.79 220.394 165.755 250.932 181.02 280.142C196.286 309.352 158.62 343.763 137.879 357.317M181.02 145.709C169.014 130.972 139.1 102.6 115.5 107C91.9 111.4 63.6667 100.833 52.5 95C46 91.6045 40 102.2 36 99C34 97.8333 29.3 94.4 26.5 90" stroke="#FF6C01" stroke-width="3"/>
<path d="M114.648 393C124 380 116.799 370.819 121.5 367.5L137.879 357.317C146.494 351.687 158.028 342.459 167.477 331.5C180.777 316.075 189.945 297.219 181.02 280.142C167.375 254.033 159.564 226.864 156.874 212.5M167.478 331.5C158.029 342.459 146.494 351.687 137.879 357.317" stroke="white" stroke-width="3"/>
<path d="M114.648 393C124 380 116.799 370.819 121.5 367.5L137.879 357.317C146.494 351.687 158.028 342.459 167.477 331.5" stroke="#828282" stroke-width="3"/>
<path d="M168 331C184.667 333.333 220.5 336.6 230.5 331C240.5 325.4 264.667 317.667 275.5 314.5" stroke="#828282" stroke-width="3"/>
<path d="M121.5 367.5C116.799 370.819 124 380 114.648 393" stroke="#838383" stroke-width="3"/>
<circle cx="299" cy="35" r="6" fill="#FF6C01"/>
<circle cx="114.5" cy="391.5" r="5.5" fill="#838383"/>
<circle cx="275.5" cy="313.5" r="5.5" fill="#838383"/>
<circle cx="157.5" cy="214.5" r="5.5" fill="#FF6C01"/>
<circle cx="168.5" cy="330.5" r="5.5" fill="white"/>
<circle cx="27" cy="89" r="6" fill="#FF6C01"/>
</svg>
