<svg width="242" height="252" viewBox="0 0 242 252" fill="none" xmlns="http://www.w3.org/2000/svg">
<path d="M84.2961 190.563C84.2216 192.263 85.9398 191.912 86.8082 191.525C91.4449 192.58 84.7731 199.098 84.7917 198.674C84.8104 198.249 80.3936 201.886 79.0816 202.68C78.032 203.315 76.6464 209.669 76.0848 212.766C75.7518 213.887 74.2323 216.176 70.8182 216.366C67.4041 216.557 67.8079 213.822 68.4366 212.43C70.1313 209.383 73.2731 203.107 72.2832 202.382C71.0458 201.476 72.3764 200.257 72.451 198.558C72.5106 197.198 74.742 198.091 75.8502 198.707C76.0042 198.43 76.3236 197.621 76.3683 196.601C76.413 195.581 80.0943 195.771 81.9293 195.994C82.7493 193.475 84.3707 188.863 84.2961 190.563Z" fill="#191C20"/>
<path d="M53.565 211.778C52.5452 211.733 52.6978 208.902 52.9016 207.492L51.6828 206.161C50.8144 206.549 48.9813 207.575 48.5967 208.58C48.1158 209.836 45.2907 206.306 46.0286 208.893C46.619 210.962 45.867 212.575 45.4173 213.123C46.2484 213.585 48.0733 214.687 48.7233 215.397C49.5358 216.284 54.8397 211.834 53.565 211.778Z" fill="#191C20"/>
<path d="M60.7921 202.303C61.0127 205.038 62.0047 203.776 62.4731 202.803C64.8674 202.567 64.5665 203.604 64.1168 204.152C62.6942 204.232 59.908 204.989 60.1435 207.384C60.379 209.778 59.0464 209.748 58.3507 209.434C58.0674 209.421 57.1684 209.211 55.8386 208.472C54.5087 207.732 55.692 205.344 56.4499 204.242L58.7422 200.511C59.3336 199.969 60.5715 199.569 60.7921 202.303Z" fill="#191C20"/>
<path d="M65.7457 196.135C67.4751 195.53 66.27 193.888 65.4513 193.142C63.7666 192.728 62.421 194.286 61.9589 195.117C62.5005 195.709 64.0162 196.74 65.7457 196.135Z" fill="#191C20"/>
<path d="M2.75391 37.3359V48H1.34033V37.3359H2.75391ZM5.2002 42.2212V43.3345H2.66602V42.2212H5.2002ZM12.854 42.3311V43.0049C12.854 43.8057 12.7539 44.5234 12.5537 45.1582C12.3535 45.793 12.0654 46.3325 11.6895 46.7769C11.3135 47.2212 10.8618 47.5605 10.3345 47.7949C9.81201 48.0293 9.22607 48.1465 8.57666 48.1465C7.94678 48.1465 7.36816 48.0293 6.84082 47.7949C6.31836 47.5605 5.86426 47.2212 5.47852 46.7769C5.09766 46.3325 4.80225 45.793 4.59229 45.1582C4.38232 44.5234 4.27734 43.8057 4.27734 43.0049V42.3311C4.27734 41.5303 4.37988 40.8149 4.58496 40.1851C4.79492 39.5503 5.09033 39.0107 5.47119 38.5664C5.85205 38.1172 6.30371 37.7754 6.82617 37.541C7.35352 37.3066 7.93213 37.1895 8.56201 37.1895C9.21143 37.1895 9.79736 37.3066 10.3198 37.541C10.8472 37.7754 11.2988 38.1172 11.6748 38.5664C12.0557 39.0107 12.3462 39.5503 12.5464 40.1851C12.7515 40.8149 12.854 41.5303 12.854 42.3311ZM11.4551 43.0049V42.3164C11.4551 41.6816 11.3892 41.1201 11.2573 40.6318C11.1304 40.1436 10.9424 39.7334 10.6934 39.4014C10.4443 39.0693 10.1392 38.8179 9.77783 38.647C9.42139 38.4761 9.01611 38.3906 8.56201 38.3906C8.12256 38.3906 7.72461 38.4761 7.36816 38.647C7.0166 38.8179 6.71387 39.0693 6.45996 39.4014C6.21094 39.7334 6.01807 40.1436 5.88135 40.6318C5.74463 41.1201 5.67627 41.6816 5.67627 42.3164V43.0049C5.67627 43.6445 5.74463 44.2109 5.88135 44.7041C6.01807 45.1924 6.21338 45.605 6.46729 45.9419C6.72607 46.2739 7.03125 46.5254 7.38281 46.6963C7.73926 46.8672 8.13721 46.9526 8.57666 46.9526C9.03564 46.9526 9.44336 46.8672 9.7998 46.6963C10.1562 46.5254 10.4565 46.2739 10.7007 45.9419C10.9497 45.605 11.1377 45.1924 11.2646 44.7041C11.3916 44.2109 11.4551 43.6445 11.4551 43.0049ZM16.853 44.5503L13.8501 40.0752H15.4834L17.5342 43.3564H19.1162L18.9185 44.5503H16.853ZM17.5928 44.4111L15.293 48H13.5791L16.7358 43.4297L17.5928 44.4111ZM19.812 40.0752V48H18.457V40.0752H19.812ZM24.4336 40.0752L21.4307 44.5503H19.3652L19.1528 43.3564H20.7422L22.793 40.0752H24.4336ZM22.9834 48L20.6763 44.4111L21.5479 43.4297L24.6973 48H22.9834ZM31.3257 43.5103V44.6089H27.1362V43.5103H31.3257ZM27.4219 40.0752V48H26.0669V40.0752H27.4219ZM32.4243 40.0752V48H31.062V40.0752H32.4243ZM34.248 44.1255V43.957C34.248 43.3857 34.3311 42.856 34.4971 42.3677C34.6631 41.8745 34.9023 41.4473 35.2148 41.0859C35.5273 40.7197 35.9058 40.4365 36.3501 40.2363C36.7944 40.0312 37.2925 39.9287 37.8442 39.9287C38.4009 39.9287 38.9014 40.0312 39.3457 40.2363C39.7949 40.4365 40.1758 40.7197 40.4883 41.0859C40.8057 41.4473 41.0474 41.8745 41.2134 42.3677C41.3794 42.856 41.4624 43.3857 41.4624 43.957V44.1255C41.4624 44.6968 41.3794 45.2266 41.2134 45.7148C41.0474 46.2031 40.8057 46.6304 40.4883 46.9966C40.1758 47.3579 39.7974 47.6411 39.353 47.8462C38.9136 48.0464 38.4155 48.1465 37.8589 48.1465C37.3022 48.1465 36.8018 48.0464 36.3574 47.8462C35.9131 47.6411 35.5322 47.3579 35.2148 46.9966C34.9023 46.6304 34.6631 46.2031 34.4971 45.7148C34.3311 45.2266 34.248 44.6968 34.248 44.1255ZM35.603 43.957V44.1255C35.603 44.521 35.6494 44.8945 35.7422 45.2461C35.835 45.5928 35.9741 45.9004 36.1597 46.1689C36.3501 46.4375 36.5869 46.6499 36.8701 46.8062C37.1533 46.9575 37.4829 47.0332 37.8589 47.0332C38.23 47.0332 38.5547 46.9575 38.833 46.8062C39.1162 46.6499 39.3506 46.4375 39.5361 46.1689C39.7217 45.9004 39.8608 45.5928 39.9536 45.2461C40.0513 44.8945 40.1001 44.521 40.1001 44.1255V43.957C40.1001 43.5664 40.0513 43.1978 39.9536 42.8511C39.8608 42.4995 39.7192 42.1895 39.5288 41.9209C39.3433 41.6475 39.1089 41.4326 38.8257 41.2764C38.5474 41.1201 38.2202 41.042 37.8442 41.042C37.4731 41.042 37.146 41.1201 36.8628 41.2764C36.5845 41.4326 36.3501 41.6475 36.1597 41.9209C35.9741 42.1895 35.835 42.4995 35.7422 42.8511C35.6494 43.1978 35.603 43.5664 35.603 43.957ZM45.9814 42.9097V44.0229H42.4072V42.9097H45.9814ZM53.9502 44.6089H55.3564C55.2832 45.2827 55.0903 45.8857 54.7778 46.418C54.4653 46.9502 54.0234 47.3726 53.4521 47.6851C52.8809 47.9927 52.168 48.1465 51.3135 48.1465C50.6885 48.1465 50.1196 48.0293 49.6069 47.7949C49.0991 47.5605 48.6621 47.2285 48.2959 46.7988C47.9297 46.3643 47.6465 45.8442 47.4463 45.2388C47.251 44.6284 47.1533 43.9497 47.1533 43.2026V42.1406C47.1533 41.3936 47.251 40.7173 47.4463 40.1118C47.6465 39.5015 47.9321 38.979 48.3032 38.5444C48.6792 38.1099 49.1309 37.7754 49.6582 37.541C50.1855 37.3066 50.7788 37.1895 51.438 37.1895C52.2437 37.1895 52.9248 37.3408 53.4814 37.6436C54.0381 37.9463 54.4702 38.3662 54.7778 38.9033C55.0903 39.4355 55.2832 40.0532 55.3564 40.7563H53.9502C53.8818 40.2583 53.7549 39.8311 53.5693 39.4746C53.3838 39.1133 53.1201 38.835 52.7783 38.6396C52.4365 38.4443 51.9897 38.3467 51.438 38.3467C50.9644 38.3467 50.5469 38.437 50.1855 38.6177C49.8291 38.7983 49.5288 39.0547 49.2847 39.3867C49.0454 39.7188 48.8647 40.1167 48.7427 40.5806C48.6206 41.0444 48.5596 41.5596 48.5596 42.126V43.2026C48.5596 43.7251 48.6133 44.2158 48.7207 44.6748C48.833 45.1338 49.0015 45.5366 49.2261 45.8833C49.4507 46.23 49.7363 46.5034 50.083 46.7036C50.4297 46.8989 50.8398 46.9966 51.3135 46.9966C51.9141 46.9966 52.3926 46.9014 52.749 46.7109C53.1055 46.5205 53.374 46.2471 53.5547 45.8906C53.7402 45.5342 53.8721 45.1069 53.9502 44.6089ZM61.7505 46.645V42.5654C61.7505 42.2529 61.687 41.9819 61.5601 41.7524C61.438 41.5181 61.2524 41.3374 61.0034 41.2104C60.7544 41.0835 60.4468 41.02 60.0806 41.02C59.7388 41.02 59.4385 41.0786 59.1797 41.1958C58.9258 41.313 58.7256 41.4668 58.5791 41.6572C58.4375 41.8477 58.3667 42.0527 58.3667 42.2725H57.0117C57.0117 41.9893 57.085 41.7085 57.2314 41.4302C57.3779 41.1519 57.5879 40.9004 57.8613 40.6758C58.1396 40.4463 58.4717 40.2656 58.8574 40.1338C59.248 39.9971 59.6826 39.9287 60.1611 39.9287C60.7373 39.9287 61.2451 40.0264 61.6846 40.2217C62.1289 40.417 62.4756 40.7124 62.7246 41.1079C62.9785 41.4985 63.1055 41.9893 63.1055 42.5801V46.2715C63.1055 46.5352 63.1274 46.8159 63.1714 47.1138C63.2202 47.4116 63.291 47.668 63.3838 47.8828V48H61.9702C61.9019 47.8438 61.8481 47.6362 61.8091 47.3774C61.77 47.1138 61.7505 46.8696 61.7505 46.645ZM61.9849 43.1953L61.9995 44.1475H60.6299C60.2441 44.1475 59.8999 44.1792 59.5972 44.2427C59.2944 44.3013 59.0405 44.3916 58.8354 44.5137C58.6304 44.6357 58.4741 44.7896 58.3667 44.9751C58.2593 45.1558 58.2056 45.3682 58.2056 45.6123C58.2056 45.8613 58.2617 46.0884 58.374 46.2935C58.4863 46.4985 58.6548 46.6621 58.8794 46.7842C59.1089 46.9014 59.3896 46.96 59.7217 46.96C60.1367 46.96 60.5029 46.8721 60.8203 46.6963C61.1377 46.5205 61.3892 46.3057 61.5747 46.0518C61.7651 45.7979 61.8677 45.5513 61.8823 45.312L62.4609 45.9639C62.4268 46.1689 62.334 46.396 62.1826 46.645C62.0312 46.894 61.8286 47.1333 61.5747 47.3628C61.3257 47.5874 61.0278 47.7754 60.6812 47.9268C60.3394 48.0732 59.9536 48.1465 59.5239 48.1465C58.9868 48.1465 58.5156 48.0415 58.1104 47.8315C57.71 47.6216 57.3975 47.3408 57.1729 46.9893C56.9531 46.6328 56.8433 46.2349 56.8433 45.7954C56.8433 45.3706 56.9263 44.9971 57.0923 44.6748C57.2583 44.3477 57.4976 44.0767 57.8101 43.8618C58.1226 43.6421 58.4985 43.4761 58.938 43.3638C59.3774 43.2515 59.8682 43.1953 60.4102 43.1953H61.9849ZM66.1523 40.0752L67.8882 42.9609L69.646 40.0752H71.2354L68.6426 43.9863L71.3159 48H69.7485L67.9175 45.0264L66.0864 48H64.5117L67.1777 43.9863L64.5923 40.0752H66.1523ZM77.3511 46.645V42.5654C77.3511 42.2529 77.2876 41.9819 77.1606 41.7524C77.0386 41.5181 76.853 41.3374 76.604 41.2104C76.355 41.0835 76.0474 41.02 75.6812 41.02C75.3394 41.02 75.0391 41.0786 74.7803 41.1958C74.5264 41.313 74.3262 41.4668 74.1797 41.6572C74.0381 41.8477 73.9673 42.0527 73.9673 42.2725H72.6123C72.6123 41.9893 72.6855 41.7085 72.832 41.4302C72.9785 41.1519 73.1885 40.9004 73.4619 40.6758C73.7402 40.4463 74.0723 40.2656 74.458 40.1338C74.8486 39.9971 75.2832 39.9287 75.7617 39.9287C76.3379 39.9287 76.8457 40.0264 77.2852 40.2217C77.7295 40.417 78.0762 40.7124 78.3252 41.1079C78.5791 41.4985 78.7061 41.9893 78.7061 42.5801V46.2715C78.7061 46.5352 78.728 46.8159 78.772 47.1138C78.8208 47.4116 78.8916 47.668 78.9844 47.8828V48H77.5708C77.5024 47.8438 77.4487 47.6362 77.4097 47.3774C77.3706 47.1138 77.3511 46.8696 77.3511 46.645ZM77.5854 43.1953L77.6001 44.1475H76.2305C75.8447 44.1475 75.5005 44.1792 75.1978 44.2427C74.895 44.3013 74.6411 44.3916 74.436 44.5137C74.231 44.6357 74.0747 44.7896 73.9673 44.9751C73.8599 45.1558 73.8062 45.3682 73.8062 45.6123C73.8062 45.8613 73.8623 46.0884 73.9746 46.2935C74.0869 46.4985 74.2554 46.6621 74.48 46.7842C74.7095 46.9014 74.9902 46.96 75.3223 46.96C75.7373 46.96 76.1035 46.8721 76.4209 46.6963C76.7383 46.5205 76.9897 46.3057 77.1753 46.0518C77.3657 45.7979 77.4683 45.5513 77.4829 45.312L78.0615 45.9639C78.0273 46.1689 77.9346 46.396 77.7832 46.645C77.6318 46.894 77.4292 47.1333 77.1753 47.3628C76.9263 47.5874 76.6284 47.7754 76.2817 47.9268C75.9399 48.0732 75.5542 48.1465 75.1245 48.1465C74.5874 48.1465 74.1162 48.0415 73.7109 47.8315C73.3105 47.6216 72.998 47.3408 72.7734 46.9893C72.5537 46.6328 72.4438 46.2349 72.4438 45.7954C72.4438 45.3706 72.5269 44.9971 72.6929 44.6748C72.8589 44.3477 73.0981 44.0767 73.4106 43.8618C73.7231 43.6421 74.0991 43.4761 74.5386 43.3638C74.978 43.2515 75.4688 43.1953 76.0107 43.1953H77.5854ZM86.1328 40.0752V41.1958H82.3022V40.0752H86.1328ZM87.3267 40.0752V48H85.9717V40.0752H87.3267ZM81.9727 40.0752H83.335L83.1299 43.8984C83.0957 44.4893 83.0396 45.0117 82.9614 45.4658C82.8882 45.915 82.7856 46.3008 82.6538 46.623C82.5269 46.9453 82.3657 47.209 82.1704 47.4141C81.98 47.6143 81.7505 47.7632 81.4819 47.8608C81.2134 47.9536 80.9033 48 80.5518 48H80.127V46.8062L80.4199 46.7842C80.6299 46.7695 80.8081 46.7207 80.9546 46.6377C81.106 46.5547 81.2329 46.4326 81.3354 46.2715C81.438 46.1055 81.521 45.8931 81.5845 45.6343C81.6528 45.3755 81.7041 45.0679 81.7383 44.7114C81.7773 44.355 81.8066 43.9399 81.8262 43.4663L81.9727 40.0752ZM90.9741 45.854L94.6289 40.0752H95.9912V48H94.6289V42.2212L90.9741 48H89.6265V40.0752H90.9741V45.854ZM103.542 43.5103V44.6089H99.353V43.5103H103.542ZM99.6387 40.0752V48H98.2837V40.0752H99.6387ZM104.641 40.0752V48H103.279V40.0752H104.641ZM109.995 47.0332C110.317 47.0332 110.615 46.9673 110.889 46.8354C111.162 46.7036 111.387 46.5229 111.562 46.2935C111.738 46.0591 111.838 45.793 111.863 45.4951H113.152C113.127 45.9639 112.969 46.4009 112.676 46.8062C112.388 47.2065 112.009 47.5312 111.541 47.7803C111.072 48.0244 110.557 48.1465 109.995 48.1465C109.399 48.1465 108.879 48.0415 108.435 47.8315C107.996 47.6216 107.629 47.3335 107.336 46.9673C107.048 46.6011 106.831 46.1812 106.685 45.7075C106.543 45.229 106.472 44.7236 106.472 44.1914V43.8838C106.472 43.3516 106.543 42.8486 106.685 42.375C106.831 41.8965 107.048 41.4741 107.336 41.1079C107.629 40.7417 107.996 40.4536 108.435 40.2437C108.879 40.0337 109.399 39.9287 109.995 39.9287C110.615 39.9287 111.157 40.0557 111.621 40.3096C112.085 40.5586 112.449 40.9004 112.712 41.335C112.981 41.7646 113.127 42.2529 113.152 42.7998H111.863C111.838 42.4727 111.746 42.1772 111.584 41.9136C111.428 41.6499 111.213 41.4399 110.94 41.2837C110.671 41.1226 110.356 41.042 109.995 41.042C109.58 41.042 109.231 41.125 108.948 41.291C108.669 41.4521 108.447 41.6719 108.281 41.9502C108.12 42.2236 108.003 42.5288 107.93 42.8657C107.861 43.1978 107.827 43.5371 107.827 43.8838V44.1914C107.827 44.5381 107.861 44.8799 107.93 45.2168C107.998 45.5537 108.113 45.8589 108.274 46.1323C108.44 46.4058 108.662 46.6255 108.94 46.7915C109.224 46.9526 109.575 47.0332 109.995 47.0332ZM116.147 40.0752V48H114.792V40.0752H116.147ZM121.348 40.0752L117.59 44.6162H115.693L115.488 43.4297H117.041L119.7 40.0752H121.348ZM119.89 48L116.975 44.4111L117.847 43.4297L121.611 48H119.89Z" fill="white"/>
<path d="M158.624 12.8501V14H150.553V12.8501H158.624ZM150.78 12.8501V16.6221H149.381L149.374 12.8501H150.78ZM159.854 12.8501L159.84 16.6147H158.441V12.8501H159.854ZM157.24 3.33594V4.49316H152.567V3.33594H157.24ZM158.456 3.33594V14H157.049V3.33594H158.456ZM152.083 3.33594H153.497L153.277 7.62793C153.248 8.27246 153.187 8.86816 153.094 9.41504C153.001 9.95703 152.887 10.4526 152.75 10.9019C152.613 11.3511 152.457 11.7539 152.281 12.1104C152.105 12.4619 151.917 12.7671 151.717 13.0259C151.517 13.2798 151.307 13.4897 151.087 13.6558C150.873 13.8169 150.655 13.9316 150.436 14H149.791V12.8501H150.245C150.372 12.7134 150.516 12.5156 150.677 12.2568C150.843 11.998 151.007 11.6636 151.168 11.2534C151.334 10.8384 151.478 10.333 151.6 9.7373C151.727 9.1416 151.812 8.43848 151.856 7.62793L152.083 3.33594ZM160.953 10.1255V9.95703C160.953 9.38574 161.036 8.85596 161.202 8.36768C161.368 7.87451 161.607 7.44727 161.92 7.08594C162.232 6.71973 162.611 6.43652 163.055 6.23633C163.5 6.03125 163.998 5.92871 164.549 5.92871C165.106 5.92871 165.606 6.03125 166.051 6.23633C166.5 6.43652 166.881 6.71973 167.193 7.08594C167.511 7.44727 167.752 7.87451 167.918 8.36768C168.084 8.85596 168.167 9.38574 168.167 9.95703V10.1255C168.167 10.6968 168.084 11.2266 167.918 11.7148C167.752 12.2031 167.511 12.6304 167.193 12.9966C166.881 13.3579 166.502 13.6411 166.058 13.8462C165.619 14.0464 165.121 14.1465 164.564 14.1465C164.007 14.1465 163.507 14.0464 163.062 13.8462C162.618 13.6411 162.237 13.3579 161.92 12.9966C161.607 12.6304 161.368 12.2031 161.202 11.7148C161.036 11.2266 160.953 10.6968 160.953 10.1255ZM162.308 9.95703V10.1255C162.308 10.521 162.354 10.8945 162.447 11.2461C162.54 11.5928 162.679 11.9004 162.865 12.1689C163.055 12.4375 163.292 12.6499 163.575 12.8062C163.858 12.9575 164.188 13.0332 164.564 13.0332C164.935 13.0332 165.26 12.9575 165.538 12.8062C165.821 12.6499 166.056 12.4375 166.241 12.1689C166.427 11.9004 166.566 11.5928 166.659 11.2461C166.756 10.8945 166.805 10.521 166.805 10.1255V9.95703C166.805 9.56641 166.756 9.19775 166.659 8.85107C166.566 8.49951 166.424 8.18945 166.234 7.9209C166.048 7.64746 165.814 7.43262 165.531 7.27637C165.252 7.12012 164.925 7.04199 164.549 7.04199C164.178 7.04199 163.851 7.12012 163.568 7.27637C163.29 7.43262 163.055 7.64746 162.865 7.9209C162.679 8.18945 162.54 8.49951 162.447 8.85107C162.354 9.19775 162.308 9.56641 162.308 9.95703ZM175.045 6.0752V7.1958H171.214V6.0752H175.045ZM176.239 6.0752V14H174.884V6.0752H176.239ZM170.885 6.0752H172.247L172.042 9.89844C172.008 10.4893 171.952 11.0117 171.874 11.4658C171.8 11.915 171.698 12.3008 171.566 12.623C171.439 12.9453 171.278 13.209 171.083 13.4141C170.892 13.6143 170.663 13.7632 170.394 13.8608C170.125 13.9536 169.815 14 169.464 14H169.039V12.8062L169.332 12.7842C169.542 12.7695 169.72 12.7207 169.867 12.6377C170.018 12.5547 170.145 12.4326 170.248 12.2715C170.35 12.1055 170.433 11.8931 170.497 11.6343C170.565 11.3755 170.616 11.0679 170.65 10.7114C170.689 10.355 170.719 9.93994 170.738 9.46631L170.885 6.0752ZM179.886 11.854L183.541 6.0752H184.903V14H183.541V8.22119L179.886 14H178.539V6.0752H179.886V11.854ZM192.455 9.51025V10.6089H188.265V9.51025H192.455ZM188.551 6.0752V14H187.196V6.0752H188.551ZM193.553 6.0752V14H192.191V6.0752H193.553ZM198.907 13.0332C199.229 13.0332 199.527 12.9673 199.801 12.8354C200.074 12.7036 200.299 12.5229 200.475 12.2935C200.65 12.0591 200.75 11.793 200.775 11.4951H202.064C202.04 11.9639 201.881 12.4009 201.588 12.8062C201.3 13.2065 200.921 13.5312 200.453 13.7803C199.984 14.0244 199.469 14.1465 198.907 14.1465C198.312 14.1465 197.792 14.0415 197.347 13.8315C196.908 13.6216 196.542 13.3335 196.249 12.9673C195.96 12.6011 195.743 12.1812 195.597 11.7075C195.455 11.229 195.384 10.7236 195.384 10.1914V9.88379C195.384 9.35156 195.455 8.84863 195.597 8.375C195.743 7.89648 195.96 7.47412 196.249 7.10791C196.542 6.7417 196.908 6.45361 197.347 6.24365C197.792 6.03369 198.312 5.92871 198.907 5.92871C199.527 5.92871 200.069 6.05566 200.533 6.30957C200.997 6.55859 201.361 6.90039 201.625 7.33496C201.893 7.76465 202.04 8.25293 202.064 8.7998H200.775C200.75 8.47266 200.658 8.17725 200.497 7.91357C200.34 7.6499 200.125 7.43994 199.852 7.28369C199.583 7.12256 199.269 7.04199 198.907 7.04199C198.492 7.04199 198.143 7.125 197.86 7.29102C197.582 7.45215 197.359 7.67188 197.193 7.9502C197.032 8.22363 196.915 8.52881 196.842 8.86572C196.773 9.19775 196.739 9.53711 196.739 9.88379V10.1914C196.739 10.5381 196.773 10.8799 196.842 11.2168C196.91 11.5537 197.025 11.8589 197.186 12.1323C197.352 12.4058 197.574 12.6255 197.853 12.7915C198.136 12.9526 198.487 13.0332 198.907 13.0332ZM205.06 6.0752V14H203.705V6.0752H205.06ZM210.26 6.0752L206.502 10.6162H204.605L204.4 9.42969H205.953L208.612 6.0752H210.26ZM208.802 14L205.887 10.4111L206.759 9.42969L210.523 14H208.802Z" fill="white"/>
<path d="M158.588 70.1982L161.284 64.0752H162.587L159.057 72H158.12L154.604 64.0752H155.908L158.588 70.1982ZM155.512 64.0752V72H154.157V64.0752H155.512ZM161.621 72V64.0752H162.983V72H161.621ZM166.279 66.7998H168.659C169.299 66.7998 169.838 66.9121 170.278 67.1367C170.717 67.3564 171.049 67.6616 171.274 68.0522C171.503 68.438 171.618 68.8774 171.618 69.3706C171.618 69.7368 171.555 70.0811 171.428 70.4033C171.301 70.7207 171.11 70.999 170.856 71.2383C170.607 71.4775 170.297 71.6655 169.926 71.8022C169.56 71.9341 169.138 72 168.659 72H165.29V64.0752H166.645V70.8867H168.659C169.05 70.8867 169.362 70.8159 169.597 70.6743C169.831 70.5327 170 70.3496 170.102 70.125C170.205 69.9004 170.256 69.666 170.256 69.4219C170.256 69.1826 170.205 68.9482 170.102 68.7188C170 68.4893 169.831 68.2988 169.597 68.1475C169.362 67.9912 169.05 67.9131 168.659 67.9131H166.279V66.7998ZM174.438 64.0752V72H173.083V64.0752H174.438ZM179.982 71.0332C180.305 71.0332 180.603 70.9673 180.876 70.8354C181.149 70.7036 181.374 70.5229 181.55 70.2935C181.726 70.0591 181.826 69.793 181.85 69.4951H183.139C183.115 69.9639 182.956 70.4009 182.663 70.8062C182.375 71.2065 181.997 71.5312 181.528 71.7803C181.059 72.0244 180.544 72.1465 179.982 72.1465C179.387 72.1465 178.867 72.0415 178.422 71.8315C177.983 71.6216 177.617 71.3335 177.324 70.9673C177.036 70.6011 176.818 70.1812 176.672 69.7075C176.53 69.229 176.459 68.7236 176.459 68.1914V67.8838C176.459 67.3516 176.53 66.8486 176.672 66.375C176.818 65.8965 177.036 65.4741 177.324 65.1079C177.617 64.7417 177.983 64.4536 178.422 64.2437C178.867 64.0337 179.387 63.9287 179.982 63.9287C180.603 63.9287 181.145 64.0557 181.608 64.3096C182.072 64.5586 182.436 64.9004 182.7 65.335C182.968 65.7646 183.115 66.2529 183.139 66.7998H181.85C181.826 66.4727 181.733 66.1772 181.572 65.9136C181.416 65.6499 181.201 65.4399 180.927 65.2837C180.659 65.1226 180.344 65.042 179.982 65.042C179.567 65.042 179.218 65.125 178.935 65.291C178.657 65.4521 178.435 65.6719 178.269 65.9502C178.107 66.2236 177.99 66.5288 177.917 66.8657C177.849 67.1978 177.814 67.5371 177.814 67.8838V68.1914C177.814 68.5381 177.849 68.8799 177.917 69.2168C177.985 69.5537 178.1 69.8589 178.261 70.1323C178.427 70.4058 178.649 70.6255 178.928 70.7915C179.211 70.9526 179.562 71.0332 179.982 71.0332ZM196.799 66.3311V67.0049C196.799 67.8057 196.699 68.5234 196.499 69.1582C196.298 69.793 196.01 70.3325 195.634 70.7769C195.258 71.2212 194.807 71.5605 194.279 71.7949C193.757 72.0293 193.171 72.1465 192.521 72.1465C191.892 72.1465 191.313 72.0293 190.786 71.7949C190.263 71.5605 189.809 71.2212 189.423 70.7769C189.042 70.3325 188.747 69.793 188.537 69.1582C188.327 68.5234 188.222 67.8057 188.222 67.0049V66.3311C188.222 65.5303 188.325 64.8149 188.53 64.1851C188.74 63.5503 189.035 63.0107 189.416 62.5664C189.797 62.1172 190.249 61.7754 190.771 61.541C191.298 61.3066 191.877 61.1895 192.507 61.1895C193.156 61.1895 193.742 61.3066 194.265 61.541C194.792 61.7754 195.244 62.1172 195.62 62.5664C196 63.0107 196.291 63.5503 196.491 64.1851C196.696 64.8149 196.799 65.5303 196.799 66.3311ZM195.4 67.0049V66.3164C195.4 65.6816 195.334 65.1201 195.202 64.6318C195.075 64.1436 194.887 63.7334 194.638 63.4014C194.389 63.0693 194.084 62.8179 193.723 62.647C193.366 62.4761 192.961 62.3906 192.507 62.3906C192.067 62.3906 191.669 62.4761 191.313 62.647C190.961 62.8179 190.659 63.0693 190.405 63.4014C190.156 63.7334 189.963 64.1436 189.826 64.6318C189.689 65.1201 189.621 65.6816 189.621 66.3164V67.0049C189.621 67.6445 189.689 68.2109 189.826 68.7041C189.963 69.1924 190.158 69.605 190.412 69.9419C190.671 70.2739 190.976 70.5254 191.328 70.6963C191.684 70.8672 192.082 70.9526 192.521 70.9526C192.98 70.9526 193.388 70.8672 193.745 70.6963C194.101 70.5254 194.401 70.2739 194.646 69.9419C194.895 69.605 195.083 69.1924 195.209 68.7041C195.336 68.2109 195.4 67.6445 195.4 67.0049ZM201.882 71.0332C202.204 71.0332 202.502 70.9673 202.775 70.8354C203.049 70.7036 203.273 70.5229 203.449 70.2935C203.625 70.0591 203.725 69.793 203.75 69.4951H205.039C205.014 69.9639 204.855 70.4009 204.562 70.8062C204.274 71.2065 203.896 71.5312 203.427 71.7803C202.958 72.0244 202.443 72.1465 201.882 72.1465C201.286 72.1465 200.766 72.0415 200.322 71.8315C199.882 71.6216 199.516 71.3335 199.223 70.9673C198.935 70.6011 198.718 70.1812 198.571 69.7075C198.43 69.229 198.359 68.7236 198.359 68.1914V67.8838C198.359 67.3516 198.43 66.8486 198.571 66.375C198.718 65.8965 198.935 65.4741 199.223 65.1079C199.516 64.7417 199.882 64.4536 200.322 64.2437C200.766 64.0337 201.286 63.9287 201.882 63.9287C202.502 63.9287 203.044 64.0557 203.508 64.3096C203.972 64.5586 204.335 64.9004 204.599 65.335C204.868 65.7646 205.014 66.2529 205.039 66.7998H203.75C203.725 66.4727 203.632 66.1772 203.471 65.9136C203.315 65.6499 203.1 65.4399 202.827 65.2837C202.558 65.1226 202.243 65.042 201.882 65.042C201.467 65.042 201.118 65.125 200.834 65.291C200.556 65.4521 200.334 65.6719 200.168 65.9502C200.007 66.2236 199.89 66.5288 199.816 66.8657C199.748 67.1978 199.714 67.5371 199.714 67.8838V68.1914C199.714 68.5381 199.748 68.8799 199.816 69.2168C199.885 69.5537 200 69.8589 200.161 70.1323C200.327 70.4058 200.549 70.6255 200.827 70.7915C201.11 70.9526 201.462 71.0332 201.882 71.0332ZM209.792 64.0752V72H208.43V64.0752H209.792ZM212.451 64.0752V65.1738H205.822V64.0752H212.451ZM215.139 65.5986V75.0469H213.776V64.0752H215.021L215.139 65.5986ZM220.478 67.9717V68.1255C220.478 68.7017 220.41 69.2363 220.273 69.7295C220.136 70.2178 219.936 70.6426 219.672 71.0039C219.414 71.3652 219.094 71.646 218.713 71.8462C218.332 72.0464 217.895 72.1465 217.402 72.1465C216.899 72.1465 216.455 72.0635 216.069 71.8975C215.683 71.7314 215.356 71.4897 215.087 71.1724C214.819 70.855 214.604 70.4741 214.443 70.0298C214.287 69.5854 214.179 69.085 214.121 68.5283V67.708C214.179 67.1221 214.289 66.5972 214.45 66.1333C214.611 65.6694 214.824 65.2739 215.087 64.9468C215.356 64.6147 215.681 64.3633 216.062 64.1924C216.442 64.0166 216.882 63.9287 217.38 63.9287C217.878 63.9287 218.32 64.0264 218.706 64.2217C219.091 64.4121 219.416 64.6855 219.68 65.042C219.943 65.3984 220.141 65.8257 220.273 66.3237C220.41 66.8169 220.478 67.3662 220.478 67.9717ZM219.116 68.1255V67.9717C219.116 67.5762 219.074 67.2051 218.991 66.8584C218.908 66.5068 218.779 66.1992 218.603 65.9355C218.432 65.667 218.212 65.457 217.944 65.3057C217.675 65.1494 217.355 65.0713 216.984 65.0713C216.643 65.0713 216.345 65.1299 216.091 65.2471C215.842 65.3643 215.629 65.5229 215.454 65.7231C215.278 65.9185 215.134 66.1431 215.021 66.397C214.914 66.646 214.833 66.9048 214.78 67.1733V69.0703C214.877 69.4121 215.014 69.7344 215.19 70.0371C215.366 70.335 215.6 70.5767 215.893 70.7622C216.186 70.9429 216.555 71.0332 216.999 71.0332C217.365 71.0332 217.68 70.9575 217.944 70.8062C218.212 70.6499 218.432 70.4375 218.603 70.1689C218.779 69.9004 218.908 69.5928 218.991 69.2461C219.074 68.8945 219.116 68.521 219.116 68.1255ZM223.32 66.7998H225.7C226.34 66.7998 226.879 66.9121 227.319 67.1367C227.758 67.3564 228.09 67.6616 228.315 68.0522C228.544 68.438 228.659 68.8774 228.659 69.3706C228.659 69.7368 228.596 70.0811 228.469 70.4033C228.342 70.7207 228.151 70.999 227.897 71.2383C227.648 71.4775 227.338 71.6655 226.967 71.8022C226.601 71.9341 226.179 72 225.7 72H222.331V64.0752H223.686V70.8867H225.7C226.091 70.8867 226.403 70.8159 226.638 70.6743C226.872 70.5327 227.041 70.3496 227.143 70.125C227.246 69.9004 227.297 69.666 227.297 69.4219C227.297 69.1826 227.246 68.9482 227.143 68.7188C227.041 68.4893 226.872 68.2988 226.638 68.1475C226.403 67.9912 226.091 67.9131 225.7 67.9131H223.32V66.7998ZM231.479 64.0752V72H230.124V64.0752H231.479ZM235.317 69.854L238.972 64.0752H240.334V72H238.972V66.2212L235.317 72H233.969V64.0752H235.317V69.854ZM238.232 61.2041H239.331C239.331 61.585 239.243 61.9243 239.067 62.2222C238.891 62.5151 238.64 62.7446 238.312 62.9106C237.985 63.0767 237.597 63.1597 237.148 63.1597C236.469 63.1597 235.932 62.979 235.537 62.6177C235.146 62.2515 234.951 61.7803 234.951 61.2041H236.049C236.049 61.4922 236.132 61.7461 236.298 61.9658C236.464 62.1855 236.748 62.2954 237.148 62.2954C237.539 62.2954 237.817 62.1855 237.983 61.9658C238.149 61.7461 238.232 61.4922 238.232 61.2041Z" fill="white"/>
<path d="M107.448 183.331V184.005C107.448 184.806 107.348 185.523 107.148 186.158C106.948 186.793 106.66 187.333 106.284 187.777C105.908 188.221 105.456 188.561 104.929 188.795C104.406 189.029 103.82 189.146 103.171 189.146C102.541 189.146 101.962 189.029 101.435 188.795C100.913 188.561 100.458 188.221 100.073 187.777C99.6919 187.333 99.3965 186.793 99.1865 186.158C98.9766 185.523 98.8716 184.806 98.8716 184.005V183.331C98.8716 182.53 98.9741 181.815 99.1792 181.185C99.3892 180.55 99.6846 180.011 100.065 179.566C100.446 179.117 100.898 178.775 101.42 178.541C101.948 178.307 102.526 178.189 103.156 178.189C103.806 178.189 104.392 178.307 104.914 178.541C105.441 178.775 105.893 179.117 106.269 179.566C106.65 180.011 106.94 180.55 107.141 181.185C107.346 181.815 107.448 182.53 107.448 183.331ZM106.049 184.005V183.316C106.049 182.682 105.983 182.12 105.852 181.632C105.725 181.144 105.537 180.733 105.288 180.401C105.039 180.069 104.733 179.818 104.372 179.647C104.016 179.476 103.61 179.391 103.156 179.391C102.717 179.391 102.319 179.476 101.962 179.647C101.611 179.818 101.308 180.069 101.054 180.401C100.805 180.733 100.612 181.144 100.476 181.632C100.339 182.12 100.271 182.682 100.271 183.316V184.005C100.271 184.645 100.339 185.211 100.476 185.704C100.612 186.192 100.808 186.605 101.062 186.942C101.32 187.274 101.625 187.525 101.977 187.696C102.333 187.867 102.731 187.953 103.171 187.953C103.63 187.953 104.038 187.867 104.394 187.696C104.75 187.525 105.051 187.274 105.295 186.942C105.544 186.605 105.732 186.192 105.859 185.704C105.986 185.211 106.049 184.645 106.049 184.005ZM110.275 181.075L112.011 183.961L113.769 181.075H115.358L112.766 184.986L115.439 189H113.872L112.041 186.026L110.209 189H108.635L111.301 184.986L108.715 181.075H110.275ZM116.296 185.125V184.957C116.296 184.386 116.379 183.856 116.545 183.368C116.711 182.875 116.95 182.447 117.263 182.086C117.575 181.72 117.954 181.437 118.398 181.236C118.842 181.031 119.34 180.929 119.892 180.929C120.449 180.929 120.949 181.031 121.394 181.236C121.843 181.437 122.224 181.72 122.536 182.086C122.854 182.447 123.095 182.875 123.261 183.368C123.427 183.856 123.51 184.386 123.51 184.957V185.125C123.51 185.697 123.427 186.227 123.261 186.715C123.095 187.203 122.854 187.63 122.536 187.997C122.224 188.358 121.845 188.641 121.401 188.846C120.961 189.046 120.463 189.146 119.907 189.146C119.35 189.146 118.85 189.046 118.405 188.846C117.961 188.641 117.58 188.358 117.263 187.997C116.95 187.63 116.711 187.203 116.545 186.715C116.379 186.227 116.296 185.697 116.296 185.125ZM117.651 184.957V185.125C117.651 185.521 117.697 185.895 117.79 186.246C117.883 186.593 118.022 186.9 118.208 187.169C118.398 187.438 118.635 187.65 118.918 187.806C119.201 187.958 119.531 188.033 119.907 188.033C120.278 188.033 120.603 187.958 120.881 187.806C121.164 187.65 121.398 187.438 121.584 187.169C121.77 186.9 121.909 186.593 122.001 186.246C122.099 185.895 122.148 185.521 122.148 185.125V184.957C122.148 184.566 122.099 184.198 122.001 183.851C121.909 183.5 121.767 183.189 121.577 182.921C121.391 182.647 121.157 182.433 120.874 182.276C120.595 182.12 120.268 182.042 119.892 182.042C119.521 182.042 119.194 182.12 118.911 182.276C118.632 182.433 118.398 182.647 118.208 182.921C118.022 183.189 117.883 183.5 117.79 183.851C117.697 184.198 117.651 184.566 117.651 184.957ZM128.278 181.075V189H126.916V181.075H128.278ZM130.937 181.075V182.174H124.309V181.075H130.937ZM134.855 188.033C135.178 188.033 135.476 187.967 135.749 187.835C136.022 187.704 136.247 187.523 136.423 187.293C136.599 187.059 136.699 186.793 136.723 186.495H138.012C137.988 186.964 137.829 187.401 137.536 187.806C137.248 188.207 136.87 188.531 136.401 188.78C135.932 189.024 135.417 189.146 134.855 189.146C134.26 189.146 133.74 189.042 133.295 188.832C132.856 188.622 132.49 188.333 132.197 187.967C131.909 187.601 131.691 187.181 131.545 186.708C131.403 186.229 131.333 185.724 131.333 185.191V184.884C131.333 184.352 131.403 183.849 131.545 183.375C131.691 182.896 131.909 182.474 132.197 182.108C132.49 181.742 132.856 181.454 133.295 181.244C133.74 181.034 134.26 180.929 134.855 180.929C135.476 180.929 136.018 181.056 136.481 181.31C136.945 181.559 137.309 181.9 137.573 182.335C137.841 182.765 137.988 183.253 138.012 183.8H136.723C136.699 183.473 136.606 183.177 136.445 182.914C136.289 182.65 136.074 182.44 135.8 182.284C135.532 182.123 135.217 182.042 134.855 182.042C134.44 182.042 134.091 182.125 133.808 182.291C133.53 182.452 133.308 182.672 133.142 182.95C132.98 183.224 132.863 183.529 132.79 183.866C132.722 184.198 132.688 184.537 132.688 184.884V185.191C132.688 185.538 132.722 185.88 132.79 186.217C132.858 186.554 132.973 186.859 133.134 187.132C133.3 187.406 133.522 187.625 133.801 187.792C134.084 187.953 134.436 188.033 134.855 188.033ZM141.008 181.075V189H139.653V181.075H141.008ZM146.208 181.075L142.451 185.616H140.554L140.349 184.43H141.901L144.56 181.075H146.208ZM144.75 189L141.835 185.411L142.707 184.43L146.472 189H144.75ZM147.131 185.125V184.957C147.131 184.386 147.214 183.856 147.38 183.368C147.546 182.875 147.785 182.447 148.098 182.086C148.41 181.72 148.789 181.437 149.233 181.236C149.677 181.031 150.175 180.929 150.727 180.929C151.284 180.929 151.784 181.031 152.229 181.236C152.678 181.437 153.059 181.72 153.371 182.086C153.688 182.447 153.93 182.875 154.096 183.368C154.262 183.856 154.345 184.386 154.345 184.957V185.125C154.345 185.697 154.262 186.227 154.096 186.715C153.93 187.203 153.688 187.63 153.371 187.997C153.059 188.358 152.68 188.641 152.236 188.846C151.796 189.046 151.298 189.146 150.742 189.146C150.185 189.146 149.685 189.046 149.24 188.846C148.796 188.641 148.415 188.358 148.098 187.997C147.785 187.63 147.546 187.203 147.38 186.715C147.214 186.227 147.131 185.697 147.131 185.125ZM148.486 184.957V185.125C148.486 185.521 148.532 185.895 148.625 186.246C148.718 186.593 148.857 186.9 149.042 187.169C149.233 187.438 149.47 187.65 149.753 187.806C150.036 187.958 150.366 188.033 150.742 188.033C151.113 188.033 151.438 187.958 151.716 187.806C151.999 187.65 152.233 187.438 152.419 187.169C152.604 186.9 152.744 186.593 152.836 186.246C152.934 185.895 152.983 185.521 152.983 185.125V184.957C152.983 184.566 152.934 184.198 152.836 183.851C152.744 183.5 152.602 183.189 152.412 182.921C152.226 182.647 151.992 182.433 151.708 182.276C151.43 182.12 151.103 182.042 150.727 182.042C150.356 182.042 150.029 182.12 149.746 182.276C149.467 182.433 149.233 182.647 149.042 182.921C148.857 183.189 148.718 183.5 148.625 183.851C148.532 184.198 148.486 184.566 148.486 184.957ZM159.333 189.146C158.781 189.146 158.281 189.054 157.832 188.868C157.387 188.678 157.004 188.412 156.682 188.07C156.364 187.728 156.12 187.323 155.949 186.854C155.778 186.385 155.693 185.873 155.693 185.316V185.008C155.693 184.364 155.788 183.79 155.979 183.287C156.169 182.779 156.428 182.35 156.755 181.998C157.082 181.646 157.453 181.38 157.868 181.2C158.283 181.019 158.713 180.929 159.157 180.929C159.724 180.929 160.212 181.026 160.622 181.222C161.037 181.417 161.376 181.69 161.64 182.042C161.904 182.389 162.099 182.799 162.226 183.272C162.353 183.741 162.417 184.254 162.417 184.811V185.418H156.499V184.312H161.062V184.21C161.042 183.858 160.969 183.517 160.842 183.185C160.72 182.853 160.524 182.579 160.256 182.364C159.987 182.149 159.621 182.042 159.157 182.042C158.85 182.042 158.566 182.108 158.308 182.24C158.049 182.367 157.827 182.557 157.641 182.811C157.456 183.065 157.312 183.375 157.209 183.741C157.106 184.107 157.055 184.53 157.055 185.008V185.316C157.055 185.692 157.106 186.046 157.209 186.378C157.316 186.705 157.47 186.993 157.67 187.242C157.875 187.491 158.122 187.687 158.41 187.828C158.703 187.97 159.035 188.041 159.406 188.041C159.885 188.041 160.29 187.943 160.622 187.748C160.954 187.552 161.245 187.291 161.494 186.964L162.314 187.616C162.143 187.875 161.926 188.121 161.662 188.355C161.398 188.59 161.074 188.78 160.688 188.927C160.307 189.073 159.855 189.146 159.333 189.146Z" fill="white"/>
<path d="M107.676 223.609H109.082C109.009 224.283 108.816 224.886 108.503 225.418C108.191 225.95 107.749 226.373 107.178 226.685C106.606 226.993 105.894 227.146 105.039 227.146C104.414 227.146 103.845 227.029 103.333 226.795C102.825 226.561 102.388 226.229 102.021 225.799C101.655 225.364 101.372 224.844 101.172 224.239C100.977 223.628 100.879 222.95 100.879 222.203V221.141C100.879 220.394 100.977 219.717 101.172 219.112C101.372 218.501 101.658 217.979 102.029 217.544C102.405 217.11 102.856 216.775 103.384 216.541C103.911 216.307 104.504 216.189 105.164 216.189C105.969 216.189 106.65 216.341 107.207 216.644C107.764 216.946 108.196 217.366 108.503 217.903C108.816 218.436 109.009 219.053 109.082 219.756H107.676C107.607 219.258 107.48 218.831 107.295 218.475C107.109 218.113 106.846 217.835 106.504 217.64C106.162 217.444 105.715 217.347 105.164 217.347C104.69 217.347 104.272 217.437 103.911 217.618C103.555 217.798 103.254 218.055 103.01 218.387C102.771 218.719 102.59 219.117 102.468 219.581C102.346 220.044 102.285 220.56 102.285 221.126V222.203C102.285 222.725 102.339 223.216 102.446 223.675C102.559 224.134 102.727 224.537 102.952 224.883C103.176 225.23 103.462 225.503 103.809 225.704C104.155 225.899 104.565 225.997 105.039 225.997C105.64 225.997 106.118 225.901 106.475 225.711C106.831 225.521 107.1 225.247 107.28 224.891C107.466 224.534 107.598 224.107 107.676 223.609ZM114.524 223.514H111.924L111.909 222.43H114.033C114.453 222.43 114.802 222.388 115.081 222.305C115.364 222.222 115.576 222.098 115.718 221.932C115.859 221.766 115.93 221.561 115.93 221.316C115.93 221.126 115.889 220.96 115.806 220.818C115.728 220.672 115.608 220.552 115.447 220.459C115.286 220.362 115.085 220.291 114.846 220.247C114.612 220.198 114.336 220.174 114.019 220.174H112.283V227H110.928V219.075H114.019C114.521 219.075 114.973 219.119 115.374 219.207C115.779 219.295 116.123 219.429 116.406 219.61C116.694 219.786 116.914 220.01 117.065 220.284C117.217 220.557 117.292 220.879 117.292 221.25C117.292 221.49 117.244 221.717 117.146 221.932C117.048 222.146 116.904 222.337 116.714 222.503C116.523 222.669 116.289 222.806 116.011 222.913C115.732 223.016 115.413 223.082 115.051 223.111L114.524 223.514ZM114.524 227H111.433L112.107 225.901H114.524C114.9 225.901 115.212 225.855 115.461 225.762C115.71 225.665 115.896 225.528 116.018 225.352C116.145 225.171 116.208 224.957 116.208 224.708C116.208 224.458 116.145 224.246 116.018 224.07C115.896 223.89 115.71 223.753 115.461 223.66C115.212 223.562 114.9 223.514 114.524 223.514H112.466L112.48 222.43H115.051L115.542 222.84C115.977 222.874 116.345 222.981 116.648 223.162C116.951 223.343 117.18 223.572 117.336 223.851C117.493 224.124 117.571 224.422 117.571 224.744C117.571 225.115 117.5 225.442 117.358 225.726C117.222 226.009 117.021 226.246 116.758 226.436C116.494 226.622 116.174 226.763 115.798 226.861C115.422 226.954 114.998 227 114.524 227ZM119.028 223.125V222.957C119.028 222.386 119.111 221.856 119.277 221.368C119.443 220.875 119.683 220.447 119.995 220.086C120.308 219.72 120.686 219.437 121.13 219.236C121.575 219.031 122.073 218.929 122.625 218.929C123.181 218.929 123.682 219.031 124.126 219.236C124.575 219.437 124.956 219.72 125.269 220.086C125.586 220.447 125.828 220.875 125.994 221.368C126.16 221.856 126.243 222.386 126.243 222.957V223.125C126.243 223.697 126.16 224.227 125.994 224.715C125.828 225.203 125.586 225.63 125.269 225.997C124.956 226.358 124.578 226.641 124.133 226.846C123.694 227.046 123.196 227.146 122.639 227.146C122.083 227.146 121.582 227.046 121.138 226.846C120.693 226.641 120.312 226.358 119.995 225.997C119.683 225.63 119.443 225.203 119.277 224.715C119.111 224.227 119.028 223.697 119.028 223.125ZM120.383 222.957V223.125C120.383 223.521 120.43 223.895 120.522 224.246C120.615 224.593 120.754 224.9 120.94 225.169C121.13 225.438 121.367 225.65 121.65 225.806C121.934 225.958 122.263 226.033 122.639 226.033C123.01 226.033 123.335 225.958 123.613 225.806C123.896 225.65 124.131 225.438 124.316 225.169C124.502 224.9 124.641 224.593 124.734 224.246C124.832 223.895 124.88 223.521 124.88 223.125V222.957C124.88 222.566 124.832 222.198 124.734 221.851C124.641 221.5 124.5 221.189 124.309 220.921C124.124 220.647 123.889 220.433 123.606 220.276C123.328 220.12 123 220.042 122.625 220.042C122.253 220.042 121.926 220.12 121.643 220.276C121.365 220.433 121.13 220.647 120.94 220.921C120.754 221.189 120.615 221.5 120.522 221.851C120.43 222.198 120.383 222.566 120.383 222.957ZM133.025 215.625H134.138C134.138 216.104 134.065 216.485 133.918 216.768C133.772 217.046 133.572 217.261 133.318 217.413C133.069 217.564 132.786 217.679 132.468 217.757C132.156 217.835 131.831 217.911 131.494 217.984C131.074 218.072 130.684 218.211 130.322 218.401C129.966 218.587 129.658 218.851 129.399 219.192C129.146 219.534 128.958 219.979 128.835 220.525C128.718 221.072 128.687 221.749 128.74 222.554V223.228H127.627V222.554C127.627 221.651 127.712 220.862 127.883 220.188C128.059 219.515 128.306 218.946 128.623 218.482C128.94 218.018 129.316 217.649 129.751 217.376C130.19 217.103 130.674 216.915 131.201 216.812C131.582 216.739 131.909 216.661 132.183 216.578C132.456 216.49 132.664 216.373 132.805 216.226C132.952 216.08 133.025 215.879 133.025 215.625ZM131.421 219.529C131.938 219.529 132.4 219.62 132.805 219.8C133.21 219.981 133.555 220.232 133.838 220.555C134.121 220.877 134.336 221.258 134.482 221.697C134.634 222.132 134.709 222.605 134.709 223.118V223.279C134.709 223.831 134.629 224.344 134.468 224.817C134.312 225.286 134.08 225.696 133.772 226.048C133.469 226.395 133.098 226.666 132.659 226.861C132.224 227.056 131.729 227.154 131.172 227.154C130.615 227.154 130.117 227.056 129.678 226.861C129.243 226.666 128.872 226.395 128.564 226.048C128.257 225.696 128.022 225.286 127.861 224.817C127.705 224.344 127.627 223.831 127.627 223.279V223.118C127.627 222.996 127.649 222.876 127.693 222.759C127.737 222.642 127.791 222.522 127.854 222.4C127.922 222.278 127.983 222.149 128.037 222.012C128.218 221.573 128.464 221.165 128.777 220.789C129.094 220.413 129.473 220.11 129.912 219.881C130.356 219.646 130.859 219.529 131.421 219.529ZM131.157 220.635C130.659 220.635 130.249 220.75 129.927 220.979C129.609 221.209 129.373 221.514 129.216 221.895C129.06 222.271 128.982 222.679 128.982 223.118V223.279C128.982 223.65 129.026 224.002 129.114 224.334C129.202 224.666 129.333 224.961 129.509 225.22C129.69 225.474 129.917 225.674 130.19 225.821C130.469 225.967 130.796 226.041 131.172 226.041C131.548 226.041 131.873 225.967 132.146 225.821C132.419 225.674 132.644 225.474 132.82 225.22C132.996 224.961 133.127 224.666 133.215 224.334C133.303 224.002 133.347 223.65 133.347 223.279V223.118C133.347 222.786 133.303 222.471 133.215 222.173C133.127 221.875 132.993 221.612 132.812 221.382C132.637 221.153 132.41 220.972 132.131 220.84C131.858 220.704 131.533 220.635 131.157 220.635ZM135.889 223.125V222.957C135.889 222.386 135.972 221.856 136.138 221.368C136.304 220.875 136.543 220.447 136.855 220.086C137.168 219.72 137.546 219.437 137.991 219.236C138.435 219.031 138.933 218.929 139.485 218.929C140.042 218.929 140.542 219.031 140.986 219.236C141.436 219.437 141.816 219.72 142.129 220.086C142.446 220.447 142.688 220.875 142.854 221.368C143.02 221.856 143.103 222.386 143.103 222.957V223.125C143.103 223.697 143.02 224.227 142.854 224.715C142.688 225.203 142.446 225.63 142.129 225.997C141.816 226.358 141.438 226.641 140.994 226.846C140.554 227.046 140.056 227.146 139.5 227.146C138.943 227.146 138.442 227.046 137.998 226.846C137.554 226.641 137.173 226.358 136.855 225.997C136.543 225.63 136.304 225.203 136.138 224.715C135.972 224.227 135.889 223.697 135.889 223.125ZM137.244 222.957V223.125C137.244 223.521 137.29 223.895 137.383 224.246C137.476 224.593 137.615 224.9 137.8 225.169C137.991 225.438 138.228 225.65 138.511 225.806C138.794 225.958 139.124 226.033 139.5 226.033C139.871 226.033 140.195 225.958 140.474 225.806C140.757 225.65 140.991 225.438 141.177 225.169C141.362 224.9 141.501 224.593 141.594 224.246C141.692 223.895 141.741 223.521 141.741 223.125V222.957C141.741 222.566 141.692 222.198 141.594 221.851C141.501 221.5 141.36 221.189 141.169 220.921C140.984 220.647 140.75 220.433 140.466 220.276C140.188 220.12 139.861 220.042 139.485 220.042C139.114 220.042 138.787 220.12 138.503 220.276C138.225 220.433 137.991 220.647 137.8 220.921C137.615 221.189 137.476 221.5 137.383 221.851C137.29 222.198 137.244 222.566 137.244 222.957ZM145.703 219.075H147.058L146.941 222.042C146.912 222.793 146.826 223.443 146.685 223.99C146.543 224.537 146.362 225.003 146.143 225.389C145.923 225.77 145.676 226.089 145.403 226.348C145.134 226.607 144.856 226.824 144.568 227H143.894L143.931 225.894L144.209 225.887C144.37 225.696 144.526 225.501 144.678 225.301C144.829 225.096 144.968 224.854 145.095 224.576C145.222 224.292 145.327 223.948 145.41 223.543C145.498 223.133 145.554 222.632 145.579 222.042L145.703 219.075ZM146.04 219.075H150.808V227H149.453V220.328H146.04V219.075ZM143.586 225.887H151.826V229.336H150.471V227H144.941V229.336H143.579L143.586 225.887ZM158.704 222.51V223.609H154.514V222.51H158.704ZM154.8 219.075V227H153.445V219.075H154.8ZM159.802 219.075V227H158.44V219.075H159.802ZM161.626 223.125V222.957C161.626 222.386 161.709 221.856 161.875 221.368C162.041 220.875 162.28 220.447 162.593 220.086C162.905 219.72 163.284 219.437 163.728 219.236C164.172 219.031 164.67 218.929 165.222 218.929C165.779 218.929 166.279 219.031 166.724 219.236C167.173 219.437 167.554 219.72 167.866 220.086C168.184 220.447 168.425 220.875 168.591 221.368C168.757 221.856 168.84 222.386 168.84 222.957V223.125C168.84 223.697 168.757 224.227 168.591 224.715C168.425 225.203 168.184 225.63 167.866 225.997C167.554 226.358 167.175 226.641 166.731 226.846C166.292 227.046 165.793 227.146 165.237 227.146C164.68 227.146 164.18 227.046 163.735 226.846C163.291 226.641 162.91 226.358 162.593 225.997C162.28 225.63 162.041 225.203 161.875 224.715C161.709 224.227 161.626 223.697 161.626 223.125ZM162.981 222.957V223.125C162.981 223.521 163.027 223.895 163.12 224.246C163.213 224.593 163.352 224.9 163.538 225.169C163.728 225.438 163.965 225.65 164.248 225.806C164.531 225.958 164.861 226.033 165.237 226.033C165.608 226.033 165.933 225.958 166.211 225.806C166.494 225.65 166.729 225.438 166.914 225.169C167.1 224.9 167.239 224.593 167.332 224.246C167.429 223.895 167.478 223.521 167.478 223.125V222.957C167.478 222.566 167.429 222.198 167.332 221.851C167.239 221.5 167.097 221.189 166.907 220.921C166.721 220.647 166.487 220.433 166.204 220.276C165.925 220.12 165.598 220.042 165.222 220.042C164.851 220.042 164.524 220.12 164.241 220.276C163.962 220.433 163.728 220.647 163.538 220.921C163.352 221.189 163.213 221.5 163.12 221.851C163.027 222.198 162.981 222.566 162.981 222.957ZM173.828 227.146C173.276 227.146 172.776 227.054 172.327 226.868C171.882 226.678 171.499 226.412 171.177 226.07C170.859 225.728 170.615 225.323 170.444 224.854C170.273 224.385 170.188 223.873 170.188 223.316V223.008C170.188 222.364 170.283 221.79 170.474 221.287C170.664 220.779 170.923 220.35 171.25 219.998C171.577 219.646 171.948 219.38 172.363 219.2C172.778 219.019 173.208 218.929 173.652 218.929C174.219 218.929 174.707 219.026 175.117 219.222C175.532 219.417 175.872 219.69 176.135 220.042C176.399 220.389 176.594 220.799 176.721 221.272C176.848 221.741 176.912 222.254 176.912 222.811V223.418H170.994V222.312H175.557V222.21C175.537 221.858 175.464 221.517 175.337 221.185C175.215 220.853 175.02 220.579 174.751 220.364C174.482 220.149 174.116 220.042 173.652 220.042C173.345 220.042 173.062 220.108 172.803 220.24C172.544 220.367 172.322 220.557 172.136 220.811C171.951 221.065 171.807 221.375 171.704 221.741C171.602 222.107 171.55 222.53 171.55 223.008V223.316C171.55 223.692 171.602 224.046 171.704 224.378C171.812 224.705 171.965 224.993 172.166 225.242C172.371 225.491 172.617 225.687 172.905 225.828C173.198 225.97 173.53 226.041 173.901 226.041C174.38 226.041 174.785 225.943 175.117 225.748C175.449 225.552 175.74 225.291 175.989 224.964L176.809 225.616C176.638 225.875 176.421 226.121 176.157 226.355C175.894 226.59 175.569 226.78 175.183 226.927C174.802 227.073 174.351 227.146 173.828 227.146Z" fill="white"/>
<path d="M17.6846 237.336H19.0542L22.5479 246.03L26.0342 237.336H27.4111L23.0752 248H22.0059L17.6846 237.336ZM17.2378 237.336H18.4463L18.644 243.84V248H17.2378V237.336ZM26.6421 237.336H27.8506V248H26.4443V243.84L26.6421 237.336ZM31.2417 242.8H33.6221C34.2617 242.8 34.8013 242.912 35.2407 243.137C35.6802 243.356 36.0122 243.662 36.2368 244.052C36.4663 244.438 36.5811 244.877 36.5811 245.371C36.5811 245.737 36.5176 246.081 36.3906 246.403C36.2637 246.721 36.0732 246.999 35.8193 247.238C35.5703 247.478 35.2603 247.666 34.8892 247.802C34.5229 247.934 34.1006 248 33.6221 248H30.2529V240.075H31.6079V246.887H33.6221C34.0127 246.887 34.3252 246.816 34.5596 246.674C34.7939 246.533 34.9624 246.35 35.0649 246.125C35.1675 245.9 35.2188 245.666 35.2188 245.422C35.2188 245.183 35.1675 244.948 35.0649 244.719C34.9624 244.489 34.7939 244.299 34.5596 244.147C34.3252 243.991 34.0127 243.913 33.6221 243.913H31.2417V242.8ZM39.4009 240.075V248H38.0459V240.075H39.4009ZM44.9453 247.033C45.2676 247.033 45.5654 246.967 45.8389 246.835C46.1123 246.704 46.3369 246.523 46.5127 246.293C46.6885 246.059 46.7886 245.793 46.813 245.495H48.1021C48.0776 245.964 47.9189 246.401 47.626 246.806C47.3379 247.207 46.9595 247.531 46.4907 247.78C46.022 248.024 45.5068 248.146 44.9453 248.146C44.3496 248.146 43.8296 248.042 43.3853 247.832C42.9458 247.622 42.5796 247.333 42.2866 246.967C41.9985 246.601 41.7812 246.181 41.6348 245.708C41.4932 245.229 41.4224 244.724 41.4224 244.191V243.884C41.4224 243.352 41.4932 242.849 41.6348 242.375C41.7812 241.896 41.9985 241.474 42.2866 241.108C42.5796 240.742 42.9458 240.454 43.3853 240.244C43.8296 240.034 44.3496 239.929 44.9453 239.929C45.5654 239.929 46.1074 240.056 46.5713 240.31C47.0352 240.559 47.3989 240.9 47.6626 241.335C47.9312 241.765 48.0776 242.253 48.1021 242.8H46.813C46.7886 242.473 46.6958 242.177 46.5347 241.914C46.3784 241.65 46.1636 241.44 45.8901 241.284C45.6216 241.123 45.3066 241.042 44.9453 241.042C44.5303 241.042 44.1812 241.125 43.8979 241.291C43.6196 241.452 43.3975 241.672 43.2314 241.95C43.0703 242.224 42.9531 242.529 42.8799 242.866C42.8115 243.198 42.7773 243.537 42.7773 243.884V244.191C42.7773 244.538 42.8115 244.88 42.8799 245.217C42.9482 245.554 43.063 245.859 43.2241 246.132C43.3901 246.406 43.6123 246.625 43.8906 246.792C44.1738 246.953 44.5254 247.033 44.9453 247.033ZM57.3525 243.012H54.6499L54.6353 241.877H57.0889C57.4941 241.877 57.8481 241.809 58.1509 241.672C58.4536 241.535 58.688 241.34 58.854 241.086C59.0249 240.827 59.1104 240.52 59.1104 240.163C59.1104 239.772 59.0347 239.455 58.8833 239.211C58.7368 238.962 58.5098 238.781 58.2021 238.669C57.8994 238.552 57.5137 238.493 57.0449 238.493H54.9648V248H53.5513V237.336H57.0449C57.5918 237.336 58.0801 237.392 58.5098 237.504C58.9395 237.612 59.3032 237.783 59.6011 238.017C59.9038 238.247 60.1333 238.54 60.2896 238.896C60.4458 239.252 60.5239 239.68 60.5239 240.178C60.5239 240.617 60.4116 241.015 60.187 241.372C59.9624 241.723 59.6499 242.011 59.2495 242.236C58.854 242.46 58.3901 242.604 57.8579 242.668L57.3525 243.012ZM57.2866 248H54.0933L54.8916 246.85H57.2866C57.7358 246.85 58.1167 246.772 58.4292 246.616C58.7466 246.459 58.9883 246.24 59.1543 245.957C59.3203 245.668 59.4033 245.329 59.4033 244.938C59.4033 244.543 59.3325 244.201 59.1909 243.913C59.0493 243.625 58.8271 243.403 58.5244 243.247C58.2217 243.09 57.8311 243.012 57.3525 243.012H55.3384L55.353 241.877H58.1069L58.4072 242.287C58.9199 242.331 59.3545 242.478 59.7109 242.727C60.0674 242.971 60.3384 243.283 60.5239 243.664C60.7144 244.045 60.8096 244.465 60.8096 244.924C60.8096 245.588 60.6631 246.149 60.3701 246.608C60.082 247.062 59.6743 247.409 59.147 247.648C58.6196 247.883 57.9995 248 57.2866 248ZM65.9805 248.146C65.4287 248.146 64.9282 248.054 64.479 247.868C64.0347 247.678 63.6514 247.412 63.3291 247.07C63.0117 246.728 62.7676 246.323 62.5967 245.854C62.4258 245.385 62.3403 244.873 62.3403 244.316V244.008C62.3403 243.364 62.4355 242.79 62.626 242.287C62.8164 241.779 63.0752 241.35 63.4023 240.998C63.7295 240.646 64.1006 240.38 64.5156 240.2C64.9307 240.019 65.3604 239.929 65.8047 239.929C66.3711 239.929 66.8594 240.026 67.2695 240.222C67.6846 240.417 68.0239 240.69 68.2876 241.042C68.5513 241.389 68.7466 241.799 68.8735 242.272C69.0005 242.741 69.064 243.254 69.064 243.811V244.418H63.146V243.312H67.709V243.21C67.6895 242.858 67.6162 242.517 67.4893 242.185C67.3672 241.853 67.1719 241.579 66.9033 241.364C66.6348 241.149 66.2686 241.042 65.8047 241.042C65.4971 241.042 65.2139 241.108 64.9551 241.24C64.6963 241.367 64.4741 241.557 64.2886 241.811C64.103 242.065 63.959 242.375 63.8564 242.741C63.7539 243.107 63.7026 243.53 63.7026 244.008V244.316C63.7026 244.692 63.7539 245.046 63.8564 245.378C63.9639 245.705 64.1177 245.993 64.3179 246.242C64.5229 246.491 64.7695 246.687 65.0576 246.828C65.3506 246.97 65.6826 247.041 66.0537 247.041C66.5322 247.041 66.9375 246.943 67.2695 246.748C67.6016 246.552 67.8921 246.291 68.1411 245.964L68.9614 246.616C68.7905 246.875 68.5732 247.121 68.3096 247.355C68.0459 247.59 67.7212 247.78 67.3354 247.927C66.9546 248.073 66.5029 248.146 65.9805 248.146ZM75.9414 240.075V241.196H72.1108V240.075H75.9414ZM77.1353 240.075V248H75.7803V240.075H77.1353ZM71.7812 240.075H73.1436L72.9385 243.898C72.9043 244.489 72.8481 245.012 72.77 245.466C72.6968 245.915 72.5942 246.301 72.4624 246.623C72.3354 246.945 72.1743 247.209 71.979 247.414C71.7886 247.614 71.5591 247.763 71.2905 247.861C71.022 247.954 70.7119 248 70.3604 248H69.9355V246.806L70.2285 246.784C70.4385 246.77 70.6167 246.721 70.7632 246.638C70.9146 246.555 71.0415 246.433 71.144 246.271C71.2466 246.105 71.3296 245.893 71.3931 245.634C71.4614 245.375 71.5127 245.068 71.5469 244.711C71.5859 244.355 71.6152 243.94 71.6348 243.466L71.7812 240.075ZM80.7827 245.854L84.4375 240.075H85.7998V248H84.4375V242.221L80.7827 248H79.4351V240.075H80.7827V245.854ZM89.4473 240.075V248H88.0923V240.075H89.4473ZM94.6475 240.075L90.8901 244.616H88.9932L88.7881 243.43H90.3408L92.9995 240.075H94.6475ZM93.1899 248L90.2749 244.411L91.1465 243.43L94.9111 248H93.1899ZM100.763 246.645V242.565C100.763 242.253 100.7 241.982 100.573 241.752C100.451 241.518 100.265 241.337 100.016 241.21C99.7671 241.083 99.4595 241.02 99.0933 241.02C98.7515 241.02 98.4512 241.079 98.1924 241.196C97.9385 241.313 97.7383 241.467 97.5918 241.657C97.4502 241.848 97.3794 242.053 97.3794 242.272H96.0244C96.0244 241.989 96.0977 241.708 96.2441 241.43C96.3906 241.152 96.6006 240.9 96.874 240.676C97.1523 240.446 97.4844 240.266 97.8701 240.134C98.2607 239.997 98.6953 239.929 99.1738 239.929C99.75 239.929 100.258 240.026 100.697 240.222C101.142 240.417 101.488 240.712 101.737 241.108C101.991 241.499 102.118 241.989 102.118 242.58V246.271C102.118 246.535 102.14 246.816 102.184 247.114C102.233 247.412 102.304 247.668 102.396 247.883V248H100.983C100.915 247.844 100.861 247.636 100.822 247.377C100.783 247.114 100.763 246.87 100.763 246.645ZM100.998 243.195L101.012 244.147H99.6426C99.2568 244.147 98.9126 244.179 98.6099 244.243C98.3071 244.301 98.0532 244.392 97.8481 244.514C97.6431 244.636 97.4868 244.79 97.3794 244.975C97.272 245.156 97.2183 245.368 97.2183 245.612C97.2183 245.861 97.2744 246.088 97.3867 246.293C97.499 246.499 97.6675 246.662 97.8921 246.784C98.1216 246.901 98.4023 246.96 98.7344 246.96C99.1494 246.96 99.5156 246.872 99.833 246.696C100.15 246.521 100.402 246.306 100.587 246.052C100.778 245.798 100.88 245.551 100.895 245.312L101.474 245.964C101.439 246.169 101.347 246.396 101.195 246.645C101.044 246.894 100.841 247.133 100.587 247.363C100.338 247.587 100.041 247.775 99.6938 247.927C99.3521 248.073 98.9663 248.146 98.5366 248.146C97.9995 248.146 97.5283 248.042 97.123 247.832C96.7227 247.622 96.4102 247.341 96.1855 246.989C95.9658 246.633 95.856 246.235 95.856 245.795C95.856 245.371 95.939 244.997 96.105 244.675C96.271 244.348 96.5103 244.077 96.8228 243.862C97.1353 243.642 97.5112 243.476 97.9507 243.364C98.3901 243.251 98.8809 243.195 99.4229 243.195H100.998ZM109.625 243.51V244.609H105.436V243.51H109.625ZM105.722 240.075V248H104.367V240.075H105.722ZM110.724 240.075V248H109.362V240.075H110.724Z" fill="white"/>
<path d="M180.338 25.9106C181.942 33.679 186.114 49.4185 189.964 50.2291" stroke="#6F6F6F" stroke-width="2"/>
<circle cx="116" cy="62" r="4" fill="#FF6C01"/>
<circle cx="180.031" cy="26.8708" r="4" fill="#FF6C01"/>
<circle cx="191.178" cy="51.1895" r="4" fill="#6F6F6F"/>
<path d="M89.9043 199.686C92.7752 201.206 99.125 203.942 101.557 202.726" stroke="white" stroke-width="2"/>
<path d="M114.221 63.4016L76.9835 96.8395L81.2899 116.092L76.9835 136.104L69.8906 156.369L81.2899 177.141L83.3164 187.274C86.8629 187.612 92.6892 190.82 88.6361 198.926" stroke="white" stroke-width="1.5199"/>
<path d="M88.6372 201.459C89.4816 203.57 90.6638 208.4 88.6372 210.832C86.6107 213.264 84.5842 215.223 83.8242 215.899L75.2114 220.712L67.8652 224.765" stroke="#828282" stroke-width="2"/>
<path d="M114.221 63.4016L76.9835 96.8395L81.2899 116.092L76.9835 136.104L69.8906 156.369L81.2899 177.141L83.3164 187.274C86.8629 187.612 92.6892 190.82 88.6361 198.926" stroke="#FF6C01" stroke-width="2"/>
<path d="M76.9844 96.8396L114.222 63.4017C132.292 51.4958 170.56 27.38 179.071 26.1641" stroke="#FF6C01" stroke-width="1.5199"/>
<circle cx="89.8496" cy="200.646" r="4" fill="#FF6C01"/>
<circle cx="67.5586" cy="225.978" r="4" fill="#828282"/>
<circle cx="104.037" cy="203.686" r="4" fill="white"/>
</svg>
