<svg width="229" height="383" viewBox="0 0 229 383" fill="none" xmlns="http://www.w3.org/2000/svg">
<path d="M83.3047 4.20312V17H81.6084V4.20312H83.3047ZM86.2402 10.0654V11.4014H83.1992V10.0654H86.2402ZM95.4248 10.1973V11.0059C95.4248 11.9668 95.3047 12.8281 95.0645 13.5898C94.8242 14.3516 94.4785 14.999 94.0273 15.5322C93.5762 16.0654 93.0342 16.4727 92.4014 16.7539C91.7744 17.0352 91.0713 17.1758 90.292 17.1758C89.5361 17.1758 88.8418 17.0352 88.209 16.7539C87.582 16.4727 87.0371 16.0654 86.5742 15.5322C86.1172 14.999 85.7627 14.3516 85.5107 13.5898C85.2588 12.8281 85.1328 11.9668 85.1328 11.0059V10.1973C85.1328 9.23633 85.2559 8.37793 85.502 7.62207C85.7539 6.86035 86.1084 6.21289 86.5654 5.67969C87.0225 5.14063 87.5645 4.73047 88.1914 4.44922C88.8242 4.16797 89.5186 4.02734 90.2744 4.02734C91.0537 4.02734 91.7568 4.16797 92.3838 4.44922C93.0166 4.73047 93.5586 5.14063 94.0098 5.67969C94.4668 6.21289 94.8154 6.86035 95.0557 7.62207C95.3018 8.37793 95.4248 9.23633 95.4248 10.1973ZM93.7461 11.0059V10.1797C93.7461 9.41797 93.667 8.74414 93.5088 8.1582C93.3564 7.57227 93.1309 7.08008 92.832 6.68164C92.5332 6.2832 92.167 5.98145 91.7334 5.77637C91.3057 5.57129 90.8193 5.46875 90.2744 5.46875C89.7471 5.46875 89.2695 5.57129 88.8418 5.77637C88.4199 5.98145 88.0566 6.2832 87.752 6.68164C87.4531 7.08008 87.2217 7.57227 87.0576 8.1582C86.8936 8.74414 86.8115 9.41797 86.8115 10.1797V11.0059C86.8115 11.7734 86.8936 12.4531 87.0576 13.0449C87.2217 13.6309 87.4561 14.126 87.7607 14.5303C88.0713 14.9287 88.4375 15.2305 88.8594 15.4355C89.2871 15.6406 89.7646 15.7432 90.292 15.7432C90.8428 15.7432 91.332 15.6406 91.7598 15.4355C92.1875 15.2305 92.5479 14.9287 92.8408 14.5303C93.1396 14.126 93.3652 13.6309 93.5176 13.0449C93.6699 12.4531 93.7461 11.7734 93.7461 11.0059ZM100.224 12.8604L96.6201 7.49023H98.5801L101.041 11.4277H102.939L102.702 12.8604H100.224ZM101.111 12.6934L98.3516 17H96.2949L100.083 11.5156L101.111 12.6934ZM103.774 7.49023V17H102.148V7.49023H103.774ZM109.32 7.49023L105.717 12.8604H103.238L102.983 11.4277H104.891L107.352 7.49023H109.32ZM107.58 17L104.812 12.6934L105.857 11.5156L109.637 17H107.58ZM117.591 11.6123V12.9307H112.563V11.6123H117.591ZM112.906 7.49023V17H111.28V7.49023H112.906ZM118.909 7.49023V17H117.274V7.49023H118.909ZM121.098 12.3506V12.1484C121.098 11.4629 121.197 10.8271 121.396 10.2412C121.596 9.64941 121.883 9.13672 122.258 8.70312C122.633 8.26367 123.087 7.92383 123.62 7.68359C124.153 7.4375 124.751 7.31445 125.413 7.31445C126.081 7.31445 126.682 7.4375 127.215 7.68359C127.754 7.92383 128.211 8.26367 128.586 8.70312C128.967 9.13672 129.257 9.64941 129.456 10.2412C129.655 10.8271 129.755 11.4629 129.755 12.1484V12.3506C129.755 13.0361 129.655 13.6719 129.456 14.2578C129.257 14.8438 128.967 15.3564 128.586 15.7959C128.211 16.2295 127.757 16.5693 127.224 16.8154C126.696 17.0557 126.099 17.1758 125.431 17.1758C124.763 17.1758 124.162 17.0557 123.629 16.8154C123.096 16.5693 122.639 16.2295 122.258 15.7959C121.883 15.3564 121.596 14.8438 121.396 14.2578C121.197 13.6719 121.098 13.0361 121.098 12.3506ZM122.724 12.1484V12.3506C122.724 12.8252 122.779 13.2734 122.891 13.6953C123.002 14.1113 123.169 14.4805 123.392 14.8027C123.62 15.125 123.904 15.3799 124.244 15.5674C124.584 15.749 124.979 15.8398 125.431 15.8398C125.876 15.8398 126.266 15.749 126.6 15.5674C126.939 15.3799 127.221 15.125 127.443 14.8027C127.666 14.4805 127.833 14.1113 127.944 13.6953C128.062 13.2734 128.12 12.8252 128.12 12.3506V12.1484C128.12 11.6797 128.062 11.2373 127.944 10.8213C127.833 10.3994 127.663 10.0273 127.435 9.70508C127.212 9.37695 126.931 9.11914 126.591 8.93164C126.257 8.74414 125.864 8.65039 125.413 8.65039C124.968 8.65039 124.575 8.74414 124.235 8.93164C123.901 9.11914 123.62 9.37695 123.392 9.70508C123.169 10.0273 123.002 10.3994 122.891 10.8213C122.779 11.2373 122.724 11.6797 122.724 12.1484ZM135.178 10.8916V12.2275H130.889V10.8916H135.178ZM144.74 12.9307H146.428C146.34 13.7393 146.108 14.4629 145.733 15.1016C145.358 15.7402 144.828 16.2471 144.143 16.6221C143.457 16.9912 142.602 17.1758 141.576 17.1758C140.826 17.1758 140.144 17.0352 139.528 16.7539C138.919 16.4727 138.395 16.0742 137.955 15.5586C137.516 15.0371 137.176 14.4131 136.936 13.6865C136.701 12.9541 136.584 12.1396 136.584 11.2432V9.96875C136.584 9.07227 136.701 8.26074 136.936 7.53418C137.176 6.80176 137.519 6.1748 137.964 5.65332C138.415 5.13184 138.957 4.73047 139.59 4.44922C140.223 4.16797 140.935 4.02734 141.726 4.02734C142.692 4.02734 143.51 4.20898 144.178 4.57227C144.846 4.93555 145.364 5.43945 145.733 6.08398C146.108 6.72266 146.34 7.46387 146.428 8.30762H144.74C144.658 7.70996 144.506 7.19727 144.283 6.76953C144.061 6.33594 143.744 6.00195 143.334 5.76758C142.924 5.5332 142.388 5.41602 141.726 5.41602C141.157 5.41602 140.656 5.52441 140.223 5.74121C139.795 5.95801 139.435 6.26563 139.142 6.66406C138.854 7.0625 138.638 7.54004 138.491 8.09668C138.345 8.65332 138.271 9.27148 138.271 9.95117V11.2432C138.271 11.8701 138.336 12.459 138.465 13.0098C138.6 13.5605 138.802 14.0439 139.071 14.46C139.341 14.876 139.684 15.2041 140.1 15.4443C140.516 15.6787 141.008 15.7959 141.576 15.7959C142.297 15.7959 142.871 15.6816 143.299 15.4531C143.727 15.2246 144.049 14.8965 144.266 14.4688C144.488 14.041 144.646 13.5283 144.74 12.9307ZM154.101 15.374V10.4785C154.101 10.1035 154.024 9.77832 153.872 9.50293C153.726 9.22168 153.503 9.00488 153.204 8.85254C152.905 8.7002 152.536 8.62402 152.097 8.62402C151.687 8.62402 151.326 8.69434 151.016 8.83496C150.711 8.97559 150.471 9.16016 150.295 9.38867C150.125 9.61719 150.04 9.86328 150.04 10.127H148.414C148.414 9.78711 148.502 9.4502 148.678 9.11621C148.854 8.78223 149.105 8.48047 149.434 8.21094C149.768 7.93555 150.166 7.71875 150.629 7.56055C151.098 7.39648 151.619 7.31445 152.193 7.31445C152.885 7.31445 153.494 7.43164 154.021 7.66602C154.555 7.90039 154.971 8.25488 155.27 8.72949C155.574 9.19824 155.727 9.78711 155.727 10.4961V14.9258C155.727 15.2422 155.753 15.5791 155.806 15.9365C155.864 16.2939 155.949 16.6016 156.061 16.8594V17H154.364C154.282 16.8125 154.218 16.5635 154.171 16.2529C154.124 15.9365 154.101 15.6436 154.101 15.374ZM154.382 11.2344L154.399 12.377H152.756C152.293 12.377 151.88 12.415 151.517 12.4912C151.153 12.5615 150.849 12.6699 150.603 12.8164C150.356 12.9629 150.169 13.1475 150.04 13.3701C149.911 13.5869 149.847 13.8418 149.847 14.1348C149.847 14.4336 149.914 14.7061 150.049 14.9521C150.184 15.1982 150.386 15.3945 150.655 15.541C150.931 15.6816 151.268 15.752 151.666 15.752C152.164 15.752 152.604 15.6465 152.984 15.4355C153.365 15.2246 153.667 14.9668 153.89 14.6621C154.118 14.3574 154.241 14.0615 154.259 13.7744L154.953 14.5566C154.912 14.8027 154.801 15.0752 154.619 15.374C154.438 15.6729 154.194 15.96 153.89 16.2354C153.591 16.5049 153.233 16.7305 152.817 16.9121C152.407 17.0879 151.944 17.1758 151.429 17.1758C150.784 17.1758 150.219 17.0498 149.732 16.7979C149.252 16.5459 148.877 16.209 148.607 15.7871C148.344 15.3594 148.212 14.8818 148.212 14.3545C148.212 13.8447 148.312 13.3965 148.511 13.0098C148.71 12.6172 148.997 12.292 149.372 12.0342C149.747 11.7705 150.198 11.5713 150.726 11.4365C151.253 11.3018 151.842 11.2344 152.492 11.2344H154.382ZM159.383 7.49023L161.466 10.9531L163.575 7.49023H165.482L162.371 12.1836L165.579 17H163.698L161.501 13.4316L159.304 17H157.414L160.613 12.1836L157.511 7.49023H159.383ZM172.821 15.374V10.4785C172.821 10.1035 172.745 9.77832 172.593 9.50293C172.446 9.22168 172.224 9.00488 171.925 8.85254C171.626 8.7002 171.257 8.62402 170.817 8.62402C170.407 8.62402 170.047 8.69434 169.736 8.83496C169.432 8.97559 169.191 9.16016 169.016 9.38867C168.846 9.61719 168.761 9.86328 168.761 10.127H167.135C167.135 9.78711 167.223 9.4502 167.398 9.11621C167.574 8.78223 167.826 8.48047 168.154 8.21094C168.488 7.93555 168.887 7.71875 169.35 7.56055C169.818 7.39648 170.34 7.31445 170.914 7.31445C171.605 7.31445 172.215 7.43164 172.742 7.66602C173.275 7.90039 173.691 8.25488 173.99 8.72949C174.295 9.19824 174.447 9.78711 174.447 10.4961V14.9258C174.447 15.2422 174.474 15.5791 174.526 15.9365C174.585 16.2939 174.67 16.6016 174.781 16.8594V17H173.085C173.003 16.8125 172.938 16.5635 172.892 16.2529C172.845 15.9365 172.821 15.6436 172.821 15.374ZM173.103 11.2344L173.12 12.377H171.477C171.014 12.377 170.601 12.415 170.237 12.4912C169.874 12.5615 169.569 12.6699 169.323 12.8164C169.077 12.9629 168.89 13.1475 168.761 13.3701C168.632 13.5869 168.567 13.8418 168.567 14.1348C168.567 14.4336 168.635 14.7061 168.77 14.9521C168.904 15.1982 169.106 15.3945 169.376 15.541C169.651 15.6816 169.988 15.752 170.387 15.752C170.885 15.752 171.324 15.6465 171.705 15.4355C172.086 15.2246 172.388 14.9668 172.61 14.6621C172.839 14.3574 172.962 14.0615 172.979 13.7744L173.674 14.5566C173.633 14.8027 173.521 15.0752 173.34 15.374C173.158 15.6729 172.915 15.96 172.61 16.2354C172.312 16.5049 171.954 16.7305 171.538 16.9121C171.128 17.0879 170.665 17.1758 170.149 17.1758C169.505 17.1758 168.939 17.0498 168.453 16.7979C167.973 16.5459 167.598 16.209 167.328 15.7871C167.064 15.3594 166.933 14.8818 166.933 14.3545C166.933 13.8447 167.032 13.3965 167.231 13.0098C167.431 12.6172 167.718 12.292 168.093 12.0342C168.468 11.7705 168.919 11.5713 169.446 11.4365C169.974 11.3018 170.562 11.2344 171.213 11.2344H173.103ZM183.359 7.49023V8.83496H178.763V7.49023H183.359ZM184.792 7.49023V17H183.166V7.49023H184.792ZM178.367 7.49023H180.002L179.756 12.0781C179.715 12.7871 179.647 13.4141 179.554 13.959C179.466 14.498 179.343 14.9609 179.185 15.3477C179.032 15.7344 178.839 16.0508 178.604 16.2969C178.376 16.5371 178.101 16.7158 177.778 16.833C177.456 16.9443 177.084 17 176.662 17H176.152V15.5674L176.504 15.541C176.756 15.5234 176.97 15.4648 177.146 15.3652C177.327 15.2656 177.479 15.1191 177.603 14.9258C177.726 14.7266 177.825 14.4717 177.901 14.1611C177.983 13.8506 178.045 13.4814 178.086 13.0537C178.133 12.626 178.168 12.1279 178.191 11.5596L178.367 7.49023ZM189.169 14.4248L193.555 7.49023H195.189V17H193.555V10.0654L189.169 17H187.552V7.49023H189.169V14.4248ZM204.251 11.6123V12.9307H199.224V11.6123H204.251ZM199.566 7.49023V17H197.94V7.49023H199.566ZM205.569 7.49023V17H203.935V7.49023H205.569ZM211.994 15.8398C212.381 15.8398 212.738 15.7607 213.066 15.6025C213.395 15.4443 213.664 15.2275 213.875 14.9521C214.086 14.6709 214.206 14.3516 214.235 13.9941H215.782C215.753 14.5566 215.562 15.0811 215.211 15.5674C214.865 16.0479 214.411 16.4375 213.849 16.7363C213.286 17.0293 212.668 17.1758 211.994 17.1758C211.279 17.1758 210.655 17.0498 210.122 16.7979C209.595 16.5459 209.155 16.2002 208.804 15.7607C208.458 15.3213 208.197 14.8174 208.021 14.249C207.852 13.6748 207.767 13.0684 207.767 12.4297V12.0605C207.767 11.4219 207.852 10.8184 208.021 10.25C208.197 9.67578 208.458 9.16895 208.804 8.72949C209.155 8.29004 209.595 7.94434 210.122 7.69238C210.655 7.44043 211.279 7.31445 211.994 7.31445C212.738 7.31445 213.389 7.4668 213.945 7.77148C214.502 8.07031 214.938 8.48047 215.255 9.00195C215.577 9.51758 215.753 10.1035 215.782 10.7598H214.235C214.206 10.3672 214.095 10.0127 213.901 9.69629C213.714 9.37988 213.456 9.12793 213.128 8.94043C212.806 8.74707 212.428 8.65039 211.994 8.65039C211.496 8.65039 211.077 8.75 210.737 8.94922C210.403 9.14258 210.137 9.40625 209.938 9.74023C209.744 10.0684 209.604 10.4346 209.516 10.8389C209.434 11.2373 209.393 11.6445 209.393 12.0605V12.4297C209.393 12.8457 209.434 13.2559 209.516 13.6602C209.598 14.0645 209.735 14.4307 209.929 14.7588C210.128 15.0869 210.395 15.3506 210.729 15.5498C211.068 15.7432 211.49 15.8398 211.994 15.8398ZM219.377 7.49023V17H217.751V7.49023H219.377ZM225.617 7.49023L221.108 12.9395H218.832L218.586 11.5156H220.449L223.64 7.49023H225.617ZM223.868 17L220.37 12.6934L221.416 11.5156L225.934 17H223.868Z" fill="white"/>
<path d="M113.211 284.931H114.898C114.811 285.739 114.579 286.463 114.204 287.102C113.829 287.74 113.299 288.247 112.613 288.622C111.928 288.991 111.072 289.176 110.047 289.176C109.297 289.176 108.614 289.035 107.999 288.754C107.39 288.473 106.865 288.074 106.426 287.559C105.986 287.037 105.646 286.413 105.406 285.687C105.172 284.954 105.055 284.14 105.055 283.243V281.969C105.055 281.072 105.172 280.261 105.406 279.534C105.646 278.802 105.989 278.175 106.435 277.653C106.886 277.132 107.428 276.73 108.061 276.449C108.693 276.168 109.405 276.027 110.196 276.027C111.163 276.027 111.98 276.209 112.648 276.572C113.316 276.936 113.835 277.439 114.204 278.084C114.579 278.723 114.811 279.464 114.898 280.308H113.211C113.129 279.71 112.977 279.197 112.754 278.77C112.531 278.336 112.215 278.002 111.805 277.768C111.395 277.533 110.858 277.416 110.196 277.416C109.628 277.416 109.127 277.524 108.693 277.741C108.266 277.958 107.905 278.266 107.612 278.664C107.325 279.062 107.108 279.54 106.962 280.097C106.815 280.653 106.742 281.271 106.742 281.951V283.243C106.742 283.87 106.807 284.459 106.936 285.01C107.07 285.561 107.272 286.044 107.542 286.46C107.812 286.876 108.154 287.204 108.57 287.444C108.986 287.679 109.479 287.796 110.047 287.796C110.768 287.796 111.342 287.682 111.77 287.453C112.197 287.225 112.52 286.896 112.736 286.469C112.959 286.041 113.117 285.528 113.211 284.931ZM120.91 289.176C120.248 289.176 119.647 289.064 119.108 288.842C118.575 288.613 118.115 288.294 117.729 287.884C117.348 287.474 117.055 286.987 116.85 286.425C116.645 285.862 116.542 285.247 116.542 284.579V284.21C116.542 283.437 116.656 282.748 116.885 282.145C117.113 281.535 117.424 281.02 117.816 280.598C118.209 280.176 118.654 279.856 119.152 279.64C119.65 279.423 120.166 279.314 120.699 279.314C121.379 279.314 121.965 279.432 122.457 279.666C122.955 279.9 123.362 280.229 123.679 280.65C123.995 281.066 124.229 281.559 124.382 282.127C124.534 282.689 124.61 283.305 124.61 283.973V284.702H117.509V283.375H122.984V283.252C122.961 282.83 122.873 282.42 122.721 282.021C122.574 281.623 122.34 281.295 122.018 281.037C121.695 280.779 121.256 280.65 120.699 280.65C120.33 280.65 119.99 280.729 119.68 280.888C119.369 281.04 119.103 281.269 118.88 281.573C118.657 281.878 118.484 282.25 118.361 282.689C118.238 283.129 118.177 283.636 118.177 284.21V284.579C118.177 285.03 118.238 285.455 118.361 285.854C118.49 286.246 118.675 286.592 118.915 286.891C119.161 287.189 119.457 287.424 119.803 287.594C120.154 287.764 120.553 287.849 120.998 287.849C121.572 287.849 122.059 287.731 122.457 287.497C122.855 287.263 123.204 286.949 123.503 286.557L124.487 287.339C124.282 287.649 124.021 287.945 123.705 288.227C123.389 288.508 122.999 288.736 122.536 288.912C122.079 289.088 121.537 289.176 120.91 289.176ZM132.863 279.49V280.835H128.267V279.49H132.863ZM134.296 279.49V289H132.67V279.49H134.296ZM127.871 279.49H129.506L129.26 284.078C129.219 284.787 129.151 285.414 129.058 285.959C128.97 286.498 128.847 286.961 128.688 287.348C128.536 287.734 128.343 288.051 128.108 288.297C127.88 288.537 127.604 288.716 127.282 288.833C126.96 288.944 126.588 289 126.166 289H125.656V287.567L126.008 287.541C126.26 287.523 126.474 287.465 126.649 287.365C126.831 287.266 126.983 287.119 127.106 286.926C127.229 286.727 127.329 286.472 127.405 286.161C127.487 285.851 127.549 285.481 127.59 285.054C127.637 284.626 127.672 284.128 127.695 283.56L127.871 279.49ZM136.484 284.351V284.148C136.484 283.463 136.584 282.827 136.783 282.241C136.982 281.649 137.27 281.137 137.645 280.703C138.02 280.264 138.474 279.924 139.007 279.684C139.54 279.438 140.138 279.314 140.8 279.314C141.468 279.314 142.068 279.438 142.602 279.684C143.141 279.924 143.598 280.264 143.973 280.703C144.354 281.137 144.644 281.649 144.843 282.241C145.042 282.827 145.142 283.463 145.142 284.148V284.351C145.142 285.036 145.042 285.672 144.843 286.258C144.644 286.844 144.354 287.356 143.973 287.796C143.598 288.229 143.144 288.569 142.61 288.815C142.083 289.056 141.485 289.176 140.817 289.176C140.149 289.176 139.549 289.056 139.016 288.815C138.482 288.569 138.025 288.229 137.645 287.796C137.27 287.356 136.982 286.844 136.783 286.258C136.584 285.672 136.484 285.036 136.484 284.351ZM138.11 284.148V284.351C138.11 284.825 138.166 285.273 138.277 285.695C138.389 286.111 138.556 286.48 138.778 286.803C139.007 287.125 139.291 287.38 139.631 287.567C139.971 287.749 140.366 287.84 140.817 287.84C141.263 287.84 141.652 287.749 141.986 287.567C142.326 287.38 142.607 287.125 142.83 286.803C143.053 286.48 143.22 286.111 143.331 285.695C143.448 285.273 143.507 284.825 143.507 284.351V284.148C143.507 283.68 143.448 283.237 143.331 282.821C143.22 282.399 143.05 282.027 142.821 281.705C142.599 281.377 142.317 281.119 141.978 280.932C141.644 280.744 141.251 280.65 140.8 280.65C140.354 280.65 139.962 280.744 139.622 280.932C139.288 281.119 139.007 281.377 138.778 281.705C138.556 282.027 138.389 282.399 138.277 282.821C138.166 283.237 138.11 283.68 138.11 284.148ZM161.744 282.197V283.006C161.744 283.967 161.624 284.828 161.384 285.59C161.144 286.352 160.798 286.999 160.347 287.532C159.896 288.065 159.354 288.473 158.721 288.754C158.094 289.035 157.391 289.176 156.611 289.176C155.855 289.176 155.161 289.035 154.528 288.754C153.901 288.473 153.356 288.065 152.894 287.532C152.437 286.999 152.082 286.352 151.83 285.59C151.578 284.828 151.452 283.967 151.452 283.006V282.197C151.452 281.236 151.575 280.378 151.821 279.622C152.073 278.86 152.428 278.213 152.885 277.68C153.342 277.141 153.884 276.73 154.511 276.449C155.144 276.168 155.838 276.027 156.594 276.027C157.373 276.027 158.076 276.168 158.703 276.449C159.336 276.73 159.878 277.141 160.329 277.68C160.786 278.213 161.135 278.86 161.375 279.622C161.621 280.378 161.744 281.236 161.744 282.197ZM160.065 283.006V282.18C160.065 281.418 159.986 280.744 159.828 280.158C159.676 279.572 159.45 279.08 159.151 278.682C158.853 278.283 158.486 277.981 158.053 277.776C157.625 277.571 157.139 277.469 156.594 277.469C156.066 277.469 155.589 277.571 155.161 277.776C154.739 277.981 154.376 278.283 154.071 278.682C153.772 279.08 153.541 279.572 153.377 280.158C153.213 280.744 153.131 281.418 153.131 282.18V283.006C153.131 283.773 153.213 284.453 153.377 285.045C153.541 285.631 153.775 286.126 154.08 286.53C154.391 286.929 154.757 287.23 155.179 287.436C155.606 287.641 156.084 287.743 156.611 287.743C157.162 287.743 157.651 287.641 158.079 287.436C158.507 287.23 158.867 286.929 159.16 286.53C159.459 286.126 159.685 285.631 159.837 285.045C159.989 284.453 160.065 283.773 160.065 283.006ZM165.137 279.49L167.22 282.953L169.329 279.49H171.236L168.125 284.184L171.333 289H169.452L167.255 285.432L165.058 289H163.168L166.367 284.184L163.265 279.49H165.137ZM172.361 284.351V284.148C172.361 283.463 172.461 282.827 172.66 282.241C172.859 281.649 173.146 281.137 173.521 280.703C173.896 280.264 174.351 279.924 174.884 279.684C175.417 279.438 176.015 279.314 176.677 279.314C177.345 279.314 177.945 279.438 178.479 279.684C179.018 279.924 179.475 280.264 179.85 280.703C180.23 281.137 180.521 281.649 180.72 282.241C180.919 282.827 181.019 283.463 181.019 284.148V284.351C181.019 285.036 180.919 285.672 180.72 286.258C180.521 286.844 180.23 287.356 179.85 287.796C179.475 288.229 179.021 288.569 178.487 288.815C177.96 289.056 177.362 289.176 176.694 289.176C176.026 289.176 175.426 289.056 174.893 288.815C174.359 288.569 173.902 288.229 173.521 287.796C173.146 287.356 172.859 286.844 172.66 286.258C172.461 285.672 172.361 285.036 172.361 284.351ZM173.987 284.148V284.351C173.987 284.825 174.043 285.273 174.154 285.695C174.266 286.111 174.433 286.48 174.655 286.803C174.884 287.125 175.168 287.38 175.508 287.567C175.848 287.749 176.243 287.84 176.694 287.84C177.14 287.84 177.529 287.749 177.863 287.567C178.203 287.38 178.484 287.125 178.707 286.803C178.93 286.48 179.097 286.111 179.208 285.695C179.325 285.273 179.384 284.825 179.384 284.351V284.148C179.384 283.68 179.325 283.237 179.208 282.821C179.097 282.399 178.927 282.027 178.698 281.705C178.476 281.377 178.194 281.119 177.854 280.932C177.521 280.744 177.128 280.65 176.677 280.65C176.231 280.65 175.839 280.744 175.499 280.932C175.165 281.119 174.884 281.377 174.655 281.705C174.433 282.027 174.266 282.399 174.154 282.821C174.043 283.237 173.987 283.68 173.987 284.148ZM186.74 279.49V289H185.105V279.49H186.74ZM189.931 279.49V280.809H181.977V279.49H189.931ZM194.633 287.84C195.02 287.84 195.377 287.761 195.705 287.603C196.033 287.444 196.303 287.228 196.514 286.952C196.725 286.671 196.845 286.352 196.874 285.994H198.421C198.392 286.557 198.201 287.081 197.85 287.567C197.504 288.048 197.05 288.438 196.487 288.736C195.925 289.029 195.307 289.176 194.633 289.176C193.918 289.176 193.294 289.05 192.761 288.798C192.233 288.546 191.794 288.2 191.442 287.761C191.097 287.321 190.836 286.817 190.66 286.249C190.49 285.675 190.405 285.068 190.405 284.43V284.061C190.405 283.422 190.49 282.818 190.66 282.25C190.836 281.676 191.097 281.169 191.442 280.729C191.794 280.29 192.233 279.944 192.761 279.692C193.294 279.44 193.918 279.314 194.633 279.314C195.377 279.314 196.027 279.467 196.584 279.771C197.141 280.07 197.577 280.48 197.894 281.002C198.216 281.518 198.392 282.104 198.421 282.76H196.874C196.845 282.367 196.733 282.013 196.54 281.696C196.353 281.38 196.095 281.128 195.767 280.94C195.444 280.747 195.066 280.65 194.633 280.65C194.135 280.65 193.716 280.75 193.376 280.949C193.042 281.143 192.775 281.406 192.576 281.74C192.383 282.068 192.242 282.435 192.154 282.839C192.072 283.237 192.031 283.645 192.031 284.061V284.43C192.031 284.846 192.072 285.256 192.154 285.66C192.236 286.064 192.374 286.431 192.567 286.759C192.767 287.087 193.033 287.351 193.367 287.55C193.707 287.743 194.129 287.84 194.633 287.84ZM202.016 279.49V289H200.39V279.49H202.016ZM208.256 279.49L203.747 284.939H201.471L201.225 283.516H203.088L206.278 279.49H208.256ZM206.507 289L203.009 284.693L204.055 283.516L208.572 289H206.507ZM209.363 284.351V284.148C209.363 283.463 209.463 282.827 209.662 282.241C209.861 281.649 210.148 281.137 210.523 280.703C210.898 280.264 211.353 279.924 211.886 279.684C212.419 279.438 213.017 279.314 213.679 279.314C214.347 279.314 214.947 279.438 215.48 279.684C216.02 279.924 216.477 280.264 216.852 280.703C217.232 281.137 217.522 281.649 217.722 282.241C217.921 282.827 218.021 283.463 218.021 284.148V284.351C218.021 285.036 217.921 285.672 217.722 286.258C217.522 286.844 217.232 287.356 216.852 287.796C216.477 288.229 216.022 288.569 215.489 288.815C214.962 289.056 214.364 289.176 213.696 289.176C213.028 289.176 212.428 289.056 211.895 288.815C211.361 288.569 210.904 288.229 210.523 287.796C210.148 287.356 209.861 286.844 209.662 286.258C209.463 285.672 209.363 285.036 209.363 284.351ZM210.989 284.148V284.351C210.989 284.825 211.045 285.273 211.156 285.695C211.268 286.111 211.435 286.48 211.657 286.803C211.886 287.125 212.17 287.38 212.51 287.567C212.85 287.749 213.245 287.84 213.696 287.84C214.142 287.84 214.531 287.749 214.865 287.567C215.205 287.38 215.486 287.125 215.709 286.803C215.932 286.48 216.099 286.111 216.21 285.695C216.327 285.273 216.386 284.825 216.386 284.351V284.148C216.386 283.68 216.327 283.237 216.21 282.821C216.099 282.399 215.929 282.027 215.7 281.705C215.478 281.377 215.196 281.119 214.856 280.932C214.522 280.744 214.13 280.65 213.679 280.65C213.233 280.65 212.841 280.744 212.501 280.932C212.167 281.119 211.886 281.377 211.657 281.705C211.435 282.027 211.268 282.399 211.156 282.821C211.045 283.237 210.989 283.68 210.989 284.148ZM224.006 289.176C223.344 289.176 222.743 289.064 222.204 288.842C221.671 288.613 221.211 288.294 220.824 287.884C220.443 287.474 220.15 286.987 219.945 286.425C219.74 285.862 219.638 285.247 219.638 284.579V284.21C219.638 283.437 219.752 282.748 219.98 282.145C220.209 281.535 220.52 281.02 220.912 280.598C221.305 280.176 221.75 279.856 222.248 279.64C222.746 279.423 223.262 279.314 223.795 279.314C224.475 279.314 225.061 279.432 225.553 279.666C226.051 279.9 226.458 280.229 226.774 280.65C227.091 281.066 227.325 281.559 227.478 282.127C227.63 282.689 227.706 283.305 227.706 283.973V284.702H220.604V283.375H226.08V283.252C226.057 282.83 225.969 282.42 225.816 282.021C225.67 281.623 225.436 281.295 225.113 281.037C224.791 280.779 224.352 280.65 223.795 280.65C223.426 280.65 223.086 280.729 222.775 280.888C222.465 281.04 222.198 281.269 221.976 281.573C221.753 281.878 221.58 282.25 221.457 282.689C221.334 283.129 221.272 283.636 221.272 284.21V284.579C221.272 285.03 221.334 285.455 221.457 285.854C221.586 286.246 221.771 286.592 222.011 286.891C222.257 287.189 222.553 287.424 222.898 287.594C223.25 287.764 223.648 287.849 224.094 287.849C224.668 287.849 225.154 287.731 225.553 287.497C225.951 287.263 226.3 286.949 226.599 286.557L227.583 287.339C227.378 287.649 227.117 287.945 226.801 288.227C226.484 288.508 226.095 288.736 225.632 288.912C225.175 289.088 224.633 289.176 224.006 289.176Z" fill="white"/>
<path d="M144.211 312.931H145.898C145.811 313.739 145.579 314.463 145.204 315.102C144.829 315.74 144.299 316.247 143.613 316.622C142.928 316.991 142.072 317.176 141.047 317.176C140.297 317.176 139.614 317.035 138.999 316.754C138.39 316.473 137.865 316.074 137.426 315.559C136.986 315.037 136.646 314.413 136.406 313.687C136.172 312.954 136.055 312.14 136.055 311.243V309.969C136.055 309.072 136.172 308.261 136.406 307.534C136.646 306.802 136.989 306.175 137.435 305.653C137.886 305.132 138.428 304.73 139.061 304.449C139.693 304.168 140.405 304.027 141.196 304.027C142.163 304.027 142.98 304.209 143.648 304.572C144.316 304.936 144.835 305.439 145.204 306.084C145.579 306.723 145.811 307.464 145.898 308.308H144.211C144.129 307.71 143.977 307.197 143.754 306.77C143.531 306.336 143.215 306.002 142.805 305.768C142.395 305.533 141.858 305.416 141.196 305.416C140.628 305.416 140.127 305.524 139.693 305.741C139.266 305.958 138.905 306.266 138.612 306.664C138.325 307.062 138.108 307.54 137.962 308.097C137.815 308.653 137.742 309.271 137.742 309.951V311.243C137.742 311.87 137.807 312.459 137.936 313.01C138.07 313.561 138.272 314.044 138.542 314.46C138.812 314.876 139.154 315.204 139.57 315.444C139.986 315.679 140.479 315.796 141.047 315.796C141.768 315.796 142.342 315.682 142.77 315.453C143.197 315.225 143.52 314.896 143.736 314.469C143.959 314.041 144.117 313.528 144.211 312.931ZM152.429 312.816H149.309L149.291 311.516H151.84C152.344 311.516 152.763 311.466 153.097 311.366C153.437 311.267 153.691 311.117 153.861 310.918C154.031 310.719 154.116 310.473 154.116 310.18C154.116 309.951 154.066 309.752 153.967 309.582C153.873 309.406 153.729 309.263 153.536 309.151C153.343 309.034 153.103 308.949 152.815 308.896C152.534 308.838 152.203 308.809 151.822 308.809H149.739V317H148.113V307.49H151.822C152.426 307.49 152.968 307.543 153.448 307.648C153.935 307.754 154.348 307.915 154.688 308.132C155.033 308.343 155.297 308.612 155.479 308.94C155.66 309.269 155.751 309.655 155.751 310.101C155.751 310.388 155.692 310.66 155.575 310.918C155.458 311.176 155.285 311.404 155.057 311.604C154.828 311.803 154.547 311.967 154.213 312.096C153.879 312.219 153.495 312.298 153.062 312.333L152.429 312.816ZM152.429 317H148.72L149.528 315.682H152.429C152.88 315.682 153.255 315.626 153.554 315.515C153.853 315.397 154.075 315.233 154.222 315.022C154.374 314.806 154.45 314.548 154.45 314.249C154.45 313.95 154.374 313.695 154.222 313.484C154.075 313.268 153.853 313.104 153.554 312.992C153.255 312.875 152.88 312.816 152.429 312.816H149.959L149.977 311.516H153.062L153.65 312.008C154.172 312.049 154.614 312.178 154.978 312.395C155.341 312.611 155.616 312.887 155.804 313.221C155.991 313.549 156.085 313.906 156.085 314.293C156.085 314.738 156 315.131 155.83 315.471C155.666 315.811 155.426 316.095 155.109 316.323C154.793 316.546 154.409 316.716 153.958 316.833C153.507 316.944 152.997 317 152.429 317ZM157.834 312.351V312.148C157.834 311.463 157.934 310.827 158.133 310.241C158.332 309.649 158.619 309.137 158.994 308.703C159.369 308.264 159.823 307.924 160.356 307.684C160.89 307.438 161.487 307.314 162.149 307.314C162.817 307.314 163.418 307.438 163.951 307.684C164.49 307.924 164.947 308.264 165.322 308.703C165.703 309.137 165.993 309.649 166.192 310.241C166.392 310.827 166.491 311.463 166.491 312.148V312.351C166.491 313.036 166.392 313.672 166.192 314.258C165.993 314.844 165.703 315.356 165.322 315.796C164.947 316.229 164.493 316.569 163.96 316.815C163.433 317.056 162.835 317.176 162.167 317.176C161.499 317.176 160.898 317.056 160.365 316.815C159.832 316.569 159.375 316.229 158.994 315.796C158.619 315.356 158.332 314.844 158.133 314.258C157.934 313.672 157.834 313.036 157.834 312.351ZM159.46 312.148V312.351C159.46 312.825 159.516 313.273 159.627 313.695C159.738 314.111 159.905 314.48 160.128 314.803C160.356 315.125 160.641 315.38 160.98 315.567C161.32 315.749 161.716 315.84 162.167 315.84C162.612 315.84 163.002 315.749 163.336 315.567C163.676 315.38 163.957 315.125 164.18 314.803C164.402 314.48 164.569 314.111 164.681 313.695C164.798 313.273 164.856 312.825 164.856 312.351V312.148C164.856 311.68 164.798 311.237 164.681 310.821C164.569 310.399 164.399 310.027 164.171 309.705C163.948 309.377 163.667 309.119 163.327 308.932C162.993 308.744 162.601 308.65 162.149 308.65C161.704 308.65 161.312 308.744 160.972 308.932C160.638 309.119 160.356 309.377 160.128 309.705C159.905 310.027 159.738 310.399 159.627 310.821C159.516 311.237 159.46 311.68 159.46 312.148ZM174.63 303.351H175.966C175.966 303.925 175.878 304.382 175.702 304.722C175.526 305.056 175.286 305.313 174.981 305.495C174.683 305.677 174.343 305.814 173.962 305.908C173.587 306.002 173.197 306.093 172.793 306.181C172.289 306.286 171.82 306.453 171.387 306.682C170.959 306.904 170.59 307.221 170.279 307.631C169.975 308.041 169.749 308.574 169.603 309.23C169.462 309.887 169.424 310.698 169.488 311.665V312.474H168.152V311.665C168.152 310.581 168.255 309.635 168.46 308.826C168.671 308.018 168.967 307.335 169.348 306.778C169.729 306.222 170.18 305.779 170.701 305.451C171.229 305.123 171.809 304.897 172.441 304.774C172.898 304.687 173.291 304.593 173.619 304.493C173.947 304.388 174.196 304.247 174.366 304.071C174.542 303.896 174.63 303.655 174.63 303.351ZM172.705 308.035C173.326 308.035 173.88 308.144 174.366 308.36C174.853 308.577 175.266 308.879 175.605 309.266C175.945 309.652 176.203 310.109 176.379 310.637C176.561 311.158 176.651 311.727 176.651 312.342V312.535C176.651 313.197 176.555 313.812 176.361 314.381C176.174 314.943 175.896 315.436 175.526 315.857C175.163 316.273 174.718 316.599 174.19 316.833C173.669 317.067 173.074 317.185 172.406 317.185C171.738 317.185 171.141 317.067 170.613 316.833C170.092 316.599 169.646 316.273 169.277 315.857C168.908 315.436 168.627 314.943 168.434 314.381C168.246 313.812 168.152 313.197 168.152 312.535V312.342C168.152 312.195 168.179 312.052 168.231 311.911C168.284 311.771 168.349 311.627 168.425 311.48C168.507 311.334 168.58 311.179 168.645 311.015C168.861 310.487 169.157 309.998 169.532 309.547C169.913 309.096 170.367 308.732 170.895 308.457C171.428 308.176 172.031 308.035 172.705 308.035ZM172.389 309.362C171.791 309.362 171.299 309.5 170.912 309.775C170.531 310.051 170.247 310.417 170.06 310.874C169.872 311.325 169.778 311.814 169.778 312.342V312.535C169.778 312.98 169.831 313.402 169.937 313.801C170.042 314.199 170.2 314.554 170.411 314.864C170.628 315.169 170.9 315.409 171.229 315.585C171.562 315.761 171.955 315.849 172.406 315.849C172.857 315.849 173.247 315.761 173.575 315.585C173.903 315.409 174.173 315.169 174.384 314.864C174.595 314.554 174.753 314.199 174.858 313.801C174.964 313.402 175.017 312.98 175.017 312.535V312.342C175.017 311.943 174.964 311.565 174.858 311.208C174.753 310.851 174.592 310.534 174.375 310.259C174.164 309.983 173.892 309.767 173.558 309.608C173.229 309.444 172.84 309.362 172.389 309.362ZM178.066 312.351V312.148C178.066 311.463 178.166 310.827 178.365 310.241C178.564 309.649 178.852 309.137 179.227 308.703C179.602 308.264 180.056 307.924 180.589 307.684C181.122 307.438 181.72 307.314 182.382 307.314C183.05 307.314 183.65 307.438 184.184 307.684C184.723 307.924 185.18 308.264 185.555 308.703C185.936 309.137 186.226 309.649 186.425 310.241C186.624 310.827 186.724 311.463 186.724 312.148V312.351C186.724 313.036 186.624 313.672 186.425 314.258C186.226 314.844 185.936 315.356 185.555 315.796C185.18 316.229 184.726 316.569 184.192 316.815C183.665 317.056 183.067 317.176 182.399 317.176C181.731 317.176 181.131 317.056 180.598 316.815C180.064 316.569 179.607 316.229 179.227 315.796C178.852 315.356 178.564 314.844 178.365 314.258C178.166 313.672 178.066 313.036 178.066 312.351ZM179.692 312.148V312.351C179.692 312.825 179.748 313.273 179.859 313.695C179.971 314.111 180.138 314.48 180.36 314.803C180.589 315.125 180.873 315.38 181.213 315.567C181.553 315.749 181.948 315.84 182.399 315.84C182.845 315.84 183.234 315.749 183.568 315.567C183.908 315.38 184.189 315.125 184.412 314.803C184.635 314.48 184.802 314.111 184.913 313.695C185.03 313.273 185.089 312.825 185.089 312.351V312.148C185.089 311.68 185.03 311.237 184.913 310.821C184.802 310.399 184.632 310.027 184.403 309.705C184.181 309.377 183.899 309.119 183.56 308.932C183.226 308.744 182.833 308.65 182.382 308.65C181.937 308.65 181.544 308.744 181.204 308.932C180.87 309.119 180.589 309.377 180.36 309.705C180.138 310.027 179.971 310.399 179.859 310.821C179.748 311.237 179.692 311.68 179.692 312.148ZM189.844 307.49H191.47L191.329 311.05C191.294 311.952 191.191 312.731 191.021 313.388C190.852 314.044 190.635 314.604 190.371 315.066C190.107 315.523 189.812 315.907 189.483 316.218C189.161 316.528 188.827 316.789 188.481 317H187.673L187.717 315.673L188.051 315.664C188.244 315.436 188.432 315.201 188.613 314.961C188.795 314.715 188.962 314.425 189.114 314.091C189.267 313.751 189.393 313.338 189.492 312.852C189.598 312.359 189.665 311.759 189.694 311.05L189.844 307.49ZM190.248 307.49H195.97V317H194.344V308.993H190.248V307.49ZM187.304 315.664H197.191V319.804H195.565V317H188.93V319.804H187.295L187.304 315.664ZM205.444 311.612V312.931H200.417V311.612H205.444ZM200.76 307.49V317H199.134V307.49H200.76ZM206.763 307.49V317H205.128V307.49H206.763ZM208.951 312.351V312.148C208.951 311.463 209.051 310.827 209.25 310.241C209.449 309.649 209.736 309.137 210.111 308.703C210.486 308.264 210.94 307.924 211.474 307.684C212.007 307.438 212.604 307.314 213.267 307.314C213.935 307.314 214.535 307.438 215.068 307.684C215.607 307.924 216.064 308.264 216.439 308.703C216.82 309.137 217.11 309.649 217.31 310.241C217.509 310.827 217.608 311.463 217.608 312.148V312.351C217.608 313.036 217.509 313.672 217.31 314.258C217.11 314.844 216.82 315.356 216.439 315.796C216.064 316.229 215.61 316.569 215.077 316.815C214.55 317.056 213.952 317.176 213.284 317.176C212.616 317.176 212.016 317.056 211.482 316.815C210.949 316.569 210.492 316.229 210.111 315.796C209.736 315.356 209.449 314.844 209.25 314.258C209.051 313.672 208.951 313.036 208.951 312.351ZM210.577 312.148V312.351C210.577 312.825 210.633 313.273 210.744 313.695C210.855 314.111 211.022 314.48 211.245 314.803C211.474 315.125 211.758 315.38 212.098 315.567C212.438 315.749 212.833 315.84 213.284 315.84C213.729 315.84 214.119 315.749 214.453 315.567C214.793 315.38 215.074 315.125 215.297 314.803C215.52 314.48 215.687 314.111 215.798 313.695C215.915 313.273 215.974 312.825 215.974 312.351V312.148C215.974 311.68 215.915 311.237 215.798 310.821C215.687 310.399 215.517 310.027 215.288 309.705C215.065 309.377 214.784 309.119 214.444 308.932C214.11 308.744 213.718 308.65 213.267 308.65C212.821 308.65 212.429 308.744 212.089 308.932C211.755 309.119 211.474 309.377 211.245 309.705C211.022 310.027 210.855 310.399 210.744 310.821C210.633 311.237 210.577 311.68 210.577 312.148ZM223.594 317.176C222.932 317.176 222.331 317.064 221.792 316.842C221.259 316.613 220.799 316.294 220.412 315.884C220.031 315.474 219.738 314.987 219.533 314.425C219.328 313.862 219.226 313.247 219.226 312.579V312.21C219.226 311.437 219.34 310.748 219.568 310.145C219.797 309.535 220.107 309.02 220.5 308.598C220.893 308.176 221.338 307.856 221.836 307.64C222.334 307.423 222.85 307.314 223.383 307.314C224.062 307.314 224.648 307.432 225.141 307.666C225.639 307.9 226.046 308.229 226.362 308.65C226.679 309.066 226.913 309.559 227.065 310.127C227.218 310.689 227.294 311.305 227.294 311.973V312.702H220.192V311.375H225.668V311.252C225.645 310.83 225.557 310.42 225.404 310.021C225.258 309.623 225.023 309.295 224.701 309.037C224.379 308.779 223.939 308.65 223.383 308.65C223.014 308.65 222.674 308.729 222.363 308.888C222.053 309.04 221.786 309.269 221.563 309.573C221.341 309.878 221.168 310.25 221.045 310.689C220.922 311.129 220.86 311.636 220.86 312.21V312.579C220.86 313.03 220.922 313.455 221.045 313.854C221.174 314.246 221.358 314.592 221.599 314.891C221.845 315.189 222.141 315.424 222.486 315.594C222.838 315.764 223.236 315.849 223.682 315.849C224.256 315.849 224.742 315.731 225.141 315.497C225.539 315.263 225.888 314.949 226.187 314.557L227.171 315.339C226.966 315.649 226.705 315.945 226.389 316.227C226.072 316.508 225.683 316.736 225.22 316.912C224.763 317.088 224.221 317.176 223.594 317.176Z" fill="white"/>
<path d="M2.02148 366.203H3.66504L7.85742 376.636L12.041 366.203H13.6934L8.49023 379H7.20703L2.02148 366.203ZM1.48535 366.203H2.93555L3.17285 374.008V379H1.48535V366.203ZM12.7705 366.203H14.2207V379H12.5332V374.008L12.7705 366.203ZM18.29 372.76H21.1465C21.9141 372.76 22.5615 372.895 23.0889 373.164C23.6162 373.428 24.0146 373.794 24.2842 374.263C24.5596 374.726 24.6973 375.253 24.6973 375.845C24.6973 376.284 24.6211 376.697 24.4688 377.084C24.3164 377.465 24.0879 377.799 23.7832 378.086C23.4844 378.373 23.1123 378.599 22.667 378.763C22.2275 378.921 21.7207 379 21.1465 379H17.1035V369.49H18.7295V377.664H21.1465C21.6152 377.664 21.9902 377.579 22.2715 377.409C22.5527 377.239 22.7549 377.02 22.8779 376.75C23.001 376.48 23.0625 376.199 23.0625 375.906C23.0625 375.619 23.001 375.338 22.8779 375.062C22.7549 374.787 22.5527 374.559 22.2715 374.377C21.9902 374.189 21.6152 374.096 21.1465 374.096H18.29V372.76ZM28.0811 369.49V379H26.4551V369.49H28.0811ZM34.7344 377.84C35.1211 377.84 35.4785 377.761 35.8066 377.603C36.1348 377.444 36.4043 377.228 36.6152 376.952C36.8262 376.671 36.9463 376.352 36.9756 375.994H38.5225C38.4932 376.557 38.3027 377.081 37.9512 377.567C37.6055 378.048 37.1514 378.438 36.5889 378.736C36.0264 379.029 35.4082 379.176 34.7344 379.176C34.0195 379.176 33.3955 379.05 32.8623 378.798C32.335 378.546 31.8955 378.2 31.5439 377.761C31.1982 377.321 30.9375 376.817 30.7617 376.249C30.5918 375.675 30.5068 375.068 30.5068 374.43V374.061C30.5068 373.422 30.5918 372.818 30.7617 372.25C30.9375 371.676 31.1982 371.169 31.5439 370.729C31.8955 370.29 32.335 369.944 32.8623 369.692C33.3955 369.44 34.0195 369.314 34.7344 369.314C35.4785 369.314 36.1289 369.467 36.6855 369.771C37.2422 370.07 37.6787 370.48 37.9951 371.002C38.3174 371.518 38.4932 372.104 38.5225 372.76H36.9756C36.9463 372.367 36.835 372.013 36.6416 371.696C36.4541 371.38 36.1963 371.128 35.8682 370.94C35.5459 370.747 35.168 370.65 34.7344 370.65C34.2363 370.65 33.8174 370.75 33.4775 370.949C33.1436 371.143 32.877 371.406 32.6777 371.74C32.4844 372.068 32.3438 372.435 32.2559 372.839C32.1738 373.237 32.1328 373.645 32.1328 374.061V374.43C32.1328 374.846 32.1738 375.256 32.2559 375.66C32.3379 376.064 32.4756 376.431 32.6689 376.759C32.8682 377.087 33.1348 377.351 33.4688 377.55C33.8086 377.743 34.2305 377.84 34.7344 377.84ZM49.623 373.015H46.3799L46.3623 371.652H49.3066C49.793 371.652 50.2178 371.57 50.5811 371.406C50.9443 371.242 51.2256 371.008 51.4248 370.703C51.6299 370.393 51.7324 370.023 51.7324 369.596C51.7324 369.127 51.6416 368.746 51.46 368.453C51.2842 368.154 51.0117 367.938 50.6426 367.803C50.2793 367.662 49.8164 367.592 49.2539 367.592H46.7578V379H45.0615V366.203H49.2539C49.9102 366.203 50.4961 366.271 51.0117 366.405C51.5273 366.534 51.9639 366.739 52.3213 367.021C52.6846 367.296 52.96 367.647 53.1475 368.075C53.335 368.503 53.4287 369.016 53.4287 369.613C53.4287 370.141 53.2939 370.618 53.0244 371.046C52.7549 371.468 52.3799 371.813 51.8994 372.083C51.4248 372.353 50.8682 372.525 50.2295 372.602L49.623 373.015ZM49.5439 379H45.7119L46.6699 377.62H49.5439C50.083 377.62 50.54 377.526 50.915 377.339C51.2959 377.151 51.5859 376.888 51.7852 376.548C51.9844 376.202 52.084 375.795 52.084 375.326C52.084 374.852 51.999 374.441 51.8291 374.096C51.6592 373.75 51.3926 373.483 51.0293 373.296C50.666 373.108 50.1973 373.015 49.623 373.015H47.2061L47.2236 371.652H50.5283L50.8887 372.145C51.5039 372.197 52.0254 372.373 52.4531 372.672C52.8809 372.965 53.2061 373.34 53.4287 373.797C53.6572 374.254 53.7715 374.758 53.7715 375.309C53.7715 376.105 53.5957 376.779 53.2441 377.33C52.8984 377.875 52.4092 378.291 51.7764 378.578C51.1436 378.859 50.3994 379 49.5439 379ZM59.9766 379.176C59.3145 379.176 58.7139 379.064 58.1748 378.842C57.6416 378.613 57.1816 378.294 56.7949 377.884C56.4141 377.474 56.1211 376.987 55.916 376.425C55.7109 375.862 55.6084 375.247 55.6084 374.579V374.21C55.6084 373.437 55.7227 372.748 55.9512 372.145C56.1797 371.535 56.4902 371.02 56.8828 370.598C57.2754 370.176 57.7207 369.856 58.2188 369.64C58.7168 369.423 59.2324 369.314 59.7656 369.314C60.4453 369.314 61.0312 369.432 61.5234 369.666C62.0215 369.9 62.4287 370.229 62.7451 370.65C63.0615 371.066 63.2959 371.559 63.4482 372.127C63.6006 372.689 63.6768 373.305 63.6768 373.973V374.702H56.5752V373.375H62.0508V373.252C62.0273 372.83 61.9395 372.42 61.7871 372.021C61.6406 371.623 61.4062 371.295 61.084 371.037C60.7617 370.779 60.3223 370.65 59.7656 370.65C59.3965 370.65 59.0566 370.729 58.7461 370.888C58.4355 371.04 58.1689 371.269 57.9463 371.573C57.7236 371.878 57.5508 372.25 57.4277 372.689C57.3047 373.129 57.2432 373.636 57.2432 374.21V374.579C57.2432 375.03 57.3047 375.455 57.4277 375.854C57.5566 376.246 57.7412 376.592 57.9814 376.891C58.2275 377.189 58.5234 377.424 58.8691 377.594C59.2207 377.764 59.6191 377.849 60.0645 377.849C60.6387 377.849 61.125 377.731 61.5234 377.497C61.9219 377.263 62.2705 376.949 62.5693 376.557L63.5537 377.339C63.3486 377.649 63.0879 377.945 62.7715 378.227C62.4551 378.508 62.0654 378.736 61.6025 378.912C61.1455 379.088 60.6035 379.176 59.9766 379.176ZM71.9297 369.49V370.835H67.333V369.49H71.9297ZM73.3623 369.49V379H71.7363V369.49H73.3623ZM66.9375 369.49H68.5723L68.3262 374.078C68.2852 374.787 68.2178 375.414 68.124 375.959C68.0361 376.498 67.9131 376.961 67.7549 377.348C67.6025 377.734 67.4092 378.051 67.1748 378.297C66.9463 378.537 66.6709 378.716 66.3486 378.833C66.0264 378.944 65.6543 379 65.2324 379H64.7227V377.567L65.0742 377.541C65.3262 377.523 65.54 377.465 65.7158 377.365C65.8975 377.266 66.0498 377.119 66.1729 376.926C66.2959 376.727 66.3955 376.472 66.4717 376.161C66.5537 375.851 66.6152 375.481 66.6562 375.054C66.7031 374.626 66.7383 374.128 66.7617 373.56L66.9375 369.49ZM77.7393 376.425L82.125 369.49H83.7598V379H82.125V372.065L77.7393 379H76.1221V369.49H77.7393V376.425ZM88.1367 369.49V379H86.5107V369.49H88.1367ZM94.377 369.49L89.8682 374.939H87.5918L87.3457 373.516H89.209L92.3994 369.49H94.377ZM92.6279 379L89.1299 374.693L90.1758 373.516L94.6934 379H92.6279ZM101.716 377.374V372.479C101.716 372.104 101.64 371.778 101.487 371.503C101.341 371.222 101.118 371.005 100.819 370.853C100.521 370.7 100.151 370.624 99.7119 370.624C99.3018 370.624 98.9414 370.694 98.6309 370.835C98.3262 370.976 98.0859 371.16 97.9102 371.389C97.7402 371.617 97.6553 371.863 97.6553 372.127H96.0293C96.0293 371.787 96.1172 371.45 96.293 371.116C96.4688 370.782 96.7207 370.48 97.0488 370.211C97.3828 369.936 97.7812 369.719 98.2441 369.561C98.7129 369.396 99.2344 369.314 99.8086 369.314C100.5 369.314 101.109 369.432 101.637 369.666C102.17 369.9 102.586 370.255 102.885 370.729C103.189 371.198 103.342 371.787 103.342 372.496V376.926C103.342 377.242 103.368 377.579 103.421 377.937C103.479 378.294 103.564 378.602 103.676 378.859V379H101.979C101.897 378.812 101.833 378.563 101.786 378.253C101.739 377.937 101.716 377.644 101.716 377.374ZM101.997 373.234L102.015 374.377H100.371C99.9082 374.377 99.4951 374.415 99.1318 374.491C98.7686 374.562 98.4639 374.67 98.2178 374.816C97.9717 374.963 97.7842 375.147 97.6553 375.37C97.5264 375.587 97.4619 375.842 97.4619 376.135C97.4619 376.434 97.5293 376.706 97.6641 376.952C97.7988 377.198 98.001 377.395 98.2705 377.541C98.5459 377.682 98.8828 377.752 99.2812 377.752C99.7793 377.752 100.219 377.646 100.6 377.436C100.98 377.225 101.282 376.967 101.505 376.662C101.733 376.357 101.856 376.062 101.874 375.774L102.568 376.557C102.527 376.803 102.416 377.075 102.234 377.374C102.053 377.673 101.81 377.96 101.505 378.235C101.206 378.505 100.849 378.73 100.433 378.912C100.022 379.088 99.5596 379.176 99.0439 379.176C98.3994 379.176 97.834 379.05 97.3477 378.798C96.8672 378.546 96.4922 378.209 96.2227 377.787C95.959 377.359 95.8271 376.882 95.8271 376.354C95.8271 375.845 95.9268 375.396 96.126 375.01C96.3252 374.617 96.6123 374.292 96.9873 374.034C97.3623 373.771 97.8135 373.571 98.3408 373.437C98.8682 373.302 99.457 373.234 100.107 373.234H101.997ZM112.351 373.612V374.931H107.323V373.612H112.351ZM107.666 369.49V379H106.04V369.49H107.666ZM113.669 369.49V379H112.034V369.49H113.669Z" fill="white"/>
<circle cx="148" cy="35" r="6" fill="#FF6C01"/>
<path d="M98 306C103.667 309 116.2 314.4 121 312" stroke="white" stroke-width="3"/>
<path d="M146 37L72.5 103L81 141L72.5 180.5L58.5 220.5L81 261.5L85 281.5C92 282.167 103.5 288.5 95.5 304.5" stroke="white" stroke-width="3"/>
<path d="M95.5 309.5C97.1667 313.667 99.5 323.2 95.5 328C91.5 332.8 87.5 336.667 86 338L69 347.5L54.5 355.5" stroke="#828282" stroke-width="3"/>
<path d="M146 37L72.5 103L81 141L72.5 180.5L58.5 220.5L81 261.5L85 281.5C92 282.167 103.5 288.5 95.5 304.5" stroke="#FF6C01" stroke-width="3"/>
<path d="M146 37L72.5 103" stroke="#FF6C01" stroke-width="3"/>
<circle cx="96" cy="306" r="6" fill="#FF6C01"/>
<circle cx="52" cy="356" r="6" fill="#828282"/>
<circle cx="124" cy="312" r="6" fill="white"/>
</svg>
