<svg width="362" height="276" viewBox="0 0 362 276" fill="none" xmlns="http://www.w3.org/2000/svg">
<circle cx="349.716" cy="101.712" r="4" transform="rotate(5.25948 349.716 101.712)" fill="white"/>
<circle cx="72.2298" cy="231.316" r="4" transform="rotate(5.25948 72.2298 231.316)" fill="#FF6C01"/>
<circle cx="99.138" cy="227.749" r="4" transform="rotate(5.25948 99.138 227.749)" fill="#FF6C01"/>
<circle cx="182.48" cy="193.837" r="4" transform="rotate(5.25948 182.48 193.837)" fill="#FF6C01"/>
<circle cx="221.55" cy="191.391" r="4" transform="rotate(5.25948 221.55 191.391)" fill="#FF6C01"/>
<circle cx="151.702" cy="198.942" r="4" transform="rotate(5.25948 151.702 198.942)" fill="#FF6C01"/>
<path d="M566.801 43.7128C562.458 49.0859 553.114 59.916 550.485 60.2513C547.857 60.5866 541.387 61.0975 538.481 61.3111C531.244 65.4557 515.527 74.7128 510.552 78.5846C504.334 83.4242 505.459 94.7129 455.296 98.7546L437.073 104.654L392.54 106.327L363.909 111.63C364.544 115.176 364.145 120.816 357.464 115.005C356.419 113.999 354.263 113.073 351.114 113.431M72.187 231.264C84.2574 234.973 96.4984 229.773 101.11 226.71C114.222 214.928 149.201 191.881 184.225 193.95C219.249 196.02 222.196 194.319 219.292 193.21C223.878 187.282 230.75 186.327 233.612 186.59L248.243 192.267L251.953 191.165L256.815 177.541L275.466 166.99C292.557 126.349 323.288 133.508 337.062 121.065C342.868 115.819 347.607 113.829 351.114 113.431M351.114 113.431L343.68 107.964C342.749 106.314 342.417 102.868 348.533 102.277" stroke="white" stroke-width="2"/>
<path d="M357.463 115.005C356.418 113.999 354.262 113.073 351.114 113.43C347.606 113.829 342.868 115.819 337.061 121.065C323.287 133.508 292.556 126.349 275.465 166.99L256.814 177.541L251.952 191.165L248.242 192.267L233.611 186.59C230.749 186.326 223.878 187.282 219.291 193.21C222.196 194.319 219.249 196.02 184.224 193.95C149.2 191.881 114.221 214.928 101.109 226.71C96.4978 229.773 84.2568 234.972 72.1864 231.264" stroke="#FF6C01" stroke-width="2"/>
<path d="M256.814 177.541L275.465 166.99C279.618 157.116 284.575 150.064 289.899 144.866M72.1866 231.263C84.257 234.972 96.4979 229.773 101.11 226.71C106.266 222.076 114.804 215.7 125.398 209.795" stroke="#FF6C01" stroke-width="2"/>
<circle cx="259.136" cy="176.359" r="4" transform="rotate(5.25948 259.136 176.359)" fill="#FF6C01"/>
<circle cx="300.917" cy="136.638" r="4" transform="rotate(5.25948 300.917 136.638)" fill="#FF6C01"/>
<circle cx="357.804" cy="114.453" r="4" transform="rotate(5.25948 357.804 114.453)" fill="#FF6C01"/>
<path d="M2.75391 240.336V251H1.34033V240.336H2.75391ZM5.2002 245.221V246.334H2.66602V245.221H5.2002ZM12.854 245.331V246.005C12.854 246.806 12.7539 247.523 12.5537 248.158C12.3535 248.793 12.0654 249.333 11.6895 249.777C11.3135 250.221 10.8618 250.561 10.3345 250.795C9.81201 251.029 9.22607 251.146 8.57666 251.146C7.94678 251.146 7.36816 251.029 6.84082 250.795C6.31836 250.561 5.86426 250.221 5.47852 249.777C5.09766 249.333 4.80225 248.793 4.59229 248.158C4.38232 247.523 4.27734 246.806 4.27734 246.005V245.331C4.27734 244.53 4.37988 243.815 4.58496 243.185C4.79492 242.55 5.09033 242.011 5.47119 241.566C5.85205 241.117 6.30371 240.775 6.82617 240.541C7.35352 240.307 7.93213 240.189 8.56201 240.189C9.21143 240.189 9.79736 240.307 10.3198 240.541C10.8472 240.775 11.2988 241.117 11.6748 241.566C12.0557 242.011 12.3462 242.55 12.5464 243.185C12.7515 243.815 12.854 244.53 12.854 245.331ZM11.4551 246.005V245.316C11.4551 244.682 11.3892 244.12 11.2573 243.632C11.1304 243.144 10.9424 242.733 10.6934 242.401C10.4443 242.069 10.1392 241.818 9.77783 241.647C9.42139 241.476 9.01611 241.391 8.56201 241.391C8.12256 241.391 7.72461 241.476 7.36816 241.647C7.0166 241.818 6.71387 242.069 6.45996 242.401C6.21094 242.733 6.01807 243.144 5.88135 243.632C5.74463 244.12 5.67627 244.682 5.67627 245.316V246.005C5.67627 246.645 5.74463 247.211 5.88135 247.704C6.01807 248.192 6.21338 248.605 6.46729 248.942C6.72607 249.274 7.03125 249.525 7.38281 249.696C7.73926 249.867 8.13721 249.953 8.57666 249.953C9.03564 249.953 9.44336 249.867 9.7998 249.696C10.1562 249.525 10.4565 249.274 10.7007 248.942C10.9497 248.605 11.1377 248.192 11.2646 247.704C11.3916 247.211 11.4551 246.645 11.4551 246.005ZM16.853 247.55L13.8501 243.075H15.4834L17.5342 246.356H19.1162L18.9185 247.55H16.853ZM17.5928 247.411L15.293 251H13.5791L16.7358 246.43L17.5928 247.411ZM19.812 243.075V251H18.457V243.075H19.812ZM24.4336 243.075L21.4307 247.55H19.3652L19.1528 246.356H20.7422L22.793 243.075H24.4336ZM22.9834 251L20.6763 247.411L21.5479 246.43L24.6973 251H22.9834ZM31.3257 246.51V247.609H27.1362V246.51H31.3257ZM27.4219 243.075V251H26.0669V243.075H27.4219ZM32.4243 243.075V251H31.062V243.075H32.4243ZM34.248 247.125V246.957C34.248 246.386 34.3311 245.856 34.4971 245.368C34.6631 244.875 34.9023 244.447 35.2148 244.086C35.5273 243.72 35.9058 243.437 36.3501 243.236C36.7944 243.031 37.2925 242.929 37.8442 242.929C38.4009 242.929 38.9014 243.031 39.3457 243.236C39.7949 243.437 40.1758 243.72 40.4883 244.086C40.8057 244.447 41.0474 244.875 41.2134 245.368C41.3794 245.856 41.4624 246.386 41.4624 246.957V247.125C41.4624 247.697 41.3794 248.227 41.2134 248.715C41.0474 249.203 40.8057 249.63 40.4883 249.997C40.1758 250.358 39.7974 250.641 39.353 250.846C38.9136 251.046 38.4155 251.146 37.8589 251.146C37.3022 251.146 36.8018 251.046 36.3574 250.846C35.9131 250.641 35.5322 250.358 35.2148 249.997C34.9023 249.63 34.6631 249.203 34.4971 248.715C34.3311 248.227 34.248 247.697 34.248 247.125ZM35.603 246.957V247.125C35.603 247.521 35.6494 247.895 35.7422 248.246C35.835 248.593 35.9741 248.9 36.1597 249.169C36.3501 249.438 36.5869 249.65 36.8701 249.806C37.1533 249.958 37.4829 250.033 37.8589 250.033C38.23 250.033 38.5547 249.958 38.833 249.806C39.1162 249.65 39.3506 249.438 39.5361 249.169C39.7217 248.9 39.8608 248.593 39.9536 248.246C40.0513 247.895 40.1001 247.521 40.1001 247.125V246.957C40.1001 246.566 40.0513 246.198 39.9536 245.851C39.8608 245.5 39.7192 245.189 39.5288 244.921C39.3433 244.647 39.1089 244.433 38.8257 244.276C38.5474 244.12 38.2202 244.042 37.8442 244.042C37.4731 244.042 37.146 244.12 36.8628 244.276C36.5845 244.433 36.3501 244.647 36.1597 244.921C35.9741 245.189 35.835 245.5 35.7422 245.851C35.6494 246.198 35.603 246.566 35.603 246.957ZM45.9814 245.91V247.023H42.4072V245.91H45.9814ZM53.9502 247.609H55.3564C55.2832 248.283 55.0903 248.886 54.7778 249.418C54.4653 249.95 54.0234 250.373 53.4521 250.685C52.8809 250.993 52.168 251.146 51.3135 251.146C50.6885 251.146 50.1196 251.029 49.6069 250.795C49.0991 250.561 48.6621 250.229 48.2959 249.799C47.9297 249.364 47.6465 248.844 47.4463 248.239C47.251 247.628 47.1533 246.95 47.1533 246.203V245.141C47.1533 244.394 47.251 243.717 47.4463 243.112C47.6465 242.501 47.9321 241.979 48.3032 241.544C48.6792 241.11 49.1309 240.775 49.6582 240.541C50.1855 240.307 50.7788 240.189 51.438 240.189C52.2437 240.189 52.9248 240.341 53.4814 240.644C54.0381 240.946 54.4702 241.366 54.7778 241.903C55.0903 242.436 55.2832 243.053 55.3564 243.756H53.9502C53.8818 243.258 53.7549 242.831 53.5693 242.475C53.3838 242.113 53.1201 241.835 52.7783 241.64C52.4365 241.444 51.9897 241.347 51.438 241.347C50.9644 241.347 50.5469 241.437 50.1855 241.618C49.8291 241.798 49.5288 242.055 49.2847 242.387C49.0454 242.719 48.8647 243.117 48.7427 243.581C48.6206 244.044 48.5596 244.56 48.5596 245.126V246.203C48.5596 246.725 48.6133 247.216 48.7207 247.675C48.833 248.134 49.0015 248.537 49.2261 248.883C49.4507 249.23 49.7363 249.503 50.083 249.704C50.4297 249.899 50.8398 249.997 51.3135 249.997C51.9141 249.997 52.3926 249.901 52.749 249.711C53.1055 249.521 53.374 249.247 53.5547 248.891C53.7402 248.534 53.8721 248.107 53.9502 247.609ZM61.7505 249.645V245.565C61.7505 245.253 61.687 244.982 61.5601 244.752C61.438 244.518 61.2524 244.337 61.0034 244.21C60.7544 244.083 60.4468 244.02 60.0806 244.02C59.7388 244.02 59.4385 244.079 59.1797 244.196C58.9258 244.313 58.7256 244.467 58.5791 244.657C58.4375 244.848 58.3667 245.053 58.3667 245.272H57.0117C57.0117 244.989 57.085 244.708 57.2314 244.43C57.3779 244.152 57.5879 243.9 57.8613 243.676C58.1396 243.446 58.4717 243.266 58.8574 243.134C59.248 242.997 59.6826 242.929 60.1611 242.929C60.7373 242.929 61.2451 243.026 61.6846 243.222C62.1289 243.417 62.4756 243.712 62.7246 244.108C62.9785 244.499 63.1055 244.989 63.1055 245.58V249.271C63.1055 249.535 63.1274 249.816 63.1714 250.114C63.2202 250.412 63.291 250.668 63.3838 250.883V251H61.9702C61.9019 250.844 61.8481 250.636 61.8091 250.377C61.77 250.114 61.7505 249.87 61.7505 249.645ZM61.9849 246.195L61.9995 247.147H60.6299C60.2441 247.147 59.8999 247.179 59.5972 247.243C59.2944 247.301 59.0405 247.392 58.8354 247.514C58.6304 247.636 58.4741 247.79 58.3667 247.975C58.2593 248.156 58.2056 248.368 58.2056 248.612C58.2056 248.861 58.2617 249.088 58.374 249.293C58.4863 249.499 58.6548 249.662 58.8794 249.784C59.1089 249.901 59.3896 249.96 59.7217 249.96C60.1367 249.96 60.5029 249.872 60.8203 249.696C61.1377 249.521 61.3892 249.306 61.5747 249.052C61.7651 248.798 61.8677 248.551 61.8823 248.312L62.4609 248.964C62.4268 249.169 62.334 249.396 62.1826 249.645C62.0312 249.894 61.8286 250.133 61.5747 250.363C61.3257 250.587 61.0278 250.775 60.6812 250.927C60.3394 251.073 59.9536 251.146 59.5239 251.146C58.9868 251.146 58.5156 251.042 58.1104 250.832C57.71 250.622 57.3975 250.341 57.1729 249.989C56.9531 249.633 56.8433 249.235 56.8433 248.795C56.8433 248.371 56.9263 247.997 57.0923 247.675C57.2583 247.348 57.4976 247.077 57.8101 246.862C58.1226 246.642 58.4985 246.476 58.938 246.364C59.3774 246.251 59.8682 246.195 60.4102 246.195H61.9849ZM66.1523 243.075L67.8882 245.961L69.646 243.075H71.2354L68.6426 246.986L71.3159 251H69.7485L67.9175 248.026L66.0864 251H64.5117L67.1777 246.986L64.5923 243.075H66.1523ZM77.3511 249.645V245.565C77.3511 245.253 77.2876 244.982 77.1606 244.752C77.0386 244.518 76.853 244.337 76.604 244.21C76.355 244.083 76.0474 244.02 75.6812 244.02C75.3394 244.02 75.0391 244.079 74.7803 244.196C74.5264 244.313 74.3262 244.467 74.1797 244.657C74.0381 244.848 73.9673 245.053 73.9673 245.272H72.6123C72.6123 244.989 72.6855 244.708 72.832 244.43C72.9785 244.152 73.1885 243.9 73.4619 243.676C73.7402 243.446 74.0723 243.266 74.458 243.134C74.8486 242.997 75.2832 242.929 75.7617 242.929C76.3379 242.929 76.8457 243.026 77.2852 243.222C77.7295 243.417 78.0762 243.712 78.3252 244.108C78.5791 244.499 78.7061 244.989 78.7061 245.58V249.271C78.7061 249.535 78.728 249.816 78.772 250.114C78.8208 250.412 78.8916 250.668 78.9844 250.883V251H77.5708C77.5024 250.844 77.4487 250.636 77.4097 250.377C77.3706 250.114 77.3511 249.87 77.3511 249.645ZM77.5854 246.195L77.6001 247.147H76.2305C75.8447 247.147 75.5005 247.179 75.1978 247.243C74.895 247.301 74.6411 247.392 74.436 247.514C74.231 247.636 74.0747 247.79 73.9673 247.975C73.8599 248.156 73.8062 248.368 73.8062 248.612C73.8062 248.861 73.8623 249.088 73.9746 249.293C74.0869 249.499 74.2554 249.662 74.48 249.784C74.7095 249.901 74.9902 249.96 75.3223 249.96C75.7373 249.96 76.1035 249.872 76.4209 249.696C76.7383 249.521 76.9897 249.306 77.1753 249.052C77.3657 248.798 77.4683 248.551 77.4829 248.312L78.0615 248.964C78.0273 249.169 77.9346 249.396 77.7832 249.645C77.6318 249.894 77.4292 250.133 77.1753 250.363C76.9263 250.587 76.6284 250.775 76.2817 250.927C75.9399 251.073 75.5542 251.146 75.1245 251.146C74.5874 251.146 74.1162 251.042 73.7109 250.832C73.3105 250.622 72.998 250.341 72.7734 249.989C72.5537 249.633 72.4438 249.235 72.4438 248.795C72.4438 248.371 72.5269 247.997 72.6929 247.675C72.8589 247.348 73.0981 247.077 73.4106 246.862C73.7231 246.642 74.0991 246.476 74.5386 246.364C74.978 246.251 75.4688 246.195 76.0107 246.195H77.5854ZM86.1328 243.075V244.196H82.3022V243.075H86.1328ZM87.3267 243.075V251H85.9717V243.075H87.3267ZM81.9727 243.075H83.335L83.1299 246.898C83.0957 247.489 83.0396 248.012 82.9614 248.466C82.8882 248.915 82.7856 249.301 82.6538 249.623C82.5269 249.945 82.3657 250.209 82.1704 250.414C81.98 250.614 81.7505 250.763 81.4819 250.861C81.2134 250.954 80.9033 251 80.5518 251H80.127V249.806L80.4199 249.784C80.6299 249.77 80.8081 249.721 80.9546 249.638C81.106 249.555 81.2329 249.433 81.3354 249.271C81.438 249.105 81.521 248.893 81.5845 248.634C81.6528 248.375 81.7041 248.068 81.7383 247.711C81.7773 247.355 81.8066 246.94 81.8262 246.466L81.9727 243.075ZM90.9741 248.854L94.6289 243.075H95.9912V251H94.6289V245.221L90.9741 251H89.6265V243.075H90.9741V248.854ZM103.542 246.51V247.609H99.353V246.51H103.542ZM99.6387 243.075V251H98.2837V243.075H99.6387ZM104.641 243.075V251H103.279V243.075H104.641ZM109.995 250.033C110.317 250.033 110.615 249.967 110.889 249.835C111.162 249.704 111.387 249.523 111.562 249.293C111.738 249.059 111.838 248.793 111.863 248.495H113.152C113.127 248.964 112.969 249.401 112.676 249.806C112.388 250.207 112.009 250.531 111.541 250.78C111.072 251.024 110.557 251.146 109.995 251.146C109.399 251.146 108.879 251.042 108.435 250.832C107.996 250.622 107.629 250.333 107.336 249.967C107.048 249.601 106.831 249.181 106.685 248.708C106.543 248.229 106.472 247.724 106.472 247.191V246.884C106.472 246.352 106.543 245.849 106.685 245.375C106.831 244.896 107.048 244.474 107.336 244.108C107.629 243.742 107.996 243.454 108.435 243.244C108.879 243.034 109.399 242.929 109.995 242.929C110.615 242.929 111.157 243.056 111.621 243.31C112.085 243.559 112.449 243.9 112.712 244.335C112.981 244.765 113.127 245.253 113.152 245.8H111.863C111.838 245.473 111.746 245.177 111.584 244.914C111.428 244.65 111.213 244.44 110.94 244.284C110.671 244.123 110.356 244.042 109.995 244.042C109.58 244.042 109.231 244.125 108.948 244.291C108.669 244.452 108.447 244.672 108.281 244.95C108.12 245.224 108.003 245.529 107.93 245.866C107.861 246.198 107.827 246.537 107.827 246.884V247.191C107.827 247.538 107.861 247.88 107.93 248.217C107.998 248.554 108.113 248.859 108.274 249.132C108.44 249.406 108.662 249.625 108.94 249.792C109.224 249.953 109.575 250.033 109.995 250.033ZM116.147 243.075V251H114.792V243.075H116.147ZM121.348 243.075L117.59 247.616H115.693L115.488 246.43H117.041L119.7 243.075H121.348ZM119.89 251L116.975 247.411L117.847 246.43L121.611 251H119.89Z" fill="white"/>
<path d="M258.186 72.2812L254.655 82.0005H253.212L257.277 71.3364H258.208L258.186 72.2812ZM261.145 82.0005L257.607 72.2812L257.585 71.3364H258.515L262.595 82.0005H261.145ZM260.961 78.0527V79.21H254.97V78.0527H260.961ZM269.245 74.0757V75.1963H265.415V74.0757H269.245ZM270.439 74.0757V82.0005H269.084V74.0757H270.439ZM265.085 74.0757H266.447L266.242 77.8989C266.208 78.4897 266.152 79.0122 266.074 79.4663C266 79.9155 265.898 80.3013 265.766 80.6235C265.639 80.9458 265.478 81.2095 265.283 81.4146C265.092 81.6147 264.863 81.7637 264.594 81.8613C264.326 81.9541 264.016 82.0005 263.664 82.0005H263.239V80.8066L263.532 80.7847C263.742 80.77 263.92 80.7212 264.067 80.6382C264.218 80.5552 264.345 80.4331 264.448 80.272C264.55 80.106 264.633 79.8936 264.697 79.6348C264.765 79.376 264.816 79.0684 264.851 78.7119C264.89 78.3555 264.919 77.9404 264.938 77.4668L265.085 74.0757ZM275.91 82.147C275.358 82.147 274.858 82.0542 274.409 81.8687C273.964 81.6782 273.581 81.4121 273.259 81.0703C272.941 80.7285 272.697 80.3232 272.526 79.8545C272.355 79.3857 272.27 78.873 272.27 78.3164V78.0088C272.27 77.3643 272.365 76.7905 272.556 76.2876C272.746 75.7798 273.005 75.3501 273.332 74.9985C273.659 74.647 274.03 74.3809 274.445 74.2002C274.86 74.0195 275.29 73.9292 275.734 73.9292C276.301 73.9292 276.789 74.0269 277.199 74.2222C277.614 74.4175 277.954 74.6909 278.217 75.0425C278.481 75.3892 278.676 75.7993 278.803 76.2729C278.93 76.7417 278.994 77.2544 278.994 77.811V78.4189H273.076V77.313H277.639V77.2104C277.619 76.8589 277.546 76.5171 277.419 76.1851C277.297 75.853 277.102 75.5796 276.833 75.3647C276.564 75.1499 276.198 75.0425 275.734 75.0425C275.427 75.0425 275.144 75.1084 274.885 75.2402C274.626 75.3672 274.404 75.5576 274.218 75.8115C274.033 76.0654 273.889 76.3755 273.786 76.7417C273.684 77.1079 273.632 77.5303 273.632 78.0088V78.3164C273.632 78.6924 273.684 79.0464 273.786 79.3784C273.894 79.7056 274.047 79.9937 274.248 80.2427C274.453 80.4917 274.699 80.687 274.987 80.8286C275.28 80.9702 275.612 81.041 275.983 81.041C276.462 81.041 276.867 80.9434 277.199 80.748C277.531 80.5527 277.822 80.2915 278.071 79.9644L278.891 80.6162C278.72 80.875 278.503 81.1216 278.239 81.356C277.976 81.5903 277.651 81.7808 277.265 81.9272C276.884 82.0737 276.433 82.147 275.91 82.147ZM282.048 74.0757V82.0005H280.693V74.0757H282.048ZM287.248 74.0757L283.491 78.6167H281.594L281.389 77.4302H282.941L285.6 74.0757H287.248ZM285.791 82.0005L282.875 78.4116L283.747 77.4302L287.512 82.0005H285.791ZM291.745 81.0337C292.067 81.0337 292.365 80.9678 292.639 80.8359C292.912 80.7041 293.137 80.5234 293.312 80.2939C293.488 80.0596 293.588 79.7935 293.613 79.4956H294.902C294.877 79.9644 294.719 80.4014 294.426 80.8066C294.138 81.207 293.759 81.5317 293.291 81.7808C292.822 82.0249 292.307 82.147 291.745 82.147C291.149 82.147 290.629 82.042 290.185 81.832C289.746 81.6221 289.379 81.334 289.086 80.9678C288.798 80.6016 288.581 80.1816 288.435 79.708C288.293 79.2295 288.222 78.7241 288.222 78.1919V77.8843C288.222 77.3521 288.293 76.8491 288.435 76.3755C288.581 75.897 288.798 75.4746 289.086 75.1084C289.379 74.7422 289.746 74.4541 290.185 74.2441C290.629 74.0342 291.149 73.9292 291.745 73.9292C292.365 73.9292 292.907 74.0562 293.371 74.3101C293.835 74.5591 294.199 74.9009 294.462 75.3354C294.731 75.7651 294.877 76.2534 294.902 76.8003H293.613C293.588 76.4731 293.496 76.1777 293.334 75.9141C293.178 75.6504 292.963 75.4404 292.69 75.2842C292.421 75.123 292.106 75.0425 291.745 75.0425C291.33 75.0425 290.981 75.1255 290.698 75.2915C290.419 75.4526 290.197 75.6724 290.031 75.9507C289.87 76.2241 289.753 76.5293 289.68 76.8662C289.611 77.1982 289.577 77.5376 289.577 77.8843V78.1919C289.577 78.5386 289.611 78.8804 289.68 79.2173C289.748 79.5542 289.863 79.8594 290.024 80.1328C290.19 80.4062 290.412 80.626 290.69 80.792C290.974 80.9531 291.325 81.0337 291.745 81.0337ZM301.098 80.6455V76.5659C301.098 76.2534 301.035 75.9824 300.908 75.7529C300.786 75.5186 300.6 75.3379 300.351 75.2109C300.102 75.084 299.794 75.0205 299.428 75.0205C299.086 75.0205 298.786 75.0791 298.527 75.1963C298.273 75.3135 298.073 75.4673 297.927 75.6577C297.785 75.8481 297.714 76.0532 297.714 76.2729H296.359C296.359 75.9897 296.433 75.709 296.579 75.4307C296.726 75.1523 296.936 74.9009 297.209 74.6763C297.487 74.4468 297.819 74.2661 298.205 74.1343C298.596 73.9976 299.03 73.9292 299.509 73.9292C300.085 73.9292 300.593 74.0269 301.032 74.2222C301.477 74.4175 301.823 74.7129 302.072 75.1084C302.326 75.499 302.453 75.9897 302.453 76.5806V80.272C302.453 80.5356 302.475 80.8164 302.519 81.1143C302.568 81.4121 302.639 81.6685 302.731 81.8833V82.0005H301.318C301.25 81.8442 301.196 81.6367 301.157 81.3779C301.118 81.1143 301.098 80.8701 301.098 80.6455ZM301.333 77.1958L301.347 78.1479H299.978C299.592 78.1479 299.248 78.1797 298.945 78.2432C298.642 78.3018 298.388 78.3921 298.183 78.5142C297.978 78.6362 297.822 78.79 297.714 78.9756C297.607 79.1562 297.553 79.3687 297.553 79.6128C297.553 79.8618 297.609 80.0889 297.722 80.2939C297.834 80.499 298.002 80.6626 298.227 80.7847C298.457 80.9019 298.737 80.9604 299.069 80.9604C299.484 80.9604 299.851 80.8726 300.168 80.6968C300.485 80.521 300.737 80.3062 300.922 80.0522C301.113 79.7983 301.215 79.5518 301.23 79.3125L301.809 79.9644C301.774 80.1694 301.682 80.3965 301.53 80.6455C301.379 80.8945 301.176 81.1338 300.922 81.3633C300.673 81.5879 300.375 81.7759 300.029 81.9272C299.687 82.0737 299.301 82.147 298.872 82.147C298.334 82.147 297.863 82.042 297.458 81.832C297.058 81.6221 296.745 81.3413 296.521 80.9897C296.301 80.6333 296.191 80.2354 296.191 79.7959C296.191 79.3711 296.274 78.9976 296.44 78.6753C296.606 78.3481 296.845 78.0771 297.158 77.8623C297.47 77.6426 297.846 77.4766 298.286 77.3643C298.725 77.252 299.216 77.1958 299.758 77.1958H301.333ZM309.96 77.5107V78.6094H305.771V77.5107H309.96ZM306.057 74.0757V82.0005H304.702V74.0757H306.057ZM311.059 74.0757V82.0005H309.697V74.0757H311.059ZM314.67 74.0757H316.025L315.908 77.042C315.878 77.7939 315.793 78.4434 315.651 78.9902C315.51 79.5371 315.329 80.0034 315.109 80.3892C314.89 80.77 314.643 81.0898 314.37 81.3486C314.101 81.6074 313.823 81.8247 313.535 82.0005H312.861L312.897 80.8945L313.176 80.8872C313.337 80.6968 313.493 80.5015 313.645 80.3013C313.796 80.0962 313.935 79.8545 314.062 79.5762C314.189 79.293 314.294 78.9487 314.377 78.5435C314.465 78.1333 314.521 77.6328 314.545 77.042L314.67 74.0757ZM315.007 74.0757H319.775V82.0005H318.42V75.3281H315.007V74.0757ZM312.553 80.8872H320.793V84.3369H319.438V82.0005H313.908V84.3369H312.546L312.553 80.8872ZM323.649 75.5991V85.0474H322.287V74.0757H323.532L323.649 75.5991ZM328.989 77.9722V78.126C328.989 78.7021 328.92 79.2368 328.784 79.73C328.647 80.2183 328.447 80.6431 328.183 81.0044C327.924 81.3657 327.604 81.6465 327.224 81.8467C326.843 82.0469 326.406 82.147 325.913 82.147C325.41 82.147 324.965 82.064 324.58 81.8979C324.194 81.7319 323.867 81.4902 323.598 81.1729C323.33 80.8555 323.115 80.4746 322.954 80.0303C322.797 79.5859 322.69 79.0854 322.631 78.5288V77.7085C322.69 77.1226 322.8 76.5977 322.961 76.1338C323.122 75.6699 323.334 75.2744 323.598 74.9473C323.867 74.6152 324.191 74.3638 324.572 74.1929C324.953 74.0171 325.393 73.9292 325.891 73.9292C326.389 73.9292 326.831 74.0269 327.216 74.2222C327.602 74.4126 327.927 74.686 328.19 75.0425C328.454 75.3989 328.652 75.8262 328.784 76.3242C328.92 76.8174 328.989 77.3667 328.989 77.9722ZM327.626 78.126V77.9722C327.626 77.5767 327.585 77.2056 327.502 76.8589C327.419 76.5073 327.29 76.1997 327.114 75.936C326.943 75.6675 326.723 75.4575 326.455 75.3062C326.186 75.1499 325.866 75.0718 325.495 75.0718C325.153 75.0718 324.855 75.1304 324.602 75.2476C324.353 75.3647 324.14 75.5234 323.964 75.7236C323.789 75.9189 323.645 76.1436 323.532 76.3975C323.425 76.6465 323.344 76.9053 323.291 77.1738V79.0708C323.388 79.4126 323.525 79.7349 323.701 80.0376C323.876 80.3354 324.111 80.5771 324.404 80.7627C324.697 80.9434 325.065 81.0337 325.51 81.0337C325.876 81.0337 326.191 80.958 326.455 80.8066C326.723 80.6504 326.943 80.438 327.114 80.1694C327.29 79.9009 327.419 79.5933 327.502 79.2466C327.585 78.895 327.626 78.5215 327.626 78.126ZM330.358 78.126V77.9575C330.358 77.3862 330.441 76.8564 330.607 76.3682C330.773 75.875 331.013 75.4478 331.325 75.0864C331.638 74.7202 332.016 74.437 332.46 74.2368C332.905 74.0317 333.403 73.9292 333.955 73.9292C334.511 73.9292 335.012 74.0317 335.456 74.2368C335.905 74.437 336.286 74.7202 336.599 75.0864C336.916 75.4478 337.158 75.875 337.324 76.3682C337.49 76.8564 337.573 77.3862 337.573 77.9575V78.126C337.573 78.6973 337.49 79.2271 337.324 79.7153C337.158 80.2036 336.916 80.6309 336.599 80.9971C336.286 81.3584 335.908 81.6416 335.463 81.8467C335.024 82.0469 334.526 82.147 333.969 82.147C333.413 82.147 332.912 82.0469 332.468 81.8467C332.023 81.6416 331.643 81.3584 331.325 80.9971C331.013 80.6309 330.773 80.2036 330.607 79.7153C330.441 79.2271 330.358 78.6973 330.358 78.126ZM331.713 77.9575V78.126C331.713 78.5215 331.76 78.895 331.853 79.2466C331.945 79.5933 332.084 79.9009 332.27 80.1694C332.46 80.438 332.697 80.6504 332.98 80.8066C333.264 80.958 333.593 81.0337 333.969 81.0337C334.34 81.0337 334.665 80.958 334.943 80.8066C335.227 80.6504 335.461 80.438 335.646 80.1694C335.832 79.9009 335.971 79.5933 336.064 79.2466C336.162 78.895 336.21 78.5215 336.21 78.126V77.9575C336.21 77.5669 336.162 77.1982 336.064 76.8516C335.971 76.5 335.83 76.1899 335.639 75.9214C335.454 75.6479 335.219 75.4331 334.936 75.2769C334.658 75.1206 334.331 75.0425 333.955 75.0425C333.583 75.0425 333.256 75.1206 332.973 75.2769C332.695 75.4331 332.46 75.6479 332.27 75.9214C332.084 76.1899 331.945 76.5 331.853 76.8516C331.76 77.1982 331.713 77.5669 331.713 77.9575ZM342.993 78.5142H340.393L340.378 77.4302H342.502C342.922 77.4302 343.271 77.3887 343.549 77.3057C343.833 77.2227 344.045 77.0981 344.187 76.9321C344.328 76.7661 344.399 76.561 344.399 76.3169C344.399 76.1265 344.357 75.9604 344.274 75.8188C344.196 75.6724 344.077 75.5527 343.916 75.46C343.754 75.3623 343.554 75.2915 343.315 75.2476C343.081 75.1987 342.805 75.1743 342.487 75.1743H340.751V82.0005H339.396V74.0757H342.487C342.99 74.0757 343.442 74.1196 343.842 74.2075C344.248 74.2954 344.592 74.4297 344.875 74.6104C345.163 74.7861 345.383 75.0107 345.534 75.2842C345.686 75.5576 345.761 75.8799 345.761 76.251C345.761 76.4902 345.712 76.7173 345.615 76.9321C345.517 77.147 345.373 77.3374 345.183 77.5034C344.992 77.6694 344.758 77.8062 344.479 77.9136C344.201 78.0161 343.881 78.082 343.52 78.1113L342.993 78.5142ZM342.993 82.0005H339.902L340.576 80.9019H342.993C343.369 80.9019 343.681 80.8555 343.93 80.7627C344.179 80.665 344.365 80.5283 344.487 80.3525C344.614 80.1719 344.677 79.957 344.677 79.708C344.677 79.459 344.614 79.2466 344.487 79.0708C344.365 78.8901 344.179 78.7534 343.93 78.6606C343.681 78.563 343.369 78.5142 342.993 78.5142H340.935L340.949 77.4302H343.52L344.011 77.8403C344.445 77.8745 344.814 77.9819 345.117 78.1626C345.419 78.3433 345.649 78.5728 345.805 78.8511C345.961 79.1245 346.04 79.4224 346.04 79.7446C346.04 80.1157 345.969 80.4429 345.827 80.7261C345.69 81.0093 345.49 81.2461 345.227 81.4365C344.963 81.6221 344.643 81.7637 344.267 81.8613C343.891 81.9541 343.466 82.0005 342.993 82.0005ZM351.027 81.0337C351.35 81.0337 351.647 80.9678 351.921 80.8359C352.194 80.7041 352.419 80.5234 352.595 80.2939C352.771 80.0596 352.871 79.7935 352.895 79.4956H354.184C354.16 79.9644 354.001 80.4014 353.708 80.8066C353.42 81.207 353.042 81.5317 352.573 81.7808C352.104 82.0249 351.589 82.147 351.027 82.147C350.432 82.147 349.912 82.042 349.467 81.832C349.028 81.6221 348.662 81.334 348.369 80.9678C348.081 80.6016 347.863 80.1816 347.717 79.708C347.575 79.2295 347.504 78.7241 347.504 78.1919V77.8843C347.504 77.3521 347.575 76.8491 347.717 76.3755C347.863 75.897 348.081 75.4746 348.369 75.1084C348.662 74.7422 349.028 74.4541 349.467 74.2441C349.912 74.0342 350.432 73.9292 351.027 73.9292C351.647 73.9292 352.189 74.0562 352.653 74.3101C353.117 74.5591 353.481 74.9009 353.745 75.3354C354.013 75.7651 354.16 76.2534 354.184 76.8003H352.895C352.871 76.4731 352.778 76.1777 352.617 75.9141C352.46 75.6504 352.246 75.4404 351.972 75.2842C351.704 75.123 351.389 75.0425 351.027 75.0425C350.612 75.0425 350.263 75.1255 349.98 75.2915C349.702 75.4526 349.479 75.6724 349.313 75.9507C349.152 76.2241 349.035 76.5293 348.962 76.8662C348.894 77.1982 348.859 77.5376 348.859 77.8843V78.1919C348.859 78.5386 348.894 78.8804 348.962 79.2173C349.03 79.5542 349.145 79.8594 349.306 80.1328C349.472 80.4062 349.694 80.626 349.973 80.792C350.256 80.9531 350.607 81.0337 351.027 81.0337ZM357.18 74.0757V82.0005H355.825V74.0757H357.18ZM362.38 74.0757L358.623 78.6167H356.726L356.521 77.4302H358.073L360.732 74.0757H362.38ZM360.922 82.0005L358.007 78.4116L358.879 77.4302L362.644 82.0005H360.922ZM366.643 76.9102V78.0234H363.068V76.9102H366.643ZM374.611 78.6094H376.018C375.944 79.2832 375.751 79.8862 375.439 80.4185C375.126 80.9507 374.685 81.373 374.113 81.6855C373.542 81.9932 372.829 82.147 371.975 82.147C371.35 82.147 370.781 82.0298 370.268 81.7954C369.76 81.561 369.323 81.229 368.957 80.7993C368.591 80.3647 368.308 79.8447 368.107 79.2393C367.912 78.6289 367.814 77.9502 367.814 77.2031V76.1411C367.814 75.394 367.912 74.7178 368.107 74.1123C368.308 73.502 368.593 72.9795 368.964 72.5449C369.34 72.1104 369.792 71.7759 370.319 71.5415C370.847 71.3071 371.44 71.1899 372.099 71.1899C372.905 71.1899 373.586 71.3413 374.143 71.644C374.699 71.9468 375.131 72.3667 375.439 72.9038C375.751 73.436 375.944 74.0537 376.018 74.7568H374.611C374.543 74.2588 374.416 73.8315 374.23 73.4751C374.045 73.1138 373.781 72.8354 373.439 72.6401C373.098 72.4448 372.651 72.3472 372.099 72.3472C371.625 72.3472 371.208 72.4375 370.847 72.6182C370.49 72.7988 370.19 73.0552 369.946 73.3872C369.707 73.7192 369.526 74.1172 369.404 74.5811C369.282 75.0449 369.221 75.5601 369.221 76.1265V77.2031C369.221 77.7256 369.274 78.2163 369.382 78.6753C369.494 79.1343 369.663 79.5371 369.887 79.8838C370.112 80.2305 370.397 80.5039 370.744 80.7041C371.091 80.8994 371.501 80.9971 371.975 80.9971C372.575 80.9971 373.054 80.9019 373.41 80.7114C373.767 80.521 374.035 80.2476 374.216 79.8911C374.401 79.5347 374.533 79.1074 374.611 78.6094ZM382.412 80.6455V76.5659C382.412 76.2534 382.348 75.9824 382.221 75.7529C382.099 75.5186 381.914 75.3379 381.665 75.2109C381.416 75.084 381.108 75.0205 380.742 75.0205C380.4 75.0205 380.1 75.0791 379.841 75.1963C379.587 75.3135 379.387 75.4673 379.24 75.6577C379.099 75.8481 379.028 76.0532 379.028 76.2729H377.673C377.673 75.9897 377.746 75.709 377.893 75.4307C378.039 75.1523 378.249 74.9009 378.522 74.6763C378.801 74.4468 379.133 74.2661 379.519 74.1343C379.909 73.9976 380.344 73.9292 380.822 73.9292C381.398 73.9292 381.906 74.0269 382.346 74.2222C382.79 74.4175 383.137 74.7129 383.386 75.1084C383.64 75.499 383.767 75.9897 383.767 76.5806V80.272C383.767 80.5356 383.789 80.8164 383.833 81.1143C383.881 81.4121 383.952 81.6685 384.045 81.8833V82.0005H382.631C382.563 81.8442 382.509 81.6367 382.47 81.3779C382.431 81.1143 382.412 80.8701 382.412 80.6455ZM382.646 77.1958L382.661 78.1479H381.291C380.905 78.1479 380.561 78.1797 380.258 78.2432C379.956 78.3018 379.702 78.3921 379.497 78.5142C379.292 78.6362 379.135 78.79 379.028 78.9756C378.92 79.1562 378.867 79.3687 378.867 79.6128C378.867 79.8618 378.923 80.0889 379.035 80.2939C379.147 80.499 379.316 80.6626 379.541 80.7847C379.77 80.9019 380.051 80.9604 380.383 80.9604C380.798 80.9604 381.164 80.8726 381.481 80.6968C381.799 80.521 382.05 80.3062 382.236 80.0522C382.426 79.7983 382.529 79.5518 382.543 79.3125L383.122 79.9644C383.088 80.1694 382.995 80.3965 382.844 80.6455C382.692 80.8945 382.49 81.1338 382.236 81.3633C381.987 81.5879 381.689 81.7759 381.342 81.9272C381 82.0737 380.615 82.147 380.185 82.147C379.648 82.147 379.177 82.042 378.771 81.832C378.371 81.6221 378.059 81.3413 377.834 80.9897C377.614 80.6333 377.504 80.2354 377.504 79.7959C377.504 79.3711 377.587 78.9976 377.753 78.6753C377.919 78.3481 378.159 78.0771 378.471 77.8623C378.784 77.6426 379.16 77.4766 379.599 77.3643C380.039 77.252 380.529 77.1958 381.071 77.1958H382.646ZM386.813 74.0757L388.549 76.9614L390.307 74.0757H391.896L389.304 77.9868L391.977 82.0005H390.41L388.579 79.0269L386.748 82.0005H385.173L387.839 77.9868L385.253 74.0757H386.813ZM398.012 80.6455V76.5659C398.012 76.2534 397.949 75.9824 397.822 75.7529C397.7 75.5186 397.514 75.3379 397.265 75.2109C397.016 75.084 396.708 75.0205 396.342 75.0205C396 75.0205 395.7 75.0791 395.441 75.1963C395.188 75.3135 394.987 75.4673 394.841 75.6577C394.699 75.8481 394.628 76.0532 394.628 76.2729H393.273C393.273 75.9897 393.347 75.709 393.493 75.4307C393.64 75.1523 393.85 74.9009 394.123 74.6763C394.401 74.4468 394.733 74.2661 395.119 74.1343C395.51 73.9976 395.944 73.9292 396.423 73.9292C396.999 73.9292 397.507 74.0269 397.946 74.2222C398.391 74.4175 398.737 74.7129 398.986 75.1084C399.24 75.499 399.367 75.9897 399.367 76.5806V80.272C399.367 80.5356 399.389 80.8164 399.433 81.1143C399.482 81.4121 399.553 81.6685 399.646 81.8833V82.0005H398.232C398.164 81.8442 398.11 81.6367 398.071 81.3779C398.032 81.1143 398.012 80.8701 398.012 80.6455ZM398.247 77.1958L398.261 78.1479H396.892C396.506 78.1479 396.162 78.1797 395.859 78.2432C395.556 78.3018 395.302 78.3921 395.097 78.5142C394.892 78.6362 394.736 78.79 394.628 78.9756C394.521 79.1562 394.467 79.3687 394.467 79.6128C394.467 79.8618 394.523 80.0889 394.636 80.2939C394.748 80.499 394.917 80.6626 395.141 80.7847C395.371 80.9019 395.651 80.9604 395.983 80.9604C396.398 80.9604 396.765 80.8726 397.082 80.6968C397.399 80.521 397.651 80.3062 397.836 80.0522C398.027 79.7983 398.129 79.5518 398.144 79.3125L398.723 79.9644C398.688 80.1694 398.596 80.3965 398.444 80.6455C398.293 80.8945 398.09 81.1338 397.836 81.3633C397.587 81.5879 397.29 81.7759 396.943 81.9272C396.601 82.0737 396.215 82.147 395.786 82.147C395.249 82.147 394.777 82.042 394.372 81.832C393.972 81.6221 393.659 81.3413 393.435 80.9897C393.215 80.6333 393.105 80.2354 393.105 79.7959C393.105 79.3711 393.188 78.9976 393.354 78.6753C393.52 78.3481 393.759 78.0771 394.072 77.8623C394.384 77.6426 394.76 77.4766 395.2 77.3643C395.639 77.252 396.13 77.1958 396.672 77.1958H398.247ZM406.794 74.0757V75.1963H402.963V74.0757H406.794ZM407.988 74.0757V82.0005H406.633V74.0757H407.988ZM402.634 74.0757H403.996L403.791 77.8989C403.757 78.4897 403.701 79.0122 403.623 79.4663C403.549 79.9155 403.447 80.3013 403.315 80.6235C403.188 80.9458 403.027 81.2095 402.832 81.4146C402.641 81.6147 402.412 81.7637 402.143 81.8613C401.875 81.9541 401.564 82.0005 401.213 82.0005H400.788V80.8066L401.081 80.7847C401.291 80.77 401.469 80.7212 401.616 80.6382C401.767 80.5552 401.894 80.4331 401.997 80.272C402.099 80.106 402.182 79.8936 402.246 79.6348C402.314 79.376 402.365 79.0684 402.399 78.7119C402.438 78.3555 402.468 77.9404 402.487 77.4668L402.634 74.0757ZM411.635 79.8545L415.29 74.0757H416.652V82.0005H415.29V76.2217L411.635 82.0005H410.288V74.0757H411.635V79.8545ZM424.204 77.5107V78.6094H420.014V77.5107H424.204ZM420.3 74.0757V82.0005H418.945V74.0757H420.3ZM425.302 74.0757V82.0005H423.94V74.0757H425.302ZM430.656 81.0337C430.979 81.0337 431.276 80.9678 431.55 80.8359C431.823 80.7041 432.048 80.5234 432.224 80.2939C432.399 80.0596 432.5 79.7935 432.524 79.4956H433.813C433.789 79.9644 433.63 80.4014 433.337 80.8066C433.049 81.207 432.67 81.5317 432.202 81.7808C431.733 82.0249 431.218 82.147 430.656 82.147C430.061 82.147 429.541 82.042 429.096 81.832C428.657 81.6221 428.291 81.334 427.998 80.9678C427.709 80.6016 427.492 80.1816 427.346 79.708C427.204 79.2295 427.133 78.7241 427.133 78.1919V77.8843C427.133 77.3521 427.204 76.8491 427.346 76.3755C427.492 75.897 427.709 75.4746 427.998 75.1084C428.291 74.7422 428.657 74.4541 429.096 74.2441C429.541 74.0342 430.061 73.9292 430.656 73.9292C431.276 73.9292 431.818 74.0562 432.282 74.3101C432.746 74.5591 433.11 74.9009 433.374 75.3354C433.642 75.7651 433.789 76.2534 433.813 76.8003H432.524C432.5 76.4731 432.407 76.1777 432.246 75.9141C432.089 75.6504 431.875 75.4404 431.601 75.2842C431.333 75.123 431.018 75.0425 430.656 75.0425C430.241 75.0425 429.892 75.1255 429.609 75.2915C429.331 75.4526 429.108 75.6724 428.942 75.9507C428.781 76.2241 428.664 76.5293 428.591 76.8662C428.522 77.1982 428.488 77.5376 428.488 77.8843V78.1919C428.488 78.5386 428.522 78.8804 428.591 79.2173C428.659 79.5542 428.774 79.8594 428.935 80.1328C429.101 80.4062 429.323 80.626 429.602 80.792C429.885 80.9531 430.236 81.0337 430.656 81.0337ZM436.809 74.0757V82.0005H435.454V74.0757H436.809ZM442.009 74.0757L438.251 78.6167H436.354L436.149 77.4302H437.702L440.361 74.0757H442.009ZM440.551 82.0005L437.636 78.4116L438.508 77.4302L442.272 82.0005H440.551ZM444.917 79.8545L448.571 74.0757H449.934V82.0005H448.571V76.2217L444.917 82.0005H443.569V74.0757H444.917V79.8545ZM453.574 79.8545L457.229 74.0757H458.591V82.0005H457.229V76.2217L453.574 82.0005H452.226V74.0757H453.574V79.8545ZM456.489 71.2046H457.587C457.587 71.5854 457.5 71.9248 457.324 72.2227C457.148 72.5156 456.896 72.7451 456.569 72.9111C456.242 73.0771 455.854 73.1602 455.405 73.1602C454.726 73.1602 454.189 72.9795 453.793 72.6182C453.403 72.252 453.208 71.7808 453.208 71.2046H454.306C454.306 71.4927 454.389 71.7466 454.555 71.9663C454.721 72.186 455.004 72.2959 455.405 72.2959C455.795 72.2959 456.074 72.186 456.24 71.9663C456.406 71.7466 456.489 71.4927 456.489 71.2046Z" fill="white"/>
<path d="M347.25 121.136V131.8H345.859V121.136H347.25ZM350.678 121.136V122.293H342.438V121.136H350.678ZM352.202 126.6H354.582C355.222 126.6 355.761 126.712 356.201 126.937C356.64 127.157 356.972 127.462 357.197 127.853C357.426 128.238 357.541 128.678 357.541 129.171C357.541 129.537 357.478 129.881 357.351 130.204C357.224 130.521 357.033 130.799 356.779 131.039C356.53 131.278 356.22 131.466 355.849 131.603C355.483 131.734 355.061 131.8 354.582 131.8H351.213V123.875H352.568V130.687H354.582C354.973 130.687 355.285 130.616 355.52 130.475C355.754 130.333 355.922 130.15 356.025 129.925C356.127 129.701 356.179 129.466 356.179 129.222C356.179 128.983 356.127 128.749 356.025 128.519C355.922 128.29 355.754 128.099 355.52 127.948C355.285 127.792 354.973 127.713 354.582 127.713H352.202V126.6ZM360.361 123.875V131.8H359.006V123.875H360.361ZM367.29 129.999L369.985 123.875H371.289L367.758 131.8H366.821L363.305 123.875H364.609L367.29 129.999ZM364.213 123.875V131.8H362.858V123.875H364.213ZM370.322 131.8V123.875H371.684V131.8H370.322ZM373.508 127.926V127.757C373.508 127.186 373.591 126.656 373.757 126.168C373.923 125.675 374.162 125.248 374.475 124.886C374.787 124.52 375.166 124.237 375.61 124.037C376.054 123.832 376.552 123.729 377.104 123.729C377.661 123.729 378.161 123.832 378.605 124.037C379.055 124.237 379.436 124.52 379.748 124.886C380.065 125.248 380.307 125.675 380.473 126.168C380.639 126.656 380.722 127.186 380.722 127.757V127.926C380.722 128.497 380.639 129.027 380.473 129.515C380.307 130.003 380.065 130.431 379.748 130.797C379.436 131.158 379.057 131.441 378.613 131.646C378.173 131.847 377.675 131.947 377.119 131.947C376.562 131.947 376.062 131.847 375.617 131.646C375.173 131.441 374.792 131.158 374.475 130.797C374.162 130.431 373.923 130.003 373.757 129.515C373.591 129.027 373.508 128.497 373.508 127.926ZM374.863 127.757V127.926C374.863 128.321 374.909 128.695 375.002 129.046C375.095 129.393 375.234 129.701 375.419 129.969C375.61 130.238 375.847 130.45 376.13 130.606C376.413 130.758 376.743 130.833 377.119 130.833C377.49 130.833 377.814 130.758 378.093 130.606C378.376 130.45 378.61 130.238 378.796 129.969C378.981 129.701 379.121 129.393 379.213 129.046C379.311 128.695 379.36 128.321 379.36 127.926V127.757C379.36 127.367 379.311 126.998 379.213 126.651C379.121 126.3 378.979 125.99 378.789 125.721C378.603 125.448 378.369 125.233 378.085 125.077C377.807 124.92 377.48 124.842 377.104 124.842C376.733 124.842 376.406 124.92 376.123 125.077C375.844 125.233 375.61 125.448 375.419 125.721C375.234 125.99 375.095 126.3 375.002 126.651C374.909 126.998 374.863 127.367 374.863 127.757ZM386.142 128.314H383.542L383.527 127.23H385.651C386.071 127.23 386.42 127.188 386.699 127.105C386.982 127.022 387.194 126.898 387.336 126.732C387.478 126.566 387.548 126.361 387.548 126.117C387.548 125.926 387.507 125.76 387.424 125.619C387.346 125.472 387.226 125.353 387.065 125.26C386.904 125.162 386.704 125.091 386.464 125.047C386.23 124.999 385.954 124.974 385.637 124.974H383.901V131.8H382.546V123.875H385.637C386.14 123.875 386.591 123.919 386.992 124.007C387.397 124.095 387.741 124.229 388.024 124.41C388.312 124.586 388.532 124.811 388.684 125.084C388.835 125.357 388.911 125.68 388.911 126.051C388.911 126.29 388.862 126.517 388.764 126.732C388.667 126.947 388.522 127.137 388.332 127.303C388.142 127.469 387.907 127.606 387.629 127.713C387.351 127.816 387.031 127.882 386.669 127.911L386.142 128.314ZM386.142 131.8H383.051L383.725 130.702H386.142C386.518 130.702 386.831 130.655 387.08 130.562C387.329 130.465 387.514 130.328 387.636 130.152C387.763 129.972 387.827 129.757 387.827 129.508C387.827 129.259 387.763 129.046 387.636 128.871C387.514 128.69 387.329 128.553 387.08 128.46C386.831 128.363 386.518 128.314 386.142 128.314H384.084L384.099 127.23H386.669L387.16 127.64C387.595 127.674 387.963 127.782 388.266 127.962C388.569 128.143 388.798 128.373 388.955 128.651C389.111 128.924 389.189 129.222 389.189 129.544C389.189 129.916 389.118 130.243 388.977 130.526C388.84 130.809 388.64 131.046 388.376 131.236C388.112 131.422 387.792 131.563 387.417 131.661C387.041 131.754 386.616 131.8 386.142 131.8ZM394.177 130.833C394.499 130.833 394.797 130.768 395.07 130.636C395.344 130.504 395.568 130.323 395.744 130.094C395.92 129.859 396.02 129.593 396.044 129.295H397.333C397.309 129.764 397.15 130.201 396.857 130.606C396.569 131.007 396.191 131.332 395.722 131.581C395.253 131.825 394.738 131.947 394.177 131.947C393.581 131.947 393.061 131.842 392.617 131.632C392.177 131.422 391.811 131.134 391.518 130.768C391.23 130.401 391.013 129.981 390.866 129.508C390.725 129.029 390.654 128.524 390.654 127.992V127.684C390.654 127.152 390.725 126.649 390.866 126.175C391.013 125.697 391.23 125.274 391.518 124.908C391.811 124.542 392.177 124.254 392.617 124.044C393.061 123.834 393.581 123.729 394.177 123.729C394.797 123.729 395.339 123.856 395.803 124.11C396.267 124.359 396.63 124.701 396.894 125.135C397.163 125.565 397.309 126.053 397.333 126.6H396.044C396.02 126.273 395.927 125.978 395.766 125.714C395.61 125.45 395.395 125.24 395.122 125.084C394.853 124.923 394.538 124.842 394.177 124.842C393.762 124.842 393.413 124.925 393.129 125.091C392.851 125.252 392.629 125.472 392.463 125.75C392.302 126.024 392.185 126.329 392.111 126.666C392.043 126.998 392.009 127.337 392.009 127.684V127.992C392.009 128.338 392.043 128.68 392.111 129.017C392.18 129.354 392.294 129.659 392.456 129.933C392.622 130.206 392.844 130.426 393.122 130.592C393.405 130.753 393.757 130.833 394.177 130.833ZM400.329 123.875V131.8H398.974V123.875H400.329ZM405.529 123.875L401.772 128.417H399.875L399.67 127.23H401.223L403.881 123.875H405.529ZM404.072 131.8L401.157 128.211L402.028 127.23L405.793 131.8H404.072ZM406.452 127.926V127.757C406.452 127.186 406.535 126.656 406.701 126.168C406.867 125.675 407.106 125.248 407.419 124.886C407.731 124.52 408.11 124.237 408.554 124.037C408.999 123.832 409.497 123.729 410.048 123.729C410.605 123.729 411.105 123.832 411.55 124.037C411.999 124.237 412.38 124.52 412.692 124.886C413.01 125.248 413.251 125.675 413.417 126.168C413.583 126.656 413.667 127.186 413.667 127.757V127.926C413.667 128.497 413.583 129.027 413.417 129.515C413.251 130.003 413.01 130.431 412.692 130.797C412.38 131.158 412.001 131.441 411.557 131.646C411.118 131.847 410.62 131.947 410.063 131.947C409.506 131.947 409.006 131.847 408.562 131.646C408.117 131.441 407.736 131.158 407.419 130.797C407.106 130.431 406.867 130.003 406.701 129.515C406.535 129.027 406.452 128.497 406.452 127.926ZM407.807 127.757V127.926C407.807 128.321 407.854 128.695 407.946 129.046C408.039 129.393 408.178 129.701 408.364 129.969C408.554 130.238 408.791 130.45 409.074 130.606C409.357 130.758 409.687 130.833 410.063 130.833C410.434 130.833 410.759 130.758 411.037 130.606C411.32 130.45 411.555 130.238 411.74 129.969C411.926 129.701 412.065 129.393 412.158 129.046C412.255 128.695 412.304 128.321 412.304 127.926V127.757C412.304 127.367 412.255 126.998 412.158 126.651C412.065 126.3 411.923 125.99 411.733 125.721C411.547 125.448 411.313 125.233 411.03 125.077C410.751 124.92 410.424 124.842 410.048 124.842C409.677 124.842 409.35 124.92 409.067 125.077C408.789 125.233 408.554 125.448 408.364 125.721C408.178 125.99 408.039 126.3 407.946 126.651C407.854 126.998 407.807 127.367 407.807 127.757ZM418.654 131.947C418.103 131.947 417.602 131.854 417.153 131.668C416.708 131.478 416.325 131.212 416.003 130.87C415.686 130.528 415.441 130.123 415.271 129.654C415.1 129.186 415.014 128.673 415.014 128.116V127.809C415.014 127.164 415.109 126.59 415.3 126.087C415.49 125.58 415.749 125.15 416.076 124.798C416.403 124.447 416.774 124.181 417.189 124C417.604 123.819 418.034 123.729 418.479 123.729C419.045 123.729 419.533 123.827 419.943 124.022C420.358 124.217 420.698 124.491 420.961 124.842C421.225 125.189 421.42 125.599 421.547 126.073C421.674 126.542 421.738 127.054 421.738 127.611V128.219H415.82V127.113H420.383V127.01C420.363 126.659 420.29 126.317 420.163 125.985C420.041 125.653 419.846 125.379 419.577 125.165C419.309 124.95 418.942 124.842 418.479 124.842C418.171 124.842 417.888 124.908 417.629 125.04C417.37 125.167 417.148 125.357 416.962 125.611C416.777 125.865 416.633 126.175 416.53 126.542C416.428 126.908 416.376 127.33 416.376 127.809V128.116C416.376 128.492 416.428 128.846 416.53 129.178C416.638 129.505 416.792 129.793 416.992 130.042C417.197 130.292 417.443 130.487 417.731 130.628C418.024 130.77 418.356 130.841 418.728 130.841C419.206 130.841 419.611 130.743 419.943 130.548C420.275 130.353 420.566 130.091 420.815 129.764L421.635 130.416C421.464 130.675 421.247 130.921 420.983 131.156C420.72 131.39 420.395 131.581 420.009 131.727C419.628 131.874 419.177 131.947 418.654 131.947Z" fill="white"/>
<path d="M211.676 156.609H213.082C213.009 157.283 212.816 157.886 212.503 158.418C212.191 158.95 211.749 159.373 211.178 159.685C210.606 159.993 209.894 160.146 209.039 160.146C208.414 160.146 207.845 160.029 207.333 159.795C206.825 159.561 206.388 159.229 206.021 158.799C205.655 158.364 205.372 157.844 205.172 157.239C204.977 156.628 204.879 155.95 204.879 155.203V154.141C204.879 153.394 204.977 152.717 205.172 152.112C205.372 151.501 205.658 150.979 206.029 150.544C206.405 150.11 206.856 149.775 207.384 149.541C207.911 149.307 208.504 149.189 209.164 149.189C209.969 149.189 210.65 149.341 211.207 149.644C211.764 149.946 212.196 150.366 212.503 150.903C212.816 151.436 213.009 152.053 213.082 152.756H211.676C211.607 152.258 211.48 151.831 211.295 151.475C211.109 151.113 210.846 150.835 210.504 150.64C210.162 150.444 209.715 150.347 209.164 150.347C208.69 150.347 208.272 150.437 207.911 150.618C207.555 150.798 207.254 151.055 207.01 151.387C206.771 151.719 206.59 152.117 206.468 152.581C206.346 153.044 206.285 153.56 206.285 154.126V155.203C206.285 155.725 206.339 156.216 206.446 156.675C206.559 157.134 206.727 157.537 206.952 157.883C207.176 158.23 207.462 158.503 207.809 158.704C208.155 158.899 208.565 158.997 209.039 158.997C209.64 158.997 210.118 158.901 210.475 158.711C210.831 158.521 211.1 158.247 211.28 157.891C211.466 157.534 211.598 157.107 211.676 156.609ZM219.359 158.198L222.054 152.075H223.358L219.828 160H218.89L215.375 152.075H216.678L219.359 158.198ZM216.283 152.075V160H214.928V152.075H216.283ZM222.391 160V152.075H223.753V160H222.391ZM227.401 157.854L231.056 152.075H232.418V160H231.056V154.221L227.401 160H226.053V152.075H227.401V157.854ZM235.948 153.599V163.047H234.586V152.075H235.831L235.948 153.599ZM241.288 155.972V156.125C241.288 156.702 241.219 157.236 241.083 157.729C240.946 158.218 240.746 158.643 240.482 159.004C240.223 159.365 239.903 159.646 239.522 159.846C239.142 160.046 238.705 160.146 238.211 160.146C237.708 160.146 237.264 160.063 236.878 159.897C236.493 159.731 236.166 159.49 235.897 159.172C235.628 158.855 235.414 158.474 235.252 158.03C235.096 157.585 234.989 157.085 234.93 156.528V155.708C234.989 155.122 235.099 154.597 235.26 154.133C235.421 153.669 235.633 153.274 235.897 152.947C236.166 152.615 236.49 152.363 236.871 152.192C237.252 152.017 237.691 151.929 238.189 151.929C238.688 151.929 239.129 152.026 239.515 152.222C239.901 152.412 240.226 152.686 240.489 153.042C240.753 153.398 240.951 153.826 241.083 154.324C241.219 154.817 241.288 155.366 241.288 155.972ZM239.925 156.125V155.972C239.925 155.576 239.884 155.205 239.801 154.858C239.718 154.507 239.588 154.199 239.413 153.936C239.242 153.667 239.022 153.457 238.753 153.306C238.485 153.149 238.165 153.071 237.794 153.071C237.452 153.071 237.154 153.13 236.9 153.247C236.651 153.364 236.439 153.523 236.263 153.723C236.087 153.918 235.943 154.143 235.831 154.397C235.724 154.646 235.643 154.905 235.589 155.173V157.07C235.687 157.412 235.824 157.734 236 158.037C236.175 158.335 236.41 158.577 236.703 158.762C236.996 158.943 237.364 159.033 237.809 159.033C238.175 159.033 238.49 158.958 238.753 158.806C239.022 158.65 239.242 158.438 239.413 158.169C239.588 157.9 239.718 157.593 239.801 157.246C239.884 156.895 239.925 156.521 239.925 156.125ZM248.392 155.51V156.609H244.203V155.51H248.392ZM244.488 152.075V160H243.133V152.075H244.488ZM249.491 152.075V160H248.128V152.075H249.491ZM252.787 154.8H255.167C255.807 154.8 256.346 154.912 256.786 155.137C257.225 155.356 257.557 155.662 257.782 156.052C258.011 156.438 258.126 156.877 258.126 157.371C258.126 157.737 258.062 158.081 257.936 158.403C257.809 158.721 257.618 158.999 257.364 159.238C257.115 159.478 256.805 159.666 256.434 159.802C256.068 159.934 255.646 160 255.167 160H251.798V152.075H253.153V158.887H255.167C255.558 158.887 255.87 158.816 256.104 158.674C256.339 158.533 256.507 158.35 256.61 158.125C256.712 157.9 256.764 157.666 256.764 157.422C256.764 157.183 256.712 156.948 256.61 156.719C256.507 156.489 256.339 156.299 256.104 156.147C255.87 155.991 255.558 155.913 255.167 155.913H252.787V154.8ZM260.946 152.075V160H259.591V152.075H260.946ZM264.234 152.075L265.97 154.961L267.728 152.075H269.317L266.725 155.986L269.398 160H267.831L266 157.026L264.168 160H262.594L265.26 155.986L262.674 152.075H264.234Z" fill="white"/>
<path d="M213.382 202.336V213H211.976V203.493H206.717V213H205.304V202.336H213.382ZM215.382 209.125V208.957C215.382 208.386 215.465 207.856 215.631 207.368C215.797 206.875 216.036 206.447 216.349 206.086C216.661 205.72 217.04 205.437 217.484 205.236C217.928 205.031 218.426 204.929 218.978 204.929C219.535 204.929 220.035 205.031 220.479 205.236C220.929 205.437 221.31 205.72 221.622 206.086C221.939 206.447 222.181 206.875 222.347 207.368C222.513 207.856 222.596 208.386 222.596 208.957V209.125C222.596 209.697 222.513 210.227 222.347 210.715C222.181 211.203 221.939 211.63 221.622 211.997C221.31 212.358 220.931 212.641 220.487 212.846C220.047 213.046 219.549 213.146 218.993 213.146C218.436 213.146 217.936 213.046 217.491 212.846C217.047 212.641 216.666 212.358 216.349 211.997C216.036 211.63 215.797 211.203 215.631 210.715C215.465 210.227 215.382 209.697 215.382 209.125ZM216.737 208.957V209.125C216.737 209.521 216.783 209.895 216.876 210.246C216.969 210.593 217.108 210.9 217.293 211.169C217.484 211.438 217.721 211.65 218.004 211.806C218.287 211.958 218.617 212.033 218.993 212.033C219.364 212.033 219.688 211.958 219.967 211.806C220.25 211.65 220.484 211.438 220.67 211.169C220.855 210.9 220.995 210.593 221.087 210.246C221.185 209.895 221.234 209.521 221.234 209.125V208.957C221.234 208.566 221.185 208.198 221.087 207.851C220.995 207.5 220.853 207.189 220.663 206.921C220.477 206.647 220.243 206.433 219.959 206.276C219.681 206.12 219.354 206.042 218.978 206.042C218.607 206.042 218.28 206.12 217.997 206.276C217.718 206.433 217.484 206.647 217.293 206.921C217.108 207.189 216.969 207.5 216.876 207.851C216.783 208.198 216.737 208.566 216.737 208.957ZM225.65 206.599V216.047H224.288V205.075H225.533L225.65 206.599ZM230.99 208.972V209.125C230.99 209.702 230.921 210.236 230.785 210.729C230.648 211.218 230.448 211.643 230.184 212.004C229.925 212.365 229.605 212.646 229.225 212.846C228.844 213.046 228.407 213.146 227.914 213.146C227.411 213.146 226.966 213.063 226.581 212.897C226.195 212.731 225.868 212.49 225.599 212.172C225.331 211.855 225.116 211.474 224.955 211.03C224.798 210.585 224.691 210.085 224.632 209.528V208.708C224.691 208.122 224.801 207.597 224.962 207.133C225.123 206.669 225.335 206.274 225.599 205.947C225.868 205.615 226.192 205.363 226.573 205.192C226.954 205.017 227.394 204.929 227.892 204.929C228.39 204.929 228.832 205.026 229.217 205.222C229.603 205.412 229.928 205.686 230.191 206.042C230.455 206.398 230.653 206.826 230.785 207.324C230.921 207.817 230.99 208.366 230.99 208.972ZM229.627 209.125V208.972C229.627 208.576 229.586 208.205 229.503 207.858C229.42 207.507 229.291 207.199 229.115 206.936C228.944 206.667 228.724 206.457 228.456 206.306C228.187 206.149 227.867 206.071 227.496 206.071C227.154 206.071 226.856 206.13 226.603 206.247C226.354 206.364 226.141 206.523 225.965 206.723C225.79 206.918 225.646 207.143 225.533 207.397C225.426 207.646 225.345 207.905 225.292 208.173V210.07C225.389 210.412 225.526 210.734 225.702 211.037C225.877 211.335 226.112 211.577 226.405 211.762C226.698 211.943 227.066 212.033 227.511 212.033C227.877 212.033 228.192 211.958 228.456 211.806C228.724 211.65 228.944 211.438 229.115 211.169C229.291 210.9 229.42 210.593 229.503 210.246C229.586 209.895 229.627 209.521 229.627 209.125ZM232.359 209.125V208.957C232.359 208.386 232.442 207.856 232.608 207.368C232.774 206.875 233.014 206.447 233.326 206.086C233.639 205.72 234.017 205.437 234.461 205.236C234.906 205.031 235.404 204.929 235.956 204.929C236.512 204.929 237.013 205.031 237.457 205.236C237.906 205.437 238.287 205.72 238.6 206.086C238.917 206.447 239.159 206.875 239.325 207.368C239.491 207.856 239.574 208.386 239.574 208.957V209.125C239.574 209.697 239.491 210.227 239.325 210.715C239.159 211.203 238.917 211.63 238.6 211.997C238.287 212.358 237.909 212.641 237.464 212.846C237.025 213.046 236.527 213.146 235.97 213.146C235.414 213.146 234.913 213.046 234.469 212.846C234.024 212.641 233.644 212.358 233.326 211.997C233.014 211.63 232.774 211.203 232.608 210.715C232.442 210.227 232.359 209.697 232.359 209.125ZM233.714 208.957V209.125C233.714 209.521 233.761 209.895 233.854 210.246C233.946 210.593 234.085 210.9 234.271 211.169C234.461 211.438 234.698 211.65 234.981 211.806C235.265 211.958 235.594 212.033 235.97 212.033C236.341 212.033 236.666 211.958 236.944 211.806C237.228 211.65 237.462 211.438 237.647 211.169C237.833 210.9 237.972 210.593 238.065 210.246C238.163 209.895 238.211 209.521 238.211 209.125V208.957C238.211 208.566 238.163 208.198 238.065 207.851C237.972 207.5 237.831 207.189 237.64 206.921C237.455 206.647 237.22 206.433 236.937 206.276C236.659 206.12 236.332 206.042 235.956 206.042C235.584 206.042 235.257 206.12 234.974 206.276C234.696 206.433 234.461 206.647 234.271 206.921C234.085 207.189 233.946 207.5 233.854 207.851C233.761 208.198 233.714 208.566 233.714 208.957ZM246.649 208.51V209.609H242.459V208.51H246.649ZM242.745 205.075V213H241.39V205.075H242.745ZM247.748 205.075V213H246.385V205.075H247.748ZM254.603 211.645V207.565C254.603 207.253 254.54 206.982 254.413 206.752C254.291 206.518 254.105 206.337 253.856 206.21C253.607 206.083 253.299 206.02 252.933 206.02C252.591 206.02 252.291 206.079 252.032 206.196C251.778 206.313 251.578 206.467 251.432 206.657C251.29 206.848 251.219 207.053 251.219 207.272H249.864C249.864 206.989 249.938 206.708 250.084 206.43C250.23 206.152 250.44 205.9 250.714 205.676C250.992 205.446 251.324 205.266 251.71 205.134C252.101 204.997 252.535 204.929 253.014 204.929C253.59 204.929 254.098 205.026 254.537 205.222C254.981 205.417 255.328 205.712 255.577 206.108C255.831 206.499 255.958 206.989 255.958 207.58V211.271C255.958 211.535 255.98 211.816 256.024 212.114C256.073 212.412 256.144 212.668 256.236 212.883V213H254.823C254.754 212.844 254.701 212.636 254.662 212.377C254.623 212.114 254.603 211.87 254.603 211.645ZM254.837 208.195L254.852 209.147H253.482C253.097 209.147 252.752 209.179 252.45 209.243C252.147 209.301 251.893 209.392 251.688 209.514C251.483 209.636 251.327 209.79 251.219 209.975C251.112 210.156 251.058 210.368 251.058 210.612C251.058 210.861 251.114 211.088 251.227 211.293C251.339 211.499 251.507 211.662 251.732 211.784C251.961 211.901 252.242 211.96 252.574 211.96C252.989 211.96 253.355 211.872 253.673 211.696C253.99 211.521 254.242 211.306 254.427 211.052C254.618 210.798 254.72 210.551 254.735 210.312L255.313 210.964C255.279 211.169 255.187 211.396 255.035 211.645C254.884 211.894 254.681 212.133 254.427 212.363C254.178 212.587 253.88 212.775 253.534 212.927C253.192 213.073 252.806 213.146 252.376 213.146C251.839 213.146 251.368 213.042 250.963 212.832C250.562 212.622 250.25 212.341 250.025 211.989C249.806 211.633 249.696 211.235 249.696 210.795C249.696 210.371 249.779 209.997 249.945 209.675C250.111 209.348 250.35 209.077 250.663 208.862C250.975 208.642 251.351 208.476 251.791 208.364C252.23 208.251 252.721 208.195 253.263 208.195H254.837ZM259.554 210.854L263.209 205.075H264.571V213H263.209V207.221L259.554 213H258.207V205.075H259.554V210.854ZM262.469 202.204H263.568C263.568 202.585 263.48 202.924 263.304 203.222C263.128 203.515 262.877 203.745 262.55 203.911C262.223 204.077 261.834 204.16 261.385 204.16C260.707 204.16 260.169 203.979 259.774 203.618C259.383 203.251 259.188 202.78 259.188 202.204H260.287C260.287 202.492 260.37 202.746 260.536 202.966C260.702 203.186 260.985 203.295 261.385 203.295C261.776 203.295 262.054 203.186 262.22 202.966C262.386 202.746 262.469 202.492 262.469 202.204ZM269.918 212.033C270.24 212.033 270.538 211.967 270.812 211.835C271.085 211.704 271.31 211.523 271.485 211.293C271.661 211.059 271.761 210.793 271.786 210.495H273.075C273.05 210.964 272.892 211.401 272.599 211.806C272.311 212.207 271.932 212.531 271.463 212.78C270.995 213.024 270.479 213.146 269.918 213.146C269.322 213.146 268.802 213.042 268.358 212.832C267.918 212.622 267.552 212.333 267.259 211.967C266.971 211.601 266.754 211.181 266.607 210.708C266.466 210.229 266.395 209.724 266.395 209.191V208.884C266.395 208.352 266.466 207.849 266.607 207.375C266.754 206.896 266.971 206.474 267.259 206.108C267.552 205.742 267.918 205.454 268.358 205.244C268.802 205.034 269.322 204.929 269.918 204.929C270.538 204.929 271.08 205.056 271.544 205.31C272.008 205.559 272.372 205.9 272.635 206.335C272.904 206.765 273.05 207.253 273.075 207.8H271.786C271.761 207.473 271.668 207.177 271.507 206.914C271.351 206.65 271.136 206.44 270.863 206.284C270.594 206.123 270.279 206.042 269.918 206.042C269.503 206.042 269.154 206.125 268.871 206.291C268.592 206.452 268.37 206.672 268.204 206.95C268.043 207.224 267.926 207.529 267.853 207.866C267.784 208.198 267.75 208.537 267.75 208.884V209.191C267.75 209.538 267.784 209.88 267.853 210.217C267.921 210.554 268.036 210.859 268.197 211.132C268.363 211.406 268.585 211.625 268.863 211.792C269.146 211.953 269.498 212.033 269.918 212.033ZM276.07 205.075V213H274.715V205.075H276.07ZM281.271 205.075L277.513 209.616H275.616L275.411 208.43H276.964L279.623 205.075H281.271ZM279.813 213L276.898 209.411L277.77 208.43L281.534 213H279.813Z" fill="white"/>
<path d="M145.685 170.336H147.054L150.548 179.03L154.034 170.336H155.411L151.075 181H150.006L145.685 170.336ZM145.238 170.336H146.446L146.644 176.84V181H145.238V170.336ZM154.642 170.336H155.851V181H154.444V176.84L154.642 170.336ZM162.801 179.645V175.565C162.801 175.253 162.738 174.982 162.611 174.752C162.489 174.518 162.303 174.337 162.054 174.21C161.805 174.083 161.498 174.02 161.131 174.02C160.79 174.02 160.489 174.079 160.23 174.196C159.977 174.313 159.776 174.467 159.63 174.657C159.488 174.848 159.417 175.053 159.417 175.272H158.062C158.062 174.989 158.136 174.708 158.282 174.43C158.429 174.152 158.639 173.9 158.912 173.676C159.19 173.446 159.522 173.266 159.908 173.134C160.299 172.997 160.733 172.929 161.212 172.929C161.788 172.929 162.296 173.026 162.735 173.222C163.18 173.417 163.526 173.712 163.775 174.108C164.029 174.499 164.156 174.989 164.156 175.58V179.271C164.156 179.535 164.178 179.816 164.222 180.114C164.271 180.412 164.342 180.668 164.435 180.883V181H163.021C162.953 180.844 162.899 180.636 162.86 180.377C162.821 180.114 162.801 179.87 162.801 179.645ZM163.036 176.195L163.05 177.147H161.681C161.295 177.147 160.951 177.179 160.648 177.243C160.345 177.301 160.091 177.392 159.886 177.514C159.681 177.636 159.525 177.79 159.417 177.975C159.31 178.156 159.256 178.368 159.256 178.612C159.256 178.861 159.312 179.088 159.425 179.293C159.537 179.499 159.706 179.662 159.93 179.784C160.16 179.901 160.44 179.96 160.772 179.96C161.188 179.96 161.554 179.872 161.871 179.696C162.188 179.521 162.44 179.306 162.625 179.052C162.816 178.798 162.918 178.551 162.933 178.312L163.512 178.964C163.478 179.169 163.385 179.396 163.233 179.645C163.082 179.894 162.879 180.133 162.625 180.363C162.376 180.587 162.079 180.775 161.732 180.927C161.39 181.073 161.004 181.146 160.575 181.146C160.038 181.146 159.566 181.042 159.161 180.832C158.761 180.622 158.448 180.341 158.224 179.989C158.004 179.633 157.894 179.235 157.894 178.795C157.894 178.371 157.977 177.997 158.143 177.675C158.309 177.348 158.548 177.077 158.861 176.862C159.173 176.642 159.549 176.476 159.989 176.364C160.428 176.251 160.919 176.195 161.461 176.195H163.036ZM167.76 173.075V181H166.405V173.075H167.76ZM172.96 173.075L169.203 177.616H167.306L167.101 176.43H168.653L171.312 173.075H172.96ZM171.502 181L168.587 177.411L169.459 176.43L173.224 181H171.502ZM179.076 179.645V175.565C179.076 175.253 179.012 174.982 178.885 174.752C178.763 174.518 178.578 174.337 178.329 174.21C178.08 174.083 177.772 174.02 177.406 174.02C177.064 174.02 176.764 174.079 176.505 174.196C176.251 174.313 176.051 174.467 175.904 174.657C175.763 174.848 175.692 175.053 175.692 175.272H174.337C174.337 174.989 174.41 174.708 174.557 174.43C174.703 174.152 174.913 173.9 175.187 173.676C175.465 173.446 175.797 173.266 176.183 173.134C176.573 172.997 177.008 172.929 177.486 172.929C178.062 172.929 178.57 173.026 179.01 173.222C179.454 173.417 179.801 173.712 180.05 174.108C180.304 174.499 180.431 174.989 180.431 175.58V179.271C180.431 179.535 180.453 179.816 180.497 180.114C180.545 180.412 180.616 180.668 180.709 180.883V181H179.295C179.227 180.844 179.173 180.636 179.134 180.377C179.095 180.114 179.076 179.87 179.076 179.645ZM179.31 176.195L179.325 177.147H177.955C177.569 177.147 177.225 177.179 176.922 177.243C176.62 177.301 176.366 177.392 176.161 177.514C175.956 177.636 175.799 177.79 175.692 177.975C175.584 178.156 175.531 178.368 175.531 178.612C175.531 178.861 175.587 179.088 175.699 179.293C175.812 179.499 175.98 179.662 176.205 179.784C176.434 179.901 176.715 179.96 177.047 179.96C177.462 179.96 177.828 179.872 178.146 179.696C178.463 179.521 178.714 179.306 178.9 179.052C179.09 178.798 179.193 178.551 179.208 178.312L179.786 178.964C179.752 179.169 179.659 179.396 179.508 179.645C179.356 179.894 179.154 180.133 178.9 180.363C178.651 180.587 178.353 180.775 178.006 180.927C177.665 181.073 177.279 181.146 176.849 181.146C176.312 181.146 175.841 181.042 175.436 180.832C175.035 180.622 174.723 180.341 174.498 179.989C174.278 179.633 174.168 179.235 174.168 178.795C174.168 178.371 174.251 177.997 174.417 177.675C174.583 177.348 174.823 177.077 175.135 176.862C175.448 176.642 175.824 176.476 176.263 176.364C176.703 176.251 177.193 176.195 177.735 176.195H179.31ZM183.917 174.599V184.047H182.555V173.075H183.8L183.917 174.599ZM189.256 176.972V177.125C189.256 177.702 189.188 178.236 189.051 178.729C188.915 179.218 188.714 179.643 188.451 180.004C188.192 180.365 187.872 180.646 187.491 180.846C187.11 181.046 186.673 181.146 186.18 181.146C185.677 181.146 185.233 181.063 184.847 180.897C184.461 180.731 184.134 180.49 183.866 180.172C183.597 179.855 183.382 179.474 183.221 179.03C183.065 178.585 182.958 178.085 182.899 177.528V176.708C182.958 176.122 183.067 175.597 183.229 175.133C183.39 174.669 183.602 174.274 183.866 173.947C184.134 173.615 184.459 173.363 184.84 173.192C185.221 173.017 185.66 172.929 186.158 172.929C186.656 172.929 187.098 173.026 187.484 173.222C187.87 173.412 188.194 173.686 188.458 174.042C188.722 174.398 188.919 174.826 189.051 175.324C189.188 175.817 189.256 176.366 189.256 176.972ZM187.894 177.125V176.972C187.894 176.576 187.853 176.205 187.77 175.858C187.687 175.507 187.557 175.199 187.381 174.936C187.21 174.667 186.991 174.457 186.722 174.306C186.454 174.149 186.134 174.071 185.763 174.071C185.421 174.071 185.123 174.13 184.869 174.247C184.62 174.364 184.408 174.523 184.232 174.723C184.056 174.918 183.912 175.143 183.8 175.397C183.692 175.646 183.612 175.905 183.558 176.173V178.07C183.656 178.412 183.792 178.734 183.968 179.037C184.144 179.335 184.378 179.577 184.671 179.762C184.964 179.943 185.333 180.033 185.777 180.033C186.144 180.033 186.458 179.958 186.722 179.806C186.991 179.65 187.21 179.438 187.381 179.169C187.557 178.9 187.687 178.593 187.77 178.246C187.853 177.895 187.894 177.521 187.894 177.125ZM190.626 177.125V176.957C190.626 176.386 190.709 175.856 190.875 175.368C191.041 174.875 191.28 174.447 191.593 174.086C191.905 173.72 192.284 173.437 192.728 173.236C193.172 173.031 193.67 172.929 194.222 172.929C194.779 172.929 195.279 173.031 195.724 173.236C196.173 173.437 196.554 173.72 196.866 174.086C197.184 174.447 197.425 174.875 197.591 175.368C197.757 175.856 197.84 176.386 197.84 176.957V177.125C197.84 177.697 197.757 178.227 197.591 178.715C197.425 179.203 197.184 179.63 196.866 179.997C196.554 180.358 196.175 180.641 195.731 180.846C195.292 181.046 194.793 181.146 194.237 181.146C193.68 181.146 193.18 181.046 192.735 180.846C192.291 180.641 191.91 180.358 191.593 179.997C191.28 179.63 191.041 179.203 190.875 178.715C190.709 178.227 190.626 177.697 190.626 177.125ZM191.981 176.957V177.125C191.981 177.521 192.027 177.895 192.12 178.246C192.213 178.593 192.352 178.9 192.538 179.169C192.728 179.438 192.965 179.65 193.248 179.806C193.531 179.958 193.861 180.033 194.237 180.033C194.608 180.033 194.933 179.958 195.211 179.806C195.494 179.65 195.729 179.438 195.914 179.169C196.1 178.9 196.239 178.593 196.332 178.246C196.429 177.895 196.478 177.521 196.478 177.125V176.957C196.478 176.566 196.429 176.198 196.332 175.851C196.239 175.5 196.097 175.189 195.907 174.921C195.721 174.647 195.487 174.433 195.204 174.276C194.925 174.12 194.598 174.042 194.222 174.042C193.851 174.042 193.524 174.12 193.241 174.276C192.962 174.433 192.728 174.647 192.538 174.921C192.352 175.189 192.213 175.5 192.12 175.851C192.027 176.198 191.981 176.566 191.981 176.957ZM203.26 177.514H200.66L200.646 176.43H202.77C203.189 176.43 203.539 176.388 203.817 176.305C204.1 176.222 204.312 176.098 204.454 175.932C204.596 175.766 204.667 175.561 204.667 175.316C204.667 175.126 204.625 174.96 204.542 174.818C204.464 174.672 204.344 174.552 204.183 174.459C204.022 174.362 203.822 174.291 203.583 174.247C203.348 174.198 203.072 174.174 202.755 174.174H201.019V181H199.664V173.075H202.755C203.258 173.075 203.709 173.119 204.11 173.207C204.515 173.295 204.859 173.429 205.143 173.61C205.431 173.786 205.65 174.01 205.802 174.284C205.953 174.557 206.029 174.879 206.029 175.25C206.029 175.49 205.98 175.717 205.882 175.932C205.785 176.146 205.641 176.337 205.45 176.503C205.26 176.669 205.025 176.806 204.747 176.913C204.469 177.016 204.149 177.082 203.788 177.111L203.26 177.514ZM203.26 181H200.169L200.843 179.901H203.26C203.636 179.901 203.949 179.855 204.198 179.762C204.447 179.665 204.632 179.528 204.754 179.352C204.881 179.171 204.945 178.957 204.945 178.708C204.945 178.458 204.881 178.246 204.754 178.07C204.632 177.89 204.447 177.753 204.198 177.66C203.949 177.562 203.636 177.514 203.26 177.514H201.202L201.217 176.43H203.788L204.278 176.84C204.713 176.874 205.082 176.981 205.384 177.162C205.687 177.343 205.917 177.572 206.073 177.851C206.229 178.124 206.307 178.422 206.307 178.744C206.307 179.115 206.236 179.442 206.095 179.726C205.958 180.009 205.758 180.246 205.494 180.436C205.23 180.622 204.911 180.763 204.535 180.861C204.159 180.954 203.734 181 203.26 181Z" fill="white"/>
<path d="M131.039 222.012H128.336L128.322 220.877H130.775C131.181 220.877 131.535 220.809 131.837 220.672C132.14 220.535 132.375 220.34 132.541 220.086C132.711 219.827 132.797 219.52 132.797 219.163C132.797 218.772 132.721 218.455 132.57 218.211C132.423 217.962 132.196 217.781 131.889 217.669C131.586 217.552 131.2 217.493 130.731 217.493H128.651V227H127.238V216.336H130.731C131.278 216.336 131.767 216.392 132.196 216.504C132.626 216.612 132.99 216.783 133.288 217.017C133.59 217.247 133.82 217.54 133.976 217.896C134.132 218.252 134.21 218.68 134.21 219.178C134.21 219.617 134.098 220.015 133.874 220.372C133.649 220.723 133.336 221.011 132.936 221.236C132.541 221.46 132.077 221.604 131.544 221.668L131.039 222.012ZM130.973 227H127.78L128.578 225.85H130.973C131.422 225.85 131.803 225.772 132.116 225.616C132.433 225.459 132.675 225.24 132.841 224.957C133.007 224.668 133.09 224.329 133.09 223.938C133.09 223.543 133.019 223.201 132.877 222.913C132.736 222.625 132.514 222.403 132.211 222.247C131.908 222.09 131.518 222.012 131.039 222.012H129.025L129.04 220.877H131.793L132.094 221.287C132.606 221.331 133.041 221.478 133.397 221.727C133.754 221.971 134.025 222.283 134.21 222.664C134.401 223.045 134.496 223.465 134.496 223.924C134.496 224.588 134.35 225.149 134.057 225.608C133.769 226.062 133.361 226.409 132.833 226.648C132.306 226.883 131.686 227 130.973 227ZM139.337 223.213H137.88V222.378H139.228C139.604 222.378 139.901 222.332 140.121 222.239C140.341 222.142 140.497 222.007 140.59 221.836C140.683 221.666 140.729 221.465 140.729 221.236C140.729 221.031 140.675 220.838 140.568 220.657C140.465 220.472 140.299 220.323 140.07 220.21C139.84 220.093 139.533 220.035 139.147 220.035C138.834 220.035 138.551 220.091 138.297 220.203C138.043 220.311 137.841 220.459 137.689 220.65C137.543 220.835 137.47 221.045 137.47 221.28H136.115C136.115 220.796 136.251 220.381 136.525 220.035C136.803 219.683 137.172 219.412 137.631 219.222C138.095 219.031 138.6 218.936 139.147 218.936C139.606 218.936 140.016 218.987 140.377 219.09C140.744 219.188 141.054 219.334 141.308 219.529C141.562 219.72 141.754 219.959 141.886 220.247C142.023 220.53 142.091 220.86 142.091 221.236C142.091 221.504 142.028 221.758 141.901 221.998C141.774 222.237 141.591 222.449 141.352 222.635C141.112 222.815 140.822 222.957 140.48 223.06C140.143 223.162 139.762 223.213 139.337 223.213ZM137.88 222.701H139.337C139.811 222.701 140.229 222.747 140.59 222.84C140.951 222.928 141.254 223.06 141.498 223.235C141.742 223.411 141.925 223.628 142.047 223.887C142.174 224.141 142.238 224.434 142.238 224.766C142.238 225.137 142.162 225.472 142.011 225.77C141.864 226.062 141.654 226.312 141.381 226.517C141.107 226.722 140.78 226.878 140.399 226.985C140.023 227.093 139.606 227.146 139.147 227.146C138.634 227.146 138.136 227.059 137.653 226.883C137.169 226.707 136.771 226.436 136.459 226.07C136.146 225.699 135.99 225.228 135.99 224.656H137.345C137.345 224.896 137.421 225.123 137.572 225.337C137.724 225.552 137.934 225.726 138.202 225.857C138.476 225.989 138.791 226.055 139.147 226.055C139.528 226.055 139.845 225.997 140.099 225.879C140.353 225.762 140.543 225.606 140.67 225.411C140.802 225.215 140.868 225.003 140.868 224.773C140.868 224.476 140.81 224.236 140.692 224.056C140.575 223.875 140.395 223.743 140.15 223.66C139.911 223.572 139.604 223.528 139.228 223.528H137.88V222.701ZM148.551 225.198L151.247 219.075H152.55L149.02 227H148.083L144.567 219.075H145.871L148.551 225.198ZM145.475 219.075V227H144.12V219.075H145.475ZM151.583 227V219.075H152.946V227H151.583ZM154.77 223.125V222.957C154.77 222.386 154.853 221.856 155.019 221.368C155.185 220.875 155.424 220.447 155.736 220.086C156.049 219.72 156.427 219.437 156.872 219.236C157.316 219.031 157.814 218.929 158.366 218.929C158.922 218.929 159.423 219.031 159.867 219.236C160.316 219.437 160.697 219.72 161.01 220.086C161.327 220.447 161.569 220.875 161.735 221.368C161.901 221.856 161.984 222.386 161.984 222.957V223.125C161.984 223.697 161.901 224.227 161.735 224.715C161.569 225.203 161.327 225.63 161.01 225.997C160.697 226.358 160.319 226.641 159.875 226.846C159.435 227.046 158.937 227.146 158.38 227.146C157.824 227.146 157.323 227.046 156.879 226.846C156.435 226.641 156.054 226.358 155.736 225.997C155.424 225.63 155.185 225.203 155.019 224.715C154.853 224.227 154.77 223.697 154.77 223.125ZM156.125 222.957V223.125C156.125 223.521 156.171 223.895 156.264 224.246C156.356 224.593 156.496 224.9 156.681 225.169C156.872 225.438 157.108 225.65 157.392 225.806C157.675 225.958 158.004 226.033 158.38 226.033C158.751 226.033 159.076 225.958 159.354 225.806C159.638 225.65 159.872 225.438 160.058 225.169C160.243 224.9 160.382 224.593 160.475 224.246C160.573 223.895 160.622 223.521 160.622 223.125V222.957C160.622 222.566 160.573 222.198 160.475 221.851C160.382 221.5 160.241 221.189 160.05 220.921C159.865 220.647 159.63 220.433 159.347 220.276C159.069 220.12 158.742 220.042 158.366 220.042C157.995 220.042 157.667 220.12 157.384 220.276C157.106 220.433 156.872 220.647 156.681 220.921C156.496 221.189 156.356 221.5 156.264 221.851C156.171 222.198 156.125 222.566 156.125 222.957ZM165.038 220.599V230.047H163.676V219.075H164.921L165.038 220.599ZM170.377 222.972V223.125C170.377 223.702 170.309 224.236 170.172 224.729C170.036 225.218 169.835 225.643 169.572 226.004C169.313 226.365 168.993 226.646 168.612 226.846C168.231 227.046 167.794 227.146 167.301 227.146C166.798 227.146 166.354 227.063 165.968 226.897C165.583 226.731 165.255 226.49 164.987 226.172C164.718 225.855 164.503 225.474 164.342 225.03C164.186 224.585 164.079 224.085 164.02 223.528V222.708C164.079 222.122 164.188 221.597 164.35 221.133C164.511 220.669 164.723 220.274 164.987 219.947C165.255 219.615 165.58 219.363 165.961 219.192C166.342 219.017 166.781 218.929 167.279 218.929C167.777 218.929 168.219 219.026 168.605 219.222C168.991 219.412 169.315 219.686 169.579 220.042C169.843 220.398 170.041 220.826 170.172 221.324C170.309 221.817 170.377 222.366 170.377 222.972ZM169.015 223.125V222.972C169.015 222.576 168.974 222.205 168.891 221.858C168.808 221.507 168.678 221.199 168.502 220.936C168.332 220.667 168.112 220.457 167.843 220.306C167.575 220.149 167.255 220.071 166.884 220.071C166.542 220.071 166.244 220.13 165.99 220.247C165.741 220.364 165.529 220.523 165.353 220.723C165.177 220.918 165.033 221.143 164.921 221.397C164.813 221.646 164.733 221.905 164.679 222.173V224.07C164.777 224.412 164.914 224.734 165.089 225.037C165.265 225.335 165.5 225.577 165.792 225.762C166.085 225.943 166.454 226.033 166.898 226.033C167.265 226.033 167.58 225.958 167.843 225.806C168.112 225.65 168.332 225.438 168.502 225.169C168.678 224.9 168.808 224.593 168.891 224.246C168.974 223.895 169.015 223.521 169.015 223.125ZM173.219 221.8H175.6C176.239 221.8 176.779 221.912 177.218 222.137C177.658 222.356 177.99 222.662 178.214 223.052C178.444 223.438 178.559 223.877 178.559 224.371C178.559 224.737 178.495 225.081 178.368 225.403C178.241 225.721 178.051 225.999 177.797 226.238C177.548 226.478 177.238 226.666 176.867 226.802C176.5 226.934 176.078 227 175.6 227H172.23V219.075H173.585V225.887H175.6C175.99 225.887 176.303 225.816 176.537 225.674C176.771 225.533 176.94 225.35 177.042 225.125C177.145 224.9 177.196 224.666 177.196 224.422C177.196 224.183 177.145 223.948 177.042 223.719C176.94 223.489 176.771 223.299 176.537 223.147C176.303 222.991 175.99 222.913 175.6 222.913H173.219V221.8ZM183.539 227.146C182.987 227.146 182.487 227.054 182.038 226.868C181.593 226.678 181.21 226.412 180.888 226.07C180.57 225.728 180.326 225.323 180.155 224.854C179.984 224.385 179.899 223.873 179.899 223.316V223.008C179.899 222.364 179.994 221.79 180.185 221.287C180.375 220.779 180.634 220.35 180.961 219.998C181.288 219.646 181.659 219.38 182.074 219.2C182.489 219.019 182.919 218.929 183.363 218.929C183.93 218.929 184.418 219.026 184.828 219.222C185.243 219.417 185.583 219.69 185.846 220.042C186.11 220.389 186.305 220.799 186.432 221.272C186.559 221.741 186.623 222.254 186.623 222.811V223.418H180.705V222.312H185.268V222.21C185.248 221.858 185.175 221.517 185.048 221.185C184.926 220.853 184.73 220.579 184.462 220.364C184.193 220.149 183.827 220.042 183.363 220.042C183.056 220.042 182.772 220.108 182.514 220.24C182.255 220.367 182.033 220.557 181.847 220.811C181.662 221.065 181.518 221.375 181.415 221.741C181.312 222.107 181.261 222.53 181.261 223.008V223.316C181.261 223.692 181.312 224.046 181.415 224.378C181.522 224.705 181.676 224.993 181.876 225.242C182.082 225.491 182.328 225.687 182.616 225.828C182.909 225.97 183.241 226.041 183.612 226.041C184.091 226.041 184.496 225.943 184.828 225.748C185.16 225.552 185.451 225.291 185.7 224.964L186.52 225.616C186.349 225.875 186.132 226.121 185.868 226.355C185.604 226.59 185.28 226.78 184.894 226.927C184.513 227.073 184.062 227.146 183.539 227.146Z" fill="white"/>
<path d="M64.624 208.85V210H56.5527V208.85H64.624ZM56.7798 208.85V212.622H55.3809L55.3735 208.85H56.7798ZM65.8545 208.85L65.8398 212.615H64.4409V208.85H65.8545ZM63.2397 199.336V200.493H58.5669V199.336H63.2397ZM64.4556 199.336V210H63.0493V199.336H64.4556ZM58.0835 199.336H59.4971L59.2773 203.628C59.248 204.272 59.187 204.868 59.0942 205.415C59.0015 205.957 58.8867 206.453 58.75 206.902C58.6133 207.351 58.457 207.754 58.2812 208.11C58.1055 208.462 57.9175 208.767 57.7173 209.026C57.5171 209.28 57.3071 209.49 57.0874 209.656C56.8726 209.817 56.6553 209.932 56.4355 210H55.791V208.85H56.2451C56.3721 208.713 56.5161 208.516 56.6772 208.257C56.8433 207.998 57.0068 207.664 57.168 207.253C57.334 206.838 57.478 206.333 57.6001 205.737C57.7271 205.142 57.8125 204.438 57.8564 203.628L58.0835 199.336ZM66.9531 206.125V205.957C66.9531 205.386 67.0361 204.856 67.2021 204.368C67.3682 203.875 67.6074 203.447 67.9199 203.086C68.2324 202.72 68.6108 202.437 69.0552 202.236C69.4995 202.031 69.9976 201.929 70.5493 201.929C71.106 201.929 71.6064 202.031 72.0508 202.236C72.5 202.437 72.8809 202.72 73.1934 203.086C73.5107 203.447 73.7524 203.875 73.9185 204.368C74.0845 204.856 74.1675 205.386 74.1675 205.957V206.125C74.1675 206.697 74.0845 207.227 73.9185 207.715C73.7524 208.203 73.5107 208.63 73.1934 208.997C72.8809 209.358 72.5024 209.641 72.0581 209.846C71.6187 210.046 71.1206 210.146 70.564 210.146C70.0073 210.146 69.5068 210.046 69.0625 209.846C68.6182 209.641 68.2373 209.358 67.9199 208.997C67.6074 208.63 67.3682 208.203 67.2021 207.715C67.0361 207.227 66.9531 206.697 66.9531 206.125ZM68.3081 205.957V206.125C68.3081 206.521 68.3545 206.895 68.4473 207.246C68.54 207.593 68.6792 207.9 68.8647 208.169C69.0552 208.438 69.292 208.65 69.5752 208.806C69.8584 208.958 70.188 209.033 70.564 209.033C70.9351 209.033 71.2598 208.958 71.5381 208.806C71.8213 208.65 72.0557 208.438 72.2412 208.169C72.4268 207.9 72.5659 207.593 72.6587 207.246C72.7563 206.895 72.8052 206.521 72.8052 206.125V205.957C72.8052 205.566 72.7563 205.198 72.6587 204.851C72.5659 204.5 72.4243 204.189 72.2339 203.921C72.0483 203.647 71.814 203.433 71.5308 203.276C71.2524 203.12 70.9253 203.042 70.5493 203.042C70.1782 203.042 69.8511 203.12 69.5679 203.276C69.2896 203.433 69.0552 203.647 68.8647 203.921C68.6792 204.189 68.54 204.5 68.4473 204.851C68.3545 205.198 68.3081 205.566 68.3081 205.957ZM81.0449 202.075V203.196H77.2144V202.075H81.0449ZM82.2388 202.075V210H80.8838V202.075H82.2388ZM76.8848 202.075H78.2471L78.042 205.898C78.0078 206.489 77.9517 207.012 77.8735 207.466C77.8003 207.915 77.6978 208.301 77.5659 208.623C77.439 208.945 77.2778 209.209 77.0825 209.414C76.8921 209.614 76.6626 209.763 76.394 209.861C76.1255 209.954 75.8154 210 75.4639 210H75.0391V208.806L75.332 208.784C75.542 208.77 75.7202 208.721 75.8667 208.638C76.0181 208.555 76.145 208.433 76.2476 208.271C76.3501 208.105 76.4331 207.893 76.4966 207.634C76.5649 207.375 76.6162 207.068 76.6504 206.711C76.6895 206.355 76.7188 205.94 76.7383 205.466L76.8848 202.075ZM85.8862 207.854L89.541 202.075H90.9033V210H89.541V204.221L85.8862 210H84.5386V202.075H85.8862V207.854ZM98.4546 205.51V206.609H94.2651V205.51H98.4546ZM94.5508 202.075V210H93.1958V202.075H94.5508ZM99.5532 202.075V210H98.1909V202.075H99.5532ZM104.907 209.033C105.229 209.033 105.527 208.967 105.801 208.835C106.074 208.704 106.299 208.523 106.475 208.293C106.65 208.059 106.75 207.793 106.775 207.495H108.064C108.04 207.964 107.881 208.401 107.588 208.806C107.3 209.207 106.921 209.531 106.453 209.78C105.984 210.024 105.469 210.146 104.907 210.146C104.312 210.146 103.792 210.042 103.347 209.832C102.908 209.622 102.542 209.333 102.249 208.967C101.96 208.601 101.743 208.181 101.597 207.708C101.455 207.229 101.384 206.724 101.384 206.191V205.884C101.384 205.352 101.455 204.849 101.597 204.375C101.743 203.896 101.96 203.474 102.249 203.108C102.542 202.742 102.908 202.454 103.347 202.244C103.792 202.034 104.312 201.929 104.907 201.929C105.527 201.929 106.069 202.056 106.533 202.31C106.997 202.559 107.361 202.9 107.625 203.335C107.893 203.765 108.04 204.253 108.064 204.8H106.775C106.75 204.473 106.658 204.177 106.497 203.914C106.34 203.65 106.125 203.44 105.852 203.284C105.583 203.123 105.269 203.042 104.907 203.042C104.492 203.042 104.143 203.125 103.86 203.291C103.582 203.452 103.359 203.672 103.193 203.95C103.032 204.224 102.915 204.529 102.842 204.866C102.773 205.198 102.739 205.537 102.739 205.884V206.191C102.739 206.538 102.773 206.88 102.842 207.217C102.91 207.554 103.025 207.859 103.186 208.132C103.352 208.406 103.574 208.625 103.853 208.792C104.136 208.953 104.487 209.033 104.907 209.033ZM111.06 202.075V210H109.705V202.075H111.06ZM116.26 202.075L112.502 206.616H110.605L110.4 205.43H111.953L114.612 202.075H116.26ZM114.802 210L111.887 206.411L112.759 205.43L116.523 210H114.802Z" fill="white"/>
<path d="M281.448 121.332V122.005C281.448 122.806 281.348 123.524 281.148 124.159C280.948 124.793 280.66 125.333 280.284 125.777C279.908 126.222 279.456 126.561 278.929 126.795C278.406 127.03 277.82 127.147 277.171 127.147C276.541 127.147 275.962 127.03 275.435 126.795C274.913 126.561 274.458 126.222 274.073 125.777C273.692 125.333 273.396 124.793 273.187 124.159C272.977 123.524 272.872 122.806 272.872 122.005V121.332C272.872 120.531 272.974 119.815 273.179 119.186C273.389 118.551 273.685 118.011 274.065 117.567C274.446 117.118 274.898 116.776 275.42 116.542C275.948 116.307 276.526 116.19 277.156 116.19C277.806 116.19 278.392 116.307 278.914 116.542C279.441 116.776 279.893 117.118 280.269 117.567C280.65 118.011 280.94 118.551 281.141 119.186C281.346 119.815 281.448 120.531 281.448 121.332ZM280.049 122.005V121.317C280.049 120.682 279.983 120.121 279.852 119.632C279.725 119.144 279.537 118.734 279.288 118.402C279.039 118.07 278.733 117.818 278.372 117.647C278.016 117.477 277.61 117.391 277.156 117.391C276.717 117.391 276.319 117.477 275.962 117.647C275.611 117.818 275.308 118.07 275.054 118.402C274.805 118.734 274.612 119.144 274.476 119.632C274.339 120.121 274.271 120.682 274.271 121.317V122.005C274.271 122.645 274.339 123.211 274.476 123.705C274.612 124.193 274.808 124.605 275.062 124.942C275.32 125.274 275.625 125.526 275.977 125.697C276.333 125.868 276.731 125.953 277.171 125.953C277.63 125.953 278.038 125.868 278.394 125.697C278.75 125.526 279.051 125.274 279.295 124.942C279.544 124.605 279.732 124.193 279.859 123.705C279.986 123.211 280.049 122.645 280.049 122.005ZM288.736 122.511V123.609H284.546V122.511H288.736ZM284.832 119.076V127H283.477V119.076H284.832ZM289.834 119.076V127H288.472V119.076H289.834ZM291.658 123.126V122.958C291.658 122.386 291.741 121.856 291.907 121.368C292.073 120.875 292.312 120.448 292.625 120.086C292.938 119.72 293.316 119.437 293.76 119.237C294.205 119.032 294.703 118.929 295.254 118.929C295.811 118.929 296.312 119.032 296.756 119.237C297.205 119.437 297.586 119.72 297.898 120.086C298.216 120.448 298.458 120.875 298.624 121.368C298.79 121.856 298.873 122.386 298.873 122.958V123.126C298.873 123.697 298.79 124.227 298.624 124.715C298.458 125.204 298.216 125.631 297.898 125.997C297.586 126.358 297.208 126.642 296.763 126.847C296.324 127.047 295.826 127.147 295.269 127.147C294.712 127.147 294.212 127.047 293.768 126.847C293.323 126.642 292.942 126.358 292.625 125.997C292.312 125.631 292.073 125.204 291.907 124.715C291.741 124.227 291.658 123.697 291.658 123.126ZM293.013 122.958V123.126C293.013 123.521 293.06 123.895 293.152 124.247C293.245 124.593 293.384 124.901 293.57 125.169C293.76 125.438 293.997 125.65 294.28 125.807C294.563 125.958 294.893 126.034 295.269 126.034C295.64 126.034 295.965 125.958 296.243 125.807C296.526 125.65 296.761 125.438 296.946 125.169C297.132 124.901 297.271 124.593 297.364 124.247C297.461 123.895 297.51 123.521 297.51 123.126V122.958C297.51 122.567 297.461 122.198 297.364 121.852C297.271 121.5 297.129 121.19 296.939 120.921C296.753 120.648 296.519 120.433 296.236 120.277C295.958 120.121 295.63 120.042 295.254 120.042C294.883 120.042 294.556 120.121 294.273 120.277C293.995 120.433 293.76 120.648 293.57 120.921C293.384 121.19 293.245 121.5 293.152 121.852C293.06 122.198 293.013 122.567 293.013 122.958ZM301.927 120.599V130.047H300.564V119.076H301.81L301.927 120.599ZM307.266 122.972V123.126C307.266 123.702 307.198 124.237 307.061 124.73C306.924 125.218 306.724 125.643 306.46 126.004C306.202 126.366 305.882 126.646 305.501 126.847C305.12 127.047 304.683 127.147 304.19 127.147C303.687 127.147 303.243 127.064 302.857 126.898C302.471 126.732 302.144 126.49 301.875 126.173C301.607 125.855 301.392 125.475 301.231 125.03C301.075 124.586 300.967 124.085 300.909 123.529V122.708C300.967 122.123 301.077 121.598 301.238 121.134C301.399 120.67 301.612 120.274 301.875 119.947C302.144 119.615 302.469 119.364 302.85 119.193C303.23 119.017 303.67 118.929 304.168 118.929C304.666 118.929 305.108 119.027 305.494 119.222C305.879 119.413 306.204 119.686 306.468 120.042C306.731 120.399 306.929 120.826 307.061 121.324C307.198 121.817 307.266 122.367 307.266 122.972ZM305.904 123.126V122.972C305.904 122.577 305.862 122.206 305.779 121.859C305.696 121.507 305.567 121.2 305.391 120.936C305.22 120.667 305 120.458 304.732 120.306C304.463 120.15 304.144 120.072 303.772 120.072C303.431 120.072 303.133 120.13 302.879 120.248C302.63 120.365 302.417 120.523 302.242 120.724C302.066 120.919 301.922 121.144 301.81 121.397C301.702 121.646 301.622 121.905 301.568 122.174V124.071C301.666 124.413 301.802 124.735 301.978 125.038C302.154 125.335 302.388 125.577 302.681 125.763C302.974 125.943 303.343 126.034 303.787 126.034C304.153 126.034 304.468 125.958 304.732 125.807C305 125.65 305.22 125.438 305.391 125.169C305.567 124.901 305.696 124.593 305.779 124.247C305.862 123.895 305.904 123.521 305.904 123.126Z" fill="white"/>
</svg>
