<svg width="270" height="215" viewBox="0 0 270 215" fill="none" xmlns="http://www.w3.org/2000/svg">
<path d="M30.2031 170.921V172.071H24.4316V170.921H30.2031ZM24.6514 166.336V177H23.2378V166.336H24.6514ZM31.4336 166.336V177H30.0273V166.336H31.4336ZM33.3818 173.125V172.957C33.3818 172.386 33.4648 171.856 33.6309 171.368C33.7969 170.875 34.0361 170.447 34.3486 170.086C34.6611 169.72 35.0396 169.437 35.4839 169.236C35.9282 169.031 36.4263 168.929 36.978 168.929C37.5347 168.929 38.0352 169.031 38.4795 169.236C38.9287 169.437 39.3096 169.72 39.6221 170.086C39.9395 170.447 40.1812 170.875 40.3472 171.368C40.5132 171.856 40.5962 172.386 40.5962 172.957V173.125C40.5962 173.697 40.5132 174.227 40.3472 174.715C40.1812 175.203 39.9395 175.63 39.6221 175.997C39.3096 176.358 38.9312 176.641 38.4868 176.846C38.0474 177.046 37.5493 177.146 36.9927 177.146C36.436 177.146 35.9355 177.046 35.4912 176.846C35.0469 176.641 34.666 176.358 34.3486 175.997C34.0361 175.63 33.7969 175.203 33.6309 174.715C33.4648 174.227 33.3818 173.697 33.3818 173.125ZM34.7368 172.957V173.125C34.7368 173.521 34.7832 173.895 34.876 174.246C34.9688 174.593 35.1079 174.9 35.2935 175.169C35.4839 175.438 35.7207 175.65 36.0039 175.806C36.2871 175.958 36.6167 176.033 36.9927 176.033C37.3638 176.033 37.6885 175.958 37.9668 175.806C38.25 175.65 38.4844 175.438 38.6699 175.169C38.8555 174.9 38.9946 174.593 39.0874 174.246C39.1851 173.895 39.2339 173.521 39.2339 173.125V172.957C39.2339 172.566 39.1851 172.198 39.0874 171.851C38.9946 171.5 38.853 171.189 38.6626 170.921C38.4771 170.647 38.2427 170.433 37.9595 170.276C37.6812 170.12 37.354 170.042 36.978 170.042C36.6069 170.042 36.2798 170.12 35.9966 170.276C35.7183 170.433 35.4839 170.647 35.2935 170.921C35.1079 171.189 34.9688 171.5 34.876 171.851C34.7832 172.198 34.7368 172.566 34.7368 172.957ZM46.0161 173.514H43.416L43.4014 172.43H45.5254C45.9453 172.43 46.2944 172.388 46.5728 172.305C46.856 172.222 47.0684 172.098 47.21 171.932C47.3516 171.766 47.4224 171.561 47.4224 171.316C47.4224 171.126 47.3809 170.96 47.2979 170.818C47.2197 170.672 47.1001 170.552 46.939 170.459C46.7778 170.362 46.5776 170.291 46.3384 170.247C46.104 170.198 45.8281 170.174 45.5107 170.174H43.7749V177H42.4199V169.075H45.5107C46.0137 169.075 46.4653 169.119 46.8657 169.207C47.271 169.295 47.6152 169.429 47.8984 169.61C48.1865 169.786 48.4062 170.01 48.5576 170.284C48.709 170.557 48.7847 170.879 48.7847 171.25C48.7847 171.49 48.7358 171.717 48.6382 171.932C48.5405 172.146 48.3965 172.337 48.2061 172.503C48.0156 172.669 47.7812 172.806 47.5029 172.913C47.2246 173.016 46.9048 173.082 46.5435 173.111L46.0161 173.514ZM46.0161 177H42.9253L43.5991 175.901H46.0161C46.3921 175.901 46.7046 175.855 46.9536 175.762C47.2026 175.665 47.3882 175.528 47.5103 175.352C47.6372 175.171 47.7007 174.957 47.7007 174.708C47.7007 174.458 47.6372 174.246 47.5103 174.07C47.3882 173.89 47.2026 173.753 46.9536 173.66C46.7046 173.562 46.3921 173.514 46.0161 173.514H43.958L43.9727 172.43H46.5435L47.0342 172.84C47.4688 172.874 47.8374 172.981 48.1401 173.162C48.4429 173.343 48.6724 173.572 48.8286 173.851C48.9849 174.124 49.063 174.422 49.063 174.744C49.063 175.115 48.9922 175.442 48.8506 175.726C48.7139 176.009 48.5137 176.246 48.25 176.436C47.9863 176.622 47.6665 176.763 47.2905 176.861C46.9146 176.954 46.4897 177 46.0161 177ZM52.3442 174.854L55.999 169.075H57.3613V177H55.999V171.221L52.3442 177H50.9966V169.075H52.3442V174.854ZM61.0088 169.075V177H59.6538V169.075H61.0088ZM66.209 169.075L62.4517 173.616H60.5547L60.3496 172.43H61.9023L64.561 169.075H66.209ZM64.7515 177L61.8364 173.411L62.708 172.43L66.4727 177H64.7515ZM67.1318 173.125V172.957C67.1318 172.386 67.2148 171.856 67.3809 171.368C67.5469 170.875 67.7861 170.447 68.0986 170.086C68.4111 169.72 68.7896 169.437 69.2339 169.236C69.6782 169.031 70.1763 168.929 70.728 168.929C71.2847 168.929 71.7852 169.031 72.2295 169.236C72.6787 169.437 73.0596 169.72 73.3721 170.086C73.6895 170.447 73.9312 170.875 74.0972 171.368C74.2632 171.856 74.3462 172.386 74.3462 172.957V173.125C74.3462 173.697 74.2632 174.227 74.0972 174.715C73.9312 175.203 73.6895 175.63 73.3721 175.997C73.0596 176.358 72.6812 176.641 72.2368 176.846C71.7974 177.046 71.2993 177.146 70.7427 177.146C70.186 177.146 69.6855 177.046 69.2412 176.846C68.7969 176.641 68.416 176.358 68.0986 175.997C67.7861 175.63 67.5469 175.203 67.3809 174.715C67.2148 174.227 67.1318 173.697 67.1318 173.125ZM68.4868 172.957V173.125C68.4868 173.521 68.5332 173.895 68.626 174.246C68.7188 174.593 68.8579 174.9 69.0435 175.169C69.2339 175.438 69.4707 175.65 69.7539 175.806C70.0371 175.958 70.3667 176.033 70.7427 176.033C71.1138 176.033 71.4385 175.958 71.7168 175.806C72 175.65 72.2344 175.438 72.4199 175.169C72.6055 174.9 72.7446 174.593 72.8374 174.246C72.9351 173.895 72.9839 173.521 72.9839 173.125V172.957C72.9839 172.566 72.9351 172.198 72.8374 171.851C72.7446 171.5 72.603 171.189 72.4126 170.921C72.2271 170.647 71.9927 170.433 71.7095 170.276C71.4312 170.12 71.104 170.042 70.728 170.042C70.3569 170.042 70.0298 170.12 69.7466 170.276C69.4683 170.433 69.2339 170.647 69.0435 170.921C68.8579 171.189 68.7188 171.5 68.626 171.851C68.5332 172.198 68.4868 172.566 68.4868 172.957ZM79.7661 173.514H77.166L77.1514 172.43H79.2754C79.6953 172.43 80.0444 172.388 80.3228 172.305C80.606 172.222 80.8184 172.098 80.96 171.932C81.1016 171.766 81.1724 171.561 81.1724 171.316C81.1724 171.126 81.1309 170.96 81.0479 170.818C80.9697 170.672 80.8501 170.552 80.689 170.459C80.5278 170.362 80.3276 170.291 80.0884 170.247C79.854 170.198 79.5781 170.174 79.2607 170.174H77.5249V177H76.1699V169.075H79.2607C79.7637 169.075 80.2153 169.119 80.6157 169.207C81.021 169.295 81.3652 169.429 81.6484 169.61C81.9365 169.786 82.1562 170.01 82.3076 170.284C82.459 170.557 82.5347 170.879 82.5347 171.25C82.5347 171.49 82.4858 171.717 82.3882 171.932C82.2905 172.146 82.1465 172.337 81.9561 172.503C81.7656 172.669 81.5312 172.806 81.2529 172.913C80.9746 173.016 80.6548 173.082 80.2935 173.111L79.7661 173.514ZM79.7661 177H76.6753L77.3491 175.901H79.7661C80.1421 175.901 80.4546 175.855 80.7036 175.762C80.9526 175.665 81.1382 175.528 81.2603 175.352C81.3872 175.171 81.4507 174.957 81.4507 174.708C81.4507 174.458 81.3872 174.246 81.2603 174.07C81.1382 173.89 80.9526 173.753 80.7036 173.66C80.4546 173.562 80.1421 173.514 79.7661 173.514H77.708L77.7227 172.43H80.2935L80.7842 172.84C81.2188 172.874 81.5874 172.981 81.8901 173.162C82.1929 173.343 82.4224 173.572 82.5786 173.851C82.7349 174.124 82.813 174.422 82.813 174.744C82.813 175.115 82.7422 175.442 82.6006 175.726C82.4639 176.009 82.2637 176.246 82 176.436C81.7363 176.622 81.4165 176.763 81.0405 176.861C80.6646 176.954 80.2397 177 79.7661 177ZM84.2705 173.125V172.957C84.2705 172.386 84.3535 171.856 84.5195 171.368C84.6855 170.875 84.9248 170.447 85.2373 170.086C85.5498 169.72 85.9282 169.437 86.3726 169.236C86.8169 169.031 87.3149 168.929 87.8667 168.929C88.4233 168.929 88.9238 169.031 89.3682 169.236C89.8174 169.437 90.1982 169.72 90.5107 170.086C90.8281 170.447 91.0698 170.875 91.2358 171.368C91.4019 171.856 91.4849 172.386 91.4849 172.957V173.125C91.4849 173.697 91.4019 174.227 91.2358 174.715C91.0698 175.203 90.8281 175.63 90.5107 175.997C90.1982 176.358 89.8198 176.641 89.3755 176.846C88.936 177.046 88.438 177.146 87.8813 177.146C87.3247 177.146 86.8242 177.046 86.3799 176.846C85.9355 176.641 85.5547 176.358 85.2373 175.997C84.9248 175.63 84.6855 175.203 84.5195 174.715C84.3535 174.227 84.2705 173.697 84.2705 173.125ZM85.6255 172.957V173.125C85.6255 173.521 85.6719 173.895 85.7646 174.246C85.8574 174.593 85.9966 174.9 86.1821 175.169C86.3726 175.438 86.6094 175.65 86.8926 175.806C87.1758 175.958 87.5054 176.033 87.8813 176.033C88.2524 176.033 88.5771 175.958 88.8555 175.806C89.1387 175.65 89.373 175.438 89.5586 175.169C89.7441 174.9 89.8833 174.593 89.9761 174.246C90.0737 173.895 90.1226 173.521 90.1226 173.125V172.957C90.1226 172.566 90.0737 172.198 89.9761 171.851C89.8833 171.5 89.7417 171.189 89.5513 170.921C89.3657 170.647 89.1313 170.433 88.8481 170.276C88.5698 170.12 88.2427 170.042 87.8667 170.042C87.4956 170.042 87.1685 170.12 86.8853 170.276C86.6069 170.433 86.3726 170.647 86.1821 170.921C85.9966 171.189 85.8574 171.5 85.7646 171.851C85.6719 172.198 85.6255 172.566 85.6255 172.957Z" fill="white"/>
<path d="M5.18555 31.2808L1.65527 41H0.212402L4.27734 30.3359H5.20752L5.18555 31.2808ZM8.14453 41L4.60693 31.2808L4.58496 30.3359H5.51514L9.59473 41H8.14453ZM7.96143 37.0522V38.2095H1.97021V37.0522H7.96143ZM16.1938 36.5103V37.6089H12.0044V36.5103H16.1938ZM12.29 33.0752V41H10.9351V33.0752H12.29ZM17.2925 33.0752V41H15.9302V33.0752H17.2925ZM20.9399 38.854L24.5947 33.0752H25.957V41H24.5947V35.2212L20.9399 41H19.5923V33.0752H20.9399V38.854ZM31.853 37.5137H29.2529L29.2383 36.4297H31.3623C31.7822 36.4297 32.1313 36.3882 32.4097 36.3052C32.6929 36.2222 32.9053 36.0977 33.0469 35.9316C33.1885 35.7656 33.2593 35.5605 33.2593 35.3164C33.2593 35.126 33.2178 34.96 33.1348 34.8184C33.0566 34.6719 32.937 34.5522 32.7759 34.4595C32.6147 34.3618 32.4146 34.291 32.1753 34.2471C31.9409 34.1982 31.665 34.1738 31.3477 34.1738H29.6118V41H28.2568V33.0752H31.3477C31.8506 33.0752 32.3022 33.1191 32.7026 33.207C33.1079 33.2949 33.4521 33.4292 33.7354 33.6099C34.0234 33.7856 34.2432 34.0103 34.3945 34.2837C34.5459 34.5571 34.6216 34.8794 34.6216 35.2505C34.6216 35.4897 34.5728 35.7168 34.4751 35.9316C34.3774 36.1465 34.2334 36.3369 34.043 36.5029C33.8525 36.6689 33.6182 36.8057 33.3398 36.9131C33.0615 37.0156 32.7417 37.0815 32.3804 37.1108L31.853 37.5137ZM31.853 41H28.7622L29.436 39.9014H31.853C32.229 39.9014 32.5415 39.855 32.7905 39.7622C33.0396 39.6646 33.2251 39.5278 33.3472 39.3521C33.4741 39.1714 33.5376 38.9565 33.5376 38.7075C33.5376 38.4585 33.4741 38.2461 33.3472 38.0703C33.2251 37.8896 33.0396 37.7529 32.7905 37.6602C32.5415 37.5625 32.229 37.5137 31.853 37.5137H29.7949L29.8096 36.4297H32.3804L32.8711 36.8398C33.3057 36.874 33.6743 36.9814 33.9771 37.1621C34.2798 37.3428 34.5093 37.5723 34.6655 37.8506C34.8218 38.124 34.8999 38.4219 34.8999 38.7441C34.8999 39.1152 34.8291 39.4424 34.6875 39.7256C34.5508 40.0088 34.3506 40.2456 34.0869 40.436C33.8232 40.6216 33.5034 40.7632 33.1274 40.8608C32.7515 40.9536 32.3267 41 31.853 41ZM41.3892 39.645V35.5654C41.3892 35.2529 41.3257 34.9819 41.1987 34.7524C41.0767 34.5181 40.8911 34.3374 40.6421 34.2104C40.3931 34.0835 40.0854 34.02 39.7192 34.02C39.3774 34.02 39.0771 34.0786 38.8184 34.1958C38.5645 34.313 38.3643 34.4668 38.2178 34.6572C38.0762 34.8477 38.0054 35.0527 38.0054 35.2725H36.6504C36.6504 34.9893 36.7236 34.7085 36.8701 34.4302C37.0166 34.1519 37.2266 33.9004 37.5 33.6758C37.7783 33.4463 38.1104 33.2656 38.4961 33.1338C38.8867 32.9971 39.3213 32.9287 39.7998 32.9287C40.376 32.9287 40.8838 33.0264 41.3232 33.2217C41.7676 33.417 42.1143 33.7124 42.3633 34.1079C42.6172 34.4985 42.7441 34.9893 42.7441 35.5801V39.2715C42.7441 39.5352 42.7661 39.8159 42.8101 40.1138C42.8589 40.4116 42.9297 40.668 43.0225 40.8828V41H41.6089C41.5405 40.8438 41.4868 40.6362 41.4478 40.3774C41.4087 40.1138 41.3892 39.8696 41.3892 39.645ZM41.6235 36.1953L41.6382 37.1475H40.2686C39.8828 37.1475 39.5386 37.1792 39.2358 37.2427C38.9331 37.3013 38.6792 37.3916 38.4741 37.5137C38.269 37.6357 38.1128 37.7896 38.0054 37.9751C37.8979 38.1558 37.8442 38.3682 37.8442 38.6123C37.8442 38.8613 37.9004 39.0884 38.0127 39.2935C38.125 39.4985 38.2935 39.6621 38.5181 39.7842C38.7476 39.9014 39.0283 39.96 39.3604 39.96C39.7754 39.96 40.1416 39.8721 40.459 39.6963C40.7764 39.5205 41.0278 39.3057 41.2134 39.0518C41.4038 38.7979 41.5063 38.5513 41.521 38.312L42.0996 38.9639C42.0654 39.1689 41.9727 39.396 41.8213 39.645C41.6699 39.894 41.4673 40.1333 41.2134 40.3628C40.9644 40.5874 40.6665 40.7754 40.3198 40.9268C39.978 41.0732 39.5923 41.1465 39.1626 41.1465C38.6255 41.1465 38.1543 41.0415 37.749 40.8315C37.3486 40.6216 37.0361 40.3408 36.8115 39.9893C36.5918 39.6328 36.4819 39.2349 36.4819 38.7954C36.4819 38.3706 36.5649 37.9971 36.731 37.6748C36.897 37.3477 37.1362 37.0767 37.4487 36.8618C37.7612 36.6421 38.1372 36.4761 38.5767 36.3638C39.0161 36.2515 39.5068 36.1953 40.0488 36.1953H41.6235Z" fill="white"/>
<path d="M166.685 151.336H168.054L171.548 160.03L175.034 151.336H176.411L172.075 162H171.006L166.685 151.336ZM166.238 151.336H167.446L167.644 157.84V162H166.238V151.336ZM175.642 151.336H176.851V162H175.444V157.84L175.642 151.336ZM180.242 156.8H182.622C183.262 156.8 183.801 156.912 184.241 157.137C184.68 157.356 185.012 157.662 185.237 158.052C185.466 158.438 185.581 158.877 185.581 159.371C185.581 159.737 185.518 160.081 185.391 160.403C185.264 160.721 185.073 160.999 184.819 161.238C184.57 161.478 184.26 161.666 183.889 161.802C183.523 161.934 183.101 162 182.622 162H179.253V154.075H180.608V160.887H182.622C183.013 160.887 183.325 160.816 183.56 160.674C183.794 160.533 183.962 160.35 184.065 160.125C184.167 159.9 184.219 159.666 184.219 159.422C184.219 159.183 184.167 158.948 184.065 158.719C183.962 158.489 183.794 158.299 183.56 158.147C183.325 157.991 183.013 157.913 182.622 157.913H180.242V156.8ZM188.401 154.075V162H187.046V154.075H188.401ZM193.945 161.033C194.268 161.033 194.565 160.967 194.839 160.835C195.112 160.704 195.337 160.523 195.513 160.293C195.688 160.059 195.789 159.793 195.813 159.495H197.102C197.078 159.964 196.919 160.401 196.626 160.806C196.338 161.207 195.959 161.531 195.491 161.78C195.022 162.024 194.507 162.146 193.945 162.146C193.35 162.146 192.83 162.042 192.385 161.832C191.946 161.622 191.58 161.333 191.287 160.967C190.999 160.601 190.781 160.181 190.635 159.708C190.493 159.229 190.422 158.724 190.422 158.191V157.884C190.422 157.352 190.493 156.849 190.635 156.375C190.781 155.896 190.999 155.474 191.287 155.108C191.58 154.742 191.946 154.454 192.385 154.244C192.83 154.034 193.35 153.929 193.945 153.929C194.565 153.929 195.107 154.056 195.571 154.31C196.035 154.559 196.399 154.9 196.663 155.335C196.931 155.765 197.078 156.253 197.102 156.8H195.813C195.789 156.473 195.696 156.177 195.535 155.914C195.378 155.65 195.164 155.44 194.89 155.284C194.622 155.123 194.307 155.042 193.945 155.042C193.53 155.042 193.181 155.125 192.898 155.291C192.62 155.452 192.397 155.672 192.231 155.95C192.07 156.224 191.953 156.529 191.88 156.866C191.812 157.198 191.777 157.537 191.777 157.884V158.191C191.777 158.538 191.812 158.88 191.88 159.217C191.948 159.554 192.063 159.859 192.224 160.132C192.39 160.406 192.612 160.625 192.891 160.792C193.174 160.953 193.525 161.033 193.945 161.033ZM209.326 160.85V162H203.679V160.85H209.326ZM203.965 151.336V162H202.551V151.336H203.965ZM208.579 155.921V157.071H203.679V155.921H208.579ZM209.253 151.336V152.493H203.679V151.336H209.253ZM214.592 158.514H211.992L211.978 157.43H214.102C214.521 157.43 214.871 157.388 215.149 157.305C215.432 157.222 215.645 157.098 215.786 156.932C215.928 156.766 215.999 156.561 215.999 156.316C215.999 156.126 215.957 155.96 215.874 155.818C215.796 155.672 215.676 155.552 215.515 155.459C215.354 155.362 215.154 155.291 214.915 155.247C214.68 155.198 214.404 155.174 214.087 155.174H212.351V162H210.996V154.075H214.087C214.59 154.075 215.042 154.119 215.442 154.207C215.847 154.295 216.191 154.429 216.475 154.61C216.763 154.786 216.982 155.01 217.134 155.284C217.285 155.557 217.361 155.879 217.361 156.25C217.361 156.49 217.312 156.717 217.214 156.932C217.117 157.146 216.973 157.337 216.782 157.503C216.592 157.669 216.357 157.806 216.079 157.913C215.801 158.016 215.481 158.082 215.12 158.111L214.592 158.514ZM214.592 162H211.501L212.175 160.901H214.592C214.968 160.901 215.281 160.855 215.53 160.762C215.779 160.665 215.964 160.528 216.086 160.352C216.213 160.171 216.277 159.957 216.277 159.708C216.277 159.458 216.213 159.246 216.086 159.07C215.964 158.89 215.779 158.753 215.53 158.66C215.281 158.562 214.968 158.514 214.592 158.514H212.534L212.549 157.43H215.12L215.61 157.84C216.045 157.874 216.414 157.981 216.716 158.162C217.019 158.343 217.249 158.572 217.405 158.851C217.561 159.124 217.639 159.422 217.639 159.744C217.639 160.115 217.568 160.442 217.427 160.726C217.29 161.009 217.09 161.246 216.826 161.436C216.562 161.622 216.243 161.763 215.867 161.861C215.491 161.954 215.066 162 214.592 162ZM222.627 161.033C222.949 161.033 223.247 160.967 223.521 160.835C223.794 160.704 224.019 160.523 224.194 160.293C224.37 160.059 224.47 159.793 224.495 159.495H225.784C225.759 159.964 225.601 160.401 225.308 160.806C225.02 161.207 224.641 161.531 224.172 161.78C223.704 162.024 223.188 162.146 222.627 162.146C222.031 162.146 221.511 162.042 221.067 161.832C220.627 161.622 220.261 161.333 219.968 160.967C219.68 160.601 219.463 160.181 219.316 159.708C219.175 159.229 219.104 158.724 219.104 158.191V157.884C219.104 157.352 219.175 156.849 219.316 156.375C219.463 155.896 219.68 155.474 219.968 155.108C220.261 154.742 220.627 154.454 221.067 154.244C221.511 154.034 222.031 153.929 222.627 153.929C223.247 153.929 223.789 154.056 224.253 154.31C224.717 154.559 225.081 154.9 225.344 155.335C225.613 155.765 225.759 156.253 225.784 156.8H224.495C224.47 156.473 224.377 156.177 224.216 155.914C224.06 155.65 223.845 155.44 223.572 155.284C223.303 155.123 222.988 155.042 222.627 155.042C222.212 155.042 221.863 155.125 221.58 155.291C221.301 155.452 221.079 155.672 220.913 155.95C220.752 156.224 220.635 156.529 220.562 156.866C220.493 157.198 220.459 157.537 220.459 157.884V158.191C220.459 158.538 220.493 158.88 220.562 159.217C220.63 159.554 220.745 159.859 220.906 160.132C221.072 160.406 221.294 160.625 221.572 160.792C221.855 160.953 222.207 161.033 222.627 161.033ZM230.537 154.075V162H229.175V154.075H230.537ZM233.196 154.075V155.174H226.567V154.075H233.196ZM239.084 160.645V156.565C239.084 156.253 239.021 155.982 238.894 155.752C238.772 155.518 238.586 155.337 238.337 155.21C238.088 155.083 237.781 155.02 237.415 155.02C237.073 155.02 236.772 155.079 236.514 155.196C236.26 155.313 236.06 155.467 235.913 155.657C235.771 155.848 235.701 156.053 235.701 156.272H234.346C234.346 155.989 234.419 155.708 234.565 155.43C234.712 155.152 234.922 154.9 235.195 154.676C235.474 154.446 235.806 154.266 236.191 154.134C236.582 153.997 237.017 153.929 237.495 153.929C238.071 153.929 238.579 154.026 239.019 154.222C239.463 154.417 239.81 154.712 240.059 155.108C240.312 155.499 240.439 155.989 240.439 156.58V160.271C240.439 160.535 240.461 160.816 240.505 161.114C240.554 161.412 240.625 161.668 240.718 161.883V162H239.304C239.236 161.844 239.182 161.636 239.143 161.377C239.104 161.114 239.084 160.87 239.084 160.645ZM239.319 157.195L239.333 158.147H237.964C237.578 158.147 237.234 158.179 236.931 158.243C236.628 158.301 236.375 158.392 236.169 158.514C235.964 158.636 235.808 158.79 235.701 158.975C235.593 159.156 235.54 159.368 235.54 159.612C235.54 159.861 235.596 160.088 235.708 160.293C235.82 160.499 235.989 160.662 236.213 160.784C236.443 160.901 236.724 160.96 237.056 160.96C237.471 160.96 237.837 160.872 238.154 160.696C238.472 160.521 238.723 160.306 238.909 160.052C239.099 159.798 239.202 159.551 239.216 159.312L239.795 159.964C239.761 160.169 239.668 160.396 239.517 160.645C239.365 160.894 239.163 161.133 238.909 161.363C238.66 161.587 238.362 161.775 238.015 161.927C237.673 162.073 237.288 162.146 236.858 162.146C236.321 162.146 235.85 162.042 235.444 161.832C235.044 161.622 234.731 161.341 234.507 160.989C234.287 160.633 234.177 160.235 234.177 159.795C234.177 159.371 234.26 158.997 234.426 158.675C234.592 158.348 234.832 158.077 235.144 157.862C235.457 157.642 235.833 157.476 236.272 157.364C236.711 157.251 237.202 157.195 237.744 157.195H239.319ZM251.682 158.177V158.331C251.682 158.887 251.621 159.4 251.499 159.869C251.377 160.333 251.194 160.735 250.95 161.077C250.71 161.419 250.413 161.685 250.056 161.875C249.7 162.061 249.287 162.154 248.818 162.154C248.433 162.154 248.093 162.103 247.8 162C247.507 161.893 247.258 161.739 247.053 161.539C246.853 161.338 246.692 161.099 246.57 160.821C246.453 160.538 246.372 160.22 246.328 159.869V156.353C246.372 155.977 246.453 155.64 246.57 155.342C246.692 155.044 246.853 154.791 247.053 154.581C247.258 154.371 247.505 154.209 247.793 154.097C248.081 153.985 248.418 153.929 248.804 153.929C249.185 153.929 249.526 153.997 249.829 154.134C250.137 154.266 250.405 154.456 250.635 154.705C250.869 154.954 251.062 155.254 251.213 155.606C251.37 155.953 251.487 156.343 251.565 156.778C251.643 157.212 251.682 157.679 251.682 158.177ZM250.327 158.331V158.177C250.327 157.835 250.303 157.51 250.254 157.203C250.21 156.89 250.139 156.604 250.042 156.346C249.949 156.082 249.827 155.853 249.675 155.657C249.524 155.462 249.341 155.311 249.126 155.203C248.916 155.096 248.674 155.042 248.401 155.042C248.108 155.042 247.864 155.079 247.668 155.152C247.478 155.225 247.329 155.323 247.222 155.445C247.114 155.562 247.036 155.687 246.987 155.818V160.411C247.046 160.518 247.131 160.621 247.244 160.718C247.356 160.811 247.507 160.889 247.698 160.953C247.888 161.011 248.127 161.041 248.416 161.041C248.757 161.041 249.048 160.972 249.287 160.835C249.531 160.694 249.729 160.499 249.88 160.25C250.037 160 250.149 159.712 250.217 159.385C250.291 159.058 250.327 158.707 250.327 158.331ZM242.271 158.331V158.177C242.271 157.679 242.31 157.212 242.388 156.778C242.466 156.343 242.583 155.953 242.739 155.606C242.896 155.254 243.088 154.954 243.318 154.705C243.552 154.456 243.821 154.266 244.124 154.134C244.431 153.997 244.775 153.929 245.156 153.929C245.532 153.929 245.859 153.985 246.138 154.097C246.421 154.209 246.66 154.371 246.855 154.581C247.051 154.791 247.207 155.044 247.324 155.342C247.441 155.64 247.524 155.977 247.573 156.353V159.729C247.529 160.101 247.449 160.435 247.332 160.733C247.214 161.031 247.058 161.287 246.863 161.502C246.667 161.712 246.426 161.873 246.138 161.985C245.854 162.098 245.522 162.154 245.142 162.154C244.673 162.154 244.26 162.061 243.904 161.875C243.547 161.685 243.247 161.419 243.003 161.077C242.764 160.735 242.581 160.333 242.454 159.869C242.332 159.4 242.271 158.887 242.271 158.331ZM243.633 158.177V158.331C243.633 158.707 243.665 159.058 243.728 159.385C243.796 159.712 243.901 160 244.043 160.25C244.189 160.499 244.38 160.694 244.614 160.835C244.849 160.972 245.137 161.041 245.479 161.041C245.771 161.041 246.013 161.004 246.204 160.931C246.394 160.857 246.545 160.762 246.658 160.645C246.77 160.528 246.855 160.406 246.914 160.279V155.818C246.865 155.687 246.785 155.562 246.672 155.445C246.565 155.323 246.416 155.225 246.226 155.152C246.035 155.079 245.791 155.042 245.493 155.042C245.151 155.042 244.861 155.125 244.622 155.291C244.382 155.457 244.189 155.684 244.043 155.972C243.901 156.26 243.796 156.595 243.728 156.976C243.665 157.352 243.633 157.752 243.633 158.177ZM246.24 165.047V150.75H247.603V165.047H246.24ZM254.919 159.854L258.574 154.075H259.937V162H258.574V156.221L254.919 162H253.572V154.075H254.919V159.854ZM263.716 158.221H265.181L262.888 162H261.423L263.716 158.221ZM264.851 154.075H268.162V162H266.807V155.174H264.851C264.465 155.174 264.15 155.24 263.906 155.372C263.662 155.499 263.484 155.665 263.372 155.87C263.259 156.075 263.203 156.287 263.203 156.507C263.203 156.722 263.254 156.929 263.357 157.129C263.459 157.325 263.621 157.486 263.84 157.613C264.06 157.74 264.343 157.803 264.69 157.803H267.173V158.917H264.69C264.236 158.917 263.833 158.855 263.481 158.733C263.13 158.611 262.832 158.443 262.588 158.228C262.344 158.008 262.158 157.752 262.031 157.459C261.904 157.161 261.841 156.839 261.841 156.492C261.841 156.146 261.907 155.826 262.039 155.533C262.175 155.24 262.371 154.983 262.625 154.764C262.883 154.544 263.198 154.375 263.569 154.258C263.945 154.136 264.373 154.075 264.851 154.075Z" fill="white"/>
<path d="M124.754 3.33594V14H123.34V3.33594H124.754ZM127.2 8.22119V9.33447H124.666V8.22119H127.2ZM134.854 8.33105V9.00488C134.854 9.80566 134.754 10.5234 134.554 11.1582C134.354 11.793 134.065 12.3325 133.689 12.7769C133.313 13.2212 132.862 13.5605 132.334 13.7949C131.812 14.0293 131.226 14.1465 130.577 14.1465C129.947 14.1465 129.368 14.0293 128.841 13.7949C128.318 13.5605 127.864 13.2212 127.479 12.7769C127.098 12.3325 126.802 11.793 126.592 11.1582C126.382 10.5234 126.277 9.80566 126.277 9.00488V8.33105C126.277 7.53027 126.38 6.81494 126.585 6.18506C126.795 5.55029 127.09 5.01074 127.471 4.56641C127.852 4.11719 128.304 3.77539 128.826 3.54102C129.354 3.30664 129.932 3.18945 130.562 3.18945C131.211 3.18945 131.797 3.30664 132.32 3.54102C132.847 3.77539 133.299 4.11719 133.675 4.56641C134.056 5.01074 134.346 5.55029 134.546 6.18506C134.751 6.81494 134.854 7.53027 134.854 8.33105ZM133.455 9.00488V8.31641C133.455 7.68164 133.389 7.12012 133.257 6.63184C133.13 6.14355 132.942 5.7334 132.693 5.40137C132.444 5.06934 132.139 4.81787 131.778 4.64697C131.421 4.47607 131.016 4.39062 130.562 4.39062C130.123 4.39062 129.725 4.47607 129.368 4.64697C129.017 4.81787 128.714 5.06934 128.46 5.40137C128.211 5.7334 128.018 6.14355 127.881 6.63184C127.745 7.12012 127.676 7.68164 127.676 8.31641V9.00488C127.676 9.64453 127.745 10.2109 127.881 10.7041C128.018 11.1924 128.213 11.605 128.467 11.9419C128.726 12.2739 129.031 12.5254 129.383 12.6963C129.739 12.8672 130.137 12.9526 130.577 12.9526C131.036 12.9526 131.443 12.8672 131.8 12.6963C132.156 12.5254 132.457 12.2739 132.701 11.9419C132.95 11.605 133.138 11.1924 133.265 10.7041C133.392 10.2109 133.455 9.64453 133.455 9.00488ZM138.853 10.5503L135.85 6.0752H137.483L139.534 9.35645H141.116L140.918 10.5503H138.853ZM139.593 10.4111L137.293 14H135.579L138.736 9.42969L139.593 10.4111ZM141.812 6.0752V14H140.457V6.0752H141.812ZM146.434 6.0752L143.431 10.5503H141.365L141.153 9.35645H142.742L144.793 6.0752H146.434ZM144.983 14L142.676 10.4111L143.548 9.42969L146.697 14H144.983ZM153.326 9.51025V10.6089H149.136V9.51025H153.326ZM149.422 6.0752V14H148.067V6.0752H149.422ZM154.424 6.0752V14H153.062V6.0752H154.424ZM156.248 10.1255V9.95703C156.248 9.38574 156.331 8.85596 156.497 8.36768C156.663 7.87451 156.902 7.44727 157.215 7.08594C157.527 6.71973 157.906 6.43652 158.35 6.23633C158.794 6.03125 159.292 5.92871 159.844 5.92871C160.401 5.92871 160.901 6.03125 161.346 6.23633C161.795 6.43652 162.176 6.71973 162.488 7.08594C162.806 7.44727 163.047 7.87451 163.213 8.36768C163.379 8.85596 163.462 9.38574 163.462 9.95703V10.1255C163.462 10.6968 163.379 11.2266 163.213 11.7148C163.047 12.2031 162.806 12.6304 162.488 12.9966C162.176 13.3579 161.797 13.6411 161.353 13.8462C160.914 14.0464 160.416 14.1465 159.859 14.1465C159.302 14.1465 158.802 14.0464 158.357 13.8462C157.913 13.6411 157.532 13.3579 157.215 12.9966C156.902 12.6304 156.663 12.2031 156.497 11.7148C156.331 11.2266 156.248 10.6968 156.248 10.1255ZM157.603 9.95703V10.1255C157.603 10.521 157.649 10.8945 157.742 11.2461C157.835 11.5928 157.974 11.9004 158.16 12.1689C158.35 12.4375 158.587 12.6499 158.87 12.8062C159.153 12.9575 159.483 13.0332 159.859 13.0332C160.23 13.0332 160.555 12.9575 160.833 12.8062C161.116 12.6499 161.351 12.4375 161.536 12.1689C161.722 11.9004 161.861 11.5928 161.954 11.2461C162.051 10.8945 162.1 10.521 162.1 10.1255V9.95703C162.1 9.56641 162.051 9.19775 161.954 8.85107C161.861 8.49951 161.719 8.18945 161.529 7.9209C161.343 7.64746 161.109 7.43262 160.826 7.27637C160.547 7.12012 160.22 7.04199 159.844 7.04199C159.473 7.04199 159.146 7.12012 158.863 7.27637C158.584 7.43262 158.35 7.64746 158.16 7.9209C157.974 8.18945 157.835 8.49951 157.742 8.85107C157.649 9.19775 157.603 9.56641 157.603 9.95703ZM167.981 8.90967V10.0229H164.407V8.90967H167.981ZM175.95 10.6089H177.356C177.283 11.2827 177.09 11.8857 176.778 12.418C176.465 12.9502 176.023 13.3726 175.452 13.6851C174.881 13.9927 174.168 14.1465 173.313 14.1465C172.688 14.1465 172.12 14.0293 171.607 13.7949C171.099 13.5605 170.662 13.2285 170.296 12.7988C169.93 12.3643 169.646 11.8442 169.446 11.2388C169.251 10.6284 169.153 9.94971 169.153 9.20264V8.14062C169.153 7.39355 169.251 6.71729 169.446 6.11182C169.646 5.50146 169.932 4.979 170.303 4.54443C170.679 4.10986 171.131 3.77539 171.658 3.54102C172.186 3.30664 172.779 3.18945 173.438 3.18945C174.244 3.18945 174.925 3.34082 175.481 3.64355C176.038 3.94629 176.47 4.36621 176.778 4.90332C177.09 5.43555 177.283 6.05322 177.356 6.75635H175.95C175.882 6.2583 175.755 5.83105 175.569 5.47461C175.384 5.11328 175.12 4.83496 174.778 4.63965C174.437 4.44434 173.99 4.34668 173.438 4.34668C172.964 4.34668 172.547 4.43701 172.186 4.61768C171.829 4.79834 171.529 5.05469 171.285 5.38672C171.045 5.71875 170.865 6.1167 170.743 6.58057C170.621 7.04443 170.56 7.55957 170.56 8.12598V9.20264C170.56 9.7251 170.613 10.2158 170.721 10.6748C170.833 11.1338 171.001 11.5366 171.226 11.8833C171.451 12.23 171.736 12.5034 172.083 12.7036C172.43 12.8989 172.84 12.9966 173.313 12.9966C173.914 12.9966 174.393 12.9014 174.749 12.7109C175.105 12.5205 175.374 12.2471 175.555 11.8906C175.74 11.5342 175.872 11.1069 175.95 10.6089ZM183.75 12.645V8.56543C183.75 8.25293 183.687 7.98193 183.56 7.75244C183.438 7.51807 183.252 7.3374 183.003 7.21045C182.754 7.0835 182.447 7.02002 182.081 7.02002C181.739 7.02002 181.438 7.07861 181.18 7.1958C180.926 7.31299 180.726 7.4668 180.579 7.65723C180.438 7.84766 180.367 8.05273 180.367 8.27246H179.012C179.012 7.98926 179.085 7.7085 179.231 7.43018C179.378 7.15186 179.588 6.90039 179.861 6.67578C180.14 6.44629 180.472 6.26562 180.857 6.13379C181.248 5.99707 181.683 5.92871 182.161 5.92871C182.737 5.92871 183.245 6.02637 183.685 6.22168C184.129 6.41699 184.476 6.7124 184.725 7.10791C184.979 7.49854 185.105 7.98926 185.105 8.58008V12.2715C185.105 12.5352 185.127 12.8159 185.171 13.1138C185.22 13.4116 185.291 13.668 185.384 13.8828V14H183.97C183.902 13.8438 183.848 13.6362 183.809 13.3774C183.77 13.1138 183.75 12.8696 183.75 12.645ZM183.985 9.19531L184 10.1475H182.63C182.244 10.1475 181.9 10.1792 181.597 10.2427C181.294 10.3013 181.041 10.3916 180.835 10.5137C180.63 10.6357 180.474 10.7896 180.367 10.9751C180.259 11.1558 180.206 11.3682 180.206 11.6123C180.206 11.8613 180.262 12.0884 180.374 12.2935C180.486 12.4985 180.655 12.6621 180.879 12.7842C181.109 12.9014 181.39 12.96 181.722 12.96C182.137 12.96 182.503 12.8721 182.82 12.6963C183.138 12.5205 183.389 12.3057 183.575 12.0518C183.765 11.7979 183.868 11.5513 183.882 11.312L184.461 11.9639C184.427 12.1689 184.334 12.396 184.183 12.645C184.031 12.894 183.829 13.1333 183.575 13.3628C183.326 13.5874 183.028 13.7754 182.681 13.9268C182.339 14.0732 181.954 14.1465 181.524 14.1465C180.987 14.1465 180.516 14.0415 180.11 13.8315C179.71 13.6216 179.397 13.3408 179.173 12.9893C178.953 12.6328 178.843 12.2349 178.843 11.7954C178.843 11.3706 178.926 10.9971 179.092 10.6748C179.258 10.3477 179.498 10.0767 179.81 9.86182C180.123 9.64209 180.499 9.47607 180.938 9.36377C181.377 9.25146 181.868 9.19531 182.41 9.19531H183.985ZM188.152 6.0752L189.888 8.96094L191.646 6.0752H193.235L190.643 9.98633L193.316 14H191.749L189.917 11.0264L188.086 14H186.512L189.178 9.98633L186.592 6.0752H188.152ZM199.351 12.645V8.56543C199.351 8.25293 199.288 7.98193 199.161 7.75244C199.039 7.51807 198.853 7.3374 198.604 7.21045C198.355 7.0835 198.047 7.02002 197.681 7.02002C197.339 7.02002 197.039 7.07861 196.78 7.1958C196.526 7.31299 196.326 7.4668 196.18 7.65723C196.038 7.84766 195.967 8.05273 195.967 8.27246H194.612C194.612 7.98926 194.686 7.7085 194.832 7.43018C194.979 7.15186 195.188 6.90039 195.462 6.67578C195.74 6.44629 196.072 6.26562 196.458 6.13379C196.849 5.99707 197.283 5.92871 197.762 5.92871C198.338 5.92871 198.846 6.02637 199.285 6.22168C199.729 6.41699 200.076 6.7124 200.325 7.10791C200.579 7.49854 200.706 7.98926 200.706 8.58008V12.2715C200.706 12.5352 200.728 12.8159 200.772 13.1138C200.821 13.4116 200.892 13.668 200.984 13.8828V14H199.571C199.502 13.8438 199.449 13.6362 199.41 13.3774C199.371 13.1138 199.351 12.8696 199.351 12.645ZM199.585 9.19531L199.6 10.1475H198.23C197.845 10.1475 197.5 10.1792 197.198 10.2427C196.895 10.3013 196.641 10.3916 196.436 10.5137C196.231 10.6357 196.075 10.7896 195.967 10.9751C195.86 11.1558 195.806 11.3682 195.806 11.6123C195.806 11.8613 195.862 12.0884 195.975 12.2935C196.087 12.4985 196.255 12.6621 196.48 12.7842C196.709 12.9014 196.99 12.96 197.322 12.96C197.737 12.96 198.104 12.8721 198.421 12.6963C198.738 12.5205 198.99 12.3057 199.175 12.0518C199.366 11.7979 199.468 11.5513 199.483 11.312L200.062 11.9639C200.027 12.1689 199.935 12.396 199.783 12.645C199.632 12.894 199.429 13.1333 199.175 13.3628C198.926 13.5874 198.628 13.7754 198.282 13.9268C197.94 14.0732 197.554 14.1465 197.125 14.1465C196.587 14.1465 196.116 14.0415 195.711 13.8315C195.311 13.6216 194.998 13.3408 194.773 12.9893C194.554 12.6328 194.444 12.2349 194.444 11.7954C194.444 11.3706 194.527 10.9971 194.693 10.6748C194.859 10.3477 195.098 10.0767 195.411 9.86182C195.723 9.64209 196.099 9.47607 196.539 9.36377C196.978 9.25146 197.469 9.19531 198.011 9.19531H199.585ZM208.133 6.0752V7.1958H204.302V6.0752H208.133ZM209.327 6.0752V14H207.972V6.0752H209.327ZM203.973 6.0752H205.335L205.13 9.89844C205.096 10.4893 205.04 11.0117 204.961 11.4658C204.888 11.915 204.786 12.3008 204.654 12.623C204.527 12.9453 204.366 13.209 204.17 13.4141C203.98 13.6143 203.75 13.7632 203.482 13.8608C203.213 13.9536 202.903 14 202.552 14H202.127V12.8062L202.42 12.7842C202.63 12.7695 202.808 12.7207 202.955 12.6377C203.106 12.5547 203.233 12.4326 203.335 12.2715C203.438 12.1055 203.521 11.8931 203.584 11.6343C203.653 11.3755 203.704 11.0679 203.738 10.7114C203.777 10.355 203.807 9.93994 203.826 9.46631L203.973 6.0752ZM212.974 11.854L216.629 6.0752H217.991V14H216.629V8.22119L212.974 14H211.626V6.0752H212.974V11.854ZM225.542 9.51025V10.6089H221.353V9.51025H225.542ZM221.639 6.0752V14H220.284V6.0752H221.639ZM226.641 6.0752V14H225.279V6.0752H226.641ZM231.995 13.0332C232.317 13.0332 232.615 12.9673 232.889 12.8354C233.162 12.7036 233.387 12.5229 233.562 12.2935C233.738 12.0591 233.838 11.793 233.863 11.4951H235.152C235.127 11.9639 234.969 12.4009 234.676 12.8062C234.388 13.2065 234.009 13.5312 233.541 13.7803C233.072 14.0244 232.557 14.1465 231.995 14.1465C231.399 14.1465 230.879 14.0415 230.435 13.8315C229.996 13.6216 229.629 13.3335 229.336 12.9673C229.048 12.6011 228.831 12.1812 228.685 11.7075C228.543 11.229 228.472 10.7236 228.472 10.1914V9.88379C228.472 9.35156 228.543 8.84863 228.685 8.375C228.831 7.89648 229.048 7.47412 229.336 7.10791C229.629 6.7417 229.996 6.45361 230.435 6.24365C230.879 6.03369 231.399 5.92871 231.995 5.92871C232.615 5.92871 233.157 6.05566 233.621 6.30957C234.085 6.55859 234.449 6.90039 234.712 7.33496C234.981 7.76465 235.127 8.25293 235.152 8.7998H233.863C233.838 8.47266 233.746 8.17725 233.584 7.91357C233.428 7.6499 233.213 7.43994 232.94 7.28369C232.671 7.12256 232.356 7.04199 231.995 7.04199C231.58 7.04199 231.231 7.125 230.948 7.29102C230.669 7.45215 230.447 7.67188 230.281 7.9502C230.12 8.22363 230.003 8.52881 229.93 8.86572C229.861 9.19775 229.827 9.53711 229.827 9.88379V10.1914C229.827 10.5381 229.861 10.8799 229.93 11.2168C229.998 11.5537 230.113 11.8589 230.274 12.1323C230.44 12.4058 230.662 12.6255 230.94 12.7915C231.224 12.9526 231.575 13.0332 231.995 13.0332ZM238.147 6.0752V14H236.792V6.0752H238.147ZM243.348 6.0752L239.59 10.6162H237.693L237.488 9.42969H239.041L241.7 6.0752H243.348ZM241.89 14L238.975 10.4111L239.847 9.42969L243.611 14H241.89Z" fill="white"/>
<path d="M116.676 118.609H118.082C118.009 119.283 117.816 119.886 117.503 120.418C117.191 120.95 116.749 121.373 116.178 121.685C115.606 121.993 114.894 122.146 114.039 122.146C113.414 122.146 112.845 122.029 112.333 121.795C111.825 121.561 111.388 121.229 111.021 120.799C110.655 120.364 110.372 119.844 110.172 119.239C109.977 118.628 109.879 117.95 109.879 117.203V116.141C109.879 115.394 109.977 114.717 110.172 114.112C110.372 113.501 110.658 112.979 111.029 112.544C111.405 112.11 111.856 111.775 112.384 111.541C112.911 111.307 113.504 111.189 114.164 111.189C114.969 111.189 115.65 111.341 116.207 111.644C116.764 111.946 117.196 112.366 117.503 112.903C117.816 113.436 118.009 114.053 118.082 114.756H116.676C116.607 114.258 116.48 113.831 116.295 113.475C116.109 113.113 115.846 112.835 115.504 112.64C115.162 112.444 114.715 112.347 114.164 112.347C113.69 112.347 113.272 112.437 112.911 112.618C112.555 112.798 112.254 113.055 112.01 113.387C111.771 113.719 111.59 114.117 111.468 114.581C111.346 115.044 111.285 115.56 111.285 116.126V117.203C111.285 117.725 111.339 118.216 111.446 118.675C111.559 119.134 111.727 119.537 111.952 119.883C112.176 120.23 112.462 120.503 112.809 120.704C113.155 120.899 113.565 120.997 114.039 120.997C114.64 120.997 115.118 120.901 115.475 120.711C115.831 120.521 116.1 120.247 116.28 119.891C116.466 119.534 116.598 119.107 116.676 118.609ZM128.153 111.336V122H126.747V112.493H121.488V122H120.074V111.336H128.153ZM137.33 111.336V112.493H132.188V122H130.782V111.336H137.33ZM150.931 111.336V122H149.525V112.493H144.266V122H142.853V111.336H150.931ZM154.645 115.599V125.047H153.282V114.075H154.527L154.645 115.599ZM159.984 117.972V118.125C159.984 118.702 159.916 119.236 159.779 119.729C159.642 120.218 159.442 120.643 159.178 121.004C158.919 121.365 158.6 121.646 158.219 121.846C157.838 122.046 157.401 122.146 156.908 122.146C156.405 122.146 155.96 122.063 155.575 121.897C155.189 121.731 154.862 121.49 154.593 121.172C154.325 120.855 154.11 120.474 153.949 120.03C153.792 119.585 153.685 119.085 153.626 118.528V117.708C153.685 117.122 153.795 116.597 153.956 116.133C154.117 115.669 154.33 115.274 154.593 114.947C154.862 114.615 155.187 114.363 155.567 114.192C155.948 114.017 156.388 113.929 156.886 113.929C157.384 113.929 157.826 114.026 158.211 114.222C158.597 114.412 158.922 114.686 159.186 115.042C159.449 115.398 159.647 115.826 159.779 116.324C159.916 116.817 159.984 117.366 159.984 117.972ZM158.622 118.125V117.972C158.622 117.576 158.58 117.205 158.497 116.858C158.414 116.507 158.285 116.199 158.109 115.936C157.938 115.667 157.718 115.457 157.45 115.306C157.181 115.149 156.861 115.071 156.49 115.071C156.148 115.071 155.851 115.13 155.597 115.247C155.348 115.364 155.135 115.523 154.959 115.723C154.784 115.918 154.64 116.143 154.527 116.397C154.42 116.646 154.339 116.905 154.286 117.173V119.07C154.383 119.412 154.52 119.734 154.696 120.037C154.872 120.335 155.106 120.577 155.399 120.762C155.692 120.943 156.061 121.033 156.505 121.033C156.871 121.033 157.186 120.958 157.45 120.806C157.718 120.65 157.938 120.438 158.109 120.169C158.285 119.9 158.414 119.593 158.497 119.246C158.58 118.895 158.622 118.521 158.622 118.125ZM163.177 119.854L166.832 114.075H168.194V122H166.832V116.221L163.177 122H161.83V114.075H163.177V119.854ZM175.489 114.075V115.196H171.827V122H170.472V114.075H175.489ZM176.163 118.125V117.957C176.163 117.386 176.246 116.856 176.412 116.368C176.578 115.875 176.817 115.447 177.13 115.086C177.442 114.72 177.821 114.437 178.265 114.236C178.709 114.031 179.208 113.929 179.759 113.929C180.316 113.929 180.816 114.031 181.261 114.236C181.71 114.437 182.091 114.72 182.403 115.086C182.721 115.447 182.962 115.875 183.128 116.368C183.294 116.856 183.377 117.386 183.377 117.957V118.125C183.377 118.697 183.294 119.227 183.128 119.715C182.962 120.203 182.721 120.63 182.403 120.997C182.091 121.358 181.712 121.641 181.268 121.846C180.829 122.046 180.331 122.146 179.774 122.146C179.217 122.146 178.717 122.046 178.272 121.846C177.828 121.641 177.447 121.358 177.13 120.997C176.817 120.63 176.578 120.203 176.412 119.715C176.246 119.227 176.163 118.697 176.163 118.125ZM177.518 117.957V118.125C177.518 118.521 177.564 118.895 177.657 119.246C177.75 119.593 177.889 119.9 178.075 120.169C178.265 120.438 178.502 120.65 178.785 120.806C179.068 120.958 179.398 121.033 179.774 121.033C180.145 121.033 180.47 120.958 180.748 120.806C181.031 120.65 181.266 120.438 181.451 120.169C181.637 119.9 181.776 119.593 181.869 119.246C181.966 118.895 182.015 118.521 182.015 118.125V117.957C182.015 117.566 181.966 117.198 181.869 116.851C181.776 116.5 181.634 116.189 181.444 115.921C181.258 115.647 181.024 115.433 180.741 115.276C180.462 115.12 180.135 115.042 179.759 115.042C179.388 115.042 179.061 115.12 178.778 115.276C178.5 115.433 178.265 115.647 178.075 115.921C177.889 116.189 177.75 116.5 177.657 116.851C177.564 117.198 177.518 117.566 177.518 117.957ZM186.432 115.599V125.047H185.069V114.075H186.314L186.432 115.599ZM191.771 117.972V118.125C191.771 118.702 191.703 119.236 191.566 119.729C191.429 120.218 191.229 120.643 190.965 121.004C190.707 121.365 190.387 121.646 190.006 121.846C189.625 122.046 189.188 122.146 188.695 122.146C188.192 122.146 187.748 122.063 187.362 121.897C186.976 121.731 186.649 121.49 186.38 121.172C186.112 120.855 185.897 120.474 185.736 120.03C185.58 119.585 185.472 119.085 185.414 118.528V117.708C185.472 117.122 185.582 116.597 185.743 116.133C185.904 115.669 186.117 115.274 186.38 114.947C186.649 114.615 186.974 114.363 187.354 114.192C187.735 114.017 188.175 113.929 188.673 113.929C189.171 113.929 189.613 114.026 189.999 114.222C190.384 114.412 190.709 114.686 190.973 115.042C191.236 115.398 191.434 115.826 191.566 116.324C191.703 116.817 191.771 117.366 191.771 117.972ZM190.409 118.125V117.972C190.409 117.576 190.367 117.205 190.284 116.858C190.201 116.507 190.072 116.199 189.896 115.936C189.725 115.667 189.505 115.457 189.237 115.306C188.968 115.149 188.648 115.071 188.277 115.071C187.936 115.071 187.638 115.13 187.384 115.247C187.135 115.364 186.922 115.523 186.747 115.723C186.571 115.918 186.427 116.143 186.314 116.397C186.207 116.646 186.126 116.905 186.073 117.173V119.07C186.17 119.412 186.307 119.734 186.483 120.037C186.659 120.335 186.893 120.577 187.186 120.762C187.479 120.943 187.848 121.033 188.292 121.033C188.658 121.033 188.973 120.958 189.237 120.806C189.505 120.65 189.725 120.438 189.896 120.169C190.072 119.9 190.201 119.593 190.284 119.246C190.367 118.895 190.409 118.521 190.409 118.125ZM193.141 118.125V117.957C193.141 117.386 193.224 116.856 193.39 116.368C193.556 115.875 193.795 115.447 194.107 115.086C194.42 114.72 194.798 114.437 195.243 114.236C195.687 114.031 196.185 113.929 196.737 113.929C197.293 113.929 197.794 114.031 198.238 114.236C198.688 114.437 199.068 114.72 199.381 115.086C199.698 115.447 199.94 115.875 200.106 116.368C200.272 116.856 200.355 117.386 200.355 117.957V118.125C200.355 118.697 200.272 119.227 200.106 119.715C199.94 120.203 199.698 120.63 199.381 120.997C199.068 121.358 198.69 121.641 198.246 121.846C197.806 122.046 197.308 122.146 196.751 122.146C196.195 122.146 195.694 122.046 195.25 121.846C194.806 121.641 194.425 121.358 194.107 120.997C193.795 120.63 193.556 120.203 193.39 119.715C193.224 119.227 193.141 118.697 193.141 118.125ZM194.496 117.957V118.125C194.496 118.521 194.542 118.895 194.635 119.246C194.728 119.593 194.867 119.9 195.052 120.169C195.243 120.438 195.479 120.65 195.763 120.806C196.046 120.958 196.375 121.033 196.751 121.033C197.123 121.033 197.447 120.958 197.726 120.806C198.009 120.65 198.243 120.438 198.429 120.169C198.614 119.9 198.753 119.593 198.846 119.246C198.944 118.895 198.993 118.521 198.993 118.125V117.957C198.993 117.566 198.944 117.198 198.846 116.851C198.753 116.5 198.612 116.189 198.421 115.921C198.236 115.647 198.001 115.433 197.718 115.276C197.44 115.12 197.113 115.042 196.737 115.042C196.366 115.042 196.039 115.12 195.755 115.276C195.477 115.433 195.243 115.647 195.052 115.921C194.867 116.189 194.728 116.5 194.635 116.851C194.542 117.198 194.496 117.566 194.496 117.957ZM202.955 114.075H204.31L204.193 117.042C204.164 117.793 204.078 118.443 203.937 118.99C203.795 119.537 203.614 120.003 203.395 120.389C203.175 120.77 202.928 121.089 202.655 121.348C202.386 121.607 202.108 121.824 201.82 122H201.146L201.183 120.894L201.461 120.887C201.622 120.696 201.778 120.501 201.93 120.301C202.081 120.096 202.22 119.854 202.347 119.576C202.474 119.292 202.579 118.948 202.662 118.543C202.75 118.133 202.806 117.632 202.831 117.042L202.955 114.075ZM203.292 114.075H208.06V122H206.705V115.328H203.292V114.075ZM200.838 120.887H209.078V124.336H207.723V122H202.193V124.336H200.831L200.838 120.887ZM215.956 117.51V118.609H211.766V117.51H215.956ZM212.052 114.075V122H210.697V114.075H212.052ZM217.054 114.075V122H215.692V114.075H217.054ZM218.878 118.125V117.957C218.878 117.386 218.961 116.856 219.127 116.368C219.293 115.875 219.532 115.447 219.845 115.086C220.157 114.72 220.536 114.437 220.98 114.236C221.424 114.031 221.922 113.929 222.474 113.929C223.031 113.929 223.531 114.031 223.976 114.236C224.425 114.437 224.806 114.72 225.118 115.086C225.436 115.447 225.677 115.875 225.843 116.368C226.009 116.856 226.092 117.386 226.092 117.957V118.125C226.092 118.697 226.009 119.227 225.843 119.715C225.677 120.203 225.436 120.63 225.118 120.997C224.806 121.358 224.427 121.641 223.983 121.846C223.543 122.046 223.045 122.146 222.489 122.146C221.932 122.146 221.432 122.046 220.987 121.846C220.543 121.641 220.162 121.358 219.845 120.997C219.532 120.63 219.293 120.203 219.127 119.715C218.961 119.227 218.878 118.697 218.878 118.125ZM220.233 117.957V118.125C220.233 118.521 220.279 118.895 220.372 119.246C220.465 119.593 220.604 119.9 220.79 120.169C220.98 120.438 221.217 120.65 221.5 120.806C221.783 120.958 222.113 121.033 222.489 121.033C222.86 121.033 223.185 120.958 223.463 120.806C223.746 120.65 223.98 120.438 224.166 120.169C224.352 119.9 224.491 119.593 224.583 119.246C224.681 118.895 224.73 118.521 224.73 118.125V117.957C224.73 117.566 224.681 117.198 224.583 116.851C224.491 116.5 224.349 116.189 224.159 115.921C223.973 115.647 223.739 115.433 223.456 115.276C223.177 115.12 222.85 115.042 222.474 115.042C222.103 115.042 221.776 115.12 221.493 115.276C221.214 115.433 220.98 115.647 220.79 115.921C220.604 116.189 220.465 116.5 220.372 116.851C220.279 117.198 220.233 117.566 220.233 117.957ZM231.08 122.146C230.528 122.146 230.028 122.054 229.579 121.868C229.134 121.678 228.751 121.412 228.429 121.07C228.111 120.728 227.867 120.323 227.696 119.854C227.525 119.385 227.44 118.873 227.44 118.316V118.008C227.44 117.364 227.535 116.79 227.726 116.287C227.916 115.779 228.175 115.35 228.502 114.998C228.829 114.646 229.2 114.38 229.615 114.2C230.03 114.019 230.46 113.929 230.904 113.929C231.471 113.929 231.959 114.026 232.369 114.222C232.784 114.417 233.124 114.69 233.387 115.042C233.651 115.389 233.846 115.799 233.973 116.272C234.1 116.741 234.164 117.254 234.164 117.811V118.418H228.246V117.312H232.809V117.21C232.789 116.858 232.716 116.517 232.589 116.185C232.467 115.853 232.271 115.579 232.003 115.364C231.734 115.149 231.368 115.042 230.904 115.042C230.597 115.042 230.313 115.108 230.055 115.24C229.796 115.367 229.574 115.557 229.388 115.811C229.203 116.065 229.059 116.375 228.956 116.741C228.854 117.107 228.802 117.53 228.802 118.008V118.316C228.802 118.692 228.854 119.046 228.956 119.378C229.063 119.705 229.217 119.993 229.417 120.242C229.623 120.491 229.869 120.687 230.157 120.828C230.45 120.97 230.782 121.041 231.153 121.041C231.632 121.041 232.037 120.943 232.369 120.748C232.701 120.552 232.992 120.291 233.241 119.964L234.061 120.616C233.89 120.875 233.673 121.121 233.409 121.355C233.146 121.59 232.821 121.78 232.435 121.927C232.054 122.073 231.603 122.146 231.08 122.146Z" fill="white"/>
<path d="M167.396 25.2124C166.966 32.6703 159.653 36.8296 141.156 48.877L106.743 81.5771M106.743 81.5771C104.592 84.589 114.486 96.6364 101.151 104.811C96.4189 106.533 91.6871 103.09 93.8379 113.847C94.6982 120.301 98.8278 136.135 106.743 151.28C114.658 166.425 95.1284 184.267 84.3742 191.295M106.743 81.5771C100.517 73.9365 85.0074 59.2256 72.7709 61.507C60.5345 63.7883 45.8957 58.3096 40.1058 55.285C36.7356 53.5245 33.6247 59.0182 31.5507 57.359C30.5137 56.7541 28.0768 54.9739 26.625 52.6926" stroke="#FF6C01" stroke-width="2"/>
<path d="M72.3262 209.796C77.1749 203.056 73.4411 198.296 75.8787 196.575L84.3708 191.295C88.8376 188.376 94.8184 183.591 99.7177 177.909C106.614 169.911 111.367 160.135 106.739 151.28C99.6648 137.743 95.6145 123.656 94.2197 116.208M99.7179 177.909C94.8186 183.591 88.8378 188.376 84.371 191.295" stroke="white" stroke-width="2"/>
<path d="M72.3262 209.796C77.1749 203.056 73.4411 198.296 75.8787 196.575L84.3708 191.295C88.8376 188.376 94.8184 183.591 99.7177 177.909" stroke="#828282" stroke-width="2"/>
<path d="M99.9883 177.65C108.63 178.86 127.209 180.553 132.394 177.65C137.579 174.746 150.109 170.737 155.726 169.095" stroke="#828282" stroke-width="2"/>
<path d="M75.8787 196.575C73.4411 198.296 77.1749 203.056 72.3262 209.796" stroke="#838383" stroke-width="1.55548"/>
<circle cx="168.803" cy="25.0645" r="4" fill="#FF6C01"/>
<circle cx="27" cy="52" r="4" fill="#FF6C01"/>
<circle cx="73.3984" cy="210.167" r="4" fill="#838383"/>
<circle cx="156.875" cy="169.724" r="4" fill="#838383"/>
<circle cx="95" cy="119" r="4" fill="#FF6C01"/>
<circle cx="101" cy="177" r="4" fill="white"/>
</svg>
