<svg width="207" height="237" viewBox="0 0 207 237" fill="none" xmlns="http://www.w3.org/2000/svg">
<path d="M7.16406 228.832H8.47656C8.4082 229.461 8.22819 230.024 7.93652 230.521C7.64486 231.017 7.23242 231.412 6.69922 231.703C6.16602 231.99 5.50065 232.134 4.70312 232.134C4.11979 232.134 3.58887 232.025 3.11035 231.806C2.63639 231.587 2.22852 231.277 1.88672 230.876C1.54492 230.47 1.2806 229.985 1.09375 229.42C0.911458 228.85 0.820312 228.217 0.820312 227.52V226.528C0.820312 225.831 0.911458 225.2 1.09375 224.635C1.2806 224.065 1.5472 223.578 1.89355 223.172C2.24447 222.766 2.66602 222.454 3.1582 222.235C3.65039 222.017 4.2041 221.907 4.81934 221.907C5.57129 221.907 6.20703 222.049 6.72656 222.331C7.24609 222.614 7.64941 223.006 7.93652 223.507C8.22819 224.004 8.4082 224.58 8.47656 225.236H7.16406C7.10026 224.772 6.98177 224.373 6.80859 224.04C6.63542 223.703 6.38932 223.443 6.07031 223.261C5.7513 223.079 5.33431 222.987 4.81934 222.987C4.37728 222.987 3.98763 223.072 3.65039 223.24C3.31771 223.409 3.03743 223.648 2.80957 223.958C2.58626 224.268 2.41764 224.639 2.30371 225.072C2.18978 225.505 2.13281 225.986 2.13281 226.515V227.52C2.13281 228.007 2.18294 228.465 2.2832 228.894C2.38802 229.322 2.54525 229.698 2.75488 230.022C2.96452 230.345 3.23112 230.6 3.55469 230.787C3.87826 230.97 4.26107 231.061 4.70312 231.061C5.26367 231.061 5.71029 230.972 6.04297 230.794C6.37565 230.616 6.6263 230.361 6.79492 230.028C6.9681 229.696 7.09115 229.297 7.16406 228.832ZM13.1523 232.134C12.6374 232.134 12.1702 232.047 11.751 231.874C11.3363 231.696 10.9785 231.448 10.6777 231.129C10.3815 230.81 10.1536 230.432 9.99414 229.994C9.83464 229.557 9.75488 229.078 9.75488 228.559V228.272C9.75488 227.67 9.84375 227.135 10.0215 226.665C10.1992 226.191 10.4408 225.79 10.7461 225.462C11.0514 225.134 11.3978 224.886 11.7852 224.717C12.1725 224.548 12.5736 224.464 12.9883 224.464C13.5169 224.464 13.9727 224.555 14.3555 224.737C14.7428 224.92 15.0596 225.175 15.3057 225.503C15.5518 225.827 15.734 226.209 15.8525 226.651C15.971 227.089 16.0303 227.568 16.0303 228.087V228.654H10.5068V227.622H14.7656V227.526C14.7474 227.198 14.679 226.879 14.5605 226.569C14.4466 226.26 14.2643 226.004 14.0137 225.804C13.763 225.603 13.4212 225.503 12.9883 225.503C12.7012 225.503 12.4368 225.565 12.1953 225.688C11.9538 225.806 11.7464 225.984 11.5732 226.221C11.4001 226.458 11.2656 226.747 11.1699 227.089C11.0742 227.431 11.0264 227.825 11.0264 228.272V228.559C11.0264 228.91 11.0742 229.24 11.1699 229.55C11.2702 229.855 11.4137 230.124 11.6006 230.357C11.792 230.589 12.0221 230.771 12.291 230.903C12.5645 231.036 12.8743 231.102 13.2207 231.102C13.6673 231.102 14.0456 231.011 14.3555 230.828C14.6654 230.646 14.9365 230.402 15.1689 230.097L15.9346 230.705C15.7751 230.947 15.5723 231.177 15.3262 231.396C15.0801 231.614 14.777 231.792 14.417 231.929C14.0615 232.066 13.64 232.134 13.1523 232.134ZM22.4492 224.601V225.647H18.874V224.601H22.4492ZM23.5635 224.601V231.997H22.2988V224.601H23.5635ZM18.5664 224.601H19.8379L19.6465 228.169C19.6146 228.72 19.5622 229.208 19.4893 229.632C19.4209 230.051 19.3252 230.411 19.2021 230.712C19.0837 231.013 18.9333 231.259 18.751 231.45C18.5732 231.637 18.359 231.776 18.1084 231.867C17.8577 231.954 17.5684 231.997 17.2402 231.997H16.8438V230.883L17.1172 230.862C17.3132 230.849 17.4795 230.803 17.6162 230.726C17.7575 230.648 17.876 230.534 17.9717 230.384C18.0674 230.229 18.1449 230.031 18.2041 229.789C18.2679 229.548 18.3158 229.261 18.3477 228.928C18.3841 228.595 18.4115 228.208 18.4297 227.766L18.5664 224.601ZM25.2656 228.381V228.224C25.2656 227.691 25.3431 227.196 25.498 226.74C25.653 226.28 25.8763 225.881 26.168 225.544C26.4596 225.202 26.8128 224.938 27.2275 224.751C27.6423 224.56 28.1071 224.464 28.6221 224.464C29.1416 224.464 29.6087 224.56 30.0234 224.751C30.4427 224.938 30.7982 225.202 31.0898 225.544C31.3861 225.881 31.6117 226.28 31.7666 226.74C31.9215 227.196 31.999 227.691 31.999 228.224V228.381C31.999 228.914 31.9215 229.409 31.7666 229.864C31.6117 230.32 31.3861 230.719 31.0898 231.061C30.7982 231.398 30.445 231.662 30.0303 231.854C29.6201 232.04 29.1553 232.134 28.6357 232.134C28.1162 232.134 27.6491 232.04 27.2344 231.854C26.8197 231.662 26.4642 231.398 26.168 231.061C25.8763 230.719 25.653 230.32 25.498 229.864C25.3431 229.409 25.2656 228.914 25.2656 228.381ZM26.5303 228.224V228.381C26.5303 228.75 26.5736 229.099 26.6602 229.427C26.7467 229.75 26.8766 230.038 27.0498 230.288C27.2275 230.539 27.4486 230.737 27.7129 230.883C27.9772 231.024 28.2848 231.095 28.6357 231.095C28.9821 231.095 29.2852 231.024 29.5449 230.883C29.8092 230.737 30.028 230.539 30.2012 230.288C30.3743 230.038 30.5042 229.75 30.5908 229.427C30.682 229.099 30.7275 228.75 30.7275 228.381V228.224C30.7275 227.859 30.682 227.515 30.5908 227.192C30.5042 226.863 30.3721 226.574 30.1943 226.323C30.0212 226.068 29.8024 225.868 29.5381 225.722C29.2783 225.576 28.973 225.503 28.6221 225.503C28.2757 225.503 27.9704 225.576 27.7061 225.722C27.4463 225.868 27.2275 226.068 27.0498 226.323C26.8766 226.574 26.7467 226.863 26.6602 227.192C26.5736 227.515 26.5303 227.859 26.5303 228.224ZM43.75 226.323V227.397H38.3633V226.323H43.75ZM38.5684 222.044V231.997H37.249V222.044H38.5684ZM44.8984 222.044V231.997H43.5859V222.044H44.8984ZM46.7168 228.381V228.224C46.7168 227.691 46.7943 227.196 46.9492 226.74C47.1042 226.28 47.3275 225.881 47.6191 225.544C47.9108 225.202 48.264 224.938 48.6787 224.751C49.0934 224.56 49.5583 224.464 50.0732 224.464C50.5928 224.464 51.0599 224.56 51.4746 224.751C51.8939 224.938 52.2493 225.202 52.541 225.544C52.8372 225.881 53.0628 226.28 53.2178 226.74C53.3727 227.196 53.4502 227.691 53.4502 228.224V228.381C53.4502 228.914 53.3727 229.409 53.2178 229.864C53.0628 230.32 52.8372 230.719 52.541 231.061C52.2493 231.398 51.8962 231.662 51.4814 231.854C51.0713 232.04 50.6064 232.134 50.0869 232.134C49.5674 232.134 49.1003 232.04 48.6855 231.854C48.2708 231.662 47.9154 231.398 47.6191 231.061C47.3275 230.719 47.1042 230.32 46.9492 229.864C46.7943 229.409 46.7168 228.914 46.7168 228.381ZM47.9814 228.224V228.381C47.9814 228.75 48.0247 229.099 48.1113 229.427C48.1979 229.75 48.3278 230.038 48.501 230.288C48.6787 230.539 48.8997 230.737 49.1641 230.883C49.4284 231.024 49.736 231.095 50.0869 231.095C50.4333 231.095 50.7363 231.024 50.9961 230.883C51.2604 230.737 51.4792 230.539 51.6523 230.288C51.8255 230.038 51.9554 229.75 52.042 229.427C52.1331 229.099 52.1787 228.75 52.1787 228.381V228.224C52.1787 227.859 52.1331 227.515 52.042 227.192C51.9554 226.863 51.8232 226.574 51.6455 226.323C51.4723 226.068 51.2536 225.868 50.9893 225.722C50.7295 225.576 50.4242 225.503 50.0732 225.503C49.7269 225.503 49.4215 225.576 49.1572 225.722C48.8975 225.868 48.6787 226.068 48.501 226.323C48.3278 226.574 48.1979 226.863 48.1113 227.192C48.0247 227.515 47.9814 227.859 47.9814 228.224ZM58.5088 228.743H56.082L56.0684 227.732H58.0508C58.4427 227.732 58.7686 227.693 59.0283 227.615C59.2926 227.538 59.4909 227.422 59.623 227.267C59.7552 227.112 59.8213 226.92 59.8213 226.693C59.8213 226.515 59.7826 226.36 59.7051 226.228C59.6322 226.091 59.5205 225.979 59.3701 225.893C59.2197 225.802 59.0329 225.735 58.8096 225.694C58.5908 225.649 58.3333 225.626 58.0371 225.626H56.417V231.997H55.1523V224.601H58.0371C58.5065 224.601 58.9281 224.642 59.3018 224.724C59.68 224.806 60.0013 224.931 60.2656 225.1C60.5345 225.264 60.7396 225.473 60.8809 225.729C61.0221 225.984 61.0928 226.285 61.0928 226.631C61.0928 226.854 61.0472 227.066 60.9561 227.267C60.8649 227.467 60.7305 227.645 60.5527 227.8C60.375 227.955 60.1562 228.082 59.8965 228.183C59.6367 228.278 59.3382 228.34 59.001 228.367L58.5088 228.743ZM58.5088 231.997H55.624L56.2529 230.972H58.5088C58.8597 230.972 59.1514 230.929 59.3838 230.842C59.6162 230.751 59.7894 230.623 59.9033 230.459C60.0218 230.29 60.0811 230.09 60.0811 229.858C60.0811 229.625 60.0218 229.427 59.9033 229.263C59.7894 229.094 59.6162 228.967 59.3838 228.88C59.1514 228.789 58.8597 228.743 58.5088 228.743H56.5879L56.6016 227.732H59.001L59.459 228.114C59.8646 228.146 60.2087 228.247 60.4912 228.415C60.7738 228.584 60.988 228.798 61.1338 229.058C61.2796 229.313 61.3525 229.591 61.3525 229.892C61.3525 230.238 61.2865 230.543 61.1543 230.808C61.0267 231.072 60.8398 231.293 60.5938 231.471C60.3477 231.644 60.0492 231.776 59.6982 231.867C59.3473 231.954 58.9508 231.997 58.5088 231.997ZM64.415 229.994L67.8262 224.601H69.0977V231.997H67.8262V226.604L64.415 231.997H63.1572V224.601H64.415V229.994ZM72.502 224.601V231.997H71.2373V224.601H72.502ZM77.3555 224.601L73.8486 228.839H72.0781L71.8867 227.732H73.3359L75.8174 224.601H77.3555ZM75.9951 231.997L73.2744 228.648L74.0879 227.732L77.6016 231.997H75.9951ZM78.2168 228.381V228.224C78.2168 227.691 78.2943 227.196 78.4492 226.74C78.6042 226.28 78.8275 225.881 79.1191 225.544C79.4108 225.202 79.764 224.938 80.1787 224.751C80.5934 224.56 81.0583 224.464 81.5732 224.464C82.0928 224.464 82.5599 224.56 82.9746 224.751C83.3939 224.938 83.7493 225.202 84.041 225.544C84.3372 225.881 84.5628 226.28 84.7178 226.74C84.8727 227.196 84.9502 227.691 84.9502 228.224V228.381C84.9502 228.914 84.8727 229.409 84.7178 229.864C84.5628 230.32 84.3372 230.719 84.041 231.061C83.7493 231.398 83.3962 231.662 82.9814 231.854C82.5713 232.04 82.1064 232.134 81.5869 232.134C81.0674 232.134 80.6003 232.04 80.1855 231.854C79.7708 231.662 79.4154 231.398 79.1191 231.061C78.8275 230.719 78.6042 230.32 78.4492 229.864C78.2943 229.409 78.2168 228.914 78.2168 228.381ZM79.4814 228.224V228.381C79.4814 228.75 79.5247 229.099 79.6113 229.427C79.6979 229.75 79.8278 230.038 80.001 230.288C80.1787 230.539 80.3997 230.737 80.6641 230.883C80.9284 231.024 81.236 231.095 81.5869 231.095C81.9333 231.095 82.2363 231.024 82.4961 230.883C82.7604 230.737 82.9792 230.539 83.1523 230.288C83.3255 230.038 83.4554 229.75 83.542 229.427C83.6331 229.099 83.6787 228.75 83.6787 228.381V228.224C83.6787 227.859 83.6331 227.515 83.542 227.192C83.4554 226.863 83.3232 226.574 83.1455 226.323C82.9723 226.068 82.7536 225.868 82.4893 225.722C82.2295 225.576 81.9242 225.503 81.5732 225.503C81.2269 225.503 80.9215 225.576 80.6572 225.722C80.3975 225.868 80.1787 226.068 80.001 226.323C79.8278 226.574 79.6979 226.863 79.6113 227.192C79.5247 227.515 79.4814 227.859 79.4814 228.224ZM90.0088 228.743H87.582L87.5684 227.732H89.5508C89.9427 227.732 90.2686 227.693 90.5283 227.615C90.7926 227.538 90.9909 227.422 91.123 227.267C91.2552 227.112 91.3213 226.92 91.3213 226.693C91.3213 226.515 91.2826 226.36 91.2051 226.228C91.1322 226.091 91.0205 225.979 90.8701 225.893C90.7197 225.802 90.5329 225.735 90.3096 225.694C90.0908 225.649 89.8333 225.626 89.5371 225.626H87.917V231.997H86.6523V224.601H89.5371C90.0065 224.601 90.4281 224.642 90.8018 224.724C91.18 224.806 91.5013 224.931 91.7656 225.1C92.0345 225.264 92.2396 225.473 92.3809 225.729C92.5221 225.984 92.5928 226.285 92.5928 226.631C92.5928 226.854 92.5472 227.066 92.4561 227.267C92.3649 227.467 92.2305 227.645 92.0527 227.8C91.875 227.955 91.6562 228.082 91.3965 228.183C91.1367 228.278 90.8382 228.34 90.501 228.367L90.0088 228.743ZM90.0088 231.997H87.124L87.7529 230.972H90.0088C90.3597 230.972 90.6514 230.929 90.8838 230.842C91.1162 230.751 91.2894 230.623 91.4033 230.459C91.5218 230.29 91.5811 230.09 91.5811 229.858C91.5811 229.625 91.5218 229.427 91.4033 229.263C91.2894 229.094 91.1162 228.967 90.8838 228.88C90.6514 228.789 90.3597 228.743 90.0088 228.743H88.0879L88.1016 227.732H90.501L90.959 228.114C91.3646 228.146 91.7087 228.247 91.9912 228.415C92.2738 228.584 92.488 228.798 92.6338 229.058C92.7796 229.313 92.8525 229.591 92.8525 229.892C92.8525 230.238 92.7865 230.543 92.6543 230.808C92.5267 231.072 92.3398 231.293 92.0938 231.471C91.8477 231.644 91.5492 231.776 91.1982 231.867C90.8473 231.954 90.4508 231.997 90.0088 231.997ZM94.2129 228.381V228.224C94.2129 227.691 94.2904 227.196 94.4453 226.74C94.6003 226.28 94.8236 225.881 95.1152 225.544C95.4069 225.202 95.7601 224.938 96.1748 224.751C96.5895 224.56 97.0544 224.464 97.5693 224.464C98.0889 224.464 98.556 224.56 98.9707 224.751C99.39 224.938 99.7454 225.202 100.037 225.544C100.333 225.881 100.559 226.28 100.714 226.74C100.869 227.196 100.946 227.691 100.946 228.224V228.381C100.946 228.914 100.869 229.409 100.714 229.864C100.559 230.32 100.333 230.719 100.037 231.061C99.7454 231.398 99.3923 231.662 98.9775 231.854C98.5674 232.04 98.1025 232.134 97.583 232.134C97.0635 232.134 96.5964 232.04 96.1816 231.854C95.7669 231.662 95.4115 231.398 95.1152 231.061C94.8236 230.719 94.6003 230.32 94.4453 229.864C94.2904 229.409 94.2129 228.914 94.2129 228.381ZM95.4775 228.224V228.381C95.4775 228.75 95.5208 229.099 95.6074 229.427C95.694 229.75 95.8239 230.038 95.9971 230.288C96.1748 230.539 96.3958 230.737 96.6602 230.883C96.9245 231.024 97.2321 231.095 97.583 231.095C97.9294 231.095 98.2324 231.024 98.4922 230.883C98.7565 230.737 98.9753 230.539 99.1484 230.288C99.3216 230.038 99.4515 229.75 99.5381 229.427C99.6292 229.099 99.6748 228.75 99.6748 228.381V228.224C99.6748 227.859 99.6292 227.515 99.5381 227.192C99.4515 226.863 99.3193 226.574 99.1416 226.323C98.9684 226.068 98.7497 225.868 98.4854 225.722C98.2256 225.576 97.9202 225.503 97.5693 225.503C97.223 225.503 96.9176 225.576 96.6533 225.722C96.3936 225.868 96.1748 226.068 95.9971 226.323C95.8239 226.574 95.694 226.863 95.6074 227.192C95.5208 227.515 95.4775 227.859 95.4775 228.224Z" fill="white"/>
<path d="M95.5703 5.61438V15.5675H94.251V5.61438H95.5703ZM97.8535 10.174V11.213H95.4883V10.174H97.8535ZM104.997 10.2765V10.9054C104.997 11.6528 104.904 12.3227 104.717 12.9152C104.53 13.5076 104.261 14.0112 103.91 14.4259C103.559 14.8406 103.138 15.1573 102.646 15.3761C102.158 15.5948 101.611 15.7042 101.005 15.7042C100.417 15.7042 99.877 15.5948 99.3848 15.3761C98.8971 15.1573 98.4733 14.8406 98.1133 14.4259C97.7578 14.0112 97.4821 13.5076 97.2861 12.9152C97.0902 12.3227 96.9922 11.6528 96.9922 10.9054V10.2765C96.9922 9.52909 97.0879 8.86145 97.2793 8.27356C97.4753 7.68111 97.751 7.17753 98.1064 6.76282C98.4619 6.34355 98.8835 6.02454 99.3711 5.80579C99.8633 5.58704 100.403 5.47766 100.991 5.47766C101.597 5.47766 102.144 5.58704 102.632 5.80579C103.124 6.02454 103.546 6.34355 103.896 6.76282C104.252 7.17753 104.523 7.68111 104.71 8.27356C104.901 8.86145 104.997 9.52909 104.997 10.2765ZM103.691 10.9054V10.2628C103.691 9.67037 103.63 9.14628 103.507 8.69055C103.388 8.23482 103.213 7.85201 102.98 7.54211C102.748 7.23222 102.463 6.99752 102.126 6.83801C101.793 6.67851 101.415 6.59875 100.991 6.59875C100.581 6.59875 100.21 6.67851 99.877 6.83801C99.5488 6.99752 99.2663 7.23222 99.0293 7.54211C98.7969 7.85201 98.6169 8.23482 98.4893 8.69055C98.3617 9.14628 98.2979 9.67037 98.2979 10.2628V10.9054C98.2979 11.5024 98.3617 12.031 98.4893 12.4913C98.6169 12.9471 98.7992 13.3322 99.0361 13.6466C99.2777 13.9565 99.5625 14.1912 99.8906 14.3507C100.223 14.5102 100.595 14.59 101.005 14.59C101.433 14.59 101.814 14.5102 102.146 14.3507C102.479 14.1912 102.759 13.9565 102.987 13.6466C103.22 13.3322 103.395 12.9471 103.514 12.4913C103.632 12.031 103.691 11.5024 103.691 10.9054ZM108.729 12.3478L105.927 8.17102H107.451L109.365 11.2335H110.842L110.657 12.3478H108.729ZM109.42 12.2179L107.273 15.5675H105.674L108.62 11.3019L109.42 12.2179ZM111.491 8.17102V15.5675H110.227V8.17102H111.491ZM115.805 8.17102L113.002 12.3478H111.074L110.876 11.2335H112.359L114.273 8.17102H115.805ZM114.451 15.5675L112.298 12.2179L113.111 11.3019L116.051 15.5675H114.451ZM122.237 11.3771V12.4025H118.327V11.3771H122.237ZM118.594 8.17102V15.5675H117.329V8.17102H118.594ZM123.263 8.17102V15.5675H121.991V8.17102H123.263ZM124.965 11.9513V11.7941C124.965 11.2609 125.042 10.7664 125.197 10.3107C125.352 9.85038 125.576 9.45162 125.867 9.11438C126.159 8.77258 126.512 8.50826 126.927 8.32141C127.341 8.13 127.806 8.0343 128.321 8.0343C128.841 8.0343 129.308 8.13 129.723 8.32141C130.142 8.50826 130.497 8.77258 130.789 9.11438C131.085 9.45162 131.311 9.85038 131.466 10.3107C131.621 10.7664 131.698 11.2609 131.698 11.7941V11.9513C131.698 12.4845 131.621 12.979 131.466 13.4347C131.311 13.8904 131.085 14.2892 130.789 14.631C130.497 14.9682 130.144 15.2325 129.729 15.424C129.319 15.6108 128.854 15.7042 128.335 15.7042C127.815 15.7042 127.348 15.6108 126.934 15.424C126.519 15.2325 126.163 14.9682 125.867 14.631C125.576 14.2892 125.352 13.8904 125.197 13.4347C125.042 12.979 124.965 12.4845 124.965 11.9513ZM126.229 11.7941V11.9513C126.229 12.3204 126.273 12.6691 126.359 12.9972C126.446 13.3208 126.576 13.6079 126.749 13.8585C126.927 14.1092 127.148 14.3074 127.412 14.4532C127.676 14.5945 127.984 14.6652 128.335 14.6652C128.681 14.6652 128.984 14.5945 129.244 14.4532C129.508 14.3074 129.727 14.1092 129.9 13.8585C130.074 13.6079 130.203 13.3208 130.29 12.9972C130.381 12.6691 130.427 12.3204 130.427 11.9513V11.7941C130.427 11.4295 130.381 11.0854 130.29 10.7618C130.203 10.4337 130.071 10.1443 129.894 9.89368C129.72 9.63847 129.502 9.43795 129.237 9.29211C128.978 9.14628 128.672 9.07336 128.321 9.07336C127.975 9.07336 127.67 9.14628 127.405 9.29211C127.146 9.43795 126.927 9.63847 126.749 9.89368C126.576 10.1443 126.446 10.4337 126.359 10.7618C126.273 11.0854 126.229 11.4295 126.229 11.7941ZM135.916 10.8165V11.8556H132.58V10.8165H135.916ZM143.354 12.4025H144.666C144.598 13.0314 144.418 13.5942 144.126 14.0909C143.834 14.5877 143.422 14.9819 142.889 15.2736C142.355 15.5607 141.69 15.7042 140.893 15.7042C140.309 15.7042 139.778 15.5948 139.3 15.3761C138.826 15.1573 138.418 14.8475 138.076 14.4464C137.734 14.0408 137.47 13.5555 137.283 12.9904C137.101 12.4207 137.01 11.7872 137.01 11.09V10.0988C137.01 9.40149 137.101 8.7703 137.283 8.2052C137.47 7.63554 137.737 7.14791 138.083 6.74231C138.434 6.33671 138.855 6.02454 139.348 5.80579C139.84 5.58704 140.394 5.47766 141.009 5.47766C141.761 5.47766 142.396 5.61894 142.916 5.90149C143.436 6.18404 143.839 6.57597 144.126 7.07727C144.418 7.57402 144.598 8.15051 144.666 8.80676H143.354C143.29 8.34192 143.171 7.94316 142.998 7.61047C142.825 7.27323 142.579 7.01347 142.26 6.83118C141.941 6.64889 141.524 6.55774 141.009 6.55774C140.567 6.55774 140.177 6.64205 139.84 6.81067C139.507 6.97929 139.227 7.21855 138.999 7.52844C138.776 7.83834 138.607 8.20976 138.493 8.6427C138.379 9.07564 138.322 9.55644 138.322 10.0851V11.09C138.322 11.5776 138.372 12.0356 138.473 12.464C138.577 12.8924 138.735 13.2684 138.944 13.5919C139.154 13.9155 139.421 14.1707 139.744 14.3575C140.068 14.5398 140.451 14.631 140.893 14.631C141.453 14.631 141.9 14.5421 142.232 14.3644C142.565 14.1866 142.816 13.9314 142.984 13.5988C143.158 13.2661 143.281 12.8673 143.354 12.4025ZM150.634 14.3029V10.4952C150.634 10.2036 150.575 9.95064 150.456 9.73645C150.342 9.5177 150.169 9.34908 149.937 9.23059C149.704 9.1121 149.417 9.05286 149.075 9.05286C148.756 9.05286 148.476 9.10754 148.234 9.21692C147.997 9.32629 147.811 9.46985 147.674 9.64758C147.542 9.82532 147.476 10.0167 147.476 10.2218H146.211C146.211 9.95748 146.279 9.69543 146.416 9.43567C146.553 9.1759 146.749 8.9412 147.004 8.73157C147.264 8.51737 147.574 8.34875 147.934 8.22571C148.298 8.0981 148.704 8.0343 149.15 8.0343C149.688 8.0343 150.162 8.12545 150.572 8.30774C150.987 8.49003 151.311 8.76575 151.543 9.13489C151.78 9.49947 151.898 9.95748 151.898 10.5089V13.9542C151.898 14.2003 151.919 14.4624 151.96 14.7404C152.006 15.0184 152.072 15.2576 152.158 15.4581V15.5675H150.839C150.775 15.4217 150.725 15.228 150.688 14.9865C150.652 14.7404 150.634 14.5125 150.634 14.3029ZM150.853 11.0831L150.866 11.9718H149.588C149.228 11.9718 148.907 12.0014 148.624 12.0607C148.341 12.1154 148.104 12.1997 147.913 12.3136C147.722 12.4275 147.576 12.5711 147.476 12.7443C147.375 12.9129 147.325 13.1111 147.325 13.339C147.325 13.5714 147.378 13.7833 147.482 13.9747C147.587 14.1661 147.744 14.3188 147.954 14.4327C148.168 14.5421 148.43 14.5968 148.74 14.5968C149.128 14.5968 149.469 14.5148 149.766 14.3507C150.062 14.1866 150.297 13.9861 150.47 13.7491C150.647 13.5122 150.743 13.282 150.757 13.0587L151.297 13.6671C151.265 13.8585 151.178 14.0704 151.037 14.3029C150.896 14.5353 150.707 14.7586 150.47 14.9728C150.237 15.1824 149.959 15.3579 149.636 15.4991C149.317 15.6359 148.957 15.7042 148.556 15.7042C148.054 15.7042 147.615 15.6062 147.236 15.4103C146.863 15.2143 146.571 14.9523 146.361 14.6241C146.156 14.2915 146.054 13.92 146.054 13.5099C146.054 13.1134 146.131 12.7648 146.286 12.464C146.441 12.1587 146.664 11.9057 146.956 11.7052C147.248 11.5001 147.599 11.3452 148.009 11.2404C148.419 11.1355 148.877 11.0831 149.383 11.0831H150.853ZM154.742 8.17102L156.362 10.8644L158.003 8.17102H159.486L157.066 11.8214L159.562 15.5675H158.099L156.39 12.7921L154.681 15.5675H153.211L155.699 11.8214L153.286 8.17102H154.742ZM165.194 14.3029V10.4952C165.194 10.2036 165.135 9.95064 165.017 9.73645C164.903 9.5177 164.729 9.34908 164.497 9.23059C164.265 9.1121 163.978 9.05286 163.636 9.05286C163.317 9.05286 163.036 9.10754 162.795 9.21692C162.558 9.32629 162.371 9.46985 162.234 9.64758C162.102 9.82532 162.036 10.0167 162.036 10.2218H160.771C160.771 9.95748 160.84 9.69543 160.977 9.43567C161.113 9.1759 161.309 8.9412 161.564 8.73157C161.824 8.51737 162.134 8.34875 162.494 8.22571C162.859 8.0981 163.264 8.0343 163.711 8.0343C164.249 8.0343 164.723 8.12545 165.133 8.30774C165.548 8.49003 165.871 8.76575 166.104 9.13489C166.34 9.49947 166.459 9.95748 166.459 10.5089V13.9542C166.459 14.2003 166.479 14.4624 166.521 14.7404C166.566 15.0184 166.632 15.2576 166.719 15.4581V15.5675H165.399C165.336 15.4217 165.285 15.228 165.249 14.9865C165.213 14.7404 165.194 14.5125 165.194 14.3029ZM165.413 11.0831L165.427 11.9718H164.148C163.788 11.9718 163.467 12.0014 163.185 12.0607C162.902 12.1154 162.665 12.1997 162.474 12.3136C162.282 12.4275 162.136 12.5711 162.036 12.7443C161.936 12.9129 161.886 13.1111 161.886 13.339C161.886 13.5714 161.938 13.7833 162.043 13.9747C162.148 14.1661 162.305 14.3188 162.515 14.4327C162.729 14.5421 162.991 14.5968 163.301 14.5968C163.688 14.5968 164.03 14.5148 164.326 14.3507C164.622 14.1866 164.857 13.9861 165.03 13.7491C165.208 13.5122 165.304 13.282 165.317 13.0587L165.857 13.6671C165.826 13.8585 165.739 14.0704 165.598 14.3029C165.456 14.5353 165.267 14.7586 165.03 14.9728C164.798 15.1824 164.52 15.3579 164.196 15.4991C163.877 15.6359 163.517 15.7042 163.116 15.7042C162.615 15.7042 162.175 15.6062 161.797 15.4103C161.423 15.2143 161.132 14.9523 160.922 14.6241C160.717 14.2915 160.614 13.92 160.614 13.5099C160.614 13.1134 160.692 12.7648 160.847 12.464C161.002 12.1587 161.225 11.9057 161.517 11.7052C161.808 11.5001 162.159 11.3452 162.569 11.2404C162.979 11.1355 163.438 11.0831 163.943 11.0831H165.413ZM173.391 8.17102V9.21692H169.815V8.17102H173.391ZM174.505 8.17102V15.5675H173.24V8.17102H174.505ZM169.508 8.17102H170.779L170.588 11.7394C170.556 12.2908 170.504 12.7784 170.431 13.2023C170.362 13.6215 170.267 13.9816 170.144 14.2823C170.025 14.5831 169.875 14.8292 169.692 15.0206C169.515 15.2075 169.3 15.3465 169.05 15.4376C168.799 15.5242 168.51 15.5675 168.182 15.5675H167.785V14.4532L168.059 14.4327C168.255 14.4191 168.421 14.3735 168.558 14.296C168.699 14.2185 168.817 14.1046 168.913 13.9542C169.009 13.7993 169.086 13.601 169.146 13.3595C169.209 13.118 169.257 12.8309 169.289 12.4982C169.326 12.1655 169.353 11.7781 169.371 11.3361L169.508 8.17102ZM177.909 13.5646L181.32 8.17102H182.592V15.5675H181.32V10.174L177.909 15.5675H176.651V8.17102H177.909V13.5646ZM189.64 11.3771V12.4025H185.729V11.3771H189.64ZM185.996 8.17102V15.5675H184.731V8.17102H185.996ZM190.665 8.17102V15.5675H189.394V8.17102H190.665ZM195.662 14.6652C195.963 14.6652 196.241 14.6036 196.496 14.4806C196.751 14.3575 196.961 14.1889 197.125 13.9747C197.289 13.756 197.382 13.5076 197.405 13.2296H198.608C198.586 13.6671 198.438 14.075 198.164 14.4532C197.895 14.8269 197.542 15.13 197.104 15.3624C196.667 15.5903 196.186 15.7042 195.662 15.7042C195.106 15.7042 194.621 15.6062 194.206 15.4103C193.796 15.2143 193.454 14.9454 193.181 14.6036C192.912 14.2618 192.709 13.8699 192.572 13.4279C192.44 12.9812 192.374 12.5096 192.374 12.0128V11.7257C192.374 11.229 192.44 10.7596 192.572 10.3175C192.709 9.87089 192.912 9.47668 193.181 9.13489C193.454 8.79309 193.796 8.52421 194.206 8.32825C194.621 8.13228 195.106 8.0343 195.662 8.0343C196.241 8.0343 196.747 8.15279 197.18 8.38977C197.613 8.62219 197.952 8.9412 198.198 9.3468C198.449 9.74784 198.586 10.2036 198.608 10.714H197.405C197.382 10.4087 197.296 10.1329 197.146 9.88684C197 9.64075 196.799 9.44478 196.544 9.29895C196.293 9.14856 195.999 9.07336 195.662 9.07336C195.275 9.07336 194.949 9.15084 194.685 9.30579C194.425 9.45618 194.217 9.66125 194.062 9.92102C193.912 10.1762 193.803 10.4611 193.734 10.7755C193.671 11.0854 193.639 11.4021 193.639 11.7257V12.0128C193.639 12.3364 193.671 12.6554 193.734 12.9698C193.798 13.2843 193.905 13.5691 194.056 13.8243C194.211 14.0795 194.418 14.2846 194.678 14.4396C194.942 14.59 195.27 14.6652 195.662 14.6652ZM201.404 8.17102V15.5675H200.14V8.17102H201.404ZM206.258 8.17102L202.751 12.4093H200.98L200.789 11.3019H202.238L204.72 8.17102H206.258ZM204.897 15.5675L202.177 12.2179L202.99 11.3019L206.504 15.5675H204.897Z" fill="white"/>
<path d="M143.476 24.9602C143.044 32.4458 135.704 36.6205 117.138 48.7127L82.5972 81.5344C80.4384 84.5574 90.369 96.6496 76.9843 104.855C72.2349 106.582 67.4855 103.128 69.6443 113.924C70.5079 120.402 74.6527 136.295 82.5972 151.496C90.5417 166.698 70.9396 184.606 60.1455 191.66" stroke="#FF6C01" stroke-width="2"/>
<path d="M76.9848 104.851C72.2355 106.578 67.486 103.123 69.6448 113.92C70.5084 120.398 74.6533 136.291 82.5978 151.492C90.5423 166.694 70.9401 184.602 60.146 191.656L51.6223 196.955C49.1757 198.683 52.9234 203.46 48.0566 210.226" stroke="white" stroke-width="2"/>
<path d="M51.6223 196.958C49.1757 198.686 52.9234 203.464 48.0566 210.229" stroke="#838383" stroke-width="2"/>
<circle cx="143.874" cy="23.7941" r="3" fill="#FF6C01"/>
<circle cx="48.1172" cy="209.591" r="3" fill="#838383"/>
<circle cx="70.4951" cy="117.474" r="3" fill="white"/>
<circle cx="76.2197" cy="177.849" r="3" fill="white"/>
</svg>
