<svg width="625" height="325" viewBox="0 0 625 325" fill="none" xmlns="http://www.w3.org/2000/svg">
<path d="M258.112 299.874C258.043 301.449 259.635 301.124 260.44 300.765C264.736 301.742 258.554 307.782 258.572 307.388C258.589 306.995 254.497 310.365 253.281 311.1C252.309 311.689 251.025 317.575 250.505 320.445C250.196 321.483 248.788 323.604 245.625 323.781C242.462 323.958 242.836 321.423 243.419 320.134C244.989 317.31 247.9 311.495 246.982 310.824C245.836 309.985 247.069 308.856 247.138 307.281C247.193 306.021 249.26 306.848 250.287 307.419C250.43 307.163 250.726 306.413 250.767 305.468C250.809 304.523 254.219 304.699 255.92 304.905C256.679 302.572 258.182 298.299 258.112 299.874Z" fill="#191C20"/>
<path d="M229.64 319.53C228.695 319.488 228.836 316.865 229.025 315.558L227.896 314.325C227.091 314.685 225.393 315.636 225.037 316.567C224.591 317.73 221.974 314.46 222.657 316.857C223.204 318.774 222.508 320.268 222.091 320.776C222.861 321.204 224.552 322.225 225.154 322.883C225.907 323.704 230.821 319.581 229.64 319.53Z" fill="#191C20"/>
<path d="M236.336 310.751C236.54 313.285 237.459 312.115 237.893 311.214C240.112 310.996 239.833 311.957 239.416 312.464C238.098 312.538 235.517 313.24 235.735 315.458C235.953 317.677 234.718 317.649 234.074 317.357C233.811 317.346 232.978 317.152 231.746 316.467C230.514 315.781 231.611 313.568 232.313 312.547L234.437 309.09C234.985 308.589 236.131 308.218 236.336 310.751Z" fill="#191C20"/>
<path d="M240.925 305.036C242.528 304.476 241.411 302.954 240.653 302.263C239.092 301.879 237.845 303.323 237.417 304.093C237.919 304.641 239.323 305.597 240.925 305.036Z" fill="#191C20"/>
<path d="M535.449 12.7549L538.833 4.20312H540.784L536.258 14.8643C536.129 15.1631 535.985 15.4531 535.827 15.7344C535.669 16.0098 535.476 16.2559 535.247 16.4727C535.019 16.6895 534.734 16.8623 534.395 16.9912C534.061 17.1201 533.645 17.1846 533.146 17.1846C533.006 17.1846 532.839 17.1758 532.646 17.1582C532.452 17.1465 532.326 17.1318 532.268 17.1143L532.32 15.7607C532.385 15.7725 532.511 15.7842 532.698 15.7959C532.886 15.8018 533.023 15.8047 533.111 15.8047C533.445 15.8047 533.709 15.7373 533.902 15.6025C534.096 15.4678 534.251 15.2979 534.368 15.0928C534.491 14.8818 534.603 14.668 534.702 14.4512L535.449 12.7549ZM532.575 4.20312L536.135 12.1748L536.557 13.748L535.133 13.8535L530.677 4.20312H532.575ZM547.807 7.49023V8.83496H543.412V17H541.786V7.49023H547.807ZM555.225 7.49023V8.83496H550.628V7.49023H555.225ZM556.657 7.49023V17H555.031V7.49023H556.657ZM550.232 7.49023H551.867L551.621 12.0781C551.58 12.7871 551.513 13.4141 551.419 13.959C551.331 14.498 551.208 14.9609 551.05 15.3477C550.897 15.7344 550.704 16.0508 550.47 16.2969C550.241 16.5371 549.966 16.7158 549.644 16.833C549.321 16.9443 548.949 17 548.527 17H548.018V15.5674L548.369 15.541C548.621 15.5234 548.835 15.4648 549.011 15.3652C549.192 15.2656 549.345 15.1191 549.468 14.9258C549.591 14.7266 549.69 14.4717 549.767 14.1611C549.849 13.8506 549.91 13.4814 549.951 13.0537C549.998 12.626 550.033 12.1279 550.057 11.5596L550.232 7.49023ZM563.223 17.1758C562.561 17.1758 561.96 17.0645 561.421 16.8418C560.888 16.6133 560.428 16.2939 560.041 15.8838C559.66 15.4736 559.367 14.9873 559.162 14.4248C558.957 13.8623 558.854 13.2471 558.854 12.5791V12.21C558.854 11.4365 558.969 10.748 559.197 10.1445C559.426 9.53516 559.736 9.01953 560.129 8.59766C560.521 8.17578 560.967 7.85645 561.465 7.63965C561.963 7.42285 562.479 7.31445 563.012 7.31445C563.691 7.31445 564.277 7.43164 564.77 7.66602C565.268 7.90039 565.675 8.22852 565.991 8.65039C566.308 9.06641 566.542 9.55859 566.694 10.127C566.847 10.6895 566.923 11.3047 566.923 11.9727V12.7021H559.821V11.375H565.297V11.252C565.273 10.8301 565.186 10.4199 565.033 10.0215C564.887 9.62305 564.652 9.29492 564.33 9.03711C564.008 8.7793 563.568 8.65039 563.012 8.65039C562.643 8.65039 562.303 8.72949 561.992 8.8877C561.682 9.04004 561.415 9.26855 561.192 9.57324C560.97 9.87793 560.797 10.25 560.674 10.6895C560.551 11.1289 560.489 11.6357 560.489 12.21V12.5791C560.489 13.0303 560.551 13.4551 560.674 13.8535C560.803 14.2461 560.987 14.5918 561.228 14.8906C561.474 15.1895 561.77 15.4238 562.115 15.5938C562.467 15.7637 562.865 15.8486 563.311 15.8486C563.885 15.8486 564.371 15.7314 564.77 15.4971C565.168 15.2627 565.517 14.9492 565.815 14.5566L566.8 15.3389C566.595 15.6494 566.334 15.9453 566.018 16.2266C565.701 16.5078 565.312 16.7363 564.849 16.9121C564.392 17.0879 563.85 17.1758 563.223 17.1758ZM574.965 7.49023V8.83496H570.57V17H568.944V7.49023H574.965ZM575.773 12.3506V12.1484C575.773 11.4629 575.873 10.8271 576.072 10.2412C576.271 9.64941 576.559 9.13672 576.934 8.70312C577.309 8.26367 577.763 7.92383 578.296 7.68359C578.829 7.4375 579.427 7.31445 580.089 7.31445C580.757 7.31445 581.357 7.4375 581.891 7.68359C582.43 7.92383 582.887 8.26367 583.262 8.70312C583.643 9.13672 583.933 9.64941 584.132 10.2412C584.331 10.8271 584.431 11.4629 584.431 12.1484V12.3506C584.431 13.0361 584.331 13.6719 584.132 14.2578C583.933 14.8438 583.643 15.3564 583.262 15.7959C582.887 16.2295 582.433 16.5693 581.899 16.8154C581.372 17.0557 580.774 17.1758 580.106 17.1758C579.438 17.1758 578.838 17.0557 578.305 16.8154C577.771 16.5693 577.314 16.2295 576.934 15.7959C576.559 15.3564 576.271 14.8438 576.072 14.2578C575.873 13.6719 575.773 13.0361 575.773 12.3506ZM577.399 12.1484V12.3506C577.399 12.8252 577.455 13.2734 577.566 13.6953C577.678 14.1113 577.845 14.4805 578.067 14.8027C578.296 15.125 578.58 15.3799 578.92 15.5674C579.26 15.749 579.655 15.8398 580.106 15.8398C580.552 15.8398 580.941 15.749 581.275 15.5674C581.615 15.3799 581.896 15.125 582.119 14.8027C582.342 14.4805 582.509 14.1113 582.62 13.6953C582.737 13.2734 582.796 12.8252 582.796 12.3506V12.1484C582.796 11.6797 582.737 11.2373 582.62 10.8213C582.509 10.3994 582.339 10.0273 582.11 9.70508C581.888 9.37695 581.606 9.11914 581.267 8.93164C580.933 8.74414 580.54 8.65039 580.089 8.65039C579.644 8.65039 579.251 8.74414 578.911 8.93164C578.577 9.11914 578.296 9.37695 578.067 9.70508C577.845 10.0273 577.678 10.3994 577.566 10.8213C577.455 11.2373 577.399 11.6797 577.399 12.1484ZM588.096 9.31836V20.6562H586.461V7.49023H587.955L588.096 9.31836ZM594.503 12.166V12.3506C594.503 13.042 594.421 13.6836 594.257 14.2754C594.093 14.8613 593.853 15.3711 593.536 15.8047C593.226 16.2383 592.842 16.5752 592.385 16.8154C591.928 17.0557 591.403 17.1758 590.812 17.1758C590.208 17.1758 589.675 17.0762 589.212 16.877C588.749 16.6777 588.356 16.3877 588.034 16.0068C587.712 15.626 587.454 15.1689 587.261 14.6357C587.073 14.1025 586.944 13.502 586.874 12.834V11.8496C586.944 11.1465 587.076 10.5166 587.27 9.95996C587.463 9.40332 587.718 8.92871 588.034 8.53613C588.356 8.1377 588.746 7.83594 589.203 7.63086C589.66 7.41992 590.188 7.31445 590.785 7.31445C591.383 7.31445 591.913 7.43164 592.376 7.66602C592.839 7.89453 593.229 8.22266 593.545 8.65039C593.861 9.07812 594.099 9.59082 594.257 10.1885C594.421 10.7803 594.503 11.4395 594.503 12.166ZM592.868 12.3506V12.166C592.868 11.6914 592.818 11.2461 592.719 10.8301C592.619 10.4082 592.464 10.0391 592.253 9.72266C592.048 9.40039 591.784 9.14844 591.462 8.9668C591.14 8.7793 590.756 8.68555 590.311 8.68555C589.9 8.68555 589.543 8.75586 589.238 8.89648C588.939 9.03711 588.685 9.22754 588.474 9.46777C588.263 9.70215 588.09 9.97168 587.955 10.2764C587.826 10.5752 587.729 10.8857 587.665 11.208V13.4844C587.782 13.8945 587.946 14.2812 588.157 14.6445C588.368 15.002 588.649 15.292 589.001 15.5146C589.353 15.7314 589.795 15.8398 590.328 15.8398C590.768 15.8398 591.146 15.749 591.462 15.5674C591.784 15.3799 592.048 15.125 592.253 14.8027C592.464 14.4805 592.619 14.1113 592.719 13.6953C592.818 13.2734 592.868 12.8252 592.868 12.3506ZM600.383 15.8398C600.77 15.8398 601.127 15.7607 601.455 15.6025C601.783 15.4443 602.053 15.2275 602.264 14.9521C602.475 14.6709 602.595 14.3516 602.624 13.9941H604.171C604.142 14.5566 603.951 15.0811 603.6 15.5674C603.254 16.0479 602.8 16.4375 602.237 16.7363C601.675 17.0293 601.057 17.1758 600.383 17.1758C599.668 17.1758 599.044 17.0498 598.511 16.7979C597.983 16.5459 597.544 16.2002 597.192 15.7607C596.847 15.3213 596.586 14.8174 596.41 14.249C596.24 13.6748 596.155 13.0684 596.155 12.4297V12.0605C596.155 11.4219 596.24 10.8184 596.41 10.25C596.586 9.67578 596.847 9.16895 597.192 8.72949C597.544 8.29004 597.983 7.94434 598.511 7.69238C599.044 7.44043 599.668 7.31445 600.383 7.31445C601.127 7.31445 601.777 7.4668 602.334 7.77148C602.891 8.07031 603.327 8.48047 603.644 9.00195C603.966 9.51758 604.142 10.1035 604.171 10.7598H602.624C602.595 10.3672 602.483 10.0127 602.29 9.69629C602.103 9.37988 601.845 9.12793 601.517 8.94043C601.194 8.74707 600.816 8.65039 600.383 8.65039C599.885 8.65039 599.466 8.75 599.126 8.94922C598.792 9.14258 598.525 9.40625 598.326 9.74023C598.133 10.0684 597.992 10.4346 597.904 10.8389C597.822 11.2373 597.781 11.6445 597.781 12.0605V12.4297C597.781 12.8457 597.822 13.2559 597.904 13.6602C597.986 14.0645 598.124 14.4307 598.317 14.7588C598.517 15.0869 598.783 15.3506 599.117 15.5498C599.457 15.7432 599.879 15.8398 600.383 15.8398ZM607.766 7.49023V17H606.14V7.49023H607.766ZM614.006 7.49023L609.497 12.9395H607.221L606.975 11.5156H608.838L612.028 7.49023H614.006ZM612.257 17L608.759 12.6934L609.805 11.5156L614.322 17H612.257Z" fill="white"/>
<path d="M543.547 55.2031H545.252V66.6201H549.646V55.2031H551.334V66.6201H555.702V55.2031H557.398V68H543.547V55.2031ZM565.792 66.374V61.4785C565.792 61.1035 565.716 60.7783 565.563 60.5029C565.417 60.2217 565.194 60.0049 564.896 59.8525C564.597 59.7002 564.228 59.624 563.788 59.624C563.378 59.624 563.018 59.6943 562.707 59.835C562.402 59.9756 562.162 60.1602 561.986 60.3887C561.816 60.6172 561.731 60.8633 561.731 61.127H560.105C560.105 60.7871 560.193 60.4502 560.369 60.1162C560.545 59.7822 560.797 59.4805 561.125 59.2109C561.459 58.9355 561.857 58.7188 562.32 58.5605C562.789 58.3965 563.311 58.3145 563.885 58.3145C564.576 58.3145 565.186 58.4316 565.713 58.666C566.246 58.9004 566.662 59.2549 566.961 59.7295C567.266 60.1982 567.418 60.7871 567.418 61.4961V65.9258C567.418 66.2422 567.444 66.5791 567.497 66.9365C567.556 67.2939 567.641 67.6016 567.752 67.8594V68H566.056C565.974 67.8125 565.909 67.5635 565.862 67.2529C565.815 66.9365 565.792 66.6436 565.792 66.374ZM566.073 62.2344L566.091 63.377H564.447C563.984 63.377 563.571 63.415 563.208 63.4912C562.845 63.5615 562.54 63.6699 562.294 63.8164C562.048 63.9629 561.86 64.1475 561.731 64.3701C561.603 64.5869 561.538 64.8418 561.538 65.1348C561.538 65.4336 561.605 65.7061 561.74 65.9521C561.875 66.1982 562.077 66.3945 562.347 66.541C562.622 66.6816 562.959 66.752 563.357 66.752C563.855 66.752 564.295 66.6465 564.676 66.4355C565.057 66.2246 565.358 65.9668 565.581 65.6621C565.81 65.3574 565.933 65.0615 565.95 64.7744L566.645 65.5566C566.604 65.8027 566.492 66.0752 566.311 66.374C566.129 66.6729 565.886 66.96 565.581 67.2354C565.282 67.5049 564.925 67.7305 564.509 67.9121C564.099 68.0879 563.636 68.1758 563.12 68.1758C562.476 68.1758 561.91 68.0498 561.424 67.7979C560.943 67.5459 560.568 67.209 560.299 66.7871C560.035 66.3594 559.903 65.8818 559.903 65.3545C559.903 64.8447 560.003 64.3965 560.202 64.0098C560.401 63.6172 560.688 63.292 561.063 63.0342C561.438 62.7705 561.89 62.5713 562.417 62.4365C562.944 62.3018 563.533 62.2344 564.184 62.2344H566.073ZM571.074 58.4902L573.157 61.9531L575.267 58.4902H577.174L574.062 63.1836L577.271 68H575.39L573.192 64.4316L570.995 68H569.105L572.305 63.1836L569.202 58.4902H571.074ZM582.781 58.4902V68H581.146V58.4902H582.781ZM585.972 58.4902V59.8086H578.018V58.4902H585.972ZM590.814 68.1758C590.152 68.1758 589.552 68.0645 589.013 67.8418C588.479 67.6133 588.02 67.2939 587.633 66.8838C587.252 66.4736 586.959 65.9873 586.754 65.4248C586.549 64.8623 586.446 64.2471 586.446 63.5791V63.21C586.446 62.4365 586.561 61.748 586.789 61.1445C587.018 60.5352 587.328 60.0195 587.721 59.5977C588.113 59.1758 588.559 58.8564 589.057 58.6396C589.555 58.4229 590.07 58.3145 590.604 58.3145C591.283 58.3145 591.869 58.4316 592.361 58.666C592.859 58.9004 593.267 59.2285 593.583 59.6504C593.899 60.0664 594.134 60.5586 594.286 61.127C594.438 61.6895 594.515 62.3047 594.515 62.9727V63.7021H587.413V62.375H592.889V62.252C592.865 61.8301 592.777 61.4199 592.625 61.0215C592.479 60.623 592.244 60.2949 591.922 60.0371C591.6 59.7793 591.16 59.6504 590.604 59.6504C590.234 59.6504 589.895 59.7295 589.584 59.8877C589.273 60.04 589.007 60.2686 588.784 60.5732C588.562 60.8779 588.389 61.25 588.266 61.6895C588.143 62.1289 588.081 62.6357 588.081 63.21V63.5791C588.081 64.0303 588.143 64.4551 588.266 64.8535C588.395 65.2461 588.579 65.5918 588.819 65.8906C589.065 66.1895 589.361 66.4238 589.707 66.5938C590.059 66.7637 590.457 66.8486 590.902 66.8486C591.477 66.8486 591.963 66.7314 592.361 66.4971C592.76 66.2627 593.108 65.9492 593.407 65.5566L594.392 66.3389C594.187 66.6494 593.926 66.9453 593.609 67.2266C593.293 67.5078 592.903 67.7363 592.44 67.9121C591.983 68.0879 591.441 68.1758 590.814 68.1758ZM598.039 60.3184V71.6562H596.404V58.4902H597.898L598.039 60.3184ZM604.446 63.166V63.3506C604.446 64.042 604.364 64.6836 604.2 65.2754C604.036 65.8613 603.796 66.3711 603.479 66.8047C603.169 67.2383 602.785 67.5752 602.328 67.8154C601.871 68.0557 601.347 68.1758 600.755 68.1758C600.151 68.1758 599.618 68.0762 599.155 67.877C598.692 67.6777 598.3 67.3877 597.978 67.0068C597.655 66.626 597.397 66.1689 597.204 65.6357C597.017 65.1025 596.888 64.502 596.817 63.834V62.8496C596.888 62.1465 597.02 61.5166 597.213 60.96C597.406 60.4033 597.661 59.9287 597.978 59.5361C598.3 59.1377 598.689 58.8359 599.146 58.6309C599.604 58.4199 600.131 58.3145 600.729 58.3145C601.326 58.3145 601.856 58.4316 602.319 58.666C602.782 58.8945 603.172 59.2227 603.488 59.6504C603.805 60.0781 604.042 60.5908 604.2 61.1885C604.364 61.7803 604.446 62.4395 604.446 63.166ZM602.812 63.3506V63.166C602.812 62.6914 602.762 62.2461 602.662 61.8301C602.562 61.4082 602.407 61.0391 602.196 60.7227C601.991 60.4004 601.728 60.1484 601.405 59.9668C601.083 59.7793 600.699 59.6855 600.254 59.6855C599.844 59.6855 599.486 59.7559 599.182 59.8965C598.883 60.0371 598.628 60.2275 598.417 60.4678C598.206 60.7021 598.033 60.9717 597.898 61.2764C597.77 61.5752 597.673 61.8857 597.608 62.208V64.4844C597.726 64.8945 597.89 65.2812 598.101 65.6445C598.312 66.002 598.593 66.292 598.944 66.5146C599.296 66.7314 599.738 66.8398 600.271 66.8398C600.711 66.8398 601.089 66.749 601.405 66.5674C601.728 66.3799 601.991 66.125 602.196 65.8027C602.407 65.4805 602.562 65.1113 602.662 64.6953C602.762 64.2734 602.812 63.8252 602.812 63.3506ZM610.326 66.8398C610.713 66.8398 611.07 66.7607 611.398 66.6025C611.727 66.4443 611.996 66.2275 612.207 65.9521C612.418 65.6709 612.538 65.3516 612.567 64.9941H614.114C614.085 65.5566 613.895 66.0811 613.543 66.5674C613.197 67.0479 612.743 67.4375 612.181 67.7363C611.618 68.0293 611 68.1758 610.326 68.1758C609.611 68.1758 608.987 68.0498 608.454 67.7979C607.927 67.5459 607.487 67.2002 607.136 66.7607C606.79 66.3213 606.529 65.8174 606.354 65.249C606.184 64.6748 606.099 64.0684 606.099 63.4297V63.0605C606.099 62.4219 606.184 61.8184 606.354 61.25C606.529 60.6758 606.79 60.1689 607.136 59.7295C607.487 59.29 607.927 58.9443 608.454 58.6924C608.987 58.4404 609.611 58.3145 610.326 58.3145C611.07 58.3145 611.721 58.4668 612.277 58.7715C612.834 59.0703 613.271 59.4805 613.587 60.002C613.909 60.5176 614.085 61.1035 614.114 61.7598H612.567C612.538 61.3672 612.427 61.0127 612.233 60.6963C612.046 60.3799 611.788 60.1279 611.46 59.9404C611.138 59.7471 610.76 59.6504 610.326 59.6504C609.828 59.6504 609.409 59.75 609.069 59.9492C608.735 60.1426 608.469 60.4062 608.27 60.7402C608.076 61.0684 607.936 61.4346 607.848 61.8389C607.766 62.2373 607.725 62.6445 607.725 63.0605V63.4297C607.725 63.8457 607.766 64.2559 607.848 64.6602C607.93 65.0645 608.067 65.4307 608.261 65.7588C608.46 66.0869 608.727 66.3506 609.061 66.5498C609.4 66.7432 609.822 66.8398 610.326 66.8398ZM617.709 58.4902V68H616.083V58.4902H617.709ZM623.949 58.4902L619.44 63.9395H617.164L616.918 62.5156H618.781L621.972 58.4902H623.949ZM622.2 68L618.702 63.6934L619.748 62.5156L624.266 68H622.2Z" fill="white"/>
<path d="M195.305 229.203V242H193.608V229.203H195.305ZM198.24 235.065V236.401H195.199V235.065H198.24ZM207.425 235.197V236.006C207.425 236.967 207.305 237.828 207.064 238.59C206.824 239.352 206.479 239.999 206.027 240.532C205.576 241.065 205.034 241.473 204.401 241.754C203.774 242.035 203.071 242.176 202.292 242.176C201.536 242.176 200.842 242.035 200.209 241.754C199.582 241.473 199.037 241.065 198.574 240.532C198.117 239.999 197.763 239.352 197.511 238.59C197.259 237.828 197.133 236.967 197.133 236.006V235.197C197.133 234.236 197.256 233.378 197.502 232.622C197.754 231.86 198.108 231.213 198.565 230.68C199.022 230.141 199.564 229.73 200.191 229.449C200.824 229.168 201.519 229.027 202.274 229.027C203.054 229.027 203.757 229.168 204.384 229.449C205.017 229.73 205.559 230.141 206.01 230.68C206.467 231.213 206.815 231.86 207.056 232.622C207.302 233.378 207.425 234.236 207.425 235.197ZM205.746 236.006V235.18C205.746 234.418 205.667 233.744 205.509 233.158C205.356 232.572 205.131 232.08 204.832 231.682C204.533 231.283 204.167 230.981 203.733 230.776C203.306 230.571 202.819 230.469 202.274 230.469C201.747 230.469 201.27 230.571 200.842 230.776C200.42 230.981 200.057 231.283 199.752 231.682C199.453 232.08 199.222 232.572 199.058 233.158C198.894 233.744 198.812 234.418 198.812 235.18V236.006C198.812 236.773 198.894 237.453 199.058 238.045C199.222 238.631 199.456 239.126 199.761 239.53C200.071 239.929 200.438 240.23 200.859 240.436C201.287 240.641 201.765 240.743 202.292 240.743C202.843 240.743 203.332 240.641 203.76 240.436C204.188 240.23 204.548 239.929 204.841 239.53C205.14 239.126 205.365 238.631 205.518 238.045C205.67 237.453 205.746 236.773 205.746 236.006ZM212.224 237.86L208.62 232.49H210.58L213.041 236.428H214.939L214.702 237.86H212.224ZM213.111 237.693L210.352 242H208.295L212.083 236.516L213.111 237.693ZM215.774 232.49V242H214.148V232.49H215.774ZM221.32 232.49L217.717 237.86H215.238L214.983 236.428H216.891L219.352 232.49H221.32ZM219.58 242L216.812 237.693L217.857 236.516L221.637 242H219.58ZM229.591 236.612V237.931H224.563V236.612H229.591ZM224.906 232.49V242H223.28V232.49H224.906ZM230.909 232.49V242H229.274V232.49H230.909ZM233.098 237.351V237.148C233.098 236.463 233.197 235.827 233.396 235.241C233.596 234.649 233.883 234.137 234.258 233.703C234.633 233.264 235.087 232.924 235.62 232.684C236.153 232.438 236.751 232.314 237.413 232.314C238.081 232.314 238.682 232.438 239.215 232.684C239.754 232.924 240.211 233.264 240.586 233.703C240.967 234.137 241.257 234.649 241.456 235.241C241.655 235.827 241.755 236.463 241.755 237.148V237.351C241.755 238.036 241.655 238.672 241.456 239.258C241.257 239.844 240.967 240.356 240.586 240.796C240.211 241.229 239.757 241.569 239.224 241.815C238.696 242.056 238.099 242.176 237.431 242.176C236.763 242.176 236.162 242.056 235.629 241.815C235.096 241.569 234.639 241.229 234.258 240.796C233.883 240.356 233.596 239.844 233.396 239.258C233.197 238.672 233.098 238.036 233.098 237.351ZM234.724 237.148V237.351C234.724 237.825 234.779 238.273 234.891 238.695C235.002 239.111 235.169 239.48 235.392 239.803C235.62 240.125 235.904 240.38 236.244 240.567C236.584 240.749 236.979 240.84 237.431 240.84C237.876 240.84 238.266 240.749 238.6 240.567C238.939 240.38 239.221 240.125 239.443 239.803C239.666 239.48 239.833 239.111 239.944 238.695C240.062 238.273 240.12 237.825 240.12 237.351V237.148C240.12 236.68 240.062 236.237 239.944 235.821C239.833 235.399 239.663 235.027 239.435 234.705C239.212 234.377 238.931 234.119 238.591 233.932C238.257 233.744 237.864 233.65 237.413 233.65C236.968 233.65 236.575 233.744 236.235 233.932C235.901 234.119 235.62 234.377 235.392 234.705C235.169 235.027 235.002 235.399 234.891 235.821C234.779 236.237 234.724 236.68 234.724 237.148ZM247.178 235.892V237.228H242.889V235.892H247.178ZM256.74 237.931H258.428C258.34 238.739 258.108 239.463 257.733 240.102C257.358 240.74 256.828 241.247 256.143 241.622C255.457 241.991 254.602 242.176 253.576 242.176C252.826 242.176 252.144 242.035 251.528 241.754C250.919 241.473 250.395 241.074 249.955 240.559C249.516 240.037 249.176 239.413 248.936 238.687C248.701 237.954 248.584 237.14 248.584 236.243V234.969C248.584 234.072 248.701 233.261 248.936 232.534C249.176 231.802 249.519 231.175 249.964 230.653C250.415 230.132 250.957 229.73 251.59 229.449C252.223 229.168 252.935 229.027 253.726 229.027C254.692 229.027 255.51 229.209 256.178 229.572C256.846 229.936 257.364 230.439 257.733 231.084C258.108 231.723 258.34 232.464 258.428 233.308H256.74C256.658 232.71 256.506 232.197 256.283 231.77C256.061 231.336 255.744 231.002 255.334 230.768C254.924 230.533 254.388 230.416 253.726 230.416C253.157 230.416 252.656 230.524 252.223 230.741C251.795 230.958 251.435 231.266 251.142 231.664C250.854 232.062 250.638 232.54 250.491 233.097C250.345 233.653 250.271 234.271 250.271 234.951V236.243C250.271 236.87 250.336 237.459 250.465 238.01C250.6 238.561 250.802 239.044 251.071 239.46C251.341 239.876 251.684 240.204 252.1 240.444C252.516 240.679 253.008 240.796 253.576 240.796C254.297 240.796 254.871 240.682 255.299 240.453C255.727 240.225 256.049 239.896 256.266 239.469C256.488 239.041 256.646 238.528 256.74 237.931ZM266.101 240.374V235.479C266.101 235.104 266.024 234.778 265.872 234.503C265.726 234.222 265.503 234.005 265.204 233.853C264.905 233.7 264.536 233.624 264.097 233.624C263.687 233.624 263.326 233.694 263.016 233.835C262.711 233.976 262.471 234.16 262.295 234.389C262.125 234.617 262.04 234.863 262.04 235.127H260.414C260.414 234.787 260.502 234.45 260.678 234.116C260.854 233.782 261.105 233.48 261.434 233.211C261.768 232.936 262.166 232.719 262.629 232.561C263.098 232.396 263.619 232.314 264.193 232.314C264.885 232.314 265.494 232.432 266.021 232.666C266.555 232.9 266.971 233.255 267.27 233.729C267.574 234.198 267.727 234.787 267.727 235.496V239.926C267.727 240.242 267.753 240.579 267.806 240.937C267.864 241.294 267.949 241.602 268.061 241.859V242H266.364C266.282 241.812 266.218 241.563 266.171 241.253C266.124 240.937 266.101 240.644 266.101 240.374ZM266.382 236.234L266.399 237.377H264.756C264.293 237.377 263.88 237.415 263.517 237.491C263.153 237.562 262.849 237.67 262.603 237.816C262.356 237.963 262.169 238.147 262.04 238.37C261.911 238.587 261.847 238.842 261.847 239.135C261.847 239.434 261.914 239.706 262.049 239.952C262.184 240.198 262.386 240.395 262.655 240.541C262.931 240.682 263.268 240.752 263.666 240.752C264.164 240.752 264.604 240.646 264.984 240.436C265.365 240.225 265.667 239.967 265.89 239.662C266.118 239.357 266.241 239.062 266.259 238.774L266.953 239.557C266.912 239.803 266.801 240.075 266.619 240.374C266.438 240.673 266.194 240.96 265.89 241.235C265.591 241.505 265.233 241.73 264.817 241.912C264.407 242.088 263.944 242.176 263.429 242.176C262.784 242.176 262.219 242.05 261.732 241.798C261.252 241.546 260.877 241.209 260.607 240.787C260.344 240.359 260.212 239.882 260.212 239.354C260.212 238.845 260.312 238.396 260.511 238.01C260.71 237.617 260.997 237.292 261.372 237.034C261.747 236.771 262.198 236.571 262.726 236.437C263.253 236.302 263.842 236.234 264.492 236.234H266.382ZM271.383 232.49L273.466 235.953L275.575 232.49H277.482L274.371 237.184L277.579 242H275.698L273.501 238.432L271.304 242H269.414L272.613 237.184L269.511 232.49H271.383ZM284.821 240.374V235.479C284.821 235.104 284.745 234.778 284.593 234.503C284.446 234.222 284.224 234.005 283.925 233.853C283.626 233.7 283.257 233.624 282.817 233.624C282.407 233.624 282.047 233.694 281.736 233.835C281.432 233.976 281.191 234.16 281.016 234.389C280.846 234.617 280.761 234.863 280.761 235.127H279.135C279.135 234.787 279.223 234.45 279.398 234.116C279.574 233.782 279.826 233.48 280.154 233.211C280.488 232.936 280.887 232.719 281.35 232.561C281.818 232.396 282.34 232.314 282.914 232.314C283.605 232.314 284.215 232.432 284.742 232.666C285.275 232.9 285.691 233.255 285.99 233.729C286.295 234.198 286.447 234.787 286.447 235.496V239.926C286.447 240.242 286.474 240.579 286.526 240.937C286.585 241.294 286.67 241.602 286.781 241.859V242H285.085C285.003 241.812 284.938 241.563 284.892 241.253C284.845 240.937 284.821 240.644 284.821 240.374ZM285.103 236.234L285.12 237.377H283.477C283.014 237.377 282.601 237.415 282.237 237.491C281.874 237.562 281.569 237.67 281.323 237.816C281.077 237.963 280.89 238.147 280.761 238.37C280.632 238.587 280.567 238.842 280.567 239.135C280.567 239.434 280.635 239.706 280.77 239.952C280.904 240.198 281.106 240.395 281.376 240.541C281.651 240.682 281.988 240.752 282.387 240.752C282.885 240.752 283.324 240.646 283.705 240.436C284.086 240.225 284.388 239.967 284.61 239.662C284.839 239.357 284.962 239.062 284.979 238.774L285.674 239.557C285.633 239.803 285.521 240.075 285.34 240.374C285.158 240.673 284.915 240.96 284.61 241.235C284.312 241.505 283.954 241.73 283.538 241.912C283.128 242.088 282.665 242.176 282.149 242.176C281.505 242.176 280.939 242.05 280.453 241.798C279.973 241.546 279.598 241.209 279.328 240.787C279.064 240.359 278.933 239.882 278.933 239.354C278.933 238.845 279.032 238.396 279.231 238.01C279.431 237.617 279.718 237.292 280.093 237.034C280.468 236.771 280.919 236.571 281.446 236.437C281.974 236.302 282.562 236.234 283.213 236.234H285.103ZM295.359 232.49V233.835H290.763V232.49H295.359ZM296.792 232.49V242H295.166V232.49H296.792ZM290.367 232.49H292.002L291.756 237.078C291.715 237.787 291.647 238.414 291.554 238.959C291.466 239.498 291.343 239.961 291.185 240.348C291.032 240.734 290.839 241.051 290.604 241.297C290.376 241.537 290.101 241.716 289.778 241.833C289.456 241.944 289.084 242 288.662 242H288.152V240.567L288.504 240.541C288.756 240.523 288.97 240.465 289.146 240.365C289.327 240.266 289.479 240.119 289.603 239.926C289.726 239.727 289.825 239.472 289.901 239.161C289.983 238.851 290.045 238.481 290.086 238.054C290.133 237.626 290.168 237.128 290.191 236.56L290.367 232.49ZM301.169 239.425L305.555 232.49H307.189V242H305.555V235.065L301.169 242H299.552V232.49H301.169V239.425ZM316.251 236.612V237.931H311.224V236.612H316.251ZM311.566 232.49V242H309.94V232.49H311.566ZM317.569 232.49V242H315.935V232.49H317.569ZM323.994 240.84C324.381 240.84 324.738 240.761 325.066 240.603C325.395 240.444 325.664 240.228 325.875 239.952C326.086 239.671 326.206 239.352 326.235 238.994H327.782C327.753 239.557 327.562 240.081 327.211 240.567C326.865 241.048 326.411 241.438 325.849 241.736C325.286 242.029 324.668 242.176 323.994 242.176C323.279 242.176 322.655 242.05 322.122 241.798C321.595 241.546 321.155 241.2 320.804 240.761C320.458 240.321 320.197 239.817 320.021 239.249C319.852 238.675 319.767 238.068 319.767 237.43V237.061C319.767 236.422 319.852 235.818 320.021 235.25C320.197 234.676 320.458 234.169 320.804 233.729C321.155 233.29 321.595 232.944 322.122 232.692C322.655 232.44 323.279 232.314 323.994 232.314C324.738 232.314 325.389 232.467 325.945 232.771C326.502 233.07 326.938 233.48 327.255 234.002C327.577 234.518 327.753 235.104 327.782 235.76H326.235C326.206 235.367 326.095 235.013 325.901 234.696C325.714 234.38 325.456 234.128 325.128 233.94C324.806 233.747 324.428 233.65 323.994 233.65C323.496 233.65 323.077 233.75 322.737 233.949C322.403 234.143 322.137 234.406 321.938 234.74C321.744 235.068 321.604 235.435 321.516 235.839C321.434 236.237 321.393 236.645 321.393 237.061V237.43C321.393 237.846 321.434 238.256 321.516 238.66C321.598 239.064 321.735 239.431 321.929 239.759C322.128 240.087 322.395 240.351 322.729 240.55C323.068 240.743 323.49 240.84 323.994 240.84ZM331.377 232.49V242H329.751V232.49H331.377ZM337.617 232.49L333.108 237.939H330.832L330.586 236.516H332.449L335.64 232.49H337.617ZM335.868 242L332.37 237.693L333.416 236.516L337.934 242H335.868Z" fill="white"/>
<path d="M249.584 166.203L252.66 171.107L255.736 166.203H257.714L253.671 172.54L257.811 179H255.815L252.66 173.999L249.505 179H247.51L251.649 172.54L247.606 166.203H249.584ZM258.9 174.351V174.148C258.9 173.463 259 172.827 259.199 172.241C259.398 171.649 259.686 171.137 260.061 170.703C260.436 170.264 260.89 169.924 261.423 169.684C261.956 169.438 262.554 169.314 263.216 169.314C263.884 169.314 264.484 169.438 265.018 169.684C265.557 169.924 266.014 170.264 266.389 170.703C266.77 171.137 267.06 171.649 267.259 172.241C267.458 172.827 267.558 173.463 267.558 174.148V174.351C267.558 175.036 267.458 175.672 267.259 176.258C267.06 176.844 266.77 177.356 266.389 177.796C266.014 178.229 265.56 178.569 265.026 178.815C264.499 179.056 263.901 179.176 263.233 179.176C262.565 179.176 261.965 179.056 261.432 178.815C260.898 178.569 260.441 178.229 260.061 177.796C259.686 177.356 259.398 176.844 259.199 176.258C259 175.672 258.9 175.036 258.9 174.351ZM260.526 174.148V174.351C260.526 174.825 260.582 175.273 260.693 175.695C260.805 176.111 260.972 176.48 261.194 176.803C261.423 177.125 261.707 177.38 262.047 177.567C262.387 177.749 262.782 177.84 263.233 177.84C263.679 177.84 264.068 177.749 264.402 177.567C264.742 177.38 265.023 177.125 265.246 176.803C265.469 176.48 265.636 176.111 265.747 175.695C265.864 175.273 265.923 174.825 265.923 174.351V174.148C265.923 173.68 265.864 173.237 265.747 172.821C265.636 172.399 265.466 172.027 265.237 171.705C265.015 171.377 264.733 171.119 264.394 170.932C264.06 170.744 263.667 170.65 263.216 170.65C262.771 170.65 262.378 170.744 262.038 170.932C261.704 171.119 261.423 171.377 261.194 171.705C260.972 172.027 260.805 172.399 260.693 172.821C260.582 173.237 260.526 173.68 260.526 174.148ZM275.811 169.49V170.835H271.214V169.49H275.811ZM277.243 169.49V179H275.617V169.49H277.243ZM270.818 169.49H272.453L272.207 174.078C272.166 174.787 272.099 175.414 272.005 175.959C271.917 176.498 271.794 176.961 271.636 177.348C271.483 177.734 271.29 178.051 271.056 178.297C270.827 178.537 270.552 178.716 270.229 178.833C269.907 178.944 269.535 179 269.113 179H268.604V177.567L268.955 177.541C269.207 177.523 269.421 177.465 269.597 177.365C269.778 177.266 269.931 177.119 270.054 176.926C270.177 176.727 270.276 176.472 270.353 176.161C270.435 175.851 270.496 175.481 270.537 175.054C270.584 174.626 270.619 174.128 270.643 173.56L270.818 169.49ZM285.329 176.838L288.563 169.49H290.128L285.892 179H284.767L280.548 169.49H282.112L285.329 176.838ZM281.638 169.49V179H280.012V169.49H281.638ZM288.968 179V169.49H290.603V179H288.968ZM297.027 177.84C297.414 177.84 297.771 177.761 298.1 177.603C298.428 177.444 298.697 177.228 298.908 176.952C299.119 176.671 299.239 176.352 299.269 175.994H300.815C300.786 176.557 300.596 177.081 300.244 177.567C299.898 178.048 299.444 178.438 298.882 178.736C298.319 179.029 297.701 179.176 297.027 179.176C296.312 179.176 295.688 179.05 295.155 178.798C294.628 178.546 294.188 178.2 293.837 177.761C293.491 177.321 293.23 176.817 293.055 176.249C292.885 175.675 292.8 175.068 292.8 174.43V174.061C292.8 173.422 292.885 172.818 293.055 172.25C293.23 171.676 293.491 171.169 293.837 170.729C294.188 170.29 294.628 169.944 295.155 169.692C295.688 169.44 296.312 169.314 297.027 169.314C297.771 169.314 298.422 169.467 298.979 169.771C299.535 170.07 299.972 170.48 300.288 171.002C300.61 171.518 300.786 172.104 300.815 172.76H299.269C299.239 172.367 299.128 172.013 298.935 171.696C298.747 171.38 298.489 171.128 298.161 170.94C297.839 170.747 297.461 170.65 297.027 170.65C296.529 170.65 296.11 170.75 295.771 170.949C295.437 171.143 295.17 171.406 294.971 171.74C294.777 172.068 294.637 172.435 294.549 172.839C294.467 173.237 294.426 173.645 294.426 174.061V174.43C294.426 174.846 294.467 175.256 294.549 175.66C294.631 176.064 294.769 176.431 294.962 176.759C295.161 177.087 295.428 177.351 295.762 177.55C296.102 177.743 296.523 177.84 297.027 177.84ZM304.41 169.49V179H302.784V169.49H304.41ZM310.65 169.49L306.142 174.939H303.865L303.619 173.516H305.482L308.673 169.49H310.65ZM308.901 179L305.403 174.693L306.449 173.516L310.967 179H308.901Z" fill="white"/>
<path d="M124.706 116.838L127.94 109.49H129.505L125.269 119H124.144L119.925 109.49H121.489L124.706 116.838ZM121.015 109.49V119H119.389V109.49H121.015ZM128.345 119V109.49H129.979V119H128.345ZM133.935 112.76H136.791C137.559 112.76 138.206 112.895 138.733 113.164C139.261 113.428 139.659 113.794 139.929 114.263C140.204 114.726 140.342 115.253 140.342 115.845C140.342 116.284 140.266 116.697 140.113 117.084C139.961 117.465 139.732 117.799 139.428 118.086C139.129 118.373 138.757 118.599 138.312 118.763C137.872 118.921 137.365 119 136.791 119H132.748V109.49H134.374V117.664H136.791C137.26 117.664 137.635 117.579 137.916 117.409C138.197 117.239 138.399 117.02 138.522 116.75C138.646 116.48 138.707 116.199 138.707 115.906C138.707 115.619 138.646 115.338 138.522 115.062C138.399 114.787 138.197 114.559 137.916 114.377C137.635 114.189 137.26 114.096 136.791 114.096H133.935V112.76ZM143.726 109.49V119H142.1V109.49H143.726ZM150.379 117.84C150.766 117.84 151.123 117.761 151.451 117.603C151.779 117.444 152.049 117.228 152.26 116.952C152.471 116.671 152.591 116.352 152.62 115.994H154.167C154.138 116.557 153.947 117.081 153.596 117.567C153.25 118.048 152.796 118.438 152.233 118.736C151.671 119.029 151.053 119.176 150.379 119.176C149.664 119.176 149.04 119.05 148.507 118.798C147.979 118.546 147.54 118.2 147.188 117.761C146.843 117.321 146.582 116.817 146.406 116.249C146.236 115.675 146.151 115.068 146.151 114.43V114.061C146.151 113.422 146.236 112.818 146.406 112.25C146.582 111.676 146.843 111.169 147.188 110.729C147.54 110.29 147.979 109.944 148.507 109.692C149.04 109.44 149.664 109.314 150.379 109.314C151.123 109.314 151.773 109.467 152.33 109.771C152.887 110.07 153.323 110.48 153.64 111.002C153.962 111.518 154.138 112.104 154.167 112.76H152.62C152.591 112.367 152.479 112.013 152.286 111.696C152.099 111.38 151.841 111.128 151.513 110.94C151.19 110.747 150.812 110.65 150.379 110.65C149.881 110.65 149.462 110.75 149.122 110.949C148.788 111.143 148.521 111.406 148.322 111.74C148.129 112.068 147.988 112.435 147.9 112.839C147.818 113.237 147.777 113.645 147.777 114.061V114.43C147.777 114.846 147.818 115.256 147.9 115.66C147.982 116.064 148.12 116.431 148.313 116.759C148.513 117.087 148.779 117.351 149.113 117.55C149.453 117.743 149.875 117.84 150.379 117.84ZM168.432 114.931H170.119C170.031 115.739 169.8 116.463 169.425 117.102C169.05 117.74 168.52 118.247 167.834 118.622C167.148 118.991 166.293 119.176 165.268 119.176C164.518 119.176 163.835 119.035 163.22 118.754C162.61 118.473 162.086 118.074 161.646 117.559C161.207 117.037 160.867 116.413 160.627 115.687C160.393 114.954 160.275 114.14 160.275 113.243V111.969C160.275 111.072 160.393 110.261 160.627 109.534C160.867 108.802 161.21 108.175 161.655 107.653C162.106 107.132 162.648 106.73 163.281 106.449C163.914 106.168 164.626 106.027 165.417 106.027C166.384 106.027 167.201 106.209 167.869 106.572C168.537 106.936 169.056 107.439 169.425 108.084C169.8 108.723 170.031 109.464 170.119 110.308H168.432C168.35 109.71 168.197 109.197 167.975 108.77C167.752 108.336 167.436 108.002 167.025 107.768C166.615 107.533 166.079 107.416 165.417 107.416C164.849 107.416 164.348 107.524 163.914 107.741C163.486 107.958 163.126 108.266 162.833 108.664C162.546 109.062 162.329 109.54 162.183 110.097C162.036 110.653 161.963 111.271 161.963 111.951V113.243C161.963 113.87 162.027 114.459 162.156 115.01C162.291 115.561 162.493 116.044 162.763 116.46C163.032 116.876 163.375 117.204 163.791 117.444C164.207 117.679 164.699 117.796 165.268 117.796C165.988 117.796 166.562 117.682 166.99 117.453C167.418 117.225 167.74 116.896 167.957 116.469C168.18 116.041 168.338 115.528 168.432 114.931ZM178.539 109.49V110.835H173.942V109.49H178.539ZM179.972 109.49V119H178.346V109.49H179.972ZM173.547 109.49H175.182L174.936 114.078C174.895 114.787 174.827 115.414 174.733 115.959C174.646 116.498 174.522 116.961 174.364 117.348C174.212 117.734 174.019 118.051 173.784 118.297C173.556 118.537 173.28 118.716 172.958 118.833C172.636 118.944 172.264 119 171.842 119H171.332V117.567L171.684 117.541C171.936 117.523 172.149 117.465 172.325 117.365C172.507 117.266 172.659 117.119 172.782 116.926C172.905 116.727 173.005 116.472 173.081 116.161C173.163 115.851 173.225 115.481 173.266 115.054C173.312 114.626 173.348 114.128 173.371 113.56L173.547 109.49ZM186.537 119.176C185.875 119.176 185.274 119.064 184.735 118.842C184.202 118.613 183.742 118.294 183.355 117.884C182.975 117.474 182.682 116.987 182.477 116.425C182.271 115.862 182.169 115.247 182.169 114.579V114.21C182.169 113.437 182.283 112.748 182.512 112.145C182.74 111.535 183.051 111.02 183.443 110.598C183.836 110.176 184.281 109.856 184.779 109.64C185.277 109.423 185.793 109.314 186.326 109.314C187.006 109.314 187.592 109.432 188.084 109.666C188.582 109.9 188.989 110.229 189.306 110.65C189.622 111.066 189.856 111.559 190.009 112.127C190.161 112.689 190.237 113.305 190.237 113.973V114.702H183.136V113.375H188.611V113.252C188.588 112.83 188.5 112.42 188.348 112.021C188.201 111.623 187.967 111.295 187.645 111.037C187.322 110.779 186.883 110.65 186.326 110.65C185.957 110.65 185.617 110.729 185.307 110.888C184.996 111.04 184.729 111.269 184.507 111.573C184.284 111.878 184.111 112.25 183.988 112.689C183.865 113.129 183.804 113.636 183.804 114.21V114.579C183.804 115.03 183.865 115.455 183.988 115.854C184.117 116.246 184.302 116.592 184.542 116.891C184.788 117.189 185.084 117.424 185.43 117.594C185.781 117.764 186.18 117.849 186.625 117.849C187.199 117.849 187.686 117.731 188.084 117.497C188.482 117.263 188.831 116.949 189.13 116.557L190.114 117.339C189.909 117.649 189.648 117.945 189.332 118.227C189.016 118.508 188.626 118.736 188.163 118.912C187.706 119.088 187.164 119.176 186.537 119.176ZM198.473 109.49V110.835H193.665V109.49H198.473ZM193.902 109.49V119H192.276V109.49H193.902ZM199.914 109.49V119H198.279V109.49H199.914ZM204.282 116.425L208.668 109.49H210.303V119H208.668V112.065L204.282 119H202.665V109.49H204.282V116.425ZM214.68 109.49V119H213.054V109.49H214.68ZM220.92 109.49L216.411 114.939H214.135L213.889 113.516H215.752L218.942 109.49H220.92ZM219.171 119L215.673 114.693L216.719 113.516L221.236 119H219.171ZM222.027 114.351V114.148C222.027 113.463 222.127 112.827 222.326 112.241C222.525 111.649 222.812 111.137 223.188 110.703C223.562 110.264 224.017 109.924 224.55 109.684C225.083 109.438 225.681 109.314 226.343 109.314C227.011 109.314 227.611 109.438 228.145 109.684C228.684 109.924 229.141 110.264 229.516 110.703C229.896 111.137 230.187 111.649 230.386 112.241C230.585 112.827 230.685 113.463 230.685 114.148V114.351C230.685 115.036 230.585 115.672 230.386 116.258C230.187 116.844 229.896 117.356 229.516 117.796C229.141 118.229 228.687 118.569 228.153 118.815C227.626 119.056 227.028 119.176 226.36 119.176C225.692 119.176 225.092 119.056 224.559 118.815C224.025 118.569 223.568 118.229 223.188 117.796C222.812 117.356 222.525 116.844 222.326 116.258C222.127 115.672 222.027 115.036 222.027 114.351ZM223.653 114.148V114.351C223.653 114.825 223.709 115.273 223.82 115.695C223.932 116.111 224.099 116.48 224.321 116.803C224.55 117.125 224.834 117.38 225.174 117.567C225.514 117.749 225.909 117.84 226.36 117.84C226.806 117.84 227.195 117.749 227.529 117.567C227.869 117.38 228.15 117.125 228.373 116.803C228.596 116.48 228.763 116.111 228.874 115.695C228.991 115.273 229.05 114.825 229.05 114.351V114.148C229.05 113.68 228.991 113.237 228.874 112.821C228.763 112.399 228.593 112.027 228.364 111.705C228.142 111.377 227.86 111.119 227.521 110.932C227.187 110.744 226.794 110.65 226.343 110.65C225.897 110.65 225.505 110.744 225.165 110.932C224.831 111.119 224.55 111.377 224.321 111.705C224.099 112.027 223.932 112.399 223.82 112.821C223.709 113.237 223.653 113.68 223.653 114.148ZM239.175 113.612V114.931H234.147V113.612H239.175ZM234.49 109.49V119H232.864V109.49H234.49ZM240.493 109.49V119H238.858V109.49H240.493ZM246.918 117.84C247.305 117.84 247.662 117.761 247.99 117.603C248.318 117.444 248.588 117.228 248.799 116.952C249.01 116.671 249.13 116.352 249.159 115.994H250.706C250.677 116.557 250.486 117.081 250.135 117.567C249.789 118.048 249.335 118.438 248.772 118.736C248.21 119.029 247.592 119.176 246.918 119.176C246.203 119.176 245.579 119.05 245.046 118.798C244.519 118.546 244.079 118.2 243.728 117.761C243.382 117.321 243.121 116.817 242.945 116.249C242.775 115.675 242.69 115.068 242.69 114.43V114.061C242.69 113.422 242.775 112.818 242.945 112.25C243.121 111.676 243.382 111.169 243.728 110.729C244.079 110.29 244.519 109.944 245.046 109.692C245.579 109.44 246.203 109.314 246.918 109.314C247.662 109.314 248.312 109.467 248.869 109.771C249.426 110.07 249.862 110.48 250.179 111.002C250.501 111.518 250.677 112.104 250.706 112.76H249.159C249.13 112.367 249.019 112.013 248.825 111.696C248.638 111.38 248.38 111.128 248.052 110.94C247.729 110.747 247.352 110.65 246.918 110.65C246.42 110.65 246.001 110.75 245.661 110.949C245.327 111.143 245.061 111.406 244.861 111.74C244.668 112.068 244.527 112.435 244.439 112.839C244.357 113.237 244.316 113.645 244.316 114.061V114.43C244.316 114.846 244.357 115.256 244.439 115.66C244.521 116.064 244.659 116.431 244.853 116.759C245.052 117.087 245.318 117.351 245.652 117.55C245.992 117.743 246.414 117.84 246.918 117.84ZM254.301 109.49V119H252.675V109.49H254.301ZM260.541 109.49L256.032 114.939H253.756L253.51 113.516H255.373L258.563 109.49H260.541ZM258.792 119L255.294 114.693L256.34 113.516L260.857 119H258.792ZM261.648 114.351V114.148C261.648 113.463 261.748 112.827 261.947 112.241C262.146 111.649 262.434 111.137 262.809 110.703C263.184 110.264 263.638 109.924 264.171 109.684C264.704 109.438 265.302 109.314 265.964 109.314C266.632 109.314 267.232 109.438 267.766 109.684C268.305 109.924 268.762 110.264 269.137 110.703C269.518 111.137 269.808 111.649 270.007 112.241C270.206 112.827 270.306 113.463 270.306 114.148V114.351C270.306 115.036 270.206 115.672 270.007 116.258C269.808 116.844 269.518 117.356 269.137 117.796C268.762 118.229 268.308 118.569 267.774 118.815C267.247 119.056 266.649 119.176 265.981 119.176C265.313 119.176 264.713 119.056 264.18 118.815C263.646 118.569 263.189 118.229 262.809 117.796C262.434 117.356 262.146 116.844 261.947 116.258C261.748 115.672 261.648 115.036 261.648 114.351ZM263.274 114.148V114.351C263.274 114.825 263.33 115.273 263.441 115.695C263.553 116.111 263.72 116.48 263.942 116.803C264.171 117.125 264.455 117.38 264.795 117.567C265.135 117.749 265.53 117.84 265.981 117.84C266.427 117.84 266.816 117.749 267.15 117.567C267.49 117.38 267.771 117.125 267.994 116.803C268.217 116.48 268.384 116.111 268.495 115.695C268.612 115.273 268.671 114.825 268.671 114.351V114.148C268.671 113.68 268.612 113.237 268.495 112.821C268.384 112.399 268.214 112.027 267.985 111.705C267.763 111.377 267.481 111.119 267.142 110.932C266.808 110.744 266.415 110.65 265.964 110.65C265.519 110.65 265.126 110.744 264.786 110.932C264.452 111.119 264.171 111.377 263.942 111.705C263.72 112.027 263.553 112.399 263.441 112.821C263.33 113.237 263.274 113.68 263.274 114.148ZM278.488 109.49V110.835H274.094V119H272.468V109.49H278.488ZM279.297 114.351V114.148C279.297 113.463 279.396 112.827 279.596 112.241C279.795 111.649 280.082 111.137 280.457 110.703C280.832 110.264 281.286 109.924 281.819 109.684C282.353 109.438 282.95 109.314 283.612 109.314C284.28 109.314 284.881 109.438 285.414 109.684C285.953 109.924 286.41 110.264 286.785 110.703C287.166 111.137 287.456 111.649 287.655 112.241C287.854 112.827 287.954 113.463 287.954 114.148V114.351C287.954 115.036 287.854 115.672 287.655 116.258C287.456 116.844 287.166 117.356 286.785 117.796C286.41 118.229 285.956 118.569 285.423 118.815C284.896 119.056 284.298 119.176 283.63 119.176C282.962 119.176 282.361 119.056 281.828 118.815C281.295 118.569 280.838 118.229 280.457 117.796C280.082 117.356 279.795 116.844 279.596 116.258C279.396 115.672 279.297 115.036 279.297 114.351ZM280.923 114.148V114.351C280.923 114.825 280.979 115.273 281.09 115.695C281.201 116.111 281.368 116.48 281.591 116.803C281.819 117.125 282.104 117.38 282.443 117.567C282.783 117.749 283.179 117.84 283.63 117.84C284.075 117.84 284.465 117.749 284.799 117.567C285.139 117.38 285.42 117.125 285.643 116.803C285.865 116.48 286.032 116.111 286.144 115.695C286.261 115.273 286.319 114.825 286.319 114.351V114.148C286.319 113.68 286.261 113.237 286.144 112.821C286.032 112.399 285.862 112.027 285.634 111.705C285.411 111.377 285.13 111.119 284.79 110.932C284.456 110.744 284.063 110.65 283.612 110.65C283.167 110.65 282.774 110.744 282.435 110.932C282.101 111.119 281.819 111.377 281.591 111.705C281.368 112.027 281.201 112.399 281.09 112.821C280.979 113.237 280.923 113.68 280.923 114.148Z" fill="white"/>
<path d="M296.214 87.2031V100H294.544V87.2031H296.214ZM300.327 87.2031V88.5918H290.439V87.2031H300.327ZM300.67 95.3506V95.1484C300.67 94.4629 300.77 93.8271 300.969 93.2412C301.168 92.6494 301.455 92.1367 301.83 91.7031C302.205 91.2637 302.659 90.9238 303.192 90.6836C303.726 90.4375 304.323 90.3145 304.985 90.3145C305.653 90.3145 306.254 90.4375 306.787 90.6836C307.326 90.9238 307.783 91.2637 308.158 91.7031C308.539 92.1367 308.829 92.6494 309.028 93.2412C309.228 93.8271 309.327 94.4629 309.327 95.1484V95.3506C309.327 96.0361 309.228 96.6719 309.028 97.2578C308.829 97.8438 308.539 98.3564 308.158 98.7959C307.783 99.2295 307.329 99.5693 306.796 99.8154C306.269 100.056 305.671 100.176 305.003 100.176C304.335 100.176 303.734 100.056 303.201 99.8154C302.668 99.5693 302.211 99.2295 301.83 98.7959C301.455 98.3564 301.168 97.8438 300.969 97.2578C300.77 96.6719 300.67 96.0361 300.67 95.3506ZM302.296 95.1484V95.3506C302.296 95.8252 302.352 96.2734 302.463 96.6953C302.574 97.1113 302.741 97.4805 302.964 97.8027C303.192 98.125 303.477 98.3799 303.816 98.5674C304.156 98.749 304.552 98.8398 305.003 98.8398C305.448 98.8398 305.838 98.749 306.172 98.5674C306.512 98.3799 306.793 98.125 307.016 97.8027C307.238 97.4805 307.405 97.1113 307.517 96.6953C307.634 96.2734 307.692 95.8252 307.692 95.3506V95.1484C307.692 94.6797 307.634 94.2373 307.517 93.8213C307.405 93.3994 307.235 93.0273 307.007 92.7051C306.784 92.377 306.503 92.1191 306.163 91.9316C305.829 91.7441 305.437 91.6504 304.985 91.6504C304.54 91.6504 304.147 91.7441 303.808 91.9316C303.474 92.1191 303.192 92.377 302.964 92.7051C302.741 93.0273 302.574 93.3994 302.463 93.8213C302.352 94.2373 302.296 94.6797 302.296 95.1484ZM316.833 97.8379L320.067 90.4902H321.632L317.396 100H316.271L312.052 90.4902H313.616L316.833 97.8379ZM313.142 90.4902V100H311.516V90.4902H313.142ZM320.472 100V90.4902H322.106V100H320.472ZM330.333 98.374V93.4785C330.333 93.1035 330.257 92.7783 330.104 92.5029C329.958 92.2217 329.735 92.0049 329.437 91.8525C329.138 91.7002 328.769 91.624 328.329 91.624C327.919 91.624 327.559 91.6943 327.248 91.835C326.943 91.9756 326.703 92.1602 326.527 92.3887C326.357 92.6172 326.272 92.8633 326.272 93.127H324.646C324.646 92.7871 324.734 92.4502 324.91 92.1162C325.086 91.7822 325.338 91.4805 325.666 91.2109C326 90.9355 326.398 90.7188 326.861 90.5605C327.33 90.3965 327.852 90.3145 328.426 90.3145C329.117 90.3145 329.727 90.4316 330.254 90.666C330.787 90.9004 331.203 91.2549 331.502 91.7295C331.807 92.1982 331.959 92.7871 331.959 93.4961V97.9258C331.959 98.2422 331.985 98.5791 332.038 98.9365C332.097 99.2939 332.182 99.6016 332.293 99.8594V100H330.597C330.515 99.8125 330.45 99.5635 330.403 99.2529C330.356 98.9365 330.333 98.6436 330.333 98.374ZM330.614 94.2344L330.632 95.377H328.988C328.525 95.377 328.112 95.415 327.749 95.4912C327.386 95.5615 327.081 95.6699 326.835 95.8164C326.589 95.9629 326.401 96.1475 326.272 96.3701C326.144 96.5869 326.079 96.8418 326.079 97.1348C326.079 97.4336 326.146 97.7061 326.281 97.9521C326.416 98.1982 326.618 98.3945 326.888 98.541C327.163 98.6816 327.5 98.752 327.898 98.752C328.396 98.752 328.836 98.6465 329.217 98.4355C329.598 98.2246 329.899 97.9668 330.122 97.6621C330.351 97.3574 330.474 97.0615 330.491 96.7744L331.186 97.5566C331.145 97.8027 331.033 98.0752 330.852 98.374C330.67 98.6729 330.427 98.96 330.122 99.2354C329.823 99.5049 329.466 99.7305 329.05 99.9121C328.64 100.088 328.177 100.176 327.661 100.176C327.017 100.176 326.451 100.05 325.965 99.7979C325.484 99.5459 325.109 99.209 324.84 98.7871C324.576 98.3594 324.444 97.8818 324.444 97.3545C324.444 96.8447 324.544 96.3965 324.743 96.0098C324.942 95.6172 325.229 95.292 325.604 95.0342C325.979 94.7705 326.431 94.5713 326.958 94.4365C327.485 94.3018 328.074 94.2344 328.725 94.2344H330.614ZM336.143 92.3184V103.656H334.508V90.4902H336.002L336.143 92.3184ZM342.55 95.166V95.3506C342.55 96.042 342.468 96.6836 342.304 97.2754C342.14 97.8613 341.899 98.3711 341.583 98.8047C341.272 99.2383 340.889 99.5752 340.432 99.8154C339.975 100.056 339.45 100.176 338.858 100.176C338.255 100.176 337.722 100.076 337.259 99.877C336.796 99.6777 336.403 99.3877 336.081 99.0068C335.759 98.626 335.501 98.1689 335.308 97.6357C335.12 97.1025 334.991 96.502 334.921 95.834V94.8496C334.991 94.1465 335.123 93.5166 335.316 92.96C335.51 92.4033 335.765 91.9287 336.081 91.5361C336.403 91.1377 336.793 90.8359 337.25 90.6309C337.707 90.4199 338.234 90.3145 338.832 90.3145C339.43 90.3145 339.96 90.4316 340.423 90.666C340.886 90.8945 341.275 91.2227 341.592 91.6504C341.908 92.0781 342.146 92.5908 342.304 93.1885C342.468 93.7803 342.55 94.4395 342.55 95.166ZM340.915 95.3506V95.166C340.915 94.6914 340.865 94.2461 340.766 93.8301C340.666 93.4082 340.511 93.0391 340.3 92.7227C340.095 92.4004 339.831 92.1484 339.509 91.9668C339.187 91.7793 338.803 91.6855 338.357 91.6855C337.947 91.6855 337.59 91.7559 337.285 91.8965C336.986 92.0371 336.731 92.2275 336.521 92.4678C336.31 92.7021 336.137 92.9717 336.002 93.2764C335.873 93.5752 335.776 93.8857 335.712 94.208V96.4844C335.829 96.8945 335.993 97.2812 336.204 97.6445C336.415 98.002 336.696 98.292 337.048 98.5146C337.399 98.7314 337.842 98.8398 338.375 98.8398C338.814 98.8398 339.192 98.749 339.509 98.5674C339.831 98.3799 340.095 98.125 340.3 97.8027C340.511 97.4805 340.666 97.1113 340.766 96.6953C340.865 96.2734 340.915 95.8252 340.915 95.3506ZM346.382 97.4248L350.768 90.4902H352.402V100H350.768V93.0654L346.382 100H344.765V90.4902H346.382V97.4248Z" fill="white"/>
<path d="M391.252 138.064L397.554 128.203H399.25V141H397.554V131.13L391.252 141H389.564V128.203H391.252V138.064ZM408.602 131.49V132.835H404.005V131.49H408.602ZM410.034 131.49V141H408.408V131.49H410.034ZM403.609 131.49H405.244L404.998 136.078C404.957 136.787 404.89 137.414 404.796 137.959C404.708 138.498 404.585 138.961 404.427 139.348C404.274 139.734 404.081 140.051 403.847 140.297C403.618 140.537 403.343 140.716 403.021 140.833C402.698 140.944 402.326 141 401.904 141H401.395V139.567L401.746 139.541C401.998 139.523 402.212 139.465 402.388 139.365C402.569 139.266 402.722 139.119 402.845 138.926C402.968 138.727 403.067 138.472 403.144 138.161C403.226 137.851 403.287 137.481 403.328 137.054C403.375 136.626 403.41 136.128 403.434 135.56L403.609 131.49ZM413.989 134.76H416.846C417.613 134.76 418.261 134.895 418.788 135.164C419.315 135.428 419.714 135.794 419.983 136.263C420.259 136.726 420.396 137.253 420.396 137.845C420.396 138.284 420.32 138.697 420.168 139.084C420.016 139.465 419.787 139.799 419.482 140.086C419.184 140.373 418.812 140.599 418.366 140.763C417.927 140.921 417.42 141 416.846 141H412.803V131.49H414.429V139.664H416.846C417.314 139.664 417.689 139.579 417.971 139.409C418.252 139.239 418.454 139.02 418.577 138.75C418.7 138.48 418.762 138.199 418.762 137.906C418.762 137.619 418.7 137.338 418.577 137.062C418.454 136.787 418.252 136.559 417.971 136.377C417.689 136.189 417.314 136.096 416.846 136.096H413.989V134.76ZM424.185 138.425L428.57 131.49H430.205V141H428.57V134.065L424.185 141H422.567V131.49H424.185V138.425ZM439.267 135.612V136.931H434.239V135.612H439.267ZM434.582 131.49V141H432.956V131.49H434.582ZM440.585 131.49V141H438.95V131.49H440.585ZM447.01 139.84C447.396 139.84 447.754 139.761 448.082 139.603C448.41 139.444 448.68 139.228 448.891 138.952C449.102 138.671 449.222 138.352 449.251 137.994H450.798C450.769 138.557 450.578 139.081 450.227 139.567C449.881 140.048 449.427 140.438 448.864 140.736C448.302 141.029 447.684 141.176 447.01 141.176C446.295 141.176 445.671 141.05 445.138 140.798C444.61 140.546 444.171 140.2 443.819 139.761C443.474 139.321 443.213 138.817 443.037 138.249C442.867 137.675 442.782 137.068 442.782 136.43V136.061C442.782 135.422 442.867 134.818 443.037 134.25C443.213 133.676 443.474 133.169 443.819 132.729C444.171 132.29 444.61 131.944 445.138 131.692C445.671 131.44 446.295 131.314 447.01 131.314C447.754 131.314 448.404 131.467 448.961 131.771C449.518 132.07 449.954 132.48 450.271 133.002C450.593 133.518 450.769 134.104 450.798 134.76H449.251C449.222 134.367 449.11 134.013 448.917 133.696C448.729 133.38 448.472 133.128 448.144 132.94C447.821 132.747 447.443 132.65 447.01 132.65C446.512 132.65 446.093 132.75 445.753 132.949C445.419 133.143 445.152 133.406 444.953 133.74C444.76 134.068 444.619 134.435 444.531 134.839C444.449 135.237 444.408 135.645 444.408 136.061V136.43C444.408 136.846 444.449 137.256 444.531 137.66C444.613 138.064 444.751 138.431 444.944 138.759C445.144 139.087 445.41 139.351 445.744 139.55C446.084 139.743 446.506 139.84 447.01 139.84ZM454.393 131.49V141H452.767V131.49H454.393ZM460.633 131.49L456.124 136.939H453.848L453.602 135.516H455.465L458.655 131.49H460.633ZM458.884 141L455.386 136.693L456.432 135.516L460.949 141H458.884ZM461.74 136.351V136.148C461.74 135.463 461.84 134.827 462.039 134.241C462.238 133.649 462.525 133.137 462.9 132.703C463.275 132.264 463.729 131.924 464.263 131.684C464.796 131.438 465.394 131.314 466.056 131.314C466.724 131.314 467.324 131.438 467.857 131.684C468.396 131.924 468.854 132.264 469.229 132.703C469.609 133.137 469.899 133.649 470.099 134.241C470.298 134.827 470.397 135.463 470.397 136.148V136.351C470.397 137.036 470.298 137.672 470.099 138.258C469.899 138.844 469.609 139.356 469.229 139.796C468.854 140.229 468.399 140.569 467.866 140.815C467.339 141.056 466.741 141.176 466.073 141.176C465.405 141.176 464.805 141.056 464.271 140.815C463.738 140.569 463.281 140.229 462.9 139.796C462.525 139.356 462.238 138.844 462.039 138.258C461.84 137.672 461.74 137.036 461.74 136.351ZM463.366 136.148V136.351C463.366 136.825 463.422 137.273 463.533 137.695C463.645 138.111 463.812 138.48 464.034 138.803C464.263 139.125 464.547 139.38 464.887 139.567C465.227 139.749 465.622 139.84 466.073 139.84C466.519 139.84 466.908 139.749 467.242 139.567C467.582 139.38 467.863 139.125 468.086 138.803C468.309 138.48 468.476 138.111 468.587 137.695C468.704 137.273 468.763 136.825 468.763 136.351V136.148C468.763 135.68 468.704 135.237 468.587 134.821C468.476 134.399 468.306 134.027 468.077 133.705C467.854 133.377 467.573 133.119 467.233 132.932C466.899 132.744 466.507 132.65 466.056 132.65C465.61 132.65 465.218 132.744 464.878 132.932C464.544 133.119 464.263 133.377 464.034 133.705C463.812 134.027 463.645 134.399 463.533 134.821C463.422 135.237 463.366 135.68 463.366 136.148ZM476.383 141.176C475.721 141.176 475.12 141.064 474.581 140.842C474.048 140.613 473.588 140.294 473.201 139.884C472.82 139.474 472.527 138.987 472.322 138.425C472.117 137.862 472.015 137.247 472.015 136.579V136.21C472.015 135.437 472.129 134.748 472.357 134.145C472.586 133.535 472.896 133.02 473.289 132.598C473.682 132.176 474.127 131.856 474.625 131.64C475.123 131.423 475.639 131.314 476.172 131.314C476.852 131.314 477.438 131.432 477.93 131.666C478.428 131.9 478.835 132.229 479.151 132.65C479.468 133.066 479.702 133.559 479.854 134.127C480.007 134.689 480.083 135.305 480.083 135.973V136.702H472.981V135.375H478.457V135.252C478.434 134.83 478.346 134.42 478.193 134.021C478.047 133.623 477.812 133.295 477.49 133.037C477.168 132.779 476.729 132.65 476.172 132.65C475.803 132.65 475.463 132.729 475.152 132.888C474.842 133.04 474.575 133.269 474.353 133.573C474.13 133.878 473.957 134.25 473.834 134.689C473.711 135.129 473.649 135.636 473.649 136.21V136.579C473.649 137.03 473.711 137.455 473.834 137.854C473.963 138.246 474.147 138.592 474.388 138.891C474.634 139.189 474.93 139.424 475.275 139.594C475.627 139.764 476.025 139.849 476.471 139.849C477.045 139.849 477.531 139.731 477.93 139.497C478.328 139.263 478.677 138.949 478.976 138.557L479.96 139.339C479.755 139.649 479.494 139.945 479.178 140.227C478.861 140.508 478.472 140.736 478.009 140.912C477.552 141.088 477.01 141.176 476.383 141.176Z" fill="white"/>
<path d="M121.844 143.705V145.085H114.918V143.705H121.844ZM115.182 138.203V151H113.485V138.203H115.182ZM123.32 138.203V151H121.633V138.203H123.32ZM130.035 151.176C129.373 151.176 128.772 151.064 128.233 150.842C127.7 150.613 127.24 150.294 126.854 149.884C126.473 149.474 126.18 148.987 125.975 148.425C125.77 147.862 125.667 147.247 125.667 146.579V146.21C125.667 145.437 125.781 144.748 126.01 144.145C126.238 143.535 126.549 143.02 126.941 142.598C127.334 142.176 127.779 141.856 128.277 141.64C128.775 141.423 129.291 141.314 129.824 141.314C130.504 141.314 131.09 141.432 131.582 141.666C132.08 141.9 132.487 142.229 132.804 142.65C133.12 143.066 133.354 143.559 133.507 144.127C133.659 144.689 133.735 145.305 133.735 145.973V146.702H126.634V145.375H132.109V145.252C132.086 144.83 131.998 144.42 131.846 144.021C131.699 143.623 131.465 143.295 131.143 143.037C130.82 142.779 130.381 142.65 129.824 142.65C129.455 142.65 129.115 142.729 128.805 142.888C128.494 143.04 128.228 143.269 128.005 143.573C127.782 143.878 127.609 144.25 127.486 144.689C127.363 145.129 127.302 145.636 127.302 146.21V146.579C127.302 147.03 127.363 147.455 127.486 147.854C127.615 148.246 127.8 148.592 128.04 148.891C128.286 149.189 128.582 149.424 128.928 149.594C129.279 149.764 129.678 149.849 130.123 149.849C130.697 149.849 131.184 149.731 131.582 149.497C131.98 149.263 132.329 148.949 132.628 148.557L133.612 149.339C133.407 149.649 133.146 149.945 132.83 150.227C132.514 150.508 132.124 150.736 131.661 150.912C131.204 151.088 130.662 151.176 130.035 151.176ZM140.099 146.816H136.979L136.961 145.516H139.51C140.014 145.516 140.433 145.466 140.767 145.366C141.106 145.267 141.361 145.117 141.531 144.918C141.701 144.719 141.786 144.473 141.786 144.18C141.786 143.951 141.736 143.752 141.637 143.582C141.543 143.406 141.399 143.263 141.206 143.151C141.013 143.034 140.772 142.949 140.485 142.896C140.204 142.838 139.873 142.809 139.492 142.809H137.409V151H135.783V141.49H139.492C140.096 141.49 140.638 141.543 141.118 141.648C141.604 141.754 142.018 141.915 142.357 142.132C142.703 142.343 142.967 142.612 143.148 142.94C143.33 143.269 143.421 143.655 143.421 144.101C143.421 144.388 143.362 144.66 143.245 144.918C143.128 145.176 142.955 145.404 142.727 145.604C142.498 145.803 142.217 145.967 141.883 146.096C141.549 146.219 141.165 146.298 140.731 146.333L140.099 146.816ZM140.099 151H136.39L137.198 149.682H140.099C140.55 149.682 140.925 149.626 141.224 149.515C141.522 149.397 141.745 149.233 141.892 149.022C142.044 148.806 142.12 148.548 142.12 148.249C142.12 147.95 142.044 147.695 141.892 147.484C141.745 147.268 141.522 147.104 141.224 146.992C140.925 146.875 140.55 146.816 140.099 146.816H137.629L137.646 145.516H140.731L141.32 146.008C141.842 146.049 142.284 146.178 142.647 146.395C143.011 146.611 143.286 146.887 143.474 147.221C143.661 147.549 143.755 147.906 143.755 148.293C143.755 148.738 143.67 149.131 143.5 149.471C143.336 149.811 143.096 150.095 142.779 150.323C142.463 150.546 142.079 150.716 141.628 150.833C141.177 150.944 140.667 151 140.099 151ZM149.881 151.176C149.219 151.176 148.618 151.064 148.079 150.842C147.546 150.613 147.086 150.294 146.699 149.884C146.318 149.474 146.025 148.987 145.82 148.425C145.615 147.862 145.513 147.247 145.513 146.579V146.21C145.513 145.437 145.627 144.748 145.855 144.145C146.084 143.535 146.395 143.02 146.787 142.598C147.18 142.176 147.625 141.856 148.123 141.64C148.621 141.423 149.137 141.314 149.67 141.314C150.35 141.314 150.936 141.432 151.428 141.666C151.926 141.9 152.333 142.229 152.649 142.65C152.966 143.066 153.2 143.559 153.353 144.127C153.505 144.689 153.581 145.305 153.581 145.973V146.702H146.479V145.375H151.955V145.252C151.932 144.83 151.844 144.42 151.691 144.021C151.545 143.623 151.311 143.295 150.988 143.037C150.666 142.779 150.227 142.65 149.67 142.65C149.301 142.65 148.961 142.729 148.65 142.888C148.34 143.04 148.073 143.269 147.851 143.573C147.628 143.878 147.455 144.25 147.332 144.689C147.209 145.129 147.147 145.636 147.147 146.21V146.579C147.147 147.03 147.209 147.455 147.332 147.854C147.461 148.246 147.646 148.592 147.886 148.891C148.132 149.189 148.428 149.424 148.773 149.594C149.125 149.764 149.523 149.849 149.969 149.849C150.543 149.849 151.029 149.731 151.428 149.497C151.826 149.263 152.175 148.949 152.474 148.557L153.458 149.339C153.253 149.649 152.992 149.945 152.676 150.227C152.359 150.508 151.97 150.736 151.507 150.912C151.05 151.088 150.508 151.176 149.881 151.176ZM161.834 141.49V142.835H157.237V141.49H161.834ZM163.267 141.49V151H161.641V141.49H163.267ZM156.842 141.49H158.477L158.23 146.078C158.189 146.787 158.122 147.414 158.028 147.959C157.94 148.498 157.817 148.961 157.659 149.348C157.507 149.734 157.313 150.051 157.079 150.297C156.851 150.537 156.575 150.716 156.253 150.833C155.931 150.944 155.559 151 155.137 151H154.627V149.567L154.979 149.541C155.23 149.523 155.444 149.465 155.62 149.365C155.802 149.266 155.954 149.119 156.077 148.926C156.2 148.727 156.3 148.472 156.376 148.161C156.458 147.851 156.52 147.481 156.561 147.054C156.607 146.626 156.643 146.128 156.666 145.56L156.842 141.49ZM167.222 144.76H170.078C170.846 144.76 171.493 144.895 172.021 145.164C172.548 145.428 172.946 145.794 173.216 146.263C173.491 146.726 173.629 147.253 173.629 147.845C173.629 148.284 173.553 148.697 173.4 149.084C173.248 149.465 173.02 149.799 172.715 150.086C172.416 150.373 172.044 150.599 171.599 150.763C171.159 150.921 170.652 151 170.078 151H166.035V141.49H167.661V149.664H170.078C170.547 149.664 170.922 149.579 171.203 149.409C171.484 149.239 171.687 149.02 171.81 148.75C171.933 148.48 171.994 148.199 171.994 147.906C171.994 147.619 171.933 147.338 171.81 147.062C171.687 146.787 171.484 146.559 171.203 146.377C170.922 146.189 170.547 146.096 170.078 146.096H167.222V144.76ZM179.465 149.84C179.852 149.84 180.209 149.761 180.537 149.603C180.865 149.444 181.135 149.228 181.346 148.952C181.557 148.671 181.677 148.352 181.706 147.994H183.253C183.224 148.557 183.033 149.081 182.682 149.567C182.336 150.048 181.882 150.438 181.319 150.736C180.757 151.029 180.139 151.176 179.465 151.176C178.75 151.176 178.126 151.05 177.593 150.798C177.065 150.546 176.626 150.2 176.274 149.761C175.929 149.321 175.668 148.817 175.492 148.249C175.322 147.675 175.237 147.068 175.237 146.43V146.061C175.237 145.422 175.322 144.818 175.492 144.25C175.668 143.676 175.929 143.169 176.274 142.729C176.626 142.29 177.065 141.944 177.593 141.692C178.126 141.44 178.75 141.314 179.465 141.314C180.209 141.314 180.859 141.467 181.416 141.771C181.973 142.07 182.409 142.48 182.726 143.002C183.048 143.518 183.224 144.104 183.253 144.76H181.706C181.677 144.367 181.565 144.013 181.372 143.696C181.185 143.38 180.927 143.128 180.599 142.94C180.276 142.747 179.898 142.65 179.465 142.65C178.967 142.65 178.548 142.75 178.208 142.949C177.874 143.143 177.607 143.406 177.408 143.74C177.215 144.068 177.074 144.435 176.986 144.839C176.904 145.237 176.863 145.645 176.863 146.061V146.43C176.863 146.846 176.904 147.256 176.986 147.66C177.068 148.064 177.206 148.431 177.399 148.759C177.599 149.087 177.865 149.351 178.199 149.55C178.539 149.743 178.961 149.84 179.465 149.84ZM186.848 141.49V151H185.222V141.49H186.848ZM193.088 141.49L188.579 146.939H186.303L186.057 145.516H187.92L191.11 141.49H193.088ZM191.339 151L187.841 146.693L188.887 145.516L193.404 151H191.339Z" fill="white"/>
<path d="M9.42188 166.203V167.592H3.25195V179H1.56445V166.203H9.42188ZM9.17578 174.351V174.148C9.17578 173.463 9.27539 172.827 9.47461 172.241C9.67383 171.649 9.96094 171.137 10.3359 170.703C10.7109 170.264 11.165 169.924 11.6982 169.684C12.2314 169.438 12.8291 169.314 13.4912 169.314C14.1592 169.314 14.7598 169.438 15.293 169.684C15.832 169.924 16.2891 170.264 16.6641 170.703C17.0449 171.137 17.335 171.649 17.5342 172.241C17.7334 172.827 17.833 173.463 17.833 174.148V174.351C17.833 175.036 17.7334 175.672 17.5342 176.258C17.335 176.844 17.0449 177.356 16.6641 177.796C16.2891 178.229 15.835 178.569 15.3018 178.815C14.7744 179.056 14.1768 179.176 13.5088 179.176C12.8408 179.176 12.2402 179.056 11.707 178.815C11.1738 178.569 10.7168 178.229 10.3359 177.796C9.96094 177.356 9.67383 176.844 9.47461 176.258C9.27539 175.672 9.17578 175.036 9.17578 174.351ZM10.8018 174.148V174.351C10.8018 174.825 10.8574 175.273 10.9688 175.695C11.0801 176.111 11.2471 176.48 11.4697 176.803C11.6982 177.125 11.9824 177.38 12.3223 177.567C12.6621 177.749 13.0576 177.84 13.5088 177.84C13.9541 177.84 14.3438 177.749 14.6777 177.567C15.0176 177.38 15.2988 177.125 15.5215 176.803C15.7441 176.48 15.9111 176.111 16.0225 175.695C16.1396 175.273 16.1982 174.825 16.1982 174.351V174.148C16.1982 173.68 16.1396 173.237 16.0225 172.821C15.9111 172.399 15.7412 172.027 15.5127 171.705C15.29 171.377 15.0088 171.119 14.6689 170.932C14.335 170.744 13.9424 170.65 13.4912 170.65C13.0459 170.65 12.6533 170.744 12.3135 170.932C11.9795 171.119 11.6982 171.377 11.4697 171.705C11.2471 172.027 11.0801 172.399 10.9688 172.821C10.8574 173.237 10.8018 173.68 10.8018 174.148ZM21.498 171.318V182.656H19.8633V169.49H21.3574L21.498 171.318ZM27.9053 174.166V174.351C27.9053 175.042 27.8232 175.684 27.6592 176.275C27.4951 176.861 27.2549 177.371 26.9385 177.805C26.6279 178.238 26.2441 178.575 25.7871 178.815C25.3301 179.056 24.8057 179.176 24.2139 179.176C23.6104 179.176 23.0771 179.076 22.6143 178.877C22.1514 178.678 21.7588 178.388 21.4365 178.007C21.1143 177.626 20.8564 177.169 20.6631 176.636C20.4756 176.103 20.3467 175.502 20.2764 174.834V173.85C20.3467 173.146 20.4785 172.517 20.6719 171.96C20.8652 171.403 21.1201 170.929 21.4365 170.536C21.7588 170.138 22.1484 169.836 22.6055 169.631C23.0625 169.42 23.5898 169.314 24.1875 169.314C24.7852 169.314 25.3154 169.432 25.7783 169.666C26.2412 169.895 26.6309 170.223 26.9473 170.65C27.2637 171.078 27.501 171.591 27.6592 172.188C27.8232 172.78 27.9053 173.439 27.9053 174.166ZM26.2705 174.351V174.166C26.2705 173.691 26.2207 173.246 26.1211 172.83C26.0215 172.408 25.8662 172.039 25.6553 171.723C25.4502 171.4 25.1865 171.148 24.8643 170.967C24.542 170.779 24.1582 170.686 23.7129 170.686C23.3027 170.686 22.9453 170.756 22.6406 170.896C22.3418 171.037 22.0869 171.228 21.876 171.468C21.665 171.702 21.4922 171.972 21.3574 172.276C21.2285 172.575 21.1318 172.886 21.0674 173.208V175.484C21.1846 175.895 21.3486 176.281 21.5596 176.645C21.7705 177.002 22.0518 177.292 22.4033 177.515C22.7549 177.731 23.1973 177.84 23.7305 177.84C24.1699 177.84 24.5479 177.749 24.8643 177.567C25.1865 177.38 25.4502 177.125 25.6553 176.803C25.8662 176.48 26.0215 176.111 26.1211 175.695C26.2207 175.273 26.2705 174.825 26.2705 174.351ZM36.4307 173.612V174.931H31.4033V173.612H36.4307ZM31.7461 169.49V179H30.1201V169.49H31.7461ZM37.749 169.49V179H36.1143V169.49H37.749ZM39.9375 174.351V174.148C39.9375 173.463 40.0371 172.827 40.2363 172.241C40.4355 171.649 40.7227 171.137 41.0977 170.703C41.4727 170.264 41.9268 169.924 42.46 169.684C42.9932 169.438 43.5908 169.314 44.2529 169.314C44.9209 169.314 45.5215 169.438 46.0547 169.684C46.5938 169.924 47.0508 170.264 47.4258 170.703C47.8066 171.137 48.0967 171.649 48.2959 172.241C48.4951 172.827 48.5947 173.463 48.5947 174.148V174.351C48.5947 175.036 48.4951 175.672 48.2959 176.258C48.0967 176.844 47.8066 177.356 47.4258 177.796C47.0508 178.229 46.5967 178.569 46.0635 178.815C45.5361 179.056 44.9385 179.176 44.2705 179.176C43.6025 179.176 43.002 179.056 42.4688 178.815C41.9355 178.569 41.4785 178.229 41.0977 177.796C40.7227 177.356 40.4355 176.844 40.2363 176.258C40.0371 175.672 39.9375 175.036 39.9375 174.351ZM41.5635 174.148V174.351C41.5635 174.825 41.6191 175.273 41.7305 175.695C41.8418 176.111 42.0088 176.48 42.2314 176.803C42.46 177.125 42.7441 177.38 43.084 177.567C43.4238 177.749 43.8193 177.84 44.2705 177.84C44.7158 177.84 45.1055 177.749 45.4395 177.567C45.7793 177.38 46.0605 177.125 46.2832 176.803C46.5059 176.48 46.6729 176.111 46.7842 175.695C46.9014 175.273 46.96 174.825 46.96 174.351V174.148C46.96 173.68 46.9014 173.237 46.7842 172.821C46.6729 172.399 46.5029 172.027 46.2744 171.705C46.0518 171.377 45.7705 171.119 45.4307 170.932C45.0967 170.744 44.7041 170.65 44.2529 170.65C43.8076 170.65 43.415 170.744 43.0752 170.932C42.7412 171.119 42.46 171.377 42.2314 171.705C42.0088 172.027 41.8418 172.399 41.7305 172.821C41.6191 173.237 41.5635 173.68 41.5635 174.148ZM54.1846 174.456H52.4355V173.454H54.0527C54.5039 173.454 54.8613 173.398 55.125 173.287C55.3887 173.17 55.5762 173.009 55.6875 172.804C55.7988 172.599 55.8545 172.358 55.8545 172.083C55.8545 171.837 55.79 171.605 55.6611 171.389C55.5381 171.166 55.3389 170.987 55.0635 170.853C54.7881 170.712 54.4189 170.642 53.9561 170.642C53.5811 170.642 53.2412 170.709 52.9365 170.844C52.6318 170.973 52.3887 171.151 52.207 171.38C52.0312 171.603 51.9434 171.854 51.9434 172.136H50.3174C50.3174 171.556 50.4814 171.058 50.8096 170.642C51.1436 170.22 51.5859 169.895 52.1367 169.666C52.6934 169.438 53.2998 169.323 53.9561 169.323C54.5068 169.323 54.999 169.385 55.4326 169.508C55.8721 169.625 56.2441 169.801 56.5488 170.035C56.8535 170.264 57.085 170.551 57.2432 170.896C57.4072 171.236 57.4893 171.632 57.4893 172.083C57.4893 172.405 57.4131 172.71 57.2607 172.997C57.1084 173.284 56.8887 173.539 56.6016 173.762C56.3145 173.979 55.9658 174.148 55.5557 174.271C55.1514 174.395 54.6943 174.456 54.1846 174.456ZM52.4355 173.841H54.1846C54.7529 173.841 55.2539 173.896 55.6875 174.008C56.1211 174.113 56.4844 174.271 56.7773 174.482C57.0703 174.693 57.29 174.954 57.4365 175.265C57.5889 175.569 57.665 175.921 57.665 176.319C57.665 176.765 57.5742 177.166 57.3926 177.523C57.2168 177.875 56.9648 178.174 56.6367 178.42C56.3086 178.666 55.916 178.854 55.459 178.982C55.0078 179.111 54.5068 179.176 53.9561 179.176C53.3408 179.176 52.7432 179.07 52.1631 178.859C51.583 178.648 51.1055 178.323 50.7305 177.884C50.3555 177.438 50.168 176.873 50.168 176.188H51.7939C51.7939 176.475 51.8848 176.747 52.0664 177.005C52.248 177.263 52.5 177.471 52.8223 177.629C53.1504 177.787 53.5283 177.866 53.9561 177.866C54.4131 177.866 54.7939 177.796 55.0986 177.655C55.4033 177.515 55.6318 177.327 55.7842 177.093C55.9424 176.858 56.0215 176.604 56.0215 176.328C56.0215 175.971 55.9512 175.684 55.8105 175.467C55.6699 175.25 55.4531 175.092 55.1602 174.992C54.873 174.887 54.5039 174.834 54.0527 174.834H52.4355V173.841ZM65.3818 177.374V172.479C65.3818 172.104 65.3057 171.778 65.1533 171.503C65.0068 171.222 64.7842 171.005 64.4854 170.853C64.1865 170.7 63.8174 170.624 63.3779 170.624C62.9678 170.624 62.6074 170.694 62.2969 170.835C61.9922 170.976 61.752 171.16 61.5762 171.389C61.4062 171.617 61.3213 171.863 61.3213 172.127H59.6953C59.6953 171.787 59.7832 171.45 59.959 171.116C60.1348 170.782 60.3867 170.48 60.7148 170.211C61.0488 169.936 61.4473 169.719 61.9102 169.561C62.3789 169.396 62.9004 169.314 63.4746 169.314C64.166 169.314 64.7754 169.432 65.3027 169.666C65.8359 169.9 66.252 170.255 66.5508 170.729C66.8555 171.198 67.0078 171.787 67.0078 172.496V176.926C67.0078 177.242 67.0342 177.579 67.0869 177.937C67.1455 178.294 67.2305 178.602 67.3418 178.859V179H65.6455C65.5635 178.812 65.499 178.563 65.4521 178.253C65.4053 177.937 65.3818 177.644 65.3818 177.374ZM65.6631 173.234L65.6807 174.377H64.0371C63.5742 174.377 63.1611 174.415 62.7979 174.491C62.4346 174.562 62.1299 174.67 61.8838 174.816C61.6377 174.963 61.4502 175.147 61.3213 175.37C61.1924 175.587 61.1279 175.842 61.1279 176.135C61.1279 176.434 61.1953 176.706 61.3301 176.952C61.4648 177.198 61.667 177.395 61.9365 177.541C62.2119 177.682 62.5488 177.752 62.9473 177.752C63.4453 177.752 63.8848 177.646 64.2656 177.436C64.6465 177.225 64.9482 176.967 65.1709 176.662C65.3994 176.357 65.5225 176.062 65.54 175.774L66.2344 176.557C66.1934 176.803 66.082 177.075 65.9004 177.374C65.7188 177.673 65.4756 177.96 65.1709 178.235C64.8721 178.505 64.5146 178.73 64.0986 178.912C63.6885 179.088 63.2256 179.176 62.71 179.176C62.0654 179.176 61.5 179.05 61.0137 178.798C60.5332 178.546 60.1582 178.209 59.8887 177.787C59.625 177.359 59.4932 176.882 59.4932 176.354C59.4932 175.845 59.5928 175.396 59.792 175.01C59.9912 174.617 60.2783 174.292 60.6533 174.034C61.0283 173.771 61.4795 173.571 62.0068 173.437C62.5342 173.302 63.123 173.234 63.7734 173.234H65.6631ZM74.0303 174.816H70.9102L70.8926 173.516H73.4414C73.9453 173.516 74.3643 173.466 74.6982 173.366C75.0381 173.267 75.293 173.117 75.4629 172.918C75.6328 172.719 75.7178 172.473 75.7178 172.18C75.7178 171.951 75.668 171.752 75.5684 171.582C75.4746 171.406 75.3311 171.263 75.1377 171.151C74.9443 171.034 74.7041 170.949 74.417 170.896C74.1357 170.838 73.8047 170.809 73.4238 170.809H71.3408V179H69.7148V169.49H73.4238C74.0273 169.49 74.5693 169.543 75.0498 169.648C75.5361 169.754 75.9492 169.915 76.2891 170.132C76.6348 170.343 76.8984 170.612 77.0801 170.94C77.2617 171.269 77.3525 171.655 77.3525 172.101C77.3525 172.388 77.2939 172.66 77.1768 172.918C77.0596 173.176 76.8867 173.404 76.6582 173.604C76.4297 173.803 76.1484 173.967 75.8145 174.096C75.4805 174.219 75.0967 174.298 74.6631 174.333L74.0303 174.816ZM74.0303 179H70.3213L71.1299 177.682H74.0303C74.4814 177.682 74.8564 177.626 75.1553 177.515C75.4541 177.397 75.6768 177.233 75.8232 177.022C75.9756 176.806 76.0518 176.548 76.0518 176.249C76.0518 175.95 75.9756 175.695 75.8232 175.484C75.6768 175.268 75.4541 175.104 75.1553 174.992C74.8564 174.875 74.4814 174.816 74.0303 174.816H71.5605L71.5781 173.516H74.6631L75.252 174.008C75.7734 174.049 76.2158 174.178 76.5791 174.395C76.9424 174.611 77.2178 174.887 77.4053 175.221C77.5928 175.549 77.6865 175.906 77.6865 176.293C77.6865 176.738 77.6016 177.131 77.4316 177.471C77.2676 177.811 77.0273 178.095 76.7109 178.323C76.3945 178.546 76.0107 178.716 75.5596 178.833C75.1084 178.944 74.5986 179 74.0303 179ZM79.4355 174.351V174.148C79.4355 173.463 79.5352 172.827 79.7344 172.241C79.9336 171.649 80.2207 171.137 80.5957 170.703C80.9707 170.264 81.4248 169.924 81.958 169.684C82.4912 169.438 83.0889 169.314 83.751 169.314C84.4189 169.314 85.0195 169.438 85.5527 169.684C86.0918 169.924 86.5488 170.264 86.9238 170.703C87.3047 171.137 87.5947 171.649 87.7939 172.241C87.9932 172.827 88.0928 173.463 88.0928 174.148V174.351C88.0928 175.036 87.9932 175.672 87.7939 176.258C87.5947 176.844 87.3047 177.356 86.9238 177.796C86.5488 178.229 86.0947 178.569 85.5615 178.815C85.0342 179.056 84.4365 179.176 83.7686 179.176C83.1006 179.176 82.5 179.056 81.9668 178.815C81.4336 178.569 80.9766 178.229 80.5957 177.796C80.2207 177.356 79.9336 176.844 79.7344 176.258C79.5352 175.672 79.4355 175.036 79.4355 174.351ZM81.0615 174.148V174.351C81.0615 174.825 81.1172 175.273 81.2285 175.695C81.3398 176.111 81.5068 176.48 81.7295 176.803C81.958 177.125 82.2422 177.38 82.582 177.567C82.9219 177.749 83.3174 177.84 83.7686 177.84C84.2139 177.84 84.6035 177.749 84.9375 177.567C85.2773 177.38 85.5586 177.125 85.7812 176.803C86.0039 176.48 86.1709 176.111 86.2822 175.695C86.3994 175.273 86.458 174.825 86.458 174.351V174.148C86.458 173.68 86.3994 173.237 86.2822 172.821C86.1709 172.399 86.001 172.027 85.7725 171.705C85.5498 171.377 85.2686 171.119 84.9287 170.932C84.5947 170.744 84.2021 170.65 83.751 170.65C83.3057 170.65 82.9131 170.744 82.5732 170.932C82.2393 171.119 81.958 171.377 81.7295 171.705C81.5068 172.027 81.3398 172.399 81.2285 172.821C81.1172 173.237 81.0615 173.68 81.0615 174.148ZM91.2129 169.49H92.8389L92.6982 173.05C92.6631 173.952 92.5605 174.731 92.3906 175.388C92.2207 176.044 92.0039 176.604 91.7402 177.066C91.4766 177.523 91.1807 177.907 90.8525 178.218C90.5303 178.528 90.1963 178.789 89.8506 179H89.042L89.0859 177.673L89.4199 177.664C89.6133 177.436 89.8008 177.201 89.9824 176.961C90.1641 176.715 90.3311 176.425 90.4834 176.091C90.6357 175.751 90.7617 175.338 90.8613 174.852C90.9668 174.359 91.0342 173.759 91.0635 173.05L91.2129 169.49ZM91.6172 169.49H97.3389V179H95.7129V170.993H91.6172V169.49ZM88.6729 177.664H98.5605V181.804H96.9346V179H90.2988V181.804H88.6641L88.6729 177.664ZM104.168 177.84C104.555 177.84 104.912 177.761 105.24 177.603C105.568 177.444 105.838 177.228 106.049 176.952C106.26 176.671 106.38 176.352 106.409 175.994H107.956C107.927 176.557 107.736 177.081 107.385 177.567C107.039 178.048 106.585 178.438 106.022 178.736C105.46 179.029 104.842 179.176 104.168 179.176C103.453 179.176 102.829 179.05 102.296 178.798C101.769 178.546 101.329 178.2 100.978 177.761C100.632 177.321 100.371 176.817 100.195 176.249C100.025 175.675 99.9404 175.068 99.9404 174.43V174.061C99.9404 173.422 100.025 172.818 100.195 172.25C100.371 171.676 100.632 171.169 100.978 170.729C101.329 170.29 101.769 169.944 102.296 169.692C102.829 169.44 103.453 169.314 104.168 169.314C104.912 169.314 105.562 169.467 106.119 169.771C106.676 170.07 107.112 170.48 107.429 171.002C107.751 171.518 107.927 172.104 107.956 172.76H106.409C106.38 172.367 106.269 172.013 106.075 171.696C105.888 171.38 105.63 171.128 105.302 170.94C104.979 170.747 104.602 170.65 104.168 170.65C103.67 170.65 103.251 170.75 102.911 170.949C102.577 171.143 102.311 171.406 102.111 171.74C101.918 172.068 101.777 172.435 101.689 172.839C101.607 173.237 101.566 173.645 101.566 174.061V174.43C101.566 174.846 101.607 175.256 101.689 175.66C101.771 176.064 101.909 176.431 102.103 176.759C102.302 177.087 102.568 177.351 102.902 177.55C103.242 177.743 103.664 177.84 104.168 177.84ZM111.551 169.49V179H109.925V169.49H111.551ZM117.791 169.49L113.282 174.939H111.006L110.76 173.516H112.623L115.813 169.49H117.791ZM116.042 179L112.544 174.693L113.59 173.516L118.107 179H116.042Z" fill="white"/>
<path d="M24.5469 219.203H26.252V230.62H30.6465V219.203H32.334V230.62H36.7021V219.203H38.3984V232H24.5469V219.203ZM45.1309 232.176C44.4688 232.176 43.8682 232.064 43.3291 231.842C42.7959 231.613 42.3359 231.294 41.9492 230.884C41.5684 230.474 41.2754 229.987 41.0703 229.425C40.8652 228.862 40.7627 228.247 40.7627 227.579V227.21C40.7627 226.437 40.877 225.748 41.1055 225.145C41.334 224.535 41.6445 224.02 42.0371 223.598C42.4297 223.176 42.875 222.856 43.373 222.64C43.8711 222.423 44.3867 222.314 44.9199 222.314C45.5996 222.314 46.1855 222.432 46.6777 222.666C47.1758 222.9 47.583 223.229 47.8994 223.65C48.2158 224.066 48.4502 224.559 48.6025 225.127C48.7549 225.689 48.8311 226.305 48.8311 226.973V227.702H41.7295V226.375H47.2051V226.252C47.1816 225.83 47.0938 225.42 46.9414 225.021C46.7949 224.623 46.5605 224.295 46.2383 224.037C45.916 223.779 45.4766 223.65 44.9199 223.65C44.5508 223.65 44.2109 223.729 43.9004 223.888C43.5898 224.04 43.3232 224.269 43.1006 224.573C42.8779 224.878 42.7051 225.25 42.582 225.689C42.459 226.129 42.3975 226.636 42.3975 227.21V227.579C42.3975 228.03 42.459 228.455 42.582 228.854C42.7109 229.246 42.8955 229.592 43.1357 229.891C43.3818 230.189 43.6777 230.424 44.0234 230.594C44.375 230.764 44.7734 230.849 45.2188 230.849C45.793 230.849 46.2793 230.731 46.6777 230.497C47.0762 230.263 47.4248 229.949 47.7236 229.557L48.708 230.339C48.5029 230.649 48.2422 230.945 47.9258 231.227C47.6094 231.508 47.2197 231.736 46.7568 231.912C46.2998 232.088 45.7578 232.176 45.1309 232.176ZM56.8291 218.351H58.165C58.165 218.925 58.0771 219.382 57.9014 219.722C57.7256 220.056 57.4854 220.313 57.1807 220.495C56.8818 220.677 56.542 220.814 56.1611 220.908C55.7861 221.002 55.3965 221.093 54.9922 221.181C54.4883 221.286 54.0195 221.453 53.5859 221.682C53.1582 221.904 52.7891 222.221 52.4785 222.631C52.1738 223.041 51.9482 223.574 51.8018 224.23C51.6611 224.887 51.623 225.698 51.6875 226.665V227.474H50.3516V226.665C50.3516 225.581 50.4541 224.635 50.6592 223.826C50.8701 223.018 51.166 222.335 51.5469 221.778C51.9277 221.222 52.3789 220.779 52.9004 220.451C53.4277 220.123 54.0078 219.897 54.6406 219.774C55.0977 219.687 55.4902 219.593 55.8184 219.493C56.1465 219.388 56.3955 219.247 56.5654 219.071C56.7412 218.896 56.8291 218.655 56.8291 218.351ZM54.9043 223.035C55.5254 223.035 56.0791 223.144 56.5654 223.36C57.0518 223.577 57.4648 223.879 57.8047 224.266C58.1445 224.652 58.4023 225.109 58.5781 225.637C58.7598 226.158 58.8506 226.727 58.8506 227.342V227.535C58.8506 228.197 58.7539 228.812 58.5605 229.381C58.373 229.943 58.0947 230.436 57.7256 230.857C57.3623 231.273 56.917 231.599 56.3896 231.833C55.8682 232.067 55.2734 232.185 54.6055 232.185C53.9375 232.185 53.3398 232.067 52.8125 231.833C52.291 231.599 51.8457 231.273 51.4766 230.857C51.1074 230.436 50.8262 229.943 50.6328 229.381C50.4453 228.812 50.3516 228.197 50.3516 227.535V227.342C50.3516 227.195 50.3779 227.052 50.4307 226.911C50.4834 226.771 50.5479 226.627 50.624 226.48C50.7061 226.334 50.7793 226.179 50.8438 226.015C51.0605 225.487 51.3564 224.998 51.7314 224.547C52.1123 224.096 52.5664 223.732 53.0938 223.457C53.627 223.176 54.2305 223.035 54.9043 223.035ZM54.5879 224.362C53.9902 224.362 53.498 224.5 53.1113 224.775C52.7305 225.051 52.4463 225.417 52.2588 225.874C52.0713 226.325 51.9775 226.814 51.9775 227.342V227.535C51.9775 227.98 52.0303 228.402 52.1357 228.801C52.2412 229.199 52.3994 229.554 52.6104 229.864C52.8271 230.169 53.0996 230.409 53.4277 230.585C53.7617 230.761 54.1543 230.849 54.6055 230.849C55.0566 230.849 55.4463 230.761 55.7744 230.585C56.1025 230.409 56.3721 230.169 56.583 229.864C56.7939 229.554 56.9521 229.199 57.0576 228.801C57.1631 228.402 57.2158 227.98 57.2158 227.535V227.342C57.2158 226.943 57.1631 226.565 57.0576 226.208C56.9521 225.851 56.791 225.534 56.5742 225.259C56.3633 224.983 56.0908 224.767 55.7568 224.608C55.4287 224.444 55.0391 224.362 54.5879 224.362ZM63.3682 231.016L66.0137 222.49H67.7539L63.9395 233.468C63.8516 233.702 63.7344 233.954 63.5879 234.224C63.4473 234.499 63.2656 234.76 63.043 235.006C62.8203 235.252 62.5508 235.451 62.2344 235.604C61.9238 235.762 61.5518 235.841 61.1182 235.841C60.9893 235.841 60.8252 235.823 60.626 235.788C60.4268 235.753 60.2861 235.724 60.2041 235.7L60.1953 234.382C60.2422 234.388 60.3154 234.394 60.415 234.399C60.5205 234.411 60.5938 234.417 60.6348 234.417C61.0039 234.417 61.3174 234.367 61.5752 234.268C61.833 234.174 62.0498 234.013 62.2256 233.784C62.4072 233.562 62.5625 233.254 62.6914 232.861L63.3682 231.016ZM61.4258 222.49L63.8955 229.873L64.3174 231.587L63.1484 232.185L59.6504 222.49H61.4258ZM75.6729 226.612V227.931H70.6455V226.612H75.6729ZM70.9883 222.49V232H69.3623V222.49H70.9883ZM76.9912 222.49V232H75.3564V222.49H76.9912ZM81.3682 229.425L85.7539 222.49H87.3887V232H85.7539V225.065L81.3682 232H79.751V222.49H81.3682V229.425ZM96.4502 226.612V227.931H91.4229V226.612H96.4502ZM91.7656 222.49V232H90.1396V222.49H91.7656ZM97.7686 222.49V232H96.1338V222.49H97.7686ZM99.957 227.351V227.148C99.957 226.463 100.057 225.827 100.256 225.241C100.455 224.649 100.742 224.137 101.117 223.703C101.492 223.264 101.946 222.924 102.479 222.684C103.013 222.438 103.61 222.314 104.272 222.314C104.94 222.314 105.541 222.438 106.074 222.684C106.613 222.924 107.07 223.264 107.445 223.703C107.826 224.137 108.116 224.649 108.315 225.241C108.515 225.827 108.614 226.463 108.614 227.148V227.351C108.614 228.036 108.515 228.672 108.315 229.258C108.116 229.844 107.826 230.356 107.445 230.796C107.07 231.229 106.616 231.569 106.083 231.815C105.556 232.056 104.958 232.176 104.29 232.176C103.622 232.176 103.021 232.056 102.488 231.815C101.955 231.569 101.498 231.229 101.117 230.796C100.742 230.356 100.455 229.844 100.256 229.258C100.057 228.672 99.957 228.036 99.957 227.351ZM101.583 227.148V227.351C101.583 227.825 101.639 228.273 101.75 228.695C101.861 229.111 102.028 229.48 102.251 229.803C102.479 230.125 102.764 230.38 103.104 230.567C103.443 230.749 103.839 230.84 104.29 230.84C104.735 230.84 105.125 230.749 105.459 230.567C105.799 230.38 106.08 230.125 106.303 229.803C106.525 229.48 106.692 229.111 106.804 228.695C106.921 228.273 106.979 227.825 106.979 227.351V227.148C106.979 226.68 106.921 226.237 106.804 225.821C106.692 225.399 106.522 225.027 106.294 224.705C106.071 224.377 105.79 224.119 105.45 223.932C105.116 223.744 104.724 223.65 104.272 223.65C103.827 223.65 103.435 223.744 103.095 223.932C102.761 224.119 102.479 224.377 102.251 224.705C102.028 225.027 101.861 225.399 101.75 225.821C101.639 226.237 101.583 226.68 101.583 227.148Z" fill="white"/>
<path d="M123.999 185L96.999 198.5C94.999 199.833 91.999 202.7 95.999 203.5" stroke="white" stroke-width="3"/>
<path d="M296.5 141.5C292.5 141 283.3 138.5 280.5 134.5" stroke="#6F6F6F" stroke-width="4"/>
<path d="M566 37.0002L574 30.0002C577 28.1669 581.6 27.7002 576 40.5002C574.333 43.6668 562.8 49.3 530 46.5L512.5 59L506 67L489.5 68.5C487.667 73.5 481.4 81.2 471 72L444.5 87.5L440.5 96.5H421C415.5 101.667 403 112.4 397 114C389.5 116 390.5 116 375 118.5L377.5 129L372.5 155C375.5 156.667 379.2 159.8 370 159L365.5 166.5C355.167 169.833 332.2 180.2 323 195C321.5 197 318.2 201.8 317 205L265.5 204C263.833 200.667 260.5 196.2 260.5 205C250 209.833 223.3 219.3 200.5 218.5M200.5 218.5C197 210.5 187 202.5 169.5 196C169.833 188.667 168.4 172.3 160 165.5L158 162.5L125.5 184L123 185.5L123.5 196M200.5 218.5L215 186.5C218.167 186 218 179.5 218.5 179.5L233 176C233.667 176.667 235.1 173.9 235.5 157.5" stroke="#FF6C01" stroke-width="3"/>
<path d="M566 37.0002L574 30.0002C577 28.1669 581.6 27.7002 576 40.5002M512.5 59L506 67L489.5 68.5C487.667 73.5 481.4 81.2 471 72L444.5 87.5L440.5 96.5H421C415.5 101.667 403 112.4 397 114C389.5 116 390.5 116 375 118.5M375 118.5L377.5 129L372.5 155M375 118.5C366.667 118.5 347.2 116.9 336 110.5C324.8 104.1 304.833 135.833 292 146C281 154.333 248.1 157.7 238.5 156.5" stroke="white" stroke-width="3"/>
<circle cx="566" cy="36" r="6" fill="white"/>
<circle cx="237" cy="158" r="6" fill="#FF6C01"/>
<circle cx="281" cy="134" r="6" fill="#6F6F6F"/>
<circle cx="158" cy="164" r="6" fill="#FF6C01"/>
<circle cx="125" cy="198" r="6" fill="#FF6C01"/>
<circle cx="99" cy="207" r="6" fill="white"/>
<circle cx="375" cy="118" r="6" fill="white"/>
<circle cx="322" cy="114" r="6" fill="white"/>
<circle cx="253" cy="207" r="6" fill="#FF6C01"/>
</svg>
