<svg width="380" height="452" viewBox="0 0 380 452" fill="none" xmlns="http://www.w3.org/2000/svg">
<path d="M86.9328 356.993C86.7856 360.347 90.1771 359.656 91.8913 358.891C101.043 360.973 87.8742 373.84 87.911 373.001C87.9478 372.163 79.2299 379.343 76.6403 380.91C74.5686 382.163 71.8337 394.703 70.7252 400.817C70.0679 403.029 67.0687 407.547 60.3299 407.923C53.5911 408.3 54.3882 402.901 55.6291 400.155C58.9741 394.139 65.1755 381.751 63.2216 380.321C60.7792 378.533 63.4056 376.127 63.5528 372.773C63.6705 370.089 68.0747 371.851 70.2621 373.067C70.5662 372.52 71.1965 370.923 71.2848 368.911C71.3731 366.898 78.6391 367.272 82.2611 367.711C83.8797 362.741 87.08 353.638 86.9328 356.993Z" fill="#191C20"/>
<path d="M26.2753 398.867C24.2625 398.778 24.5637 393.19 24.966 390.406L22.5603 387.78C20.8462 388.545 17.2281 390.571 16.4689 392.554C15.5198 395.034 9.94347 388.067 11.4 393.172C12.5653 397.257 11.0811 400.441 10.1934 401.522C11.8339 402.434 15.4358 404.609 16.7188 406.01C18.3225 407.761 28.7913 398.977 26.2753 398.867Z" fill="#191C20"/>
<path d="M40.5404 380.166C40.9758 385.563 42.9338 383.072 43.8583 381.152C48.5843 380.687 47.9903 382.734 47.1026 383.815C44.2947 383.972 38.7953 385.467 39.2602 390.193C39.725 394.919 37.0947 394.86 35.7215 394.239C35.1624 394.215 33.3879 393.801 30.7631 392.341C28.1382 390.882 30.4738 386.166 31.9697 383.991L36.4942 376.627C37.6615 375.558 40.105 374.769 40.5404 380.166Z" fill="#191C20"/>
<path d="M50.3177 367.991C53.7313 366.796 51.3527 363.555 49.7366 362.083C46.4114 361.265 43.7556 364.341 42.8433 365.982C43.9125 367.149 46.9042 369.185 50.3177 367.991Z" fill="#191C20"/>
<path d="M19.3047 72.2031V85H17.6084V72.2031H19.3047ZM22.2402 78.0654V79.4014H19.1992V78.0654H22.2402ZM31.4248 78.1973V79.0059C31.4248 79.9668 31.3047 80.8281 31.0645 81.5898C30.8242 82.3516 30.4785 82.999 30.0273 83.5322C29.5762 84.0654 29.0342 84.4727 28.4014 84.7539C27.7744 85.0352 27.0713 85.1758 26.292 85.1758C25.5361 85.1758 24.8418 85.0352 24.209 84.7539C23.582 84.4727 23.0371 84.0654 22.5742 83.5322C22.1172 82.999 21.7627 82.3516 21.5107 81.5898C21.2588 80.8281 21.1328 79.9668 21.1328 79.0059V78.1973C21.1328 77.2363 21.2559 76.3779 21.502 75.6221C21.7539 74.8604 22.1084 74.2129 22.5654 73.6797C23.0225 73.1406 23.5645 72.7305 24.1914 72.4492C24.8242 72.168 25.5186 72.0273 26.2744 72.0273C27.0537 72.0273 27.7568 72.168 28.3838 72.4492C29.0166 72.7305 29.5586 73.1406 30.0098 73.6797C30.4668 74.2129 30.8154 74.8604 31.0557 75.6221C31.3018 76.3779 31.4248 77.2363 31.4248 78.1973ZM29.7461 79.0059V78.1797C29.7461 77.418 29.667 76.7441 29.5088 76.1582C29.3564 75.5723 29.1309 75.0801 28.832 74.6816C28.5332 74.2832 28.167 73.9814 27.7334 73.7764C27.3057 73.5713 26.8193 73.4688 26.2744 73.4688C25.7471 73.4688 25.2695 73.5713 24.8418 73.7764C24.4199 73.9814 24.0566 74.2832 23.752 74.6816C23.4531 75.0801 23.2217 75.5723 23.0576 76.1582C22.8936 76.7441 22.8115 77.418 22.8115 78.1797V79.0059C22.8115 79.7734 22.8936 80.4531 23.0576 81.0449C23.2217 81.6309 23.4561 82.126 23.7607 82.5303C24.0713 82.9287 24.4375 83.2305 24.8594 83.4355C25.2871 83.6406 25.7646 83.7432 26.292 83.7432C26.8428 83.7432 27.332 83.6406 27.7598 83.4355C28.1875 83.2305 28.5479 82.9287 28.8408 82.5303C29.1396 82.126 29.3652 81.6309 29.5176 81.0449C29.6699 80.4531 29.7461 79.7734 29.7461 79.0059ZM36.2236 80.8604L32.6201 75.4902H34.5801L37.041 79.4277H38.9395L38.7021 80.8604H36.2236ZM37.1113 80.6934L34.3516 85H32.2949L36.083 79.5156L37.1113 80.6934ZM39.7744 75.4902V85H38.1484V75.4902H39.7744ZM45.3203 75.4902L41.7168 80.8604H39.2383L38.9834 79.4277H40.8906L43.3516 75.4902H45.3203ZM43.5801 85L40.8115 80.6934L41.8574 79.5156L45.6367 85H43.5801ZM53.5908 79.6123V80.9307H48.5635V79.6123H53.5908ZM48.9062 75.4902V85H47.2803V75.4902H48.9062ZM54.9092 75.4902V85H53.2744V75.4902H54.9092ZM57.0977 80.3506V80.1484C57.0977 79.4629 57.1973 78.8271 57.3965 78.2412C57.5957 77.6494 57.8828 77.1367 58.2578 76.7031C58.6328 76.2637 59.0869 75.9238 59.6201 75.6836C60.1533 75.4375 60.751 75.3145 61.4131 75.3145C62.0811 75.3145 62.6816 75.4375 63.2148 75.6836C63.7539 75.9238 64.2109 76.2637 64.5859 76.7031C64.9668 77.1367 65.2568 77.6494 65.4561 78.2412C65.6553 78.8271 65.7549 79.4629 65.7549 80.1484V80.3506C65.7549 81.0361 65.6553 81.6719 65.4561 82.2578C65.2568 82.8438 64.9668 83.3564 64.5859 83.7959C64.2109 84.2295 63.7568 84.5693 63.2236 84.8154C62.6963 85.0557 62.0986 85.1758 61.4307 85.1758C60.7627 85.1758 60.1621 85.0557 59.6289 84.8154C59.0957 84.5693 58.6387 84.2295 58.2578 83.7959C57.8828 83.3564 57.5957 82.8438 57.3965 82.2578C57.1973 81.6719 57.0977 81.0361 57.0977 80.3506ZM58.7236 80.1484V80.3506C58.7236 80.8252 58.7793 81.2734 58.8906 81.6953C59.002 82.1113 59.1689 82.4805 59.3916 82.8027C59.6201 83.125 59.9043 83.3799 60.2441 83.5674C60.584 83.749 60.9795 83.8398 61.4307 83.8398C61.876 83.8398 62.2656 83.749 62.5996 83.5674C62.9395 83.3799 63.2207 83.125 63.4434 82.8027C63.666 82.4805 63.833 82.1113 63.9443 81.6953C64.0615 81.2734 64.1201 80.8252 64.1201 80.3506V80.1484C64.1201 79.6797 64.0615 79.2373 63.9443 78.8213C63.833 78.3994 63.6631 78.0273 63.4346 77.7051C63.2119 77.377 62.9307 77.1191 62.5908 76.9316C62.2568 76.7441 61.8643 76.6504 61.4131 76.6504C60.9678 76.6504 60.5752 76.7441 60.2354 76.9316C59.9014 77.1191 59.6201 77.377 59.3916 77.7051C59.1689 78.0273 59.002 78.3994 58.8906 78.8213C58.7793 79.2373 58.7236 79.6797 58.7236 80.1484ZM71.1777 78.8916V80.2275H66.8887V78.8916H71.1777ZM80.7402 80.9307H82.4277C82.3398 81.7393 82.1084 82.4629 81.7334 83.1016C81.3584 83.7402 80.8281 84.2471 80.1426 84.6221C79.457 84.9912 78.6016 85.1758 77.5762 85.1758C76.8262 85.1758 76.1436 85.0352 75.5283 84.7539C74.9189 84.4727 74.3945 84.0742 73.9551 83.5586C73.5156 83.0371 73.1758 82.4131 72.9355 81.6865C72.7012 80.9541 72.584 80.1396 72.584 79.2432V77.9688C72.584 77.0723 72.7012 76.2607 72.9355 75.5342C73.1758 74.8018 73.5186 74.1748 73.9639 73.6533C74.415 73.1318 74.957 72.7305 75.5898 72.4492C76.2227 72.168 76.9346 72.0273 77.7256 72.0273C78.6924 72.0273 79.5098 72.209 80.1777 72.5723C80.8457 72.9355 81.3643 73.4395 81.7334 74.084C82.1084 74.7227 82.3398 75.4639 82.4277 76.3076H80.7402C80.6582 75.71 80.5059 75.1973 80.2832 74.7695C80.0605 74.3359 79.7441 74.002 79.334 73.7676C78.9238 73.5332 78.3877 73.416 77.7256 73.416C77.1572 73.416 76.6562 73.5244 76.2227 73.7412C75.7949 73.958 75.4346 74.2656 75.1416 74.6641C74.8545 75.0625 74.6377 75.54 74.4912 76.0967C74.3447 76.6533 74.2715 77.2715 74.2715 77.9512V79.2432C74.2715 79.8701 74.3359 80.459 74.4648 81.0098C74.5996 81.5605 74.8018 82.0439 75.0713 82.46C75.3408 82.876 75.6836 83.2041 76.0996 83.4443C76.5156 83.6787 77.0078 83.7959 77.5762 83.7959C78.2969 83.7959 78.8711 83.6816 79.2988 83.4531C79.7266 83.2246 80.0488 82.8965 80.2656 82.4688C80.4883 82.041 80.6465 81.5283 80.7402 80.9307ZM90.1006 83.374V78.4785C90.1006 78.1035 90.0244 77.7783 89.8721 77.5029C89.7256 77.2217 89.5029 77.0049 89.2041 76.8525C88.9053 76.7002 88.5361 76.624 88.0967 76.624C87.6865 76.624 87.3262 76.6943 87.0156 76.835C86.7109 76.9756 86.4707 77.1602 86.2949 77.3887C86.125 77.6172 86.04 77.8633 86.04 78.127H84.4141C84.4141 77.7871 84.502 77.4502 84.6777 77.1162C84.8535 76.7822 85.1055 76.4805 85.4336 76.2109C85.7676 75.9355 86.166 75.7188 86.6289 75.5605C87.0977 75.3965 87.6191 75.3145 88.1934 75.3145C88.8848 75.3145 89.4941 75.4316 90.0215 75.666C90.5547 75.9004 90.9707 76.2549 91.2695 76.7295C91.5742 77.1982 91.7266 77.7871 91.7266 78.4961V82.9258C91.7266 83.2422 91.7529 83.5791 91.8057 83.9365C91.8643 84.2939 91.9492 84.6016 92.0605 84.8594V85H90.3643C90.2822 84.8125 90.2178 84.5635 90.1709 84.2529C90.124 83.9365 90.1006 83.6436 90.1006 83.374ZM90.3818 79.2344L90.3994 80.377H88.7559C88.293 80.377 87.8799 80.415 87.5166 80.4912C87.1533 80.5615 86.8486 80.6699 86.6025 80.8164C86.3564 80.9629 86.1689 81.1475 86.04 81.3701C85.9111 81.5869 85.8467 81.8418 85.8467 82.1348C85.8467 82.4336 85.9141 82.7061 86.0488 82.9521C86.1836 83.1982 86.3857 83.3945 86.6553 83.541C86.9307 83.6816 87.2676 83.752 87.666 83.752C88.1641 83.752 88.6035 83.6465 88.9844 83.4355C89.3652 83.2246 89.667 82.9668 89.8896 82.6621C90.1182 82.3574 90.2412 82.0615 90.2588 81.7744L90.9531 82.5566C90.9121 82.8027 90.8008 83.0752 90.6191 83.374C90.4375 83.6729 90.1943 83.96 89.8896 84.2354C89.5908 84.5049 89.2334 84.7305 88.8174 84.9121C88.4072 85.0879 87.9443 85.1758 87.4287 85.1758C86.7842 85.1758 86.2188 85.0498 85.7324 84.7979C85.252 84.5459 84.877 84.209 84.6074 83.7871C84.3438 83.3594 84.2119 82.8818 84.2119 82.3545C84.2119 81.8447 84.3115 81.3965 84.5107 81.0098C84.71 80.6172 84.9971 80.292 85.3721 80.0342C85.7471 79.7705 86.1982 79.5713 86.7256 79.4365C87.2529 79.3018 87.8418 79.2344 88.4922 79.2344H90.3818ZM95.3828 75.4902L97.4658 78.9531L99.5752 75.4902H101.482L98.3711 80.1836L101.579 85H99.6982L97.501 81.4316L95.3037 85H93.4141L96.6133 80.1836L93.5107 75.4902H95.3828ZM108.821 83.374V78.4785C108.821 78.1035 108.745 77.7783 108.593 77.5029C108.446 77.2217 108.224 77.0049 107.925 76.8525C107.626 76.7002 107.257 76.624 106.817 76.624C106.407 76.624 106.047 76.6943 105.736 76.835C105.432 76.9756 105.191 77.1602 105.016 77.3887C104.846 77.6172 104.761 77.8633 104.761 78.127H103.135C103.135 77.7871 103.223 77.4502 103.398 77.1162C103.574 76.7822 103.826 76.4805 104.154 76.2109C104.488 75.9355 104.887 75.7188 105.35 75.5605C105.818 75.3965 106.34 75.3145 106.914 75.3145C107.605 75.3145 108.215 75.4316 108.742 75.666C109.275 75.9004 109.691 76.2549 109.99 76.7295C110.295 77.1982 110.447 77.7871 110.447 78.4961V82.9258C110.447 83.2422 110.474 83.5791 110.526 83.9365C110.585 84.2939 110.67 84.6016 110.781 84.8594V85H109.085C109.003 84.8125 108.938 84.5635 108.892 84.2529C108.845 83.9365 108.821 83.6436 108.821 83.374ZM109.103 79.2344L109.12 80.377H107.477C107.014 80.377 106.601 80.415 106.237 80.4912C105.874 80.5615 105.569 80.6699 105.323 80.8164C105.077 80.9629 104.89 81.1475 104.761 81.3701C104.632 81.5869 104.567 81.8418 104.567 82.1348C104.567 82.4336 104.635 82.7061 104.77 82.9521C104.904 83.1982 105.106 83.3945 105.376 83.541C105.651 83.6816 105.988 83.752 106.387 83.752C106.885 83.752 107.324 83.6465 107.705 83.4355C108.086 83.2246 108.388 82.9668 108.61 82.6621C108.839 82.3574 108.962 82.0615 108.979 81.7744L109.674 82.5566C109.633 82.8027 109.521 83.0752 109.34 83.374C109.158 83.6729 108.915 83.96 108.61 84.2354C108.312 84.5049 107.954 84.7305 107.538 84.9121C107.128 85.0879 106.665 85.1758 106.149 85.1758C105.505 85.1758 104.939 85.0498 104.453 84.7979C103.973 84.5459 103.598 84.209 103.328 83.7871C103.064 83.3594 102.933 82.8818 102.933 82.3545C102.933 81.8447 103.032 81.3965 103.231 81.0098C103.431 80.6172 103.718 80.292 104.093 80.0342C104.468 79.7705 104.919 79.5713 105.446 79.4365C105.974 79.3018 106.562 79.2344 107.213 79.2344H109.103ZM119.359 75.4902V76.835H114.763V75.4902H119.359ZM120.792 75.4902V85H119.166V75.4902H120.792ZM114.367 75.4902H116.002L115.756 80.0781C115.715 80.7871 115.647 81.4141 115.554 81.959C115.466 82.498 115.343 82.9609 115.185 83.3477C115.032 83.7344 114.839 84.0508 114.604 84.2969C114.376 84.5371 114.101 84.7158 113.778 84.833C113.456 84.9443 113.084 85 112.662 85H112.152V83.5674L112.504 83.541C112.756 83.5234 112.97 83.4648 113.146 83.3652C113.327 83.2656 113.479 83.1191 113.603 82.9258C113.726 82.7266 113.825 82.4717 113.901 82.1611C113.983 81.8506 114.045 81.4814 114.086 81.0537C114.133 80.626 114.168 80.1279 114.191 79.5596L114.367 75.4902ZM125.169 82.4248L129.555 75.4902H131.189V85H129.555V78.0654L125.169 85H123.552V75.4902H125.169V82.4248ZM140.251 79.6123V80.9307H135.224V79.6123H140.251ZM135.566 75.4902V85H133.94V75.4902H135.566ZM141.569 75.4902V85H139.935V75.4902H141.569ZM147.994 83.8398C148.381 83.8398 148.738 83.7607 149.066 83.6025C149.395 83.4443 149.664 83.2275 149.875 82.9521C150.086 82.6709 150.206 82.3516 150.235 81.9941H151.782C151.753 82.5566 151.562 83.0811 151.211 83.5674C150.865 84.0479 150.411 84.4375 149.849 84.7363C149.286 85.0293 148.668 85.1758 147.994 85.1758C147.279 85.1758 146.655 85.0498 146.122 84.7979C145.595 84.5459 145.155 84.2002 144.804 83.7607C144.458 83.3213 144.197 82.8174 144.021 82.249C143.852 81.6748 143.767 81.0684 143.767 80.4297V80.0605C143.767 79.4219 143.852 78.8184 144.021 78.25C144.197 77.6758 144.458 77.1689 144.804 76.7295C145.155 76.29 145.595 75.9443 146.122 75.6924C146.655 75.4404 147.279 75.3145 147.994 75.3145C148.738 75.3145 149.389 75.4668 149.945 75.7715C150.502 76.0703 150.938 76.4805 151.255 77.002C151.577 77.5176 151.753 78.1035 151.782 78.7598H150.235C150.206 78.3672 150.095 78.0127 149.901 77.6963C149.714 77.3799 149.456 77.1279 149.128 76.9404C148.806 76.7471 148.428 76.6504 147.994 76.6504C147.496 76.6504 147.077 76.75 146.737 76.9492C146.403 77.1426 146.137 77.4062 145.938 77.7402C145.744 78.0684 145.604 78.4346 145.516 78.8389C145.434 79.2373 145.393 79.6445 145.393 80.0605V80.4297C145.393 80.8457 145.434 81.2559 145.516 81.6602C145.598 82.0645 145.735 82.4307 145.929 82.7588C146.128 83.0869 146.395 83.3506 146.729 83.5498C147.068 83.7432 147.49 83.8398 147.994 83.8398ZM155.377 75.4902V85H153.751V75.4902H155.377ZM161.617 75.4902L157.108 80.9395H154.832L154.586 79.5156H156.449L159.64 75.4902H161.617ZM159.868 85L156.37 80.6934L157.416 79.5156L161.934 85H159.868Z" fill="white"/>
<path d="M247.549 15.6201V17H237.863V15.6201H247.549ZM238.136 15.6201V20.1465H236.457L236.448 15.6201H238.136ZM249.025 15.6201L249.008 20.1377H247.329V15.6201H249.025ZM245.888 4.20312V5.5918H240.28V4.20312H245.888ZM247.347 4.20312V17H245.659V4.20312H247.347ZM239.7 4.20312H241.396L241.133 9.35352C241.098 10.127 241.024 10.8418 240.913 11.498C240.802 12.1484 240.664 12.7432 240.5 13.2822C240.336 13.8213 240.148 14.3047 239.938 14.7324C239.727 15.1543 239.501 15.5205 239.261 15.8311C239.021 16.1357 238.769 16.3877 238.505 16.5869C238.247 16.7803 237.986 16.918 237.723 17H236.949V15.6201H237.494C237.646 15.4561 237.819 15.2188 238.013 14.9082C238.212 14.5977 238.408 14.1963 238.602 13.7041C238.801 13.2061 238.974 12.5996 239.12 11.8848C239.272 11.1699 239.375 10.3262 239.428 9.35352L239.7 4.20312ZM250.344 12.3506V12.1484C250.344 11.4629 250.443 10.8271 250.643 10.2412C250.842 9.64941 251.129 9.13672 251.504 8.70312C251.879 8.26367 252.333 7.92383 252.866 7.68359C253.399 7.4375 253.997 7.31445 254.659 7.31445C255.327 7.31445 255.928 7.4375 256.461 7.68359C257 7.92383 257.457 8.26367 257.832 8.70312C258.213 9.13672 258.503 9.64941 258.702 10.2412C258.901 10.8271 259.001 11.4629 259.001 12.1484V12.3506C259.001 13.0361 258.901 13.6719 258.702 14.2578C258.503 14.8438 258.213 15.3564 257.832 15.7959C257.457 16.2295 257.003 16.5693 256.47 16.8154C255.942 17.0557 255.345 17.1758 254.677 17.1758C254.009 17.1758 253.408 17.0557 252.875 16.8154C252.342 16.5693 251.885 16.2295 251.504 15.7959C251.129 15.3564 250.842 14.8438 250.643 14.2578C250.443 13.6719 250.344 13.0361 250.344 12.3506ZM251.97 12.1484V12.3506C251.97 12.8252 252.025 13.2734 252.137 13.6953C252.248 14.1113 252.415 14.4805 252.638 14.8027C252.866 15.125 253.15 15.3799 253.49 15.5674C253.83 15.749 254.226 15.8398 254.677 15.8398C255.122 15.8398 255.512 15.749 255.846 15.5674C256.186 15.3799 256.467 15.125 256.689 14.8027C256.912 14.4805 257.079 14.1113 257.19 13.6953C257.308 13.2734 257.366 12.8252 257.366 12.3506V12.1484C257.366 11.6797 257.308 11.2373 257.19 10.8213C257.079 10.3994 256.909 10.0273 256.681 9.70508C256.458 9.37695 256.177 9.11914 255.837 8.93164C255.503 8.74414 255.11 8.65039 254.659 8.65039C254.214 8.65039 253.821 8.74414 253.481 8.93164C253.147 9.11914 252.866 9.37695 252.638 9.70508C252.415 10.0273 252.248 10.3994 252.137 10.8213C252.025 11.2373 251.97 11.6797 251.97 12.1484ZM267.254 7.49023V8.83496H262.657V7.49023H267.254ZM268.687 7.49023V17H267.061V7.49023H268.687ZM262.262 7.49023H263.896L263.65 12.0781C263.609 12.7871 263.542 13.4141 263.448 13.959C263.36 14.498 263.237 14.9609 263.079 15.3477C262.927 15.7344 262.733 16.0508 262.499 16.2969C262.271 16.5371 261.995 16.7158 261.673 16.833C261.351 16.9443 260.979 17 260.557 17H260.047V15.5674L260.398 15.541C260.65 15.5234 260.864 15.4648 261.04 15.3652C261.222 15.2656 261.374 15.1191 261.497 14.9258C261.62 14.7266 261.72 14.4717 261.796 14.1611C261.878 13.8506 261.939 13.4814 261.98 13.0537C262.027 12.626 262.062 12.1279 262.086 11.5596L262.262 7.49023ZM273.063 14.4248L277.449 7.49023H279.084V17H277.449V10.0654L273.063 17H271.446V7.49023H273.063V14.4248ZM288.146 11.6123V12.9307H283.118V11.6123H288.146ZM283.461 7.49023V17H281.835V7.49023H283.461ZM289.464 7.49023V17H287.829V7.49023H289.464ZM295.889 15.8398C296.275 15.8398 296.633 15.7607 296.961 15.6025C297.289 15.4443 297.559 15.2275 297.77 14.9521C297.98 14.6709 298.101 14.3516 298.13 13.9941H299.677C299.647 14.5566 299.457 15.0811 299.105 15.5674C298.76 16.0479 298.306 16.4375 297.743 16.7363C297.181 17.0293 296.562 17.1758 295.889 17.1758C295.174 17.1758 294.55 17.0498 294.017 16.7979C293.489 16.5459 293.05 16.2002 292.698 15.7607C292.353 15.3213 292.092 14.8174 291.916 14.249C291.746 13.6748 291.661 13.0684 291.661 12.4297V12.0605C291.661 11.4219 291.746 10.8184 291.916 10.25C292.092 9.67578 292.353 9.16895 292.698 8.72949C293.05 8.29004 293.489 7.94434 294.017 7.69238C294.55 7.44043 295.174 7.31445 295.889 7.31445C296.633 7.31445 297.283 7.4668 297.84 7.77148C298.396 8.07031 298.833 8.48047 299.149 9.00195C299.472 9.51758 299.647 10.1035 299.677 10.7598H298.13C298.101 10.3672 297.989 10.0127 297.796 9.69629C297.608 9.37988 297.351 9.12793 297.022 8.94043C296.7 8.74707 296.322 8.65039 295.889 8.65039C295.391 8.65039 294.972 8.75 294.632 8.94922C294.298 9.14258 294.031 9.40625 293.832 9.74023C293.639 10.0684 293.498 10.4346 293.41 10.8389C293.328 11.2373 293.287 11.6445 293.287 12.0605V12.4297C293.287 12.8457 293.328 13.2559 293.41 13.6602C293.492 14.0645 293.63 14.4307 293.823 14.7588C294.022 15.0869 294.289 15.3506 294.623 15.5498C294.963 15.7432 295.385 15.8398 295.889 15.8398ZM303.271 7.49023V17H301.646V7.49023H303.271ZM309.512 7.49023L305.003 12.9395H302.727L302.48 11.5156H304.344L307.534 7.49023H309.512ZM307.763 17L304.265 12.6934L305.311 11.5156L309.828 17H307.763Z" fill="white"/>
<path d="M279.706 100.838L282.94 93.4902H284.505L280.269 103H279.144L274.925 93.4902H276.489L279.706 100.838ZM276.015 93.4902V103H274.389V93.4902H276.015ZM283.345 103V93.4902H284.979V103H283.345ZM288.935 96.7598H291.791C292.559 96.7598 293.206 96.8945 293.733 97.1641C294.261 97.4277 294.659 97.7939 294.929 98.2627C295.204 98.7256 295.342 99.2529 295.342 99.8447C295.342 100.284 295.266 100.697 295.113 101.084C294.961 101.465 294.732 101.799 294.428 102.086C294.129 102.373 293.757 102.599 293.312 102.763C292.872 102.921 292.365 103 291.791 103H287.748V93.4902H289.374V101.664H291.791C292.26 101.664 292.635 101.579 292.916 101.409C293.197 101.239 293.399 101.02 293.522 100.75C293.646 100.48 293.707 100.199 293.707 99.9062C293.707 99.6191 293.646 99.3379 293.522 99.0625C293.399 98.7871 293.197 98.5586 292.916 98.377C292.635 98.1895 292.26 98.0957 291.791 98.0957H288.935V96.7598ZM298.726 93.4902V103H297.1V93.4902H298.726ZM305.379 101.84C305.766 101.84 306.123 101.761 306.451 101.603C306.779 101.444 307.049 101.228 307.26 100.952C307.471 100.671 307.591 100.352 307.62 99.9941H309.167C309.138 100.557 308.947 101.081 308.596 101.567C308.25 102.048 307.796 102.438 307.233 102.736C306.671 103.029 306.053 103.176 305.379 103.176C304.664 103.176 304.04 103.05 303.507 102.798C302.979 102.546 302.54 102.2 302.188 101.761C301.843 101.321 301.582 100.817 301.406 100.249C301.236 99.6748 301.151 99.0684 301.151 98.4297V98.0605C301.151 97.4219 301.236 96.8184 301.406 96.25C301.582 95.6758 301.843 95.1689 302.188 94.7295C302.54 94.29 302.979 93.9443 303.507 93.6924C304.04 93.4404 304.664 93.3145 305.379 93.3145C306.123 93.3145 306.773 93.4668 307.33 93.7715C307.887 94.0703 308.323 94.4805 308.64 95.002C308.962 95.5176 309.138 96.1035 309.167 96.7598H307.62C307.591 96.3672 307.479 96.0127 307.286 95.6963C307.099 95.3799 306.841 95.1279 306.513 94.9404C306.19 94.7471 305.812 94.6504 305.379 94.6504C304.881 94.6504 304.462 94.75 304.122 94.9492C303.788 95.1426 303.521 95.4062 303.322 95.7402C303.129 96.0684 302.988 96.4346 302.9 96.8389C302.818 97.2373 302.777 97.6445 302.777 98.0605V98.4297C302.777 98.8457 302.818 99.2559 302.9 99.6602C302.982 100.064 303.12 100.431 303.313 100.759C303.513 101.087 303.779 101.351 304.113 101.55C304.453 101.743 304.875 101.84 305.379 101.84ZM325.559 96.1973V97.0059C325.559 97.9668 325.438 98.8281 325.198 99.5898C324.958 100.352 324.612 100.999 324.161 101.532C323.71 102.065 323.168 102.473 322.535 102.754C321.908 103.035 321.205 103.176 320.426 103.176C319.67 103.176 318.976 103.035 318.343 102.754C317.716 102.473 317.171 102.065 316.708 101.532C316.251 100.999 315.896 100.352 315.645 99.5898C315.393 98.8281 315.267 97.9668 315.267 97.0059V96.1973C315.267 95.2363 315.39 94.3779 315.636 93.6221C315.888 92.8604 316.242 92.2129 316.699 91.6797C317.156 91.1406 317.698 90.7305 318.325 90.4492C318.958 90.168 319.652 90.0273 320.408 90.0273C321.188 90.0273 321.891 90.168 322.518 90.4492C323.15 90.7305 323.692 91.1406 324.144 91.6797C324.601 92.2129 324.949 92.8604 325.189 93.6221C325.436 94.3779 325.559 95.2363 325.559 96.1973ZM323.88 97.0059V96.1797C323.88 95.418 323.801 94.7441 323.643 94.1582C323.49 93.5723 323.265 93.0801 322.966 92.6816C322.667 92.2832 322.301 91.9814 321.867 91.7764C321.439 91.5713 320.953 91.4688 320.408 91.4688C319.881 91.4688 319.403 91.5713 318.976 91.7764C318.554 91.9814 318.19 92.2832 317.886 92.6816C317.587 93.0801 317.355 93.5723 317.191 94.1582C317.027 94.7441 316.945 95.418 316.945 96.1797V97.0059C316.945 97.7734 317.027 98.4531 317.191 99.0449C317.355 99.6309 317.59 100.126 317.895 100.53C318.205 100.929 318.571 101.23 318.993 101.436C319.421 101.641 319.898 101.743 320.426 101.743C320.977 101.743 321.466 101.641 321.894 101.436C322.321 101.23 322.682 100.929 322.975 100.53C323.273 100.126 323.499 99.6309 323.651 99.0449C323.804 98.4531 323.88 97.7734 323.88 97.0059ZM331.658 101.84C332.045 101.84 332.402 101.761 332.73 101.603C333.059 101.444 333.328 101.228 333.539 100.952C333.75 100.671 333.87 100.352 333.899 99.9941H335.446C335.417 100.557 335.227 101.081 334.875 101.567C334.529 102.048 334.075 102.438 333.513 102.736C332.95 103.029 332.332 103.176 331.658 103.176C330.943 103.176 330.319 103.05 329.786 102.798C329.259 102.546 328.819 102.2 328.468 101.761C328.122 101.321 327.861 100.817 327.686 100.249C327.516 99.6748 327.431 99.0684 327.431 98.4297V98.0605C327.431 97.4219 327.516 96.8184 327.686 96.25C327.861 95.6758 328.122 95.1689 328.468 94.7295C328.819 94.29 329.259 93.9443 329.786 93.6924C330.319 93.4404 330.943 93.3145 331.658 93.3145C332.402 93.3145 333.053 93.4668 333.609 93.7715C334.166 94.0703 334.603 94.4805 334.919 95.002C335.241 95.5176 335.417 96.1035 335.446 96.7598H333.899C333.87 96.3672 333.759 96.0127 333.565 95.6963C333.378 95.3799 333.12 95.1279 332.792 94.9404C332.47 94.7471 332.092 94.6504 331.658 94.6504C331.16 94.6504 330.741 94.75 330.401 94.9492C330.067 95.1426 329.801 95.4062 329.602 95.7402C329.408 96.0684 329.268 96.4346 329.18 96.8389C329.098 97.2373 329.057 97.6445 329.057 98.0605V98.4297C329.057 98.8457 329.098 99.2559 329.18 99.6602C329.262 100.064 329.399 100.431 329.593 100.759C329.792 101.087 330.059 101.351 330.393 101.55C330.732 101.743 331.154 101.84 331.658 101.84ZM341.15 93.4902V103H339.516V93.4902H341.15ZM344.341 93.4902V94.8086H336.387V93.4902H344.341ZM347.566 95.3184V106.656H345.932V93.4902H347.426L347.566 95.3184ZM353.974 98.166V98.3506C353.974 99.042 353.892 99.6836 353.728 100.275C353.563 100.861 353.323 101.371 353.007 101.805C352.696 102.238 352.312 102.575 351.855 102.815C351.398 103.056 350.874 103.176 350.282 103.176C349.679 103.176 349.146 103.076 348.683 102.877C348.22 102.678 347.827 102.388 347.505 102.007C347.183 101.626 346.925 101.169 346.731 100.636C346.544 100.103 346.415 99.502 346.345 98.834V97.8496C346.415 97.1465 346.547 96.5166 346.74 95.96C346.934 95.4033 347.188 94.9287 347.505 94.5361C347.827 94.1377 348.217 93.8359 348.674 93.6309C349.131 93.4199 349.658 93.3145 350.256 93.3145C350.854 93.3145 351.384 93.4316 351.847 93.666C352.31 93.8945 352.699 94.2227 353.016 94.6504C353.332 95.0781 353.569 95.5908 353.728 96.1885C353.892 96.7803 353.974 97.4395 353.974 98.166ZM352.339 98.3506V98.166C352.339 97.6914 352.289 97.2461 352.189 96.8301C352.09 96.4082 351.935 96.0391 351.724 95.7227C351.519 95.4004 351.255 95.1484 350.933 94.9668C350.61 94.7793 350.227 94.6855 349.781 94.6855C349.371 94.6855 349.014 94.7559 348.709 94.8965C348.41 95.0371 348.155 95.2275 347.944 95.4678C347.733 95.7021 347.561 95.9717 347.426 96.2764C347.297 96.5752 347.2 96.8857 347.136 97.208V99.4844C347.253 99.8945 347.417 100.281 347.628 100.645C347.839 101.002 348.12 101.292 348.472 101.515C348.823 101.731 349.266 101.84 349.799 101.84C350.238 101.84 350.616 101.749 350.933 101.567C351.255 101.38 351.519 101.125 351.724 100.803C351.935 100.48 352.09 100.111 352.189 99.6953C352.289 99.2734 352.339 98.8252 352.339 98.3506ZM357.384 96.7598H360.24C361.008 96.7598 361.655 96.8945 362.183 97.1641C362.71 97.4277 363.108 97.7939 363.378 98.2627C363.653 98.7256 363.791 99.2529 363.791 99.8447C363.791 100.284 363.715 100.697 363.562 101.084C363.41 101.465 363.182 101.799 362.877 102.086C362.578 102.373 362.206 102.599 361.761 102.763C361.321 102.921 360.814 103 360.24 103H356.197V93.4902H357.823V101.664H360.24C360.709 101.664 361.084 101.579 361.365 101.409C361.646 101.239 361.849 101.02 361.972 100.75C362.095 100.48 362.156 100.199 362.156 99.9062C362.156 99.6191 362.095 99.3379 361.972 99.0625C361.849 98.7871 361.646 98.5586 361.365 98.377C361.084 98.1895 360.709 98.0957 360.24 98.0957H357.384V96.7598ZM367.175 93.4902V103H365.549V93.4902H367.175ZM371.78 100.425L376.166 93.4902H377.801V103H376.166V96.0654L371.78 103H370.163V93.4902H371.78V100.425ZM375.278 90.0449H376.597C376.597 90.502 376.491 90.9092 376.28 91.2666C376.069 91.6182 375.768 91.8936 375.375 92.0928C374.982 92.292 374.517 92.3916 373.978 92.3916C373.163 92.3916 372.519 92.1748 372.044 91.7412C371.575 91.3018 371.341 90.7363 371.341 90.0449H372.659C372.659 90.3906 372.759 90.6953 372.958 90.959C373.157 91.2227 373.497 91.3545 373.978 91.3545C374.446 91.3545 374.78 91.2227 374.979 90.959C375.179 90.6953 375.278 90.3906 375.278 90.0449Z" fill="white"/>
<path d="M115.338 351.197V352.006C115.338 352.967 115.218 353.828 114.978 354.59C114.737 355.352 114.392 355.999 113.94 356.532C113.489 357.065 112.947 357.473 112.314 357.754C111.688 358.035 110.984 358.176 110.205 358.176C109.449 358.176 108.755 358.035 108.122 357.754C107.495 357.473 106.95 357.065 106.487 356.532C106.03 355.999 105.676 355.352 105.424 354.59C105.172 353.828 105.046 352.967 105.046 352.006V351.197C105.046 350.236 105.169 349.378 105.415 348.622C105.667 347.86 106.021 347.213 106.479 346.68C106.936 346.141 107.478 345.73 108.104 345.449C108.737 345.168 109.432 345.027 110.188 345.027C110.967 345.027 111.67 345.168 112.297 345.449C112.93 345.73 113.472 346.141 113.923 346.68C114.38 347.213 114.729 347.86 114.969 348.622C115.215 349.378 115.338 350.236 115.338 351.197ZM113.659 352.006V351.18C113.659 350.418 113.58 349.744 113.422 349.158C113.27 348.572 113.044 348.08 112.745 347.682C112.446 347.283 112.08 346.981 111.646 346.776C111.219 346.571 110.732 346.469 110.188 346.469C109.66 346.469 109.183 346.571 108.755 346.776C108.333 346.981 107.97 347.283 107.665 347.682C107.366 348.08 107.135 348.572 106.971 349.158C106.807 349.744 106.725 350.418 106.725 351.18V352.006C106.725 352.773 106.807 353.453 106.971 354.045C107.135 354.631 107.369 355.126 107.674 355.53C107.984 355.929 108.351 356.23 108.772 356.436C109.2 356.641 109.678 356.743 110.205 356.743C110.756 356.743 111.245 356.641 111.673 356.436C112.101 356.23 112.461 355.929 112.754 355.53C113.053 355.126 113.278 354.631 113.431 354.045C113.583 353.453 113.659 352.773 113.659 352.006ZM118.73 348.49L120.813 351.953L122.923 348.49H124.83L121.719 353.184L124.927 358H123.046L120.849 354.432L118.651 358H116.762L119.961 353.184L116.858 348.49H118.73ZM125.955 353.351V353.148C125.955 352.463 126.055 351.827 126.254 351.241C126.453 350.649 126.74 350.137 127.115 349.703C127.49 349.264 127.944 348.924 128.478 348.684C129.011 348.438 129.608 348.314 130.271 348.314C130.938 348.314 131.539 348.438 132.072 348.684C132.611 348.924 133.068 349.264 133.443 349.703C133.824 350.137 134.114 350.649 134.313 351.241C134.513 351.827 134.612 352.463 134.612 353.148V353.351C134.612 354.036 134.513 354.672 134.313 355.258C134.114 355.844 133.824 356.356 133.443 356.796C133.068 357.229 132.614 357.569 132.081 357.815C131.554 358.056 130.956 358.176 130.288 358.176C129.62 358.176 129.02 358.056 128.486 357.815C127.953 357.569 127.496 357.229 127.115 356.796C126.74 356.356 126.453 355.844 126.254 355.258C126.055 354.672 125.955 354.036 125.955 353.351ZM127.581 353.148V353.351C127.581 353.825 127.637 354.273 127.748 354.695C127.859 355.111 128.026 355.48 128.249 355.803C128.478 356.125 128.762 356.38 129.102 356.567C129.441 356.749 129.837 356.84 130.288 356.84C130.733 356.84 131.123 356.749 131.457 356.567C131.797 356.38 132.078 356.125 132.301 355.803C132.523 355.48 132.69 355.111 132.802 354.695C132.919 354.273 132.978 353.825 132.978 353.351V353.148C132.978 352.68 132.919 352.237 132.802 351.821C132.69 351.399 132.521 351.027 132.292 350.705C132.069 350.377 131.788 350.119 131.448 349.932C131.114 349.744 130.722 349.65 130.271 349.65C129.825 349.65 129.433 349.744 129.093 349.932C128.759 350.119 128.478 350.377 128.249 350.705C128.026 351.027 127.859 351.399 127.748 351.821C127.637 352.237 127.581 352.68 127.581 353.148ZM140.334 348.49V358H138.699V348.49H140.334ZM143.524 348.49V349.809H135.57V348.49H143.524ZM148.227 356.84C148.613 356.84 148.971 356.761 149.299 356.603C149.627 356.444 149.896 356.228 150.107 355.952C150.318 355.671 150.438 355.352 150.468 354.994H152.015C151.985 355.557 151.795 356.081 151.443 356.567C151.098 357.048 150.644 357.438 150.081 357.736C149.519 358.029 148.9 358.176 148.227 358.176C147.512 358.176 146.888 358.05 146.354 357.798C145.827 357.546 145.388 357.2 145.036 356.761C144.69 356.321 144.43 355.817 144.254 355.249C144.084 354.675 143.999 354.068 143.999 353.43V353.061C143.999 352.422 144.084 351.818 144.254 351.25C144.43 350.676 144.69 350.169 145.036 349.729C145.388 349.29 145.827 348.944 146.354 348.692C146.888 348.44 147.512 348.314 148.227 348.314C148.971 348.314 149.621 348.467 150.178 348.771C150.734 349.07 151.171 349.48 151.487 350.002C151.81 350.518 151.985 351.104 152.015 351.76H150.468C150.438 351.367 150.327 351.013 150.134 350.696C149.946 350.38 149.688 350.128 149.36 349.94C149.038 349.747 148.66 349.65 148.227 349.65C147.729 349.65 147.31 349.75 146.97 349.949C146.636 350.143 146.369 350.406 146.17 350.74C145.977 351.068 145.836 351.435 145.748 351.839C145.666 352.237 145.625 352.645 145.625 353.061V353.43C145.625 353.846 145.666 354.256 145.748 354.66C145.83 355.064 145.968 355.431 146.161 355.759C146.36 356.087 146.627 356.351 146.961 356.55C147.301 356.743 147.723 356.84 148.227 356.84ZM155.609 348.49V358H153.983V348.49H155.609ZM161.85 348.49L157.341 353.939H155.064L154.818 352.516H156.682L159.872 348.49H161.85ZM160.101 358L156.603 353.693L157.648 352.516L162.166 358H160.101ZM162.957 353.351V353.148C162.957 352.463 163.057 351.827 163.256 351.241C163.455 350.649 163.742 350.137 164.117 349.703C164.492 349.264 164.946 348.924 165.479 348.684C166.013 348.438 166.61 348.314 167.272 348.314C167.94 348.314 168.541 348.438 169.074 348.684C169.613 348.924 170.07 349.264 170.445 349.703C170.826 350.137 171.116 350.649 171.315 351.241C171.515 351.827 171.614 352.463 171.614 353.148V353.351C171.614 354.036 171.515 354.672 171.315 355.258C171.116 355.844 170.826 356.356 170.445 356.796C170.07 357.229 169.616 357.569 169.083 357.815C168.556 358.056 167.958 358.176 167.29 358.176C166.622 358.176 166.021 358.056 165.488 357.815C164.955 357.569 164.498 357.229 164.117 356.796C163.742 356.356 163.455 355.844 163.256 355.258C163.057 354.672 162.957 354.036 162.957 353.351ZM164.583 353.148V353.351C164.583 353.825 164.639 354.273 164.75 354.695C164.861 355.111 165.028 355.48 165.251 355.803C165.479 356.125 165.764 356.38 166.104 356.567C166.443 356.749 166.839 356.84 167.29 356.84C167.735 356.84 168.125 356.749 168.459 356.567C168.799 356.38 169.08 356.125 169.303 355.803C169.525 355.48 169.692 355.111 169.804 354.695C169.921 354.273 169.979 353.825 169.979 353.351V353.148C169.979 352.68 169.921 352.237 169.804 351.821C169.692 351.399 169.522 351.027 169.294 350.705C169.071 350.377 168.79 350.119 168.45 349.932C168.116 349.744 167.724 349.65 167.272 349.65C166.827 349.65 166.435 349.744 166.095 349.932C165.761 350.119 165.479 350.377 165.251 350.705C165.028 351.027 164.861 351.399 164.75 351.821C164.639 352.237 164.583 352.68 164.583 353.148ZM177.6 358.176C176.938 358.176 176.337 358.064 175.798 357.842C175.265 357.613 174.805 357.294 174.418 356.884C174.037 356.474 173.744 355.987 173.539 355.425C173.334 354.862 173.231 354.247 173.231 353.579V353.21C173.231 352.437 173.346 351.748 173.574 351.145C173.803 350.535 174.113 350.02 174.506 349.598C174.898 349.176 175.344 348.856 175.842 348.64C176.34 348.423 176.855 348.314 177.389 348.314C178.068 348.314 178.654 348.432 179.146 348.666C179.645 348.9 180.052 349.229 180.368 349.65C180.685 350.066 180.919 350.559 181.071 351.127C181.224 351.689 181.3 352.305 181.3 352.973V353.702H174.198V352.375H179.674V352.252C179.65 351.83 179.562 351.42 179.41 351.021C179.264 350.623 179.029 350.295 178.707 350.037C178.385 349.779 177.945 349.65 177.389 349.65C177.02 349.65 176.68 349.729 176.369 349.888C176.059 350.04 175.792 350.269 175.569 350.573C175.347 350.878 175.174 351.25 175.051 351.689C174.928 352.129 174.866 352.636 174.866 353.21V353.579C174.866 354.03 174.928 354.455 175.051 354.854C175.18 355.246 175.364 355.592 175.604 355.891C175.851 356.189 176.146 356.424 176.492 356.594C176.844 356.764 177.242 356.849 177.688 356.849C178.262 356.849 178.748 356.731 179.146 356.497C179.545 356.263 179.894 355.949 180.192 355.557L181.177 356.339C180.972 356.649 180.711 356.945 180.395 357.227C180.078 357.508 179.688 357.736 179.226 357.912C178.769 358.088 178.227 358.176 177.6 358.176Z" fill="white"/>
<path d="M144.211 381.931H145.898C145.811 382.739 145.579 383.463 145.204 384.102C144.829 384.74 144.299 385.247 143.613 385.622C142.928 385.991 142.072 386.176 141.047 386.176C140.297 386.176 139.614 386.035 138.999 385.754C138.39 385.473 137.865 385.074 137.426 384.559C136.986 384.037 136.646 383.413 136.406 382.687C136.172 381.954 136.055 381.14 136.055 380.243V378.969C136.055 378.072 136.172 377.261 136.406 376.534C136.646 375.802 136.989 375.175 137.435 374.653C137.886 374.132 138.428 373.73 139.061 373.449C139.693 373.168 140.405 373.027 141.196 373.027C142.163 373.027 142.98 373.209 143.648 373.572C144.316 373.936 144.835 374.439 145.204 375.084C145.579 375.723 145.811 376.464 145.898 377.308H144.211C144.129 376.71 143.977 376.197 143.754 375.77C143.531 375.336 143.215 375.002 142.805 374.768C142.395 374.533 141.858 374.416 141.196 374.416C140.628 374.416 140.127 374.524 139.693 374.741C139.266 374.958 138.905 375.266 138.612 375.664C138.325 376.062 138.108 376.54 137.962 377.097C137.815 377.653 137.742 378.271 137.742 378.951V380.243C137.742 380.87 137.807 381.459 137.936 382.01C138.07 382.561 138.272 383.044 138.542 383.46C138.812 383.876 139.154 384.204 139.57 384.444C139.986 384.679 140.479 384.796 141.047 384.796C141.768 384.796 142.342 384.682 142.77 384.453C143.197 384.225 143.52 383.896 143.736 383.469C143.959 383.041 144.117 382.528 144.211 381.931ZM152.429 381.816H149.309L149.291 380.516H151.84C152.344 380.516 152.763 380.466 153.097 380.366C153.437 380.267 153.691 380.117 153.861 379.918C154.031 379.719 154.116 379.473 154.116 379.18C154.116 378.951 154.066 378.752 153.967 378.582C153.873 378.406 153.729 378.263 153.536 378.151C153.343 378.034 153.103 377.949 152.815 377.896C152.534 377.838 152.203 377.809 151.822 377.809H149.739V386H148.113V376.49H151.822C152.426 376.49 152.968 376.543 153.448 376.648C153.935 376.754 154.348 376.915 154.688 377.132C155.033 377.343 155.297 377.612 155.479 377.94C155.66 378.269 155.751 378.655 155.751 379.101C155.751 379.388 155.692 379.66 155.575 379.918C155.458 380.176 155.285 380.404 155.057 380.604C154.828 380.803 154.547 380.967 154.213 381.096C153.879 381.219 153.495 381.298 153.062 381.333L152.429 381.816ZM152.429 386H148.72L149.528 384.682H152.429C152.88 384.682 153.255 384.626 153.554 384.515C153.853 384.397 154.075 384.233 154.222 384.022C154.374 383.806 154.45 383.548 154.45 383.249C154.45 382.95 154.374 382.695 154.222 382.484C154.075 382.268 153.853 382.104 153.554 381.992C153.255 381.875 152.88 381.816 152.429 381.816H149.959L149.977 380.516H153.062L153.65 381.008C154.172 381.049 154.614 381.178 154.978 381.395C155.341 381.611 155.616 381.887 155.804 382.221C155.991 382.549 156.085 382.906 156.085 383.293C156.085 383.738 156 384.131 155.83 384.471C155.666 384.811 155.426 385.095 155.109 385.323C154.793 385.546 154.409 385.716 153.958 385.833C153.507 385.944 152.997 386 152.429 386ZM157.834 381.351V381.148C157.834 380.463 157.934 379.827 158.133 379.241C158.332 378.649 158.619 378.137 158.994 377.703C159.369 377.264 159.823 376.924 160.356 376.684C160.89 376.438 161.487 376.314 162.149 376.314C162.817 376.314 163.418 376.438 163.951 376.684C164.49 376.924 164.947 377.264 165.322 377.703C165.703 378.137 165.993 378.649 166.192 379.241C166.392 379.827 166.491 380.463 166.491 381.148V381.351C166.491 382.036 166.392 382.672 166.192 383.258C165.993 383.844 165.703 384.356 165.322 384.796C164.947 385.229 164.493 385.569 163.96 385.815C163.433 386.056 162.835 386.176 162.167 386.176C161.499 386.176 160.898 386.056 160.365 385.815C159.832 385.569 159.375 385.229 158.994 384.796C158.619 384.356 158.332 383.844 158.133 383.258C157.934 382.672 157.834 382.036 157.834 381.351ZM159.46 381.148V381.351C159.46 381.825 159.516 382.273 159.627 382.695C159.738 383.111 159.905 383.48 160.128 383.803C160.356 384.125 160.641 384.38 160.98 384.567C161.32 384.749 161.716 384.84 162.167 384.84C162.612 384.84 163.002 384.749 163.336 384.567C163.676 384.38 163.957 384.125 164.18 383.803C164.402 383.48 164.569 383.111 164.681 382.695C164.798 382.273 164.856 381.825 164.856 381.351V381.148C164.856 380.68 164.798 380.237 164.681 379.821C164.569 379.399 164.399 379.027 164.171 378.705C163.948 378.377 163.667 378.119 163.327 377.932C162.993 377.744 162.601 377.65 162.149 377.65C161.704 377.65 161.312 377.744 160.972 377.932C160.638 378.119 160.356 378.377 160.128 378.705C159.905 379.027 159.738 379.399 159.627 379.821C159.516 380.237 159.46 380.68 159.46 381.148ZM174.63 372.351H175.966C175.966 372.925 175.878 373.382 175.702 373.722C175.526 374.056 175.286 374.313 174.981 374.495C174.683 374.677 174.343 374.814 173.962 374.908C173.587 375.002 173.197 375.093 172.793 375.181C172.289 375.286 171.82 375.453 171.387 375.682C170.959 375.904 170.59 376.221 170.279 376.631C169.975 377.041 169.749 377.574 169.603 378.23C169.462 378.887 169.424 379.698 169.488 380.665V381.474H168.152V380.665C168.152 379.581 168.255 378.635 168.46 377.826C168.671 377.018 168.967 376.335 169.348 375.778C169.729 375.222 170.18 374.779 170.701 374.451C171.229 374.123 171.809 373.897 172.441 373.774C172.898 373.687 173.291 373.593 173.619 373.493C173.947 373.388 174.196 373.247 174.366 373.071C174.542 372.896 174.63 372.655 174.63 372.351ZM172.705 377.035C173.326 377.035 173.88 377.144 174.366 377.36C174.853 377.577 175.266 377.879 175.605 378.266C175.945 378.652 176.203 379.109 176.379 379.637C176.561 380.158 176.651 380.727 176.651 381.342V381.535C176.651 382.197 176.555 382.812 176.361 383.381C176.174 383.943 175.896 384.436 175.526 384.857C175.163 385.273 174.718 385.599 174.19 385.833C173.669 386.067 173.074 386.185 172.406 386.185C171.738 386.185 171.141 386.067 170.613 385.833C170.092 385.599 169.646 385.273 169.277 384.857C168.908 384.436 168.627 383.943 168.434 383.381C168.246 382.812 168.152 382.197 168.152 381.535V381.342C168.152 381.195 168.179 381.052 168.231 380.911C168.284 380.771 168.349 380.627 168.425 380.48C168.507 380.334 168.58 380.179 168.645 380.015C168.861 379.487 169.157 378.998 169.532 378.547C169.913 378.096 170.367 377.732 170.895 377.457C171.428 377.176 172.031 377.035 172.705 377.035ZM172.389 378.362C171.791 378.362 171.299 378.5 170.912 378.775C170.531 379.051 170.247 379.417 170.06 379.874C169.872 380.325 169.778 380.814 169.778 381.342V381.535C169.778 381.98 169.831 382.402 169.937 382.801C170.042 383.199 170.2 383.554 170.411 383.864C170.628 384.169 170.9 384.409 171.229 384.585C171.562 384.761 171.955 384.849 172.406 384.849C172.857 384.849 173.247 384.761 173.575 384.585C173.903 384.409 174.173 384.169 174.384 383.864C174.595 383.554 174.753 383.199 174.858 382.801C174.964 382.402 175.017 381.98 175.017 381.535V381.342C175.017 380.943 174.964 380.565 174.858 380.208C174.753 379.851 174.592 379.534 174.375 379.259C174.164 378.983 173.892 378.767 173.558 378.608C173.229 378.444 172.84 378.362 172.389 378.362ZM178.066 381.351V381.148C178.066 380.463 178.166 379.827 178.365 379.241C178.564 378.649 178.852 378.137 179.227 377.703C179.602 377.264 180.056 376.924 180.589 376.684C181.122 376.438 181.72 376.314 182.382 376.314C183.05 376.314 183.65 376.438 184.184 376.684C184.723 376.924 185.18 377.264 185.555 377.703C185.936 378.137 186.226 378.649 186.425 379.241C186.624 379.827 186.724 380.463 186.724 381.148V381.351C186.724 382.036 186.624 382.672 186.425 383.258C186.226 383.844 185.936 384.356 185.555 384.796C185.18 385.229 184.726 385.569 184.192 385.815C183.665 386.056 183.067 386.176 182.399 386.176C181.731 386.176 181.131 386.056 180.598 385.815C180.064 385.569 179.607 385.229 179.227 384.796C178.852 384.356 178.564 383.844 178.365 383.258C178.166 382.672 178.066 382.036 178.066 381.351ZM179.692 381.148V381.351C179.692 381.825 179.748 382.273 179.859 382.695C179.971 383.111 180.138 383.48 180.36 383.803C180.589 384.125 180.873 384.38 181.213 384.567C181.553 384.749 181.948 384.84 182.399 384.84C182.845 384.84 183.234 384.749 183.568 384.567C183.908 384.38 184.189 384.125 184.412 383.803C184.635 383.48 184.802 383.111 184.913 382.695C185.03 382.273 185.089 381.825 185.089 381.351V381.148C185.089 380.68 185.03 380.237 184.913 379.821C184.802 379.399 184.632 379.027 184.403 378.705C184.181 378.377 183.899 378.119 183.56 377.932C183.226 377.744 182.833 377.65 182.382 377.65C181.937 377.65 181.544 377.744 181.204 377.932C180.87 378.119 180.589 378.377 180.36 378.705C180.138 379.027 179.971 379.399 179.859 379.821C179.748 380.237 179.692 380.68 179.692 381.148ZM189.844 376.49H191.47L191.329 380.05C191.294 380.952 191.191 381.731 191.021 382.388C190.852 383.044 190.635 383.604 190.371 384.066C190.107 384.523 189.812 384.907 189.483 385.218C189.161 385.528 188.827 385.789 188.481 386H187.673L187.717 384.673L188.051 384.664C188.244 384.436 188.432 384.201 188.613 383.961C188.795 383.715 188.962 383.425 189.114 383.091C189.267 382.751 189.393 382.338 189.492 381.852C189.598 381.359 189.665 380.759 189.694 380.05L189.844 376.49ZM190.248 376.49H195.97V386H194.344V377.993H190.248V376.49ZM187.304 384.664H197.191V388.804H195.565V386H188.93V388.804H187.295L187.304 384.664ZM205.444 380.612V381.931H200.417V380.612H205.444ZM200.76 376.49V386H199.134V376.49H200.76ZM206.763 376.49V386H205.128V376.49H206.763ZM208.951 381.351V381.148C208.951 380.463 209.051 379.827 209.25 379.241C209.449 378.649 209.736 378.137 210.111 377.703C210.486 377.264 210.94 376.924 211.474 376.684C212.007 376.438 212.604 376.314 213.267 376.314C213.935 376.314 214.535 376.438 215.068 376.684C215.607 376.924 216.064 377.264 216.439 377.703C216.82 378.137 217.11 378.649 217.31 379.241C217.509 379.827 217.608 380.463 217.608 381.148V381.351C217.608 382.036 217.509 382.672 217.31 383.258C217.11 383.844 216.82 384.356 216.439 384.796C216.064 385.229 215.61 385.569 215.077 385.815C214.55 386.056 213.952 386.176 213.284 386.176C212.616 386.176 212.016 386.056 211.482 385.815C210.949 385.569 210.492 385.229 210.111 384.796C209.736 384.356 209.449 383.844 209.25 383.258C209.051 382.672 208.951 382.036 208.951 381.351ZM210.577 381.148V381.351C210.577 381.825 210.633 382.273 210.744 382.695C210.855 383.111 211.022 383.48 211.245 383.803C211.474 384.125 211.758 384.38 212.098 384.567C212.438 384.749 212.833 384.84 213.284 384.84C213.729 384.84 214.119 384.749 214.453 384.567C214.793 384.38 215.074 384.125 215.297 383.803C215.52 383.48 215.687 383.111 215.798 382.695C215.915 382.273 215.974 381.825 215.974 381.351V381.148C215.974 380.68 215.915 380.237 215.798 379.821C215.687 379.399 215.517 379.027 215.288 378.705C215.065 378.377 214.784 378.119 214.444 377.932C214.11 377.744 213.718 377.65 213.267 377.65C212.821 377.65 212.429 377.744 212.089 377.932C211.755 378.119 211.474 378.377 211.245 378.705C211.022 379.027 210.855 379.399 210.744 379.821C210.633 380.237 210.577 380.68 210.577 381.148ZM223.594 386.176C222.932 386.176 222.331 386.064 221.792 385.842C221.259 385.613 220.799 385.294 220.412 384.884C220.031 384.474 219.738 383.987 219.533 383.425C219.328 382.862 219.226 382.247 219.226 381.579V381.21C219.226 380.437 219.34 379.748 219.568 379.145C219.797 378.535 220.107 378.02 220.5 377.598C220.893 377.176 221.338 376.856 221.836 376.64C222.334 376.423 222.85 376.314 223.383 376.314C224.062 376.314 224.648 376.432 225.141 376.666C225.639 376.9 226.046 377.229 226.362 377.65C226.679 378.066 226.913 378.559 227.065 379.127C227.218 379.689 227.294 380.305 227.294 380.973V381.702H220.192V380.375H225.668V380.252C225.645 379.83 225.557 379.42 225.404 379.021C225.258 378.623 225.023 378.295 224.701 378.037C224.379 377.779 223.939 377.65 223.383 377.65C223.014 377.65 222.674 377.729 222.363 377.888C222.053 378.04 221.786 378.269 221.563 378.573C221.341 378.878 221.168 379.25 221.045 379.689C220.922 380.129 220.86 380.636 220.86 381.21V381.579C220.86 382.03 220.922 382.455 221.045 382.854C221.174 383.246 221.358 383.592 221.599 383.891C221.845 384.189 222.141 384.424 222.486 384.594C222.838 384.764 223.236 384.849 223.682 384.849C224.256 384.849 224.742 384.731 225.141 384.497C225.539 384.263 225.888 383.949 226.187 383.557L227.171 384.339C226.966 384.649 226.705 384.945 226.389 385.227C226.072 385.508 225.683 385.736 225.22 385.912C224.763 386.088 224.221 386.176 223.594 386.176Z" fill="white"/>
<path d="M2.02148 435.203H3.66504L7.85742 445.636L12.041 435.203H13.6934L8.49023 448H7.20703L2.02148 435.203ZM1.48535 435.203H2.93555L3.17285 443.008V448H1.48535V435.203ZM12.7705 435.203H14.2207V448H12.5332V443.008L12.7705 435.203ZM18.29 441.76H21.1465C21.9141 441.76 22.5615 441.895 23.0889 442.164C23.6162 442.428 24.0146 442.794 24.2842 443.263C24.5596 443.726 24.6973 444.253 24.6973 444.845C24.6973 445.284 24.6211 445.697 24.4688 446.084C24.3164 446.465 24.0879 446.799 23.7832 447.086C23.4844 447.373 23.1123 447.599 22.667 447.763C22.2275 447.921 21.7207 448 21.1465 448H17.1035V438.49H18.7295V446.664H21.1465C21.6152 446.664 21.9902 446.579 22.2715 446.409C22.5527 446.239 22.7549 446.02 22.8779 445.75C23.001 445.48 23.0625 445.199 23.0625 444.906C23.0625 444.619 23.001 444.338 22.8779 444.062C22.7549 443.787 22.5527 443.559 22.2715 443.377C21.9902 443.189 21.6152 443.096 21.1465 443.096H18.29V441.76ZM28.0811 438.49V448H26.4551V438.49H28.0811ZM34.7344 446.84C35.1211 446.84 35.4785 446.761 35.8066 446.603C36.1348 446.444 36.4043 446.228 36.6152 445.952C36.8262 445.671 36.9463 445.352 36.9756 444.994H38.5225C38.4932 445.557 38.3027 446.081 37.9512 446.567C37.6055 447.048 37.1514 447.438 36.5889 447.736C36.0264 448.029 35.4082 448.176 34.7344 448.176C34.0195 448.176 33.3955 448.05 32.8623 447.798C32.335 447.546 31.8955 447.2 31.5439 446.761C31.1982 446.321 30.9375 445.817 30.7617 445.249C30.5918 444.675 30.5068 444.068 30.5068 443.43V443.061C30.5068 442.422 30.5918 441.818 30.7617 441.25C30.9375 440.676 31.1982 440.169 31.5439 439.729C31.8955 439.29 32.335 438.944 32.8623 438.692C33.3955 438.44 34.0195 438.314 34.7344 438.314C35.4785 438.314 36.1289 438.467 36.6855 438.771C37.2422 439.07 37.6787 439.48 37.9951 440.002C38.3174 440.518 38.4932 441.104 38.5225 441.76H36.9756C36.9463 441.367 36.835 441.013 36.6416 440.696C36.4541 440.38 36.1963 440.128 35.8682 439.94C35.5459 439.747 35.168 439.65 34.7344 439.65C34.2363 439.65 33.8174 439.75 33.4775 439.949C33.1436 440.143 32.877 440.406 32.6777 440.74C32.4844 441.068 32.3438 441.435 32.2559 441.839C32.1738 442.237 32.1328 442.645 32.1328 443.061V443.43C32.1328 443.846 32.1738 444.256 32.2559 444.66C32.3379 445.064 32.4756 445.431 32.6689 445.759C32.8682 446.087 33.1348 446.351 33.4688 446.55C33.8086 446.743 34.2305 446.84 34.7344 446.84ZM49.623 442.015H46.3799L46.3623 440.652H49.3066C49.793 440.652 50.2178 440.57 50.5811 440.406C50.9443 440.242 51.2256 440.008 51.4248 439.703C51.6299 439.393 51.7324 439.023 51.7324 438.596C51.7324 438.127 51.6416 437.746 51.46 437.453C51.2842 437.154 51.0117 436.938 50.6426 436.803C50.2793 436.662 49.8164 436.592 49.2539 436.592H46.7578V448H45.0615V435.203H49.2539C49.9102 435.203 50.4961 435.271 51.0117 435.405C51.5273 435.534 51.9639 435.739 52.3213 436.021C52.6846 436.296 52.96 436.647 53.1475 437.075C53.335 437.503 53.4287 438.016 53.4287 438.613C53.4287 439.141 53.2939 439.618 53.0244 440.046C52.7549 440.468 52.3799 440.813 51.8994 441.083C51.4248 441.353 50.8682 441.525 50.2295 441.602L49.623 442.015ZM49.5439 448H45.7119L46.6699 446.62H49.5439C50.083 446.62 50.54 446.526 50.915 446.339C51.2959 446.151 51.5859 445.888 51.7852 445.548C51.9844 445.202 52.084 444.795 52.084 444.326C52.084 443.852 51.999 443.441 51.8291 443.096C51.6592 442.75 51.3926 442.483 51.0293 442.296C50.666 442.108 50.1973 442.015 49.623 442.015H47.2061L47.2236 440.652H50.5283L50.8887 441.145C51.5039 441.197 52.0254 441.373 52.4531 441.672C52.8809 441.965 53.2061 442.34 53.4287 442.797C53.6572 443.254 53.7715 443.758 53.7715 444.309C53.7715 445.105 53.5957 445.779 53.2441 446.33C52.8984 446.875 52.4092 447.291 51.7764 447.578C51.1436 447.859 50.3994 448 49.5439 448ZM59.9766 448.176C59.3145 448.176 58.7139 448.064 58.1748 447.842C57.6416 447.613 57.1816 447.294 56.7949 446.884C56.4141 446.474 56.1211 445.987 55.916 445.425C55.7109 444.862 55.6084 444.247 55.6084 443.579V443.21C55.6084 442.437 55.7227 441.748 55.9512 441.145C56.1797 440.535 56.4902 440.02 56.8828 439.598C57.2754 439.176 57.7207 438.856 58.2188 438.64C58.7168 438.423 59.2324 438.314 59.7656 438.314C60.4453 438.314 61.0312 438.432 61.5234 438.666C62.0215 438.9 62.4287 439.229 62.7451 439.65C63.0615 440.066 63.2959 440.559 63.4482 441.127C63.6006 441.689 63.6768 442.305 63.6768 442.973V443.702H56.5752V442.375H62.0508V442.252C62.0273 441.83 61.9395 441.42 61.7871 441.021C61.6406 440.623 61.4062 440.295 61.084 440.037C60.7617 439.779 60.3223 439.65 59.7656 439.65C59.3965 439.65 59.0566 439.729 58.7461 439.888C58.4355 440.04 58.1689 440.269 57.9463 440.573C57.7236 440.878 57.5508 441.25 57.4277 441.689C57.3047 442.129 57.2432 442.636 57.2432 443.21V443.579C57.2432 444.03 57.3047 444.455 57.4277 444.854C57.5566 445.246 57.7412 445.592 57.9814 445.891C58.2275 446.189 58.5234 446.424 58.8691 446.594C59.2207 446.764 59.6191 446.849 60.0645 446.849C60.6387 446.849 61.125 446.731 61.5234 446.497C61.9219 446.263 62.2705 445.949 62.5693 445.557L63.5537 446.339C63.3486 446.649 63.0879 446.945 62.7715 447.227C62.4551 447.508 62.0654 447.736 61.6025 447.912C61.1455 448.088 60.6035 448.176 59.9766 448.176ZM71.9297 438.49V439.835H67.333V438.49H71.9297ZM73.3623 438.49V448H71.7363V438.49H73.3623ZM66.9375 438.49H68.5723L68.3262 443.078C68.2852 443.787 68.2178 444.414 68.124 444.959C68.0361 445.498 67.9131 445.961 67.7549 446.348C67.6025 446.734 67.4092 447.051 67.1748 447.297C66.9463 447.537 66.6709 447.716 66.3486 447.833C66.0264 447.944 65.6543 448 65.2324 448H64.7227V446.567L65.0742 446.541C65.3262 446.523 65.54 446.465 65.7158 446.365C65.8975 446.266 66.0498 446.119 66.1729 445.926C66.2959 445.727 66.3955 445.472 66.4717 445.161C66.5537 444.851 66.6152 444.481 66.6562 444.054C66.7031 443.626 66.7383 443.128 66.7617 442.56L66.9375 438.49ZM77.7393 445.425L82.125 438.49H83.7598V448H82.125V441.065L77.7393 448H76.1221V438.49H77.7393V445.425ZM88.1367 438.49V448H86.5107V438.49H88.1367ZM94.377 438.49L89.8682 443.939H87.5918L87.3457 442.516H89.209L92.3994 438.49H94.377ZM92.6279 448L89.1299 443.693L90.1758 442.516L94.6934 448H92.6279ZM101.716 446.374V441.479C101.716 441.104 101.64 440.778 101.487 440.503C101.341 440.222 101.118 440.005 100.819 439.853C100.521 439.7 100.151 439.624 99.7119 439.624C99.3018 439.624 98.9414 439.694 98.6309 439.835C98.3262 439.976 98.0859 440.16 97.9102 440.389C97.7402 440.617 97.6553 440.863 97.6553 441.127H96.0293C96.0293 440.787 96.1172 440.45 96.293 440.116C96.4688 439.782 96.7207 439.48 97.0488 439.211C97.3828 438.936 97.7812 438.719 98.2441 438.561C98.7129 438.396 99.2344 438.314 99.8086 438.314C100.5 438.314 101.109 438.432 101.637 438.666C102.17 438.9 102.586 439.255 102.885 439.729C103.189 440.198 103.342 440.787 103.342 441.496V445.926C103.342 446.242 103.368 446.579 103.421 446.937C103.479 447.294 103.564 447.602 103.676 447.859V448H101.979C101.897 447.812 101.833 447.563 101.786 447.253C101.739 446.937 101.716 446.644 101.716 446.374ZM101.997 442.234L102.015 443.377H100.371C99.9082 443.377 99.4951 443.415 99.1318 443.491C98.7686 443.562 98.4639 443.67 98.2178 443.816C97.9717 443.963 97.7842 444.147 97.6553 444.37C97.5264 444.587 97.4619 444.842 97.4619 445.135C97.4619 445.434 97.5293 445.706 97.6641 445.952C97.7988 446.198 98.001 446.395 98.2705 446.541C98.5459 446.682 98.8828 446.752 99.2812 446.752C99.7793 446.752 100.219 446.646 100.6 446.436C100.98 446.225 101.282 445.967 101.505 445.662C101.733 445.357 101.856 445.062 101.874 444.774L102.568 445.557C102.527 445.803 102.416 446.075 102.234 446.374C102.053 446.673 101.81 446.96 101.505 447.235C101.206 447.505 100.849 447.73 100.433 447.912C100.022 448.088 99.5596 448.176 99.0439 448.176C98.3994 448.176 97.834 448.05 97.3477 447.798C96.8672 447.546 96.4922 447.209 96.2227 446.787C95.959 446.359 95.8271 445.882 95.8271 445.354C95.8271 444.845 95.9268 444.396 96.126 444.01C96.3252 443.617 96.6123 443.292 96.9873 443.034C97.3623 442.771 97.8135 442.571 98.3408 442.437C98.8682 442.302 99.457 442.234 100.107 442.234H101.997ZM112.351 442.612V443.931H107.323V442.612H112.351ZM107.666 438.49V448H106.04V438.49H107.666ZM113.669 438.49V448H112.034V438.49H113.669Z" fill="white"/>
<path d="M276.5 32C279.667 47.3333 287.9 78.4 295.5 80" stroke="#6F6F6F" stroke-width="4"/>
<circle cx="148" cy="104" r="6" fill="#FF6C01"/>
<circle cx="274" cy="32" r="6" fill="#FF6C01"/>
<circle cx="296" cy="80" r="6" fill="#6F6F6F"/>
<path d="M98 375C103.667 378 116.2 383.4 121 381" stroke="white" stroke-width="3"/>
<path d="M146 106L72.5 172L81 210L72.5 249.5L58.5 289.5L81 330.5L85 350.5C92 351.167 103.5 357.5 95.5 373.5" stroke="white" stroke-width="3"/>
<path d="M95.5 378.5C97.1667 382.667 99.5 392.2 95.5 397C91.5 401.8 87.5 405.667 86 407L69 416.5L54.5 424.5" stroke="#828282" stroke-width="3"/>
<path d="M146 106L72.5 172L81 210L72.5 249.5L58.5 289.5L81 330.5L85 350.5C92 351.167 103.5 357.5 95.5 373.5" stroke="#FF6C01" stroke-width="3"/>
<path d="M72.5 172L146 106C181.667 82.5 257.2 34.9 274 32.5" stroke="#FF6C01" stroke-width="3"/>
<circle cx="96" cy="375" r="6" fill="#FF6C01"/>
<circle cx="52" cy="425" r="6" fill="#828282"/>
<circle cx="124" cy="381" r="6" fill="white"/>
</svg>
