<svg width="361" height="397" viewBox="0 0 361 397" fill="none" xmlns="http://www.w3.org/2000/svg">
<path d="M9.21094 331.931H10.8984C10.8105 332.739 10.5791 333.463 10.2041 334.102C9.8291 334.74 9.29883 335.247 8.61328 335.622C7.92773 335.991 7.07227 336.176 6.04688 336.176C5.29688 336.176 4.61426 336.035 3.99902 335.754C3.38965 335.473 2.86523 335.074 2.42578 334.559C1.98633 334.037 1.64648 333.413 1.40625 332.687C1.17188 331.954 1.05469 331.14 1.05469 330.243V328.969C1.05469 328.072 1.17188 327.261 1.40625 326.534C1.64648 325.802 1.98926 325.175 2.43457 324.653C2.88574 324.132 3.42773 323.73 4.06055 323.449C4.69336 323.168 5.40527 323.027 6.19629 323.027C7.16309 323.027 7.98047 323.209 8.64844 323.572C9.31641 323.936 9.83496 324.439 10.2041 325.084C10.5791 325.723 10.8105 326.464 10.8984 327.308H9.21094C9.12891 326.71 8.97656 326.197 8.75391 325.77C8.53125 325.336 8.21484 325.002 7.80469 324.768C7.39453 324.533 6.8584 324.416 6.19629 324.416C5.62793 324.416 5.12695 324.524 4.69336 324.741C4.26562 324.958 3.90527 325.266 3.6123 325.664C3.3252 326.062 3.1084 326.54 2.96191 327.097C2.81543 327.653 2.74219 328.271 2.74219 328.951V330.243C2.74219 330.87 2.80664 331.459 2.93555 332.01C3.07031 332.561 3.27246 333.044 3.54199 333.46C3.81152 333.876 4.1543 334.204 4.57031 334.444C4.98633 334.679 5.47852 334.796 6.04688 334.796C6.76758 334.796 7.3418 334.682 7.76953 334.453C8.19727 334.225 8.51953 333.896 8.73633 333.469C8.95898 333.041 9.11719 332.528 9.21094 331.931ZM16.9102 336.176C16.248 336.176 15.6475 336.064 15.1084 335.842C14.5752 335.613 14.1152 335.294 13.7285 334.884C13.3477 334.474 13.0547 333.987 12.8496 333.425C12.6445 332.862 12.542 332.247 12.542 331.579V331.21C12.542 330.437 12.6562 329.748 12.8848 329.145C13.1133 328.535 13.4238 328.02 13.8164 327.598C14.209 327.176 14.6543 326.856 15.1523 326.64C15.6504 326.423 16.166 326.314 16.6992 326.314C17.3789 326.314 17.9648 326.432 18.457 326.666C18.9551 326.9 19.3623 327.229 19.6787 327.65C19.9951 328.066 20.2295 328.559 20.3818 329.127C20.5342 329.689 20.6104 330.305 20.6104 330.973V331.702H13.5088V330.375H18.9844V330.252C18.9609 329.83 18.873 329.42 18.7207 329.021C18.5742 328.623 18.3398 328.295 18.0176 328.037C17.6953 327.779 17.2559 327.65 16.6992 327.65C16.3301 327.65 15.9902 327.729 15.6797 327.888C15.3691 328.04 15.1025 328.269 14.8799 328.573C14.6572 328.878 14.4844 329.25 14.3613 329.689C14.2383 330.129 14.1768 330.636 14.1768 331.21V331.579C14.1768 332.03 14.2383 332.455 14.3613 332.854C14.4902 333.246 14.6748 333.592 14.915 333.891C15.1611 334.189 15.457 334.424 15.8027 334.594C16.1543 334.764 16.5527 334.849 16.998 334.849C17.5723 334.849 18.0586 334.731 18.457 334.497C18.8555 334.263 19.2041 333.949 19.5029 333.557L20.4873 334.339C20.2822 334.649 20.0215 334.945 19.7051 335.227C19.3887 335.508 18.999 335.736 18.5361 335.912C18.0791 336.088 17.5371 336.176 16.9102 336.176ZM28.8633 326.49V327.835H24.2666V326.49H28.8633ZM30.2959 326.49V336H28.6699V326.49H30.2959ZM23.8711 326.49H25.5059L25.2598 331.078C25.2188 331.787 25.1514 332.414 25.0576 332.959C24.9697 333.498 24.8467 333.961 24.6885 334.348C24.5361 334.734 24.3428 335.051 24.1084 335.297C23.8799 335.537 23.6045 335.716 23.2822 335.833C22.96 335.944 22.5879 336 22.166 336H21.6562V334.567L22.0078 334.541C22.2598 334.523 22.4736 334.465 22.6494 334.365C22.8311 334.266 22.9834 334.119 23.1064 333.926C23.2295 333.727 23.3291 333.472 23.4053 333.161C23.4873 332.851 23.5488 332.481 23.5898 332.054C23.6367 331.626 23.6719 331.128 23.6953 330.56L23.8711 326.49ZM32.4844 331.351V331.148C32.4844 330.463 32.584 329.827 32.7832 329.241C32.9824 328.649 33.2695 328.137 33.6445 327.703C34.0195 327.264 34.4736 326.924 35.0068 326.684C35.54 326.438 36.1377 326.314 36.7998 326.314C37.4678 326.314 38.0684 326.438 38.6016 326.684C39.1406 326.924 39.5977 327.264 39.9727 327.703C40.3535 328.137 40.6436 328.649 40.8428 329.241C41.042 329.827 41.1416 330.463 41.1416 331.148V331.351C41.1416 332.036 41.042 332.672 40.8428 333.258C40.6436 333.844 40.3535 334.356 39.9727 334.796C39.5977 335.229 39.1436 335.569 38.6104 335.815C38.083 336.056 37.4854 336.176 36.8174 336.176C36.1494 336.176 35.5488 336.056 35.0156 335.815C34.4824 335.569 34.0254 335.229 33.6445 334.796C33.2695 334.356 32.9824 333.844 32.7832 333.258C32.584 332.672 32.4844 332.036 32.4844 331.351ZM34.1104 331.148V331.351C34.1104 331.825 34.166 332.273 34.2773 332.695C34.3887 333.111 34.5557 333.48 34.7783 333.803C35.0068 334.125 35.291 334.38 35.6309 334.567C35.9707 334.749 36.3662 334.84 36.8174 334.84C37.2627 334.84 37.6523 334.749 37.9863 334.567C38.3262 334.38 38.6074 334.125 38.8301 333.803C39.0527 333.48 39.2197 333.111 39.3311 332.695C39.4482 332.273 39.5068 331.825 39.5068 331.351V331.148C39.5068 330.68 39.4482 330.237 39.3311 329.821C39.2197 329.399 39.0498 329.027 38.8213 328.705C38.5986 328.377 38.3174 328.119 37.9775 327.932C37.6436 327.744 37.251 327.65 36.7998 327.65C36.3545 327.65 35.9619 327.744 35.6221 327.932C35.2881 328.119 35.0068 328.377 34.7783 328.705C34.5557 329.027 34.3887 329.399 34.2773 329.821C34.166 330.237 34.1104 330.68 34.1104 331.148ZM56.25 328.705V330.085H49.3242V328.705H56.25ZM49.5879 323.203V336H47.8916V323.203H49.5879ZM57.7266 323.203V336H56.0391V323.203H57.7266ZM60.0645 331.351V331.148C60.0645 330.463 60.1641 329.827 60.3633 329.241C60.5625 328.649 60.8496 328.137 61.2246 327.703C61.5996 327.264 62.0537 326.924 62.5869 326.684C63.1201 326.438 63.7178 326.314 64.3799 326.314C65.0479 326.314 65.6484 326.438 66.1816 326.684C66.7207 326.924 67.1777 327.264 67.5527 327.703C67.9336 328.137 68.2236 328.649 68.4229 329.241C68.6221 329.827 68.7217 330.463 68.7217 331.148V331.351C68.7217 332.036 68.6221 332.672 68.4229 333.258C68.2236 333.844 67.9336 334.356 67.5527 334.796C67.1777 335.229 66.7236 335.569 66.1904 335.815C65.6631 336.056 65.0654 336.176 64.3975 336.176C63.7295 336.176 63.1289 336.056 62.5957 335.815C62.0625 335.569 61.6055 335.229 61.2246 334.796C60.8496 334.356 60.5625 333.844 60.3633 333.258C60.1641 332.672 60.0645 332.036 60.0645 331.351ZM61.6904 331.148V331.351C61.6904 331.825 61.7461 332.273 61.8574 332.695C61.9688 333.111 62.1357 333.48 62.3584 333.803C62.5869 334.125 62.8711 334.38 63.2109 334.567C63.5508 334.749 63.9463 334.84 64.3975 334.84C64.8428 334.84 65.2324 334.749 65.5664 334.567C65.9062 334.38 66.1875 334.125 66.4102 333.803C66.6328 333.48 66.7998 333.111 66.9111 332.695C67.0283 332.273 67.0869 331.825 67.0869 331.351V331.148C67.0869 330.68 67.0283 330.237 66.9111 329.821C66.7998 329.399 66.6299 329.027 66.4014 328.705C66.1787 328.377 65.8975 328.119 65.5576 327.932C65.2236 327.744 64.8311 327.65 64.3799 327.65C63.9346 327.65 63.542 327.744 63.2021 327.932C62.8682 328.119 62.5869 328.377 62.3584 328.705C62.1357 329.027 61.9688 329.399 61.8574 329.821C61.7461 330.237 61.6904 330.68 61.6904 331.148ZM75.2256 331.816H72.1055L72.0879 330.516H74.6367C75.1406 330.516 75.5596 330.466 75.8936 330.366C76.2334 330.267 76.4883 330.117 76.6582 329.918C76.8281 329.719 76.9131 329.473 76.9131 329.18C76.9131 328.951 76.8633 328.752 76.7637 328.582C76.6699 328.406 76.5264 328.263 76.333 328.151C76.1396 328.034 75.8994 327.949 75.6123 327.896C75.3311 327.838 75 327.809 74.6191 327.809H72.5361V336H70.9102V326.49H74.6191C75.2227 326.49 75.7646 326.543 76.2451 326.648C76.7314 326.754 77.1445 326.915 77.4844 327.132C77.8301 327.343 78.0938 327.612 78.2754 327.94C78.457 328.269 78.5479 328.655 78.5479 329.101C78.5479 329.388 78.4893 329.66 78.3721 329.918C78.2549 330.176 78.082 330.404 77.8535 330.604C77.625 330.803 77.3438 330.967 77.0098 331.096C76.6758 331.219 76.292 331.298 75.8584 331.333L75.2256 331.816ZM75.2256 336H71.5166L72.3252 334.682H75.2256C75.6768 334.682 76.0518 334.626 76.3506 334.515C76.6494 334.397 76.8721 334.233 77.0186 334.022C77.1709 333.806 77.2471 333.548 77.2471 333.249C77.2471 332.95 77.1709 332.695 77.0186 332.484C76.8721 332.268 76.6494 332.104 76.3506 331.992C76.0518 331.875 75.6768 331.816 75.2256 331.816H72.7559L72.7734 330.516H75.8584L76.4473 331.008C76.9688 331.049 77.4111 331.178 77.7744 331.395C78.1377 331.611 78.4131 331.887 78.6006 332.221C78.7881 332.549 78.8818 332.906 78.8818 333.293C78.8818 333.738 78.7969 334.131 78.627 334.471C78.4629 334.811 78.2227 335.095 77.9062 335.323C77.5898 335.546 77.2061 335.716 76.7549 335.833C76.3037 335.944 75.7939 336 75.2256 336ZM82.8193 333.425L87.2051 326.49H88.8398V336H87.2051V329.065L82.8193 336H81.2021V326.49H82.8193V333.425ZM93.2168 326.49V336H91.5908V326.49H93.2168ZM99.457 326.49L94.9482 331.939H92.6719L92.4258 330.516H94.2891L97.4795 326.49H99.457ZM97.708 336L94.21 331.693L95.2559 330.516L99.7734 336H97.708ZM100.564 331.351V331.148C100.564 330.463 100.664 329.827 100.863 329.241C101.062 328.649 101.35 328.137 101.725 327.703C102.1 327.264 102.554 326.924 103.087 326.684C103.62 326.438 104.218 326.314 104.88 326.314C105.548 326.314 106.148 326.438 106.682 326.684C107.221 326.924 107.678 327.264 108.053 327.703C108.434 328.137 108.724 328.649 108.923 329.241C109.122 329.827 109.222 330.463 109.222 331.148V331.351C109.222 332.036 109.122 332.672 108.923 333.258C108.724 333.844 108.434 334.356 108.053 334.796C107.678 335.229 107.224 335.569 106.69 335.815C106.163 336.056 105.565 336.176 104.897 336.176C104.229 336.176 103.629 336.056 103.096 335.815C102.562 335.569 102.105 335.229 101.725 334.796C101.35 334.356 101.062 333.844 100.863 333.258C100.664 332.672 100.564 332.036 100.564 331.351ZM102.19 331.148V331.351C102.19 331.825 102.246 332.273 102.357 332.695C102.469 333.111 102.636 333.48 102.858 333.803C103.087 334.125 103.371 334.38 103.711 334.567C104.051 334.749 104.446 334.84 104.897 334.84C105.343 334.84 105.732 334.749 106.066 334.567C106.406 334.38 106.688 334.125 106.91 333.803C107.133 333.48 107.3 333.111 107.411 332.695C107.528 332.273 107.587 331.825 107.587 331.351V331.148C107.587 330.68 107.528 330.237 107.411 329.821C107.3 329.399 107.13 329.027 106.901 328.705C106.679 328.377 106.397 328.119 106.058 327.932C105.724 327.744 105.331 327.65 104.88 327.65C104.435 327.65 104.042 327.744 103.702 327.932C103.368 328.119 103.087 328.377 102.858 328.705C102.636 329.027 102.469 329.399 102.357 329.821C102.246 330.237 102.19 330.68 102.19 331.148ZM115.726 331.816H112.605L112.588 330.516H115.137C115.641 330.516 116.06 330.466 116.394 330.366C116.733 330.267 116.988 330.117 117.158 329.918C117.328 329.719 117.413 329.473 117.413 329.18C117.413 328.951 117.363 328.752 117.264 328.582C117.17 328.406 117.026 328.263 116.833 328.151C116.64 328.034 116.399 327.949 116.112 327.896C115.831 327.838 115.5 327.809 115.119 327.809H113.036V336H111.41V326.49H115.119C115.723 326.49 116.265 326.543 116.745 326.648C117.231 326.754 117.645 326.915 117.984 327.132C118.33 327.343 118.594 327.612 118.775 327.94C118.957 328.269 119.048 328.655 119.048 329.101C119.048 329.388 118.989 329.66 118.872 329.918C118.755 330.176 118.582 330.404 118.354 330.604C118.125 330.803 117.844 330.967 117.51 331.096C117.176 331.219 116.792 331.298 116.358 331.333L115.726 331.816ZM115.726 336H112.017L112.825 334.682H115.726C116.177 334.682 116.552 334.626 116.851 334.515C117.149 334.397 117.372 334.233 117.519 334.022C117.671 333.806 117.747 333.548 117.747 333.249C117.747 332.95 117.671 332.695 117.519 332.484C117.372 332.268 117.149 332.104 116.851 331.992C116.552 331.875 116.177 331.816 115.726 331.816H113.256L113.273 330.516H116.358L116.947 331.008C117.469 331.049 117.911 331.178 118.274 331.395C118.638 331.611 118.913 331.887 119.101 332.221C119.288 332.549 119.382 332.906 119.382 333.293C119.382 333.738 119.297 334.131 119.127 334.471C118.963 334.811 118.723 335.095 118.406 335.323C118.09 335.546 117.706 335.716 117.255 335.833C116.804 335.944 116.294 336 115.726 336ZM121.131 331.351V331.148C121.131 330.463 121.23 329.827 121.43 329.241C121.629 328.649 121.916 328.137 122.291 327.703C122.666 327.264 123.12 326.924 123.653 326.684C124.187 326.438 124.784 326.314 125.446 326.314C126.114 326.314 126.715 326.438 127.248 326.684C127.787 326.924 128.244 327.264 128.619 327.703C129 328.137 129.29 328.649 129.489 329.241C129.688 329.827 129.788 330.463 129.788 331.148V331.351C129.788 332.036 129.688 332.672 129.489 333.258C129.29 333.844 129 334.356 128.619 334.796C128.244 335.229 127.79 335.569 127.257 335.815C126.729 336.056 126.132 336.176 125.464 336.176C124.796 336.176 124.195 336.056 123.662 335.815C123.129 335.569 122.672 335.229 122.291 334.796C121.916 334.356 121.629 333.844 121.43 333.258C121.23 332.672 121.131 332.036 121.131 331.351ZM122.757 331.148V331.351C122.757 331.825 122.812 332.273 122.924 332.695C123.035 333.111 123.202 333.48 123.425 333.803C123.653 334.125 123.938 334.38 124.277 334.567C124.617 334.749 125.013 334.84 125.464 334.84C125.909 334.84 126.299 334.749 126.633 334.567C126.973 334.38 127.254 334.125 127.477 333.803C127.699 333.48 127.866 333.111 127.978 332.695C128.095 332.273 128.153 331.825 128.153 331.351V331.148C128.153 330.68 128.095 330.237 127.978 329.821C127.866 329.399 127.696 329.027 127.468 328.705C127.245 328.377 126.964 328.119 126.624 327.932C126.29 327.744 125.897 327.65 125.446 327.65C125.001 327.65 124.608 327.744 124.269 327.932C123.935 328.119 123.653 328.377 123.425 328.705C123.202 329.027 123.035 329.399 122.924 329.821C122.812 330.237 122.757 330.68 122.757 331.148Z" fill="white"/>
<path d="M248.021 282.203H249.665L253.857 292.636L258.041 282.203H259.693L254.49 295H253.207L248.021 282.203ZM247.485 282.203H248.936L249.173 290.008V295H247.485V282.203ZM258.771 282.203H260.221V295H258.533V290.008L258.771 282.203ZM264.29 288.76H267.146C267.914 288.76 268.562 288.895 269.089 289.164C269.616 289.428 270.015 289.794 270.284 290.263C270.56 290.726 270.697 291.253 270.697 291.845C270.697 292.284 270.621 292.697 270.469 293.084C270.316 293.465 270.088 293.799 269.783 294.086C269.484 294.373 269.112 294.599 268.667 294.763C268.228 294.921 267.721 295 267.146 295H263.104V285.49H264.729V293.664H267.146C267.615 293.664 267.99 293.579 268.271 293.409C268.553 293.239 268.755 293.02 268.878 292.75C269.001 292.48 269.062 292.199 269.062 291.906C269.062 291.619 269.001 291.338 268.878 291.062C268.755 290.787 268.553 290.559 268.271 290.377C267.99 290.189 267.615 290.096 267.146 290.096H264.29V288.76ZM274.081 285.49V295H272.455V285.49H274.081ZM280.734 293.84C281.121 293.84 281.479 293.761 281.807 293.603C282.135 293.444 282.404 293.228 282.615 292.952C282.826 292.671 282.946 292.352 282.976 291.994H284.522C284.493 292.557 284.303 293.081 283.951 293.567C283.605 294.048 283.151 294.438 282.589 294.736C282.026 295.029 281.408 295.176 280.734 295.176C280.02 295.176 279.396 295.05 278.862 294.798C278.335 294.546 277.896 294.2 277.544 293.761C277.198 293.321 276.938 292.817 276.762 292.249C276.592 291.675 276.507 291.068 276.507 290.43V290.061C276.507 289.422 276.592 288.818 276.762 288.25C276.938 287.676 277.198 287.169 277.544 286.729C277.896 286.29 278.335 285.944 278.862 285.692C279.396 285.44 280.02 285.314 280.734 285.314C281.479 285.314 282.129 285.467 282.686 285.771C283.242 286.07 283.679 286.48 283.995 287.002C284.317 287.518 284.493 288.104 284.522 288.76H282.976C282.946 288.367 282.835 288.013 282.642 287.696C282.454 287.38 282.196 287.128 281.868 286.94C281.546 286.747 281.168 286.65 280.734 286.65C280.236 286.65 279.817 286.75 279.478 286.949C279.144 287.143 278.877 287.406 278.678 287.74C278.484 288.068 278.344 288.435 278.256 288.839C278.174 289.237 278.133 289.645 278.133 290.061V290.43C278.133 290.846 278.174 291.256 278.256 291.66C278.338 292.064 278.476 292.431 278.669 292.759C278.868 293.087 279.135 293.351 279.469 293.55C279.809 293.743 280.23 293.84 280.734 293.84ZM299.191 293.62V295H292.415V293.62H299.191ZM292.758 282.203V295H291.062V282.203H292.758ZM298.295 287.705V289.085H292.415V287.705H298.295ZM299.104 282.203V283.592H292.415V282.203H299.104ZM304.676 293.84C305.062 293.84 305.42 293.761 305.748 293.603C306.076 293.444 306.346 293.228 306.557 292.952C306.768 292.671 306.888 292.352 306.917 291.994H308.464C308.435 292.557 308.244 293.081 307.893 293.567C307.547 294.048 307.093 294.438 306.53 294.736C305.968 295.029 305.35 295.176 304.676 295.176C303.961 295.176 303.337 295.05 302.804 294.798C302.276 294.546 301.837 294.2 301.485 293.761C301.14 293.321 300.879 292.817 300.703 292.249C300.533 291.675 300.448 291.068 300.448 290.43V290.061C300.448 289.422 300.533 288.818 300.703 288.25C300.879 287.676 301.14 287.169 301.485 286.729C301.837 286.29 302.276 285.944 302.804 285.692C303.337 285.44 303.961 285.314 304.676 285.314C305.42 285.314 306.07 285.467 306.627 285.771C307.184 286.07 307.62 286.48 307.937 287.002C308.259 287.518 308.435 288.104 308.464 288.76H306.917C306.888 288.367 306.776 288.013 306.583 287.696C306.396 287.38 306.138 287.128 305.81 286.94C305.487 286.747 305.109 286.65 304.676 286.65C304.178 286.65 303.759 286.75 303.419 286.949C303.085 287.143 302.818 287.406 302.619 287.74C302.426 288.068 302.285 288.435 302.197 288.839C302.115 289.237 302.074 289.645 302.074 290.061V290.43C302.074 290.846 302.115 291.256 302.197 291.66C302.279 292.064 302.417 292.431 302.61 292.759C302.81 293.087 303.076 293.351 303.41 293.55C303.75 293.743 304.172 293.84 304.676 293.84ZM314.168 285.49V295H312.533V285.49H314.168ZM317.358 285.49V286.809H309.404V285.49H317.358ZM324.425 293.374V288.479C324.425 288.104 324.349 287.778 324.196 287.503C324.05 287.222 323.827 287.005 323.528 286.853C323.229 286.7 322.86 286.624 322.421 286.624C322.011 286.624 321.65 286.694 321.34 286.835C321.035 286.976 320.795 287.16 320.619 287.389C320.449 287.617 320.364 287.863 320.364 288.127H318.738C318.738 287.787 318.826 287.45 319.002 287.116C319.178 286.782 319.43 286.48 319.758 286.211C320.092 285.936 320.49 285.719 320.953 285.561C321.422 285.396 321.943 285.314 322.518 285.314C323.209 285.314 323.818 285.432 324.346 285.666C324.879 285.9 325.295 286.255 325.594 286.729C325.898 287.198 326.051 287.787 326.051 288.496V292.926C326.051 293.242 326.077 293.579 326.13 293.937C326.188 294.294 326.273 294.602 326.385 294.859V295H324.688C324.606 294.812 324.542 294.563 324.495 294.253C324.448 293.937 324.425 293.644 324.425 293.374ZM324.706 289.234L324.724 290.377H323.08C322.617 290.377 322.204 290.415 321.841 290.491C321.478 290.562 321.173 290.67 320.927 290.816C320.681 290.963 320.493 291.147 320.364 291.37C320.235 291.587 320.171 291.842 320.171 292.135C320.171 292.434 320.238 292.706 320.373 292.952C320.508 293.198 320.71 293.395 320.979 293.541C321.255 293.682 321.592 293.752 321.99 293.752C322.488 293.752 322.928 293.646 323.309 293.436C323.689 293.225 323.991 292.967 324.214 292.662C324.442 292.357 324.565 292.062 324.583 291.774L325.277 292.557C325.236 292.803 325.125 293.075 324.943 293.374C324.762 293.673 324.519 293.96 324.214 294.235C323.915 294.505 323.558 294.73 323.142 294.912C322.731 295.088 322.269 295.176 321.753 295.176C321.108 295.176 320.543 295.05 320.057 294.798C319.576 294.546 319.201 294.209 318.932 293.787C318.668 293.359 318.536 292.882 318.536 292.354C318.536 291.845 318.636 291.396 318.835 291.01C319.034 290.617 319.321 290.292 319.696 290.034C320.071 289.771 320.522 289.571 321.05 289.437C321.577 289.302 322.166 289.234 322.816 289.234H324.706ZM339.542 290.412V290.597C339.542 291.265 339.469 291.88 339.322 292.442C339.176 292.999 338.956 293.482 338.663 293.893C338.376 294.303 338.019 294.622 337.591 294.851C337.163 295.073 336.668 295.185 336.105 295.185C335.643 295.185 335.235 295.123 334.884 295C334.532 294.871 334.233 294.687 333.987 294.446C333.747 294.206 333.554 293.919 333.407 293.585C333.267 293.245 333.17 292.864 333.117 292.442V288.224C333.17 287.772 333.267 287.368 333.407 287.011C333.554 286.653 333.747 286.349 333.987 286.097C334.233 285.845 334.529 285.651 334.875 285.517C335.221 285.382 335.625 285.314 336.088 285.314C336.545 285.314 336.955 285.396 337.318 285.561C337.688 285.719 338.01 285.947 338.285 286.246C338.566 286.545 338.798 286.905 338.979 287.327C339.167 287.743 339.308 288.212 339.401 288.733C339.495 289.255 339.542 289.814 339.542 290.412ZM337.916 290.597V290.412C337.916 290.002 337.887 289.612 337.828 289.243C337.775 288.868 337.69 288.525 337.573 288.215C337.462 287.898 337.315 287.623 337.134 287.389C336.952 287.154 336.732 286.973 336.475 286.844C336.223 286.715 335.933 286.65 335.604 286.65C335.253 286.65 334.96 286.694 334.726 286.782C334.497 286.87 334.318 286.987 334.189 287.134C334.061 287.274 333.967 287.424 333.908 287.582V293.093C333.979 293.222 334.081 293.345 334.216 293.462C334.351 293.573 334.532 293.667 334.761 293.743C334.989 293.813 335.276 293.849 335.622 293.849C336.032 293.849 336.381 293.767 336.668 293.603C336.961 293.433 337.198 293.198 337.38 292.899C337.567 292.601 337.702 292.255 337.784 291.862C337.872 291.47 337.916 291.048 337.916 290.597ZM328.248 290.597V290.412C328.248 289.814 328.295 289.255 328.389 288.733C328.482 288.212 328.623 287.743 328.811 287.327C328.998 286.905 329.229 286.545 329.505 286.246C329.786 285.947 330.108 285.719 330.472 285.561C330.841 285.396 331.254 285.314 331.711 285.314C332.162 285.314 332.555 285.382 332.889 285.517C333.229 285.651 333.516 285.845 333.75 286.097C333.984 286.349 334.172 286.653 334.312 287.011C334.453 287.368 334.553 287.772 334.611 288.224V292.275C334.559 292.721 334.462 293.122 334.321 293.479C334.181 293.837 333.993 294.145 333.759 294.402C333.524 294.654 333.234 294.848 332.889 294.982C332.549 295.117 332.15 295.185 331.693 295.185C331.131 295.185 330.636 295.073 330.208 294.851C329.78 294.622 329.42 294.303 329.127 293.893C328.84 293.482 328.62 292.999 328.468 292.442C328.321 291.88 328.248 291.265 328.248 290.597ZM329.883 290.412V290.597C329.883 291.048 329.921 291.47 329.997 291.862C330.079 292.255 330.205 292.601 330.375 292.899C330.551 293.198 330.779 293.433 331.061 293.603C331.342 293.767 331.688 293.849 332.098 293.849C332.449 293.849 332.739 293.805 332.968 293.717C333.196 293.629 333.378 293.515 333.513 293.374C333.647 293.233 333.75 293.087 333.82 292.935V287.582C333.762 287.424 333.665 287.274 333.53 287.134C333.401 286.987 333.223 286.87 332.994 286.782C332.766 286.694 332.473 286.65 332.115 286.65C331.705 286.65 331.356 286.75 331.069 286.949C330.782 287.148 330.551 287.421 330.375 287.767C330.205 288.112 330.079 288.514 329.997 288.971C329.921 289.422 329.883 289.902 329.883 290.412ZM333.012 298.656V281.5H334.646V298.656H333.012ZM343.427 292.425L347.812 285.49H349.447V295H347.812V288.065L343.427 295H341.81V285.49H343.427V292.425ZM353.982 290.465H355.74L352.989 295H351.231L353.982 290.465ZM355.345 285.49H359.317V295H357.691V286.809H355.345C354.882 286.809 354.504 286.888 354.211 287.046C353.918 287.198 353.704 287.397 353.569 287.644C353.435 287.89 353.367 288.145 353.367 288.408C353.367 288.666 353.429 288.915 353.552 289.155C353.675 289.39 353.868 289.583 354.132 289.735C354.396 289.888 354.735 289.964 355.151 289.964H358.131V291.3H355.151C354.606 291.3 354.123 291.227 353.701 291.08C353.279 290.934 352.922 290.731 352.629 290.474C352.336 290.21 352.113 289.902 351.961 289.551C351.809 289.193 351.732 288.807 351.732 288.391C351.732 287.975 351.812 287.591 351.97 287.239C352.134 286.888 352.368 286.58 352.673 286.316C352.983 286.053 353.361 285.851 353.807 285.71C354.258 285.563 354.771 285.49 355.345 285.49Z" fill="white"/>
<path d="M215.305 4.20312V17H213.608V4.20312H215.305ZM218.24 10.0654V11.4014H215.199V10.0654H218.24ZM227.425 10.1973V11.0059C227.425 11.9668 227.305 12.8281 227.064 13.5898C226.824 14.3516 226.479 14.999 226.027 15.5322C225.576 16.0654 225.034 16.4727 224.401 16.7539C223.774 17.0352 223.071 17.1758 222.292 17.1758C221.536 17.1758 220.842 17.0352 220.209 16.7539C219.582 16.4727 219.037 16.0654 218.574 15.5322C218.117 14.999 217.763 14.3516 217.511 13.5898C217.259 12.8281 217.133 11.9668 217.133 11.0059V10.1973C217.133 9.23633 217.256 8.37793 217.502 7.62207C217.754 6.86035 218.108 6.21289 218.565 5.67969C219.022 5.14063 219.564 4.73047 220.191 4.44922C220.824 4.16797 221.519 4.02734 222.274 4.02734C223.054 4.02734 223.757 4.16797 224.384 4.44922C225.017 4.73047 225.559 5.14063 226.01 5.67969C226.467 6.21289 226.815 6.86035 227.056 7.62207C227.302 8.37793 227.425 9.23633 227.425 10.1973ZM225.746 11.0059V10.1797C225.746 9.41797 225.667 8.74414 225.509 8.1582C225.356 7.57227 225.131 7.08008 224.832 6.68164C224.533 6.2832 224.167 5.98145 223.733 5.77637C223.306 5.57129 222.819 5.46875 222.274 5.46875C221.747 5.46875 221.27 5.57129 220.842 5.77637C220.42 5.98145 220.057 6.2832 219.752 6.68164C219.453 7.08008 219.222 7.57227 219.058 8.1582C218.894 8.74414 218.812 9.41797 218.812 10.1797V11.0059C218.812 11.7734 218.894 12.4531 219.058 13.0449C219.222 13.6309 219.456 14.126 219.761 14.5303C220.071 14.9287 220.438 15.2305 220.859 15.4355C221.287 15.6406 221.765 15.7432 222.292 15.7432C222.843 15.7432 223.332 15.6406 223.76 15.4355C224.188 15.2305 224.548 14.9287 224.841 14.5303C225.14 14.126 225.365 13.6309 225.518 13.0449C225.67 12.4531 225.746 11.7734 225.746 11.0059ZM232.224 12.8604L228.62 7.49023H230.58L233.041 11.4277H234.939L234.702 12.8604H232.224ZM233.111 12.6934L230.352 17H228.295L232.083 11.5156L233.111 12.6934ZM235.774 7.49023V17H234.148V7.49023H235.774ZM241.32 7.49023L237.717 12.8604H235.238L234.983 11.4277H236.891L239.352 7.49023H241.32ZM239.58 17L236.812 12.6934L237.857 11.5156L241.637 17H239.58ZM249.591 11.6123V12.9307H244.563V11.6123H249.591ZM244.906 7.49023V17H243.28V7.49023H244.906ZM250.909 7.49023V17H249.274V7.49023H250.909ZM253.098 12.3506V12.1484C253.098 11.4629 253.197 10.8271 253.396 10.2412C253.596 9.64941 253.883 9.13672 254.258 8.70312C254.633 8.26367 255.087 7.92383 255.62 7.68359C256.153 7.4375 256.751 7.31445 257.413 7.31445C258.081 7.31445 258.682 7.4375 259.215 7.68359C259.754 7.92383 260.211 8.26367 260.586 8.70312C260.967 9.13672 261.257 9.64941 261.456 10.2412C261.655 10.8271 261.755 11.4629 261.755 12.1484V12.3506C261.755 13.0361 261.655 13.6719 261.456 14.2578C261.257 14.8438 260.967 15.3564 260.586 15.7959C260.211 16.2295 259.757 16.5693 259.224 16.8154C258.696 17.0557 258.099 17.1758 257.431 17.1758C256.763 17.1758 256.162 17.0557 255.629 16.8154C255.096 16.5693 254.639 16.2295 254.258 15.7959C253.883 15.3564 253.596 14.8438 253.396 14.2578C253.197 13.6719 253.098 13.0361 253.098 12.3506ZM254.724 12.1484V12.3506C254.724 12.8252 254.779 13.2734 254.891 13.6953C255.002 14.1113 255.169 14.4805 255.392 14.8027C255.62 15.125 255.904 15.3799 256.244 15.5674C256.584 15.749 256.979 15.8398 257.431 15.8398C257.876 15.8398 258.266 15.749 258.6 15.5674C258.939 15.3799 259.221 15.125 259.443 14.8027C259.666 14.4805 259.833 14.1113 259.944 13.6953C260.062 13.2734 260.12 12.8252 260.12 12.3506V12.1484C260.12 11.6797 260.062 11.2373 259.944 10.8213C259.833 10.3994 259.663 10.0273 259.435 9.70508C259.212 9.37695 258.931 9.11914 258.591 8.93164C258.257 8.74414 257.864 8.65039 257.413 8.65039C256.968 8.65039 256.575 8.74414 256.235 8.93164C255.901 9.11914 255.62 9.37695 255.392 9.70508C255.169 10.0273 255.002 10.3994 254.891 10.8213C254.779 11.2373 254.724 11.6797 254.724 12.1484ZM267.178 10.8916V12.2275H262.889V10.8916H267.178ZM276.74 12.9307H278.428C278.34 13.7393 278.108 14.4629 277.733 15.1016C277.358 15.7402 276.828 16.2471 276.143 16.6221C275.457 16.9912 274.602 17.1758 273.576 17.1758C272.826 17.1758 272.144 17.0352 271.528 16.7539C270.919 16.4727 270.395 16.0742 269.955 15.5586C269.516 15.0371 269.176 14.4131 268.936 13.6865C268.701 12.9541 268.584 12.1396 268.584 11.2432V9.96875C268.584 9.07227 268.701 8.26074 268.936 7.53418C269.176 6.80176 269.519 6.1748 269.964 5.65332C270.415 5.13184 270.957 4.73047 271.59 4.44922C272.223 4.16797 272.935 4.02734 273.726 4.02734C274.692 4.02734 275.51 4.20898 276.178 4.57227C276.846 4.93555 277.364 5.43945 277.733 6.08398C278.108 6.72266 278.34 7.46387 278.428 8.30762H276.74C276.658 7.70996 276.506 7.19727 276.283 6.76953C276.061 6.33594 275.744 6.00195 275.334 5.76758C274.924 5.5332 274.388 5.41602 273.726 5.41602C273.157 5.41602 272.656 5.52441 272.223 5.74121C271.795 5.95801 271.435 6.26563 271.142 6.66406C270.854 7.0625 270.638 7.54004 270.491 8.09668C270.345 8.65332 270.271 9.27148 270.271 9.95117V11.2432C270.271 11.8701 270.336 12.459 270.465 13.0098C270.6 13.5605 270.802 14.0439 271.071 14.46C271.341 14.876 271.684 15.2041 272.1 15.4443C272.516 15.6787 273.008 15.7959 273.576 15.7959C274.297 15.7959 274.871 15.6816 275.299 15.4531C275.727 15.2246 276.049 14.8965 276.266 14.4688C276.488 14.041 276.646 13.5283 276.74 12.9307ZM286.101 15.374V10.4785C286.101 10.1035 286.024 9.77832 285.872 9.50293C285.726 9.22168 285.503 9.00488 285.204 8.85254C284.905 8.7002 284.536 8.62402 284.097 8.62402C283.687 8.62402 283.326 8.69434 283.016 8.83496C282.711 8.97559 282.471 9.16016 282.295 9.38867C282.125 9.61719 282.04 9.86328 282.04 10.127H280.414C280.414 9.78711 280.502 9.4502 280.678 9.11621C280.854 8.78223 281.105 8.48047 281.434 8.21094C281.768 7.93555 282.166 7.71875 282.629 7.56055C283.098 7.39648 283.619 7.31445 284.193 7.31445C284.885 7.31445 285.494 7.43164 286.021 7.66602C286.555 7.90039 286.971 8.25488 287.27 8.72949C287.574 9.19824 287.727 9.78711 287.727 10.4961V14.9258C287.727 15.2422 287.753 15.5791 287.806 15.9365C287.864 16.2939 287.949 16.6016 288.061 16.8594V17H286.364C286.282 16.8125 286.218 16.5635 286.171 16.2529C286.124 15.9365 286.101 15.6436 286.101 15.374ZM286.382 11.2344L286.399 12.377H284.756C284.293 12.377 283.88 12.415 283.517 12.4912C283.153 12.5615 282.849 12.6699 282.603 12.8164C282.356 12.9629 282.169 13.1475 282.04 13.3701C281.911 13.5869 281.847 13.8418 281.847 14.1348C281.847 14.4336 281.914 14.7061 282.049 14.9521C282.184 15.1982 282.386 15.3945 282.655 15.541C282.931 15.6816 283.268 15.752 283.666 15.752C284.164 15.752 284.604 15.6465 284.984 15.4355C285.365 15.2246 285.667 14.9668 285.89 14.6621C286.118 14.3574 286.241 14.0615 286.259 13.7744L286.953 14.5566C286.912 14.8027 286.801 15.0752 286.619 15.374C286.438 15.6729 286.194 15.96 285.89 16.2354C285.591 16.5049 285.233 16.7305 284.817 16.9121C284.407 17.0879 283.944 17.1758 283.429 17.1758C282.784 17.1758 282.219 17.0498 281.732 16.7979C281.252 16.5459 280.877 16.209 280.607 15.7871C280.344 15.3594 280.212 14.8818 280.212 14.3545C280.212 13.8447 280.312 13.3965 280.511 13.0098C280.71 12.6172 280.997 12.292 281.372 12.0342C281.747 11.7705 282.198 11.5713 282.726 11.4365C283.253 11.3018 283.842 11.2344 284.492 11.2344H286.382ZM291.383 7.49023L293.466 10.9531L295.575 7.49023H297.482L294.371 12.1836L297.579 17H295.698L293.501 13.4316L291.304 17H289.414L292.613 12.1836L289.511 7.49023H291.383ZM304.821 15.374V10.4785C304.821 10.1035 304.745 9.77832 304.593 9.50293C304.446 9.22168 304.224 9.00488 303.925 8.85254C303.626 8.7002 303.257 8.62402 302.817 8.62402C302.407 8.62402 302.047 8.69434 301.736 8.83496C301.432 8.97559 301.191 9.16016 301.016 9.38867C300.846 9.61719 300.761 9.86328 300.761 10.127H299.135C299.135 9.78711 299.223 9.4502 299.398 9.11621C299.574 8.78223 299.826 8.48047 300.154 8.21094C300.488 7.93555 300.887 7.71875 301.35 7.56055C301.818 7.39648 302.34 7.31445 302.914 7.31445C303.605 7.31445 304.215 7.43164 304.742 7.66602C305.275 7.90039 305.691 8.25488 305.99 8.72949C306.295 9.19824 306.447 9.78711 306.447 10.4961V14.9258C306.447 15.2422 306.474 15.5791 306.526 15.9365C306.585 16.2939 306.67 16.6016 306.781 16.8594V17H305.085C305.003 16.8125 304.938 16.5635 304.892 16.2529C304.845 15.9365 304.821 15.6436 304.821 15.374ZM305.103 11.2344L305.12 12.377H303.477C303.014 12.377 302.601 12.415 302.237 12.4912C301.874 12.5615 301.569 12.6699 301.323 12.8164C301.077 12.9629 300.89 13.1475 300.761 13.3701C300.632 13.5869 300.567 13.8418 300.567 14.1348C300.567 14.4336 300.635 14.7061 300.77 14.9521C300.904 15.1982 301.106 15.3945 301.376 15.541C301.651 15.6816 301.988 15.752 302.387 15.752C302.885 15.752 303.324 15.6465 303.705 15.4355C304.086 15.2246 304.388 14.9668 304.61 14.6621C304.839 14.3574 304.962 14.0615 304.979 13.7744L305.674 14.5566C305.633 14.8027 305.521 15.0752 305.34 15.374C305.158 15.6729 304.915 15.96 304.61 16.2354C304.312 16.5049 303.954 16.7305 303.538 16.9121C303.128 17.0879 302.665 17.1758 302.149 17.1758C301.505 17.1758 300.939 17.0498 300.453 16.7979C299.973 16.5459 299.598 16.209 299.328 15.7871C299.064 15.3594 298.933 14.8818 298.933 14.3545C298.933 13.8447 299.032 13.3965 299.231 13.0098C299.431 12.6172 299.718 12.292 300.093 12.0342C300.468 11.7705 300.919 11.5713 301.446 11.4365C301.974 11.3018 302.562 11.2344 303.213 11.2344H305.103ZM315.359 7.49023V8.83496H310.763V7.49023H315.359ZM316.792 7.49023V17H315.166V7.49023H316.792ZM310.367 7.49023H312.002L311.756 12.0781C311.715 12.7871 311.647 13.4141 311.554 13.959C311.466 14.498 311.343 14.9609 311.185 15.3477C311.032 15.7344 310.839 16.0508 310.604 16.2969C310.376 16.5371 310.101 16.7158 309.778 16.833C309.456 16.9443 309.084 17 308.662 17H308.152V15.5674L308.504 15.541C308.756 15.5234 308.97 15.4648 309.146 15.3652C309.327 15.2656 309.479 15.1191 309.603 14.9258C309.726 14.7266 309.825 14.4717 309.901 14.1611C309.983 13.8506 310.045 13.4814 310.086 13.0537C310.133 12.626 310.168 12.1279 310.191 11.5596L310.367 7.49023ZM321.169 14.4248L325.555 7.49023H327.189V17H325.555V10.0654L321.169 17H319.552V7.49023H321.169V14.4248ZM336.251 11.6123V12.9307H331.224V11.6123H336.251ZM331.566 7.49023V17H329.94V7.49023H331.566ZM337.569 7.49023V17H335.935V7.49023H337.569ZM343.994 15.8398C344.381 15.8398 344.738 15.7607 345.066 15.6025C345.395 15.4443 345.664 15.2275 345.875 14.9521C346.086 14.6709 346.206 14.3516 346.235 13.9941H347.782C347.753 14.5566 347.562 15.0811 347.211 15.5674C346.865 16.0479 346.411 16.4375 345.849 16.7363C345.286 17.0293 344.668 17.1758 343.994 17.1758C343.279 17.1758 342.655 17.0498 342.122 16.7979C341.595 16.5459 341.155 16.2002 340.804 15.7607C340.458 15.3213 340.197 14.8174 340.021 14.249C339.852 13.6748 339.767 13.0684 339.767 12.4297V12.0605C339.767 11.4219 339.852 10.8184 340.021 10.25C340.197 9.67578 340.458 9.16895 340.804 8.72949C341.155 8.29004 341.595 7.94434 342.122 7.69238C342.655 7.44043 343.279 7.31445 343.994 7.31445C344.738 7.31445 345.389 7.4668 345.945 7.77148C346.502 8.07031 346.938 8.48047 347.255 9.00195C347.577 9.51758 347.753 10.1035 347.782 10.7598H346.235C346.206 10.3672 346.095 10.0127 345.901 9.69629C345.714 9.37988 345.456 9.12793 345.128 8.94043C344.806 8.74707 344.428 8.65039 343.994 8.65039C343.496 8.65039 343.077 8.75 342.737 8.94922C342.403 9.14258 342.137 9.40625 341.938 9.74023C341.744 10.0684 341.604 10.4346 341.516 10.8389C341.434 11.2373 341.393 11.6445 341.393 12.0605V12.4297C341.393 12.8457 341.434 13.2559 341.516 13.6602C341.598 14.0645 341.735 14.4307 341.929 14.7588C342.128 15.0869 342.395 15.3506 342.729 15.5498C343.068 15.7432 343.49 15.8398 343.994 15.8398ZM351.377 7.49023V17H349.751V7.49023H351.377ZM357.617 7.49023L353.108 12.9395H350.832L350.586 11.5156H352.449L355.64 7.49023H357.617ZM355.868 17L352.37 12.6934L353.416 11.5156L357.934 17H355.868Z" fill="white"/>
<path d="M161.211 214.931H162.898C162.811 215.739 162.579 216.463 162.204 217.102C161.829 217.74 161.299 218.247 160.613 218.622C159.928 218.991 159.072 219.176 158.047 219.176C157.297 219.176 156.614 219.035 155.999 218.754C155.39 218.473 154.865 218.074 154.426 217.559C153.986 217.037 153.646 216.413 153.406 215.687C153.172 214.954 153.055 214.14 153.055 213.243V211.969C153.055 211.072 153.172 210.261 153.406 209.534C153.646 208.802 153.989 208.175 154.435 207.653C154.886 207.132 155.428 206.73 156.061 206.449C156.693 206.168 157.405 206.027 158.196 206.027C159.163 206.027 159.98 206.209 160.648 206.572C161.316 206.936 161.835 207.439 162.204 208.084C162.579 208.723 162.811 209.464 162.898 210.308H161.211C161.129 209.71 160.977 209.197 160.754 208.77C160.531 208.336 160.215 208.002 159.805 207.768C159.395 207.533 158.858 207.416 158.196 207.416C157.628 207.416 157.127 207.524 156.693 207.741C156.266 207.958 155.905 208.266 155.612 208.664C155.325 209.062 155.108 209.54 154.962 210.097C154.815 210.653 154.742 211.271 154.742 211.951V213.243C154.742 213.87 154.807 214.459 154.936 215.01C155.07 215.561 155.272 216.044 155.542 216.46C155.812 216.876 156.154 217.204 156.57 217.444C156.986 217.679 157.479 217.796 158.047 217.796C158.768 217.796 159.342 217.682 159.77 217.453C160.197 217.225 160.52 216.896 160.736 216.469C160.959 216.041 161.117 215.528 161.211 214.931ZM174.983 206.203V219H173.296V207.592H166.985V219H165.289V206.203H174.983ZM185.996 206.203V207.592H179.826V219H178.139V206.203H185.996ZM202.317 206.203V219H200.63V207.592H194.319V219H192.623V206.203H202.317ZM206.773 211.318V222.656H205.139V209.49H206.633L206.773 211.318ZM213.181 214.166V214.351C213.181 215.042 213.099 215.684 212.935 216.275C212.771 216.861 212.53 217.371 212.214 217.805C211.903 218.238 211.52 218.575 211.062 218.815C210.605 219.056 210.081 219.176 209.489 219.176C208.886 219.176 208.353 219.076 207.89 218.877C207.427 218.678 207.034 218.388 206.712 218.007C206.39 217.626 206.132 217.169 205.938 216.636C205.751 216.103 205.622 215.502 205.552 214.834V213.85C205.622 213.146 205.754 212.517 205.947 211.96C206.141 211.403 206.396 210.929 206.712 210.536C207.034 210.138 207.424 209.836 207.881 209.631C208.338 209.42 208.865 209.314 209.463 209.314C210.061 209.314 210.591 209.432 211.054 209.666C211.517 209.895 211.906 210.223 212.223 210.65C212.539 211.078 212.776 211.591 212.935 212.188C213.099 212.78 213.181 213.439 213.181 214.166ZM211.546 214.351V214.166C211.546 213.691 211.496 213.246 211.396 212.83C211.297 212.408 211.142 212.039 210.931 211.723C210.726 211.4 210.462 211.148 210.14 210.967C209.817 210.779 209.434 210.686 208.988 210.686C208.578 210.686 208.221 210.756 207.916 210.896C207.617 211.037 207.362 211.228 207.151 211.468C206.94 211.702 206.768 211.972 206.633 212.276C206.504 212.575 206.407 212.886 206.343 213.208V215.484C206.46 215.895 206.624 216.281 206.835 216.645C207.046 217.002 207.327 217.292 207.679 217.515C208.03 217.731 208.473 217.84 209.006 217.84C209.445 217.84 209.823 217.749 210.14 217.567C210.462 217.38 210.726 217.125 210.931 216.803C211.142 216.48 211.297 216.111 211.396 215.695C211.496 215.273 211.546 214.825 211.546 214.351ZM217.013 216.425L221.398 209.49H223.033V219H221.398V212.065L217.013 219H215.396V209.49H217.013V216.425ZM231.787 209.49V210.835H227.393V219H225.767V209.49H231.787ZM232.596 214.351V214.148C232.596 213.463 232.695 212.827 232.895 212.241C233.094 211.649 233.381 211.137 233.756 210.703C234.131 210.264 234.585 209.924 235.118 209.684C235.651 209.438 236.249 209.314 236.911 209.314C237.579 209.314 238.18 209.438 238.713 209.684C239.252 209.924 239.709 210.264 240.084 210.703C240.465 211.137 240.755 211.649 240.954 212.241C241.153 212.827 241.253 213.463 241.253 214.148V214.351C241.253 215.036 241.153 215.672 240.954 216.258C240.755 216.844 240.465 217.356 240.084 217.796C239.709 218.229 239.255 218.569 238.722 218.815C238.194 219.056 237.597 219.176 236.929 219.176C236.261 219.176 235.66 219.056 235.127 218.815C234.594 218.569 234.137 218.229 233.756 217.796C233.381 217.356 233.094 216.844 232.895 216.258C232.695 215.672 232.596 215.036 232.596 214.351ZM234.222 214.148V214.351C234.222 214.825 234.277 215.273 234.389 215.695C234.5 216.111 234.667 216.48 234.89 216.803C235.118 217.125 235.402 217.38 235.742 217.567C236.082 217.749 236.478 217.84 236.929 217.84C237.374 217.84 237.764 217.749 238.098 217.567C238.438 217.38 238.719 217.125 238.941 216.803C239.164 216.48 239.331 216.111 239.442 215.695C239.56 215.273 239.618 214.825 239.618 214.351V214.148C239.618 213.68 239.56 213.237 239.442 212.821C239.331 212.399 239.161 212.027 238.933 211.705C238.71 211.377 238.429 211.119 238.089 210.932C237.755 210.744 237.362 210.65 236.911 210.65C236.466 210.65 236.073 210.744 235.733 210.932C235.399 211.119 235.118 211.377 234.89 211.705C234.667 212.027 234.5 212.399 234.389 212.821C234.277 213.237 234.222 213.68 234.222 214.148ZM244.918 211.318V222.656H243.283V209.49H244.777L244.918 211.318ZM251.325 214.166V214.351C251.325 215.042 251.243 215.684 251.079 216.275C250.915 216.861 250.675 217.371 250.358 217.805C250.048 218.238 249.664 218.575 249.207 218.815C248.75 219.056 248.226 219.176 247.634 219.176C247.03 219.176 246.497 219.076 246.034 218.877C245.571 218.678 245.179 218.388 244.856 218.007C244.534 217.626 244.276 217.169 244.083 216.636C243.896 216.103 243.767 215.502 243.696 214.834V213.85C243.767 213.146 243.898 212.517 244.092 211.96C244.285 211.403 244.54 210.929 244.856 210.536C245.179 210.138 245.568 209.836 246.025 209.631C246.482 209.42 247.01 209.314 247.607 209.314C248.205 209.314 248.735 209.432 249.198 209.666C249.661 209.895 250.051 210.223 250.367 210.65C250.684 211.078 250.921 211.591 251.079 212.188C251.243 212.78 251.325 213.439 251.325 214.166ZM249.69 214.351V214.166C249.69 213.691 249.641 213.246 249.541 212.83C249.441 212.408 249.286 212.039 249.075 211.723C248.87 211.4 248.606 211.148 248.284 210.967C247.962 210.779 247.578 210.686 247.133 210.686C246.723 210.686 246.365 210.756 246.061 210.896C245.762 211.037 245.507 211.228 245.296 211.468C245.085 211.702 244.912 211.972 244.777 212.276C244.648 212.575 244.552 212.886 244.487 213.208V215.484C244.604 215.895 244.769 216.281 244.979 216.645C245.19 217.002 245.472 217.292 245.823 217.515C246.175 217.731 246.617 217.84 247.15 217.84C247.59 217.84 247.968 217.749 248.284 217.567C248.606 217.38 248.87 217.125 249.075 216.803C249.286 216.48 249.441 216.111 249.541 215.695C249.641 215.273 249.69 214.825 249.69 214.351ZM252.969 214.351V214.148C252.969 213.463 253.068 212.827 253.268 212.241C253.467 211.649 253.754 211.137 254.129 210.703C254.504 210.264 254.958 209.924 255.491 209.684C256.024 209.438 256.622 209.314 257.284 209.314C257.952 209.314 258.553 209.438 259.086 209.684C259.625 209.924 260.082 210.264 260.457 210.703C260.838 211.137 261.128 211.649 261.327 212.241C261.526 212.827 261.626 213.463 261.626 214.148V214.351C261.626 215.036 261.526 215.672 261.327 216.258C261.128 216.844 260.838 217.356 260.457 217.796C260.082 218.229 259.628 218.569 259.095 218.815C258.567 219.056 257.97 219.176 257.302 219.176C256.634 219.176 256.033 219.056 255.5 218.815C254.967 218.569 254.51 218.229 254.129 217.796C253.754 217.356 253.467 216.844 253.268 216.258C253.068 215.672 252.969 215.036 252.969 214.351ZM254.595 214.148V214.351C254.595 214.825 254.65 215.273 254.762 215.695C254.873 216.111 255.04 216.48 255.263 216.803C255.491 217.125 255.775 217.38 256.115 217.567C256.455 217.749 256.851 217.84 257.302 217.84C257.747 217.84 258.137 217.749 258.471 217.567C258.811 217.38 259.092 217.125 259.314 216.803C259.537 216.48 259.704 216.111 259.815 215.695C259.933 215.273 259.991 214.825 259.991 214.351V214.148C259.991 213.68 259.933 213.237 259.815 212.821C259.704 212.399 259.534 212.027 259.306 211.705C259.083 211.377 258.802 211.119 258.462 210.932C258.128 210.744 257.735 210.65 257.284 210.65C256.839 210.65 256.446 210.744 256.106 210.932C255.772 211.119 255.491 211.377 255.263 211.705C255.04 212.027 254.873 212.399 254.762 212.821C254.65 213.237 254.595 213.68 254.595 214.148ZM264.746 209.49H266.372L266.231 213.05C266.196 213.952 266.094 214.731 265.924 215.388C265.754 216.044 265.537 216.604 265.273 217.066C265.01 217.523 264.714 217.907 264.386 218.218C264.063 218.528 263.729 218.789 263.384 219H262.575L262.619 217.673L262.953 217.664C263.146 217.436 263.334 217.201 263.516 216.961C263.697 216.715 263.864 216.425 264.017 216.091C264.169 215.751 264.295 215.338 264.395 214.852C264.5 214.359 264.567 213.759 264.597 213.05L264.746 209.49ZM265.15 209.49H270.872V219H269.246V210.993H265.15V209.49ZM262.206 217.664H272.094V221.804H270.468V219H263.832V221.804H262.197L262.206 217.664ZM280.347 213.612V214.931H275.319V213.612H280.347ZM275.662 209.49V219H274.036V209.49H275.662ZM281.665 209.49V219H280.03V209.49H281.665ZM283.854 214.351V214.148C283.854 213.463 283.953 212.827 284.152 212.241C284.352 211.649 284.639 211.137 285.014 210.703C285.389 210.264 285.843 209.924 286.376 209.684C286.909 209.438 287.507 209.314 288.169 209.314C288.837 209.314 289.438 209.438 289.971 209.684C290.51 209.924 290.967 210.264 291.342 210.703C291.723 211.137 292.013 211.649 292.212 212.241C292.411 212.827 292.511 213.463 292.511 214.148V214.351C292.511 215.036 292.411 215.672 292.212 216.258C292.013 216.844 291.723 217.356 291.342 217.796C290.967 218.229 290.513 218.569 289.979 218.815C289.452 219.056 288.854 219.176 288.187 219.176C287.519 219.176 286.918 219.056 286.385 218.815C285.852 218.569 285.395 218.229 285.014 217.796C284.639 217.356 284.352 216.844 284.152 216.258C283.953 215.672 283.854 215.036 283.854 214.351ZM285.479 214.148V214.351C285.479 214.825 285.535 215.273 285.646 215.695C285.758 216.111 285.925 216.48 286.147 216.803C286.376 217.125 286.66 217.38 287 217.567C287.34 217.749 287.735 217.84 288.187 217.84C288.632 217.84 289.021 217.749 289.355 217.567C289.695 217.38 289.977 217.125 290.199 216.803C290.422 216.48 290.589 216.111 290.7 215.695C290.817 215.273 290.876 214.825 290.876 214.351V214.148C290.876 213.68 290.817 213.237 290.7 212.821C290.589 212.399 290.419 212.027 290.19 211.705C289.968 211.377 289.687 211.119 289.347 210.932C289.013 210.744 288.62 210.65 288.169 210.65C287.724 210.65 287.331 210.744 286.991 210.932C286.657 211.119 286.376 211.377 286.147 211.705C285.925 212.027 285.758 212.399 285.646 212.821C285.535 213.237 285.479 213.68 285.479 214.148ZM298.496 219.176C297.834 219.176 297.233 219.064 296.694 218.842C296.161 218.613 295.701 218.294 295.314 217.884C294.934 217.474 294.641 216.987 294.436 216.425C294.23 215.862 294.128 215.247 294.128 214.579V214.21C294.128 213.437 294.242 212.748 294.471 212.145C294.699 211.535 295.01 211.02 295.402 210.598C295.795 210.176 296.24 209.856 296.738 209.64C297.236 209.423 297.752 209.314 298.285 209.314C298.965 209.314 299.551 209.432 300.043 209.666C300.541 209.9 300.948 210.229 301.265 210.65C301.581 211.066 301.815 211.559 301.968 212.127C302.12 212.689 302.196 213.305 302.196 213.973V214.702H295.095V213.375H300.57V213.252C300.547 212.83 300.459 212.42 300.307 212.021C300.16 211.623 299.926 211.295 299.604 211.037C299.281 210.779 298.842 210.65 298.285 210.65C297.916 210.65 297.576 210.729 297.266 210.888C296.955 211.04 296.688 211.269 296.466 211.573C296.243 211.878 296.07 212.25 295.947 212.689C295.824 213.129 295.763 213.636 295.763 214.21V214.579C295.763 215.03 295.824 215.455 295.947 215.854C296.076 216.246 296.261 216.592 296.501 216.891C296.747 217.189 297.043 217.424 297.389 217.594C297.74 217.764 298.139 217.849 298.584 217.849C299.158 217.849 299.645 217.731 300.043 217.497C300.441 217.263 300.79 216.949 301.089 216.557L302.073 217.339C301.868 217.649 301.607 217.945 301.291 218.227C300.975 218.508 300.585 218.736 300.122 218.912C299.665 219.088 299.123 219.176 298.496 219.176Z" fill="white"/>
<path d="M279 37C278.171 51.3838 264.067 59.4056 228.392 82.641L162.02 145.709C157.872 151.517 176.954 174.753 151.235 190.52C142.109 193.839 132.983 187.2 137.131 207.946C138.79 220.394 146.755 250.932 162.02 280.142C177.286 309.352 139.62 343.763 118.879 357.317" stroke="#FF6C01" stroke-width="3"/>
<path d="M95.6484 393C105 380 97.7987 370.819 102.5 367.5L118.879 357.317C127.494 351.687 139.028 342.459 148.477 331.5C161.777 316.075 170.945 297.219 162.02 280.142C148.375 254.033 140.564 226.864 137.874 212.5M148.478 331.5C139.029 342.459 127.494 351.687 118.879 357.317" stroke="white" stroke-width="3"/>
<path d="M95.6484 393C105 380 97.7987 370.819 102.5 367.5L118.879 357.317C127.494 351.687 139.028 342.459 148.477 331.5" stroke="#828282" stroke-width="3"/>
<path d="M149 331C165.667 333.333 201.5 336.6 211.5 331C221.5 325.4 245.667 317.667 256.5 314.5" stroke="#828282" stroke-width="3"/>
<path d="M102.5 367.5C97.7987 370.819 105 380 95.6484 393" stroke="#838383" stroke-width="3"/>
<circle cx="280" cy="35" r="6" fill="#FF6C01"/>
<circle cx="95.5" cy="391.5" r="5.5" fill="#838383"/>
<circle cx="256.5" cy="313.5" r="5.5" fill="#838383"/>
<circle cx="138.5" cy="214.5" r="5.5" fill="#FF6C01"/>
<circle cx="149.5" cy="330.5" r="5.5" fill="white"/>
</svg>
