<svg width="1004" height="482" viewBox="0 0 1004 482" fill="none" xmlns="http://www.w3.org/2000/svg">
<path d="M983.654 25.2517C975.129 20.9367 975.775 11.1064 974.334 2.38117C972.893 -6.34407 965.776 21.0228 960.156 24.6673C953.132 29.223 947.658 47.9624 943.053 55.3422C938.448 62.7219 936.43 54.6548 929.902 57.315C923.374 59.9752 924.519 67.9744 916.339 73.8473C908.16 79.7202 902.959 74.2203 907.053 66.6255C911.148 59.0307 907.077 59.4196 901.58 53.1936C896.082 46.9676 893.076 54.119 892.312 59.5098C891.549 64.9007 895.109 64.2966 891.821 72.8326C888.533 81.3687 887.602 72.8584 885.679 68.1391C883.756 63.4198 883.57 68.152 872.728 67.4905C861.886 66.8289 861.519 55.5493 858.789 49.8887C856.059 44.2281 869.669 45.4551 874.141 39.8232C878.612 34.1914 849.827 15.4431 846.816 11.1674C843.805 6.89168 835.936 15.6011 825.528 25.3449C815.12 35.0888 810.649 40.7209 802.952 42.5877C795.254 44.4544 748.589 59.6609 739.885 63.2079C731.18 66.7548 723.922 58.2833 717.795 55.7004C711.668 53.1176 701.112 62.4987 696.397 64.42C691.682 66.3413 689.898 71.3017 685.154 69.0015C680.411 66.7013 666.806 76.9017 657.591 80.2335C648.376 83.5652 658.226 88.0178 653.568 98.3817C648.911 108.746 643.237 97.9355 639.004 95.8506C634.771 93.7657 634.91 103.445 628.978 118.985C623.047 134.525 596.939 156.593 577.932 163.915C558.925 171.237 560.452 160.455 542.356 162.75C524.261 165.044 511.085 174.223 498.086 187.986C485.087 201.749 438.393 212.734 402.703 226.854C367.013 240.975 311.596 241.969 297.652 245.111C283.708 248.253 245.923 296.668 228.878 303.614C211.832 310.561 195.774 302.288 182.231 300.188C168.688 298.087 137.598 325.572 123.239 331.846C108.88 338.121 76.0584 335.41 65.0017 335.259C53.9449 335.108 28.8727 359.718 11.598 365.064C-5.67667 370.41 2.44053 376.839 0.455336 384.421C-1.52986 392.002 8.0715 381.317 12.6812 385.365C17.291 389.413 25.5514 384.777 34.4846 382.83C43.4178 380.882 75.8628 381.63 83.1974 379.911C90.5319 378.192 104.414 387.351 107.239 396.36C110.064 405.368 97.8235 402.313 98.148 407.26C98.4726 412.208 98.3008 419.051 106.275 436.543C114.249 454.036 71.4534 471.475 65.288 473.987C59.1225 476.5 51.5063 479.603 54.7179 481.258C57.9294 482.912 72.2885 476.638 75.9152 475.16C79.5419 473.682 92.8988 480.515 96.8596 474.668C100.82 468.821 125.979 456.876 136.482 450.479C146.985 444.082 143.077 446.945 136.372 445.021C129.667 443.096 133.409 426.333 140.819 414.423C148.23 402.514 157.636 405.877 168.22 400.718C178.805 395.558 173.188 393.19 171.809 372.164C170.43 351.137 236.694 330.061 249.602 324.377C262.511 318.694 333.499 318.551 348.197 319.334C362.895 320.118 354.592 318.422 369.232 310.763C383.873 303.103 403.858 322.051 413.645 338.805C423.433 355.558 426.181 374.757 420.842 391.749C415.502 408.741 396.127 436.954 393.402 442.721C390.678 448.488 385.223 448.594 375.741 455.421C366.259 462.248 376.591 462.694 377.516 459.777C378.442 456.86 397.936 456.959 399.678 445.667C401.071 436.633 408.66 422.393 412.28 416.403C419.019 401.804 452.962 387.549 457.677 385.628C462.391 383.707 465.908 376.771 469.077 372.093C472.246 367.415 478.144 368.398 483.947 366.034C489.75 363.669 487.559 362.445 490.351 355.804C493.142 349.164 500.639 349.919 508.671 343.683C516.702 337.447 533.728 316.963 546.312 306.332C558.896 295.701 593.107 277.95 612.099 268.518C631.092 259.085 661.752 232.622 674.136 224.612C686.519 216.603 700.902 203.122 703.493 199.103C706.084 195.084 701.422 194.021 703.193 186.95C704.963 179.879 708.633 184.733 718.224 183.364C727.816 181.995 733.495 172.062 735.27 176.418C737.045 180.774 746.756 175.547 754.01 172.591C761.263 169.636 775.975 172.53 783.968 171.389C791.962 170.249 831.412 152.903 837.63 147.406C843.848 141.909 830.014 150.509 824.974 147.483C819.935 144.457 859.92 120.12 866.649 114.839C873.377 109.557 877.476 113.39 881.79 116.711C886.104 120.033 873.382 120.984 869.459 121.736C865.537 122.488 864.826 124.894 859.91 129.437C854.995 133.98 857.577 139.277 863.017 137.061C868.457 134.844 922.228 84.1471 925.115 80.8541C928.002 77.5611 926.323 76.5524 930.956 73.3942C935.59 70.2361 931.643 78.1939 934.907 76.8638C938.172 75.5337 942.791 70.2649 953.041 69.4743C963.291 68.6838 964.904 70.5664 972.306 67.9736C979.707 65.3808 977.555 59.0616 983.382 49.4911C988.043 41.8346 997.607 34.2404 1001.81 31.4003C1006.01 28.5602 1002.73 27.7796 1000.62 28.4961C998.519 29.2126 992.178 29.5667 983.654 25.2517Z" fill="url(#paint0_linear_1409_293705)" fill-opacity="0.24"/>
<defs>
<linearGradient id="paint0_linear_1409_293705" x1="38.7164" y1="429.237" x2="592.918" y2="138.73" gradientUnits="userSpaceOnUse">
<stop offset="0.0825783" stop-color="#9C9C9C"/>
<stop offset="0.848316" stop-color="#191C20"/>
<stop offset="1" stop-color="#191C20" stop-opacity="0"/>
</linearGradient>
</defs>
</svg>
