<svg width="840" height="503" viewBox="0 0 840 503" fill="none" xmlns="http://www.w3.org/2000/svg">
<path d="M822.003 21.2194C814.205 18.2583 813.861 9.66532 811.807 2.22371C809.753 -5.21791 806.094 19.1941 801.551 22.8752C795.873 27.4766 792.846 44.248 789.528 51.0782C786.21 57.9084 783.715 51.0913 778.293 54.0015C772.871 56.9118 774.601 63.7504 768.042 69.6015C761.482 75.4527 756.46 71.1571 759.316 64.1873C762.171 57.2174 758.673 57.9297 753.328 53.0311C747.982 48.1325 746.031 54.6173 745.864 59.3673C745.698 64.1173 748.732 63.2652 746.664 70.9779C744.596 78.6906 743.004 71.3887 740.901 67.4689C738.797 63.5492 739.071 67.6743 729.598 68.0981C720.125 68.5219 718.768 58.7641 715.877 54.1015C712.987 49.4389 724.914 49.251 728.277 43.9505C731.64 38.6499 704.927 25.0246 701.919 21.5901C698.912 18.1556 692.882 26.4406 684.744 35.8573C676.606 45.274 673.243 50.5748 666.733 52.9039C660.223 55.2329 621.113 72.7296 613.884 76.6099C606.655 80.4903 599.574 73.8044 594.017 72.1264C588.46 70.4483 580.161 79.5637 576.245 81.6656C572.329 83.7675 571.236 88.2378 566.907 86.6777C562.577 85.1176 551.706 95.225 544.013 98.9655C536.321 102.706 545.281 105.665 542.192 115.09C539.103 124.516 533.182 115.654 529.316 114.234C525.45 112.814 526.461 121.204 522.742 135.239C519.024 149.275 498.391 170.836 482.566 178.942C466.74 187.048 467.073 177.548 451.576 181.205C436.079 184.863 425.486 194.044 415.469 207.188C405.452 220.332 365.928 234.167 336.246 249.71C306.564 265.253 258.548 271.218 246.733 275.229C234.918 279.241 206.574 324.748 192.417 332.347C178.259 339.946 163.558 334.243 151.608 333.667C139.658 333.09 115.2 359.811 103.312 366.58C91.4251 373.349 62.6831 374.017 53.071 374.904C43.4589 375.791 23.9596 399.462 9.45582 405.693C-5.04798 411.925 2.59027 416.758 1.56492 423.522C0.539631 430.287 7.89069 420.127 12.265 423.216C16.6393 426.306 23.3833 421.521 30.9589 419.008C38.5344 416.496 66.7684 414.158 72.9772 411.991C79.186 409.823 92.0798 416.496 95.3615 424.056C98.6432 431.616 87.7363 430.091 88.4734 434.356C89.2106 438.621 89.6914 444.577 98.2239 459.028C106.756 473.479 71.2117 492.557 66.0908 495.306C60.97 498.054 54.6441 501.45 57.5844 502.59C60.5246 503.731 72.4119 496.962 75.4241 495.345C78.4364 493.728 90.6604 498.43 93.5604 492.99C96.4605 487.549 117.2 474.864 125.729 468.344C134.258 461.825 131.129 464.669 125.131 463.616C119.134 462.563 120.838 447.666 126.175 436.646C131.512 425.625 139.987 427.679 148.7 422.225C157.413 416.772 152.32 415.234 149.187 397.108C146.054 378.982 201.637 354.585 212.319 348.463C223.001 342.341 284.613 335.682 297.444 335.009C310.275 334.336 302.911 333.628 314.915 325.631C326.919 317.635 346.012 332.243 356.051 345.886C366.09 359.528 370.243 375.941 367.172 391.183C364.101 406.425 349.879 432.701 348.045 437.958C346.21 443.215 341.485 443.809 333.882 450.608C326.28 457.408 335.289 456.844 335.824 454.227C336.359 451.609 353.291 449.901 353.763 439.937C354.141 431.967 359.418 418.907 362.01 413.373C366.515 400.08 394.669 384.581 398.585 382.479C402.5 380.377 404.915 374.032 407.235 369.68C409.555 365.327 414.766 365.638 419.585 363.051C424.405 360.464 422.391 359.603 424.203 353.581C426.015 347.56 432.592 347.525 438.99 341.372C445.388 335.22 458.283 315.87 468.228 305.483C478.173 295.096 506.237 276.538 521.856 266.601C537.475 256.664 561.654 230.869 571.667 222.776C581.679 214.683 592.924 201.657 594.803 197.929C596.683 194.202 592.538 193.708 593.424 187.407C594.31 181.105 597.942 184.982 606.143 182.91C614.343 180.839 618.358 171.693 620.3 175.311C622.242 178.929 630.191 173.498 636.216 170.264C642.24 167.031 655.278 168.189 662.112 166.463C668.946 164.737 701.595 146.047 706.487 140.703C711.378 135.358 700.161 144.098 695.508 141.935C690.855 139.772 723.325 114.965 728.679 109.76C734.034 104.556 737.945 107.505 741.996 109.992C746.047 112.478 735.09 114.475 731.754 115.489C728.418 116.503 728.023 118.657 724.174 123.053C720.325 127.449 723.054 131.81 727.573 129.385C732.091 126.96 774.102 78.0006 776.305 74.8762C778.508 71.7518 776.957 71.0307 780.689 67.8626C784.42 64.6945 781.727 71.9659 784.438 70.5108C787.149 69.0556 790.674 64.0566 799.5 62.4267C808.325 60.7968 809.898 62.2825 816.085 59.3504C822.271 56.4183 819.821 51.1308 823.998 42.2863C827.34 35.2107 834.943 27.7378 838.327 24.8858C841.711 22.0337 838.793 21.6579 837.032 22.4736C835.271 23.2893 829.8 24.1804 822.003 21.2194Z" fill="#9C9C9C" fill-opacity="0.24"/>
</svg>
