<svg width="361" height="309" viewBox="0 0 361 309" fill="none" xmlns="http://www.w3.org/2000/svg">
<path d="M1542.91 -407.408C1529.53 -414.177 1530.55 -429.599 1528.29 -443.287C1526.03 -456.975 1514.86 -414.042 1506.04 -408.325C1495.03 -401.178 1486.44 -371.78 1479.21 -360.203C1471.99 -348.625 1468.82 -361.281 1458.58 -357.108C1448.34 -352.934 1450.14 -340.386 1437.31 -331.172C1424.47 -321.959 1416.31 -330.587 1422.74 -342.502C1429.16 -354.416 1422.78 -353.806 1414.15 -363.573C1405.53 -373.34 1400.81 -362.122 1399.61 -353.665C1398.42 -345.208 1404 -346.155 1398.84 -332.764C1393.68 -319.373 1392.22 -332.724 1389.21 -340.127C1386.19 -347.531 1385.9 -340.107 1368.89 -341.145C1351.88 -342.183 1351.3 -359.878 1347.02 -368.758C1342.74 -377.638 1364.09 -375.713 1371.11 -384.548C1378.12 -393.384 1332.96 -422.795 1328.24 -429.503C1323.52 -436.211 1311.17 -422.548 1294.84 -407.262C1278.52 -391.976 1271.5 -383.14 1259.43 -380.212C1247.35 -377.283 1174.14 -353.428 1160.49 -347.863C1146.83 -342.299 1135.45 -355.589 1125.83 -359.641C1116.22 -363.693 1099.66 -348.976 1092.27 -345.962C1084.87 -342.948 1082.07 -335.166 1074.63 -338.774C1067.19 -342.383 1045.84 -326.381 1031.39 -321.154C1016.93 -315.927 1032.38 -308.942 1025.08 -292.683C1017.77 -276.425 1008.87 -293.383 1002.23 -296.654C995.589 -299.925 995.806 -284.739 986.501 -260.361C977.195 -235.983 936.238 -201.363 906.42 -189.876C876.603 -178.39 878.998 -195.304 850.611 -191.705C822.223 -188.106 801.553 -173.706 781.161 -152.115C760.768 -130.523 687.516 -113.29 631.526 -91.1385C575.537 -68.9869 488.599 -67.4276 466.724 -62.4981C444.85 -57.5686 385.573 18.3841 358.833 29.281C332.092 40.1778 306.901 27.2006 285.655 23.905C264.409 20.6094 215.636 63.7269 193.11 73.5703C170.584 83.4138 119.094 79.161 101.748 78.9245C84.4024 78.688 45.0698 117.295 17.9696 125.682C-9.13048 134.069 3.6036 144.153 0.489309 156.048C-2.62498 167.942 12.4373 151.179 19.669 157.529C26.9007 163.879 39.8594 156.606 53.8736 153.552C67.8878 150.497 118.787 151.67 130.293 148.974C141.799 146.277 163.577 160.645 168.009 174.777C172.441 188.909 153.238 184.116 153.747 191.878C154.256 199.639 153.987 210.374 166.496 237.816C179.006 265.258 111.869 292.616 102.197 296.558C92.5249 300.499 80.5768 305.368 85.615 307.964C90.6532 310.559 113.179 300.716 118.869 298.397C124.558 296.079 145.512 306.798 151.726 297.625C157.94 288.452 197.407 269.713 213.884 259.678C230.361 249.644 224.23 254.134 213.712 251.116C203.194 248.097 209.063 221.799 220.689 203.115C232.315 184.432 247.071 189.709 263.675 181.614C280.28 173.52 271.468 169.805 269.305 136.819C267.141 103.833 371.095 70.7692 391.345 61.8531C411.596 52.9371 522.961 52.7128 546.018 53.9421C569.076 55.1713 556.05 52.5105 579.018 40.4949C601.985 28.4792 633.338 58.2039 648.692 84.4866C664.046 110.769 668.358 140.888 659.981 167.544C651.604 194.2 621.21 238.461 616.935 247.508C612.66 256.555 604.104 256.721 589.229 267.431C574.353 278.142 590.561 278.842 592.013 274.266C593.466 269.689 624.047 269.845 626.78 252.129C628.966 237.957 640.871 215.618 646.551 206.221C657.121 183.319 710.371 160.956 717.767 157.942C725.164 154.928 730.681 144.046 735.652 136.708C740.623 129.37 749.876 130.912 758.979 127.202C768.082 123.493 764.646 121.573 769.025 111.155C773.405 100.738 785.166 101.922 797.765 92.1389C810.364 82.3562 837.075 50.2212 856.816 33.5437C876.558 16.8662 930.227 -10.9805 960.022 -25.7783C989.817 -40.5761 1037.92 -82.0909 1057.34 -94.6558C1076.77 -107.221 1099.33 -128.369 1103.4 -134.674C1107.46 -140.979 1100.15 -142.647 1102.93 -153.74C1105.7 -164.833 1111.46 -157.217 1126.51 -159.365C1141.56 -161.512 1150.46 -177.096 1153.25 -170.262C1156.03 -163.428 1171.27 -171.628 1182.65 -176.265C1194.03 -180.902 1217.11 -176.361 1229.65 -178.151C1242.19 -179.94 1304.07 -207.152 1313.83 -215.776C1323.58 -224.399 1301.88 -210.907 1293.98 -215.654C1286.07 -220.402 1348.8 -258.58 1359.35 -266.866C1369.91 -275.152 1376.34 -269.139 1383.11 -263.928C1389.87 -258.717 1369.92 -257.225 1363.76 -256.045C1357.61 -254.866 1356.49 -251.091 1348.78 -243.964C1341.07 -236.838 1345.12 -228.527 1353.66 -232.005C1362.19 -235.483 1446.54 -315.014 1451.07 -320.18C1455.6 -325.346 1452.97 -326.929 1460.24 -331.883C1467.51 -336.837 1461.31 -324.353 1466.44 -326.44C1471.56 -328.527 1478.8 -336.792 1494.88 -338.032C1510.96 -339.273 1513.49 -336.319 1525.1 -340.387C1536.72 -344.454 1533.34 -354.368 1542.48 -369.382C1549.79 -381.393 1564.8 -393.307 1571.38 -397.762C1577.97 -402.218 1572.83 -403.442 1569.53 -402.318C1566.23 -401.194 1556.28 -400.639 1542.91 -407.408Z" fill="url(#paint0_linear_1409_293294)" fill-opacity="0.24"/>
<defs>
<linearGradient id="paint0_linear_1409_293294" x1="60.5123" y1="226.355" x2="456.901" y2="-20.1889" gradientUnits="userSpaceOnUse">
<stop offset="0.0825783" stop-color="#9C9C9C"/>
<stop offset="0.848316" stop-color="#191C20"/>
<stop offset="1" stop-color="#191C20" stop-opacity="0"/>
</linearGradient>
</defs>
</svg>
