<svg width="365" height="310" viewBox="0 0 365 310" fill="none" xmlns="http://www.w3.org/2000/svg">
<path d="M614.135 15.6321C608.751 12.9997 609.07 6.82826 608.091 1.36809C607.111 -4.09209 602.885 13.135 599.392 15.4698C595.025 18.3883 591.755 30.1897 588.931 34.8585C586.107 39.5274 584.771 34.485 580.699 36.2103C576.628 37.9356 577.415 42.9429 572.336 46.6977C567.257 50.4524 563.947 47.0479 566.449 42.2487C568.951 37.4495 566.401 37.7287 562.899 33.8714C559.397 30.0141 557.573 34.5258 557.141 37.9137C556.709 41.3016 558.937 40.8918 556.949 46.2744C554.961 51.657 554.303 46.3272 553.056 43.3839C551.809 40.4405 551.733 43.4103 544.927 43.0896C538.121 42.7689 537.792 35.6973 536.031 32.1705C534.27 28.6438 542.817 29.295 545.572 25.7237C548.328 22.1524 530.11 10.6432 528.185 7.98752C526.259 5.33187 521.399 10.863 514.955 17.0651C508.512 23.2672 505.756 26.8387 500.945 28.0765C496.133 29.3142 466.995 39.2578 461.567 41.5582C456.138 43.8586 451.512 38.6082 447.646 37.0414C443.781 35.4747 437.241 41.4505 434.301 42.6966C431.36 43.9426 430.284 47.0694 427.289 45.6679C424.294 44.2664 415.849 50.7827 410.098 52.9525C404.347 55.1223 410.564 57.8295 407.733 64.3706C404.901 70.9116 401.249 64.1805 398.576 62.9096C395.902 61.6387 396.073 67.7088 392.488 77.5073C388.903 87.3057 372.719 101.374 360.861 106.132C349.003 110.89 349.867 104.114 338.537 105.71C327.207 107.307 319.023 113.179 310.989 121.924C302.955 130.67 273.763 137.966 251.5 147.133C229.237 156.3 194.487 157.405 185.768 159.497C177.049 161.589 153.77 192.285 143.139 196.79C132.508 201.295 122.364 196.246 113.852 195.046C105.339 193.846 86.0775 211.355 77.1257 215.416C68.1739 219.476 47.5635 218.061 40.6271 218.063C33.6907 218.064 18.1787 233.718 7.39002 237.221C-3.39866 240.725 1.74857 244.686 0.569306 249.459C-0.609904 254.232 5.31937 247.446 8.24594 249.945C11.1725 252.444 16.3133 249.464 21.8996 248.165C27.4858 246.866 47.8426 247.053 52.4281 245.912C57.0136 244.77 65.8003 250.394 67.6505 256.019C69.5007 261.645 61.7968 259.835 62.0433 262.936C62.2898 266.036 62.2416 270.329 67.3952 281.232C72.5488 292.134 45.8579 303.445 42.0126 305.074C38.1673 306.704 33.4172 308.717 35.446 309.726C37.4748 310.736 46.4265 306.676 48.6885 305.717C50.9505 304.759 59.3876 308.928 61.8211 305.227C64.2546 301.525 79.9306 293.814 86.4629 289.71C92.9951 285.607 90.5686 287.436 86.3466 286.288C82.1245 285.139 84.3254 274.592 88.8702 267.058C93.415 259.523 99.3437 261.551 105.938 258.223C112.532 254.894 108.988 253.458 107.94 240.282C106.893 227.105 148.272 213.31 156.319 209.633C164.366 205.956 208.891 205.249 218.116 205.613C227.342 205.976 222.119 204.985 231.236 200.053C240.352 195.122 253.052 206.833 259.336 217.256C265.621 227.679 267.512 239.697 264.31 250.401C261.109 261.105 249.202 278.97 247.543 282.611C245.884 286.252 242.464 286.366 236.576 290.73C230.688 295.095 237.172 295.285 237.727 293.447C238.282 291.609 250.51 291.502 251.504 284.404C252.3 278.726 256.936 269.728 259.155 265.939C263.254 256.724 284.421 247.488 287.361 246.242C290.302 244.996 292.447 240.615 294.394 237.653C296.341 234.692 300.049 235.257 303.668 233.723C307.287 232.19 305.903 231.441 307.596 227.252C309.289 223.062 313.998 223.471 318.981 219.489C323.964 215.508 334.466 202.512 342.266 195.735C350.067 188.957 371.37 177.526 383.201 171.445C395.032 165.363 414.033 148.498 421.73 143.367C429.428 138.236 438.332 129.655 439.922 127.112C441.513 124.568 438.579 123.942 439.628 119.491C440.677 115.041 443.021 118.054 449.025 117.112C455.03 116.17 458.505 109.89 459.656 112.607C460.808 115.324 466.853 111.961 471.377 110.044C475.901 108.127 485.154 109.814 490.158 109.029C495.161 108.244 519.755 97.0216 523.607 93.5197C527.459 90.0178 518.857 95.5326 515.67 93.6783C512.483 91.824 537.351 76.2118 541.525 72.8405C545.7 69.4692 548.304 71.8374 551.039 73.8834C553.773 75.9294 545.802 76.6367 543.348 77.1423C540.894 77.648 540.469 79.1635 537.426 82.0556C534.382 84.9476 536.048 88.248 539.441 86.8102C542.833 85.3725 576.119 53.1068 577.902 51.0162C579.684 48.9257 578.622 48.3076 581.5 46.2864C584.379 44.2653 581.973 49.2909 584.009 48.4283C586.045 47.5656 588.896 44.2207 595.319 43.6358C601.741 43.0508 602.769 44.2176 607.389 42.527C612.009 40.8364 610.604 36.8916 614.175 30.838C617.032 25.9952 622.965 21.1487 625.574 19.3308C628.184 17.513 626.121 17.0519 624.807 17.5195C623.493 17.9872 619.52 18.2645 614.135 15.6321Z" fill="#9C9C9C" fill-opacity="0.24"/>
</svg>
