<svg width="120" height="123" viewBox="0 0 120 123" fill="none" xmlns="http://www.w3.org/2000/svg">
<path d="M0.761221 45.72C1.40122 36.44 4.44122 28.44 9.88122 21.72C15.3212 14.8933 22.5212 9.66666 31.4812 6.04C40.5479 2.30666 50.7879 0.439995 62.2012 0.439995C73.0812 0.439995 82.5746 2.09333 90.6812 5.4C98.7879 8.70666 105.135 13.3467 109.721 19.32C114.308 25.2933 116.601 32.1733 116.601 39.96C116.601 46.04 115.001 51.6933 111.801 56.92C108.601 62.04 103.535 67.16 96.6012 72.28C89.6679 77.4 80.5479 82.84 69.2412 88.6L34.5212 106.84L32.9212 99H119.961V123H2.84122V101.88L54.3612 72.28C62.5746 67.5867 68.9746 63.5867 73.5612 60.28C78.2546 56.8667 81.5612 53.72 83.4812 50.84C85.4012 47.96 86.3612 44.8667 86.3612 41.56C86.3612 38.1467 85.4012 35.1067 83.4812 32.44C81.6679 29.7733 78.8946 27.6933 75.1612 26.2C71.4279 24.7067 66.7346 23.96 61.0812 23.96C54.3612 23.96 48.8146 24.9733 44.4412 27C40.0679 28.92 36.8146 31.5333 34.6812 34.84C32.5479 38.1467 31.2679 41.7733 30.8412 45.72H0.761221Z" fill="url(#paint0_linear_755_75795)"/>
<defs>
<linearGradient id="paint0_linear_755_75795" x1="61.0012" y1="-77" x2="61.0012" y2="117.857" gradientUnits="userSpaceOnUse">
<stop stop-color="#6F6F6F"/>
<stop offset="1" stop-color="#979797" stop-opacity="0"/>
</linearGradient>
</defs>
</svg>
