<svg width="122" height="126" viewBox="0 0 122 126" fill="none" xmlns="http://www.w3.org/2000/svg">
<path d="M4.00122 41.4C4.53455 33.8267 7.20122 26.9467 12.0012 20.76C16.8012 14.5733 23.6279 9.66666 32.4812 6.04C41.4412 2.30666 52.2146 0.439995 64.8012 0.439995C75.7879 0.439995 85.2812 1.88 93.2812 4.76C101.388 7.53333 107.681 11.4267 112.161 16.44C116.641 21.3467 118.881 27.16 118.881 33.88C118.881 39.32 117.228 44.28 113.921 48.76C110.721 53.1333 105.655 56.6533 98.7212 59.32C91.7879 61.88 82.9346 63.1067 72.1612 63V59.8C82.4012 59.2667 91.2012 60.0133 98.5612 62.04C105.921 64.0667 111.575 67.2667 115.521 71.64C119.468 76.0133 121.441 81.5067 121.441 88.12C121.441 95.3733 119.148 101.827 114.561 107.48C109.975 113.027 103.255 117.453 94.4012 120.76C85.6546 123.96 74.9879 125.56 62.4012 125.56C50.1346 125.56 39.4146 123.853 30.2412 120.44C21.1746 116.92 14.0812 112.067 8.96122 105.88C3.94789 99.5867 1.22789 92.2267 0.801221 83.8H30.8812C31.7346 89.6667 34.7212 94.2 39.8412 97.4C45.0679 100.493 52.5879 102.04 62.4012 102.04C71.6812 102.04 78.7212 100.653 83.5212 97.88C88.4279 95 90.8812 91 90.8812 85.88C90.8812 82.8933 90.0812 80.44 88.4812 78.52C86.8812 76.4933 84.1612 74.9467 80.3212 73.88C76.4812 72.8133 71.1479 72.28 64.3212 72.28H43.5212V51.64H64.3212C73.1746 51.64 79.4146 50.4133 83.0412 47.96C86.6679 45.4 88.4812 42.0933 88.4812 38.04C88.4812 33.56 86.3479 30.0933 82.0812 27.64C77.9212 25.1867 71.6279 23.96 63.2012 23.96C54.4546 23.96 47.6279 25.4533 42.7212 28.44C37.9212 31.4267 35.0412 35.7467 34.0812 41.4H4.00122Z" fill="url(#paint0_linear_755_75800)"/>
<defs>
<linearGradient id="paint0_linear_755_75800" x1="62.5012" y1="-77" x2="62.5012" y2="117.857" gradientUnits="userSpaceOnUse">
<stop stop-color="#6F6F6F"/>
<stop offset="1" stop-color="#979797" stop-opacity="0"/>
</linearGradient>
</defs>
</svg>
